<svg xmlns="http://www.w3.org/2000/svg" width="160" height="190" viewBox="0 0 160 190">
  <g fill="none" fill-rule="evenodd" transform="translate(0 60)">
    <path fill="#6F6F6E" d="M44.6153846,0 C39.4046154,0 33.6938462,1.48769231 27.6353846,5.21846154 C19.04,10.5153846 14.0507692,17.3523077 12.8061538,25.5415385 C10.5323077,40.5215385 22.1523077,54.0353846 22.6461538,54.6030769 C22.6846154,54.6523077 34.64,69.6015385 27.3215385,77.2692308 C24.2707692,80.4692308 20.7830769,82.0692308 17.7630769,81.6430769 C15.6230769,81.3461538 13.88,80.0369231 12.7246154,77.8538462 C11.6569231,75.8323077 11.3323077,74.1753846 11.7615385,72.9307692 C12.3584615,71.18 14.44,70.2015385 14.46,70.1923077 C17.0123077,69.0446154 18.2123077,66.0430769 17.1046154,63.4707692 C15.9953846,60.9015385 13.0707692,59.6815385 10.4830769,60.7461538 C9.85230769,61.0030769 4.28461538,63.4476923 2.13384615,69.4 C1.12153846,72.2076923 0.563076923,76.7830769 3.66461538,82.6461538 C6.34307692,87.7169231 10.9707692,91.0507692 16.3553846,91.7984615 C22.6769231,92.6753846 29.3846154,89.96 34.74,84.3446154 C45.6953846,72.8615385 37.1984615,56.0676923 30.4476923,47.9553846 C30.2876923,47.7676923 21.3661538,37.2923077 22.9461538,27.04 C23.7384615,21.9153846 27.0307692,17.6323077 33.0138462,13.9476923 C50.6184615,3.09846154 62.0215385,19.7446154 63.2646154,21.6784615 C64.7923077,24.0523077 67.96,24.7538462 70.3369231,23.2369231 C72.7153846,21.72 73.4276923,18.5723077 71.9169231,16.1861538 C67.6123077,9.37692308 57.6953846,0 44.6153846,0" transform="matrix(1 0 0 -1 1.127 118.408)"/>
    <path fill="#D3C5C1" d="M0,32.3076923 C0,14.4907692 16.04,0.0492307692 35.8276923,0.0492307692 L35.8276923,64.56 C16.04,64.56 0,50.1169231 0,32.3076923" transform="matrix(1 0 0 -1 59.702 117.485)"/>
    <path fill="#F6E9E5" d="M36.9230769,32.3076923 C36.9230769,50.1169231 20.8846154,64.56 1.09692308,64.56 L1.09692308,0.0492307692 C20.8846154,0.0492307692 36.9230769,14.4907692 36.9230769,32.3076923" transform="matrix(1 0 0 -1 94.433 117.485)"/>
    <path fill="#D3C5C1" d="M0,32.3076923 C0,14.4938462 18.5876923,0.0553846154 41.5092308,0.0553846154 L41.5092308,64.5630769 C18.5876923,64.5630769 0,50.1215385 0,32.3076923" transform="matrix(1 0 0 -1 54.02 102.033)"/>
    <path fill="#D3C5C1" d="M41.5384615,36.9230769 C41.5384615,54.7369231 22.9507692,69.1784615 0.0323076923,69.1784615 L0.0323076923,1.25230769 C22.9507692,1.25230769 41.5384615,19.1092308 41.5384615,36.9230769" transform="matrix(1 0 0 -1 95.498 106.649)"/>
    <polygon fill="#D3C5C1" points="90.964 123.66 74.774 123.66 74.774 109.547 90.964 109.547"/>
    <path fill="#D3C5C1" d="M0,0 C0,6.99076923 5.66923077,12.6584615 12.6584615,12.6584615 C19.6492308,12.6584615 25.3184615,6.99076923 25.3184615,0" transform="matrix(1 0 0 -1 70.21 129.056)"/>
    <polygon fill="#F6E9E5" points="118.977 123.66 102.791 123.66 102.791 109.547 118.977 109.547"/>
    <path fill="#F6E9E5" d="M0,0 C0,6.99076923 5.66769231,12.6584615 12.6538462,12.6584615 C19.6492308,12.6584615 25.3184615,6.99076923 25.3184615,0" transform="matrix(1 0 0 -1 98.228 129.056)"/>
    <path fill="#6F6F6E" d="M0,27.6923077 C8.92461538,41.3892308 33.2061538,41.5969231 33.2061538,41.5969231 C33.2061538,41.5969231 36.1615385,10.7969231 22.62,0.504615385" transform="matrix(1 0 0 -1 116.698 44.058)"/>
    <path fill="#D76C79" d="M21.5384615,26.1538462 C21.5384615,26.1538462 9.91076923,26.3584615 2.02769231,17.8507692 C-5.85692308,9.34307692 16.1384615,0.210769231 16.1384615,0.210769231 C16.1384615,0.210769231 25.0646154,13.9107692 21.5384615,26.1538462" transform="matrix(1 0 0 -1 121.518 36.294)"/>
    <path fill="#6F6F6E" d="M33.8461538,27.6923077 C24.92,41.3892308 0.64,41.5969231 0.64,41.5969231 C0.64,41.5969231 -2.31692308,10.7969231 11.2230769,0.504615385" transform="matrix(1 0 0 -1 43.768 44.058)"/>
    <path fill="#D76C79" d="M1.53846154,26.1538462 C1.53846154,26.1538462 13.1661538,26.3584615 21.0523077,17.8507692 C28.9353846,9.34307692 6.94,0.210769231 6.94,0.210769231 C6.94,0.210769231 -1.98307692,13.9107692 1.53846154,26.1538462" transform="matrix(1 0 0 -1 49.715 36.294)"/>
    <path fill="#D3C5C1" d="M56.9230769,24.6153846 L56.9230769,79.6707692 C56.9230769,79.6707692 48.62,80.2338462 36.1676923,75.6676923 C23.7153846,71.1015385 13.34,57.4046154 10.0230769,34.9892308 C10.0230769,34.9892308 1.97230769,22.5630769 0.889230769,10.5046154 C0.889230769,10.5046154 11.1553846,7.40769231 21.0953846,1.04769231 C23.2307692,14.3184615 38.4461538,24.6153846 56.9230769,24.6153846" transform="matrix(1 0 0 -1 38.606 86.224)"/>
    <path fill="#F6E9E5" d="M36.9230769,0 C46.8615385,6.36 57.1292308,9.45692308 57.1292308,9.45692308 C57.1292308,21.54 47.9969231,33.9430769 47.9969231,33.9430769 C44.6784615,56.3584615 34.3030769,70.0538462 21.8523077,74.62 C9.39846154,79.1876923 1.09692308,78.6230769 1.09692308,78.6230769 L1.09692308,23.5676923 C19.5738462,23.5676923 34.7876923,13.2707692 36.9230769,0" transform="matrix(1 0 0 -1 94.433 85.177)"/>
    <path fill="#68A284" d="M0,15.3846154 C0,15.3846154 19.0061538,20.8938462 18.5784615,1.56769231 C18.5784615,1.56769231 0,-5.18 0,15.3846154" transform="matrix(1 0 0 -1 61.378 57.468)"/>
    <path fill="#68A284" d="M1.53846154,1.53846154 C1.53846154,1.53846154 20.1153846,-5.20769231 20.1153846,15.3553846 C20.1153846,15.3553846 1.11076923,20.8646154 1.53846154,1.53846154" transform="matrix(1 0 0 -1 109.562 57.44)"/>
    <path fill="#868686" d="M1.53846154,0 C1.30153846,0 1.07230769,0.132307692 0.969230769,0.366153846 C0.826153846,0.68 0.969230769,1.04923077 1.28153846,1.18769231 C2.40461538,1.69384615 28.8846154,13.5092308 38.8246154,9.30923077 C39.14,9.17692308 39.2876923,8.81230769 39.1553846,8.49538462 C39.0169231,8.18 38.66,8.03538462 38.3353846,8.16461538 C28.8953846,12.1676923 2.06307692,0.176923077 1.79230769,0.0538461538 C1.70615385,0.0153846154 1.62307692,0 1.53846154,0" transform="matrix(1 0 0 -1 115.583 70.346)"/>
    <path fill="#868686" d="M1.53846154,0 C1.22,0 0.949230769,0.241538462 0.918461538,0.561538462 C0.881538462,0.901538462 1.13384615,1.20923077 1.47538462,1.24 C4.69384615,1.56923077 32.9969231,4.37846154 36.1707692,2.84153846 C36.48,2.68769231 36.6138462,2.31846154 36.4630769,2.01076923 C36.3138462,1.70307692 35.9476923,1.56769231 35.6307692,1.72153846 C33.4676923,2.76461538 14.0984615,1.26307692 1.6,0.00307692308 C1.57846154,0 1.55384615,0 1.53846154,0" transform="matrix(1 0 0 -1 121.688 74.943)"/>
    <path fill="#868686" d="M24.6153846,0 C24.4492308,0 24.2769231,0.0707692308 24.1538462,0.207692308 C21.1430769,3.57692308 6.99384615,4.81076923 1.8,5.00153846 C1.45076923,5.01538462 1.18461538,5.30769231 1.19692308,5.64769231 C1.20769231,5.99384615 1.50461538,6.22769231 1.84,6.25076923 C2.62615385,6.21846154 21.1076923,5.48769231 25.0830769,1.03846154 C25.3092308,0.781538462 25.2892308,0.386153846 25.0307692,0.158461538 C24.9153846,0.0523076923 24.7661538,0 24.6153846,0" transform="matrix(1 0 0 -1 125.238 86.513)"/>
    <path fill="#868686" d="M38.4615385,0 C38.6969231,0 38.9261538,0.132307692 39.0261538,0.366153846 C39.1707692,0.68 39.0292308,1.04923077 38.7184615,1.18769231 C37.5907692,1.69384615 11.1138462,13.5092308 1.17384615,9.30923077 C0.86,9.17692308 0.707692308,8.81230769 0.844615385,8.49538462 C0.976923077,8.18 1.33846154,8.03538462 1.66,8.16461538 C11.1046154,12.1676923 37.9338462,0.176923077 38.2061538,0.0538461538 C38.2907692,0.0153846154 38.3738462,0 38.4615385,0" transform="matrix(1 0 0 -1 35.474 70.346)"/>
    <path fill="#868686" d="M35.3846154,0 C35.7,0 35.9692308,0.241538462 36.0030769,0.561538462 C36.0369231,0.901538462 35.7892308,1.20923077 35.4461538,1.24 C32.2292308,1.56923077 3.92307692,4.37846154 0.749230769,2.84153846 C0.438461538,2.69076923 0.309230769,2.31846154 0.458461538,2.01076923 C0.607692308,1.70307692 0.972307692,1.56769231 1.28769231,1.72153846 C3.45230769,2.76461538 22.8261538,1.26307692 35.3215385,0.00307692308 C35.3430769,0 35.3630769,0 35.3846154,0" transform="matrix(1 0 0 -1 32.446 74.943)"/>
    <path fill="#868686" d="M1.53846154,0 C1.71076923,0 1.88307692,0.0707692308 2.00461538,0.207692308 C5.01384615,3.57692308 19.1661538,4.81076923 24.36,5.00153846 C24.7061538,5.01538462 24.9723077,5.30769231 24.9615385,5.64769231 C24.9461538,5.99384615 24.6538462,6.22769231 24.3184615,6.25076923 C23.5276923,6.21846154 5.04923077,5.48769231 1.07692308,1.03846154 C0.847692308,0.781538462 0.869230769,0.386153846 1.12615385,0.158461538 C1.24461538,0.0523076923 1.39230769,0 1.53846154,0" transform="matrix(1 0 0 -1 39.66 86.513)"/>
    <path fill="#D3C5C1" d="M32.3076923,27.6923077 L23,34.5061538 C22.8553846,34.6523077 22.7830769,34.8138462 22.6707692,34.9692308 C10.8707692,31.3369231 2.22307692,23.2061538 0.655384615,13.4538462 C3.35384615,11.7230769 5.85384615,9.55692308 8.46461538,7.55230769 C14.1984615,3.16 19.4584615,0.496923077 36.4830769,0.496923077 L36.4830769,25.9692308 C34.9815385,25.9615385 33.4692308,26.5292308 32.3076923,27.6923077" transform="matrix(1 0 0 -1 59.046 98.631)"/>
    <path fill="#F6E9E5" d="M13.8461538,35.3846154 C13.7938462,35.3261538 13.7784615,35.2584615 13.7230769,35.2030769 L3.97692308,27.9492308 C2.91692308,26.8876923 1.51538462,26.3661538 0.106153846,26.36 L0.106153846,0.887692308 C17.1276923,0.887692308 22.3907692,3.54923077 28.1230769,7.94307692 C30.7369231,9.94769231 33.2369231,12.1138462 35.9323077,13.8446154 C34.3584615,23.6169231 25.6815385,31.7630769 13.8461538,35.3846154" transform="matrix(1 0 0 -1 95.423 99.022)"/>
    <path fill="#3C3C3B" d="M43.0769231,7.69230769 C42.7384615,8.02307692 42.2015385,8.02307692 41.8661538,7.68923077 C41.8046154,7.62769231 35.5646154,1.47076923 29.6784615,2.25538462 C27.0738462,2.61538462 24.8830769,4.3 23.1384615,7.31230769 L23.1384615,11.9615385 C24.2476923,12.1338462 25.3076923,12.62 26.1553846,13.4676923 L35.9015385,20.7215385 C35.9569231,20.7769231 35.9723077,20.8446154 36.0246154,20.9030769 C31.7846154,22.1984615 27.1507692,22.9307692 22.2846154,22.9307692 C17.3876923,22.9307692 12.7323077,22.1907692 8.47384615,20.8784615 C8.58461538,20.7230769 8.65846154,20.5615385 8.80307692,20.4153846 L18.1092308,13.6015385 C19.0507692,12.66 20.2230769,12.1292308 21.4307692,11.9569231 L21.4307692,7.31230769 C19.6923077,4.31076923 17.4938462,2.60923077 14.8953846,2.25538462 C9.01076923,1.46461538 2.76461538,7.62769231 2.7,7.68923077 C2.36615385,8.02615385 1.82769231,8.02615385 1.49230769,7.69076923 C1.16,7.35846154 1.16,6.81846154 1.48923077,6.48461538 C1.75076923,6.22153846 7.54923077,0.475384615 13.8046154,0.475384615 C14.2430769,0.475384615 14.6784615,0.501538462 15.1184615,0.561538462 C17.9569231,0.947692308 20.3584615,2.59846154 22.2846154,5.46307692 C24.2061538,2.59846154 26.6123077,0.947692308 29.4492308,0.561538462 C29.8892308,0.501538462 30.3292308,0.475384615 30.7646154,0.475384615 C37.0184615,0.475384615 42.8169231,6.22153846 43.0769231,6.48461538 C43.4123077,6.81846154 43.4092308,7.35846154 43.0769231,7.69230769" transform="matrix(1 0 0 -1 73.244 84.54)"/>
    <path fill="#FFF" d="M7.69230769,4.61538462 C7.69230769,2.84769231 6.25692308,1.41230769 4.48769231,1.41230769 C2.72153846,1.41230769 1.28461538,2.84769231 1.28461538,4.61538462 C1.28461538,6.38461538 2.72153846,7.82 4.48769231,7.82 C6.25692308,7.82 7.69230769,6.38461538 7.69230769,4.61538462" transform="matrix(1 0 0 -1 69.348 51.601)"/>
    <path fill="#FFF" d="M7.69230769,4.61538462 C7.69230769,2.84769231 6.25846154,1.41230769 4.48923077,1.41230769 C2.72,1.41230769 1.28461538,2.84769231 1.28461538,4.61538462 C1.28461538,6.38461538 2.72,7.82 4.48923077,7.82 C6.25846154,7.82 7.69230769,6.38461538 7.69230769,4.61538462" transform="matrix(1 0 0 -1 118.112 51.601)"/>
  </g>
</svg>
