<?xml version="1.0" encoding="UTF-8" standalone="no"?>
<!-- Created with Inkscape (http://www.inkscape.org/) -->

<svg
   xmlns:dc="http://purl.org/dc/elements/1.1/"
   xmlns:cc="http://creativecommons.org/ns#"
   xmlns:rdf="http://www.w3.org/1999/02/22-rdf-syntax-ns#"
   xmlns:svg="http://www.w3.org/2000/svg"
   xmlns="http://www.w3.org/2000/svg"
   version="1.1"
   width="108.92625"
   height="147.41925"
   id="svg13167">
  <defs
     id="defs13169" />
  <metadata
     id="metadata13172">
    <rdf:RDF>
      <cc:Work
         rdf:about="">
        <dc:format>image/svg+xml</dc:format>
        <dc:type
           rdf:resource="http://purl.org/dc/dcmitype/StillImage" />
        <dc:title></dc:title>
      </cc:Work>
    </rdf:RDF>
  </metadata>
  <g
     transform="translate(-320.53687,-458.65256)"
     id="layer1">
    <g
       transform="matrix(1.25,0,0,-1.25,429.46312,558.65868)"
       id="g4002">
      <path
         d="m 0,0 c 0,-20.505 -19.508,-37.317 -43.57,-37.317 -24.064,0 -43.571,16.812 -43.571,37.317 0,20.506 19.507,37.129 43.571,37.129 C -19.508,37.129 0,20.506 0,0"
         id="path4004"
         style="fill:#af5b2b;fill-opacity:1;fill-rule:nonzero;stroke:none" />
    </g>
    <g
       transform="matrix(1.25,0,0,-1.25,378.12162,479.97581)"
       id="g4006">
      <path
         d="m 0,0 c -1.38,0 -2.497,1.117 -2.497,2.497 l 0,8.32 c 0,1.38 1.117,2.497 2.497,2.497 1.38,0 2.496,-1.117 2.496,-2.497 l 0,-8.32 C 2.496,1.117 1.38,0 0,0"
         id="path4008"
         style="fill:#b6382f;fill-opacity:1;fill-rule:nonzero;stroke:none" />
    </g>
    <g
       transform="matrix(1.25,0,0,-1.25,383.67087,483.09656)"
       id="g4010">
      <path
         d="m 0,0 c -1.381,0 -2.497,1.117 -2.497,2.497 l 0,8.32 c 0,1.38 1.116,2.497 2.497,2.497 1.378,0 2.496,-1.117 2.496,-2.497 l 0,-8.32 C 2.496,1.117 1.378,0 0,0"
         id="path4012"
         style="fill:#b6382f;fill-opacity:1;fill-rule:nonzero;stroke:none" />
    </g>
    <g
       transform="matrix(1.25,0,0,-1.25,327.958,549.56743)"
       id="g4014">
      <path
         d="M 0,0 C 0.021,0.018 0.045,0.034 0.067,0.05 0.091,0.072 0.115,0.092 0.14,0.114 l 0,-0.016 C 0.095,0.063 0.045,0.034 0,0"
         id="path4016"
         style="fill:#b66916;fill-opacity:1;fill-rule:nonzero;stroke:none" />
    </g>
    <g
       transform="matrix(1.25,0,0,-1.25,422.53687,549.62731)"
       id="g4018">
      <path
         d="m 0,0 c 0,0.007 -0.003,0.01 -0.003,0.017 0.026,-0.021 0.048,-0.04 0.07,-0.06 C 0.092,-0.06 0.113,-0.077 0.136,-0.093 0.092,-0.06 0.042,-0.032 0,0"
         id="path4020"
         style="fill:#b66916;fill-opacity:1;fill-rule:nonzero;stroke:none" />
    </g>
    <g
       transform="matrix(1.25,0,0,-1.25,374.8965,559.10056)"
       id="g4022">
      <path
         d="m 0,0 -0.249,0 c -4.594,0.13 -8.203,3.974 -8.055,8.569 0,0.349 0.033,0.681 0.082,1.016 -0.097,-0.217 -0.215,-0.433 -0.331,-0.65 -2.331,-3.961 -7.439,-5.291 -11.4,-2.961 -3.962,2.328 -5.293,7.437 -2.964,11.399 0.153,0.233 0.303,0.448 0.451,0.667 -0.251,-0.234 -0.5,-0.469 -0.785,-0.684 -2.78,-2.148 -6.475,-2.244 -9.322,-0.561 -3.005,-9.037 -3.014,-19.199 -3.014,-19.199 0.471,-19.505 16.418,-35.173 36.033,-35.173 l 0.003,0 0,37.619 C 0.296,0.036 0.156,0 0,0"
         id="path4024"
         style="fill:#d3c5c1;fill-opacity:1;fill-rule:nonzero;stroke:none" />
    </g>
    <g
       transform="matrix(1.25,0,0,-1.25,345.83275,537.40493)"
       id="g4026">
      <path
         d="M 0,0 C 0.285,0.215 0.534,0.449 0.785,0.683 0.637,0.465 0.487,0.25 0.334,0.017 c -2.329,-3.962 -0.998,-9.071 2.964,-11.399 3.961,-2.331 9.069,-1 11.4,2.961 0.116,0.217 0.234,0.432 0.331,0.65 -0.05,-0.335 -0.082,-0.667 -0.082,-1.017 -0.148,-4.594 3.461,-8.438 8.055,-8.568 l 0.249,0 c 0.156,0 0.296,0.035 0.449,0.042 l 0,68.058 -0.003,0 c -13.044,0 -23.738,-10.01 -24.85,-22.767 l -0.014,0.017 c 0,0 0.003,-0.073 0.005,-0.189 -0.056,-0.671 -0.104,-1.34 -0.104,-2.024 0,-0.209 0.022,-0.414 0.027,-0.623 C -1.381,22.643 -1.753,18.714 -2.848,14.571 -3.62,11.663 -4.741,8.652 -6.397,5.948 -7.603,3.979 -8.558,1.743 -9.322,-0.562 -6.475,-2.244 -2.78,-2.148 0,0"
         id="path4028"
         style="fill:#af5b2b;fill-opacity:1;fill-rule:nonzero;stroke:none" />
    </g>
    <g
       transform="matrix(1.25,0,0,-1.25,420.502,562.04668)"
       id="g4030">
      <path
         d="m 0,0 c 0,0 -0.013,9.833 -2.871,18.751 -3.119,-2.331 -7.536,-2.223 -10.531,0.479 -0.1,0.084 -0.2,0.184 -0.298,0.265 0.132,-0.181 0.249,-0.382 0.365,-0.58 2.248,-3.997 0.85,-9.069 -3.162,-11.335 -3.994,-2.263 -9.07,-0.848 -11.334,3.163 -0.134,0.234 -0.248,0.466 -0.365,0.714 0.034,-0.348 0.05,-0.682 0.034,-1.03 -0.129,-4.358 -3.589,-7.797 -7.873,-8.028 l 0,-37.619 C -16.402,-35.22 -0.447,-19.527 0,0"
         id="path4032"
         style="fill:#f6e9e5;fill-opacity:1;fill-rule:nonzero;stroke:none" />
    </g>
    <g
       transform="matrix(1.25,0,0,-1.25,385.29937,549.01268)"
       id="g4034">
      <path
         d="M 0,0 C 0.016,0.348 0,0.682 -0.034,1.03 0.083,0.782 0.197,0.55 0.331,0.316 c 2.264,-4.011 7.34,-5.426 11.334,-3.164 4.012,2.267 5.41,7.339 3.162,11.335 -0.116,0.199 -0.233,0.4 -0.365,0.581 0.099,-0.081 0.198,-0.181 0.298,-0.265 2.995,-2.702 7.412,-2.81 10.531,-0.479 -0.783,2.446 -1.77,4.827 -3.041,6.91 -1.518,2.489 -2.588,5.234 -3.352,7.918 -1.301,4.581 -1.692,8.982 -1.821,11.612 0,0.101 0.01,0.201 0.01,0.303 0,0.455 -0.043,0.899 -0.069,1.347 -0.005,0.537 0,0.866 0,0.866 L 16.979,37.222 C 15.884,49.998 5.186,60.03 -7.873,60.03 l 0,-68.058 C -3.589,-7.797 -0.129,-4.358 0,0"
         id="path4036"
         style="fill:#c07c61;fill-opacity:1;fill-rule:nonzero;stroke:none" />
    </g>
    <g
       transform="matrix(1.25,0,0,-1.25,367.35737,458.65256)"
       id="g4038">
      <path
         d="M 0,0 C 1.696,-1.361 2.82,-2.767 3.829,-3.957 4.342,-4.58 4.707,-4.914 5.222,-5.491 5.743,-6.106 6.32,-6.864 6.794,-7.71 c 0.967,-1.687 1.564,-3.736 1.532,-5.758 -0.047,-2.026 -0.631,-4.025 -2.085,-5.671 -1.317,1.754 -2.183,3.178 -3.008,4.466 -0.813,1.291 -1.523,2.422 -2.236,3.692 -0.363,0.638 -0.711,1.309 -1.101,2.128 -0.42,0.847 -0.839,2.032 -0.925,3.002 C -1.237,-3.862 -0.986,-1.965 0,0"
         id="path4040"
         style="fill:#ea575b;fill-opacity:1;fill-rule:nonzero;stroke:none" />
    </g>
    <g
       transform="matrix(1.25,0,0,-1.25,386.70187,527.21881)"
       id="g4042">
      <path
         d="m 0,0 0,0.013 c 0,5.547 -5.017,10.044 -9.153,10.044 -4.136,0 -9.153,-4.497 -9.153,-10.044 0,-2.22 -0.173,-8.055 4.025,-8.055 1.235,0 2.328,0.573 3.066,1.452 0.694,-0.077 1.39,-0.112 2.062,-0.112 0.674,0 1.368,0.035 2.063,0.112 0.737,-0.879 1.83,-1.452 3.069,-1.452 C 0.166,-8.042 0,-2.23 0,0"
         id="path4044"
         style="fill:#ea575b;fill-opacity:1;fill-rule:nonzero;stroke:none" />
    </g>
    <g
       transform="matrix(1.25,0,0,-1.25,362.68087,491.81231)"
       id="g4046">
      <path
         d="m 0,0 c -6.133,0 -11.107,-4.724 -11.107,-10.555 0,-5.828 4.974,-10.554 11.107,-10.554 4.59,0 8.526,-0.666 10.222,3.086 l 0,11.609 C 8.526,-2.644 4.59,0 0,0"
         id="path4048"
         style="fill:#d3c5c1;fill-opacity:1;fill-rule:nonzero;stroke:none" />
    </g>
    <g
       transform="matrix(1.25,0,0,-1.25,388.26687,518.19843)"
       id="g4050">
      <path
         d="m 0,0 c 6.136,0 11.109,4.726 11.109,10.554 0,5.831 -4.973,10.555 -11.109,10.555 -4.602,0 -8.547,-2.655 -10.232,-6.44 -0.006,0.01 -0.011,0.017 -0.015,0.026 l 0,-11.609 c 0.004,0.009 0.009,0.018 0.015,0.028 C -8.547,-0.673 -4.602,0 0,0"
         id="path4052"
         style="fill:#f6e9e5;fill-opacity:1;fill-rule:nonzero;stroke:none" />
    </g>
    <g
       transform="matrix(1.25,0,0,-1.25,373.01412,514.98981)"
       id="g4054">
      <path
         d="m 0,0 -2.69,-1.776 c -1.082,-0.715 -1.427,-2.211 -0.762,-3.327 l 4.213,-7.073 c 0.333,-0.557 0.77,-0.835 1.209,-0.835 l 0,13.548 C 1.253,0.537 0.542,0.358 0,0"
         id="path4056"
         style="fill:#f39e2b;fill-opacity:1;fill-rule:nonzero;stroke:none" />
    </g>
    <g
       transform="matrix(1.25,0,0,-1.25,376.9815,530.20956)"
       id="g4058">
      <path
         d="M 0,0 4.213,7.073 C 4.877,8.189 4.534,9.685 3.452,10.4 l -2.69,1.776 c -0.54,0.358 -1.256,0.536 -1.966,0.536 l 0,-13.547 C -0.77,-0.835 -0.332,-0.558 0,0"
         id="path4060"
         style="fill:#fbdd58;fill-opacity:1;fill-rule:nonzero;stroke:none" />
    </g>
    <g
       transform="matrix(1.25,0,0,-1.25,360.613,500.53431)"
       id="g4062">
      <path
         d="m 0,0 c -0.716,0 -1.378,-0.215 -1.939,-0.575 -0.126,0.085 -0.272,0.166 -0.393,0.29 l -1.352,1.599 c -0.101,-0.737 -0.068,-1.498 0.196,-2.262 0.099,-0.273 0.171,-0.618 0.376,-0.87 C -3.414,-2.346 -3.6,-2.949 -3.6,-3.6 c 0,-1.988 1.612,-3.597 3.6,-3.597 1.986,0 3.6,1.609 3.6,3.597 C 3.6,-1.611 1.986,0 0,0"
         id="path4064"
         style="fill:#4e1412;fill-opacity:1;fill-rule:nonzero;stroke:none" />
    </g>
    <g
       transform="matrix(1.25,0,0,-1.25,393.5085,502.35493)"
       id="g4066">
      <path
         d="M 0,0 C 0.067,0.172 0.118,0.351 0.175,0.509 0.438,1.273 0.471,2.033 0.37,2.771 L 0.205,2.799 C -0.157,2.183 -0.558,1.611 -0.979,1.172 -1.042,1.109 -1.109,1.059 -1.18,1.012 c -0.507,0.274 -1.08,0.445 -1.697,0.445 -1.991,0 -3.603,-1.611 -3.603,-3.6 0,-1.988 1.612,-3.598 3.603,-3.598 1.985,0 3.598,1.61 3.598,3.598 C 0.721,-1.336 0.447,-0.6 0,0"
         id="path4068"
         style="fill:#4e1412;fill-opacity:1;fill-rule:nonzero;stroke:none" />
    </g>
    <g
       transform="matrix(1.25,0,0,-1.25,363.81862,503.76543)"
       id="g4070">
      <path
         d="m 0,0 c 0,-0.592 -0.48,-1.072 -1.073,-1.072 -0.592,0 -1.073,0.48 -1.073,1.072 0,0.592 0.481,1.073 1.073,1.073 C -0.48,1.073 0,0.592 0,0"
         id="path4072"
         style="fill:#ffffff;fill-opacity:1;fill-rule:nonzero;stroke:none" />
    </g>
    <g
       transform="matrix(1.25,0,0,-1.25,393.22775,503.76543)"
       id="g4074">
      <path
         d="m 0,0 c 0,-0.592 -0.48,-1.072 -1.071,-1.072 -0.594,0 -1.073,0.48 -1.073,1.072 0,0.592 0.479,1.073 1.073,1.073 C -0.48,1.073 0,0.592 0,0"
         id="path4076"
         style="fill:#ffffff;fill-opacity:1;fill-rule:nonzero;stroke:none" />
    </g>
  </g>
</svg>
