<svg xmlns="http://www.w3.org/2000/svg" width="160" height="190" viewBox="0 0 160 190">
  <g fill="none" fill-rule="evenodd" transform="translate(10)">
    <path fill="#AF5B2B" d="M138.410596,59.7682119 C138.410596,27.5169702 107.727483,1.07425497 69.8816225,1.07425497 C32.0326159,1.07425497 1.35107616,27.5169702 1.35107616,59.7682119 C1.35107616,92.0210265 32.0326159,118.166474 69.8816225,118.166474 C107.727483,118.166474 138.410596,92.0210265 138.410596,59.7682119" transform="matrix(1 0 0 -1 1.165 186.862)"/>
    <path fill="#B6382F" d="M4.71854305,0 C2.54801325,0 0.791142384,1.75687086 0.791142384,3.92740066 L0.791142384,17.0134934 C0.791142384,19.1840232 2.54801325,20.940894 4.71854305,20.940894 C6.88907285,20.940894 8.64437086,19.1840232 8.64437086,17.0134934 L8.64437086,3.92740066 C8.64437086,1.75687086 6.88907285,0 4.71854305,0" transform="matrix(1 0 0 -1 70.256 28.089)"/>
    <path fill="#B6382F" d="M4.71854305,0 C2.5464404,0 0.791142384,1.75687086 0.791142384,3.92740066 L0.791142384,17.0134934 C0.791142384,19.1840232 2.5464404,20.940894 4.71854305,20.940894 C6.88592715,20.940894 8.64437086,19.1840232 8.64437086,17.0134934 L8.64437086,3.92740066 C8.64437086,1.75687086 6.88592715,0 4.71854305,0" transform="matrix(1 0 0 -1 77.238 32.016)"/>
    <path fill="#B66916" d="M1.57284768,1.57284768 C1.60587748,1.60115894 1.64362583,1.6263245 1.67822848,1.65149007 C1.71597682,1.68609272 1.75372517,1.71754967 1.79304636,1.75215232 L1.79304636,1.72698675 C1.72226821,1.67193709 1.64362583,1.6263245 1.57284768,1.57284768" transform="matrix(1 0 0 -1 10.282 117.227)"/>
    <path fill="#B66916" d="M1.57284768,1.57284768 C1.57284768,1.58385762 1.56812914,1.58857616 1.56812914,1.59958609 C1.60902318,1.56655629 1.64362583,1.53667219 1.67822848,1.50521523 C1.71754967,1.47847682 1.75057947,1.45173841 1.78675497,1.42657285 C1.71754967,1.47847682 1.63890728,1.52251656 1.57284768,1.57284768" transform="matrix(1 0 0 -1 129.288 117.303)"/>
    <path fill="#D3C5C1" d="M56.6225166,59.7682119 L56.2308775,59.7682119 C49.0052152,59.9726821 43.3288079,66.0187086 43.5615894,73.2459437 C43.5615894,73.7948675 43.6134934,74.317053 43.6905629,74.843957 C43.5379967,74.502649 43.3524007,74.1629139 43.1699503,73.821606 C39.5036424,67.5915563 31.4695364,65.4996689 25.2394868,69.164404 C19.0078642,72.8259934 16.914404,80.8616722 20.5775662,87.0932947 C20.8182119,87.4597682 21.0541391,87.7979305 21.2869205,88.1423841 C20.8921358,87.7743377 20.5004967,87.4047185 20.0522351,87.0665563 C15.6797185,83.6880795 9.86804636,83.5370861 5.39014901,86.1841887 C0.663741722,71.9703642 0.649586093,55.9870861 0.649586093,55.9870861 C1.39039735,25.3086921 26.4725993,0.66531457 57.3240066,0.66531457 L57.3287252,0.66531457 L57.3287252,59.8342715 C57.0880795,59.8248344 56.8678808,59.7682119 56.6225166,59.7682119" transform="matrix(1 0 0 -1 14.294 187.418)"/>
    <path fill="#AF5B2B" d="M15.7284768,28.3112583 C16.1767384,28.6494205 16.5683775,29.0174669 16.9631623,29.3855132 C16.7303808,29.0426325 16.4944536,28.7044702 16.2538079,28.3379967 C12.5906457,22.1063742 14.684106,14.0706954 20.9157285,10.409106 C27.1457781,6.74279801 35.1798841,8.83625828 38.8461921,15.0663079 C39.0286424,15.4076159 39.2142384,15.7457781 39.3668046,16.0886589 C39.2881623,15.561755 39.2378311,15.0395695 39.2378311,14.4890728 C39.0050497,7.2634106 44.681457,1.21738411 51.9071192,1.01291391 L52.2987583,1.01291391 C52.5441225,1.01291391 52.7643212,1.06796358 53.0049669,1.07897351 L53.0049669,108.123841 L53.0002483,108.123841 C32.4840232,108.123841 15.6639901,92.3796358 13.9149834,72.3148179 L13.8929636,72.3415563 C13.8929636,72.3415563 13.8976821,72.2267384 13.9008278,72.0442881 C13.8127483,70.9889073 13.7372517,69.9366722 13.7372517,68.8608444 C13.7372517,68.5321192 13.7718543,68.2096854 13.7797185,67.8809603 C13.5563742,63.9252483 12.9712748,57.7455298 11.2490066,51.2292219 C10.0347682,46.6553808 8.27160596,41.9195364 5.6669702,37.6665563 C3.77011589,34.5696192 2.26804636,31.0527318 1.06639073,27.4273179 C5.54428808,24.7817881 11.3559603,24.9327815 15.7284768,28.3112583" transform="matrix(1 0 0 -1 18.617 128.662)"/>
    <path fill="#F6E9E5" d="M58.1953642,56.6225166 C58.1953642,56.6225166 58.1749172,72.0883278 53.6797185,86.1149834 C48.7740066,82.4486755 41.8267384,82.618543 37.1160596,86.8683775 C36.9587748,87.0004967 36.8014901,87.1577815 36.647351,87.2851821 C36.8549669,87.0004967 37.0389901,86.6843543 37.2214404,86.3729305 C40.757202,80.0862583 38.5583609,72.1087748 32.248096,68.544702 C25.9661424,64.9853477 17.9823675,67.2109272 14.4214404,73.5196192 C14.2106788,73.8876656 14.0313742,74.2525662 13.847351,74.6426325 C13.9008278,74.0952815 13.9259934,73.5699503 13.9008278,73.0225993 C13.6979305,66.1681291 8.25587748,60.759106 1.51779801,60.3957781 L1.51779801,1.22682119 C32.3975166,1.22682119 57.4923013,25.9095199 58.1953642,56.6225166" transform="matrix(1 0 0 -1 70.105 187.98)"/>
    <path fill="#C07C61" d="M12.5827815,14.1556291 C12.607947,14.7029801 12.5827815,15.2283113 12.5293046,15.7756623 C12.7133278,15.385596 12.8926325,15.0206954 13.103394,14.652649 C16.6643212,8.34395695 24.648096,6.11837748 30.9300497,9.67615894 C37.2403146,13.2418046 39.4391556,21.2192881 35.903394,27.5043874 C35.7209437,27.8173841 35.5369205,28.1335265 35.3293046,28.4182119 C35.4850166,28.2908113 35.6407285,28.1335265 35.7980132,28.0014073 C40.5086921,23.7515728 47.4559603,23.5817053 52.3616722,27.2480132 C51.1301325,31.0951987 49.5777318,34.840149 47.5786424,38.1163907 C45.1910596,42.0312086 43.5081126,46.3486755 42.306457,50.5701987 C40.2601821,57.7754139 39.6451987,64.6975166 39.4423013,68.834106 C39.4423013,68.9929636 39.4580298,69.1502483 39.4580298,69.3106788 C39.4580298,70.0263245 39.3903974,70.7246689 39.3495033,71.4293046 C39.3416391,72.2739238 39.3495033,72.7913907 39.3495033,72.7913907 L39.2881623,72.7001656 C37.565894,92.7948675 20.7395695,108.573675 0.199751656,108.573675 L0.199751656,1.52880795 C6.93783113,1.89213576 12.3798841,7.30115894 12.5827815,14.1556291" transform="matrix(1 0 0 -1 71.423 129.112)"/>
    <path fill="#EA575B" d="M3.14569536,31.4569536 C5.81324503,29.3163079 7.58112583,27.1048841 9.16812914,25.2331954 C9.975,24.2533113 10.5490894,23.7279801 11.359106,22.820447 C12.1785596,21.8531457 13.0860927,20.6609272 13.8316225,19.330298 C15.3525662,16.676904 16.2915563,13.4541391 16.2412252,10.2738411 C16.1673013,7.08725166 15.2487583,3.94312914 12.9618377,1.35422185 C10.8903974,4.11299669 9.52831126,6.35273179 8.23071192,8.3785596 C6.95198675,10.409106 5.8352649,12.1879967 4.7138245,14.1855132 C4.14288079,15.1889901 3.5955298,16.2443709 2.98211921,17.5325331 C2.32152318,18.8647351 1.6625,20.7285596 1.5272351,22.2542219 C1.20008278,25.3826159 1.59486755,28.3663079 3.14569536,31.4569536" transform="matrix(1 0 0 -1 58.284 32.715)"/>
    <path fill="#EA575B" d="M29.884106,14.1556291 L29.884106,14.1760762 C29.884106,22.9006623 21.9931291,29.9737583 15.4878311,29.9737583 C8.98253311,29.9737583 1.09155629,22.9006623 1.09155629,14.1760762 C1.09155629,10.6843543 0.819453642,1.50678808 7.42226821,1.50678808 C9.3647351,1.50678808 11.0838576,2.4080298 12.2446192,3.79056291 C13.3361755,3.66945364 14.4308775,3.61440397 15.4878311,3.61440397 C16.5479305,3.61440397 17.6394868,3.66945364 18.7326159,3.79056291 C19.8918046,2.4080298 21.6109272,1.50678808 23.5596854,1.50678808 C30.1451987,1.50678808 29.884106,10.6481788 29.884106,14.1556291" transform="matrix(1 0 0 -1 55.886 101.69)"/>
    <path fill="#D3C5C1" d="M18.8741722,34.602649 C9.22789735,34.602649 1.40455298,27.1725166 1.40455298,18.0012417 C1.40455298,8.83468543 9.22789735,1.40140728 18.8741722,1.40140728 C26.093543,1.40140728 32.2842715,0.353890728 34.9518212,6.25521523 L34.9518212,24.514404 C32.2842715,30.4440397 26.093543,34.602649 18.8741722,34.602649" transform="matrix(1 0 0 -1 36.671 77.585)"/>
    <path fill="#F6E9E5" d="M17.3013245,1.57284768 C26.9523179,1.57284768 34.7740894,9.00612583 34.7740894,18.1726821 C34.7740894,27.343957 26.9523179,34.7740894 17.3013245,34.7740894 C10.0630795,34.7740894 3.85819536,30.5981788 1.20794702,24.6449503 C1.19850993,24.6606788 1.1906457,24.6716887 1.1843543,24.6858444 L1.1843543,6.42665563 C1.1906457,6.44081126 1.19850993,6.45496689 1.20794702,6.47069536 C3.85819536,0.514321192 10.0630795,1.57284768 17.3013245,1.57284768" transform="matrix(1 0 0 -1 70.438 77.756)"/>
    <path fill="#F39E2B" d="M6.29139073,22.0198675 L2.06043046,19.2264901 C0.358609272,18.101904 -0.184023179,15.7489238 0.86192053,13.9936258 L7.48832781,2.86887417 C8.01208609,1.99279801 8.69942053,1.55554636 9.38990066,1.55554636 L9.38990066,22.8644868 C8.26216887,22.8644868 7.14387417,22.582947 6.29139073,22.0198675" transform="matrix(1 0 0 -1 62.256 94.166)"/>
    <path fill="#FBDD58" d="M3.14569536,1.57284768 L9.77210265,12.6975993 C10.8164735,14.4528974 10.2769868,16.8058775 8.57516556,17.9304636 L4.3442053,20.7238411 C3.49486755,21.2869205 2.36870861,21.5668874 1.25198675,21.5668874 L1.25198675,0.259519868 C1.93460265,0.259519868 2.62350993,0.695198675 3.14569536,1.57284768" transform="matrix(1 0 0 -1 70.394 92.87)"/>
    <path fill="#4E1412" d="M6.29139073,12.5827815 C5.16523179,12.5827815 4.12400662,12.2446192 3.24163907,11.678394 C3.04346026,11.8120861 2.8138245,11.9394868 2.62350993,12.1345199 L0.497019868,14.6495033 C0.338162252,13.4903146 0.390066225,12.2933775 0.805298013,11.0917219 C0.961009934,10.6623344 1.07425497,10.119702 1.39668874,9.72334437 C0.921688742,8.89288079 0.629139073,7.94445364 0.629139073,6.9205298 C0.629139073,3.79370861 3.16456954,1.26299669 6.29139073,1.26299669 C9.41506623,1.26299669 11.9536424,3.79370861 11.9536424,6.9205298 C11.9536424,10.0489238 9.41506623,12.5827815 6.29139073,12.5827815" transform="matrix(1 0 0 -1 46.652 66.54)"/>
    <path fill="#4E1412" d="M11.0099338,9.43708609 C11.1153146,9.70761589 11.1955298,9.98915563 11.2851821,10.2376656 C11.6988411,11.4393212 11.750745,12.6346854 11.5918874,13.795447 L11.3323675,13.8394868 C10.7629967,12.8706126 10.1322848,11.9709437 9.47011589,11.2804636 C9.37102649,11.1813742 9.2656457,11.1027318 9.15397351,11.0288079 C8.35653974,11.4597682 7.45529801,11.7287252 6.48485099,11.7287252 C3.35331126,11.7287252 0.817880795,9.19486755 0.817880795,6.06647351 C0.817880795,2.93965232 3.35331126,0.40736755 6.48485099,0.40736755 C9.60695364,0.40736755 12.143957,2.93965232 12.143957,6.06647351 C12.143957,7.33576159 11.7129967,8.49337748 11.0099338,9.43708609" transform="matrix(1 0 0 -1 83.325 65.685)"/>
    <path fill="#FFF" d="M4.71854305,3.14569536 C4.71854305,2.21456954 3.96357616,1.45960265 3.03087748,1.45960265 C2.09975166,1.45960265 1.34321192,2.21456954 1.34321192,3.14569536 C1.34321192,4.07682119 2.09975166,4.83336093 3.03087748,4.83336093 C3.96357616,4.83336093 4.71854305,4.07682119 4.71854305,3.14569536" transform="matrix(1 0 0 -1 52.258 61.169)"/>
    <path fill="#FFF" d="M4.71854305,3.14569536 C4.71854305,2.21456954 3.96357616,1.45960265 3.03402318,1.45960265 C2.09975166,1.45960265 1.34635762,2.21456954 1.34635762,3.14569536 C1.34635762,4.07682119 2.09975166,4.83336093 3.03402318,4.83336093 C3.96357616,4.83336093 4.71854305,4.07682119 4.71854305,3.14569536" transform="matrix(1 0 0 -1 89.263 61.169)"/>
  </g>
</svg>
