<svg xmlns="http://www.w3.org/2000/svg" width="160" height="190" viewBox="0 0 160 190">
  <g fill="none" fill-rule="evenodd" transform="translate(12)">
    <path fill="#AF5B2B" d="M127.439024,55.0304878 C127.439024,25.335747 99.1910061,0.99054878 64.3436738,0.99054878 C29.4948933,0.99054878 1.24542683,25.335747 1.24542683,55.0304878 C1.24542683,84.7266768 29.4948933,108.801067 64.3436738,108.801067 C99.1910061,108.801067 127.439024,84.7266768 127.439024,55.0304878" transform="matrix(1 0 0 -1 6.241 188.518)"/>
    <path fill="#B6382F" d="M0,17.3780488 C2.77759146,18.4424543 5.40457317,18.1977134 7.79115854,17.5445884 C10.170503,16.8465701 12.3239329,15.5895579 14.1182165,13.9328506 C15.9153963,12.2775915 17.3389482,10.1965701 18.2092988,7.85198171 C19.0405488,5.49146341 19.3895579,2.87751524 18.5278963,0.0579268293 C15.7792683,1.11653963 13.8734756,2.21425305 12.129878,3.32355183 C10.4094512,4.43864329 8.93666159,5.58414634 7.56669207,6.86722561 C6.18948171,8.14596037 4.92088415,9.55647866 3.67400915,11.2073933 C2.43147866,12.893064 1.25266768,14.7467226 0,17.3780488" transform="matrix(1 0 0 -1 45.784 40.379)"/>
    <path fill="#B6382F" d="M2.89634146,31.8597561 C5.51608232,29.8902439 7.14092988,27.5543445 8.43125,25.1286585 C9.68536585,22.6870427 10.5079268,20.1078506 10.9264482,17.4330793 C11.3362805,14.7612043 11.3304878,11.9836128 10.7628049,9.17995427 C10.1473323,6.42408537 9.05106707,3.43940549 6.51242378,1.28018293 C5.08452744,4.18521341 4.02446646,6.41974085 3.18742378,8.81791159 C2.36775915,11.179878 1.76097561,13.5432927 1.39603659,15.980564 C1.03254573,18.414939 0.890625,20.917378 1.04992378,23.5284299 C1.24108232,26.1525152 1.66105183,28.8446646 2.89634146,31.8597561" transform="matrix(1 0 0 -1 67.44 37.99)"/>
    <path fill="#B6382F" d="M5.79268293,28.9634146 C7.87370427,26.6622713 8.90480183,24.2264482 9.58833841,21.7761433 C10.2313262,19.3185976 10.4253811,16.8262957 10.1835366,14.3325457 C9.94748476,11.8416921 9.26684451,9.33925305 7.99969512,6.95556402 C6.71806402,4.66455793 4.80647866,2.13025915 1.72621951,1.24977134 C1.35693598,4.26775915 0.806631098,6.36905488 0.611128049,8.64847561 C0.39535061,10.8772104 0.369283537,13.0625 0.592301829,15.2738567 C0.813871951,17.4837652 1.26570122,19.7096037 2.03612805,21.9788872 C2.84420732,24.2510671 3.8839939,26.5420732 5.79268293,28.9634146" transform="matrix(1 0 0 -1 74.636 40.818)"/>
    <path fill="#3C3C3B" d="M0,23.1707317 C3.42637195,25.1402439 7.40160061,26.0163872 11.5636433,26.074314 C13.6432165,26.0323171 15.7560976,25.7296494 17.8313262,25.1344512 C19.8862805,24.5059451 21.8804116,23.5878049 23.732622,22.4451982 C25.5790396,21.2996951 27.4109756,20.060061 29.0633384,18.6147866 C30.7113567,17.1637195 31.9785061,15.3737805 32.8010671,13.4245427 C34.4056402,9.49710366 34.9689787,5.26699695 33.5671494,0.881935976 L32.6461128,0.589405488 C28.992378,3.30182927 26.7129573,6.0214939 24.5073933,8.50945122 C23.4314024,9.76067073 22.5668445,11.0451982 21.7935213,12.4310976 C21.0404726,13.8271341 20.178811,15.2 19.0550305,16.3064024 C17.9515244,17.4287348 16.7060976,18.4163872 15.3259909,19.2346037 C13.970503,20.0977134 12.4658537,20.7957317 10.856936,21.306936 C7.65068598,22.4278201 3.98102134,22.6928354 0.350457317,22.2685213 L0,23.1707317 Z" transform="matrix(1 0 0 -1 2.105 105.098)"/>
    <path fill="#3C3C3B" d="M0,40.5487805 C2.3054878,42.3068598 4.90785061,43.6189024 7.75640244,44.4675305 C10.5948171,45.3176067 13.7272104,45.6709604 16.8900152,45.1901677 C20.0397866,44.6789634 23.1157012,43.284375 25.6862043,41.3235518 C28.2494665,39.3381098 30.3131098,36.8689787 32.0176067,34.2854421 C33.7394817,31.5773628 35.0978659,29.2646341 36.575,26.7115091 C37.9724848,24.183003 39.0586128,21.4908537 39.7363567,18.6292683 C40.3981707,15.7749238 40.8224848,12.8061738 40.7370427,9.74474085 C40.629878,6.72240854 40.3358994,3.49588415 38.3490091,0.640091463 L37.4410061,0.952896341 C35.4685976,6.16631098 32.7880335,10.6817073 30.6085366,15.5200457 C29.4992378,17.9211128 28.5492378,20.3945884 27.7846037,22.986814 C27.0387957,25.5196646 26.261128,28.3508384 25.29375,30.5042683 C23.2619665,34.9747713 20.2106707,38.8167683 15.7068598,40.5140244 C11.2233232,42.334375 5.54070122,41.7029726 0.506859756,39.7276677 L0,40.5487805 Z" transform="matrix(1 0 0 -1 1.159 108.323)"/>
    <path fill="#3C3C3B" d="M0,20.2743902 C2.43003049,21.3228659 5.20472561,21.4184451 7.9663872,20.8073171 C9.33056402,20.4698933 10.6802591,19.9442073 11.9575457,19.2592226 C13.2044207,18.5394817 14.3759909,17.6676829 15.4360518,16.6988567 C16.4990091,15.7227896 17.5996189,14.7539634 18.5814787,13.6750762 C19.5459604,12.5889482 20.1715701,11.3029726 20.4105183,9.92431402 C20.6465701,8.55144817 20.6480183,7.13658537 20.3163872,5.71592988 C20.0195122,4.30251524 19.466311,2.88330793 18.338186,1.45106707 L17.3910823,1.26859756 C15.8125762,2.15053354 14.7264482,3.02378049 13.7880335,3.87820122 C12.8235518,4.7253811 12.0849848,5.55807927 11.450686,6.36760671 C10.8178354,7.18147866 10.4456555,8.03155488 10.2588415,9.00472561 C10.0836128,9.97789634 9.88666159,10.9814787 9.45655488,11.833003 C9.03658537,12.6903201 8.53696646,13.5056402 7.94756098,14.258689 C7.38856707,15.0479421 6.72385671,15.7792683 5.9476372,16.429497 C4.43574695,17.7748476 2.4097561,18.8160823 0.15785061,19.3243902 L0,20.2743902 Z" transform="matrix(1 0 0 -1 26.165 80.52)"/>
    <path fill="#3C3C3B" d="M52.1341463,55.0304878 C51.6663872,55.0449695 51.2116616,55.091311 50.7612805,55.1550305 C21.1997713,56.3483232 5.32057927,79.3525152 5.32057927,79.3525152 C0.971722561,66.2726372 0.954344512,51.5519817 0.954344512,51.5519817 C1.6378811,23.3054116 24.7318598,0.616920732 53.1420732,0.616920732 L53.1420732,55.0956555 C52.920503,55.082622 52.7148628,55.0304878 52.4947409,55.0304878 L52.1341463,55.0304878 Z" transform="matrix(1 0 0 -1 17.422 189.034)"/>
    <path fill="#AF5B2B" d="M13.0335366,66.6158537 L13.0176067,66.6346799 C13.0176067,66.6346799 13.0190549,66.5304116 13.0190549,66.3667683 C12.94375,65.3964939 12.875686,64.4233232 12.875686,63.4342226 C12.875686,63.1315549 12.9060976,62.836128 12.9118902,62.5349085 C12.70625,58.891311 12.1660823,53.2014482 10.5817835,47.2002287 C9.4652439,42.9918445 7.84184451,38.6299543 5.44077744,34.7155488 C3.69428354,31.8612043 2.31272866,28.6230945 1.20487805,25.2821646 C1.20487805,25.2821646 17.0840701,2.27797256 46.6455793,1.08467988 L46.6528201,1.08467988 C47.0974085,1.0195122 47.5521341,0.973170732 48.0184451,0.960137195 L48.3790396,0.960137195 C48.6006098,0.960137195 48.8048018,1.01227134 49.026372,1.02530488 L49.026372,29.4051067 L49.026372,99.5849085 C30.1349848,99.5849085 14.6467988,85.0872713 13.0335366,66.6158537" transform="matrix(1 0 0 -1 21.537 134.963)"/>
    <path fill="#575756" d="M49.2378049,78.2012195 C49.2378049,78.2012195 32.3014482,54.5178354 1.20922256,54.5178354 L1.20922256,0.037652439 C29.6411585,0.037652439 52.7496189,22.7637957 53.3940549,51.0393293 C53.3940549,51.0393293 53.378125,65.2835366 49.2378049,78.2012195" transform="matrix(1 0 0 -1 69.356 188.456)"/>
    <path fill="#EA8232" d="M44.8932927,34.7560976 C42.6978659,38.3576982 41.1439787,42.334375 40.0419207,46.2183689 C38.1578506,52.8509909 37.5872713,59.2243902 37.4048018,63.0359756 C37.4048018,63.1822409 37.4207317,63.3285061 37.4207317,63.4747713 C37.4207317,64.133689 37.3570122,64.778125 37.3222561,65.4283537 C37.3092226,66.2060213 37.3193598,66.6766768 37.3193598,66.6766768 L37.2628811,66.5955793 C35.675686,85.1003049 20.1831555,99.6254573 1.27004573,99.6254573 L1.27004573,29.4456555 L1.27004573,1.06585366 C32.3622713,1.06585366 49.298628,24.7492378 49.298628,24.7492378 C48.1661585,28.2885671 46.7339177,31.7337652 44.8932927,34.7560976" transform="matrix(1 0 0 -1 69.295 135.004)"/>
    <path fill="#EA575B" d="M27.5152439,13.0335366 L27.5152439,13.0581555 C27.5152439,21.086814 20.2483232,27.6021341 14.2601372,27.6021341 C8.27050305,27.6021341 1.00358232,21.086814 1.00358232,13.0581555 C1.00358232,9.83742378 0.754496951,1.39314024 6.83102134,1.39314024 C8.62096037,1.39314024 10.2052591,2.21714939 11.272561,3.49153963 C12.2775915,3.38292683 13.2884146,3.33368902 14.2601372,3.33368902 C15.2347561,3.33368902 16.2426829,3.38292683 17.2491616,3.49153963 C18.3135671,2.21714939 19.8978659,1.39314024 21.6921494,1.39314024 C27.7541921,1.39314024 27.5152439,9.80556402 27.5152439,13.0335366" transform="matrix(1 0 0 -1 56.077 110.1)"/>
    <path fill="#B6382F" d="M17.3780488,31.8597561 C8.49207317,31.8597561 1.29032012,25.0157012 1.29032012,16.5757622 C1.29032012,8.13147866 8.49207317,1.29176829 17.3780488,1.29176829 C24.0208079,1.29176829 29.7208079,0.321493902 32.1783537,5.759375 L32.1783537,22.571189 C29.7208079,28.0322409 24.0237043,31.8597561 17.3780488,31.8597561" transform="matrix(1 0 0 -1 38.387 87.902)"/>
    <path fill="#EA575B" d="M15.929878,1.44817073 C24.8144055,1.44817073 32.0190549,8.2878811 32.0190549,16.7321646 C32.0190549,25.1721037 24.8144055,32.0161585 15.929878,32.0161585 C9.26684451,32.0161585 3.55525915,28.1712652 1.10929878,22.6913872 C1.10495427,22.7000762 1.09481707,22.7160061 1.08902439,22.7275915 L1.08902439,5.91432927 C1.09481707,5.92881098 1.10495427,5.93894817 1.10929878,5.95198171 C3.55525915,0.473551829 9.26684451,1.44817073 15.929878,1.44817073" transform="matrix(1 0 0 -1 69.476 88.059)"/>
    <path fill="#F39E2B" d="M5.79268293,20.2743902 L1.89710366,17.7038872 C0.330182927,16.6684451 -0.165091463,14.5019817 0.795045732,12.8887195 L6.89474085,2.64580793 C7.37553354,1.83483232 8.00838415,1.43079268 8.64268293,1.43079268 L8.64268293,21.0506098 C7.60579268,21.0506098 6.57759146,20.7913872 5.79268293,20.2743902" transform="matrix(1 0 0 -1 61.942 103.171)"/>
    <path fill="#FBDD58" d="M2.89634146,1.44817073 L8.99603659,11.6910823 C9.95907012,13.3057927 9.46089939,15.4708079 7.89397866,16.50625 L3.99839939,19.076753 C3.21349085,19.59375 2.18094512,19.8529726 1.14839939,19.8529726 L1.14839939,0.234603659 C1.78125,0.234603659 2.41554878,0.637195122 2.89634146,1.44817073" transform="matrix(1 0 0 -1 69.436 101.974)"/>
    <path fill="#4E1412" d="M11.5853659,5.79268293 C11.5853659,2.91082317 9.24657012,0.576371951 6.37050305,0.576371951 C3.49009146,0.576371951 1.15708841,2.91082317 1.15708841,5.79268293 C1.15708841,8.66875 3.49009146,11.0032012 6.37050305,11.0032012 C9.24657012,11.0032012 11.5853659,8.66875 11.5853659,5.79268293" transform="matrix(1 0 0 -1 46.996 77.152)"/>
    <path fill="#4E1412" d="M11.5853659,5.79268293 C11.5853659,2.91082317 9.24801829,0.576371951 6.37050305,0.576371951 C3.4929878,0.576371951 1.15708841,2.91082317 1.15708841,5.79268293 C1.15708841,8.66875 3.4929878,11.0032012 6.37050305,11.0032012 C9.24801829,11.0032012 11.5853659,8.66875 11.5853659,5.79268293" transform="matrix(1 0 0 -1 80.938 77.152)"/>
    <path fill="#FFF" d="M4.3445122,2.89634146 C4.3445122,1.91158537 3.54512195,1.11364329 2.56181402,1.11364329 C1.57705793,1.11364329 0.779115854,1.91158537 0.779115854,2.89634146 C0.779115854,3.88109756 1.57705793,4.67903963 2.56181402,4.67903963 C3.54512195,4.67903963 4.3445122,3.88109756 4.3445122,2.89634146" transform="matrix(1 0 0 -1 52.737 72.189)"/>
    <path fill="#FFF" d="M4.3445122,2.89634146 C4.3445122,1.91158537 3.54801829,1.11364329 2.56181402,1.11364329 C1.57705793,1.11364329 0.780564024,1.91158537 0.780564024,2.89634146 C0.780564024,3.88109756 1.57705793,4.67903963 2.56181402,4.67903963 C3.54801829,4.67903963 4.3445122,3.88109756 4.3445122,2.89634146" transform="matrix(1 0 0 -1 86.528 72.189)"/>
    <path fill="#EA575B" d="M1.44817073,47.7896341 C6.19237805,45.184375 9.80556402,42.1432165 13.1175305,39.5640244 C13.9270579,38.9224848 14.7293445,38.3446646 15.4172256,37.8609756 C15.7836128,37.6003049 16.0848323,37.4801067 16.4164634,37.2556402 L17.7560213,36.3664634 C19.6878811,35.0587652 21.9224085,33.1674543 23.7355183,30.8851372 C27.4689024,26.2727134 29.1690549,20.5133384 29.2487043,15.3259909 C29.3066311,10.0734756 28.0887195,5.08307927 25.1315549,0.49382622 C22.0686738,5.00198171 20.1440549,9.15099085 18.1658537,12.7801067 C16.2325457,16.4454268 14.4339177,19.3548018 12.4339939,21.8644817 C11.4115854,23.1591463 10.2935976,24.3785061 8.77881098,26.0366616 L7.54786585,27.4008384 C7.03521341,27.9424543 6.51966463,28.6173018 6.11852134,29.1980183 C5.2597561,30.382622 4.6211128,31.5744665 4.06356707,32.7532774 C1.94199695,37.4916921 0.936966463,42.3387195 1.44817073,47.7896341" transform="matrix(1 0 0 -1 45.206 48.948)"/>
  </g>
</svg>
