<svg xmlns="http://www.w3.org/2000/svg" xmlns:xlink="http://www.w3.org/1999/xlink" width="160" height="190" viewBox="0 0 160 190">
  <defs>
    <polygon id="cow-a" points="1.439 65.636 104.547 65.636 104.547 1.279 1.439 1.279"/>
  </defs>
  <g fill="none" fill-rule="evenodd" transform="translate(0 11)">
    <polygon fill="#D3C5C1" points="71.786 168.953 54.946 168.953 54.946 145.733 71.786 145.733"/>
    <polygon fill="#F6E9E5" points="103.986 168.953 87.144 168.953 87.144 145.733 103.986 145.733"/>
    <path fill="#3C3C3B" d="M15.503876,4.65116279 C16.2155039,4.65116279 16.7953488,4.07286822 16.7953488,3.35968992 L16.7953488,0.134883721 L30.3395349,0.134883721 C30.3395349,8.23100775 23.7751938,14.7922481 15.6821705,14.7922481 C7.58914729,14.7922481 1.0248062,8.23100775 1.0248062,0.134883721 L14.2124031,0.134883721 L14.2124031,3.35968992 C14.2124031,4.07286822 14.7906977,4.65116279 15.503876,4.65116279" transform="matrix(1 0 0 -1 47.683 176.613)"/>
    <path fill="#3C3C3B" d="M15.503876,4.65116279 C16.2170543,4.65116279 16.7953488,4.07286822 16.7953488,3.35968992 L16.7953488,0.134883721 L30.3395349,0.134883721 C30.3395349,8.23100775 23.7767442,14.7922481 15.6821705,14.7922481 C7.5875969,14.7922481 1.0248062,8.23100775 1.0248062,0.134883721 L14.2124031,0.134883721 L14.2124031,3.35968992 C14.2124031,4.07286822 14.7906977,4.65116279 15.503876,4.65116279" transform="matrix(1 0 0 -1 79.88 176.613)"/>
    <g transform="matrix(1 0 0 -1 26.471 132.841)">
      <mask id="cow-b" fill="#fff">
        <use xlink:href="#cow-a"/>
      </mask>
      <g fill="#C6CCD6" mask="url(#cow-b)" opacity=".39">
        <path d="M52.7131783,0 C77.1162791,0 97.6945736,12.3736434 104.265116,29.3162791 C97.6945736,51.9736434 77.1162791,64.3565891 52.7131783,64.3565891 C28.3069767,64.3565891 7.72868217,51.9736434 1.15813953,29.3162791 C7.72868217,12.3736434 28.3069767,0 52.7131783,0" transform="translate(.28 1.28)"/>
      </g>
    </g>
    <path fill="#D3C5C1" d="M52.7131783,0 C77.1162791,0 97.6945736,12.3736434 104.265116,29.3162791 C97.6945736,51.9736434 77.1162791,64.3565891 52.7131783,64.3565891 C28.3069767,64.3565891 7.72868217,51.9736434 1.15813953,29.3162791 C7.72868217,12.3736434 28.3069767,0 52.7131783,0" transform="matrix(1 0 0 -1 26.752 131.562)"/>
    <path fill="#D3C5C1" d="M3.10077519,57.3643411 C1.6744186,52.448062 0.87751938,47.0682171 0.87751938,41.2046512 C0.87751938,18.6124031 24.9550388,0.302325581 54.655814,0.302325581 L54.655814,28.048062 C30.2496124,28.048062 9.67286822,40.4217054 3.10077519,57.3643411" transform="matrix(1 0 0 -1 24.809 159.61)"/>
    <path fill="#F6E9E5" d="M27.9069767,26.3565891 C29.0031008,31.2186047 35.0294574,32.3984496 37.0155039,36.6542636 C38.9860465,40.8945736 50.6635659,46.0310078 54.7023256,40.6992248 C54.7255814,41.1627907 54.7968992,41.6170543 54.7968992,42.0868217 C54.7968992,47.951938 54,53.3317829 52.5736434,58.248062 C46.0015504,41.3054264 25.4232558,28.9317829 1.02015504,28.9317829 L1.02015504,1.18604651 C15.6232558,1.18604651 28.8465116,5.62790698 38.5364341,12.8124031 C35.7751938,13.2620155 32.9844961,14.4372093 30.5503876,16.9178295 C30.5503876,16.9178295 26.8093023,21.4945736 27.9069767,26.3565891" transform="matrix(1 0 0 -1 78.445 160.493)"/>
    <path fill="#3C3C3B" d="M27.9069767,27.9069767 C23.8697674,33.2387597 12.1922481,28.1023256 10.220155,23.8620155 C8.23410853,19.6062016 2.20775194,18.4263566 1.11162791,13.5643411 C0.015503876,8.70232558 3.75503876,4.1255814 3.75503876,4.1255814 C6.18914729,1.64651163 8.97984496,0.469767442 11.7426357,0.0201550388 C21.3534884,7.14728682 27.4248062,16.9813953 27.9069767,27.9069767" transform="matrix(1 0 0 -1 105.24 147.701)"/>
    <path fill="#3C3C3B" d="M3.10077519,9.30232558 C3.10077519,9.30232558 -0.376744186,13.0108527 1.84651163,16.7193798 C4.06976744,20.4294574 10.0356589,15.4294574 10.0356589,15.4294574 C10.0356589,15.4294574 15.7472868,11.7054264 17.2914729,11.2387597 C23.3581395,9.39379845 22.4527132,3.33333333 15.1968992,0.43255814 C9.99379845,-1.64806202 3.10077519,9.30232558 3.10077519,9.30232558" transform="matrix(1 0 0 -1 47.691 144.336)"/>
    <path fill="#3C3C3B" d="M0,34.1085271 C0,34.1085271 4.77364341,1.30387597 23.2542636,1.30387597 L47.9333333,1.30387597 C47.9333333,1.30387597 39.448062,34.1085271 20.9689922,34.1085271 L0,34.1085271 Z" transform="matrix(1 0 0 -1 1.24 43.581)"/>
    <path fill="#D76C79" d="M0,21.7054264 C0,21.7054264 3.08217054,0.525581395 15.0108527,0.525581395 L30.9472868,0.525581395 C30.9472868,0.525581395 25.4666667,21.7054264 13.5364341,21.7054264 L0,21.7054264 Z" transform="matrix(1 0 0 -1 9.734 36.99)"/>
    <path fill="#3C3C3B" d="M48.0620155,34.1085271 C48.0620155,34.1085271 43.2883721,1.30387597 24.8077519,1.30387597 L0.12248062,1.30387597 C0.12248062,1.30387597 8.6124031,34.1085271 27.0914729,34.1085271 L48.0620155,34.1085271 Z" transform="matrix(1 0 0 -1 109.627 43.581)"/>
    <path fill="#D76C79" d="M31.0077519,21.7054264 C31.0077519,21.7054264 27.9224806,0.525581395 15.9953488,0.525581395 L0.0604651163,0.525581395 C0.0604651163,0.525581395 5.53953488,21.7054264 17.4697674,21.7054264 L31.0077519,21.7054264 Z" transform="matrix(1 0 0 -1 118.186 36.99)"/>
    <path fill="#F6E9E5" d="M29.4573643,110.077519 C27.7224806,108.995349 9.5255814,96.9612403 10.3472868,68.2635659 C11.2015504,38.2992248 49.2744186,52.6124031 49.6899225,52.7674419 C49.8976744,50.951938 50.0635659,49.0837209 50.1255814,47.0728682 C50.1457364,46.3627907 50.1891473,45.6806202 50.1891473,44.9364341 C50.1891473,20.475969 29.6325581,0.64496124 1.08992248,0.64496124 L1.08992248,120.446512 C12.0542636,120.446512 21.9953488,116.389147 29.4573643,110.077519" transform="matrix(1 0 0 -1 78.083 121.687)"/>
    <path fill="#3C3C3B" d="M1.5503876,20.1550388 C0.728682171,48.8527132 18.9255814,60.8868217 20.6604651,61.9689922 C27.7348837,55.9829457 32.5813953,47.9751938 33.8930233,39.4155039 C33.9224806,39.2077519 33.979845,39.0046512 34.0077519,38.7953488 C34.0077519,38.7953488 35.8232558,30.8465116 36.5658915,26.8449612 C38.103876,18.5550388 40.0294574,12.2341085 40.8930233,4.65891473 C40.4775194,4.50232558 2.40465116,-9.80930233 1.5503876,20.1550388" transform="matrix(1 0 0 -1 86.88 73.578)"/>
    <path fill="#D3C5C1" d="M21.7054264,110.077519 C23.4403101,108.995349 41.6372093,96.9612403 40.8155039,68.2635659 C39.9596899,38.2992248 1.88682171,52.6124031 1.47131783,52.7689922 C1.26511628,50.951938 1.10077519,49.0837209 1.0372093,47.0728682 C1.01705426,46.3627907 0.973643411,45.6806202 0.973643411,44.9364341 C0.973643411,20.475969 21.5302326,0.64496124 50.0713178,0.64496124 L50.0713178,120.446512 C39.1085271,120.446512 29.1674419,116.389147 21.7054264,110.077519" transform="matrix(1 0 0 -1 29.393 121.687)"/>
    <path fill="#3C3C3B" d="M40.3100775,20.1550388 C41.1317829,48.8527132 22.9333333,60.8868217 21.2,61.9689922 C14.1255814,55.9829457 9.27906977,47.9751938 7.96744186,39.4155039 C7.93643411,39.2077519 7.88062016,39.0046512 7.85271318,38.7953488 C7.85271318,38.7953488 6.0372093,30.8465116 5.29457364,26.8449612 C3.75503876,18.5550388 1.82945736,12.2341085 0.965891473,4.65891473 C1.38139535,4.50232558 39.4542636,-9.80930233 40.3100775,20.1550388" transform="matrix(1 0 0 -1 29.899 73.578)"/>
    <path fill="#F29E9F" d="M82.1705426,27.9069767 C82.1705426,13.3007752 64.0728682,1.45891473 41.7472868,1.45891473 C19.4186047,1.45891473 1.32248062,13.3007752 1.32248062,27.9069767 C1.32248062,42.5147287 19.4186047,54.3550388 41.7472868,54.3550388 C64.0728682,54.3550388 82.1705426,42.5147287 82.1705426,27.9069767" transform="matrix(1 0 0 -1 37.718 125.474)"/>
    <path fill="#D76C79" d="M12.4031008,6.20155039 C12.4031008,2.99379845 9.80465116,0.395348837 6.59534884,0.395348837 C3.39224806,0.395348837 0.792248062,2.99379845 0.792248062,6.20155039 C0.792248062,9.40775194 3.39224806,12.0062016 6.59534884,12.0062016 C9.80465116,12.0062016 12.4031008,9.40775194 12.4031008,6.20155039" transform="matrix(1 0 0 -1 48.746 99.682)"/>
    <path fill="#D76C79" d="M12.4031008,6.20155039 C12.4031008,2.99379845 9.80465116,0.395348837 6.59534884,0.395348837 C3.39069767,0.395348837 0.792248062,2.99379845 0.792248062,6.20155039 C0.792248062,9.40775194 3.39069767,12.0062016 6.59534884,12.0062016 C9.80465116,12.0062016 12.4031008,9.40775194 12.4031008,6.20155039" transform="matrix(1 0 0 -1 97.124 99.682)"/>
    <path fill="#F5F0F2" d="M18.6046512,9.30232558 C18.6046512,4.23565891 14.5007752,0.128682171 9.43100775,0.128682171 C4.36434109,0.128682171 0.258914729,4.23565891 0.258914729,9.30232558 C0.258914729,14.3705426 4.36434109,18.4775194 9.43100775,18.4775194 C14.5007752,18.4775194 18.6046512,14.3705426 18.6046512,9.30232558" transform="matrix(1 0 0 -1 94.953 54.617)"/>
    <path fill="#3C3C3B" d="M13.9534884,7.75193798 C13.9534884,4.19069767 11.0651163,1.30232558 7.49922481,1.30232558 C3.93953488,1.30232558 1.05116279,4.19069767 1.05116279,7.75193798 C1.05116279,11.3162791 3.93953488,14.2031008 7.49922481,14.2031008 C11.0651163,14.2031008 13.9534884,11.3162791 13.9534884,7.75193798" transform="matrix(1 0 0 -1 96.883 53.067)"/>
    <path fill="#D3C5C1" d="M18.6046512,9.30232558 C18.6046512,4.23565891 14.4992248,0.128682171 9.43100775,0.128682171 C4.36434109,0.128682171 0.258914729,4.23565891 0.258914729,9.30232558 C0.258914729,14.3705426 4.36434109,18.4775194 9.43100775,18.4775194 C14.4992248,18.4775194 18.6046512,14.3705426 18.6046512,9.30232558" transform="matrix(1 0 0 -1 47.972 54.617)"/>
    <path fill="#3C3C3B" d="M13.9534884,7.75193798 C13.9534884,4.19069767 11.0651163,1.30232558 7.50387597,1.30232558 C3.94108527,1.30232558 1.05426357,4.19069767 1.05426357,7.75193798 C1.05426357,11.3162791 3.94108527,14.2031008 7.50387597,14.2031008 C11.0651163,14.2031008 13.9534884,11.3162791 13.9534884,7.75193798" transform="matrix(1 0 0 -1 49.899 53.067)"/>
    <path fill="#FFF" d="M6.20155039,3.10077519 C6.20155039,1.79534884 5.14263566,0.733333333 3.83410853,0.733333333 C2.5255814,0.733333333 1.46666667,1.79534884 1.46666667,3.10077519 C1.46666667,4.40775194 2.5255814,5.46821705 3.83410853,5.46821705 C5.14263566,5.46821705 6.20155039,4.40775194 6.20155039,3.10077519" transform="matrix(1 0 0 -1 55.973 46.48)"/>
    <path fill="#FFF" d="M6.20155039,3.10077519 C6.20155039,1.79534884 5.14108527,0.733333333 3.83410853,0.733333333 C2.5255814,0.733333333 1.46666667,1.79534884 1.46666667,3.10077519 C1.46666667,4.40775194 2.5255814,5.46821705 3.83410853,5.46821705 C5.14108527,5.46821705 6.20155039,4.40775194 6.20155039,3.10077519" transform="matrix(1 0 0 -1 102.52 46.48)"/>
  </g>
</svg>
