<svg xmlns="http://www.w3.org/2000/svg" xmlns:xlink="http://www.w3.org/1999/xlink" width="160" height="190" viewBox="0 0 160 190">
  <defs>
    <polygon id="dog-a" points=".615 47.808 74.852 47.808 74.852 1.467 .615 1.467"/>
  </defs>
  <g fill="none" fill-rule="evenodd" transform="translate(0 25)">
    <polygon fill="#8E6451" points="75.315 156.585 54.207 156.585 54.207 133.725 75.315 133.725 75.315 156.585"/>
    <polygon fill="#B68472" points="106.471 156.585 85.358 156.585 85.358 133.725 106.471 133.725"/>
    <path fill="#8E6451" d="M15.2671756,15.2671756 C7.0519084,15.2671756 0.39389313,8.60305344 0.39389313,0.384732824 L30.151145,0.384732824 C30.151145,8.60305344 23.4870229,15.2671756 15.2671756,15.2671756" transform="matrix(1 0 0 -1 49.491 163.869)"/>
    <path fill="#B68472" d="M15.2671756,15.2671756 C7.04885496,15.2671756 0.384732824,8.60305344 0.384732824,0.384732824 L30.1435115,0.384732824 C30.1435115,8.60305344 23.4793893,15.2671756 15.2671756,15.2671756" transform="matrix(1 0 0 -1 80.652 163.869)"/>
    <g transform="matrix(1 0 0 -1 42.695 131.69)">
      <mask id="dog-b" fill="#fff">
        <use xlink:href="#dog-a"/>
      </mask>
      <g mask="url(#dog-b)" opacity=".39">
        <path fill="#C6CCD6" d="M38.1679389,0 C55.7358779,0 70.5526718,8.90839695 75.2854962,21.1099237 C70.5526718,37.4198473 55.7358779,46.340458 38.1679389,46.340458 C20.5969466,46.340458 5.78015267,37.4198473 1.04885496,21.1099237 C5.78015267,8.90839695 20.5969466,0 38.1679389,0" transform="translate(-.433 1.468)"/>
      </g>
    </g>
    <path fill="#8E6451" d="M38.1679389,0 C55.7358779,0 70.5526718,8.90839695 75.2854962,21.1099237 C70.5526718,37.4198473 55.7358779,46.340458 38.1679389,46.340458 C20.5969466,46.340458 5.78015267,37.4198473 1.04885496,21.1099237 C5.78015267,8.90839695 20.5969466,0 38.1679389,0" transform="matrix(1 0 0 -1 42.262 130.222)"/>
    <path fill="#8E6451" d="M3.05343511,41.221374 C2.02748092,37.6824427 1.4519084,33.8076336 1.4519084,29.5832061 C1.4519084,13.3206107 18.7877863,0.134351145 40.1725191,0.134351145 L40.1725191,20.1114504 C22.6015267,20.1114504 7.78473282,29.021374 3.05343511,41.221374" transform="matrix(1 0 0 -1 40.258 150.334)"/>
    <path fill="#B68472" d="M38.1679389,41.221374 C39.1984733,37.6824427 39.7709924,33.8076336 39.7709924,29.5832061 C39.7709924,13.3206107 22.4351145,0.134351145 1.04885496,0.134351145 L1.04885496,20.1114504 C18.621374,20.1114504 33.4335878,29.021374 38.1679389,41.221374" transform="matrix(1 0 0 -1 79.29 150.334)"/>
    <path fill="#723E2B" d="M47.3282443,58.0152672 C45.6442748,59.7923664 43.4,61.8 41.4885496,62.8900763 L40.8564885,63.2442748 C40.7480916,62.8030534 40.4916031,61.9267176 40.2992366,60.9022901 C39.9633588,58.7709924 39.9969466,56.578626 40.0503817,53.578626 C40.1145038,50.6137405 40.1526718,47 39.8656489,43.2977099 C39.5923664,39.5862595 39.0259542,35.810687 38.2442748,32.1694656 C36.6687023,24.8625954 34.3236641,18.0351145 31.7099237,11.5236641 L31.5541985,11.1358779 C28.2549618,2.90992366 18.9099237,-1.08549618 10.6839695,2.21374046 C2.45496183,5.5129771 -1.5389313,14.8580153 1.76183206,23.0870229 C2.3221374,24.4854962 3.10992366,25.8198473 3.98473282,26.9603053 C7.49770992,31.480916 10.6687023,36.0671756 13.1801527,40.7160305 C14.4396947,43.048855 15.5221374,45.3832061 16.4534351,47.8671756 C17.3969466,50.3587786 18.1450382,53.0244275 19.0030534,56.3221374 C19.8534351,59.5755725 20.9740458,63.6503817 22.8824427,67.4351145 C23.8122137,69.3557252 24.8992366,71.3664122 26.6320611,73.4961832 C27.5053435,74.5526718 28.5633588,75.6473282 29.929771,76.6641221 C31.2885496,77.6687023 32.978626,78.5938931 34.8824427,79.0961832 C36.7755725,79.6183206 38.7633588,79.6854962 40.4717557,79.4274809 C42.1954198,79.1755725 43.6458015,78.648855 44.8916031,78.0580153 C47.3587786,76.8503817 49.0763359,75.4045802 50.5648855,73.9725191 C52.0366412,72.529771 53.2534351,71.059542 54.3572519,69.5648855 C55.4763359,68.0335878 56.3877863,66.6351145 57.4076336,64.8580153 C59.0870229,61.9389313 58.080916,58.2122137 55.1633588,56.5328244 C52.670229,55.0992366 49.5877863,55.6229008 47.6961832,57.6244275 L47.3282443,58.0152672 Z" transform="matrix(1 0 0 -1 1.84 82.017)"/>
    <path fill="#723E2B" d="M12.2137405,58.0152672 C13.8977099,59.7923664 16.1435115,61.8 18.0549618,62.8900763 L18.6870229,63.2442748 C18.7938931,62.8030534 19.0519084,61.9267176 19.2427481,60.9022901 C19.5816794,58.7709924 19.5465649,56.578626 19.4916031,53.578626 C19.4274809,50.6137405 19.3908397,47 19.6763359,43.2977099 C19.951145,39.5862595 20.5160305,35.810687 21.2992366,32.1694656 C22.8732824,24.8625954 25.2198473,18.0351145 27.8320611,11.5236641 L27.989313,11.1358779 C31.2870229,2.90992366 40.6320611,-1.08549618 48.8580153,2.21374046 C57.0870229,5.5129771 61.080916,14.8580153 57.7816794,23.0870229 C57.2198473,24.4854962 56.4335878,25.8198473 55.5587786,26.9603053 C52.0458015,31.480916 48.8748092,36.0671756 46.3618321,40.7160305 C45.1038168,43.048855 44.0198473,45.3832061 43.0885496,47.8671756 C42.1480916,50.3587786 41.3969466,53.0244275 40.5389313,56.3221374 C39.6885496,59.5755725 38.5694656,63.6503817 36.659542,67.4351145 C35.7312977,69.3557252 34.6442748,71.3664122 32.9099237,73.4961832 C32.0381679,74.5526718 30.9801527,75.6473282 29.6137405,76.6641221 C28.2549618,77.6687023 26.5633588,78.5938931 24.659542,79.0961832 C22.7694656,79.6183206 20.7801527,79.6854962 19.070229,79.4274809 C17.3465649,79.1755725 15.8977099,78.648855 14.6519084,78.0580153 C12.1847328,76.8503817 10.4687023,75.4045802 8.98015267,73.9725191 C7.50687023,72.529771 6.28854962,71.059542 5.18625954,69.5648855 C4.06564885,68.0335878 3.15419847,66.6351145 2.13435115,64.8580153 C0.45648855,61.9389313 1.4610687,58.2122137 4.37862595,56.5328244 C6.87328244,55.0992366 9.95572519,55.6229008 11.8473282,57.6244275 L12.2137405,58.0152672 Z" transform="matrix(1 0 0 -1 99.2 82.016)"/>
    <path fill="#B68472" d="M42.7480916,71.7557252 C42.0351145,75.5862595 40.2946565,83.2015267 40.2946565,83.2015267 C37,101.323664 21.0427481,115.328244 0.345038168,115.328244 L0.345038168,0.580152672 C27.6778626,0.580152672 47.3709924,19.5725191 47.3709924,43.0030534 C47.3709924,54.1114504 44.7007634,61.2335878 42.7480916,71.7557252" transform="matrix(1 0 0 -1 80.075 123.25)"/>
    <path fill="#8E6451" d="M6.10687023,71.7557252 C6.81679389,75.5862595 8.55419847,83.2015267 8.55419847,83.2015267 C11.848855,101.323664 27.8091603,115.328244 48.5129771,115.328244 L48.5129771,0.580152672 C21.1755725,0.580152672 1.48549618,19.5725191 1.48549618,43.0030534 C1.48549618,54.1114504 4.15419847,61.2335878 6.10687023,71.7557252" transform="matrix(1 0 0 -1 31.934 123.25)"/>
    <polygon fill="#3C1312" points="80.911 116.826 79.216 116.826 79.216 107.053 80.911 107.053"/>
    <path fill="#723E2B" d="M50.3816794,18.3206107 C50.3816794,8.99389313 39.280916,1.43358779 25.589313,1.43358779 C11.8900763,1.43358779 0.78778626,8.99389313 0.78778626,18.3206107 C0.78778626,27.6473282 11.8900763,35.2091603 25.589313,35.2091603 C39.280916,35.2091603 50.3816794,27.6473282 50.3816794,18.3206107" transform="matrix(1 0 0 -1 54.858 108.487)"/>
    <path fill="#FAEDEB" d="M15.2671756,0 C14.6763359,0 14.1007634,0.309923664 13.789313,0.861068702 C10.529771,6.6259542 2.44580153,8.67938931 2.36335878,8.69923664 C1.45496183,8.9221374 0.899236641,9.84122137 1.12366412,10.751145 C1.34656489,11.659542 2.26870229,12.2183206 3.17557252,11.989313 C3.5648855,11.8946565 12.7694656,9.55419847 16.740458,2.52977099 C17.2030534,1.71450382 16.9145038,0.680916031 16.0992366,0.221374046 C15.8366412,0.0717557252 15.5496183,0 15.2671756,0" transform="matrix(1 0 0 -1 84.437 91.861)"/>
    <path fill="#FAEDEB" d="M3.05343511,0 L1.71755725,0 C0.780152672,0 0.0229007634,0.760305344 0.0229007634,1.69465649 C0.0229007634,2.63358779 0.780152672,3.39236641 1.71755725,3.39236641 L3.05343511,3.39236641 C3.99083969,3.39236641 4.74961832,2.63358779 4.74961832,1.69465649 C4.74961832,0.760305344 3.99083969,0 3.05343511,0" transform="matrix(1 0 0 -1 76.84 81.978)"/>
    <path fill="#411611" d="M13.740458,0 C4.54351145,0 0.842748092,3.48091603 0.690076336,3.62900763 C0.354198473,3.95419847 0.346564885,4.49160305 0.670229008,4.82748092 C0.995419847,5.16183206 1.52824427,5.1740458 1.86564885,4.85038168 C1.89923664,4.81832061 5.30076336,1.69465649 13.740458,1.69465649 C21.4931298,1.69465649 25.6366412,4.87328244 25.6763359,4.90534351 C26.0473282,5.18931298 26.578626,5.12977099 26.8671756,4.76183206 C27.1557252,4.39236641 27.0916031,3.8610687 26.7236641,3.57099237 C26.5374046,3.42442748 22.0732824,0 13.740458,0" transform="matrix(1 0 0 -1 65.902 118.52)"/>
    <path fill="#411611" d="M13.740458,9.16030534 C13.740458,4.85954198 10.978626,1.37557252 7.56335878,1.37557252 C4.15114504,1.37557252 1.38473282,4.85954198 1.38473282,9.16030534 C1.38473282,13.4580153 4.15114504,16.9435115 7.56335878,16.9435115 C10.978626,16.9435115 13.740458,13.4580153 13.740458,9.16030534" transform="matrix(1 0 0 -1 95.276 62.684)"/>
    <path fill="#411611" d="M13.740458,9.16030534 C13.740458,4.85954198 10.9725191,1.37557252 7.56183206,1.37557252 C4.14503817,1.37557252 1.38625954,4.85954198 1.38625954,9.16030534 C1.38625954,13.4580153 4.14503817,16.9435115 7.56183206,16.9435115 C10.9725191,16.9435115 13.740458,13.4580153 13.740458,9.16030534" transform="matrix(1 0 0 -1 50.277 62.684)"/>
    <path fill="#FFF" d="M0,3.05343511 C0,1.7480916 0.992366412,0.690076336 2.21984733,0.690076336 C3.44732824,0.690076336 4.44122137,1.7480916 4.44122137,3.05343511 C4.44122137,4.35725191 3.44732824,5.41679389 2.21984733,5.41679389 C0.992366412,5.41679389 0,4.35725191 0,3.05343511" transform="matrix(1 0 0 -1 57.84 53.06)"/>
    <path fill="#FFF" d="M0,3.05343511 C0,1.7480916 0.992366412,0.690076336 2.21984733,0.690076336 C3.44580153,0.690076336 4.43969466,1.7480916 4.43969466,3.05343511 C4.43969466,4.35725191 3.44580153,5.41679389 2.21984733,5.41679389 C0.992366412,5.41679389 0,4.35725191 0,3.05343511" transform="matrix(1 0 0 -1 103.02 53.06)"/>
  </g>
</svg>
