<svg xmlns="http://www.w3.org/2000/svg" xmlns:xlink="http://www.w3.org/1999/xlink" width="160" height="190" viewBox="0 0 160 190">
  <defs>
    <polygon id="donkey-a" points=".171 39.468 62.99 39.468 62.99 .256 .171 .256"/>
  </defs>
  <g fill="none" fill-rule="evenodd" transform="translate(27)">
    <path fill="#4E7796" d="M2.51322751,13.8227513 C2.51322751,13.8227513 -2.81230159,39.701455 3.7723545,67.6121032 C3.7723545,67.6121032 6.22400794,77.7655423 11.4376984,66.6005291 C16.6526455,55.4342593 30.4867063,24.1207011 21.2154101,0.290277778 L2.51322751,13.8227513 Z" transform="matrix(1 0 0 -1 75.01 74.02)"/>
    <path fill="#D76C79" d="M2.51322751,8.7962963 C2.51322751,8.7962963 -0.385780423,26.4881614 1.48783069,48.5844577 C1.48783069,48.5844577 2.85753968,59.9367063 6.01541005,51.9923942 C13.2597884,33.7589286 17.7232804,11.6462963 13.5827381,0.310383598 L2.51322751,8.7962963 Z" transform="matrix(1 0 0 -1 79.585 66.24)"/>
    <path fill="#4E7796" d="M22.6190476,12.5661376 C22.6190476,12.5661376 30.0468915,37.9220899 25.7693783,66.2775794 C25.7693783,66.2775794 24.1583995,76.5981481 18.0462302,65.8968254 C11.9340608,55.1955026 -4.41825397,25.1222222 2.87010582,0.611970899 L22.6190476,12.5661376 Z" transform="matrix(1 0 0 -1 28.091 72.764)"/>
    <path fill="#D76C79" d="M12.5661376,8.7962963 C12.5661376,8.7962963 16.9039683,26.1916005 16.8449074,48.3658069 C16.8449074,48.3658069 16.410119,59.7934524 12.6138889,52.1343915 C3.89927249,34.5568783 -2.2832672,12.8626984 0.914814815,1.22268519 L12.5661376,8.7962963 Z" transform="matrix(1 0 0 -1 33.81 65.874)"/>
    <g transform="matrix(1 0 0 -1 32.695 156.598)">
      <mask id="donkey-b" fill="#fff">
        <use xlink:href="#donkey-a"/>
      </mask>
      <g fill="#C6CCD6" mask="url(#donkey-b)" opacity=".39">
        <path d="M31.4153439,0 C46.2835979,0 58.8208333,7.53968254 62.826918,17.8627646 C58.8208333,31.6666667 46.2835979,39.2113757 31.4153439,39.2113757 C16.5458333,39.2113757 4.00859788,31.6666667 0.00628306878,17.8627646 C4.00859788,7.53968254 16.5458333,0 31.4153439,0" transform="translate(.164 .256)"/>
      </g>
    </g>
    <path fill="#2D466A" d="M31.4153439,0 C46.2835979,0 58.8208333,7.53968254 62.826918,17.8627646 C58.8208333,31.6666667 46.2835979,39.2113757 31.4153439,39.2113757 C16.5458333,39.2113757 4.00859788,31.6666667 0.00628306878,17.8627646 C4.00859788,7.53968254 16.5458333,0 31.4153439,0" transform="matrix(1 0 0 -1 32.86 156.341)"/>
    <path fill="#2D466A" d="M2.51322751,35.1851852 C1.64113757,32.189418 1.15482804,28.9121693 1.15482804,25.3383598 C1.15482804,11.5746693 9.66587302,0.418452381 33.9222884,0.418452381 L33.9222884,17.3224206 C19.0515212,17.3224206 6.51554233,24.8621032 2.51322751,35.1851852" transform="matrix(1 0 0 -1 30.353 173.664)"/>
    <path fill="#4E7796" d="M31.4153439,35.1851852 C32.2849206,32.189418 32.7699735,28.9121693 32.7699735,25.3383598 C32.7699735,11.5746693 24.4486772,-0.280224868 0.00628306878,0.418452381 L0.00628306878,17.3224206 C14.874537,17.3224206 27.4105159,24.8621032 31.4153439,35.1851852" transform="matrix(1 0 0 -1 64.192 173.664)"/>
    <polygon fill="#2D466A" points="58.05 183.354 44.401 183.354 44.401 164.533 58.05 164.533"/>
    <polygon fill="#4E7796" points="84.149 183.354 70.497 183.354 70.497 164.533 84.149 164.533"/>
    <path fill="#3C3C3B" d="M12.5661376,3.76984127 C13.1416667,3.76984127 13.6103836,3.30112434 13.6103836,2.72308201 L13.6103836,0.109325397 L24.5919312,0.109325397 C24.5919312,6.67136243 19.270172,11.9893519 12.7081349,11.9893519 C6.14861111,11.9893519 0.826851852,6.67136243 0.826851852,0.109325397 L11.5193783,0.109325397 L11.5193783,2.72308201 C11.5193783,3.30112434 11.985582,3.76984127 12.5661376,3.76984127" transform="matrix(1 0 0 -1 38.517 189.563)"/>
    <path fill="#3C3C3B" d="M12.5661376,3.76984127 C13.1441799,3.76984127 13.6128968,3.30112434 13.6128968,2.72308201 L13.6128968,0.109325397 L24.5919312,0.109325397 C24.5919312,6.67136243 19.2739418,11.9893519 12.7106481,11.9893519 C6.15112434,11.9893519 0.833134921,6.67136243 0.833134921,0.109325397 L11.5218915,0.109325397 L11.5218915,2.72308201 C11.5218915,3.30112434 11.9880952,3.76984127 12.5661376,3.76984127" transform="matrix(1 0 0 -1 64.61 189.563)"/>
    <path fill="#2D466A" d="M10.0529101,13.8227513 C10.3658069,11.9642196 10.1634921,10.4562831 9.80410053,9.0526455 C9.42208995,7.66283069 8.84027778,6.40998677 8.07876984,5.27526455 C7.32228836,4.13928571 6.38108466,3.12645503 5.23630952,2.25059524 C4.07268519,1.3885582 2.74821429,0.633333333 0.902248677,0.229960317 C0.580555556,2.0922619 0.78287037,3.60271164 1.1422619,5.00509259 C1.52427249,6.39365079 2.1098545,7.64649471 2.87638889,8.77744709 C3.64166667,9.90714286 4.57910053,10.9212302 5.72513228,11.7970899 C6.89252646,12.6578704 8.2119709,13.4156085 10.0529101,13.8227513" transform="matrix(1 0 0 -1 56.18 54.396)"/>
    <path fill="#4E7796" d="M10.0529101,13.8227513 C10.3683201,11.9654762 10.1647487,10.4562831 9.80787037,9.0526455 C9.42334656,7.66283069 8.84027778,6.40998677 8.08002646,5.27400794 C7.32228836,4.13928571 6.38108466,3.12645503 5.23630952,2.25059524 C4.0739418,1.3885582 2.75072751,0.63207672 0.903505291,0.229960317 C0.584325397,2.09351852 0.784126984,3.60271164 1.14603175,5.00509259 C1.52678571,6.39490741 2.11111111,7.64775132 2.8776455,8.77744709 C3.64166667,9.90839947 4.58287037,10.9212302 5.72513228,11.7970899 C6.89378307,12.659127 8.21322751,13.4156085 10.0529101,13.8227513" transform="matrix(1 0 0 -1 62.342 57.287)"/>
    <path fill="#4E7796" d="M36.4417989,60.3174603 C35.839881,63.5607804 34.365873,70.0034392 34.365873,70.0034392 C31.5787037,85.3404101 18.0751323,97.1902778 0.556679894,97.1902778 L0.556679894,0.087962963 C23.6884259,0.087962963 40.3498677,16.1613095 40.3498677,35.989418 C40.3498677,45.3901455 38.0917328,51.4156085 36.4417989,60.3174603" transform="matrix(1 0 0 -1 63.667 146.005)"/>
    <path fill="#2D466A" d="M5.02645503,60.3174603 C5.62585979,63.5607804 7.09986772,70.0034392 7.09986772,70.0034392 C9.88955026,85.3404101 23.3906085,97.1902778 40.9103175,97.1902778 L40.9103175,0.087962963 C17.7785714,0.087962963 1.11838624,16.1613095 1.11838624,35.989418 C1.11838624,45.3901455 3.37652116,51.4156085 5.02645503,60.3174603" transform="matrix(1 0 0 -1 23.336 146.005)"/>
    <path fill="#9C9B9B" d="M66.6005291,22.6190476 C66.6005291,10.7804894 51.9320767,1.18373016 33.8368386,1.18373016 C15.7416005,1.18373016 1.07189153,10.7804894 1.07189153,22.6190476 C1.07189153,34.4588624 15.7416005,44.0556217 33.8368386,44.0556217 C51.9320767,44.0556217 66.6005291,34.4588624 66.6005291,22.6190476" transform="matrix(1 0 0 -1 30.387 149.51)"/>
    <path fill="#3C3C3B" d="M10.0529101,5.02645503 C10.0529101,2.42652116 7.9468254,0.320436508 5.34563492,0.320436508 C2.74821429,0.320436508 0.64212963,2.42652116 0.64212963,5.02645503 C0.64212963,7.62513228 2.74821429,9.73121693 5.34563492,9.73121693 C7.9468254,9.73121693 10.0529101,7.62513228 10.0529101,5.02645503" transform="matrix(1 0 0 -1 39.326 128.604)"/>
    <path fill="#3C3C3B" d="M10.0529101,5.02645503 C10.0529101,2.42652116 7.94556878,0.320436508 5.34563492,0.320436508 C2.74821429,0.320436508 0.640873016,2.42652116 0.640873016,5.02645503 C0.640873016,7.62513228 2.74821429,9.73121693 5.34563492,9.73121693 C7.94556878,9.73121693 10.0529101,7.62513228 10.0529101,5.02645503" transform="matrix(1 0 0 -1 78.537 128.604)"/>
    <path fill="#9C9B9B" d="M15.0793651,7.53968254 C15.0793651,3.38657407 11.7154101,0.0201058201 7.56104497,0.0201058201 C3.40919312,0.0201058201 0.0427248677,3.38657407 0.0427248677,7.53968254 C0.0427248677,11.692791 3.40919312,15.0580026 7.56104497,15.0580026 C11.7154101,15.0580026 15.0793651,11.6940476 15.0793651,7.53968254" transform="matrix(1 0 0 -1 38.782 92.077)"/>
    <path fill="#9C9B9B" d="M15.0793651,7.53968254 C15.0793651,3.38657407 11.7154101,0.0201058201 7.56104497,0.0201058201 C3.41044974,0.0201058201 0.0427248677,3.38657407 0.0427248677,7.53968254 C0.0427248677,11.692791 3.41044974,15.0580026 7.56104497,15.0580026 C11.7154101,15.0580026 15.0793651,11.6940476 15.0793651,7.53968254" transform="matrix(1 0 0 -1 76.862 92.077)"/>
    <path fill="#3C3C3B" d="M8.7962963,5.02645503 C8.7962963,2.70046296 6.9151455,0.816798942 4.58789683,0.816798942 C2.2656746,0.816798942 0.380753968,2.70046296 0.380753968,5.02645503 C0.380753968,7.35119048 2.2656746,9.2348545 4.58789683,9.2348545 C6.9151455,9.2348545 8.7962963,7.35119048 8.7962963,5.02645503" transform="matrix(1 0 0 -1 41.754 89.564)"/>
    <path fill="#3C3C3B" d="M8.7962963,5.02645503 C8.7962963,2.70046296 6.91388889,0.816798942 4.58789683,0.816798942 C2.2656746,0.816798942 0.379497354,2.70046296 0.379497354,5.02645503 C0.379497354,7.35119048 2.2656746,9.2348545 4.58789683,9.2348545 C6.91388889,9.2348545 8.7962963,7.35119048 8.7962963,5.02645503" transform="matrix(1 0 0 -1 79.834 89.564)"/>
    <path fill="#FFF" d="M3.76984127,2.51322751 C3.76984127,1.69265873 3.10509259,1.02539683 2.2832672,1.02539683 C1.4614418,1.02539683 0.796693122,1.69265873 0.796693122,2.51322751 C0.796693122,3.3337963 1.4614418,3.99980159 2.2832672,3.99980159 C3.10509259,3.99980159 3.76984127,3.3337963 3.76984127,2.51322751" transform="matrix(1 0 0 -1 45.609 85.715)"/>
    <path fill="#FFF" d="M3.76984127,2.51322751 C3.76984127,1.69265873 3.10509259,1.02539683 2.28201058,1.02539683 C1.4614418,1.02539683 0.795436508,1.69265873 0.795436508,2.51322751 C0.795436508,3.3337963 1.4614418,3.99980159 2.28201058,3.99980159 C3.10509259,3.99980159 3.76984127,3.3337963 3.76984127,2.51322751" transform="matrix(1 0 0 -1 83.627 85.715)"/>
    <path fill="#F6E9E5" d="M0,3.76984127 C0,0.858267196 1.33578042,0.913558201 3.07367725,0.697420635 C5.00006614,0.566732804 6.14861111,0.560449735 6.14861111,3.76984127 L6.14861111,5.72638889 C6.14861111,5.39589947 0,6.18002646 0,6.18002646 L0,3.76984127 Z" transform="matrix(1 0 0 -1 57.521 147.93)"/>
    <path fill="#F6E9E5" d="M6.28306878,3.76984127 C6.28306878,0.858267196 4.94728836,0.913558201 3.20813492,0.697420635 C1.28300265,0.566732804 0.134457672,0.560449735 0.134457672,3.76984127 L0.134457672,5.72638889 C0.134457672,5.39589947 6.28306878,6.18002646 6.28306878,6.18002646 L6.28306878,3.76984127 Z" transform="matrix(1 0 0 -1 64.667 147.93)"/>
    <path fill="#3C3C3B" d="M25.1322751,0 C11.3535053,0 1.72156085,7.16269841 1.31818783,7.46679894 C1.01157407,7.7005291 0.95,8.13657407 1.18247354,8.44444444 C1.41369048,8.75231481 1.85099206,8.81137566 2.16011905,8.58141534 C2.25310847,8.50853175 11.8398148,1.39609788 25.1322751,1.39609788 C38.4008598,1.39609788 47.080291,8.48842593 47.1669974,8.56005291 C47.4635582,8.80509259 47.9021164,8.76865079 48.1496693,8.47083333 C48.3972222,8.17427249 48.3570106,7.73571429 48.062963,7.48816138 C47.6947751,7.18280423 38.9286376,0 25.1322751,0" transform="matrix(1 0 0 -1 39.558 143.461)"/>
    <path fill="#3C3C3B" d="M0,12.5661376 C1.96785714,13.4445106 7.7005291,15.9791005 14.6483466,12.4593254 C17.7107143,10.9048942 19.4385582,9.57791005 20.7353836,8.56130952 C22.0221561,7.51957672 24.3946429,4.97242063 25.3710317,3.0422619 C23.4006614,2.15509259 23.0739418,1.78313492 20.5556878,0.975132275 C18.9861772,0.475 16.6652116,0.250066138 15.1937169,0.771560847 C13.7222222,1.29305556 12.1501984,1.88994709 10.2313492,3.56375661 C8.94080688,4.6130291 3.95205026,11.6287037 0,12.5661376" transform="matrix(1 0 0 -1 1.005 173.816)"/>
    <path fill="#2D466A" d="M6.28306878,0 C5.3896164,0 4.46097884,0.0741402116 3.49589947,0.229960317 C1.59464286,0.536574074 0.300330688,2.32850529 0.608201058,4.2297619 C0.916071429,6.1297619 2.70548942,7.42281746 4.60800265,7.11871693 C15.873545,5.30793651 20.2528439,24.4335979 20.2955688,24.628373 C20.7152778,26.5082672 22.5750661,27.6970238 24.4587302,27.2760582 C26.339881,26.8563492 27.5248677,24.9940476 27.1064153,23.1116402 C26.8852513,22.1176587 21.7720899,0 6.28306878,0" transform="matrix(1 0 0 -1 18.67 172.195)"/>
  </g>
</svg>
