<svg xmlns="http://www.w3.org/2000/svg" width="160" height="190" viewBox="0 0 160 190">
  <g fill="none" fill-rule="evenodd" transform="translate(0 44)">
    <path fill="#AEAED3" d="M40.2597403,29.8701299 C43.7896104,34.6246753 50.287013,35.2545455 54.1337662,35.1662338 L54.1337662,99.4311688 C54.0636364,99.4311688 53.9935065,99.4350649 53.925974,99.4350649 C26.6974026,99.4350649 4.62077922,77.3597403 4.62077922,50.1285714 C4.62077922,47.7207792 4.8,45.3597403 5.13116883,43.0428571 C2.41688312,39.2974026 0.911688312,35.1766234 0.911688312,30.8467532 C0.911688312,22.087013 7.07532468,14.1766234 16.9909091,8.52077922 L16.9909091,8.52467532 C20.5779221,6.47662338 24.6545455,4.72727273 29.1090909,3.33376623 C29.2090909,3.3038961 29.3103896,3.27012987 29.412987,3.23896104 C31.0805195,2.72727273 32.8,2.26753247 34.5675325,1.85844156 C34.7636364,1.81298701 34.961039,1.76883117 35.1597403,1.72597403 C36.025974,1.53246753 36.9012987,1.34935065 37.7896104,1.17922078 C32.425974,17.7415584 35.0402597,22.8402597 40.2597403,29.8701299" transform="matrix(1 0 0 -1 25.633 101.513)"/>
    <path fill="#C6CCD6" fill-rule="nonzero" d="M19.4805195,44.1558442 C18.2896104,44.0961039 17.1272727,43.9701299 15.987013,43.7558442 C14.0493506,43.3857143 12.1545455,42.7779221 10.2506494,41.9285714 C8.33766234,41.0818182 6.43636364,40.0376623 4.38441558,38.7714286 C5.02077922,41.1402597 6.54155844,43.1701299 8.41428571,44.7792208 C10.3077922,46.3831169 12.6688312,47.5285714 15.174026,48.0051948 C16.6,48.2818182 18.0545455,48.3116883 19.4805195,48.1701299 L19.4805195,44.1558442 Z M19.4805195,32.4688312 C18.9779221,32.3675325 18.4727273,32.2779221 17.9792208,32.1493506 C16.3714286,31.7337662 14.787013,31.161039 13.1584416,30.4454545 C11.5220779,29.7337662 9.86883117,28.9064935 7.9987013,27.9480519 C8.47402597,30.0376623 9.72467532,31.8077922 11.2623377,33.2571429 C12.8207792,34.6935065 14.7675325,35.7805195 16.8831169,36.3350649 C17.7350649,36.561039 18.6064935,36.6727273 19.4805195,36.7194805 L19.4805195,32.4688312 Z M19.4805195,22.3038961 C18.338961,21.7441558 17.1805195,21.1428571 15.961039,20.5116883 C14.5415584,19.7883117 13.0779221,19.0415584 11.3324675,18.3545455 C11.7233766,20.212987 12.674026,21.7753247 13.8285714,23.1467532 C15.0051948,24.5051948 16.4558442,25.6597403 18.1441558,26.4714286 C18.5727273,26.6779221 19.0207792,26.861039 19.4805195,27.0168831 L19.4805195,22.3038961 Z M59.4155844,21.3987013 C59.238961,21.2441558 59.0922078,21.0558442 58.9727273,20.8571429 C58.2597403,20.0779221 56.6194805,18.6233766 53.6805195,17.5428571 C53.6545455,17.5337662 53.6272727,17.5246753 53.6,17.512987 C53.2571429,17.3896104 52.8961039,17.2727273 52.5168831,17.1584416 C52.4285714,17.1324675 52.3363636,17.1090909 52.2454545,17.0831169 C51.9181818,16.9909091 51.5792208,16.9051948 51.2246753,16.8246753 C51.0857143,16.7922078 50.9467532,16.761039 50.8012987,16.7311688 C50.4779221,16.6636364 50.1415584,16.6025974 49.7961039,16.5467532 C49.6155844,16.5168831 49.4363636,16.4883117 49.2493506,16.4623377 C48.9168831,16.4155844 48.5688312,16.3753247 48.2168831,16.3415584 C48.0038961,16.3181818 47.7935065,16.2987013 47.574026,16.2805195 C47.2155844,16.2532468 46.8402597,16.2376623 46.4636364,16.2233766 C46.2311688,16.212987 46.0038961,16.2012987 45.7623377,16.1974026 C45.3467532,16.1896104 44.9103896,16.1987013 44.474026,16.2077922 C44.2506494,16.212987 44.038961,16.2090909 43.8103896,16.2181818 C43.1337662,16.2467532 42.4350649,16.2922078 41.7038961,16.3623377 C36.4493506,16.8662338 34.1415584,20.4753247 33.2701299,24.6987013 C34.2597403,24.8584416 35.2350649,25.0376623 36.2,25.2298701 C36.3896104,25.2662338 36.5779221,25.3012987 36.7649351,25.3415584 C44.1207792,26.8532468 50.7311688,29.3 56.2051948,32.4246753 C56.2077922,32.4194805 56.2077922,32.4142857 56.2077922,32.4077922 C66.1220779,38.0636364 72.2909091,45.9714286 72.2909091,54.7324675 C72.2909091,59.0623377 70.7831169,63.1818182 68.0662338,66.9272727 C68.4025974,69.2441558 68.5805195,71.6064935 68.5805195,74.012987 C68.5805195,101.174026 46.6168831,123.201299 19.4805195,123.315584 L19.4805195,60.1571429 C15.6350649,60.2454545 7.91298701,59.2285714 4.38441558,54.4766234 C-0.835064935,47.4454545 -1.50519481,40.325974 3.13636364,25.0649351 C5.10519481,16.8181818 9.78441558,7.43376623 19.4805195,2.92077922 C22.8077922,1.37012987 26.7181818,0.38961039 31.325974,0.236363636 C32.1636364,0.206493506 32.9792208,0.196103896 33.7766234,0.197402597 C34.4779221,0.197402597 35.1558442,0.215584416 35.825974,0.24025974 C35.9155844,0.244155844 36.0090909,0.242857143 36.0974026,0.245454545 C37.6051948,0.305194805 39.0363636,0.419480519 40.3974026,0.577922078 C40.3948052,0.577922078 40.3948052,0.576623377 40.3935065,0.576623377 C60.2844156,2.89480519 64.887013,15.1 64.887013,15.1 C66.1623377,16.2090909 65.9727273,18.5168831 64.461039,20.2545455 C62.9545455,21.9961039 60.6961039,22.5038961 59.4155844,21.3987013 Z" transform="matrix(1 0 0 -1 60.286 125.398)"/>
    <path fill="#C6CCD6" d="M0,1.2987013 C1.50909091,1.35844156 2.93636364,1.47272727 4.2961039,1.62987013 C4.2987013,1.62987013 4.2987013,1.63116883 4.3,1.63116883 C2.93896104,1.47272727 1.50779221,1.35844156 0,1.2987013" transform="matrix(1 0 0 -1 96.383 126.45)"/>
    <path fill="#C6CCD6" d="M2.5974026,1.2987013 C1.92727273,1.27402597 1.24935065,1.25714286 0.548051948,1.25714286 C1.24935065,1.25714286 1.92597403,1.27402597 2.5974026,1.2987013" transform="matrix(1 0 0 -1 93.514 126.457)"/>
    <path fill="#C6CCD6" d="M1.2987013,1.2987013 C1.20909091,1.27272727 1.11688312,1.24935065 1.02727273,1.22337662 C1.11688312,1.24935065 1.20909091,1.27272727 1.2987013,1.2987013" transform="matrix(1 0 0 -1 111.505 109.539)"/>
    <path fill="#C6CCD6" d="M1.2987013,1.2987013 C1.15974026,1.26623377 1.01948052,1.23506494 0.875324675,1.20519481 C1.01948052,1.23506494 1.15974026,1.26623377 1.2987013,1.2987013" transform="matrix(1 0 0 -1 110.212 109.872)"/>
    <path fill="#C6CCD6" d="M1.2987013,1.2987013 C1.06623377,1.28831169 0.838961039,1.27532468 0.597402597,1.27142857 C0.838961039,1.27532468 1.06623377,1.28831169 1.2987013,1.2987013" transform="matrix(1 0 0 -1 105.45 110.473)"/>
    <path fill="#C6CCD6" d="M1.2987013,1.2987013 C1.08571429,1.27532468 0.875324675,1.25584416 0.655844156,1.23766234 C0.875324675,1.25584416 1.08571429,1.27532468 1.2987013,1.2987013" transform="matrix(1 0 0 -1 107.204 110.355)"/>
    <path fill="#C6CCD6" d="M0,1.2987013 C0.98961039,1.45844156 1.96363636,1.63896104 2.92987013,1.82987013 C1.96493506,1.63896104 0.98961039,1.45844156 0,1.2987013" transform="matrix(1 0 0 -1 93.556 101.999)"/>
    <path fill="#C6CCD6" d="M1.2987013,1.2987013 C1.27272727,1.28961039 1.24415584,1.28051948 1.21818182,1.27012987 C1.24415584,1.28051948 1.27272727,1.28961039 1.2987013,1.2987013" transform="matrix(1 0 0 -1 112.668 109.154)"/>
    <path fill="#C6CCD6" d="M1.2987013,1.2987013 C1.07532468,1.3038961 0.864935065,1.3 0.636363636,1.30909091 C0.864935065,1.3 1.07532468,1.3038961 1.2987013,1.2987013" transform="matrix(1 0 0 -1 103.46 110.489)"/>
    <path fill="#C6CCD6" d="M0,0 C7.35714286,1.51038961 13.9701299,3.94415584 19.4428571,7.06623377 C19.4428571,7.07272727 19.4428571,7.07792208 19.4415584,7.08311688 C13.9675325,3.95844156 7.35714286,1.51168831 0,0" transform="matrix(1 0 0 -1 97.05 100.057)"/>
    <path fill="#C6CCD6" d="M1.2987013,1.2987013 C1.11818182,1.26883117 0.938961039,1.24025974 0.753246753,1.21428571 C0.938961039,1.24025974 1.11818182,1.26883117 1.2987013,1.2987013" transform="matrix(1 0 0 -1 108.783 110.15)"/>
    <path fill="#918BC1" d="M1.2987013,1.2987013 C1.1961039,1.32857143 1.09480519,1.36363636 0.993506494,1.39350649 C1.09480519,1.36233766 1.1961039,1.32857143 1.2987013,1.2987013" transform="matrix(1 0 0 -1 53.748 99.573)"/>
    <path fill="#918BC1" d="M1.2987013,1.2987013 C1.1,1.34155844 0.902597403,1.38571429 0.705194805,1.43116883 C0.902597403,1.38571429 1.1,1.34155844 1.2987013,1.2987013" transform="matrix(1 0 0 -1 59.494 101.086)"/>
    <path fill="#918BC1" d="M0,5.19480519 C3.58571429,3.14675325 7.66363636,1.3987013 12.1181818,0.00909090909 C7.66493506,1.4012987 3.58701299,3.15194805 0,5.2 L0,5.19480519 Z" transform="matrix(1 0 0 -1 42.623 98.188)"/>
    <path fill="#918BC1" d="M5.19480519,0 C3.42857143,0.409090909 1.70779221,0.868831169 0.0415584416,1.38051948 C1.70779221,0.871428571 3.42857143,0.409090909 5.19480519,0" transform="matrix(1 0 0 -1 55.005 99.655)"/>
    <path fill="#918BC1" d="M3.8961039,1.2987013 C3.00779221,1.46883117 2.13246753,1.65064935 1.26753247,1.84545455 C2.13246753,1.65064935 3.00779221,1.46883117 3.8961039,1.2987013" transform="matrix(1 0 0 -1 59.526 101.632)"/>
    <path fill="#C6CCD6" d="M1.2987013,45.4545455 C-2.67662338,24.8480519 8.85064935,5.2961039 27.0467532,1.78701299 C29.1805195,1.37402597 31.3116883,1.22077922 33.4181818,1.27142857 C29.4818182,5.13246753 26.925974,9.53376623 26.1636364,14.2467532 C26.0038961,15.225974 25.9012987,16.2168831 25.9012987,17.2233766 C25.9012987,21.5532468 27.4064935,25.674026 30.1233766,29.4181818 C29.7896104,31.7363636 29.6090909,34.0974026 29.6090909,36.5038961 C29.6090909,47.0909091 32.9545455,56.8844156 38.6350649,64.9168831 C41.1649351,68.5025974 44.1493506,71.738961 47.5220779,74.5272727 C45.5948052,75.3519481 43.5675325,76.0012987 41.4402597,76.4103896 C23.2441558,79.9194805 5.27532468,66.061039 1.2987013,45.4545455" transform="matrix(1 0 0 -1 .525 87.89)"/>
    <path fill="#C6CCD6" d="M46.7532468,45.4545455 C42.7779221,66.061039 24.8051948,79.9194805 6.61168831,76.4103896 C4.48571429,76.0012987 2.45844156,75.3519481 0.52987013,74.5272727 C3.9,71.738961 6.88831169,68.5025974 9.41818182,64.9168831 C15.0961039,56.8844156 18.4415584,47.0909091 18.4415584,36.5038961 C18.4415584,34.0974026 18.261039,31.7363636 17.9298701,29.4181818 C20.6454545,25.674026 22.1519481,21.5532468 22.1519481,17.2233766 C22.1519481,16.2168831 22.0493506,15.225974 21.8883117,14.2467532 C21.1272727,9.53376623 18.5701299,5.13246753 14.6350649,1.27142857 C16.7415584,1.22077922 18.8714286,1.37402597 21.0064935,1.78701299 C39.2012987,5.2961039 50.7285714,24.8480519 46.7532468,45.4545455" transform="matrix(1 0 0 -1 110.545 87.89)"/>
    <path fill="#918BC1" d="M19.4805195,9.09090909 C18.4714286,9.42337662 17.4064935,9.62077922 16.3272727,9.73246753 C14.9012987,9.87532468 13.4467532,9.84415584 12.0207792,9.56753247 C9.51558442,9.09090909 7.15454545,7.94545455 5.26103896,6.34285714 C3.38701299,4.73376623 1.86753247,2.7025974 1.23116883,0.333766234 C3.28181818,1.6 5.18441558,2.64415584 7.0974026,3.49090909 C9.0012987,4.34155844 10.8961039,4.94935065 12.8337662,5.31948052 C13.974026,5.53376623 15.1363636,5.65844156 16.3272727,5.71818182 C17.1558442,5.76103896 17.9948052,5.77402597 18.8584416,5.74415584 C20.9597403,5.68961039 23.1363636,5.41168831 25.561039,5.21948052 C23.9337662,7.02727273 21.8246753,8.31168831 19.4805195,9.09090909" transform="matrix(1 0 0 -1 63.44 86.961)"/>
    <path fill="#918BC1" d="M11.6883117,9.09090909 C10.8142857,9.04415584 9.94285714,8.93246753 9.09090909,8.70519481 C6.97532468,8.15064935 5.02857143,7.06363636 3.47012987,5.62857143 C1.93246753,4.17922078 0.681818182,2.40779221 0.206493506,0.318181818 C2.07662338,1.27662338 3.72987013,2.1038961 5.36623377,2.81688312 C6.99480519,3.53246753 8.57922078,4.1038961 10.187013,4.51948052 C10.6805195,4.64935065 11.1857143,4.73766234 11.6883117,4.84025974 C12.8194805,5.07012987 13.9714286,5.25454545 15.1883117,5.35454545 C16.9506494,5.51558442 18.8025974,5.5012987 20.9220779,5.6 C18.6415584,8.08181818 15.1597403,9.27662338 11.6883117,9.09090909" transform="matrix(1 0 0 -1 68.078 97.77)"/>
    <path fill="#918BC1" d="M12.987013,10.3896104 C11.5350649,10.5246753 10.0818182,10.3038961 8.74155844,9.85064935 C8.28181818,9.69480519 7.83376623,9.51168831 7.40649351,9.30519481 C5.71818182,8.49350649 4.26753247,7.33896104 3.08961039,5.98051948 C1.93506494,4.60909091 0.985714286,3.04805195 0.593506494,1.18831169 C2.34025974,1.87532468 3.8038961,2.62337662 5.22207792,3.34545455 C6.44155844,3.97662338 7.6,4.57792208 8.74155844,5.13766234 C8.91818182,5.22337662 9.0987013,5.31948052 9.27402597,5.4025974 C10.587013,6.02337662 11.861039,6.57792208 13.2350649,7 C14.612987,7.42727273 16.0922078,7.6974026 17.9753247,7.86103896 C16.8168831,9.36363636 14.9246753,10.212987 12.987013,10.3896104" transform="matrix(1 0 0 -1 71.024 108.232)"/>
    <path fill="#918BC1" d="M7.79220779,10.3896104 C6.32207792,10.2142857 4.85844156,9.61298701 3.64415584,8.63896104 C2.42727273,7.66363636 1.5038961,6.30519481 1.06753247,4.84285714 C0.651948052,3.37142857 0.663636364,1.82467532 1.32987013,0.407792208 L4.05324675,3.21168831 C4.84805195,3.99220779 5.58701299,4.63506494 6.36103896,5.27402597 C7.14285714,5.9025974 7.97012987,6.52207792 8.91038961,7.18831169 C9.85974026,7.86623377 10.8779221,8.57272727 12.1077922,9.51038961 C10.7792208,10.3623377 9.26233766,10.5467532 7.79220779,10.3896104" transform="matrix(1 0 0 -1 78.979 116.555)"/>
    <path fill="#918BC1" d="M5.19480519,9.09090909 C4.1025974,8.78701299 3.07662338,8.1025974 2.34025974,7.13766234 C1.6025974,6.17532468 1.2,4.93506494 1.25324675,3.75324675 C1.32467532,2.57012987 1.77532468,1.45584416 2.76493506,0.637662338 C3.57012987,1.63766234 4.08961039,2.37402597 4.56623377,2.97662338 C5.03766234,3.57662338 5.42337662,4.03116883 5.78831169,4.52467532 C6.16103896,5.01688312 6.53506494,5.55584416 6.99350649,6.21688312 C7.45064935,6.89350649 7.95714286,7.65064935 8.6025974,8.73896104 C7.47662338,9.37922078 6.29090909,9.38441558 5.19480519,9.09090909" transform="matrix(1 0 0 -1 88.32 120.334)"/>
    <path fill="#918BC1" d="M3.8961039,7.79220779 C2.87922078,7.37532468 2.2961039,6.81948052 1.85064935,6.22207792 C1.42337662,5.62727273 1.17792208,4.97662338 1.1012987,4.29220779 C1.02337662,3.60909091 1.11948052,2.89090909 1.43246753,2.16753247 C1.76363636,1.46753247 2.28961039,0.676623377 3.34155844,0.284415584 C4.04935065,1.11168831 4.51038961,1.5974026 4.83376623,2.15844156 C5.15454545,2.70519481 5.34155844,3.24675325 5.4012987,3.82077922 C5.46103896,4.39480519 5.4,4.9961039 5.19090909,5.64285714 C4.96363636,6.2961039 4.62467532,6.97662338 3.8961039,7.79220779" transform="matrix(1 0 0 -1 98.031 121.341)"/>
    <path fill="#918BC1" d="M3.8961039,2.5974026 C3.86753247,3.17402597 3.80649351,3.70649351 3.68961039,4.25714286 C3.57662338,4.8 3.41168831,5.35714286 3.17012987,5.94025974 C2.91298701,6.52597403 2.61558442,7.12857143 2.07792208,7.81948052 C1.41688312,7.22467532 1.11038961,6.53116883 0.912987013,5.82727273 C0.736363636,5.12337662 0.720779221,4.39090909 0.866233766,3.67012987 C1.01168831,2.95324675 1.32987013,2.24545455 1.83766234,1.64675325 C2.35324675,1.06103896 3.05974026,0.562337662 3.95194805,0.52987013 L3.8961039,2.5974026 Z" transform="matrix(1 0 0 -1 106.127 120.23)"/>
    <path fill="#3C3C3B" d="M12.987013,6.49350649 C12.987013,3.21948052 10.3324675,0.562337662 7.05584416,0.562337662 C3.78051948,0.562337662 1.12337662,3.21948052 1.12337662,6.49350649 C1.12337662,9.76883117 3.78051948,12.425974 7.05584416,12.425974 C10.3324675,12.425974 12.987013,9.76883117 12.987013,6.49350649" transform="matrix(1 0 0 -1 44.039 68.262)"/>
    <path fill="#3C3C3B" d="M0,6.49350649 C0,3.21948052 2.65454545,0.562337662 5.92987013,0.562337662 C9.20519481,0.562337662 11.8636364,3.21948052 11.8636364,6.49350649 C11.8636364,9.76883117 9.20519481,12.425974 5.92987013,12.425974 C2.65454545,12.425974 0,9.76883117 0,6.49350649" transform="matrix(1 0 0 -1 102.093 68.262)"/>
    <path fill="#FFF" d="M5.19480519,2.5974026 C5.19480519,1.2038961 4.06363636,0.0727272727 2.67142857,0.0727272727 C1.27532468,0.0727272727 0.146753247,1.2038961 0.146753247,2.5974026 C0.146753247,3.98831169 1.27532468,5.11948052 2.67142857,5.11948052 C4.06363636,5.11948052 5.19480519,3.98831169 5.19480519,2.5974026" transform="matrix(1 0 0 -1 50.485 62.702)"/>
    <path fill="#FFF" d="M5.19480519,2.5974026 C5.19480519,1.2038961 4.06233766,0.0727272727 2.67142857,0.0727272727 C1.27532468,0.0727272727 0.146753247,1.2038961 0.146753247,2.5974026 C0.146753247,3.98831169 1.27532468,5.11948052 2.67142857,5.11948052 C4.06233766,5.11948052 5.19480519,3.98831169 5.19480519,2.5974026" transform="matrix(1 0 0 -1 107.41 62.702)"/>
    <path fill="#AEAED3" d="M23.3766234,15.5844156 C23.3311688,15.9883117 23.2948052,16.3948052 23.238961,16.7974026 C17.7662338,13.674026 11.1519481,11.2402597 3.7961039,9.72987013 C3.60909091,9.69090909 3.42077922,9.65584416 3.23116883,9.61818182 C2.26623377,9.42727273 1.29220779,9.24675325 0.301298701,9.08701299 C0.744155844,6.94545455 1.56103896,4.96493506 2.93896104,3.46493506 C4.27922078,2.00779221 6.14675325,0.998701299 8.73636364,0.750649351 C9.46623377,0.680519481 10.1649351,0.635064935 10.8428571,0.607792208 C11.0701299,0.598701299 11.2818182,0.602597403 11.5051948,0.597402597 C11.9415584,0.587012987 12.3805195,0.577922078 12.7948052,0.585714286 C13.0350649,0.58961039 13.2623377,0.602597403 13.4948052,0.612987013 C13.8714286,0.625974026 14.2480519,0.641558442 14.6051948,0.67012987 C14.8246753,0.687012987 15.0350649,0.707792208 15.2480519,0.72987013 C15.6,0.764935065 15.9480519,0.803896104 16.2818182,0.850649351 C16.4675325,0.877922078 16.6467532,0.905194805 16.8272727,0.936363636 C17.1714286,0.992207792 17.5090909,1.05324675 17.8324675,1.11948052 C17.9779221,1.15064935 18.1181818,1.18051948 18.2571429,1.21428571 C18.6090909,1.29350649 18.9506494,1.37922078 19.2766234,1.47272727 C19.3675325,1.4974026 19.4597403,1.52207792 19.5493506,1.54675325 C19.9272727,1.66103896 20.2896104,1.77792208 20.6324675,1.9025974 C20.6584416,1.91428571 20.687013,1.92207792 20.712987,1.93116883 C21.0935065,2.07532468 21.4558442,2.21948052 21.7948052,2.37012987 C22.9428571,5.59350649 23.5649351,9.02857143 23.5649351,12.5961039 C23.5649351,13.6090909 23.4844156,14.5974026 23.3766234,15.5844156" transform="matrix(1 0 0 -1 93.254 109.787)"/>
    <path fill="#AEAED3" d="M58.4415584,10.3896104 L58.4415584,19.2363636 L58.4415584,20.7181818 C58.5467532,20.7805195 58.6467532,20.8493506 58.7454545,20.9142857 C57.3857143,20.7571429 55.9571429,20.6441558 54.4493506,20.5844156 C54.3597403,20.5818182 54.2675325,20.5831169 54.1779221,20.5779221 C53.5064935,20.5532468 52.8298701,20.5363636 52.1285714,20.5363636 C51.3324675,20.5337662 50.5155844,20.5441558 49.6766234,20.574026 C45.0701299,20.7272727 41.1584416,21.7077922 37.8324675,23.2584416 C28.1363636,27.7714286 23.4571429,37.1558442 21.4883117,45.4025974 C20.6,45.5727273 19.7246753,45.7545455 18.8584416,45.9493506 C18.6597403,45.9922078 18.4623377,46.0363636 18.2662338,46.0805195 C16.5,46.4909091 14.7792208,46.9519481 13.112987,47.4623377 C13.0103896,47.4922078 12.9077922,47.525974 12.8077922,47.5571429 C8.35324675,48.9467532 4.27532468,50.6948052 0.68961039,52.7428571 C0.497402597,51.3649351 0.367532468,49.9688312 0.367532468,48.5454545 C0.367532468,36.9597403 6.88961039,26.7454545 16.8090909,20.7181818 L16.8090909,10.3857143 C13.6103896,8.13506494 11.5142857,4.41948052 11.5142857,0.212987013 L22.7142857,0.212987013 L24.9051948,0.212987013 L36.4051948,0.212987013 C36.4051948,4.42077922 34.3077922,8.13636364 31.1090909,10.387013 L31.1090909,15.5402597 C33.2272727,15.2025974 35.3974026,14.9974026 37.6246753,14.9974026 C37.6948052,14.9974026 37.761039,15.0064935 37.8324675,15.0064935 C38.6779221,15.0181818 39.512987,15.0649351 40.3415584,15.1233766 C40.7558442,15.1506494 41.1727273,15.1818182 41.5857143,15.2246753 C42.4532468,15.3090909 43.3064935,15.4168831 44.1428571,15.5402597 L44.1428571,10.3857143 C40.9467532,8.13246753 38.8519481,4.41948052 38.8519481,0.212987013 L50.0493506,0.212987013 L52.2415584,0.212987013 L63.7376623,0.212987013 C63.7376623,4.42207792 61.6415584,8.13636364 58.4415584,10.3896104" transform="matrix(1 0 0 -1 41.934 145.736)"/>
    <path fill="#F6E9E5" d="M19.4805195,10.3896104 C18.9792208,9.51168831 18.5623377,8.95584416 18.074026,8.2974026 C17.5948052,7.67012987 17.0922078,7.06753247 16.561039,6.49090909 C15.5025974,5.32987013 14.3181818,4.25844156 13.0012987,3.31558442 C11.6792208,2.38051948 10.2064935,1.57922078 8.60519481,1.04805195 C7.01038961,0.505194805 5.29220779,0.271428571 3.63506494,0.351948052 C2.14545455,0.422077922 0.996103896,1.68831169 1.06883117,3.17792208 C1.12987013,4.44545455 2.05324675,5.46493506 3.24285714,5.7 L3.43246753,5.73506494 C5.36363636,6.11558442 6.96623377,7.21818182 8.31168831,8.76883117 C8.97922078,9.54805195 9.58181818,10.4207792 10.1,11.3636364 C10.3584416,11.8311688 10.6,12.3142857 10.8142857,12.8025974 C11.0142857,13.2623377 11.2493506,13.8441558 11.3116883,14.1558442 C11.8168831,16.6441558 14.2415584,18.2545455 16.7311688,17.7493506 C19.2181818,17.2441558 20.8272727,14.8181818 20.3233766,12.3298701 C20.2233766,11.8454545 20.0506494,11.3909091 19.8207792,10.9805195 L19.4805195,10.3896104 Z" transform="matrix(1 0 0 -1 40.187 106.62)"/>
    <path fill="#F6E9E5" d="M10.3896104,14.2857143 C10.4519481,13.974026 10.6883117,13.3922078 10.8883117,12.9324675 C11.1012987,12.4441558 11.3415584,11.961039 11.6025974,11.4935065 C12.1207792,10.5506494 12.7233766,9.67662338 13.3909091,8.8987013 C14.7350649,7.34675325 16.3376623,6.24545455 18.2688312,5.86493506 L18.4571429,5.82857143 C19.9207792,5.54155844 20.8727273,4.12077922 20.5857143,2.65714286 C20.3402597,1.41298701 19.2766234,0.537662338 18.0662338,0.481818182 C16.4090909,0.401298701 14.6909091,0.633766234 13.0961039,1.17662338 C11.4948052,1.70779221 10.0233766,2.51038961 8.7,3.44415584 C7.38181818,4.38831169 6.1987013,5.45974026 5.14025974,6.62077922 C4.60909091,7.1974026 4.10649351,7.8 3.62727273,8.42597403 C3.13896104,9.08571429 2.72207792,9.64155844 2.22077922,10.5194805 L1.89350649,11.0922078 C0.632467532,13.2948052 1.4,16.1038961 3.6038961,17.3636364 C5.80779221,18.6233766 8.61428571,17.8584416 9.87402597,15.6519481 C10.1220779,15.2233766 10.2935065,14.7467532 10.3896104,14.2857143" transform="matrix(1 0 0 -1 92.217 106.75)"/>
  </g>
</svg>
