<?xml version="1.0" encoding="UTF-8" standalone="no"?>
<!-- Created with Inkscape (http://www.inkscape.org/) -->

<svg
   xmlns:dc="http://purl.org/dc/elements/1.1/"
   xmlns:cc="http://creativecommons.org/ns#"
   xmlns:rdf="http://www.w3.org/1999/02/22-rdf-syntax-ns#"
   xmlns:svg="http://www.w3.org/2000/svg"
   xmlns="http://www.w3.org/2000/svg"
   version="1.1"
   width="151.15446"
   height="138.06599"
   id="svg13641">
  <defs
     id="defs13643" />
  <metadata
     id="metadata13646">
    <rdf:RDF>
      <cc:Work
         rdf:about="">
        <dc:format>image/svg+xml</dc:format>
        <dc:type
           rdf:resource="http://purl.org/dc/dcmitype/StillImage" />
        <dc:title></dc:title>
      </cc:Work>
    </rdf:RDF>
  </metadata>
  <g
     transform="translate(-318.70849,-443.32919)"
     id="layer1">
    <g
       transform="matrix(1.25,0,0,-1.25,381.13021,510.28544)"
       id="g4310">
      <path
         d="m 0,0 c 2.718,3.661 7.721,4.146 10.683,4.078 l 0,49.484 c -0.054,0 -0.108,0.003 -0.16,0.003 -20.966,0 -37.965,-16.998 -37.965,-37.966 0,-1.854 0.138,-3.672 0.393,-5.456 -2.09,-2.884 -3.249,-6.057 -3.249,-9.391 0,-6.745 4.746,-12.836 12.381,-17.191 l 0,0.003 c 2.762,-1.577 5.901,-2.924 9.331,-3.997 0.077,-0.023 0.155,-0.049 0.234,-0.073 1.284,-0.394 2.608,-0.748 3.969,-1.063 0.151,-0.035 0.303,-0.069 0.456,-0.102 0.667,-0.149 1.341,-0.29 2.025,-0.421 C -6.032,-9.339 -4.019,-5.413 0,0"
         id="path4312"
         style="fill:#aeaed3;fill-opacity:1;fill-rule:nonzero;stroke:none" />
    </g>
    <g
       transform="matrix(1.25,0,0,-1.25,394.48346,519.52494)"
       id="g4314">
      <path
         d="m 0,0 c -0.917,-0.046 -1.812,-0.143 -2.69,-0.308 -1.492,-0.285 -2.951,-0.753 -4.417,-1.407 -1.473,-0.652 -2.937,-1.456 -4.517,-2.431 0.49,1.824 1.661,3.387 3.103,4.626 1.458,1.235 3.276,2.117 5.205,2.484 C -2.218,3.177 -1.098,3.2 0,3.091 L 0,0 z m 0,-8.999 c -0.387,-0.078 -0.776,-0.147 -1.156,-0.246 -1.238,-0.32 -2.458,-0.761 -3.712,-1.312 -1.26,-0.548 -2.533,-1.185 -3.973,-1.923 0.366,1.609 1.329,2.972 2.513,4.088 1.2,1.106 2.699,1.943 4.328,2.37 0.656,0.174 1.327,0.26 2,0.296 l 0,-3.273 z m 0,-7.827 c -0.879,-0.431 -1.771,-0.894 -2.71,-1.38 -1.093,-0.557 -2.22,-1.132 -3.564,-1.661 0.301,1.431 1.033,2.634 1.922,3.69 0.906,1.046 2.023,1.935 3.323,2.56 0.33,0.159 0.675,0.3 1.029,0.42 l 0,-3.629 z m 30.75,-0.697 c -0.136,-0.119 -0.249,-0.264 -0.341,-0.417 -0.549,-0.6 -1.812,-1.72 -4.075,-2.552 -0.02,-0.007 -0.041,-0.014 -0.062,-0.023 -0.264,-0.095 -0.542,-0.185 -0.834,-0.273 -0.068,-0.02 -0.139,-0.038 -0.209,-0.058 -0.252,-0.071 -0.513,-0.137 -0.786,-0.199 -0.107,-0.025 -0.214,-0.049 -0.326,-0.072 -0.249,-0.052 -0.508,-0.099 -0.774,-0.142 -0.139,-0.023 -0.277,-0.045 -0.421,-0.065 -0.256,-0.036 -0.524,-0.067 -0.795,-0.093 -0.164,-0.018 -0.326,-0.033 -0.495,-0.047 -0.276,-0.021 -0.565,-0.033 -0.855,-0.044 -0.179,-0.008 -0.354,-0.017 -0.54,-0.02 -0.32,-0.006 -0.656,10e-4 -0.992,0.008 -0.172,0.004 -0.335,0.001 -0.511,0.008 -0.521,0.022 -1.059,0.057 -1.622,0.111 -4.046,0.388 -5.823,3.167 -6.494,6.419 0.762,0.123 1.513,0.261 2.256,0.409 0.146,0.028 0.291,0.055 0.435,0.086 5.664,1.164 10.754,3.048 14.969,5.454 0.002,-0.004 0.002,-0.008 0.002,-0.013 7.634,4.355 12.384,10.444 12.384,17.19 0,3.334 -1.161,6.506 -3.253,9.39 0.259,1.784 0.396,3.603 0.396,5.456 C 37.807,43.904 20.895,60.865 0,60.953 L 0,12.321 c -2.961,0.068 -8.907,-0.715 -11.624,-4.374 -4.019,-5.414 -4.535,-10.896 -0.961,-22.647 1.516,-6.35 5.119,-13.576 12.585,-17.051 2.562,-1.194 5.573,-1.949 9.121,-2.067 0.645,-0.023 1.273,-0.031 1.887,-0.03 0.54,0 1.062,0.014 1.578,0.033 0.069,0.003 0.141,0.002 0.209,0.004 1.161,0.046 2.263,0.134 3.311,0.256 -0.002,0 -0.002,-10e-4 -0.003,-10e-4 15.316,1.785 18.86,11.183 18.86,11.183 0.982,0.854 0.836,2.631 -0.328,3.969 -1.16,1.341 -2.899,1.732 -3.885,0.881"
         id="path4316"
         style="fill:#c6ccd6;fill-opacity:1;fill-rule:nonzero;stroke:none" />
    </g>
    <g
       transform="matrix(1.25,0,0,-1.25,410.47709,561.78819)"
       id="g4318">
      <path
         d="M 0,0 C 1.162,0.046 2.261,0.134 3.308,0.255 3.31,0.255 3.31,0.256 3.311,0.256 2.263,0.134 1.161,0.046 0,0"
         id="path4320"
         style="fill:#c6ccd6;fill-opacity:1;fill-rule:nonzero;stroke:none" />
    </g>
    <g
       transform="matrix(1.25,0,0,-1.25,410.21596,561.79432)"
       id="g4322">
      <path
         d="m 0,0 c -0.516,-0.019 -1.038,-0.032 -1.578,-0.032 0.54,0 1.061,0.013 1.578,0.032"
         id="path4324"
         style="fill:#c6ccd6;fill-opacity:1;fill-rule:nonzero;stroke:none" />
    </g>
    <g
       transform="matrix(1.25,0,0,-1.25,426.28159,545.51007)"
       id="g4326">
      <path
         d="M 0,0 C -0.069,-0.02 -0.14,-0.038 -0.209,-0.058 -0.14,-0.038 -0.069,-0.02 0,0"
         id="path4328"
         style="fill:#c6ccd6;fill-opacity:1;fill-rule:nonzero;stroke:none" />
    </g>
    <g
       transform="matrix(1.25,0,0,-1.25,425.03771,545.83119)"
       id="g4330">
      <path
         d="M 0,0 C -0.107,-0.025 -0.215,-0.049 -0.326,-0.072 -0.215,-0.049 -0.107,-0.025 0,0"
         id="path4332"
         style="fill:#c6ccd6;fill-opacity:1;fill-rule:nonzero;stroke:none" />
    </g>
    <g
       transform="matrix(1.25,0,0,-1.25,420.45459,546.40982)"
       id="g4334">
      <path
         d="M 0,0 C -0.179,-0.008 -0.354,-0.018 -0.54,-0.021 -0.354,-0.018 -0.179,-0.008 0,0"
         id="path4336"
         style="fill:#c6ccd6;fill-opacity:1;fill-rule:nonzero;stroke:none" />
    </g>
    <g
       transform="matrix(1.25,0,0,-1.25,422.14221,546.29619)"
       id="g4338">
      <path
         d="M 0,0 C -0.164,-0.018 -0.326,-0.033 -0.495,-0.047 -0.326,-0.033 -0.164,-0.018 0,0"
         id="path4340"
         style="fill:#c6ccd6;fill-opacity:1;fill-rule:nonzero;stroke:none" />
    </g>
    <g
       transform="matrix(1.25,0,0,-1.25,407.75621,538.25307)"
       id="g4342">
      <path
         d="M 0,0 C 0.762,0.123 1.512,0.262 2.256,0.409 1.513,0.262 0.762,0.123 0,0"
         id="path4344"
         style="fill:#c6ccd6;fill-opacity:1;fill-rule:nonzero;stroke:none" />
    </g>
    <g
       transform="matrix(1.25,0,0,-1.25,427.40159,545.14019)"
       id="g4346">
      <path
         d="M 0,0 C -0.02,-0.007 -0.042,-0.014 -0.062,-0.022 -0.042,-0.014 -0.02,-0.007 0,0"
         id="path4348"
         style="fill:#c6ccd6;fill-opacity:1;fill-rule:nonzero;stroke:none" />
    </g>
    <g
       transform="matrix(1.25,0,0,-1.25,418.53934,546.42444)"
       id="g4350">
      <path
         d="M 0,0 C -0.172,0.004 -0.334,0.001 -0.51,0.008 -0.334,0.001 -0.172,0.004 0,0"
         id="path4352"
         style="fill:#c6ccd6;fill-opacity:1;fill-rule:nonzero;stroke:none" />
    </g>
    <g
       transform="matrix(1.25,0,0,-1.25,411.11921,537.63419)"
       id="g4354">
      <path
         d="m 0,0 c 5.665,1.163 10.757,3.037 14.971,5.441 0,0.005 0,0.009 -10e-4,0.013 C 10.755,3.048 5.665,1.164 0,0"
         id="path4356"
         style="fill:#c6ccd6;fill-opacity:1;fill-rule:nonzero;stroke:none" />
    </g>
    <g
       transform="matrix(1.25,0,0,-1.25,423.66196,546.09844)"
       id="g4358">
      <path
         d="M 0,0 C -0.139,-0.023 -0.277,-0.045 -0.42,-0.065 -0.277,-0.045 -0.139,-0.023 0,0"
         id="path4360"
         style="fill:#c6ccd6;fill-opacity:1;fill-rule:nonzero;stroke:none" />
    </g>
    <g
       transform="matrix(1.25,0,0,-1.25,370.69071,535.91782)"
       id="g4362">
      <path
         d="M 0,0 C -0.079,0.023 -0.157,0.05 -0.235,0.073 -0.157,0.049 -0.079,0.023 0,0"
         id="path4364"
         style="fill:#918bc1;fill-opacity:1;fill-rule:nonzero;stroke:none" />
    </g>
    <g
       transform="matrix(1.25,0,0,-1.25,376.22184,537.37407)"
       id="g4366">
      <path
         d="M 0,0 C -0.153,0.033 -0.305,0.067 -0.457,0.102 -0.305,0.067 -0.153,0.033 0,0"
         id="path4368"
         style="fill:#918bc1;fill-opacity:1;fill-rule:nonzero;stroke:none" />
    </g>
    <g
       transform="matrix(1.25,0,0,-1.25,358.73334,530.83482)"
       id="g4370">
      <path
         d="M 0,0 C 2.761,-1.577 5.901,-2.923 9.331,-3.993 5.902,-2.921 2.762,-1.573 0,0.004 L 0,0 z"
         id="path4372"
         style="fill:#918bc1;fill-opacity:1;fill-rule:nonzero;stroke:none" />
    </g>
    <g
       transform="matrix(1.25,0,0,-1.25,375.65109,537.24719)"
       id="g4374">
      <path
         d="M 0,0 C -1.36,0.315 -2.685,0.669 -3.968,1.063 -2.685,0.671 -1.36,0.315 0,0"
         id="path4376"
         style="fill:#918bc1;fill-opacity:1;fill-rule:nonzero;stroke:none" />
    </g>
    <g
       transform="matrix(1.25,0,0,-1.25,378.75234,537.90019)"
       id="g4378">
      <path
         d="M 0,0 C -0.684,0.131 -1.358,0.271 -2.024,0.421 -1.358,0.271 -0.684,0.131 0,0"
         id="path4380"
         style="fill:#918bc1;fill-opacity:1;fill-rule:nonzero;stroke:none" />
    </g>
    <g
       transform="matrix(1.25,0,0,-1.25,319.46334,482.17269)"
       id="g4382">
      <path
         d="m 0,0 c -3.061,-15.867 5.815,-30.922 19.826,-33.624 1.643,-0.318 3.284,-0.436 4.906,-0.397 -3.031,2.973 -4.999,6.362 -5.586,9.991 -0.123,0.754 -0.202,1.517 -0.202,2.292 0,3.334 1.159,6.507 3.251,9.39 -0.257,1.785 -0.396,3.603 -0.396,5.456 0,8.152 2.576,15.693 6.95,21.878 1.948,2.761 4.246,5.253 6.843,7.4 -1.484,0.635 -3.045,1.135 -4.683,1.45 C 16.898,26.538 3.062,15.867 0,0"
         id="path4384"
         style="fill:#c6ccd6;fill-opacity:1;fill-rule:nonzero;stroke:none" />
    </g>
    <g
       transform="matrix(1.25,0,0,-1.25,469.10809,482.17269)"
       id="g4386">
      <path
         d="m 0,0 c -3.061,15.867 -16.9,26.538 -30.909,23.836 -1.637,-0.315 -3.198,-0.815 -4.683,-1.45 2.595,-2.147 4.896,-4.639 6.844,-7.4 4.372,-6.185 6.948,-13.726 6.948,-21.878 0,-1.853 -0.139,-3.671 -0.394,-5.456 2.091,-2.883 3.251,-6.056 3.251,-9.39 0,-0.775 -0.079,-1.538 -0.203,-2.292 -0.586,-3.629 -2.555,-7.018 -5.585,-9.991 1.622,-0.039 3.262,0.079 4.906,0.397 C -5.815,-30.922 3.061,-15.867 0,0"
         id="path4388"
         style="fill:#c6ccd6;fill-opacity:1;fill-rule:nonzero;stroke:none" />
    </g>
    <g
       transform="matrix(1.25,0,0,-1.25,397.51871,516.27919)"
       id="g4390">
      <path
         d="M 0,0 C -0.777,0.256 -1.597,0.408 -2.428,0.494 -3.526,0.604 -4.646,0.58 -5.744,0.367 -7.673,0 -9.491,-0.882 -10.949,-2.116 c -1.443,-1.239 -2.613,-2.803 -3.103,-4.627 1.579,0.975 3.044,1.779 4.517,2.431 1.466,0.655 2.925,1.123 4.417,1.408 0.878,0.165 1.773,0.261 2.69,0.307 0.638,0.033 1.284,0.043 1.949,0.02 C 1.139,-2.619 2.815,-2.833 4.682,-2.981 3.429,-1.589 1.805,-0.6 0,0"
         id="path4392"
         style="fill:#918bc1;fill-opacity:1;fill-rule:nonzero;stroke:none" />
    </g>
    <g
       transform="matrix(1.25,0,0,-1.25,394.48346,526.68194)"
       id="g4394">
      <path
         d="m 0,0 c -0.673,-0.036 -1.344,-0.122 -2,-0.297 -1.629,-0.427 -3.128,-1.264 -4.328,-2.369 -1.184,-1.116 -2.147,-2.48 -2.513,-4.089 1.44,0.738 2.713,1.375 3.973,1.924 1.254,0.551 2.474,0.991 3.712,1.311 0.38,0.1 0.769,0.168 1.156,0.247 0.871,0.177 1.758,0.319 2.695,0.396 1.357,0.124 2.783,0.113 4.415,0.189 C 5.354,-0.777 2.673,0.143 0,0"
         id="path4396"
         style="fill:#918bc1;fill-opacity:1;fill-rule:nonzero;stroke:none" />
    </g>
    <g
       transform="matrix(1.25,0,0,-1.25,398.56921,535.50282)"
       id="g4398">
      <path
         d="m 0,0 c -1.118,0.104 -2.237,-0.066 -3.269,-0.415 -0.354,-0.12 -0.699,-0.261 -1.028,-0.42 -1.3,-0.625 -2.417,-1.514 -3.324,-2.56 -0.889,-1.056 -1.62,-2.258 -1.922,-3.69 1.345,0.529 2.472,1.105 3.564,1.661 0.939,0.486 1.831,0.949 2.71,1.38 0.136,0.066 0.275,0.14 0.41,0.204 1.011,0.478 1.992,0.905 3.05,1.23 1.061,0.329 2.2,0.537 3.65,0.663 C 2.949,-0.79 1.492,-0.136 0,0"
         id="path4400"
         style="fill:#918bc1;fill-opacity:1;fill-rule:nonzero;stroke:none" />
    </g>
    <g
       transform="matrix(1.25,0,0,-1.25,401.22546,543.51307)"
       id="g4402">
      <path
         d="m 0,0 c -1.132,-0.135 -2.259,-0.598 -3.194,-1.348 -0.937,-0.751 -1.648,-1.797 -1.984,-2.923 -0.32,-1.133 -0.311,-2.324 0.202,-3.415 l 2.097,2.159 c 0.612,0.601 1.181,1.096 1.777,1.588 0.602,0.484 1.239,0.961 1.963,1.474 0.731,0.522 1.515,1.066 2.462,1.788 C 2.3,-0.021 1.132,0.121 0,0"
         id="path4404"
         style="fill:#918bc1;fill-opacity:1;fill-rule:nonzero;stroke:none" />
    </g>
    <g
       transform="matrix(1.25,0,0,-1.25,407.71709,548.40069)"
       id="g4406">
      <path
         d="M 0,0 C -0.841,-0.234 -1.631,-0.761 -2.198,-1.504 -2.766,-2.245 -3.076,-3.2 -3.035,-4.11 c 0.055,-0.911 0.402,-1.769 1.164,-2.399 0.62,0.77 1.02,1.337 1.387,1.801 0.363,0.462 0.66,0.812 0.941,1.192 0.287,0.379 0.575,0.794 0.928,1.303 0.352,0.521 0.742,1.104 1.239,1.942 C 1.757,0.222 0.844,0.226 0,0"
         id="path4408"
         style="fill:#918bc1;fill-opacity:1;fill-rule:nonzero;stroke:none" />
    </g>
    <g
       transform="matrix(1.25,0,0,-1.25,415.81346,550.61994)"
       id="g4410">
      <path
         d="m 0,0 c -0.783,-0.321 -1.232,-0.749 -1.575,-1.209 -0.329,-0.458 -0.518,-0.959 -0.577,-1.486 -0.06,-0.526 0.014,-1.079 0.255,-1.636 0.255,-0.539 0.66,-1.148 1.47,-1.45 0.545,0.637 0.9,1.011 1.149,1.443 0.247,0.421 0.391,0.838 0.437,1.28 0.046,0.442 -0.001,0.905 -0.162,1.403 C 0.822,-1.152 0.561,-0.628 0,0"
         id="path4412"
         style="fill:#918bc1;fill-opacity:1;fill-rule:nonzero;stroke:none" />
    </g>
    <g
       transform="matrix(1.25,0,0,-1.25,423.60584,554.55069)"
       id="g4414">
      <path
         d="M 0,0 C -0.022,0.444 -0.069,0.854 -0.159,1.278 -0.246,1.696 -0.373,2.125 -0.559,2.574 -0.757,3.025 -0.986,3.489 -1.4,4.021 -1.909,3.563 -2.145,3.029 -2.297,2.487 -2.433,1.945 -2.445,1.381 -2.333,0.826 c 0.112,-0.552 0.357,-1.097 0.748,-1.558 0.397,-0.451 0.941,-0.835 1.628,-0.86 L 0,0 z"
         id="path4416"
         style="fill:#918bc1;fill-opacity:1;fill-rule:nonzero;stroke:none" />
    </g>
    <g
       transform="matrix(1.25,0,0,-1.25,372.59571,500.78107)"
       id="g4418">
      <path
         d="m 0,0 c 0,-2.521 -2.044,-4.567 -4.567,-4.567 -2.522,0 -4.568,2.046 -4.568,4.567 0,2.522 2.046,4.568 4.568,4.568 C -2.044,4.568 0,2.522 0,0"
         id="path4420"
         style="fill:#3c3c3b;fill-opacity:1;fill-rule:nonzero;stroke:none" />
    </g>
    <g
       transform="matrix(1.25,0,0,-1.25,415.97334,500.78107)"
       id="g4422">
      <path
         d="m 0,0 c 0,-2.521 2.044,-4.567 4.566,-4.567 2.522,0 4.569,2.046 4.569,4.567 0,2.522 -2.047,4.568 -4.569,4.568 C 2.044,4.568 0,2.522 0,0"
         id="path4424"
         style="fill:#3c3c3b;fill-opacity:1;fill-rule:nonzero;stroke:none" />
    </g>
    <g
       transform="matrix(1.25,0,0,-1.25,371.29996,499.17957)"
       id="g4426">
      <path
         d="m 0,0 c 0,-1.073 -0.871,-1.944 -1.943,-1.944 -1.075,0 -1.944,0.871 -1.944,1.944 0,1.071 0.869,1.942 1.944,1.942 C -0.871,1.942 0,1.071 0,0"
         id="path4428"
         style="fill:#ffffff;fill-opacity:1;fill-rule:nonzero;stroke:none" />
    </g>
    <g
       transform="matrix(1.25,0,0,-1.25,426.09121,499.17957)"
       id="g4430">
      <path
         d="m 0,0 c 0,-1.073 -0.872,-1.944 -1.943,-1.944 -1.075,0 -1.944,0.871 -1.944,1.944 0,1.071 0.869,1.942 1.944,1.942 C -0.872,1.942 0,1.071 0,0"
         id="path4432"
         style="fill:#ffffff;fill-opacity:1;fill-rule:nonzero;stroke:none" />
    </g>
    <g
       transform="matrix(1.25,0,0,-1.25,429.96571,531.99932)"
       id="g4434">
      <path
         d="m 0,0 c -0.035,0.311 -0.063,0.624 -0.106,0.934 -4.214,-2.405 -9.307,-4.279 -14.971,-5.442 -0.144,-0.03 -0.289,-0.057 -0.435,-0.086 -0.743,-0.147 -1.493,-0.286 -2.256,-0.409 0.341,-1.649 0.97,-3.174 2.031,-4.329 1.032,-1.122 2.47,-1.899 4.464,-2.09 0.562,-0.054 1.1,-0.089 1.622,-0.11 0.175,-0.007 0.338,-0.004 0.51,-0.008 0.336,-0.008 0.674,-0.015 0.993,-0.009 0.185,0.003 0.36,0.013 0.539,0.021 0.29,0.01 0.58,0.022 0.855,0.044 0.169,0.013 0.331,0.029 0.495,0.046 0.271,0.027 0.539,0.057 0.796,0.093 0.143,0.021 0.281,0.042 0.42,0.066 0.265,0.043 0.525,0.09 0.774,0.141 0.112,0.024 0.22,0.047 0.327,0.073 0.271,0.061 0.534,0.127 0.785,0.199 0.07,0.019 0.141,0.038 0.21,0.057 0.291,0.088 0.57,0.178 0.834,0.274 0.02,0.009 0.042,0.015 0.062,0.022 0.293,0.111 0.572,0.222 0.833,0.338 0.884,2.482 1.363,5.127 1.363,7.874 C 0.145,-1.521 0.083,-0.76 0,0"
         id="path4436"
         style="fill:#aeaed3;fill-opacity:1;fill-rule:nonzero;stroke:none" />
    </g>
    <g
       transform="matrix(1.25,0,0,-1.25,414.31996,571.60019)"
       id="g4438">
      <path
         d="M 0,0 0,6.812 0,7.953 C 0.081,8.001 0.158,8.054 0.234,8.104 -0.813,7.983 -1.913,7.896 -3.074,7.85 -3.143,7.848 -3.214,7.849 -3.283,7.845 -3.8,7.826 -4.321,7.813 -4.861,7.813 -5.474,7.811 -6.103,7.819 -6.749,7.842 c -3.547,0.118 -6.559,0.873 -9.12,2.067 -7.466,3.475 -11.069,10.701 -12.585,17.051 -0.684,0.131 -1.358,0.271 -2.025,0.421 -0.153,0.033 -0.305,0.067 -0.456,0.101 -1.36,0.316 -2.685,0.671 -3.968,1.064 -0.079,0.023 -0.158,0.049 -0.235,0.073 -3.43,1.07 -6.57,2.416 -9.331,3.993 -0.148,-1.061 -0.248,-2.136 -0.248,-3.232 0,-8.921 5.022,-16.786 12.66,-21.427 l 0,-7.956 c -2.463,-1.733 -4.077,-4.594 -4.077,-7.833 l 8.624,0 1.687,0 8.855,0 c 0,3.24 -1.615,6.101 -4.078,7.834 l 0,3.968 c 1.631,-0.26 3.302,-0.418 5.017,-0.418 0.054,0 0.105,0.007 0.16,0.007 0.651,0.009 1.294,0.045 1.932,0.09 0.319,0.021 0.64,0.045 0.958,0.078 0.668,0.065 1.325,0.148 1.969,0.243 l 0,-3.969 c -2.461,-1.735 -4.074,-4.594 -4.074,-7.833 l 8.622,0 1.688,0 8.852,0 C 4.078,-4.595 2.464,-1.735 0,0"
         id="path4440"
         style="fill:#aeaed3;fill-opacity:1;fill-rule:nonzero;stroke:none" />
    </g>
    <g
       transform="matrix(1.25,0,0,-1.25,375.13846,533.95132)"
       id="g4442">
      <path
         d="m 0,0 c -0.386,-0.676 -0.707,-1.104 -1.083,-1.611 -0.369,-0.483 -0.756,-0.947 -1.165,-1.391 -0.815,-0.894 -1.727,-1.719 -2.741,-2.445 -1.018,-0.72 -2.152,-1.337 -3.385,-1.746 -1.228,-0.418 -2.551,-0.598 -3.827,-0.536 -1.147,0.054 -2.032,1.029 -1.976,2.176 0.047,0.976 0.758,1.761 1.674,1.942 l 0.146,0.027 c 1.487,0.293 2.721,1.142 3.757,2.336 0.514,0.6 0.978,1.272 1.377,1.998 0.199,0.36 0.385,0.732 0.55,1.108 0.154,0.354 0.335,0.802 0.383,1.042 0.389,1.916 2.256,3.156 4.173,2.767 C -0.202,5.278 1.037,3.41 0.649,1.494 0.572,1.121 0.439,0.771 0.262,0.455 L 0,0 z"
         id="path4444"
         style="fill:#f6e9e5;fill-opacity:1;fill-rule:nonzero;stroke:none" />
    </g>
    <g
       transform="matrix(1.25,0,0,-1.25,416.46771,530.32582)"
       id="g4446">
      <path
         d="M 0,0 C 0.048,-0.24 0.23,-0.688 0.384,-1.042 0.548,-1.418 0.733,-1.79 0.934,-2.15 1.333,-2.876 1.797,-3.549 2.311,-4.148 3.346,-5.343 4.58,-6.191 6.067,-6.484 l 0.145,-0.028 c 1.127,-0.221 1.86,-1.315 1.639,-2.442 -0.189,-0.958 -1.008,-1.632 -1.94,-1.675 -1.276,-0.062 -2.599,0.117 -3.827,0.535 -1.233,0.409 -2.366,1.027 -3.385,1.746 -1.015,0.727 -1.926,1.552 -2.741,2.446 -0.409,0.444 -0.796,0.908 -1.165,1.39 -0.376,0.508 -0.697,0.936 -1.083,1.612 l -0.252,0.441 C -7.513,-0.763 -6.922,1.4 -5.225,2.37 -3.528,3.34 -1.367,2.751 -0.397,1.052 -0.206,0.722 -0.074,0.355 0,0"
         id="path4448"
         style="fill:#f6e9e5;fill-opacity:1;fill-rule:nonzero;stroke:none" />
    </g>
  </g>
</svg>
