<svg xmlns="http://www.w3.org/2000/svg" width="160" height="190" viewBox="0 0 160 190">
  <g fill="none" fill-rule="evenodd" transform="translate(0 19)">
    <path fill="#F6F3CF" d="M3.1496063,1.57480315 C2.42834646,2.0976378 1.48976378,2.60472441 0.382677165,3.06771654 C0.677165354,2.88503937 0.948031496,2.72283465 1.20629921,2.57637795 C1.91968504,2.26299213 2.57165354,1.92755906 3.1496063,1.57480315" transform="matrix(1 0 0 -1 151.323 108.041)"/>
    <path fill="#F6F3CF" d="M3.1496063,1.57480315 C2.57165354,1.92755906 1.91968504,2.26299213 1.20629921,2.57637795 C2.38110236,1.9007874 3.1496063,1.57480315 3.1496063,1.57480315" transform="matrix(1 0 0 -1 151.323 108.041)"/>
    <path fill="#F6F3CF" d="M3.1496063,1.57480315 C2.03937008,1.11181102 1.10393701,0.603149606 0.377952756,0.0818897638 C0.957480315,0.434645669 1.60787402,0.77007874 2.32283465,1.08188976 C2.58267717,1.22992126 2.85511811,1.39055118 3.1496063,1.57480315" transform="matrix(1 0 0 -1 35.443 106.548)"/>
    <path fill="#F6F3CF" d="M0,1.57480315 C0,1.57480315 0.77007874,1.9007874 1.94330709,2.57637795 C1.22992126,2.26299213 0.579527559,1.92755906 0,1.57480315" transform="matrix(1 0 0 -1 35.821 108.041)"/>
    <path fill="#AF5B2B" d="M36.2204724,29.9212598 C21.2850394,29.9212598 8.22834646,37.0692913 0.905511811,47.7622047 C1.41417323,38.2677165 5.62519685,29.7685039 12.1527559,23.6897638 L12.1527559,12.4913386 C8.74330709,9.83307087 6.54173228,5.6976378 6.54173228,1.03937008 L35.5905512,1.03937008 C35.5905512,5.6976378 33.392126,9.83307087 29.9779528,12.4913386 L29.9779528,14.7417323 C32.0425197,14.3685039 34.1559055,14.1417323 36.3291339,14.1417323 L36.3291339,29.9259843 C36.2897638,29.9259843 36.2535433,29.9212598 36.2204724,29.9212598" transform="matrix(1 0 0 -1 58.795 169.98)"/>
    <path fill="#EA8232" d="M25.1968504,12.5984252 L25.1968504,23.7968504 C31.8062992,29.9527559 36.0440945,38.5874016 36.4614173,48.2283465 C29.2062992,37.3637795 16.0740157,30.0708661 1.01889764,30.0346457 L1.01889764,14.2503937 C3.19055118,14.2503937 5.30551181,14.4755906 7.37165354,14.8488189 L7.37165354,12.5984252 C3.96062992,9.94015748 1.75748031,5.80472441 1.75748031,1.14645669 L30.807874,1.14645669 C30.807874,5.80472441 28.6062992,9.94015748 25.1968504,12.5984252" transform="matrix(1 0 0 -1 94.104 170.087)"/>
    <path fill="#AF5B2B" d="M23.6220472,7.87401575 C23.6188976,7.86929134 23.6141732,7.86299213 23.6110236,7.85511811 C25.984252,6.66929134 28.4551181,5.33228346 31.0204724,3.82834646 C32.6598425,2.86614173 34.3259843,1.85984252 36.0456693,0.754330709 L36.0456693,16.2425197 L36.0456693,53.3905512 C16.4251969,53.3905512 0.522834646,37.4850394 0.522834646,17.8661417 C0.522834646,17.223622 0.587401575,16.5952756 0.622047244,15.9622047 C4.36692913,10.4929134 9.61889764,5.95905512 15.8503937,2.82834646 C15.4519685,5.18425197 15.0944882,7.66771654 14.7102362,10.2692913 C17.5023622,9.41889764 20.4692913,8.61417323 23.6220472,7.87401575" transform="matrix(1 0 0 -1 59.079 138.179)"/>
    <path fill="#AF5B2B" d="M0,53.5433071 L0,16.3952756 L0.0031496063,16.3952756 L0.0031496063,0.907086614 C1.72125984,2.01259843 3.38425197,3.01889764 5.02992126,3.98110236 C7.59055118,5.48503937 10.0598425,6.82362205 12.4362205,8.00787402 C15.6551181,8.76220472 18.6771654,9.58267717 21.5181102,10.4503937 C21.1464567,7.92913386 20.8094488,5.50551181 20.4362205,3.21417323 C26.5984252,6.40314961 31.7732283,10.9779528 35.4425197,16.4724409 C35.4661417,16.9889764 35.5244094,17.4976378 35.5244094,18.0188976 C35.5244094,37.6377953 19.6204724,53.5433071 0,53.5433071" transform="matrix(1 0 0 -1 95.124 138.332)"/>
    <path fill="#D5D2B1" d="M22.0472441,1.57480315 L22.0472441,4.20314961 C20.3291339,5.30866142 18.6629921,6.31496063 17.0220472,7.27716535 C14.4566929,8.78110236 11.9874016,10.1181102 9.61259843,11.303937 C9.61574803,11.311811 9.62047244,11.3181102 9.62362205,11.3228346 C6.47086614,12.0629921 3.50393701,12.8677165 0.713385827,13.7181102 C1.09606299,11.1165354 1.45354331,8.63307087 1.8519685,6.27716535 C7.8015748,3.28503937 14.6409449,1.57007874 21.9385827,1.57007874 C21.9716535,1.57007874 22.0094488,1.57480315 22.0472441,1.57480315" transform="matrix(1 0 0 -1 73.077 141.627)"/>
    <path fill="#D5D2B1" d="M12.5984252,11.023622 C10.2220472,9.83779528 7.7511811,8.5007874 5.19055118,6.99685039 C3.54645669,6.03464567 1.88188976,5.02834646 0.163779528,3.92283465 L0.163779528,19.4110236 L0.162204724,19.4110236 L0.162204724,3.92283465 L0.162204724,1.29448819 C7.60314961,1.31181102 14.5732283,3.11023622 20.5984252,6.22834646 C20.9716535,8.51968504 21.3070866,10.9433071 21.6787402,13.4645669 C18.8377953,12.5984252 15.815748,11.7779528 12.5984252,11.023622" transform="matrix(1 0 0 -1 94.963 141.347)"/>
    <path fill="#D5D2B1" d="M20.4724409,17.3228346 C13.1748031,17.3228346 6.33385827,19.0393701 0.385826772,22.0314961 C2.42362205,9.94015748 5.64251969,1.54330709 20.5811024,1.54330709 L20.5811024,17.3275591 C20.5417323,17.3275591 20.5055118,17.3228346 20.4724409,17.3228346" transform="matrix(1 0 0 -1 74.543 157.38)"/>
    <path fill="#F6F3CF" d="M20.4724409,22.0472441 C14.4488189,18.9291339 7.47874016,17.1307087 0.0362204724,17.1133858 L0.0362204724,1.32913386 C15.4110236,1.32913386 18.480315,9.82834646 20.4724409,22.0472441" transform="matrix(1 0 0 -1 95.088 157.166)"/>
    <path fill="#3C3C3B" d="M0,20.4724409 C9.15748031,57.6 39.3511811,70.5952756 39.3511811,70.5952756 C39.3511811,70.5952756 60.9354331,14.2488189 19.6771654,0.815748031 L0,20.4724409 Z" transform="matrix(1 0 0 -1 112.887 73.115)"/>
    <path fill="#AF5B2B" d="M0,14.1732283 C11.7937008,49.4409449 30.6818898,55.5905512 30.6818898,55.5905512 C30.6818898,55.5905512 47.0062992,21.9133858 11.1448819,1.37322835 L0,14.1732283 Z" transform="matrix(1 0 0 -1 117.294 70.233)"/>
    <path fill="#3C3C3B" d="M45.6692913,20.4724409 C36.511811,57.6 6.31811024,70.5952756 6.31811024,70.5952756 C6.31811024,70.5952756 -15.2661417,14.2488189 25.992126,0.815748031 L45.6692913,20.4724409 Z" transform="matrix(1 0 0 -1 31.694 73.115)"/>
    <path fill="#AF5B2B" d="M34.6456693,14.1732283 C22.8519685,49.4409449 3.96220472,55.5905512 3.96220472,55.5905512 C3.96220472,55.5905512 -12.3590551,21.9133858 23.5007874,1.37322835 L34.6456693,14.1732283 Z" transform="matrix(1 0 0 -1 38.311 70.233)"/>
    <path fill="#AF5B2B" d="M56.6929134,20.4724409 C44.6598425,10.5559055 28.8456693,17.1968504 19.4897638,27.5448819 C18.7590551,28.3527559 17.9291339,29.080315 17.0551181,29.7716535 C13.0929134,29.9574803 8.78897638,29.511811 5.25669291,27.5448819 C5.25669291,27.5448819 11.5858268,22.7669291 13.9905512,17.5244094 C13.9905512,17.5244094 6.89606299,16.0787402 1.32598425,19.5874016 C1.32598425,19.5874016 2.02519685,11.2062992 7.96220472,3.96062992 C9.82047244,3.39212598 11.8188976,2.88346457 13.9905512,2.45511811 C50.5716535,-4.75275591 61.0992126,16.0362205 61.0992126,16.0362205 L56.6929134,20.4724409 Z" transform="matrix(1 0 0 -1 16.243 161.895)"/>
    <path fill="#D5D2B1" d="M28.3464567,14.1732283 C25.9417323,19.415748 19.6125984,24.1937008 19.6125984,24.1937008 C23.1433071,26.1606299 27.4488189,26.607874 31.4094488,26.4204724 C21.0850394,34.5748031 1.92283465,34.8834646 1.92283465,34.8834646 C1.92283465,34.8834646 -7.0503937,9.61259843 22.3181102,0.609448819 C16.3811024,7.85511811 15.6818898,16.2362205 15.6818898,16.2362205 C21.2519685,12.7275591 28.3464567,14.1732283 28.3464567,14.1732283" transform="matrix(1 0 0 -1 1.888 158.544)"/>
    <path fill="#EA8232" d="M33.0708661,18.8976378 C20.3480315,15.5968504 9.1511811,4.94330709 6.94488189,0.296062992 C5.01889764,1.36535433 2.83307087,2.02677165 0.472440945,2.02677165 L0.472440945,26.2629921 L0.472440945,80.9228346 C25.5606299,80.9228346 45.8992126,60.5858268 45.8992126,35.4976378 C45.8992126,34.9070866 45.8346457,34.3338583 45.8110236,33.7511811 C48.6582677,22.1559055 59.8425197,17.4897638 59.8425197,17.4897638 C55.0708661,20.4062992 45.5496063,22.1354331 33.0708661,18.8976378" transform="matrix(1 0 0 -1 94.607 123.957)"/>
    <path fill="#F6F3CF" d="M6.2992126,0 C5.14173228,2.85669291 3.00944882,5.17952756 0.335433071,6.66141732 C2.54173228,10.2409449 9.90551181,19.7417323 26.4614173,25.2629921 C38.6913386,29.3401575 49.1905512,26.7716535 53.2330709,23.8566929 C53.2330709,23.8566929 40.8834646,8.10551181 6.2992126,0" transform="matrix(1 0 0 -1 101.216 130.323)"/>
    <path fill="#3C3C3B" d="M0,7.87401575 C2.37637795,6.68818898 4.84566929,5.3511811 7.41102362,3.84724409 C9.0519685,2.88503937 10.7165354,1.87874016 12.4346457,0.773228346 L12.4346457,16.2661417 C10.0740157,16.2661417 7.89133858,15.6062992 5.96220472,14.5354331 C3.29133858,13.0535433 1.15905512,10.7307087 0,7.87401575" transform="matrix(1 0 0 -1 82.644 138.197)"/>
    <path fill="#3C3C3B" d="M7.87401575,14.1732283 C5.9480315,15.2425197 3.76220472,15.903937 1.4015748,15.903937 L1.4015748,0.409448819 C3.11968504,1.51496063 4.78582677,2.52125984 6.42834646,3.48346457 C8.99212598,4.98740157 11.4598425,6.32598425 13.8377953,7.51181102 C12.6787402,10.3669291 10.5480315,12.6897638 7.87401575,14.1732283" transform="matrix(1 0 0 -1 93.679 137.834)"/>
    <path fill="#AF5B2B" d="M28.3464567,18.8976378 C41.0692913,15.5968504 52.2661417,4.94330709 54.4708661,0.296062992 C56.3984252,1.36535433 58.584252,2.02677165 60.9417323,2.02677165 L60.9417323,26.2629921 L60.9417323,80.9228346 C35.8551181,80.9228346 15.5165354,60.5858268 15.5165354,35.4976378 C15.5165354,34.9070866 15.5826772,34.3338583 15.6062992,33.7511811 C12.7590551,22.1559055 1.57322835,17.4897638 1.57322835,17.4897638 C6.34488189,20.4062992 15.8661417,22.1354331 28.3464567,18.8976378" transform="matrix(1 0 0 -1 34.226 123.957)"/>
    <path fill="#D5D2B1" d="M47.2440945,0 C48.4015748,2.85669291 50.5322835,5.17952756 53.207874,6.66141732 C51.0031496,10.2409449 43.6377953,19.7417323 27.0818898,25.2629921 C14.8519685,29.3401575 4.35275591,26.7716535 0.308661417,23.8566929 C0.308661417,23.8566929 12.6598425,8.10551181 47.2440945,2.79741235e-15" transform="matrix(1 0 0 -1 35.49 130.323)"/>
    <path fill="#E96332" d="M1.57480315,1.57480315 L1.57480315,1.57322835 C1.59055118,1.57322835 1.60472441,1.57480315 1.61889764,1.57480315 L1.57480315,1.57480315 Z" transform="matrix(1 0 0 -1 93.528 44.609)"/>
    <path fill="#07171B" d="M1.57480315,1.57480315 C1.57322835,1.57322835 1.57165354,1.57322835 1.57165354,1.57322835 C1.57795276,1.56220472 1.58740157,1.5496063 1.59212598,1.53858268 C1.58897638,1.5511811 1.57795276,1.56220472 1.57480315,1.57480315" transform="matrix(1 0 0 -1 87.128 125.2)"/>
    <path fill="#A84720" d="M1.57480315,1.57480315 L1.53070866,1.57480315 C1.54488189,1.57480315 1.56062992,1.57322835 1.57480315,1.57322835 L1.57480315,1.57480315 Z" transform="matrix(1 0 0 -1 93.617 44.609)"/>
    <path fill="#A84720" d="M1.57480315,1.57480315 L1.57480315,41.2503937 C1.56062992,41.2503937 1.54488189,41.2519685 1.53070866,41.2519685 C1.51653543,41.2519685 1.5023622,41.2503937 1.48661417,41.2503937 L1.48661417,1.56692913 C1.51653543,1.56692913 1.54488189,1.57480315 1.57480315,1.57480315" transform="matrix(1 0 0 -1 93.617 84.286)"/>
    <path fill="#A84720" d="M1.57480315,1.57480315 C1.59055118,1.57480315 1.60472441,1.57322835 1.61889764,1.57322835 C1.63307087,1.57322835 1.6488189,1.57480315 1.66299213,1.57480315 L1.66299213,25.8125984 L1.66299213,40.7937008 C1.63307087,40.7937008 1.60472441,40.7858268 1.57480315,40.7858268 L1.57480315,25.8125984 L1.57480315,1.57480315 Z" transform="matrix(1 0 0 -1 93.528 123.506)"/>
    <path fill="#A84720" d="M0,1.57480315 C0.0031496063,1.56220472 0.0141732283,1.5511811 0.0173228346,1.53858268 C1.91968504,2.59370079 4.07401575,3.24566929 6.4,3.26299213 L6.4,3.26929134 C4.06771654,3.26929134 1.90866142,2.62047244 0,1.57480315" transform="matrix(1 0 0 -1 88.703 125.2)"/>
    <path fill="#A84720" d="M1.57480315,1.57480315 L1.57480315,1.57007874 C1.59055118,1.57007874 1.60472441,1.57165354 1.61889764,1.57322835 C1.60472441,1.57322835 1.59055118,1.57480315 1.57480315,1.57480315" transform="matrix(1 0 0 -1 93.528 123.506)"/>
    <path fill="#3C3C3B" d="M29.9212598,0 C29.9212598,8.03307087 23.407874,14.5448819 15.376378,14.5448819 C7.34488189,14.5448819 0.831496063,8.03307087 0.831496063,0 L29.9212598,0 Z" transform="matrix(1 0 0 -1 64.515 168.94)"/>
    <path fill="#3C3C3B" d="M29.9212598,0 C29.9212598,8.03307087 23.4110236,14.5448819 15.3779528,14.5448819 C7.34645669,14.5448819 0.831496063,8.03307087 0.831496063,0 L29.9212598,0 Z" transform="matrix(1 0 0 -1 95.05 168.94)"/>
    <path fill="#F39E2B" d="M0,15.7480315 C0,15.7480315 19.4551181,21.3889764 19.0173228,1.60472441 C19.0173228,1.60472441 0,-5.3023622 0,15.7480315" transform="matrix(1 0 0 -1 59.793 98.754)"/>
    <path fill="#F39E2B" d="M1.57480315,1.57480315 C1.57480315,1.57480315 20.592126,-5.33070866 20.592126,15.7181102 C20.592126,15.7181102 1.13700787,21.3590551 1.57480315,1.57480315" transform="matrix(1 0 0 -1 109.115 98.725)"/>
    <path fill="#FFF" d="M7.87401575,4.72440945 C7.87401575,2.77007874 6.28976378,1.18425197 4.33543307,1.18425197 C2.38110236,1.18425197 0.796850394,2.77007874 0.796850394,4.72440945 C0.796850394,6.67874016 2.38110236,8.26299213 4.33543307,8.26299213 C6.28976378,8.26299213 7.87401575,6.67874016 7.87401575,4.72440945" transform="matrix(1 0 0 -1 67.39 92.9)"/>
    <path fill="#FFF" d="M7.87401575,4.72440945 C7.87401575,2.77007874 6.28976378,1.18425197 4.33543307,1.18425197 C2.38110236,1.18425197 0.798425197,2.77007874 0.798425197,4.72440945 C0.798425197,6.67874016 2.38110236,8.26299213 4.33543307,8.26299213 C6.28976378,8.26299213 7.87401575,6.67874016 7.87401575,4.72440945" transform="matrix(1 0 0 -1 118.433 92.9)"/>
  </g>
</svg>
