<?xml version="1.0" encoding="UTF-8" standalone="no"?>
<!-- Created with Inkscape (http://www.inkscape.org/) -->

<svg
   xmlns:dc="http://purl.org/dc/elements/1.1/"
   xmlns:cc="http://creativecommons.org/ns#"
   xmlns:rdf="http://www.w3.org/1999/02/22-rdf-syntax-ns#"
   xmlns:svg="http://www.w3.org/2000/svg"
   xmlns="http://www.w3.org/2000/svg"
   version="1.1"
   width="123.31795"
   height="132.09637"
   id="svg12040">
  <defs
     id="defs12042">
    <clipPath
       id="clipPath3020">
      <path
         d="m 28.377,603.597 c 0.263,0 0.527,0.167 0.725,0.502 l 0,0 2.532,4.25 c 0.399,0.67 0.193,1.569 -0.458,2 l 0,0 -1.615,1.066 c -0.326,0.215 -0.755,0.322 -1.184,0.322 l 0,0 0,-8.14 z"
         id="path3022" />
    </clipPath>
    <linearGradient
       x1="0"
       y1="0"
       x2="1"
       y2="0"
       id="linearGradient3028"
       gradientUnits="userSpaceOnUse"
       gradientTransform="matrix(4.8072662,5.1551514,5.1551514,-4.8072662,26.303223,605.28027)"
       spreadMethod="pad">
      <stop
         id="stop3030"
         style="stop-color:#f9f4f0;stop-opacity:1"
         offset="0" />
      <stop
         id="stop3032"
         style="stop-color:#c6d1d6;stop-opacity:1"
         offset="1" />
    </linearGradient>
  </defs>
  <metadata
     id="metadata12045">
    <rdf:RDF>
      <cc:Work
         rdf:about="">
        <dc:format>image/svg+xml</dc:format>
        <dc:type
           rdf:resource="http://purl.org/dc/dcmitype/StillImage" />
        <dc:title></dc:title>
      </cc:Work>
    </rdf:RDF>
  </metadata>
  <g
     transform="translate(-321.48762,-453.02806)"
     id="layer1">
    <g
       transform="matrix(1.25,0,0,-1.25,442.09993,535.53581)"
       id="g5286">
      <path
         d="M 0,0 C -0.458,0.332 -1.054,0.654 -1.757,0.948 -1.57,0.832 -1.398,0.729 -1.234,0.636 -0.781,0.437 -0.367,0.224 0,0"
         id="path5288"
         style="fill:#f6f3cf;fill-opacity:1;fill-rule:nonzero;stroke:none" />
    </g>
    <g
       transform="matrix(1.25,0,0,-1.25,442.09993,535.53581)"
       id="g5290">
      <path
         d="M 0,0 C -0.367,0.224 -0.781,0.437 -1.234,0.636 -0.488,0.207 0,0 0,0"
         id="path5292"
         style="fill:#f6f3cf;fill-opacity:1;fill-rule:nonzero;stroke:none" />
    </g>
    <g
       transform="matrix(1.25,0,0,-1.25,350.12055,534.35056)"
       id="g5294">
      <path
         d="m 0,0 c -0.705,-0.294 -1.299,-0.617 -1.76,-0.948 0.368,0.224 0.781,0.437 1.235,0.635 C -0.36,-0.219 -0.187,-0.117 0,0"
         id="path5296"
         style="fill:#f6f3cf;fill-opacity:1;fill-rule:nonzero;stroke:none" />
    </g>
    <g
       transform="matrix(1.25,0,0,-1.25,347.9208,535.53581)"
       id="g5298">
      <path
         d="M 0,0 C 0,0 0.489,0.207 1.234,0.636 0.781,0.437 0.368,0.224 0,0"
         id="path5300"
         style="fill:#f6f3cf;fill-opacity:1;fill-rule:nonzero;stroke:none" />
    </g>
    <g
       transform="matrix(1.25,0,0,-1.25,394.90631,562.19906)"
       id="g5302">
      <path
         d="m 0,0 c -9.484,0 -17.775,4.539 -22.425,11.329 0.323,-6.029 2.997,-11.426 7.142,-15.286 l 0,-7.111 c -2.165,-1.688 -3.563,-4.314 -3.563,-7.272 l 18.446,0 c 0,2.958 -1.396,5.584 -3.564,7.272 l 0,1.429 c 1.311,-0.237 2.653,-0.381 4.033,-0.381 l 0,10.023 C 0.044,0.003 0.021,0 0,0"
         id="path5304"
         style="fill:#af5b2b;fill-opacity:1;fill-rule:nonzero;stroke:none" />
    </g>
    <g
       transform="matrix(1.25,0,0,-1.25,414.18306,576.03443)"
       id="g5306">
      <path
         d="M 0,0 0,7.111 C 4.197,11.02 6.888,16.503 7.153,22.625 2.546,15.726 -5.793,11.095 -15.353,11.072 l 0,-10.023 c 1.379,0 2.722,0.143 4.034,0.38 l 0,-1.429 c -2.166,-1.688 -3.565,-4.314 -3.565,-7.272 l 18.447,0 C 3.563,-4.314 2.165,-1.688 0,0"
         id="path5308"
         style="fill:#ea8232;fill-opacity:1;fill-rule:nonzero;stroke:none" />
    </g>
    <g
       transform="matrix(1.25,0,0,-1.25,385.13155,554.45731)"
       id="g5310">
      <path
         d="M 0,0 C -0.002,-0.003 -0.005,-0.007 -0.007,-0.012 1.5,-0.765 3.069,-1.614 4.698,-2.569 5.739,-3.18 6.797,-3.819 7.889,-4.521 l 0,9.835 0,23.589 c -12.459,0 -22.557,-10.1 -22.557,-22.558 0,-0.408 0.041,-0.807 0.063,-1.209 2.378,-3.473 5.713,-6.352 9.67,-8.34 -0.253,1.496 -0.48,3.073 -0.724,4.725 C -3.886,0.981 -2.002,0.47 0,0"
         id="path5312"
         style="fill:#af5b2b;fill-opacity:1;fill-rule:nonzero;stroke:none" />
    </g>
    <g
       transform="matrix(1.25,0,0,-1.25,394.99231,518.32881)"
       id="g5314">
      <path
         d="m 0,0 0,-23.589 0.002,0 0,-9.835 c 1.091,0.702 2.147,1.341 3.192,1.952 1.626,0.955 3.194,1.805 4.703,2.557 2.044,0.479 3.963,1 5.767,1.551 -0.236,-1.601 -0.45,-3.14 -0.687,-4.595 3.913,2.025 7.199,4.93 9.529,8.419 0.015,0.328 0.052,0.651 0.052,0.982 C 22.558,-10.1 12.459,0 0,0"
         id="path5316"
         style="fill:#af5b2b;fill-opacity:1;fill-rule:nonzero;stroke:none" />
    </g>
    <g
       transform="matrix(1.25,0,0,-1.25,394.99231,562.19481)"
       id="g5318">
      <path
         d="m 0,0 0,1.669 c -1.091,0.702 -2.149,1.341 -3.191,1.952 -1.629,0.955 -3.197,1.804 -4.705,2.557 0.002,0.005 0.005,0.009 0.007,0.012 -2.002,0.47 -3.886,0.981 -5.658,1.521 0.243,-1.652 0.47,-3.229 0.723,-4.725 3.778,-1.9 8.121,-2.989 12.755,-2.989 C -0.048,-0.003 -0.024,0 0,0"
         id="path5320"
         style="fill:#d5d2b1;fill-opacity:1;fill-rule:nonzero;stroke:none" />
    </g>
    <g
       transform="matrix(1.25,0,0,-1.25,404.86418,554.47193)"
       id="g5322">
      <path
         d="m 0,0 c -1.509,-0.753 -3.078,-1.602 -4.704,-2.557 -1.044,-0.611 -2.101,-1.25 -3.192,-1.952 l 0,9.835 -0.001,0 0,-9.835 0,-1.669 C -3.172,-6.167 1.254,-5.025 5.08,-3.045 5.317,-1.59 5.53,-0.051 5.766,1.55 3.962,1 2.043,0.479 0,0"
         id="path5324"
         style="fill:#d5d2b1;fill-opacity:1;fill-rule:nonzero;stroke:none" />
    </g>
    <g
       transform="matrix(1.25,0,0,-1.25,394.90631,562.19906)"
       id="g5326">
      <path
         d="m 0,0 c -4.634,0 -8.978,1.09 -12.755,2.99 1.294,-7.678 3.338,-13.01 12.824,-13.01 l 0,10.023 C 0.044,0.003 0.021,0 0,0"
         id="path5328"
         style="fill:#d5d2b1;fill-opacity:1;fill-rule:nonzero;stroke:none" />
    </g>
    <g
       transform="matrix(1.25,0,0,-1.25,411.21368,558.27818)"
       id="g5330">
      <path
         d="m 0,0 c -3.825,-1.98 -8.251,-3.122 -12.977,-3.133 l 0,-10.023 C -3.214,-13.156 -1.265,-7.759 0,0"
         id="path5332"
         style="fill:#f6f3cf;fill-opacity:1;fill-rule:nonzero;stroke:none" />
    </g>
    <g
       transform="matrix(1.25,0,0,-1.25,409.09143,492.81306)"
       id="g5334">
      <path
         d="m 0,0 c 5.815,23.576 24.988,31.828 24.988,31.828 0,0 13.706,-35.78 -12.493,-44.31 L 0,0 z"
         id="path5336"
         style="fill:#3c3c3b;fill-opacity:1;fill-rule:nonzero;stroke:none" />
    </g>
    <g
       transform="matrix(1.25,0,0,-1.25,412.58943,495.52543)"
       id="g5338">
      <path
         d="m 0,0 c 7.489,22.395 19.483,26.3 19.483,26.3 0,0 10.366,-21.385 -12.406,-34.428 L 0,0 z"
         id="path5340"
         style="fill:#af5b2b;fill-opacity:1;fill-rule:nonzero;stroke:none" />
    </g>
    <g
       transform="matrix(1.25,0,0,-1.25,380.89443,492.81306)"
       id="g5342">
      <path
         d="m 0,0 c -5.815,23.576 -24.988,31.828 -24.988,31.828 0,0 -13.706,-35.78 12.493,-44.31 L 0,0 z"
         id="path5344"
         style="fill:#3c3c3b;fill-opacity:1;fill-rule:nonzero;stroke:none" />
    </g>
    <g
       transform="matrix(1.25,0,0,-1.25,377.39718,495.52543)"
       id="g5346">
      <path
         d="m 0,0 c -7.489,22.395 -19.484,26.3 -19.484,26.3 0,0 -10.364,-21.385 12.407,-34.428 L 0,0 z"
         id="path5348"
         style="fill:#af5b2b;fill-opacity:1;fill-rule:nonzero;stroke:none" />
    </g>
    <g
       transform="matrix(1.25,0,0,-1.25,377.38068,563.28244)"
       id="g5350">
      <path
         d="m 0,0 c -7.641,-6.297 -17.683,-2.08 -23.624,4.491 -0.464,0.513 -0.991,0.975 -1.546,1.414 -2.516,0.118 -5.249,-0.165 -7.492,-1.414 0,0 4.019,-3.034 5.546,-6.363 0,0 -4.505,-0.918 -8.042,1.31 0,0 0.444,-5.322 4.214,-9.923 1.18,-0.361 2.449,-0.684 3.828,-0.956 23.229,-4.577 29.914,8.624 29.914,8.624 L 0,0 z"
         id="path5352"
         style="fill:#af5b2b;fill-opacity:1;fill-rule:nonzero;stroke:none" />
    </g>
    <g
       transform="matrix(1.25,0,0,-1.25,343.48606,565.62243)"
       id="g5354">
      <path
         d="m 0,0 c -1.527,3.329 -5.546,6.363 -5.546,6.363 2.242,1.249 4.976,1.533 7.491,1.414 -6.556,5.178 -18.724,5.374 -18.724,5.374 0,0 -5.698,-16.047 12.951,-21.764 C -7.598,-4.012 -8.042,1.31 -8.042,1.31 -4.505,-0.918 0,0 0,0"
         id="path5356"
         style="fill:#d5d2b1;fill-opacity:1;fill-rule:nonzero;stroke:none" />
    </g>
    <g
       transform="matrix(1.25,0,0,-1.25,420.83218,534.41893)"
       id="g5358">
      <path
         d="m 0,0 c -8.079,-2.096 -15.189,-8.861 -16.59,-11.812 -1.223,0.679 -2.611,1.099 -4.11,1.099 l 0,15.39 0,34.709 C -4.769,39.386 8.146,26.472 8.146,10.541 8.146,10.166 8.105,9.802 8.09,9.432 9.898,2.069 17,-0.894 17,-0.894 13.97,0.958 7.924,2.056 0,0"
         id="path5360"
         style="fill:#ea8232;fill-opacity:1;fill-rule:nonzero;stroke:none" />
    </g>
    <g
       transform="matrix(1.25,0,0,-1.25,404.82818,554.47193)"
       id="g5362">
      <path
         d="m 0,0 c -0.735,1.814 -2.089,3.289 -3.787,4.23 1.401,2.273 6.077,8.306 16.59,11.812 7.766,2.589 14.433,0.958 17,-0.893 C 29.803,15.149 21.961,5.147 0,0"
         id="path5364"
         style="fill:#f6f3cf;fill-opacity:1;fill-rule:nonzero;stroke:none" />
    </g>
    <g
       transform="matrix(1.25,0,0,-1.25,385.0863,554.47193)"
       id="g5366">
      <path
         d="m 0,0 c 1.509,-0.753 3.077,-1.602 4.706,-2.557 1.042,-0.611 2.099,-1.25 3.19,-1.952 l 0,9.838 C 6.397,5.329 5.011,4.91 3.786,4.23 2.09,3.289 0.736,1.814 0,0"
         id="path5368"
         style="fill:#3c3c3b;fill-opacity:1;fill-rule:nonzero;stroke:none" />
    </g>
    <g
       transform="matrix(1.25,0,0,-1.25,400.09493,549.18393)"
       id="g5370">
      <path
         d="m 0,0 c -1.223,0.679 -2.611,1.099 -4.11,1.099 l 0,-9.839 c 1.091,0.702 2.149,1.341 3.192,1.952 1.628,0.955 3.195,1.805 4.705,2.558 C 3.051,-2.417 1.698,-0.942 0,0"
         id="path5372"
         style="fill:#3c3c3b;fill-opacity:1;fill-rule:nonzero;stroke:none" />
    </g>
    <g
       transform="matrix(1.25,0,0,-1.25,369.1543,534.41893)"
       id="g5374">
      <path
         d="m 0,0 c 8.079,-2.096 15.189,-8.861 16.589,-11.812 1.224,0.679 2.612,1.099 4.109,1.099 l 0,15.39 0,34.709 c -15.93,0 -28.845,-12.914 -28.845,-28.845 0,-0.375 0.042,-0.739 0.057,-1.109 C -9.898,2.069 -17.001,-0.894 -17.001,-0.894 -13.971,0.958 -7.925,2.056 0,0"
         id="path5376"
         style="fill:#af5b2b;fill-opacity:1;fill-rule:nonzero;stroke:none" />
    </g>
    <g
       transform="matrix(1.25,0,0,-1.25,385.1578,554.47193)"
       id="g5378">
      <path
         d="m 0,0 c 0.735,1.814 2.088,3.289 3.787,4.23 -1.4,2.273 -6.077,8.306 -16.59,11.812 -7.766,2.589 -14.433,0.958 -17.001,-0.893 0,0 7.843,-10.002 29.804,-15.149"
         id="path5380"
         style="fill:#d5d2b1;fill-opacity:1;fill-rule:nonzero;stroke:none" />
    </g>
    <g
       transform="matrix(1.25,0,0,-1.25,394.97581,485.18606)"
       id="g5382">
      <path
         d="M 0,0 0,-0.001 C 0.01,-0.001 0.019,0 0.028,0 L 0,0 z"
         id="path5384"
         style="fill:#e96332;fill-opacity:1;fill-rule:nonzero;stroke:none" />
    </g>
    <g
       transform="matrix(1.25,0,0,-1.25,389.89531,549.15518)"
       id="g5386">
      <path
         d="M 0,0 C -0.001,-0.001 -0.002,-0.001 -0.002,-0.001 0.002,-0.008 0.008,-0.016 0.011,-0.023 0.009,-0.015 0.002,-0.008 0,0"
         id="path5388"
         style="fill:#07171b;fill-opacity:1;fill-rule:nonzero;stroke:none" />
    </g>
    <g
       transform="matrix(1.25,0,0,-1.25,395.04606,485.18606)"
       id="g5390">
      <path
         d="M 0,0 -0.028,0 C -0.019,0 -0.009,-0.001 0,-0.001 L 0,0 z"
         id="path5392"
         style="fill:#a84720;fill-opacity:1;fill-rule:nonzero;stroke:none" />
    </g>
    <g
       transform="matrix(1.25,0,0,-1.25,395.04606,516.68018)"
       id="g5394">
      <path
         d="m 0,0 0,25.194 c -0.009,0 -0.019,0.001 -0.028,0.001 -0.009,0 -0.018,-0.001 -0.028,-0.001 l 0,-25.199 C -0.037,-0.005 -0.019,0 0,0"
         id="path5396"
         style="fill:#a84720;fill-opacity:1;fill-rule:nonzero;stroke:none" />
    </g>
    <g
       transform="matrix(1.25,0,0,-1.25,394.97581,547.81056)"
       id="g5398">
      <path
         d="M 0,0 C 0.01,0 0.019,-0.001 0.028,-0.001 0.037,-0.001 0.047,0 0.056,0 l 0,15.391 0,9.513 C 0.037,24.904 0.019,24.899 0,24.899 L 0,15.391 0,0 z"
         id="path5400"
         style="fill:#a84720;fill-opacity:1;fill-rule:nonzero;stroke:none" />
    </g>
    <g
       transform="matrix(1.25,0,0,-1.25,389.89531,549.15518)"
       id="g5402">
      <path
         d="m 0,0 c 0.002,-0.008 0.009,-0.015 0.011,-0.023 1.208,0.67 2.576,1.084 4.053,1.095 l 0,0.004 C 2.583,1.076 1.212,0.664 0,0"
         id="path5404"
         style="fill:#a84720;fill-opacity:1;fill-rule:nonzero;stroke:none" />
    </g>
    <g
       transform="matrix(1.25,0,0,-1.25,394.97581,547.81056)"
       id="g5406">
      <path
         d="m 0,0 0,-0.003 c 0.01,0 0.019,0.001 0.028,0.002 C 0.019,-0.001 0.01,0 0,0"
         id="path5408"
         style="fill:#a84720;fill-opacity:1;fill-rule:nonzero;stroke:none" />
    </g>
    <g
       transform="matrix(1.25,0,0,-1.25,394.44668,585.12443)"
       id="g5410">
      <path
         d="m 0,0 c 0,5.101 -4.136,9.236 -9.236,9.236 -5.1,0 -9.236,-4.135 -9.236,-9.236 L 0,0 z"
         id="path5412"
         style="fill:#3c3c3b;fill-opacity:1;fill-rule:nonzero;stroke:none" />
    </g>
    <g
       transform="matrix(1.25,0,0,-1.25,418.68381,585.12443)"
       id="g5414">
      <path
         d="m 0,0 c 0,5.101 -4.134,9.236 -9.235,9.236 -5.1,0 -9.237,-4.135 -9.237,-9.236 L 0,0 z"
         id="path5416"
         style="fill:#3c3c3b;fill-opacity:1;fill-rule:nonzero;stroke:none" />
    </g>
    <g
       transform="matrix(1.25,0,0,-1.25,366.94855,516.91393)"
       id="g5418">
      <path
         d="M 0,0 C 0,0 12.354,3.582 12.076,-8.981 12.076,-8.981 0,-13.367 0,0"
         id="path5420"
         style="fill:#f39e2b;fill-opacity:1;fill-rule:nonzero;stroke:none" />
    </g>
    <g
       transform="matrix(1.25,0,0,-1.25,407.34768,528.14081)"
       id="g5422">
      <path
         d="M 0,0 C 0,0 12.076,-4.385 12.076,8.981 12.076,8.981 -0.278,12.563 0,0"
         id="path5424"
         style="fill:#f39e2b;fill-opacity:1;fill-rule:nonzero;stroke:none" />
    </g>
    <g
       transform="matrix(1.25,0,0,-1.25,379.2288,521.01806)"
       id="g5426">
      <path
         d="m 0,0 c 0,-1.241 -1.006,-2.248 -2.247,-2.248 -1.241,0 -2.247,1.007 -2.247,2.248 0,1.241 1.006,2.247 2.247,2.247 C -1.006,2.247 0,1.241 0,0"
         id="path5428"
         style="fill:#ffffff;fill-opacity:1;fill-rule:nonzero;stroke:none" />
    </g>
    <g
       transform="matrix(1.25,0,0,-1.25,419.74393,521.01806)"
       id="g5430">
      <path
         d="m 0,0 c 0,-1.241 -1.006,-2.248 -2.247,-2.248 -1.241,0 -2.246,1.007 -2.246,2.248 0,1.241 1.005,2.247 2.246,2.247 C -1.006,2.247 0,1.241 0,0"
         id="path5432"
         style="fill:#ffffff;fill-opacity:1;fill-rule:nonzero;stroke:none" />
    </g>
  </g>
</svg>
