<svg xmlns="http://www.w3.org/2000/svg" width="160" height="190" viewBox="0 0 160 190">
  <g fill="none" fill-rule="evenodd" transform="translate(20)">
    <path fill="#B68472" d="M7.15361446,0 C6.13637048,0 5.07906627,0.0829819277 3.98027108,0.260391566 C1.81415663,0.609487952 0.341942771,2.6496988 0.69246988,4.81438253 C1.04299699,6.97906627 3.08034639,8.4498494 5.24646084,8.10361446 C18.0728916,6.04051205 23.0589608,27.8161145 23.1076054,28.0393072 C23.5854669,30.1796687 25.7029367,31.5331325 27.8475904,31.0524096 C29.9893825,30.5759789 31.3385542,28.4556476 30.8635542,26.3138554 C30.6088855,25.1821536 24.7887048,0 7.15361446,0" transform="matrix(1 0 0 -1 21.257 168.943)"/>
    <path fill="#8E6451" fill-rule="nonzero" d="M11.4457831,155.948795 C10.5315512,157.993298 11.4457831,160.389759 13.4945783,161.305422 C15.5362199,162.219654 17.9355422,161.303991 18.8512048,159.260919 L23.7943524,148.198569 C25.3066265,149.257304 26.9333584,150.200151 28.6530873,151.038554 L22.8987199,163.909337 C20.7211596,168.776657 15.0168675,170.954217 10.1509789,168.78238 C5.28509036,166.60625 3.10466867,160.896235 5.28222892,156.036069 L13.5317771,137.582605 C14.7149849,139.339533 16.0112199,141.007756 17.4290663,142.568675 L11.4457831,155.948795 Z M11.3679518,29.5274078 C13.7229217,28.0709319 16.1866265,26.8805705 18.7046988,25.9320012 C23.7508584,24.0348627 29.0044729,23.1335072 34.1607982,23.0090343 C29.1747289,24.3453295 24.4690813,26.418447 20.3843675,29.2026337 C15.4526657,32.1055705 9.77412651,37.4793657 6.79965361,40.7528596 C7.45635542,36.9542904 8.75545181,33.3488687 10.5967922,30.0267301 C10.8428765,29.8650584 11.0989759,29.6990946 11.3679518,29.5274078 Z M6.31078133,45.7306307 C7.52117289,44.7248325 9.28525422,43.5173024 9.99346205,43.0093958 C12.4414289,41.2567602 15.0439139,39.868959 17.7236578,38.7930554 C23.0817151,36.6326639 28.6572422,35.6168506 34.1612331,35.263462 C28.8689892,36.8157964 23.7970765,39.0191096 19.457694,42.032212 C17.2872873,43.5258867 15.3214741,45.2527693 13.6532512,47.1313084 C12.936459,47.9453898 8.66002831,53.0487783 7.40814578,54.8600735 C6.70136867,52.1717452 6.28359759,49.384697 6.28359759,46.4974982 C6.28359759,46.2399681 6.30648916,45.9867301 6.31078133,45.7306307 Z M16.3265512,88.9722271 L1.41698795,97.9085223 C1.2138253,95.5106307 1.06932229,93.1971518 0.973463855,90.9967 L16.3265512,88.9722271 Z M18.6647873,101.021627 L5.16591687,119.631039 C4.42337169,116.994217 3.80673012,114.331642 3.29023916,111.673358 L18.6647873,101.021627 Z M33.7913855,153.766943 L37.3767771,135.736973 L27.6435693,150.997063 C17.8216566,145.048117 13.3105873,138.023268 13.3105873,138.023268 C9.61789157,132.530723 7.01254518,126.179744 5.16691265,119.631325 L18.6643524,101.021913 L3.29123494,111.673645 C2.37986446,106.969428 1.79183735,102.308133 1.41698795,97.9086596 L16.3265512,88.9723645 L0.973463855,90.9968373 C0.81751506,87.4443524 0.771731928,84.1837349 0.771731928,81.4181476 C0.771731928,73.0126506 3.63746988,65.2280873 8.66503012,58.8027108 C8.16284639,57.5207831 7.76081325,56.2016566 7.4074247,54.8596386 C8.66073795,53.0497741 12.9371687,47.9449548 13.6525301,47.1323042 C15.320753,45.2523343 17.287997,43.5254518 19.4584036,42.0317771 C23.7977861,39.0186747 28.8696988,36.8153614 34.160512,35.2630271 C28.6565211,35.6164157 23.0824247,36.6322289 17.7229367,38.7940512 C15.0431928,39.8699548 12.4421386,41.2563253 9.99274096,43.0089608 C9.28596386,43.5168675 7.52188253,44.7243976 6.31006024,45.7301958 C6.35012048,44.0419428 6.51608434,42.3794428 6.79936747,40.7527108 C9.77384036,37.4792169 15.4538102,32.1054217 20.3840813,29.2039157 C24.4687952,26.4182982 29.1744428,24.3451807 34.160512,23.0088855 C29.0041867,23.1333584 23.7505723,24.0347139 18.7058434,25.9318524 C16.1863404,26.8804217 13.7226355,28.0722139 11.3676657,29.527259 C11.0986898,29.6989458 10.8425904,29.8649096 10.596506,30.0265813 C13.7741416,24.292244 18.5413102,19.397741 24.4001205,15.8381024 L24.4001205,0.103012048 L40.1523795,0.103012048 L40.1523795,10.135241 C42.4873193,9.76611446 44.8780572,9.53290663 47.3331777,9.53290663 L47.3331777,155.546762 C42.3342319,155.546762 37.7673645,154.994503 33.7913855,153.766943 Z M27.6438554,150.997784 L37.3770633,135.737694 L33.7916717,153.767664 C31.8587651,153.171052 30.0560542,152.424215 28.4336145,151.479938 C28.1603464,151.318266 27.9085392,151.156595 27.6438554,150.997784 Z" transform="matrix(1 0 0 -1 24.255 181.928)"/>
    <path fill="#723E2B" d="M5.72289157,38.6295181 C7.91046687,35.2100904 9.05933735,32.0567771 10.1338102,29.3498494 C10.6689006,27.9391566 11.1138554,27.1322289 11.678991,25.8030873 C12.2355422,24.4052711 12.8064006,22.7198795 13.1368976,20.9457831 C13.8408133,17.3847139 13.6734187,13.4044428 12.4129518,9.84623494 C11.1181476,6.28945783 8.89623494,3.1060994 5.33945783,1.06302711 C4.05753012,4.94887048 3.37650602,7.98343373 2.68832831,10.7533133 C2.02161145,13.5203313 1.43787651,15.9439759 0.934262048,18.6137048 C0.672439759,19.9614458 0.460692771,21.3549699 0.258960843,23.0360693 C0.0185993976,24.7844127 -0.0143072289,27.1307982 0.41061747,28.897741 C1.22899096,32.5389307 2.80564759,35.74375 5.72289157,38.6295181" transform="matrix(1 0 0 -1 68.366 39.774)"/>
    <path fill="#723E2B" d="M0,14.3072289 C2.23908133,15.3087349 8.76746988,18.1916416 16.676506,14.1856175 C20.1646084,12.4158133 22.1318524,10.9049699 23.6069277,9.74751506 C25.0748494,8.56144578 27.7746235,5.66137048 28.8862952,3.46378012 C26.6429217,2.45368976 26.2709337,2.02876506 23.4023343,1.10881024 C21.6153614,0.542243976 18.974247,0.283283133 17.2988705,0.878463855 C15.623494,1.47221386 13.8336596,2.15180723 11.6489458,4.06039157 C10.1795934,5.25218373 4.49962349,13.2399096 0,14.3072289" transform="matrix(1 0 0 -1 1.145 170.789)"/>
    <path fill="#B68472" fill-rule="nonzero" d="M28.6144578,30.0451807 C24.529744,27.260994 19.8240964,25.1864458 14.8365964,23.8515813 C19.9943524,23.9760542 25.2479669,24.8774096 30.2926958,26.7745482 C32.8121988,27.7231175 35.2773343,28.9134789 37.6294428,30.3699548 C37.6881024,30.4057229 37.7396084,30.4386295 37.7954066,30.4758283 C39.6682229,33.7550452 41.010241,37.3175452 41.722741,41.0774849 C38.645256,37.7753765 33.2943524,32.7993223 28.6144578,30.0451807 Z M35.3452994,47.9739928 C33.6770765,46.0954536 31.7112633,44.3671404 29.5408566,42.8748964 C25.2014741,39.8603633 20.1281307,37.65705 14.8358867,36.1047157 C20.3413084,36.4581042 25.9168355,37.4739175 31.2748928,39.6357398 C33.9546367,40.7116434 36.5571217,42.0994446 39.0050886,43.8506494 C39.6374681,44.3084807 41.1168355,45.3214325 42.2885976,46.2514024 C42.3014741,46.614806 42.3272271,46.9739175 42.3272271,47.3401825 C42.3272271,50.0828783 41.9452241,52.7340078 41.3028295,55.3021554 C39.7834018,53.2304687 36.013447,48.7351373 35.3452994,47.9739928 Z M21.2490964,151.67336 C19.3533886,152.703481 17.3189006,153.579083 15.1442018,154.290152 L11.621762,136.579234 L21.2490964,151.67336 Z M47.6217717,91.7855892 C47.5201904,93.918797 47.3642416,96.1736163 47.1582175,98.498541 L32.6721482,89.814053 L47.6217717,91.7855892 Z M45.2514759,112.201433 C44.745,114.771011 44.1326506,117.344881 43.4144277,119.900152 L30.3333283,101.863029 L45.2514759,112.201433 Z M31.2746066,39.6356024 C25.9165494,37.4737801 20.3410223,36.4579669 14.8356006,36.1045783 C20.1278446,37.6569127 25.201188,39.8602259 29.5405705,42.874759 C31.7109771,44.3684337 33.6767904,46.0953163 35.3450133,47.9738554 C36.0145916,48.735 39.7831157,53.2303313 41.3025434,55.3020181 C40.9334169,56.7785241 40.5013386,58.235 39.9490795,59.644262 C44.975209,66.0710693 47.840947,73.8542018 47.840947,82.2596988 C47.840947,85.0167018 47.7923024,88.2458434 47.6220464,91.7854518 L32.6724229,89.8139157 L47.1584922,98.4998343 C46.7693355,102.873554 46.1727241,107.511958 45.2513386,112.201867 L30.333191,101.863464 L43.4142904,119.900587 C39.765947,132.914443 33.1560072,145.214367 21.2495313,151.674081 L11.622197,136.579955 L15.1446367,154.290873 C11.0484771,155.63003 6.4601488,156.388313 1.28093193,156.388313 L1.28093193,10.3758886 C3.73319096,10.3758886 6.12392892,10.6076657 8.46173012,10.9782229 L8.46173012,0.944563253 L24.2111277,0.944563253 L24.2111277,16.6796536 C29.93545,20.1606024 34.6196367,24.9106024 37.7958416,30.4761145 C37.7400434,30.4389157 37.6871066,30.406009 37.6298777,30.3688102 C35.2763386,28.9137651 32.811203,27.7234036 30.2917,26.7748343 C25.2484018,24.8776958 19.9933566,23.9763404 14.8356006,23.8518675 C19.8245313,25.1867319 24.5287482,27.2612801 28.6148928,30.0454669 C33.2933566,32.7996084 38.6442602,37.7756627 41.7217452,41.0777711 C42.0436578,42.7645934 42.2325133,44.4929066 42.2883114,46.2512651 C41.1165494,45.3227259 39.6371819,44.3097741 39.0048024,43.850512 C36.5568355,42.0993072 33.9557813,40.711506 31.2746066,39.6356024 Z" transform="matrix(1 0 0 -1 70.308 182.77)"/>
    <path fill="#1D1D1B" d="M0,4.29216867 C0,2.03448795 1.82560241,0.204593373 4.08328313,0.204593373 C6.33953313,0.204593373 8.16799699,2.03448795 8.16799699,4.29216867 L8.16799699,10.4185241 C8.16799699,12.6704819 6.33953313,14.5003765 4.08328313,14.5003765 C1.82560241,14.5003765 0,12.6704819 0,10.4185241 L0,4.29216867 Z" transform="matrix(1 0 0 -1 50.248 77.64)"/>
    <path fill="#D76C79" d="M2.91896084,20.4327259 C0.83044436,19.4986584 -0.10216363,17.0540287 0.82898488,14.9684312 L6.932532,1.3193703 C8.86488408,3.45604964 11.0263746,5.38110431 13.4257604,7.06242576 L8.38471502,18.3471284 C7.44918807,20.4312664 5.00309889,21.3653339 2.91896084,20.4327259" transform="matrix(1 0 0 -1 34.75 40.87)"/>
    <path fill="#B68472" d="M18.5993976,18.5993976 C19.5150602,20.6439006 18.5993976,23.0403614 16.5534639,23.9560241 C14.5089608,24.870256 12.1125,23.9545934 11.1954066,21.9115211 L6.25225904,10.8491717 C4.73712349,11.9079066 3.11325301,12.850753 1.39209337,13.6891566 L7.14789157,26.5599398 C9.32402108,31.427259 15.0283133,33.6048193 19.898494,31.4329819 C24.7600904,29.2568524 26.940512,23.5468373 24.7658133,18.6866717 L16.5148343,0.233207831 C15.3330572,1.99013554 14.0353916,3.65835843 12.6175452,5.21927711 L18.5993976,18.5993976 Z" transform="matrix(1 0 0 -1 88.875 44.578)"/>
    <path fill="#D76C79" d="M11.6758434,20.4327259 C13.7629004,19.4986584 14.6955084,17.0540287 13.7629004,14.9684312 L7.66081273,1.3193703 C5.72846066,3.45604964 3.56842963,5.38110431 1.16758434,7.06242576 L6.20862971,18.3471284 C7.14561614,20.4312664 9.59024585,21.3653339 11.6758434,20.4327259" transform="matrix(1 0 0 -1 93.833 40.87)"/>
    <path fill="#723E2B" d="M14.3072289,4.29216867 C14.9682229,4.29216867 15.5133283,3.75421687 15.5133283,3.08893072 L15.5133283,0.0715361446 L28.1823795,0.0715361446 C28.1823795,7.64292169 22.0402861,13.7778614 14.471762,13.7778614 C6.90037651,13.7778614 0.761144578,7.64292169 0.761144578,0.0715361446 L13.0996988,0.0715361446 L13.0996988,3.08893072 C13.0996988,3.75421687 13.6362199,4.29216867 14.3072289,4.29216867" transform="matrix(1 0 0 -1 42.06 188.935)"/>
    <path fill="#723E2B" d="M14.3072289,4.29216867 C14.9725151,4.29216867 15.5161898,3.75421687 15.5161898,3.08893072 L15.5161898,0.0715361446 L28.1838102,0.0715361446 C28.1838102,7.64292169 22.0474398,13.7778614 14.471762,13.7778614 C6.90466867,13.7778614 0.768298193,7.64292169 0.768298193,0.0715361446 L13.0996988,0.0715361446 L13.0996988,3.08893072 C13.0996988,3.75421687 13.6376506,4.29216867 14.3072289,4.29216867" transform="matrix(1 0 0 -1 72.17 188.935)"/>
    <path fill="#723E2B" d="M82.9819277,31.4759036 C82.9819277,16.547741 64.4869729,1.27048193 41.6740964,1.27048193 C18.8612199,1.27048193 0.361972892,16.547741 0.361972892,31.4759036 C0.361972892,46.3997741 18.8612199,58.4993976 41.6740964,58.4993976 C64.4869729,58.4993976 82.9819277,46.3997741 82.9819277,31.4759036" transform="matrix(1 0 0 -1 29.916 146.654)"/>
    <path fill="#411611" d="M12.876506,7.15361446 C12.876506,3.87868976 10.2196536,1.22183735 6.94186747,1.22183735 C3.66551205,1.22183735 1.01009036,3.87868976 1.01009036,7.15361446 C1.01009036,10.4314006 3.66551205,13.0868223 6.94186747,13.0868223 C10.2196536,13.0868223 12.876506,10.4314006 12.876506,7.15361446" transform="matrix(1 0 0 -1 39.997 118.16)"/>
    <path fill="#411611" d="M12.876506,7.15361446 C12.876506,3.87868976 10.2210843,1.22183735 6.94186747,1.22183735 C3.66551205,1.22183735 1.01152108,3.87868976 1.01152108,7.15361446 C1.01152108,10.4314006 3.66551205,13.0868223 6.94186747,13.0868223 C10.2210843,13.0868223 12.876506,10.4314006 12.876506,7.15361446" transform="matrix(1 0 0 -1 89.434 118.16)"/>
    <path fill="#F6E9E5" d="M0,4.29216867 C0,0.619503012 1.68539157,0.688177711 3.87582831,0.417771084 C6.30376506,0.253237952 7.7502259,0.246084337 7.7502259,4.29216867 L7.7502259,6.75873494 C7.7502259,6.34525602 0,7.3310241 0,7.3310241 L0,4.29216867 Z" transform="matrix(1 0 0 -1 63.139 141.246)"/>
    <path fill="#F6E9E5" d="M8.58433735,4.29216867 C8.58433735,0.619503012 6.90037651,0.688177711 4.70993976,0.417771084 C2.28057229,0.253237952 0.834111446,0.246084337 0.834111446,4.29216867 L0.834111446,6.75873494 C0.834111446,6.34525602 8.58433735,7.3310241 8.58433735,7.3310241 L8.58433735,4.29216867 Z" transform="matrix(1 0 0 -1 71.485 141.246)"/>
    <path fill="#F6E9E5" d="M31.4759036,0 C14.1026355,0 1.96009036,9.03072289 1.45218373,9.4127259 C1.06445783,9.70459337 0.985768072,10.2582831 1.27906627,10.6445783 C1.57236446,11.0337349 2.12319277,11.1081325 2.5123494,10.8148343 C2.6310994,10.7261295 14.7164157,1.75835843 31.4759036,1.75835843 C48.2053464,1.75835843 59.1489458,10.7018072 59.2591114,10.790512 C59.6310994,11.1009789 60.1847892,11.0537651 60.4966867,10.6774849 C60.8085843,10.3040663 60.758509,9.74894578 60.3865211,9.44134036 C59.9215361,9.05504518 48.8706325,0 31.4759036,0" transform="matrix(1 0 0 -1 40.702 136.071)"/>
    <path fill="#723E2B" d="M2.86144578,35.7680723 C6.02620482,33.2285392 8.12364458,30.6060241 10.0064759,28.3826807 C10.9650602,27.219503 11.6460843,26.5985693 12.6060994,25.5198042 C13.5818524,24.3709337 14.657756,22.9588102 15.5390813,21.3792922 C17.3460843,18.2302711 18.457756,14.4073795 18.4033886,10.6331325 C18.3118223,6.8503012 17.2244729,3.12040663 14.5075301,0.0500753012 C12.0495482,3.32070783 10.434262,5.97899096 8.89766566,8.38403614 C7.37966867,10.7933735 6.05195783,12.902259 4.72281627,15.2715361 C4.04322289,16.464759 3.39653614,17.7137801 2.66686747,19.2460843 C1.88283133,20.8241717 1.1002259,23.0375 0.938554217,24.8502259 C0.550828313,28.5600904 1.02010542,32.1011295 2.86144578,35.7680723" transform="matrix(1 0 0 -1 59.199 38.761)"/>
    <path fill="#FFF" d="M0,2.86144578 C0,1.54661145 0.948569277,0.479292169 2.11746988,0.479292169 C3.2878012,0.479292169 4.23637048,1.54661145 4.23637048,2.86144578 C4.23637048,4.17771084 3.2878012,5.24503012 2.11746988,5.24503012 C0.948569277,5.24503012 0,4.17771084 0,2.86144578" transform="matrix(1 0 0 -1 52.922 69.583)"/>
    <path fill="#1D1D1B" d="M0,4.29216867 C0,2.03448795 1.82846386,0.204593373 4.08471386,0.204593373 C6.34239458,0.204593373 8.17085843,2.03448795 8.17085843,4.29216867 L8.17085843,10.4185241 C8.17085843,12.6704819 6.34239458,14.5003765 4.08471386,14.5003765 C1.82846386,14.5003765 0,12.6704819 0,10.4185241 L0,4.29216867 Z" transform="matrix(1 0 0 -1 84.757 77.64)"/>
    <path fill="#FFF" d="M0,2.86144578 C0,1.54661145 0.948569277,0.479292169 2.11746988,0.479292169 C3.2878012,0.479292169 4.23493976,1.54661145 4.23493976,2.86144578 C4.23493976,4.17771084 3.2878012,5.24503012 2.11746988,5.24503012 C0.948569277,5.24503012 0,4.17771084 0,2.86144578" transform="matrix(1 0 0 -1 87.48 69.583)"/>
  </g>
</svg>
