<svg xmlns="http://www.w3.org/2000/svg" width="160" height="190" viewBox="0 0 160 190">
  <g fill="none" fill-rule="evenodd" transform="translate(0 11)">
    <path fill="#CB8128" fill-rule="nonzero" d="M30.4,4.8 C28.8352,4.8 27.5664,6.0704 27.5664,7.632 C27.5664,9.1984 28.8352,10.4688 30.4,10.4688 C31.9664,10.4688 33.2336,9.1984 33.2336,7.632 C33.2336,6.0704 31.9664,4.8 30.4,4.8 M56.4704,36.9744 C53.496,36.9744 51.0832,34.5632 51.0832,31.5872 C51.0832,20.704 42.2288,11.848 31.344,11.848 C25.6944,11.848 20.6,14.2384 17.0016,18.056 C15.9952,17.032 14.5936,16.3856 13.0464,16.3856 C9.984,16.3856 7.4976,18.8784 7.4976,21.9376 C7.4976,24.6656 9.4768,26.9248 12.072,27.3904 C11.936,28.0128 11.8256,28.6416 11.7504,29.2864 C6.4064,26.8736 2.856,28.1984 0.936,29.5584 C1.488,21.176 5.4576,13.728 11.4336,8.5472 C12.8352,11.5776 16.2496,13.2736 19.576,12.3808 C21.3696,11.8976 22.8672,10.7424 23.784,9.1328 C24.6992,7.5184 24.9328,5.648 24.4352,3.8528 L20.2832,5.0096 C20.4736,5.6864 20.384,6.392 20.0416,6.9968 C19.6928,7.6032 19.1296,8.0384 18.4512,8.224 C17.0256,8.6 15.5712,7.7648 15.1808,6.352 C15.1264,6.1568 15.144,5.9664 15.136,5.768 C19.8336,2.8032 25.3856,1.0768 31.344,1.0768 C48.168,1.0768 61.856,14.7648 61.856,31.5872 C61.856,34.5632 59.4448,36.9744 56.4704,36.9744" transform="matrix(1 0 0 -1 1.524 178.133)"/>
    <path fill="#CB8128" d="M0,1.6 C0,0.9152 0.5584,0.3616 1.2416,0.3616 C1.8672,0.3616 2.3664,0.8336 2.4496,1.4368 C1.9952,2.2272 1.5856,3.0432 1.2416,3.896 L1.2416,2.8416 C0.5584,2.8416 0,2.2848 0,1.6" transform="matrix(1 0 0 -1 13.329 157.795)"/>
    <path fill="#4B190D" d="M11.2,1.6 C11.1088,2.36 11.0528,3.1232 11.0528,3.9008 C11.0528,6.1664 11.4336,8.3888 12.1856,10.5024 C13.1776,13.3104 11.712,16.3872 8.9072,17.3808 C6.1056,18.3744 3.0288,16.912 2.0304,14.1072 C0.8688,10.8304 0.28,7.3952 0.28,3.9008 C0.28,3.2208 0.3392,2.544 0.3856,1.872 C2.304,0.512 5.856,-0.8128 11.2,1.6" transform="matrix(1 0 0 -1 2.075 150.447)"/>
    <path fill="#4B190D" d="M0,6.4 C0,3.3408 2.488,0.848 5.5488,0.848 C7.0976,0.848 8.4992,1.4944 9.5056,2.5184 C8.448,3.6384 7.5312,4.8928 6.7584,6.2368 C6.6736,5.6336 6.176,5.1616 5.5488,5.1616 C4.8656,5.1616 4.3072,5.7152 4.3072,6.4 C4.3072,7.0848 4.8656,7.6416 5.5488,7.6416 L5.5488,8.696 C5.1392,9.7072 4.8128,10.7632 4.576,11.8528 C1.9792,11.3872 0,9.128 0,6.4" transform="matrix(1 0 0 -1 9.02 162.595)"/>
    <path fill="#4B190D" d="M8,4.8 C8.6768,4.616 9.24,4.1792 9.5904,3.5728 C9.9328,2.968 10.0224,2.2624 9.832,1.5856 L13.984,0.4304 C14.48,2.2256 14.248,4.096 13.3328,5.7088 C12.4144,7.3184 10.9184,8.4736 9.1248,8.9584 C5.7984,9.8496 2.384,8.1552 0.9824,5.1232 C2.1472,4.1104 3.3744,3.1728 4.6848,2.3456 C4.6928,2.544 4.6736,2.7328 4.7296,2.928 C5.12,4.3408 6.5728,5.176 8,4.8" transform="matrix(1 0 0 -1 11.976 174.71)"/>
    <path fill="#4B190D" d="M3.2,6.4 C1.6352,6.4 0.3664,5.1296 0.3664,3.5632 C0.3664,2.0016 1.6352,0.7312 3.2,0.7312 C4.7664,0.7312 6.0336,2.0016 6.0336,3.5632 C6.0336,5.1296 4.7664,6.4 3.2,6.4" transform="matrix(1 0 0 -1 28.724 174.064)"/>
    <path fill="#F39E2B" d="M28.8,40 C28.8,43.0592 31.2896,45.552 34.3536,45.552 L34.3536,41.24 C33.6672,41.24 33.1104,40.6848 33.1104,40 C33.1104,39.3136 33.6672,38.76 34.3536,38.76 C35.0336,38.76 35.592,39.3136 35.592,40 L39.4304,40 C42.5904,45.736 44.5376,52.2304 44.8384,59.1712 C35.9008,45.7888 19.7216,36.8048 1.1728,36.76 L1.1728,17.3168 C3.8512,17.3168 6.456,17.592 9,18.0512 L9,15.2816 C4.7984,12.008 2.0816,6.9104 2.0816,1.1712 L37.8752,1.1712 C37.8752,6.9104 35.1616,12.008 30.9616,15.2816 L30.9616,29.0768 C32.816,30.8064 34.5008,32.712 36.032,34.7376 C35.4992,34.5664 34.9424,34.4496 34.3536,34.4496 C31.2896,34.4496 28.8,36.9392 28.8,40" transform="matrix(1 0 0 -1 79.584 178.822)"/>
    <path fill="#4B190D" d="M8,6.4 C8,5.7136 7.4432,5.16 6.7616,5.16 C6.0752,5.16 5.5184,5.7136 5.5184,6.4 C5.5184,7.0848 6.0752,7.64 6.7616,7.64 L6.7616,11.952 C3.6992,11.952 1.208,9.4592 1.208,6.4 C1.208,3.3392 3.6992,0.8496 6.7616,0.8496 C7.352,0.8496 7.9072,0.9664 8.44,1.1376 C9.6992,2.8032 10.824,4.5648 11.8384,6.4 L8,6.4 Z" transform="matrix(1 0 0 -1 107.176 145.222)"/>
    <path fill="#CB8128" d="M1.6,1.6 C1.44,1.7264 1.2864,1.8592 1.1296,1.992 C1.2864,1.8592 1.44,1.7264 1.6,1.6" transform="matrix(1 0 0 -1 44.612 131.564)"/>
    <path fill="#CB8128" d="M1.6,1.6 L1.6,1.6016 C1.584,1.6112 1.568,1.6192 1.5536,1.6272 C1.568,1.6176 1.584,1.608 1.6,1.6" transform="matrix(1 0 0 -1 54.281 137.869)"/>
    <path fill="#CB8128" fill-rule="nonzero" d="M4.8,52.8 C5.4352,52.0976 6.0864,51.4112 6.7632,50.744 C6.0864,51.4112 5.4352,52.0976 4.8,52.8 M2.8848,55.0496 C3.4432,54.3472 4.016,53.6576 4.6144,52.9872 C4.016,53.6576 3.4432,54.3472 2.8848,55.0496 M0.7072,60.1488 C0.7072,59.3536 0.7856,58.584 0.8288,57.8016 C1.4016,56.9648 2.0048,56.1456 2.6352,55.344 C2.0048,56.1456 1.4016,56.9648 0.8288,57.8016 C1.192,51.0608 3.1072,44.7504 6.1728,39.1584 C7.2416,39.2912 8.3296,39.112 9.3136,38.624 C10.6448,37.9632 11.6336,36.8256 12.1088,35.4208 C12.5792,34.016 12.4768,32.5104 11.816,31.1808 C11.8048,31.1632 11.7904,31.1456 11.7792,31.1248 C12.7024,30.088 13.6688,29.0928 14.6864,28.1456 L14.6864,14.3504 C10.4864,11.0768 7.7712,5.9792 7.7712,0.24 L43.5584,0.24 C43.5584,5.9792 40.848,11.0768 36.6464,14.3504 L36.6464,17.12 C39.1872,16.6608 41.792,16.3856 44.4672,16.3856 L44.4672,35.8288 C44.424,35.8288 44.376,35.824 44.3344,35.824 C35.3456,35.824 26.9216,37.9392 19.592,41.624 L19.592,41.6224 C19.576,41.6304 19.56,41.6384 19.544,41.648 C18.3856,42.2336 17.2544,42.856 16.1536,43.5168 C16.104,43.5472 16.0592,43.576 16.0128,43.6032 C14.9344,44.2592 13.8832,44.9408 12.864,45.6656 C12.8336,45.688 12.8064,45.704 12.7792,45.7216 C11.7952,46.4224 10.8464,47.16 9.9232,47.9264 C9.7632,48.0528 9.608,48.1856 9.4528,48.3184 C8.5504,49.0816 7.6688,49.8656 6.8288,50.6848 C7.6688,49.8656 8.5504,49.0816 9.4528,48.3184 C9.608,48.1856 9.7632,48.0528 9.9232,47.9264 C10.8464,47.1632 11.7952,46.4224 12.7792,45.7216 C12.8064,45.704 12.8352,45.6848 12.864,45.6656 C13.8832,44.9408 14.9344,44.256 16.0128,43.6032 C16.0592,43.576 16.104,43.5472 16.1536,43.5168 C17.2544,42.856 18.3856,42.2336 19.544,41.648 C19.56,41.64 19.576,41.6336 19.592,41.624 C19.1008,44.5264 18.6624,47.5824 18.1856,50.7904 C21.6256,49.7472 25.28,48.752 29.1632,47.84 C29.16,47.832 29.1568,47.8256 29.152,47.816 C32.0752,46.3552 35.12,44.7072 38.28,42.856 C40.2992,41.6704 42.3536,40.4288 44.4672,39.0688 L44.4672,58.1488 L44.4672,103.912 C20.2992,103.912 0.7072,84.3152 0.7072,60.1488" transform="matrix(1 0 0 -1 36.29 177.89)"/>
    <path fill="#CB8128" d="M1.6,1.6 C1.552,1.6304 1.5056,1.6592 1.4592,1.6864 C1.5056,1.6592 1.552,1.6304 1.6,1.6" transform="matrix(1 0 0 -1 50.843 135.973)"/>
    <path fill="#CB8128" d="M1.6,1.6 C1.5712,1.6192 1.5424,1.6384 1.5152,1.656 C1.5424,1.6384 1.568,1.6224 1.6,1.6" transform="matrix(1 0 0 -1 47.554 133.825)"/>
    <path fill="#4B190D" d="M6.4,4.8 C5.9248,6.2048 4.936,7.3424 3.6048,8.0032 C2.6208,8.4928 1.5328,8.6704 0.4656,8.5376 C2.0448,5.6544 3.9024,2.9472 6.0704,0.504 C6.0816,0.5248 6.0976,0.5424 6.1072,0.5616 C6.768,1.8912 6.8704,3.3952 6.4,4.8" transform="matrix(1 0 0 -1 41.998 147.27)"/>
    <path fill="#CB8128" d="M0,65.6 L0,19.8352 L0.0048,19.8352 L0.0048,0.7568 C2.1216,2.1152 4.1728,3.3584 6.2,4.544 C9.3552,6.3952 12.3984,8.0416 15.3248,9.5024 C19.2912,10.4336 23.0144,11.4416 26.5104,12.5104 C26.0528,9.4016 25.64,6.4192 25.1808,3.5952 C32.7712,7.5248 39.1456,13.16 43.6672,19.928 C43.696,20.5664 43.7664,21.192 43.7664,21.8352 C43.7664,46.0032 24.1744,65.6 0,65.6" transform="matrix(1 0 0 -1 80.757 139.578)"/>
    <path fill="#D5D2B1" d="M27.2,33.6 L27.1952,33.6 C25.08,34.9632 3.9648,34.8992 0.5312,35.9488 C1.0032,32.7392 1.8288,28.2864 2.3184,25.3824 C4.8256,10.4912 8.7952,0.1472 27.1952,0.1472 L27.1952,19.5888 C36.3664,19.616 44.952,21.8272 52.376,25.6688 C52.8336,28.4928 53.3568,32.6208 53.8144,35.7264 C50.32,34.6592 29.3152,34.9632 27.2,33.6" transform="matrix(1 0 0 -1 53.562 161.652)"/>
    <path fill="#F6F3CF" d="M25.6,25.6 C18.176,21.7584 9.5904,19.5472 0.4192,19.52 L0.4192,0.0784 C19.3632,0.0784 23.1424,10.5472 25.6,25.6" transform="matrix(1 0 0 -1 80.338 161.583)"/>
    <path fill="#4B190D" d="M9.6,11.2 C8.472,12.16 7.0528,12.6112 5.5568,12.5008 C4.08,12.3792 2.7376,11.6944 1.7776,10.5648 C0.8176,9.4336 0.3584,7.9968 0.4752,6.5168 C0.5968,5.04 1.2848,3.7008 2.416,2.7408 C3.4272,1.8784 4.6864,1.4176 5.9984,1.4176 C6.152,1.4176 6.3024,1.424 6.4592,1.4336 L6.1072,5.7312 C5.784,5.7088 5.4576,5.8064 5.2064,6.0224 C4.9536,6.2352 4.7984,6.536 4.7728,6.8672 C4.7456,7.2 4.8496,7.5216 5.0608,7.7744 C5.2752,8.0288 5.5776,8.1776 5.9056,8.2032 C6.2336,8.2432 6.5616,8.1296 6.8128,7.9168 C7.0672,7.7008 7.2176,7.4 7.2416,7.0704 L11.5392,7.4192 C11.4208,8.896 10.7344,10.24 9.6,11.2" transform="matrix(1 0 0 -1 40.522 136.716)"/>
    <path fill="#4B190D" d="M3.2,0 C4.7648,0 6.0336,1.2704 6.0336,2.8352 C6.0336,4.3984 4.7648,5.672 3.2,5.672 C1.6352,5.672 0.3664,4.3984 0.3664,2.8352 C0.3664,1.2704 1.6352,0 3.2,0" transform="matrix(1 0 0 -1 49.243 141.392)"/>
    <path fill="#4B190D" d="M3.2,6.4 C1.6336,6.4 0.3648,5.128 0.3648,3.5664 C0.3648,2 1.6336,0.7312 3.2,0.7312 C4.7632,0.7312 6.0336,2 6.0336,3.5664 C6.0336,5.128 4.7632,6.4 3.2,6.4" transform="matrix(1 0 0 -1 116.326 133.406)"/>
    <path fill="#07171B" d="M1.6,1.6 C1.608,1.5872 1.6208,1.5696 1.6256,1.5616 C1.6208,1.5728 1.608,1.5872 1.6048,1.6032 C1.6048,1.6032 1.6,1.6032 1.6,1.6" transform="matrix(1 0 0 -1 71.16 122.538)"/>
    <path fill="#A84720" d="M1.6,1.6 C1.6208,1.6 1.6384,1.6048 1.6544,1.6048 C1.6384,1.6048 1.6208,1.608 1.6,1.608 L1.6,1.6 Z" transform="matrix(1 0 0 -1 79.05 120.453)"/>
    <path fill="#AF5B2B" d="M48,24 C48,11.1296 37.5664,0.6928 24.6944,0.6928 C11.8208,0.6928 1.3856,11.1296 1.3856,24 C1.3856,36.8736 11.8208,47.3072 24.6944,47.3072 C37.5664,47.3072 48,36.8736 48,24" transform="matrix(1 0 0 -1 15.908 49.867)"/>
    <path fill="#4B190D" d="M27.2,14.4 C27.2,6.9792 21.1856,0.9648 13.7648,0.9648 C6.3424,0.9648 0.3264,6.9792 0.3264,14.4 C0.3264,21.8208 6.3424,27.8368 13.7648,27.8368 C21.1856,27.8368 27.2,21.8208 27.2,14.4" transform="matrix(1 0 0 -1 26.837 40.267)"/>
    <path fill="#F39E2B" d="M48,24 C48,11.1296 37.5648,0.6928 24.6912,0.6928 C11.8208,0.6928 1.384,11.1296 1.384,24 C1.384,36.8736 11.8208,47.3072 24.6912,47.3072 C37.5648,47.3072 48,36.8736 48,24" transform="matrix(1 0 0 -1 94.834 49.867)"/>
    <path fill="#4B190D" d="M27.2,14.4 C27.2,6.9792 21.1824,0.9648 13.7616,0.9648 C6.3408,0.9648 0.3248,6.9792 0.3248,14.4 C0.3248,21.8208 6.3408,27.8368 13.7616,27.8368 C21.1824,27.8368 27.2,21.8208 27.2,14.4" transform="matrix(1 0 0 -1 105.765 40.267)"/>
    <path fill="#F39E2B" d="M48,24 C48,11.1296 37.5664,0.6928 24.6944,0.6928 C11.8208,0.6928 1.3856,11.1296 1.3856,24 C1.3856,36.8736 11.8208,47.3072 24.6944,47.3072 C37.5664,47.3072 48,36.8736 48,24" transform="matrix(1 0 0 -1 15.908 49.867)"/>
    <path fill="#4B190D" d="M27.2,14.4 C27.2,6.9792 21.1856,0.9648 13.7648,0.9648 C6.3424,0.9648 0.3264,6.9792 0.3264,14.4 C0.3264,21.8208 6.3424,27.8368 13.7648,27.8368 C21.1856,27.8368 27.2,21.8208 27.2,14.4" transform="matrix(1 0 0 -1 26.837 40.267)"/>
    <path fill="#F39E2B" d="M68.8,33.6 C68.9744,33.4992 69.1536,33.3984 69.3264,33.296 C69.3264,33.296 62.0032,43.5664 58.496,57.8544 C58.496,88.76 44.6224,117.16 0.928,117.16 L0.928,49.816 L0.928,34.5712 C0.9168,34.5664 0.9072,34.5648 0.8992,34.5568 L0.928,22.768 L0.928,19.9584 L0.9328,19.9584 L0.9824,0.872 C37.6656,-3.832 70.656,31.552 70.656,31.552 C70.168,32.2672 69.5408,32.952 68.8,33.6" transform="matrix(1 0 0 -1 79.728 130.188)"/>
    <path fill="#CB8128" d="M12.8,54.4 C9.2944,40.112 1.9712,29.84 1.9712,29.84 C2.144,29.944 2.3216,30.0432 2.4976,30.1456 C1.7568,29.4976 1.1264,28.8128 0.6416,28.0976 C0.6416,28.0976 18.048,9.4448 41.6272,1.0304 L41.6272,12.2512 C41.6272,20.6432 42.6496,24.7632 43.568,26.7776 C53.168,22.9808 60.496,18.3808 62.4,14.3712 C64.7728,15.6912 67.4688,16.5024 70.3696,16.5024 L70.3696,46.3616 L70.3696,113.704 C26.6768,113.704 12.8,85.304 12.8,54.4" transform="matrix(1 0 0 -1 10.36 126.733)"/>
    <path fill="#D5D2B1" d="M11.2,38.4 C8.8448,37.432 6.5904,36.2256 4.6912,34.6864 C4.6912,34.6864 1.3248,33.4816 1.3248,18.2656 L1.3248,7.0432 C10.2128,3.8704 19.4368,1.2784 30.016,1.2784 L30.0992,37.1152 C20.1888,41.992 16.2352,39.9904 11.2,38.4" transform="matrix(1 0 0 -1 50.662 132.747)"/>
    <path fill="#F6F3CF" d="M19.2,38.4 C21.5552,37.432 23.8144,36.2256 25.712,34.6864 C25.712,34.6864 29.0768,33.4816 29.0768,18.2656 L29.0768,7.0432 C20.1904,3.8704 10.3872,1.2784 0.3872,1.2784 L0.304,37.1152 C10.2096,41.992 14.1664,39.9904 19.2,38.4" transform="matrix(1 0 0 -1 80.278 132.747)"/>
    <path fill="#4B190D" d="M0,19.2 C0,19.2 23.9696,26.1488 23.4304,1.776 C23.4304,1.776 0,-6.7312 0,19.2" transform="matrix(1 0 0 -1 42.013 81.114)"/>
    <path fill="#68A284" d="M19.2,9.6 C19.2,4.6912 15.2192,0.712 10.312,0.712 C5.4048,0.712 1.4256,4.6912 1.4256,9.6 C1.4256,14.5072 5.4048,18.4864 10.312,18.4864 C15.2192,18.4864 19.2,14.5072 19.2,9.6" transform="matrix(1 0 0 -1 43.694 80.692)"/>
    <path fill="#FFF" d="M6.4,3.2 C6.4,1.5088 5.0272,0.1376 3.3344,0.1376 C1.6432,0.1376 0.2736,1.5088 0.2736,3.2 C0.2736,4.896 1.6432,6.264 3.3344,6.264 C5.0272,6.264 6.4,4.896 6.4,3.2" transform="matrix(1 0 0 -1 53.642 70.624)"/>
    <path fill="#4B190D" d="M24,19.2 C24,19.2 0.0336,26.1488 0.5728,1.776 C0.5728,1.776 24,-6.7312 24,19.2" transform="matrix(1 0 0 -1 95.526 81.114)"/>
    <path fill="#68A284" d="M0,9.6 C0,4.6912 3.9792,0.712 8.8848,0.712 C13.7936,0.712 17.776,4.6912 17.776,9.6 C17.776,14.5072 13.7936,18.4864 8.8848,18.4864 C3.9792,18.4864 0,14.5072 0,9.6" transform="matrix(1 0 0 -1 98.492 80.692)"/>
    <path fill="#FFF" d="M0,3.2 C0,1.5088 1.3728,0.1376 3.064,0.1376 C4.7568,0.1376 6.1296,1.5088 6.1296,3.2 C6.1296,4.896 4.7568,6.264 3.064,6.264 C1.3728,6.264 0,4.896 0,3.2" transform="matrix(1 0 0 -1 107.808 70.624)"/>
    <path fill="#D76C79" d="M14.4,0 C13.0672,0.2416 11.9312,0.824 11.1792,1.7024 C7.6416,5.848 2.976,8.72 0.4864,10.1248 C2.912,10.8608 7.9328,12.0016 15.768,12.0016 C23.4992,12.0016 28.5632,10.8544 31.0096,10.12 C26.5776,7.4096 22.7088,4.4064 20.0048,1.568 C19.2448,0.7712 18.2336,0.2416 16.9984,0 L14.4,0 Z" transform="matrix(1 0 0 -1 64.858 104.211)"/>
    <path fill="#4B190D" fill-rule="nonzero" d="M17.6,14.4 C5.7872,14.4 0.144,11.8096 0.184,11.8096 L0.1856,11.8096 C0.32,11.6176 7.4656,8.3424 12.3344,2.6336 C13.3552,1.44 14.8032,0.8656 16.232,0.6224 L18.9136,0.6224 C20.2288,0.864 21.4976,1.4352 22.48,2.4672 C27.5648,7.8032 34.8624,11.7664 34.928,11.8416 C34.928,11.8416 29.28,14.4 17.6,14.4 M17.6,12.624 C23.5552,12.624 27.8944,11.9344 30.6384,11.2944 C26.8512,8.8368 23.6272,6.2448 21.1952,3.6928 C20.5792,3.0448 19.7536,2.6112 18.7408,2.3984 L16.392,2.3984 C15.1872,2.6272 14.2784,3.0944 13.6864,3.7872 C10.816,7.1536 7.2352,9.6912 4.6112,11.3104 C7.3568,11.9472 11.672,12.624 17.6,12.624" transform="matrix(1 0 0 -1 63.026 105.72)"/>
    <path fill="#4B190D" d="M25.6,9.6 C23.4064,5.816 20.6352,3.6672 17.3568,3.2208 C9.9392,2.2256 2.0608,9.9968 1.9808,10.0752 C1.5616,10.5008 0.8784,10.5008 0.4576,10.0752 C0.0352,9.6592 0.0352,8.9712 0.4544,8.5552 C0.784,8.224 8.0976,0.9744 15.9856,0.9744 C16.5344,0.9744 17.0896,1.008 17.6416,1.0864 C21.2208,1.5728 24.2528,3.6544 26.6784,7.2672 C29.104,3.6544 32.136,1.5728 35.7104,1.0864 C36.2656,1.008 36.8192,0.9744 37.3712,0.9744 C45.2576,0.9744 52.5696,8.224 52.8976,8.5552 C53.32,8.9712 53.3168,9.6592 52.8976,10.0784 C52.4752,10.4944 51.792,10.4992 51.3712,10.0752 C51.2944,9.9968 43.4272,2.2336 36.0032,3.2208 C32.72,3.6784 29.9552,5.8032 27.7536,9.6 L27.7536,15.4624 C27.8368,15.4752 27.912,15.5008 27.992,15.5168 L25.3088,15.5168 C25.408,15.5008 25.504,15.4704 25.6,15.4576 L25.6,9.6 Z" transform="matrix(1 0 0 -1 53.948 120.616)"/>
    <path fill="#8E6451" d="M1.6,0 C1.3408,0 1.0784,0.0928 0.8736,0.2832 C0.4368,0.6848 0.4048,1.3648 0.808,1.8016 C22.0864,25.0192 55.1168,12.024 55.4464,11.8864 C55.9984,11.6656 56.2672,11.0384 56.0432,10.4864 C55.8224,9.9376 55.1904,9.672 54.6416,9.8944 C54.3216,10.0224 22.6528,22.448 2.3936,0.3472 C2.1808,0.1184 1.8896,0 1.6,0" transform="matrix(1 0 0 -1 .755 111.61)"/>
    <path fill="#8E6451" d="M1.6,0 C1.3312,0 1.0592,0.1008 0.8496,0.304 C0.424,0.72 0.4128,1.4 0.8256,1.8256 C20.7552,22.3744 46.7536,15.4592 47.0112,15.3872 C47.584,15.2256 47.9232,14.6336 47.7616,14.0624 C47.6016,13.488 47.0208,13.1472 46.4352,13.3104 C46.1872,13.3792 21.392,19.936 2.3712,0.328 C2.1616,0.1072 1.88,0 1.6,0" transform="matrix(1 0 0 -1 7.762 118.386)"/>
    <path fill="#8E6451" d="M1.6,0 C1.3872,0 1.1696,0.0608 0.9792,0.1952 C0.496,0.5376 0.3792,1.2112 0.7184,1.6976 C14.528,21.312 37.648,19.4064 37.872,19.384 C38.4656,19.3296 38.9008,18.8064 38.8448,18.2112 C38.7888,17.6224 38.2992,17.1824 37.672,17.24 C37.4512,17.2576 15.5552,19.0336 2.4832,0.4576 C2.272,0.1584 1.9392,0 1.6,0" transform="matrix(1 0 0 -1 16.715 125.925)"/>
    <path fill="#8E6451" d="M56,0 C55.7072,0 55.4192,0.1184 55.208,0.3472 C34.9472,22.448 3.28,10.0208 2.96,9.8944 C2.4048,9.672 1.7808,9.9376 1.5568,10.4864 C1.3328,11.0384 1.6,11.6656 2.152,11.8864 C2.4832,12.024 35.5136,25.0192 56.7936,1.8016 C57.1952,1.3648 57.1664,0.6848 56.728,0.2832 C56.5232,0.0928 56.2624,0 56,0" transform="matrix(1 0 0 -1 101.364 111.61)"/>
    <path fill="#8E6451" d="M46.4,0 C46.12,0 45.84,0.1072 45.6288,0.328 C26.5776,19.9648 1.816,13.3792 1.5648,13.3104 C0.9888,13.1488 0.3984,13.488 0.24,14.0592 C0.0784,14.6336 0.416,15.2256 0.9888,15.3872 C1.2496,15.4592 27.24,22.3744 47.176,1.8256 C47.5872,1.4 47.576,0.72 47.1504,0.304 C46.9424,0.1008 46.6704,0 46.4,0" transform="matrix(1 0 0 -1 103.957 118.386)"/>
    <path fill="#8E6451" d="M38.4,0 C38.0592,0 37.728,0.1584 37.5184,0.4576 C24.4416,19.04 2.5408,17.2576 2.3264,17.24 C1.7056,17.1984 1.2096,17.6224 1.1552,18.2112 C1.1008,18.8064 1.536,19.3296 2.1296,19.384 C2.3584,19.4064 25.4752,21.3152 39.2816,1.6976 C39.6208,1.2112 39.5072,0.5376 39.0192,0.1952 C38.832,0.0608 38.616,0 38.4,0" transform="matrix(1 0 0 -1 103.004 125.925)"/>
    <path fill="#4B190D" d="M9.6,11.2 C8.4048,12.0784 6.9392,12.4432 5.4736,12.216 L6.1264,7.9584 C6.4544,8.0016 6.7792,7.9248 7.0416,7.7264 C7.312,7.5312 7.4864,7.2416 7.5392,6.9168 C7.64,6.24 7.1712,5.6048 6.4976,5.5024 C5.8,5.4048 5.1856,5.8688 5.0848,6.5408 L0.824,5.8928 C1.2416,3.152 3.6112,1.1792 6.3072,1.1792 C6.584,1.1792 6.864,1.2 7.1472,1.2416 C10.1728,1.7024 12.256,4.5392 11.7968,7.5664 C11.5728,9.0304 10.792,10.3216 9.6,11.2" transform="matrix(1 0 0 -1 91.097 49.43)"/>
    <path fill="#4B190D" d="M11.2,12.8 C9.6672,13.8608 7.8176,14.2528 5.9952,13.9184 C4.1696,13.584 2.5856,12.5568 1.5344,11.0288 C1.4384,10.888 1.384,10.7408 1.2992,10.5968 L1.2992,3.536 C1.7952,2.6976 2.4576,1.9392 3.312,1.3504 L5.76,4.8944 C4.56,5.7232 4.2576,7.3808 5.0848,8.5872 C5.4816,9.168 6.0816,9.5568 6.7744,9.6832 C7.4656,9.8112 8.1664,9.6608 8.7488,9.2544 C9.9504,8.4272 10.2544,6.768 9.4272,5.5632 L12.976,3.1232 C15.1472,6.2784 14.352,10.6224 11.2,12.8" transform="matrix(1 0 0 -1 79.462 67.117)"/>
    <path fill="#4B190D" d="M1.6,0 L1.6,6.6432 C0.4432,4.5264 0.496,2.032 1.6,0" transform="matrix(1 0 0 -1 79.05 63.364)"/>
    <path fill="#4B190D" d="M4.8,8 L4.8544,8 L4.9104,8 L4.9104,2.2064 C5.9856,1.5504 7.2336,1.1472 8.584,1.1472 C12.48,1.1472 15.6528,4.3168 15.6528,8.2192 L11.344,8.2192 C11.344,6.696 10.1056,5.4576 8.584,5.4576 C7.064,5.4576 5.824,6.696 5.824,8.2192 C5.824,9.7376 7.064,10.9728 8.584,10.9728 L8.584,15.2848 C4.6848,15.2848 1.5168,12.1136 1.5168,8.2192 C1.5168,5.712 2.8336,3.5248 4.8,2.2672 L4.8,8 Z" transform="matrix(1 0 0 -1 75.85 29.652)"/>
    <path fill="#4B190D" d="M1.6,1.6 L1.6544,1.6 L1.6,1.6 Z" transform="matrix(1 0 0 -1 79.05 23.252)"/>
    <path fill="#4B190D" d="M1.6,1.6 L1.656,1.6 L1.6,1.6 Z" transform="matrix(1 0 0 -1 79.105 23.252)"/>
    <path fill="#4B190D" d="M3.2,0 L5.8,3.4336 C5.256,3.848 5.1488,4.6304 5.56,5.1728 C5.9728,5.7184 6.7504,5.8304 7.2976,5.4176 C7.8416,5.0016 7.9504,4.2256 7.5376,3.6752 L10.9776,1.08 C12.8208,3.5184 12.3376,7.0048 9.8976,8.8512 C7.4576,10.6976 3.968,10.2128 2.1232,7.7744 C0.2784,5.3296 0.7616,1.8448 3.2,0" transform="matrix(1 0 0 -1 97.369 27.38)"/>
    <path fill="#4B190D" d="M3.2,0 L6.1952,3.0944 C5.704,3.5696 5.6928,4.3568 6.1696,4.8464 C6.6448,5.3424 7.4352,5.3504 7.9264,4.8752 C8.1632,4.6464 8.2992,4.336 8.3024,4.0064 C8.3104,3.6736 8.184,3.36 7.9536,3.1232 L11.0448,0.1216 C12.08,1.1856 12.6336,2.592 12.6096,4.0736 C12.5872,5.5568 11.9904,6.9408 10.9216,7.9696 C8.7248,10.0992 5.2064,10.0416 3.0752,7.8448 C0.9472,5.6448 1.0032,2.1264 3.2,0" transform="matrix(1 0 0 -1 107.791 43.288)"/>
    <path fill="#4B190D" d="M6.4,6.4 C6.6848,6.5728 7.0144,6.6208 7.3392,6.5408 C7.6608,6.4592 7.9328,6.2592 8.1008,5.9728 C8.2704,5.6896 8.3216,5.3568 8.2448,5.0352 C8.1616,4.7136 7.9616,4.4448 7.6736,4.272 L9.8928,0.5776 C11.1632,1.3424 12.0608,2.552 12.4224,3.9888 C12.7792,5.4304 12.56,6.9168 11.7952,8.192 C11.0336,9.4624 9.8208,10.3584 8.384,10.7216 C6.9456,11.08 5.4528,10.856 4.1824,10.0944 C1.56,8.52 0.704,5.1056 2.2784,2.4816 L5.9728,4.6976 C5.6192,5.2848 5.8112,6.048 6.4,6.4" transform="matrix(1 0 0 -1 120.76 60.024)"/>
    <path fill="#4B190D" d="M4.8,8 C5.3056,8.4592 6.096,8.4224 6.5552,7.9184 C6.7776,7.672 6.8928,7.3536 6.8768,7.0224 C6.8608,6.6944 6.7184,6.3888 6.4704,6.1648 C5.9664,5.7024 5.1776,5.744 4.7152,6.2496 L1.5312,3.3472 C2.6256,2.144 4.1312,1.5376 5.6368,1.5376 C6.9728,1.5376 8.3104,2.0128 9.3696,2.9808 C10.4672,3.9744 11.1104,5.3408 11.1792,6.8208 C11.2496,8.2992 10.7392,9.7216 9.7392,10.8208 C7.68,13.0784 4.1664,13.24 1.8992,11.1872 L4.8,8 Z" transform="matrix(1 0 0 -1 39.487 96.725)"/>
    <path fill="#4B190D" d="M6.4,0 C9.4624,0 11.9504,2.4896 11.9504,5.5488 L7.64,5.5488 C7.64,4.864 7.0848,4.3104 6.4,4.3104 C5.7152,4.3104 5.1584,4.864 5.1584,5.5488 C5.1584,6.2336 5.7152,6.7904 6.4,6.7904 L6.4,11.0992 C3.3392,11.0992 0.848,8.6112 0.848,5.5488 C0.848,2.4896 3.3392,0 6.4,0" transform="matrix(1 0 0 -1 25.524 76.644)"/>
    <path fill="#4B190D" d="M3.2,1.6 C3.968,1.2272 4.7936,1.0336 5.624,1.0336 C6.2336,1.0336 6.848,1.1408 7.4416,1.3456 L6.0336,5.4176 C5.72,5.3088 5.3792,5.3312 5.0864,5.4752 C4.7856,5.6176 4.5648,5.8688 4.4544,6.1856 C4.3472,6.4992 4.368,6.8336 4.5104,7.1344 C4.656,7.432 4.9072,7.6528 5.2256,7.7648 C5.5344,7.872 5.8736,7.8512 6.1728,7.704 C6.4704,7.5648 6.6912,7.3072 6.8,6.9952 L10.872,8.3984 C10.392,9.8 9.392,10.9312 8.0592,11.5776 C6.7232,12.2304 5.2176,12.32 3.8192,11.8352 C2.416,11.352 1.2848,10.3536 0.6384,9.0208 C-0.0128,7.6848 -0.1008,6.1792 0.3824,4.7808 C0.8672,3.3776 1.8656,2.2464 3.2,1.6" transform="matrix(1 0 0 -1 48.858 32.938)"/>
    <path fill="#4B190D" d="M6.4,0 C9.4592,0 11.9472,2.488 11.9472,5.5472 L7.6416,5.5472 C7.6416,4.864 7.0816,4.304 6.4,4.304 C5.7168,4.304 5.1568,4.864 5.1568,5.5472 C5.1568,6.2336 5.7168,6.7872 6.4,6.7872 L6.4,11.0992 C3.336,11.0992 0.8512,8.6064 0.8512,5.5472 C0.8512,2.488 3.336,0 6.4,0" transform="matrix(1 0 0 -1 61.92 48.247)"/>
    <path fill="#4B190D" d="M4.8,1.6 C5.488,1.3728 6.1952,1.256 6.9008,1.256 C7.9296,1.256 8.952,1.5008 9.9008,1.9808 C13.176,3.6384 14.5216,7.6688 12.8976,10.96 C12.104,12.568 10.7392,13.7632 9.048,14.3296 C7.3536,14.896 5.5424,14.7648 3.944,13.952 L5.8896,10.1056 C6.4528,10.3888 7.0912,10.4368 7.68,10.2416 C8.2736,10.0432 8.7504,9.624 9.0304,9.0576 C9.616,7.872 9.1344,6.4208 7.9552,5.8272 C7.392,5.5376 6.7536,5.4896 6.1632,5.688 C5.5744,5.888 5.096,6.3056 4.8176,6.872 L0.9488,4.9696 C1.7408,3.3616 3.1088,2.1664 4.8,1.6" transform="matrix(1 0 0 -1 47.435 58.745)"/>
    <path fill="#4B190D" d="M8,6.4 C8,5.7184 7.44,5.16 6.7584,5.16 C6.0752,5.16 5.5168,5.7184 5.5168,6.4 C5.5168,7.0864 6.0752,7.6416 6.7584,7.6416 L6.7584,11.9504 C3.6992,11.9504 1.208,9.4576 1.208,6.4 C1.208,3.3392 3.6992,0.8512 6.7584,0.8512 C9.8192,0.8512 12.3072,3.3392 12.3072,6.4 L8,6.4 Z" transform="matrix(1 0 0 -1 123.883 87.073)"/>
    <path fill="#4B190D" d="M3.2,6.4 C1.6336,6.4 0.3664,5.1296 0.3664,3.5632 C0.3664,1.9984 1.6336,0.728 3.2,0.728 C4.7664,0.728 6.0352,1.9984 6.0352,3.5632 C6.0352,5.1296 4.7664,6.4 3.2,6.4" transform="matrix(1 0 0 -1 114.422 91.169)"/>
    <path fill="#4B190D" d="M6.4,3.2 C6.4,4.7664 5.1328,6.0368 3.5664,6.0368 C2.0016,6.0368 0.7328,4.7664 0.7328,3.2 C0.7328,1.6384 2.0016,0.3712 3.5664,0.3712 C5.1328,0.3712 6.4,1.6384 6.4,3.2" transform="matrix(1 0 0 -1 104.241 94.525)"/>
    <path fill="#4B190D" d="M3.2,0 C4.7632,0 6.0304,1.272 6.0304,2.8352 C6.0304,4.4 4.7632,5.6704 3.2,5.6704 C1.6336,5.6704 0.3664,4.4 0.3664,2.8352 C0.3664,1.272 1.6336,0 3.2,0" transform="matrix(1 0 0 -1 37.402 42.14)"/>
    <path fill="#4B190D" d="M3.2,0 C4.7648,0 6.0336,1.2704 6.0336,2.8368 C6.0336,4.4 4.7648,5.6704 3.2,5.6704 C1.6352,5.6704 0.3648,4.4 0.3648,2.8368 C0.3648,1.2704 1.6352,0 3.2,0" transform="matrix(1 0 0 -1 29.72 49.097)"/>
    <path fill="#4B190D" d="M0,3.2 C0,1.6352 1.2704,0.3664 2.8352,0.3664 C4.4,0.3664 5.6688,1.6352 5.6688,3.2 C5.6688,4.7664 4.4,6.0368 2.8352,6.0368 C1.2704,6.0368 0,4.7664 0,3.2" transform="matrix(1 0 0 -1 30.084 90.806)"/>
    <path fill="#4B190D" d="M3.2,0 C4.7664,0 6.0336,1.2672 6.0336,2.8336 C6.0336,4.3952 4.7664,5.6672 3.2,5.6672 C1.6336,5.6672 0.3648,4.3952 0.3648,2.8336 C0.3648,1.2672 1.6336,0 3.2,0" transform="matrix(1 0 0 -1 16.057 96.108)"/>
    <path fill="#4B190D" d="M3.2,6.4 C1.6336,6.4 0.3648,5.128 0.3648,3.5664 C0.3648,1.9984 1.6336,0.728 3.2,0.728 C3.2272,0.728 3.2448,0.744 3.2688,0.744 L3.2688,6.3872 C3.2448,6.3872 3.2272,6.4 3.2,6.4" transform="matrix(1 0 0 -1 77.382 42.39)"/>
    <path fill="#4B190D" d="M3.2,3.2 C3.2,4.7008 2.0224,5.9008 0.5456,5.9968 L0.5456,0.4 C2.0224,0.4992 3.2,1.696 3.2,3.2" transform="matrix(1 0 0 -1 80.215 42.024)"/>
    <path fill="#4B190D" d="M1.6,6.4 C1.5632,6.4032 1.5296,6.4224 1.4896,6.4256 L1.4896,0.7808 C1.5296,0.7808 1.5632,0.8 1.6,0.8032 L1.6,6.4 Z" transform="matrix(1 0 0 -1 79.16 42.427)"/>
    <path fill="#4B190D" d="M6.4,3.2 C6.4,4.7632 5.1328,6.0336 3.5664,6.0336 C2.0032,6.0336 0.7344,4.7632 0.7344,3.2 C0.7344,1.632 2.0032,0.3632 3.5664,0.3632 C5.1328,0.3632 6.4,1.632 6.4,3.2" transform="matrix(1 0 0 -1 66.883 67.194)"/>
    <path fill="#4B190D" d="M3.2,6.4 C1.6336,6.4 0.3648,5.1296 0.3648,3.5664 C0.3648,2 1.6336,0.7296 3.2,0.7296 C4.7648,0.7296 6.0336,2 6.0336,3.5664 C6.0336,5.1296 4.7648,6.4 3.2,6.4" transform="matrix(1 0 0 -1 74.167 77.544)"/>
    <path fill="#4B190D" d="M6.4,3.2 C6.4,4.7632 5.1296,6.0336 3.5648,6.0336 C2,6.0336 0.7312,4.7632 0.7312,3.2 C0.7312,1.6336 2,0.3648 3.5648,0.3648 C5.1296,0.3648 6.4,1.6336 6.4,3.2" transform="matrix(1 0 0 -1 102.373 57.644)"/>
    <path fill="#4B190D" d="M3.2,6.4 C1.6336,6.4 0.3648,5.1296 0.3648,3.5648 C0.3648,1.9984 1.6336,0.728 3.2,0.728 C4.7648,0.728 6.0336,1.9984 6.0336,3.5648 C6.0336,5.1296 4.7648,6.4 3.2,6.4" transform="matrix(1 0 0 -1 83.995 80.631)"/>
    <path fill="#4B190D" d="M3.2,6.4 C1.6336,6.4 0.3648,5.1264 0.3648,3.5664 C0.3648,2 1.6336,0.728 3.2,0.728 C4.7648,0.728 6.0336,2 6.0336,3.5664 C6.0336,5.1264 4.7648,6.4 3.2,6.4" transform="matrix(1 0 0 -1 83.995 89.814)"/>
    <path fill="#4B190D" d="M3.2,6.4 C1.6336,6.4 0.3664,5.1264 0.3664,3.5664 C0.3664,2 1.6336,0.728 3.2,0.728 C4.7648,0.728 6.0352,2 6.0352,3.5664 C6.0352,5.1264 4.7648,6.4 3.2,6.4" transform="matrix(1 0 0 -1 58.662 89.814)"/>
    <path fill="#4B190D" d="M3.2,6.4 C1.6352,6.4 0.3664,5.1296 0.3664,3.5664 C0.3664,1.9984 1.6352,0.7296 3.2,0.7296 C4.7664,0.7296 6.0368,1.9984 6.0368,3.5664 C6.0368,5.1296 4.7664,6.4 3.2,6.4" transform="matrix(1 0 0 -1 71.348 88.336)"/>
  </g>
</svg>
