<svg xmlns="http://www.w3.org/2000/svg" width="160" height="190" viewBox="0 0 160 190">
  <g fill="none" fill-rule="evenodd" transform="translate(0 13)">
    <path fill="#D19C74" d="M55.5555556,36.5079365 C52.6047619,36.5079365 50.2111111,34.1174603 50.2111111,31.1650794 C50.2111111,20.368254 41.4269841,11.5825397 30.6285714,11.5825397 C20.6015873,11.5825397 12.3269841,19.1587302 11.1904762,28.8793651 C5.88888889,26.4857143 2.36825397,27.8 0.461904762,29.147619 C1.50634921,13.3984127 14.6174603,0.893650794 30.6285714,0.893650794 C47.3206349,0.893650794 60.8984127,14.4730159 60.8984127,31.1650794 C60.8984127,34.1174603 58.5047619,36.5079365 55.5555556,36.5079365" transform="matrix(1 0 0 -1 3.25 175.276)"/>
    <path fill="#4B190D" d="M11.1111111,1.58730159 C11.0222222,2.33968254 10.9650794,3.0984127 10.9650794,3.87142857 C10.9650794,6.11746032 11.3428571,8.32222222 12.0888889,10.4206349 C13.0714286,13.2031746 11.6206349,16.2555556 8.83809524,17.2444444 C6.05555556,18.231746 3.00634921,16.7777778 2.01746032,13.9952381 C0.863492063,10.747619 0.280952381,7.33809524 0.280952381,3.87142857 C0.280952381,3.19365079 0.336507937,2.52539683 0.382539683,1.85555556 C2.28888889,0.506349206 5.80952381,-0.807936508 11.1111111,1.58730159" transform="matrix(1 0 0 -1 3.33 147.983)"/>
    <path fill="#AF5B2B" d="M47.6190476,23.8095238 C47.6190476,11.0396825 37.2650794,0.687301587 24.4952381,0.687301587 C11.7238095,0.687301587 1.37142857,11.0396825 1.37142857,23.8095238 C1.37142857,36.5793651 11.7238095,46.9301587 24.4952381,46.9301587 C37.2650794,46.9301587 47.6190476,36.5793651 47.6190476,23.8095238" transform="matrix(1 0 0 -1 17.057 48.2)"/>
    <path fill="#4B190D" d="M26.984127,14.2857143 C26.984127,6.92539683 21.0174603,0.955555556 13.6555556,0.955555556 C6.29206349,0.955555556 0.323809524,6.92539683 0.323809524,14.2857143 C0.323809524,21.647619 6.29206349,27.6142857 13.6555556,27.6142857 C21.0174603,27.6142857 26.984127,21.647619 26.984127,14.2857143" transform="matrix(1 0 0 -1 27.897 38.676)"/>
    <path fill="#F5C799" d="M47.6190476,23.8095238 C47.6190476,11.0396825 37.268254,0.687301587 24.4984127,0.687301587 C11.7285714,0.687301587 1.37460317,11.0396825 1.37460317,23.8095238 C1.37460317,36.5793651 11.7285714,46.9301587 24.4984127,46.9301587 C37.268254,46.9301587 47.6190476,36.5793651 47.6190476,23.8095238" transform="matrix(1 0 0 -1 95.35 48.2)"/>
    <path fill="#4B190D" d="M26.984127,14.2857143 C26.984127,6.92539683 21.0111111,0.955555556 13.6507937,0.955555556 C6.29047619,0.955555556 0.319047619,6.92539683 0.319047619,14.2857143 C0.319047619,21.647619 6.29047619,27.6142857 13.6507937,27.6142857 C21.0111111,27.6142857 26.984127,21.647619 26.984127,14.2857143" transform="matrix(1 0 0 -1 106.198 38.676)"/>
    <path fill="#F5C799" d="M47.6190476,23.8095238 C47.6190476,11.0396825 37.2650794,0.687301587 24.4952381,0.687301587 C11.7238095,0.687301587 1.37142857,11.0396825 1.37142857,23.8095238 C1.37142857,36.5793651 11.7238095,46.9301587 24.4952381,46.9301587 C37.2650794,46.9301587 47.6190476,36.5793651 47.6190476,23.8095238" transform="matrix(1 0 0 -1 17.057 48.2)"/>
    <path fill="#4B190D" d="M26.984127,14.2857143 C26.984127,6.92539683 21.0174603,0.955555556 13.6555556,0.955555556 C6.29206349,0.955555556 0.323809524,6.92539683 0.323809524,14.2857143 C0.323809524,21.647619 6.29206349,27.6142857 13.6555556,27.6142857 C21.0174603,27.6142857 26.984127,21.647619 26.984127,14.2857143" transform="matrix(1 0 0 -1 27.897 38.676)"/>
    <path fill="#F5C799" d="M30.1587302,14.2857143 L30.1587302,27.9761905 C38.2396825,35.4952381 43.4190476,46.047619 43.9285714,57.8333333 C35.0603175,44.5507937 19.0111111,35.6412698 0.612698413,35.5968254 L0.612698413,16.3063492 C3.26666667,16.3063492 5.84920635,16.5793651 8.37460317,17.0349206 L8.37460317,14.2857143 C4.20634921,11.0380952 1.51111111,5.98571429 1.51111111,0.29047619 L37.0190476,0.29047619 C37.0190476,5.98571429 34.3253968,11.0380952 30.1587302,14.2857143" transform="matrix(1 0 0 -1 80.698 174.377)"/>
    <path fill="#D19C74" fill-rule="nonzero" d="M44.4444444,49.2063492 L44.4444444,57.447619 L44.4492063,57.447619 L44.4444444,38.5190476 L44.4444444,49.2063492 Z M7.1031746,50.0460317 C10.7555556,46.4761905 15.0253968,43.4333333 19.7619048,41.0507937 C15.0253968,43.431746 10.7539683,46.4714286 7.1031746,50.0460317 Z M3.19047619,54.3730159 C3.74126984,53.6761905 4.31269841,52.9936508 4.90793651,52.3269841 C4.31269841,52.9936508 3.74126984,53.6761905 3.19047619,54.3730159 Z M5.08412698,52.1396825 C5.71904762,51.4444444 6.36507937,50.7603175 7.03809524,50.1047619 C6.36507937,50.7634921 5.71904762,51.4428571 5.08412698,52.1396825 Z M44.4444444,102.847619 C20.4634921,102.847619 1.02539683,83.4095238 1.02539683,59.4301587 C1.02539683,58.6444444 1.10634921,57.8809524 1.15079365,57.1063492 C1.71746032,56.2730159 2.31746032,55.4603175 2.94126984,54.6650794 C2.31746032,55.4603175 1.71746032,56.2730159 1.15079365,57.1063492 C1.77142857,45.5 6.91587302,35.1142857 14.8952381,27.6857143 L14.8952381,13.9952381 C10.7285714,10.747619 8.03650794,5.6952381 8.03650794,-8.8817842e-15 L43.5412698,-8.8817842e-15 C43.5412698,5.6952381 40.8507937,10.747619 36.6777778,13.9952381 L36.6777778,16.7460317 C37.0142857,16.6888889 37.3555556,16.6603175 37.6873016,16.6063492 C38.5095238,16.4507937 39.3809524,16.3333333 40.2888889,16.2412698 C40.3857143,16.2333333 40.4809524,16.2174603 40.5777778,16.2095238 C41.7968254,16.0936508 43.0666667,16.0174603 44.4444444,16.0174603 L44.4444444,35.3063492 C53.5380952,35.3285714 62.0603175,37.5253968 69.4222222,41.3365079 C76.952381,45.2365079 83.2746032,50.8269841 87.7603175,57.5428571 C87.7888889,58.1730159 87.8619048,58.7936508 87.8619048,59.4301587 C87.8619048,83.4095238 68.4222222,102.847619 44.4444444,102.847619 Z" transform="matrix(1 0 0 -1 36.865 174.087)"/>
    <path fill="#F5C799" d="M25.3968254,25.3968254 C18.0333333,21.5857143 9.51111111,19.3888889 0.419047619,19.3666667 L0.419047619,0.0777777778 C19.2111111,0.0777777778 22.9571429,10.4603175 25.3968254,25.3968254" transform="matrix(1 0 0 -1 80.891 158.147)"/>
    <path fill="#E96332" d="M1.58730159,1.58730159 L1.58730159,1.58095238 C1.60952381,1.58095238 1.62539683,1.58253968 1.64285714,1.58253968 C1.62539683,1.58253968 1.60952381,1.58730159 1.58730159,1.58730159" transform="matrix(1 0 0 -1 79.695 21.793)"/>
    <path fill="#07171B" d="M1.58730159,1.58730159 L1.58095238,1.58730159 C1.59047619,1.57460317 1.6015873,1.55873016 1.60634921,1.54603175 C1.6015873,1.56031746 1.59047619,1.57460317 1.58730159,1.58730159" transform="matrix(1 0 0 -1 71.873 120.292)"/>
    <path fill="#A84720" d="M1.58730159,1.58730159 C1.56825397,1.58730159 1.55079365,1.58253968 1.53333333,1.58253968 C1.55079365,1.58253968 1.56825397,1.58095238 1.58730159,1.58095238 L1.58730159,1.58730159 Z" transform="matrix(1 0 0 -1 79.805 21.793)"/>
    <path fill="#A84720" d="M1.58730159,1.58730159 L1.58730159,50.0746032 C1.56825397,50.0746032 1.55079365,50.0761905 1.53333333,50.0761905 C1.51587302,50.0761905 1.4984127,50.0746032 1.47777778,50.0746032 L1.47777778,1.57619048 C1.51587302,1.57619048 1.55079365,1.58730159 1.58730159,1.58730159" transform="matrix(1 0 0 -1 79.805 70.286)"/>
    <path fill="#A84720" d="M1.58730159,1.58730159 C1.60952381,1.58730159 1.62539683,1.58253968 1.64285714,1.58253968 C1.66031746,1.58253968 1.67936508,1.58730159 1.6968254,1.58730159 L1.6968254,31.2063492 L1.6968254,49.5206349 C1.66031746,49.5206349 1.62539683,49.5095238 1.58730159,49.5095238 L1.58730159,31.2063492 L1.58730159,1.58730159 Z" transform="matrix(1 0 0 -1 79.695 118.22)"/>
    <path fill="#A84720" d="M1.58730159,1.58730159 L1.58730159,1.58095238 C1.60952381,1.58095238 1.62539683,1.58253968 1.64285714,1.58253968 C1.62539683,1.58253968 1.60952381,1.58730159 1.58730159,1.58730159" transform="matrix(1 0 0 -1 79.695 118.22)"/>
    <path fill="#F5C799" d="M68.2539683,33.3333333 C68.4253968,33.2333333 68.6063492,33.1333333 68.7761905,33.0285714 C68.7761905,33.0285714 61.5126984,43.2206349 58.0349206,57.3920635 C58.0349206,88.0555556 44.2698413,116.226984 0.922222222,116.226984 L0.922222222,49.4206349 L0.922222222,34.2936508 C0.911111111,34.2888889 0.901587302,34.2873016 0.892063492,34.2825397 L0.922222222,22.5857143 L0.922222222,19.7984127 L0.926984127,19.7984127 L0.976190476,0.861904762 C37.368254,-3.8031746 70.0952381,31.2984127 70.0952381,31.2984127 C69.6111111,32.0126984 68.9904762,32.6904762 68.2539683,33.3333333" transform="matrix(1 0 0 -1 80.366 127.883)"/>
    <path fill="#D19C74" d="M12.6984127,53.968254 C9.21746032,39.7952381 1.95238095,29.6031746 1.95238095,29.6031746 C2.12380952,29.7095238 2.3,29.8095238 2.47619048,29.9095238 C1.73968254,29.2650794 1.11428571,28.5888889 0.633333333,27.8746032 C0.633333333,27.8746032 17.9015873,9.36984127 41.2936508,1.02222222 L41.2936508,12.1571429 C41.2936508,20.484127 42.3079365,24.568254 43.2206349,26.568254 C52.7444444,22.8031746 60.0142857,18.2365079 61.9015873,14.2603175 C64.2555556,15.568254 66.9285714,16.3730159 69.8111111,16.3730159 L69.8111111,45.9968254 L69.8111111,112.801587 C26.4634921,112.801587 12.6984127,84.6301587 12.6984127,53.968254" transform="matrix(1 0 0 -1 11.552 124.459)"/>
    <path fill="#D5D2B1" d="M11.1111111,38.0952381 C8.77460317,37.1349206 6.53809524,35.9380952 4.65714286,34.4095238 C4.65714286,34.4095238 1.31428571,33.2174603 1.31428571,18.1222222 L1.31428571,6.98571429 C10.131746,3.83968254 19.2825397,1.26666667 29.7793651,1.26666667 L29.8619048,36.8222222 C20.0301587,41.6587302 16.1079365,39.6746032 11.1111111,38.0952381" transform="matrix(1 0 0 -1 51.53 130.423)"/>
    <path fill="#F6F3CF" d="M19.047619,38.0952381 C21.3857143,37.1349206 23.6253968,35.9380952 25.5095238,34.4095238 C25.5095238,34.4095238 28.847619,33.2174603 28.847619,18.1222222 L28.847619,6.98571429 C20.0301587,3.83968254 10.3063492,1.26666667 0.384126984,1.26666667 L0.301587302,36.8222222 C10.131746,41.6587302 14.0555556,39.6746032 19.047619,38.0952381" transform="matrix(1 0 0 -1 80.911 130.423)"/>
    <path fill="#4B190D" d="M0,19.047619 C0,19.047619 23.7761905,25.9428571 23.2428571,1.76190476 C23.2428571,1.76190476 0,-6.67777778 0,19.047619" transform="matrix(1 0 0 -1 42.953 79.199)"/>
    <path fill="#B66916" d="M19.047619,9.52380952 C19.047619,4.65396825 15.1,0.704761905 10.2301587,0.704761905 C5.36349206,0.704761905 1.41428571,4.65396825 1.41428571,9.52380952 C1.41428571,14.3936508 5.36349206,18.3412698 10.2301587,18.3412698 C15.1,18.3412698 19.047619,14.3936508 19.047619,9.52380952" transform="matrix(1 0 0 -1 44.62 78.782)"/>
    <path fill="#FFF" d="M6.34920635,3.17460317 C6.34920635,1.4984127 4.98730159,0.138095238 3.30952381,0.138095238 C1.63174603,0.138095238 0.271428571,1.4984127 0.271428571,3.17460317 C0.271428571,4.85396825 1.63174603,6.21428571 3.30952381,6.21428571 C4.98730159,6.21428571 6.34920635,4.85396825 6.34920635,3.17460317" transform="matrix(1 0 0 -1 54.487 68.792)"/>
    <path fill="#4B190D" d="M23.8095238,19.047619 C23.8095238,19.047619 0.0317460317,25.9428571 0.56984127,1.76190476 C0.56984127,1.76190476 23.8095238,-6.67777778 23.8095238,19.047619" transform="matrix(1 0 0 -1 96.039 79.199)"/>
    <path fill="#B66916" d="M0,9.52380952 C0,4.65396825 3.94603175,0.704761905 8.81746032,0.704761905 C13.684127,0.704761905 17.6333333,4.65396825 17.6333333,9.52380952 C17.6333333,14.3936508 13.684127,18.3412698 8.81746032,18.3412698 C3.94603175,18.3412698 0,14.3936508 0,9.52380952" transform="matrix(1 0 0 -1 98.981 78.782)"/>
    <path fill="#FFF" d="M0,3.17460317 C0,1.4984127 1.36190476,0.138095238 3.03968254,0.138095238 C4.72063492,0.138095238 6.08253968,1.4984127 6.08253968,3.17460317 C6.08253968,4.85396825 4.72063492,6.21428571 3.03968254,6.21428571 C1.36190476,6.21428571 0,4.85396825 0,3.17460317" transform="matrix(1 0 0 -1 108.223 68.792)"/>
    <path fill="#D76C79" d="M14.2857143,0 C12.9619048,0.241269841 11.8349206,0.815873016 11.0888889,1.69047619 C7.58095238,5.8015873 2.94920635,8.65238095 0.482539683,10.0460317 C2.89047619,10.7746032 7.87142857,11.9079365 15.6412698,11.9079365 C23.3095238,11.9079365 28.3349206,10.768254 30.7603175,10.0412698 C26.3634921,7.34920635 22.5269841,4.37301587 19.8460317,1.55714286 C19.0920635,0.763492063 18.0888889,0.241269841 16.8634921,0 L14.2857143,0 Z" transform="matrix(1 0 0 -1 65.615 102.114)"/>
    <path fill="#4B190D" fill-rule="nonzero" d="M17.4603175,14.2857143 C5.74444444,14.2857143 0.144444444,11.7126984 0.180952381,11.7126984 L0.184126984,11.7142857 C0.319047619,11.5222222 7.40793651,8.27142857 12.2396825,2.61269841 C13.2507937,1.42380952 14.684127,0.858730159 16.1047619,0.612698413 L18.7650794,0.612698413 C20.068254,0.857142857 21.3285714,1.42222222 22.3047619,2.44444444 C27.3444444,7.73968254 34.5857143,11.6714286 34.6507937,11.7428571 C34.6507937,11.7428571 29.047619,14.2857143 17.4603175,14.2857143 M17.4603175,12.5206349 C23.3698413,12.5206349 27.6746032,11.8349206 30.3952381,11.2047619 C26.6380952,8.76349206 23.4396825,6.19365079 21.0285714,3.65873016 C20.4142857,3.01746032 19.5984127,2.58888889 18.5920635,2.37619048 L16.2634921,2.37619048 C15.0666667,2.60634921 14.1650794,3.06984127 13.5809524,3.75714286 C10.731746,7.09206349 7.17777778,9.61269841 4.57301587,11.2206349 C7.3015873,11.8507937 11.5809524,12.5206349 17.4603175,12.5206349" transform="matrix(1 0 0 -1 63.797 103.608)"/>
    <path fill="#4B190D" d="M25.3968254,9.52380952 C23.2206349,5.76825397 20.4714286,3.63809524 17.2206349,3.19365079 C9.86031746,2.20634921 2.04444444,9.91428571 1.96825397,9.99047619 C1.54920635,10.4126984 0.874603175,10.4126984 0.453968254,9.9952381 C0.0365079365,9.57777778 0.0365079365,8.9047619 0.450793651,8.48253968 C0.777777778,8.15714286 8.03492063,0.966666667 15.8587302,0.966666667 C16.4063492,0.966666667 16.9539683,1 17.5015873,1.07460317 C21.0539683,1.55873016 24.0603175,3.62222222 26.4666667,7.20634921 C28.8730159,3.62222222 31.8809524,1.55873016 35.4253968,1.07460317 C35.9793651,1 36.5285714,0.966666667 37.0746032,0.966666667 C44.9,0.966666667 52.152381,8.15714286 52.4793651,8.48253968 C52.8968254,8.9047619 52.8952381,9.57777778 52.4793651,9.9952381 C52.0619048,10.4079365 51.3809524,10.4126984 50.9634921,9.99047619 C50.8873016,9.91428571 43.084127,2.21269841 35.7190476,3.19365079 C32.4587302,3.64444444 29.7190476,5.75396825 27.5333333,9.52380952 L27.5333333,15.3396825 C27.6142857,15.347619 27.6904762,15.3761905 27.7714286,15.3888889 L25.1095238,15.3888889 C25.2063492,15.3746032 25.3015873,15.3460317 25.3968254,15.3301587 L25.3968254,9.52380952 Z" transform="matrix(1 0 0 -1 54.79 118.385)"/>
    <path fill="#8E6451" d="M1.58730159,0 C1.32698413,0 1.06984127,0.0936507937 0.863492063,0.280952381 C0.43015873,0.679365079 0.398412698,1.35555556 0.798412698,1.79047619 C21.9095238,24.8238095 54.6777778,11.9301587 55.0047619,11.8 C55.5539683,11.5761905 55.8190476,10.9555556 55.5968254,10.4063492 C55.3761905,9.85873016 54.752381,9.5952381 54.2047619,9.81587302 C53.8888889,9.94444444 22.4730159,22.2714286 2.37301587,0.349206349 C2.16190476,0.117460317 1.87301587,0 1.58730159,0" transform="matrix(1 0 0 -1 2.022 109.455)"/>
    <path fill="#8E6451" d="M1.58730159,0 C1.31746032,0 1.04920635,0.0984126984 0.841269841,0.298412698 C0.419047619,0.711111111 0.407936508,1.38888889 0.819047619,1.81111111 C20.5888889,22.1936508 46.3825397,15.331746 46.6380952,15.2619048 C47.2047619,15.1047619 47.5412698,14.5174603 47.3809524,13.9460317 C47.2253968,13.3793651 46.6460317,13.0444444 46.0650794,13.2 C45.8206349,13.2714286 21.2222222,19.7746032 2.35079365,0.323809524 C2.14444444,0.106349206 1.86507937,0 1.58730159,0" transform="matrix(1 0 0 -1 8.973 116.173)"/>
    <path fill="#8E6451" d="M1.58730159,0 C1.37777778,0 1.16031746,0.0634920635 0.973015873,0.195238095 C0.493650794,0.534920635 0.377777778,1.2015873 0.714285714,1.68571429 C14.4126984,21.1460317 37.3492063,19.2492063 37.5730159,19.231746 C38.1603175,19.1761905 38.5920635,18.6555556 38.5380952,18.0698413 C38.4825397,17.4825397 37.9968254,17.0428571 37.3746032,17.1031746 C37.1571429,17.1222222 15.4365079,18.8857143 2.46507937,0.453968254 C2.25555556,0.158730159 1.92539683,0 1.58730159,0" transform="matrix(1 0 0 -1 17.852 123.656)"/>
    <path fill="#8E6451" d="M55.5555556,0 C55.2634921,0 54.9793651,0.117460317 54.768254,0.349206349 C34.668254,22.2714286 3.25238095,9.94126984 2.93333333,9.81587302 C2.38571429,9.5968254 1.76349206,9.85873016 1.54285714,10.4063492 C1.32063492,10.9555556 1.58571429,11.5761905 2.13174603,11.8 C2.45873016,11.9301587 35.231746,24.8238095 56.3412698,1.79047619 C56.7396825,1.35555556 56.7111111,0.679365079 56.2746032,0.280952381 C56.0714286,0.0936507937 55.8126984,0 55.5555556,0" transform="matrix(1 0 0 -1 101.833 109.455)"/>
    <path fill="#8E6451" d="M46.031746,0 C45.7539683,0 45.4761905,0.106349206 45.268254,0.323809524 C26.368254,19.8031746 1.8031746,13.2714286 1.55396825,13.2 C0.980952381,13.0444444 0.395238095,13.3793651 0.238095238,13.9460317 C0.0793650794,14.5174603 0.414285714,15.1047619 0.980952381,15.2619048 C1.23809524,15.331746 27.0253968,22.1952381 46.8015873,1.81111111 C47.2095238,1.38888889 47.1984127,0.711111111 46.7761905,0.298412698 C46.568254,0.0984126984 46.3015873,0 46.031746,0" transform="matrix(1 0 0 -1 104.403 116.173)"/>
    <path fill="#8E6451" d="M38.0952381,0 C37.7555556,0 37.4269841,0.158730159 37.2190476,0.453968254 C24.2460317,18.8904762 2.52222222,17.1253968 2.30952381,17.1031746 C1.69047619,17.0587302 1.2,17.4873016 1.14603175,18.0698413 C1.09206349,18.6555556 1.52380952,19.1761905 2.11111111,19.231746 C2.34126984,19.2492063 25.2730159,21.1460317 38.9698413,1.68571429 C39.3063492,1.2015873 39.1920635,0.534920635 38.7079365,0.195238095 C38.5253968,0.0634920635 38.3079365,0 38.0952381,0" transform="matrix(1 0 0 -1 103.46 123.656)"/>
  </g>
</svg>
