<svg xmlns="http://www.w3.org/2000/svg" width="160" height="190" viewBox="0 0 160 190">
  <g fill="none" fill-rule="evenodd">
    <path fill="#D19C74" d="M27.6923077,9.23076923 C27.6876923,9.22153846 27.6815385,9.21230769 27.6769231,9.20615385 C30.4923077,7.80153846 33.4184615,6.21846154 36.4553846,4.43692308 C38.3969231,3.29846154 40.3707692,2.10461538 42.4092308,0.795384615 L42.4092308,19.14 L42.4092308,63.1446154 C19.1676923,63.1446154 0.330769231,44.3046154 0.330769231,21.0630769 C0.330769231,20.3015385 0.406153846,19.5615385 0.444615385,18.8092308 C4.88461538,12.3323077 11.1076923,6.96 18.4907692,3.25076923 C18.0153846,6.04307692 17.5923077,8.98 17.1369231,12.0661538 C20.4415385,11.06 23.9569231,10.1061538 27.6923077,9.23076923" transform="matrix(1 0 0 -1 38.811 150.836)"/>
    <path fill="#D19C74" d="M0,63.0769231 L0,19.0723077 L0.00153846154,19.0723077 L0.00153846154,0.727692308 C2.03846154,2.03692308 4.00615385,3.23076923 5.95846154,4.36923077 C8.99384615,6.15076923 11.9184615,7.73384615 14.7338462,9.13846154 C18.5446154,10.0307692 22.1246154,11.0030769 25.4876923,12.0307692 C25.0461538,9.04461538 24.6492308,6.17384615 24.2092308,3.45846154 C31.5076923,7.23692308 37.6353846,12.6553846 41.9815385,19.1630769 C42.0107692,19.7753846 42.0815385,20.3784615 42.0815385,20.9953846 C42.0815385,44.2369231 23.2415385,63.0769231 0,63.0769231" transform="matrix(1 0 0 -1 81.221 150.769)"/>
    <path fill="#D19C74" d="M26.1538462,1.53846154 L26.1538462,15.0092308 C24.1153846,16.3184615 22.1415385,17.5092308 20.2,18.6507692 C17.1615385,20.4338462 11.4215385,15.1338462 11.4215385,15.1338462 C11.4215385,15.1430769 4.18615385,14.9169231 0.88,15.9230769 C1.33538462,12.8369231 1.76,9.9 2.23384615,7.10769231 C9.27230769,3.56307692 17.3784615,1.53230769 26.0230769,1.53230769 C26.0646154,1.53230769 26.1092308,1.53846154 26.1538462,1.53846154" transform="matrix(1 0 0 -1 55.067 154.693)"/>
    <path fill="#D19C74" d="M15.3846154,13.8461538 C12.5723077,12.4415385 10.0261538,19.3784615 6.99076923,17.5953846 C5.03846154,16.4523077 3.07076923,15.2630769 1.03384615,13.9523077 L1.03384615,21.9415385 L1.03230769,3.59538462 L1.03230769,0.481538462 C9.84461538,0.503076923 18.1061538,2.63230769 25.2415385,6.32615385 C25.6815385,9.04153846 26.0784615,11.9123077 26.52,14.9 C23.1569231,13.8723077 19.1969231,14.74 15.3846154,13.8461538" transform="matrix(1 0 0 -1 80.19 153.637)"/>
    <path fill="#D19C74" d="M36.9230769,16.9230769 C37.72,16.7723077 38.5646154,16.6569231 39.4430769,16.5676923 C39.5369231,16.56 39.6307692,16.5446154 39.7246154,16.5353846 C40.9061538,16.4261538 42.1369231,16.3523077 43.4723077,16.3523077 L43.4723077,35.0476923 C43.4276923,35.0476923 43.3830769,35.0415385 43.3415385,35.0415385 C42.2507692,35.0415385 41.1692308,35.0753846 40.0969231,35.14 C39.5276923,35.1723077 38.9769231,35.2384615 38.4184615,35.2876923 C37.9215385,35.3323077 37.4184615,35.3630769 36.9276923,35.42 C36.1661538,35.5123077 35.4169231,35.6338462 34.6646154,35.7523077 C34.3876923,35.8 34.1076923,35.8307692 33.8307692,35.8815385 C32.9476923,36.0384615 32.0769231,36.2246154 31.2092308,36.4261538 C31.0784615,36.4553846 30.9476923,36.4784615 30.82,36.5076923 C29.86,36.7369231 28.9107692,36.9953846 27.9738462,37.2769231 C27.9461538,37.2830769 27.9153846,37.2892308 27.8846154,37.3 C24.9769231,38.1738462 22.1892308,39.2892308 19.5523077,40.6169231 C12.1692308,44.3261538 5.94615385,49.6984615 1.50615385,56.1753846 C2.11230769,44.9276923 7.09846154,34.86 14.8323077,27.66 L14.8323077,14.3907692 C10.7938462,11.2476923 8.18461538,6.34615385 8.18461538,0.827692308 L42.5969231,0.827692308 C42.5969231,6.34615385 39.9892308,11.2476923 35.9476923,14.3907692 L35.9476923,17.0584615 C36.2707692,17.0015385 36.5984615,16.9738462 36.9230769,16.9230769" transform="matrix(1 0 0 -1 37.75 188.203)"/>
    <path fill="#F5C799" d="M29.2307692,13.8461538 L29.2307692,27.1138462 C37.0584615,34.4046154 42.0784615,44.6353846 42.5723077,56.0523077 C38.2261538,49.5461538 32.0984615,44.1261538 24.8,40.3476923 C21.2323077,38.5 17.3846154,37.0446154 13.3276923,36.0507692 C13.2707692,36.0338462 13.2138462,36.0246154 13.1569231,36.0092308 C12.2,35.78 11.2338462,35.5676923 10.2523077,35.3892308 C10.0815385,35.36 9.90461538,35.3384615 9.73692308,35.3092308 C8.86461538,35.16 7.98461538,35.0153846 7.10153846,34.9061538 C6.71384615,34.8584615 6.31538462,34.8384615 5.92461538,34.7984615 C5.24461538,34.7261538 4.56307692,34.6523077 3.87846154,34.6076923 C2.79076923,34.5430769 1.69538462,34.5046154 0.590769231,34.5030769 L0.590769231,15.8061538 C3.20615385,15.8061538 5.49230769,16.0353846 7.54461538,16.4338462 C7.73384615,16.4646154 7.92769231,16.48 8.11230769,16.5123077 L8.11230769,13.8461538 C4.07076923,10.7015385 1.46153846,5.80153846 1.46153846,0.283076923 L35.8784615,0.283076923 C35.8784615,5.80153846 33.2676923,10.7015385 29.2307692,13.8461538" transform="matrix(1 0 0 -1 80.63 187.657)"/>
    <path fill="#D19C74" d="M53.8461538,35.3846154 C50.9830769,35.3846154 48.6646154,33.0646154 48.6646154,30.2061538 C48.6646154,19.7430769 40.1507692,11.2276923 29.6876923,11.2276923 C19.9692308,11.2276923 11.9461538,18.5661538 10.8446154,27.9907692 C5.70615385,25.6707692 2.28923077,26.9446154 0.443076923,28.2523077 C1.46,12.9846154 14.1676923,0.869230769 29.6876923,0.869230769 C45.8615385,0.869230769 59.0230769,14.0276923 59.0230769,30.2061538 C59.0230769,33.0646154 56.7030769,35.3846154 53.8461538,35.3846154" transform="matrix(1 0 0 -1 5.565 188.527)"/>
    <path fill="#4B190D" d="M10.7692308,1.53846154 C10.6830769,2.26615385 10.6276923,3.00307692 10.6276923,3.75230769 C10.6276923,5.93076923 10.9938462,8.06615385 11.7169231,10.0984615 C12.6723077,12.7969231 11.26,15.7584615 8.56615385,16.7123077 C5.87076923,17.6692308 2.91384615,16.26 1.95538462,13.5630769 C0.836923077,10.4123077 0.273846154,7.11230769 0.273846154,3.75230769 C0.273846154,3.09384615 0.329230769,2.44923077 0.367692308,1.8 C2.21384615,0.490769231 5.63076923,-0.783076923 10.7692308,1.53846154" transform="matrix(1 0 0 -1 5.64 162.074)"/>
    <path fill="#AF5B2B" d="M158.461538,83.0769231 C158.461538,0.303076923 85.5261538,10.7446154 79.7261538,0.303076923 C67.1138462,12.7092308 0.992307692,0.303076923 0.992307692,83.0769231 C0.992307692,128.792308 11.18,165.855385 79.7261538,165.855385 C153.490769,165.855385 158.461538,128.792308 158.461538,83.0769231" transform="matrix(1 0 0 -1 1.47 168.317)"/>
    <path fill="#AF5B2B" d="M46.1538462,23.0769231 C46.1538462,10.6969231 36.12,0.663076923 23.7384615,0.663076923 C11.3630769,0.663076923 1.32615385,10.6969231 1.32615385,23.0769231 C1.32615385,35.4538462 11.3630769,45.4861538 23.7384615,45.4861538 C36.12,45.4861538 46.1538462,35.4538462 46.1538462,23.0769231" transform="matrix(1 0 0 -1 18.945 65.36)"/>
    <path fill="#4B190D" d="M26.1538462,13.8461538 C26.1538462,6.70615385 20.3692308,0.924615385 13.2323077,0.924615385 C6.09692308,0.924615385 0.315384615,6.70615385 0.315384615,13.8461538 C0.315384615,20.98 6.09692308,26.7630769 13.2323077,26.7630769 C20.3692308,26.7630769 26.1538462,20.98 26.1538462,13.8461538" transform="matrix(1 0 0 -1 29.452 56.13)"/>
    <path fill="#F5C799" d="M46.1538462,23.0769231 C46.1538462,10.6969231 36.1184615,0.663076923 23.7415385,0.663076923 C11.3630769,0.663076923 1.33076923,10.6969231 1.33076923,23.0769231 C1.33076923,35.4538462 11.3630769,45.4861538 23.7415385,45.4861538 C36.1184615,45.4861538 46.1538462,35.4538462 46.1538462,23.0769231" transform="matrix(1 0 0 -1 94.833 65.36)"/>
    <path fill="#4B190D" d="M26.1538462,13.8461538 C26.1538462,6.70615385 20.3738462,0.924615385 13.2353846,0.924615385 C6.09846154,0.924615385 0.313846154,6.70615385 0.313846154,13.8461538 C0.313846154,20.98 6.09846154,26.7630769 13.2353846,26.7630769 C20.3738462,26.7630769 26.1538462,20.98 26.1538462,13.8461538" transform="matrix(1 0 0 -1 105.34 56.13)"/>
    <path fill="#F5C799" d="M46.1538462,23.0769231 C46.1538462,10.6969231 36.12,0.663076923 23.7384615,0.663076923 C11.3630769,0.663076923 1.32615385,10.6969231 1.32615385,23.0769231 C1.32615385,35.4538462 11.3630769,45.4861538 23.7384615,45.4861538 C36.12,45.4861538 46.1538462,35.4538462 46.1538462,23.0769231" transform="matrix(1 0 0 -1 18.945 65.36)"/>
    <path fill="#4B190D" d="M26.1538462,13.8461538 C26.1538462,6.70615385 20.3692308,0.924615385 13.2323077,0.924615385 C6.09692308,0.924615385 0.315384615,6.70615385 0.315384615,13.8461538 C0.315384615,20.98 6.09692308,26.7630769 13.2323077,26.7630769 C20.3692308,26.7630769 26.1538462,20.98 26.1538462,13.8461538" transform="matrix(1 0 0 -1 29.452 56.13)"/>
    <path fill="#E96332" d="M1.53846154,1.53846154 L1.53846154,1.53384615 C1.55846154,1.53384615 1.57230769,1.53692308 1.58923077,1.53692308 C1.57230769,1.53692308 1.55846154,1.53846154 1.53846154,1.53846154" transform="matrix(1 0 0 -1 79.657 39.768)"/>
    <path fill="#07171B" d="M1.53846154,1.53846154 C1.53846154,1.53692308 1.53384615,1.53692308 1.53384615,1.53692308 C1.54153846,1.52461538 1.55230769,1.50923077 1.56,1.49692308 C1.55230769,1.50923077 1.54153846,1.52615385 1.53846154,1.53846154" transform="matrix(1 0 0 -1 72.076 135.236)"/>
    <path fill="#A84720" d="M1.53846154,1.53846154 C1.52153846,1.53846154 1.50461538,1.53692308 1.48461538,1.53692308 C1.50461538,1.53692308 1.52153846,1.53384615 1.53846154,1.53384615 L1.53846154,1.53846154 Z" transform="matrix(1 0 0 -1 79.762 39.768)"/>
    <path fill="#A84720" d="M1.53846154,1.53846154 L1.53846154,48.5353846 C1.52153846,48.5353846 1.50461538,48.5384615 1.48461538,48.5384615 C1.46769231,48.5384615 1.45230769,48.5353846 1.43384615,48.5353846 L1.43384615,1.52923077 C1.46769231,1.52923077 1.50461538,1.53846154 1.53846154,1.53846154" transform="matrix(1 0 0 -1 79.762 86.77)"/>
    <path fill="#A84720" d="M1.53846154,1.53846154 C1.55846154,1.53846154 1.57230769,1.53538462 1.58923077,1.53538462 C1.60923077,1.53538462 1.62769231,1.53846154 1.64307692,1.53846154 L1.64307692,30.2461538 L1.64307692,47.9953846 C1.60923077,47.9953846 1.57230769,47.9861538 1.53846154,47.9861538 L1.53846154,30.2461538 L1.53846154,1.53846154 Z" transform="matrix(1 0 0 -1 79.657 133.227)"/>
    <path fill="#A84720" d="M1.53846154,1.53846154 L1.53846154,1.53076923 C1.55846154,1.53076923 1.57230769,1.53538462 1.58923077,1.53538462 C1.57230769,1.53538462 1.55846154,1.53846154 1.53846154,1.53846154" transform="matrix(1 0 0 -1 79.657 133.227)"/>
    <path fill="#D19C74" d="M1.53846154,52.3076923 C1.59846154,38.08 5.38615385,13.7938462 5.38615385,13.7938462 C5.38615385,13.7938462 6.58,9.08 29.2523077,0.989230769 L29.2523077,11.7815385 C29.2523077,19.8523077 30.2384615,23.8092308 31.12,25.7476923 C40.3523077,22.0984615 47.3984615,17.6738462 49.2292308,13.82 C51.5076923,15.0861538 54.0969231,15.8707692 56.8907692,15.8707692 L56.8907692,44.5815385 L56.8907692,109.329231 C14.8753846,109.329231 1.40923077,82.0261538 1.53846154,52.3076923" transform="matrix(1 0 0 -1 24.38 139.272)"/>
    <path fill="#D5D2B1" d="M10.7692308,36.9230769 C8.50615385,35.9938462 6.33692308,34.8369231 4.51384615,33.3523077 C4.51384615,33.3523077 1.27384615,32.1953846 1.27384615,17.5661538 L1.27384615,6.77230769 C9.82153846,3.72307692 18.6892308,1.23076923 28.8630769,1.23076923 L28.9430769,35.6892308 C19.4138462,40.3769231 15.6123077,38.4553846 10.7692308,36.9230769" transform="matrix(1 0 0 -1 52.359 145.057)"/>
    <path fill="#F5C799" d="M52.3076923,13.8461538 C52.3076923,13.8461538 56.0461538,38.5876923 56.16,52.3430769 C56.4138462,82.0615385 42.82,109.366154 0.809230769,109.366154 L0.809230769,44.6169231 L0.809230769,29.9769231 C10.28,34.6169231 14.08,32.7015385 18.9061538,31.1753846 C21.1723077,30.2446154 23.3430769,29.0876923 25.1676923,27.6030769 C25.1676923,27.6030769 28.4046154,26.4461538 28.4046154,11.8184615 L28.4046154,1.04461538 C51.0907692,9.13076923 52.3076923,13.8461538 52.3076923,13.8461538" transform="matrix(1 0 0 -1 80.39 139.308)"/>
    <path fill="#F6F3CF" d="M1.53846154,3.07692308 L1.49230769,21.4323077 L1.48769231,21.4323077 L1.48769231,24.1307692 L1.45692308,35.4661538 C1.46769231,35.4723077 1.47692308,35.4769231 1.48769231,35.48 L1.48769231,35.5015385 C1.46307692,35.4876923 1.43846154,35.48 1.41538462,35.4661538 L1.49846154,1.00615385 C10.1507692,1.00615385 18.6446154,3.03230769 26.4876923,5.65846154 C18.6630769,3.19230769 10.2107692,1.96461538 1.53846154,3.07692308" transform="matrix(1 0 0 -1 79.713 144.833)"/>
    <path fill="#F6F3CF" d="M24.6153846,30.7692308 C22.7892308,32.2538462 20.6184615,33.4107692 18.3538462,34.34 C13.5276923,35.8661538 9.72615385,37.7830769 0.256923077,33.1430769 L0.256923077,33.12 C0.246153846,33.1169231 0.236923077,33.1123077 0.226153846,33.1076923 L0.256923077,21.7707692 L0.256923077,19.0723077 L0.261538462,19.0723077 L0.307692308,0.718461538 C8.98,-0.393846154 17.4323077,0.833846154 25.2569231,3.3 C26.1369231,3.57846154 26.9892308,3.90307692 27.8523077,4.20923077 L27.8523077,14.9830769 C27.8523077,29.6123077 24.6153846,30.7692308 24.6153846,30.7692308" transform="matrix(1 0 0 -1 80.943 142.474)"/>
    <path fill="#F6F3CF" d="M3.07692308,1.53846154 L3.07692308,1.55846154 C2.21384615,1.25076923 1.36307692,0.927692308 0.481538462,0.647692308 C1.35538462,0.94 2.22307692,1.23692308 3.07692308,1.53846154" transform="matrix(1 0 0 -1 105.718 139.822)"/>
    <path fill="#4B190D" d="M0,18.4615385 C0,18.4615385 23.0446154,25.1461538 22.5261538,1.70923077 C22.5261538,1.70923077 0,-6.47230769 0,18.4615385" transform="matrix(1 0 0 -1 44.044 95.408)"/>
    <path fill="#B66916" d="M18.4615385,9.23076923 C18.4615385,4.51230769 14.6353846,0.683076923 9.91384615,0.683076923 C5.19846154,0.683076923 1.37230769,4.51230769 1.37230769,9.23076923 C1.37230769,13.9507692 5.19846154,17.7769231 9.91384615,17.7769231 C14.6353846,17.7769231 18.4615385,13.9507692 18.4615385,9.23076923" transform="matrix(1 0 0 -1 45.66 95.003)"/>
    <path fill="#FFF" d="M6.15384615,3.07692308 C6.15384615,1.44615385 4.83538462,0.129230769 3.20769231,0.129230769 C1.58153846,0.129230769 0.261538462,1.44615385 0.261538462,3.07692308 C0.261538462,4.70307692 1.58153846,6.01846154 3.20769231,6.01846154 C4.83538462,6.01846154 6.15384615,4.70307692 6.15384615,3.07692308" transform="matrix(1 0 0 -1 55.224 85.318)"/>
    <path fill="#4B190D" d="M23.0769231,18.4615385 C23.0769231,18.4615385 0.0323076923,25.1461538 0.546153846,1.70923077 C0.546153846,1.70923077 23.0769231,-6.47230769 23.0769231,18.4615385" transform="matrix(1 0 0 -1 95.499 95.408)"/>
    <path fill="#B66916" d="M0,9.23076923 C0,4.51230769 3.82615385,0.683076923 8.54307692,0.683076923 C13.26,0.683076923 17.0861538,4.51230769 17.0861538,9.23076923 C17.0861538,13.9507692 13.26,17.7769231 8.54307692,17.7769231 C3.82615385,17.7769231 0,13.9507692 0,9.23076923" transform="matrix(1 0 0 -1 98.352 95.003)"/>
    <path fill="#FFF" d="M0,3.07692308 C0,1.44615385 1.31538462,0.129230769 2.94461538,0.129230769 C4.57076923,0.129230769 5.89076923,1.44615385 5.89076923,3.07692308 C5.89076923,4.70307692 4.57076923,6.01846154 2.94461538,6.01846154 C1.31538462,6.01846154 0,4.70307692 0,3.07692308" transform="matrix(1 0 0 -1 107.31 85.318)"/>
    <path fill="#D76C79" d="M13.8461538,0 C12.5630769,0.232307692 11.4738462,0.790769231 10.7476923,1.63538462 C7.34769231,5.62153846 2.85846154,8.38615385 0.466153846,9.73538462 C2.79846154,10.4461538 7.62769231,11.5384615 15.16,11.5384615 C22.5953846,11.5384615 27.4630769,10.4369231 29.8138462,9.73230769 C25.5061538,7.1 21.8692308,4.27538462 19.2353846,1.50923077 C18.5030769,0.743076923 17.5307692,0.235384615 16.3415385,0 L13.8461538,0 Z" transform="matrix(1 0 0 -1 66.01 117.617)"/>
    <path fill="#4B190D" fill-rule="nonzero" d="M16.9230769,13.8461538 C5.56923077,13.8461538 0.138461538,11.3569231 0.175384615,11.3569231 L0.178461538,11.3569231 C0.309230769,11.1707692 7.18,8.02153846 11.8630769,2.53384615 C12.8430769,1.38461538 14.2307692,0.836923077 15.6092308,0.598461538 L18.1861538,0.598461538 C19.4538462,0.833846154 20.6723077,1.38307692 21.6184615,2.37230769 C26.5015385,7.50307692 33.5246154,11.3169231 33.5830769,11.3861538 C33.5830769,11.3861538 28.1569231,13.8461538 16.9230769,13.8461538 M16.9230769,12.1384615 C22.6507692,12.1384615 26.8230769,11.4753846 29.46,10.86 C25.8153846,8.49538462 22.7123077,6.00153846 20.3815385,3.55384615 C19.7892308,2.93230769 18.9953846,2.51230769 18.02,2.30923077 L15.7630769,2.30923077 C14.6046154,2.52923077 13.7292308,2.97846154 13.1630769,3.64153846 C10.4,6.88153846 6.95692308,9.32153846 4.43384615,10.8784615 C7.07692308,11.4907692 11.2230769,12.1384615 16.9230769,12.1384615" transform="matrix(1 0 0 -1 64.247 119.07)"/>
    <path fill="#4B190D" d="M24.6153846,9.23076923 C22.5061538,5.58923077 19.84,3.52615385 16.6892308,3.09692308 C9.55538462,2.14 1.98,9.61076923 1.90615385,9.68307692 C1.5,10.0938462 0.843076923,10.0938462 0.438461538,9.68769231 C0.0338461538,9.28307692 0.0338461538,8.62923077 0.436923077,8.22307692 C0.750769231,7.90769231 7.78461538,0.936923077 15.3692308,0.936923077 C15.9,0.936923077 16.4307692,0.970769231 16.9630769,1.04307692 C20.4015385,1.51230769 23.3153846,3.51076923 25.6507692,6.98615385 C27.9815385,3.51076923 30.8984615,1.51230769 34.3353846,1.04307692 C34.8661538,0.970769231 35.4046154,0.936923077 35.9307692,0.936923077 C43.5153846,0.936923077 50.5476923,7.90769231 50.8661538,8.22307692 C51.2676923,8.62923077 51.2661538,9.28307692 50.8630769,9.69230769 C50.4553846,10.0923077 49.7969231,10.0923077 49.3938462,9.68307692 C49.32,9.61076923 41.7569231,2.14769231 34.6184615,3.09692308 C31.4553846,3.53384615 28.8030769,5.57692308 26.6861538,9.23076923 L26.6861538,14.8661538 C26.7630769,14.88 26.8369231,14.9030769 26.9138462,14.9169231 L24.3353846,14.9169231 C24.4292308,14.9030769 24.5215385,14.8738462 24.6153846,14.86 L24.6153846,9.23076923 Z" transform="matrix(1 0 0 -1 55.52 133.39)"/>
    <path fill="#8E6451" d="M1.53846154,0 C1.28461538,0 1.03538462,0.0907692308 0.835384615,0.273846154 C0.415384615,0.66 0.386153846,1.31384615 0.772307692,1.73538462 C21.2338462,24.0584615 52.9953846,11.5661538 53.3107692,11.4338462 C53.8430769,11.22 54.0984615,10.6169231 53.8846154,10.0876923 C53.6692308,9.55384615 53.0661538,9.30307692 52.5338462,9.51538462 C52.2338462,9.63692308 21.7815385,21.5846154 2.3,0.336923077 C2.09230769,0.113846154 1.81692308,0 1.53846154,0" transform="matrix(1 0 0 -1 4.375 124.732)"/>
    <path fill="#8E6451" d="M1.53846154,0 C1.27846154,0 1.01692308,0.0953846154 0.815384615,0.290769231 C0.404615385,0.689230769 0.395384615,1.34615385 0.790769231,1.75692308 C19.96,21.5123077 44.9507692,14.86 45.2030769,14.7953846 C45.7538462,14.6415385 46.0769231,14.0707692 45.9276923,13.52 C45.7723077,12.9661538 45.2107692,12.6446154 44.6492308,12.7984615 C44.4107692,12.8615385 20.5661538,19.1676923 2.27846154,0.315384615 C2.07846154,0.104615385 1.80923077,0 1.53846154,0" transform="matrix(1 0 0 -1 11.11 131.245)"/>
    <path fill="#8E6451" d="M1.53846154,0 C1.33076923,0 1.12307692,0.0615384615 0.938461538,0.190769231 C0.472307692,0.518461538 0.361538462,1.16461538 0.689230769,1.63230769 C13.9646154,20.4953846 36.1938462,18.6569231 36.4107692,18.6415385 C36.98,18.5892308 37.4015385,18.0830769 37.3476923,17.5138462 C37.2969231,16.9492308 36.8261538,16.52 36.22,16.5769231 C36.0169231,16.5984615 14.9569231,18.3061538 2.38461538,0.44 C2.18153846,0.153846154 1.86307692,0 1.53846154,0" transform="matrix(1 0 0 -1 19.72 138.497)"/>
    <path fill="#8E6451" d="M53.8461538,0 C53.5630769,0 53.2876923,0.113846154 53.08,0.336923077 C33.5984615,21.5846154 3.14923077,9.63692308 2.84615385,9.51538462 C2.31538462,9.30307692 1.70923077,9.55692308 1.49692308,10.0876923 C1.28,10.6169231 1.53846154,11.22 2.06923077,11.4338462 C2.38615385,11.5661538 34.1461538,24.0584615 54.6076923,1.73538462 C54.9923077,1.31384615 54.9661538,0.66 54.5430769,0.273846154 C54.3446154,0.0907692308 54.0969231,0 53.8461538,0" transform="matrix(1 0 0 -1 101.113 124.732)"/>
    <path fill="#8E6451" d="M44.6153846,0 C44.3430769,0 44.0769231,0.104615385 43.8769231,0.315384615 C25.5538462,19.1938462 1.74307692,12.8646154 1.50615385,12.7984615 C0.949230769,12.6430769 0.383076923,12.9692308 0.230769231,13.5184615 C0.0769230769,14.0707692 0.398461538,14.6415385 0.950769231,14.7953846 C1.19846154,14.86 26.1938462,21.5123077 45.3630769,1.75692308 C45.7584615,1.34615385 45.7476923,0.689230769 45.34,0.290769231 C45.1353846,0.0969230769 44.8769231,0 44.6153846,0" transform="matrix(1 0 0 -1 103.604 131.245)"/>
    <path fill="#8E6451" d="M36.9230769,0 C36.5953846,0 36.2753846,0.153846154 36.0769231,0.44 C23.4969231,18.3092308 2.44615385,16.5969231 2.23538462,16.5769231 C1.64307692,16.5353846 1.16307692,16.9492308 1.11076923,17.5138462 C1.05846154,18.0830769 1.47846154,18.5892308 2.05076923,18.6415385 C2.26461538,18.6569231 24.4923077,20.4969231 37.7707692,1.63230769 C38.0984615,1.16461538 37.9861538,0.518461538 37.5184615,0.190769231 C37.34,0.0615384615 37.1276923,0 36.9230769,0" transform="matrix(1 0 0 -1 102.69 138.497)"/>
    <polygon fill="#AF5B2B" points="20 0 1.511 21.988 20 32.631 37.623 22.26" transform="matrix(1 0 0 -1 61.128 54.082)"/>
  </g>
</svg>
