<?xml version="1.0" encoding="UTF-8" standalone="no"?>
<!-- Created with Inkscape (http://www.inkscape.org/) -->

<svg
   xmlns:dc="http://purl.org/dc/elements/1.1/"
   xmlns:cc="http://creativecommons.org/ns#"
   xmlns:rdf="http://www.w3.org/1999/02/22-rdf-syntax-ns#"
   xmlns:svg="http://www.w3.org/2000/svg"
   xmlns="http://www.w3.org/2000/svg"
   version="1.1"
   width="121.06963"
   height="155.30499"
   id="svg16151">
  <defs
     id="defs16153" />
  <metadata
     id="metadata16156">
    <rdf:RDF>
      <cc:Work
         rdf:about="">
        <dc:format>image/svg+xml</dc:format>
        <dc:type
           rdf:resource="http://purl.org/dc/dcmitype/StillImage" />
        <dc:title></dc:title>
      </cc:Work>
    </rdf:RDF>
  </metadata>
  <g
     transform="translate(-314.46518,-454.70968)"
     id="layer1">
    <path
       d="m 372.19456,604.36818 -17.28,0 0,-18.7175 17.28,0 0,18.7175 z"
       id="path3456"
       style="fill:#723e2b;fill-opacity:1;fill-rule:nonzero;stroke:none" />
    <path
       d="m 397.70456,604.36818 -17.28375,0 0,-18.7175 17.28375,0 0,18.7175 z"
       id="path3458"
       style="fill:#8e6451;fill-opacity:1;fill-rule:nonzero;stroke:none" />
    <g
       transform="matrix(1.25,0,0,-1.25,363.55481,597.83218)"
       id="g3460">
      <path
         d="m 0,0 c -5.383,0 -9.745,-4.362 -9.745,-9.746 l 19.489,0 C 9.744,-4.362 5.382,0 0,0"
         id="path3462"
         style="fill:#f5c799;fill-opacity:1;fill-rule:nonzero;stroke:none" />
    </g>
    <g
       transform="matrix(1.25,0,0,-1.25,389.06018,597.83218)"
       id="g3464">
      <path
         d="m 0,0 c -5.381,0 -9.745,-4.362 -9.745,-9.746 l 19.493,0 C 9.748,-4.362 5.384,0 0,0"
         id="path3466"
         style="fill:#f5c799;fill-opacity:1;fill-rule:nonzero;stroke:none" />
    </g>
    <g
       transform="matrix(1.25,0,0,-1.25,348.81118,558.41443)"
       id="g3468">
      <path
         d="m 0,0 c -0.719,-2.211 -1.12,-4.564 -1.12,-7.016 0,-12.515 10.146,-22.661 22.659,-22.661 l 0,18.957 C 12.436,-10.72 4.479,-6.426 0,0"
         id="path3470"
         style="fill:#723e2b;fill-opacity:1;fill-rule:nonzero;stroke:none" />
    </g>
    <g
       transform="matrix(1.25,0,0,-1.25,375.73506,571.81418)"
       id="g3472">
      <path
         d="m 0,0 0,-18.957 c 12.515,0 22.661,10.145 22.661,22.661 0,2.451 -0.4,4.805 -1.118,7.016 C 17.061,4.294 9.104,0 0,0"
         id="path3474"
         style="fill:#8e6451;fill-opacity:1;fill-rule:nonzero;stroke:none" />
    </g>
    <g
       transform="matrix(1.25,0,0,-1.25,375.73506,538.86131)"
       id="g3476">
      <path
         d="M 0,0 C -10.061,0 -18.583,-6.563 -21.539,-15.643 -17.06,-22.068 -9.104,-26.362 0,-26.362 c 9.104,0 17.061,4.294 21.543,10.719 C 18.584,-6.563 10.063,0 0,0"
         id="path3478"
         style="fill:#723e2b;fill-opacity:1;fill-rule:nonzero;stroke:none" />
    </g>
    <g
       transform="matrix(1.25,0,0,-1.25,344.47893,517.10593)"
       id="g3480">
      <path
         d="m 0,0 c 0,-6.63 -5.374,-12.006 -12.006,-12.006 -6.631,0 -12.005,5.376 -12.005,12.006 0,6.631 5.374,12.007 12.005,12.007 C -5.374,12.007 0,6.631 0,0"
         id="path3482"
         style="fill:#723e2b;fill-opacity:1;fill-rule:nonzero;stroke:none" />
    </g>
    <g
       transform="matrix(1.25,0,0,-1.25,339.25181,517.10593)"
       id="g3484">
      <path
         d="m 0,0 c 0,-4.32 -3.503,-7.824 -7.824,-7.824 -4.322,0 -7.824,3.504 -7.824,7.824 0,4.322 3.502,7.824 7.824,7.824 C -3.503,7.824 0,4.322 0,0"
         id="path3486"
         style="fill:#d76c79;fill-opacity:1;fill-rule:nonzero;stroke:none" />
    </g>
    <g
       transform="matrix(1.25,0,0,-1.25,435.53481,517.10593)"
       id="g3488">
      <path
         d="m 0,0 c 0,-6.63 -5.376,-12.006 -12.007,-12.006 -6.633,0 -12.006,5.376 -12.006,12.006 0,6.631 5.373,12.007 12.006,12.007 C -5.376,12.007 0,6.631 0,0"
         id="path3490"
         style="fill:#8e6451;fill-opacity:1;fill-rule:nonzero;stroke:none" />
    </g>
    <g
       transform="matrix(1.25,0,0,-1.25,430.30531,517.10593)"
       id="g3492">
      <path
         d="m 0,0 c 0,-4.32 -3.504,-7.824 -7.823,-7.824 -4.32,0 -7.825,3.504 -7.825,7.824 0,4.322 3.505,7.824 7.825,7.824 C -3.504,7.824 0,4.322 0,0"
         id="path3494"
         style="fill:#d76c79;fill-opacity:1;fill-rule:nonzero;stroke:none" />
    </g>
    <g
       transform="matrix(1.25,0,0,-1.25,382.08268,454.70968)"
       id="g3496">
      <path
         d="m 0,0 c 0.242,-1.438 -0.242,-5.067 -3.729,-9.019 -1.538,-1.741 -1.398,-1.386 -1.986,-2.262 -0.589,-0.879 -1.315,-1.664 -2.201,-2.344 -0.901,-0.667 -1.204,-1.061 -2.634,-1.373 -0.247,1.442 -0.434,1.719 -0.535,3.506 -0.061,1.113 0.187,2.672 0.777,3.546 0.594,0.875 1.251,1.803 2.674,2.774 C -6.729,-4.504 -1.283,-2.428 0,0"
         id="path3498"
         style="fill:#723e2b;fill-opacity:1;fill-rule:nonzero;stroke:none" />
    </g>
    <g
       transform="matrix(1.25,0,0,-1.25,387.59168,459.55706)"
       id="g3500">
      <path
         d="m 0,0 c 0.245,-1.437 -0.798,-7.957 -3.435,-8.954 -0.294,-1.074 -2.023,-0.6 -2.611,-1.479 -0.586,-0.878 -1.316,-1.662 -2.201,-2.34 -0.899,-0.667 -1.925,-1.253 -3.356,-1.565 -0.247,1.441 -0.093,2.61 0.188,3.697 0.296,1.075 0.657,3.978 3.547,5.257 C -3.681,-3.53 -1.908,-2.429 0,0"
         id="path3502"
         style="fill:#723e2b;fill-opacity:1;fill-rule:nonzero;stroke:none" />
    </g>
    <g
       transform="matrix(1.25,0,0,-1.25,329.08956,515.16256)"
       id="g3504">
      <path
         d="m 0,0 c 0,-20.608 16.708,-37.316 37.316,-37.316 l 0,74.632 C 16.708,37.316 0,20.609 0,0"
         id="path3506"
         style="fill:#723e2b;fill-opacity:1;fill-rule:nonzero;stroke:none" />
    </g>
    <g
       transform="matrix(1.25,0,0,-1.25,422.38056,515.16256)"
       id="g3508">
      <path
         d="m 0,0 c 0,20.609 -16.706,37.316 -37.316,37.316 l 0,-74.632 C -16.706,-37.316 0,-20.608 0,0"
         id="path3510"
         style="fill:#8e6451;fill-opacity:1;fill-rule:nonzero;stroke:none" />
    </g>
    <g
       transform="matrix(1.25,0,0,-1.25,416.88131,511.70918)"
       id="g3512">
      <path
         d="m 0,0 c 0,9.237 -7.49,16.727 -16.729,16.727 -7.803,0 -14.337,-5.351 -16.188,-12.578 -1.848,7.227 -8.384,12.578 -16.187,12.578 -9.238,0 -16.728,-7.49 -16.728,-16.727 0,-9.239 7.49,-16.728 16.728,-16.728 l 0,-8.632 c 0,-9.24 7.49,-16.727 16.728,-16.727 9.238,0 16.728,7.487 16.728,16.727 l 0,8.687 C -6.917,-16.114 0,-8.874 0,0"
         id="path3514"
         style="fill:#f5c799;fill-opacity:1;fill-rule:nonzero;stroke:none" />
    </g>
    <g
       transform="matrix(1.25,0,0,-1.25,373.37543,532.28168)"
       id="g3516">
      <path
         d="m 0,0 c 0,-1.341 -1.087,-2.427 -2.428,-2.427 -1.342,0 -2.426,1.086 -2.426,2.427 0,1.343 1.084,2.429 2.426,2.429 C -1.087,2.429 0,1.343 0,0"
         id="path3518"
         style="fill:#411611;fill-opacity:1;fill-rule:nonzero;stroke:none" />
    </g>
    <g
       transform="matrix(1.25,0,0,-1.25,384.16518,532.28168)"
       id="g3520">
      <path
         d="m 0,0 c 0,-1.341 -1.085,-2.427 -2.428,-2.427 -1.34,0 -2.428,1.086 -2.428,2.427 0,1.343 1.088,2.429 2.428,2.429 C -1.085,2.429 0,1.343 0,0"
         id="path3522"
         style="fill:#411611;fill-opacity:1;fill-rule:nonzero;stroke:none" />
    </g>
    <g
       transform="matrix(1.25,0,0,-1.25,362.41106,513.73556)"
       id="g3524">
      <path
         d="M 0,0 C 0,-3.313 -2.686,-5.998 -5.997,-5.998 -9.312,-5.998 -12,-3.313 -12,0 -12,3.314 -9.312,6.003 -5.997,6.003 -2.686,6.003 0,3.314 0,0"
         id="path3526"
         style="fill:#411611;fill-opacity:1;fill-rule:nonzero;stroke:none" />
    </g>
    <g
       transform="matrix(1.25,0,0,-1.25,404.06143,513.73556)"
       id="g3528">
      <path
         d="m 0,0 c 0,-3.313 -2.687,-5.998 -6.001,-5.998 -3.312,0 -6,2.685 -6,5.998 0,3.314 2.688,6.003 6,6.003 C -2.687,6.003 0,3.314 0,0"
         id="path3530"
         style="fill:#411611;fill-opacity:1;fill-rule:nonzero;stroke:none" />
    </g>
    <g
       transform="matrix(1.25,0,0,-1.25,359.94393,511.23181)"
       id="g3532">
      <path
         d="m 0,0 c 0,-1.104 -0.896,-2.001 -2,-2.001 -1.104,0 -2,0.897 -2,2.001 0,1.105 0.896,2.001 2,2.001 1.104,0 2,-0.896 2,-2.001"
         id="path3534"
         style="fill:#ffffff;fill-opacity:1;fill-rule:nonzero;stroke:none" />
    </g>
    <g
       transform="matrix(1.25,0,0,-1.25,401.56143,511.23181)"
       id="g3536">
      <path
         d="m 0,0 c 0,-1.104 -0.897,-2.001 -2.003,-2.001 -1.103,0 -2,0.897 -2,2.001 0,1.105 0.897,2.001 2,2.001 C -0.897,2.001 0,1.105 0,0"
         id="path3538"
         style="fill:#ffffff;fill-opacity:1;fill-rule:nonzero;stroke:none" />
    </g>
    <g
       transform="matrix(1.25,0,0,-1.25,375.73506,557.66131)"
       id="g3540">
      <path
         d="M 0,0 C -6.091,0 -8.519,3.426 -8.618,3.571 -8.793,3.824 -8.729,4.17 -8.478,4.345 -8.225,4.52 -7.879,4.454 -7.706,4.201 -7.607,4.066 -5.463,1.11 0,1.11 5.016,1.11 7.715,4.215 7.74,4.247 7.94,4.479 8.291,4.508 8.523,4.311 8.756,4.11 8.785,3.761 8.585,3.527 8.463,3.383 5.524,0 0,0"
         id="path3542"
         style="fill:#411611;fill-opacity:1;fill-rule:nonzero;stroke:none" />
    </g>
    <g
       transform="matrix(1.25,0,0,-1.25,389.48018,583.87831)"
       id="g3544">
      <path
         d="m 0,0 c -3.129,0 -5.666,2.536 -5.666,5.666 0,3.129 2.537,5.665 5.666,5.665"
         id="path3546"
         style="fill:#f5c799;fill-opacity:1;fill-rule:nonzero;stroke:none" />
    </g>
    <g
       transform="matrix(1.25,0,0,-1.25,361.99231,583.87831)"
       id="g3548">
      <path
         d="M 0,0 C 3.128,0 5.664,2.536 5.664,5.666 5.664,8.795 3.128,11.331 0,11.331"
         id="path3550"
         style="fill:#f5c799;fill-opacity:1;fill-rule:nonzero;stroke:none" />
    </g>
    <g
       transform="matrix(1.25,0,0,-1.25,355.36631,569.11156)"
       id="g3552">
      <path
         d="m 0,0 c -1.788,0 -3.236,-1.449 -3.236,-3.236 0,-5.468 -4.45,-9.917 -9.916,-9.917 -5.468,0 -9.913,4.449 -9.913,9.917 0,3.698 2.039,6.924 5.048,8.631 -2.675,1.978 -2.229,5.123 -1.956,6.252 -5.636,-2.593 -9.568,-8.282 -9.568,-14.883 0,-9.036 7.351,-16.392 16.389,-16.392 9.036,0 16.39,7.356 16.39,16.392 C 3.238,-1.449 1.787,0 0,0"
         id="path3554"
         style="fill:#723e2b;fill-opacity:1;fill-rule:nonzero;stroke:none" />
    </g>
    <g
       transform="matrix(1.25,0,0,-1.25,332.84556,562.36831)"
       id="g3556">
      <path
         d="m 0,0 c 1.438,0.814 3.095,1.283 4.864,1.283 1.787,0 3.239,1.45 3.239,3.238 C 8.103,6.31 6.651,7.76 4.864,7.76 2.43,7.76 0.124,7.21 -1.956,6.253 -2.229,5.123 -2.676,1.979 0,0"
         id="path3558"
         style="fill:#f5c799;fill-opacity:1;fill-rule:nonzero;stroke:none" />
    </g>
  </g>
</svg>
