<svg xmlns="http://www.w3.org/2000/svg" width="160" height="190" viewBox="0 0 160 190">
  <g fill="none" fill-rule="evenodd" transform="translate(5)">
    <polygon fill="#723E2B" points="71.826 181.172 51.047 181.172 51.047 158.663 71.826 158.663"/>
    <polygon fill="#8E6451" points="102.503 181.172 81.719 181.172 81.719 158.663 102.503 158.663"/>
    <path fill="#F5C799" d="M15.0316456,15.0316456 C6.94011076,15.0316456 0.383306962,8.47484177 0.383306962,0.381803797 L29.678481,0.381803797 C29.678481,8.47484177 23.1216772,15.0316456 15.0316456,15.0316456" transform="matrix(1 0 0 -1 46.405 188.344)"/>
    <path fill="#F5C799" d="M15.0316456,15.0316456 C6.94311709,15.0316456 0.383306962,8.47484177 0.383306962,0.381803797 L29.6844937,0.381803797 C29.6844937,8.47484177 23.1246835,15.0316456 15.0316456,15.0316456" transform="matrix(1 0 0 -1 77.076 188.344)"/>
    <path fill="#723E2B" d="M3.00632911,45.0949367 C1.9255538,41.7714399 1.32278481,38.2344937 1.32278481,34.5487342 C1.32278481,15.7366297 16.5738924,0.485522152 35.3829905,0.485522152 L35.3829905,28.9810127 C21.6996835,28.9810127 9.73900316,35.4356013 3.00632911,45.0949367" transform="matrix(1 0 0 -1 40.7 171.006)"/>
    <path fill="#8E6451" d="M0,28.5601266 L0,0.0646360759 C18.8121044,0.0646360759 34.063212,15.3142405 34.063212,34.1278481 C34.063212,37.8121044 33.4619462,41.3505538 32.3826741,44.6740506 C25.6454905,35.0147152 13.6848101,28.5601266 0,28.5601266" transform="matrix(1 0 0 -1 76.084 170.585)"/>
    <path fill="#723E2B" d="M33.0696203,40.585443 C17.9462816,40.585443 5.13631329,30.7201741 0.692958861,17.0714399 C7.42563291,7.41360759 19.3848101,0.959018987 33.0696203,0.959018987 C46.7544304,0.959018987 58.7151108,7.41360759 65.4522943,17.0714399 C61.0044304,30.7201741 48.1959652,40.585443 33.0696203,40.585443" transform="matrix(1 0 0 -1 43.014 142.983)"/>
    <path fill="#723E2B" d="M37.5791139,19.5411392 C37.5791139,9.57515823 29.5011076,1.49414557 19.5321203,1.49414557 C9.56463608,1.49414557 1.48662975,9.57515823 1.48662975,19.5411392 C1.48662975,29.5086234 9.56463608,37.5896361 19.5321203,37.5896361 C29.5011076,37.5896361 37.5791139,29.5086234 37.5791139,19.5411392" transform="matrix(1 0 0 -1 .918 95.777)"/>
    <path fill="#D76C79" d="M24.0506329,12.0253165 C24.0506329,5.53164557 18.7850475,0.264556962 12.2898734,0.264556962 C5.7931962,0.264556962 0.529113924,5.53164557 0.529113924,12.0253165 C0.529113924,18.5219937 5.7931962,23.7860759 12.2898734,23.7860759 C18.7850475,23.7860759 24.0506329,18.5219937 24.0506329,12.0253165" transform="matrix(1 0 0 -1 8.161 88.261)"/>
    <path fill="#8E6451" d="M37.5791139,19.5411392 C37.5791139,9.57515823 29.4981013,1.49414557 19.5306171,1.49414557 C9.56012658,1.49414557 1.48362342,9.57515823 1.48362342,19.5411392 C1.48362342,29.5086234 9.56012658,37.5896361 19.5306171,37.5896361 C29.4981013,37.5896361 37.5791139,29.5086234 37.5791139,19.5411392" transform="matrix(1 0 0 -1 110.416 95.777)"/>
    <path fill="#D76C79" d="M24.0506329,12.0253165 C24.0506329,5.53164557 18.7835443,0.264556962 12.2913766,0.264556962 C5.7977057,0.264556962 0.529113924,5.53164557 0.529113924,12.0253165 C0.529113924,18.5219937 5.7977057,23.7860759 12.2913766,23.7860759 C18.7835443,23.7860759 24.0506329,18.5219937 24.0506329,12.0253165" transform="matrix(1 0 0 -1 117.656 88.261)"/>
    <path fill="#723E2B" d="M18.0379747,22.5474684 C18.4017405,20.3859177 17.6742089,14.9309335 12.4326741,8.99042722 C10.120807,6.37341772 10.33125,6.90704114 9.44738924,5.59026899 C8.56202532,4.26898734 7.47072785,3.08900316 6.13892405,2.06685127 C4.78457278,1.06424051 4.32911392,0.471993671 2.17958861,0.00300632911 C1.80830696,2.17056962 1.52721519,2.5869462 1.37539557,5.27310127 C1.28370253,6.94612342 1.65648734,9.28955696 2.54335443,10.6033228 C3.43623418,11.9185918 4.42381329,13.3135285 6.56281646,14.7731013 C7.92318038,15.7772152 16.1094146,18.8977848 18.0379747,22.5474684" transform="matrix(1 0 0 -1 65.68 23.75)"/>
    <path fill="#723E2B" d="M18.0379747,22.5474684 C18.40625,20.3874209 16.8384494,10.586788 12.8746044,9.08813291 C12.4326741,7.47373418 9.83370253,8.18623418 8.94984177,6.86495253 C8.06898734,5.54517405 6.97167722,4.36669304 5.64137658,3.34754747 C4.29003165,2.34493671 2.74778481,1.46408228 0.596756329,0.995094937 C0.225474684,3.16115506 0.456962025,4.91835443 0.879351266,6.5522943 C1.32428797,8.1681962 1.86693038,12.5318829 6.21107595,14.4544304 C12.5048259,17.2412975 15.1699367,18.8962816 18.0379747,22.5474684" transform="matrix(1 0 0 -1 72.304 29.58)"/>
    <path fill="#723E2B" d="M0,57.1202532 C0,26.143038 25.1148734,1.02816456 56.0920886,1.02816456 L56.0920886,113.212342 C25.1148734,113.212342 0,88.0989715 0,57.1202532" transform="matrix(1 0 0 -1 19.991 131.02)"/>
    <path fill="#8E6451" d="M57.1202532,57.1202532 C57.1202532,88.0989715 32.0083861,113.212342 1.02816456,113.212342 L1.02816456,1.02816456 C32.0083861,1.02816456 57.1202532,26.143038 57.1202532,57.1202532" transform="matrix(1 0 0 -1 75.056 131.02)"/>
    <path fill="#F5C799" d="M99.2088608,64.6360759 C99.2088608,78.520807 87.9501582,89.7795095 74.0624209,89.7795095 C62.3332278,89.7795095 52.5115506,81.7360759 49.729193,70.8727057 C46.9513449,81.7360759 37.1266614,89.7795095 25.3974684,89.7795095 C11.5112342,89.7795095 0.252531646,78.520807 0.252531646,64.6360759 C0.252531646,50.7483386 11.5112342,39.4911392 25.3974684,39.4911392 L25.3974684,26.5158228 C25.3974684,12.6265823 36.6561709,1.37238924 50.5424051,1.37238924 C64.4286392,1.37238924 75.6873418,12.6265823 75.6873418,26.5158228 L75.6873418,39.5738133 C88.8114715,40.4140823 99.2088608,51.2969937 99.2088608,64.6360759" transform="matrix(1 0 0 -1 26.355 134.382)"/>
    <path fill="#411611" d="M7.51582278,4.50949367 C7.51582278,2.49375 5.88188291,0.861313291 3.86613924,0.861313291 C1.84889241,0.861313291 0.219462025,2.49375 0.219462025,4.50949367 C0.219462025,6.52824367 1.84889241,8.16068038 3.86613924,8.16068038 C5.88188291,8.16068038 7.51582278,6.52824367 7.51582278,4.50949367" transform="matrix(1 0 0 -1 65.73 98.995)"/>
    <path fill="#411611" d="M7.51582278,4.50949367 C7.51582278,2.49375 5.88488924,0.861313291 3.86613924,0.861313291 C1.85189873,0.861313291 0.216455696,2.49375 0.216455696,4.50949367 C0.216455696,6.52824367 1.85189873,8.16068038 3.86613924,8.16068038 C5.88488924,8.16068038 7.51582278,6.52824367 7.51582278,4.50949367" transform="matrix(1 0 0 -1 78.706 98.995)"/>
    <path fill="#411611" d="M18.0379747,9.01898734 C18.0379747,4.03900316 14.0004747,0.00300632911 9.02349684,0.00300632911 C4.04050633,0.00300632911 0,4.03900316 0,9.01898734 C0,14.0004747 4.04050633,18.0424842 9.02349684,18.0424842 C14.0004747,18.0424842 18.0379747,14.0004747 18.0379747,9.01898734" transform="matrix(1 0 0 -1 42.024 81.202)"/>
    <path fill="#411611" d="M19.5411392,9.01898734 C19.5411392,4.03900316 15.5021361,0.00300632911 10.5206487,0.00300632911 C5.54216772,0.00300632911 1.50166139,4.03900316 1.50166139,9.01898734 C1.50166139,14.0004747 5.54216772,18.0424842 10.5206487,18.0424842 C15.5021361,18.0424842 19.5411392,14.0004747 19.5411392,9.01898734" transform="matrix(1 0 0 -1 90.606 81.202)"/>
    <path fill="#FFF" d="M6.01265823,4.50949367 C6.01265823,2.85 4.66582278,1.50166139 3.00632911,1.50166139 C1.34683544,1.50166139 0,2.85 0,4.50949367 C0,6.17049051 1.34683544,7.51732595 3.00632911,7.51732595 C4.66582278,7.51732595 6.01265823,6.17049051 6.01265823,4.50949367" transform="matrix(1 0 0 -1 51.082 73.682)"/>
    <path fill="#FFF" d="M7.51582278,4.50949367 C7.51582278,2.85 6.16748418,1.50166139 4.50498418,1.50166139 C2.84699367,1.50166139 1.49865506,2.85 1.49865506,4.50949367 C1.49865506,6.17049051 2.84699367,7.51732595 4.50498418,7.51732595 C6.16748418,7.51732595 7.51582278,6.17049051 7.51582278,4.50949367" transform="matrix(1 0 0 -1 99.625 73.682)"/>
    <path fill="#411611" d="M13.528481,0 C4.3727057,0 0.723022152,5.14984177 0.574208861,5.36780063 C0.311155063,5.74810127 0.407357595,6.2681962 0.784651899,6.53125 C1.16495253,6.7943038 1.68504747,6.69509494 1.94509494,6.3147943 C2.09390823,6.11186709 5.31669304,1.66851266 13.528481,1.66851266 C21.0683544,1.66851266 25.1253956,6.33583861 25.1629747,6.38393987 C25.4636076,6.73267405 25.9912184,6.77626582 26.3399525,6.48014241 C26.6901899,6.17800633 26.7337816,5.6534019 26.4331487,5.30166139 C26.2497627,5.0852057 21.831962,0 13.528481,0" transform="matrix(1 0 0 -1 62.556 125.005)"/>
    <path fill="#F5C799" d="M9.01898734,0 C4.31558544,0 0.502056962,3.81202532 0.502056962,8.51693038 C0.502056962,13.2203323 4.31558544,17.0323576 9.01898734,17.0323576" transform="matrix(1 0 0 -1 83.594 156.532)"/>
    <path fill="#F5C799" d="M0,0 C4.70189873,0 8.51392405,3.81202532 8.51392405,8.51693038 C8.51392405,13.2203323 4.70189873,17.0323576 0,17.0323576" transform="matrix(1 0 0 -1 59.558 156.532)"/>
    <path fill="#723E2B" d="M45.0949367,30.0632911 C42.4072785,30.0632911 40.2306962,27.8852057 40.2306962,25.1990506 C40.2306962,16.9797468 33.5416139,10.2921677 25.3253165,10.2921677 C17.1060127,10.2921677 10.4244462,16.9797468 10.4244462,25.1990506 C10.4244462,30.7577532 13.4893987,35.606962 18.0124209,38.1728639 C13.9914557,41.1461234 14.6618671,45.8735759 15.072231,47.5706487 C6.60039557,43.672943 0.689952532,35.1214399 0.689952532,25.1990506 C0.689952532,11.6164557 11.7397152,0.559177215 25.3253165,0.559177215 C38.9079114,0.559177215 49.9621835,11.6164557 49.9621835,25.1990506 C49.9621835,27.8852057 47.7810918,30.0632911 45.0949367,30.0632911" transform="matrix(1 0 0 -1 6.495 168.838)"/>
    <path fill="#F5C799" d="M4.50949367,0 C6.6710443,1.22357595 9.16178797,1.92856013 11.8208861,1.92856013 C14.5070411,1.92856013 16.6896361,4.10814873 16.6896361,6.79580696 C16.6896361,9.48496835 14.5070411,11.664557 11.8208861,11.664557 C8.16218354,11.664557 4.69588608,10.8378165 1.5693038,9.39928797 C1.15893987,7.70071203 0.487025316,2.97476266 4.50949367,0" transform="matrix(1 0 0 -1 19.999 130.665)"/>
  </g>
</svg>
