<svg xmlns="http://www.w3.org/2000/svg" width="160" height="190" viewBox="0 0 160 190">
  <g fill="none" fill-rule="evenodd" transform="translate(0 2)">
    <polygon fill="#AF5B2B" points="75.381 177.866 53.084 177.866 53.084 153.714 75.381 153.714"/>
    <polygon fill="#EA8232" points="108.297 177.866 85.995 177.866 85.995 153.714 108.297 153.714"/>
    <path fill="#F5C799" d="M16.1290323,16.1290323 C7.45322581,16.1290323 0.412903226,9.09354839 0.412903226,0.409677419 L31.85,0.409677419 C31.85,9.09354839 24.8145161,16.1290323 16.1290323,16.1290323" transform="matrix(1 0 0 -1 48.103 185.564)"/>
    <path fill="#F5C799" d="M16.1290323,16.1290323 C7.4516129,16.1290323 0.412903226,9.09354839 0.412903226,0.409677419 L31.85,0.409677419 C31.85,9.09354839 24.8129032,16.1290323 16.1290323,16.1290323" transform="matrix(1 0 0 -1 81.015 185.564)"/>
    <path fill="#AF5B2B" d="M3.22580645,59.6774194 C1.86935484,55.5096774 1.11290323,51.0693548 1.11290323,46.4451613 C1.11290323,22.8387097 20.2516129,0.120967742 43.8548387,0.120967742 L43.8548387,39.4612903 C26.683871,39.4612903 11.6741935,47.5580645 3.22580645,59.6774194" transform="matrix(1 0 0 -1 36.836 169.17)"/>
    <path fill="#EA8232" d="M0,40.3225806 L0,0.982258065 C23.6016129,0.982258065 42.7403226,23.7 42.7403226,47.3064516 C42.7403226,51.9306452 41.983871,56.3709677 40.6274194,60.5387097 C32.1758065,48.4209677 17.1693548,40.3225806 0,40.3225806" transform="matrix(1 0 0 -1 80.692 170.032)"/>
    <path fill="#AF5B2B" d="M41.9354839,54.8387097 C22.9548387,54.8387097 6.88387097,42.4580645 1.30645161,25.3322581 C9.75483871,13.2129032 24.7645161,1.53225806 41.9354839,1.53225806 C63.3048387,1.53225806 74.1112903,13.2129032 82.5629032,25.3322581 C76.983871,42.4580645 60.9145161,54.8387097 41.9354839,54.8387097" transform="matrix(1 0 0 -1 38.756 134.825)"/>
    <path fill="#F5C799" d="M37.0967742,19.3548387 C37.0967742,9.26451613 28.9177419,1.08225806 18.8241935,1.08225806 C8.73387097,1.08225806 0.551612903,9.26451613 0.551612903,19.3548387 C0.551612903,29.4451613 8.73387097,37.6258065 18.8241935,37.6258065 C28.9177419,37.6258065 37.0967742,29.4451613 37.0967742,19.3548387" transform="matrix(1 0 0 -1 35.945 80.275)"/>
    <path fill="#AF5B2B" d="M40.3225806,20.9677419 C40.3225806,10.2741935 31.6548387,1.60322581 20.9596774,1.60322581 C10.2629032,1.60322581 1.59354839,10.2741935 1.59354839,20.9677419 C1.59354839,31.6629032 10.2629032,40.3306452 20.9596774,40.3306452 C31.6548387,40.3306452 40.3225806,31.6629032 40.3225806,20.9677419" transform="matrix(1 0 0 -1 .987 86.24)"/>
    <path fill="#575756" d="M25.8064516,12.9032258 C25.8064516,5.93548387 20.1548387,0.285483871 13.1903226,0.285483871 C6.21612903,0.285483871 0.567741935,5.93548387 0.567741935,12.9032258 C0.567741935,19.8725806 6.21612903,25.5225806 13.1903226,25.5225806 C20.1548387,25.5225806 25.8064516,19.8725806 25.8064516,12.9032258" transform="matrix(1 0 0 -1 8.757 78.175)"/>
    <path fill="#EA8232" d="M40.3225806,20.9677419 C40.3225806,10.2741935 31.6516129,1.60322581 20.9596774,1.60322581 C10.2580645,1.60322581 1.59354839,10.2741935 1.59354839,20.9677419 C1.59354839,31.6629032 10.2580645,40.3306452 20.9596774,40.3306452 C31.6516129,40.3306452 40.3225806,31.6629032 40.3225806,20.9677419" transform="matrix(1 0 0 -1 118.477 86.24)"/>
    <path fill="#575756" d="M25.8064516,12.9032258 C25.8064516,5.93387097 20.1564516,0.285483871 13.1919355,0.285483871 C6.21774194,0.285483871 0.569354839,5.93387097 0.569354839,12.9032258 C0.569354839,19.8725806 6.21774194,25.5225806 13.1919355,25.5225806 C20.1564516,25.5225806 25.8064516,19.8725806 25.8064516,12.9032258" transform="matrix(1 0 0 -1 126.245 78.175)"/>
    <path fill="#AF5B2B" d="M0,61.2903226 C0,28.0548387 26.9483871,1.10645161 60.1870968,1.10645161 L60.1870968,121.477419 C26.9483871,121.477419 0,94.533871 0,61.2903226" transform="matrix(1 0 0 -1 21.454 124.058)"/>
    <path fill="#EA8232" d="M61.2903226,61.2903226 C61.2903226,94.533871 34.3467742,121.477419 1.10645161,121.477419 L1.10645161,1.10645161 C34.3467742,1.10645161 61.2903226,28.0548387 61.2903226,61.2903226" transform="matrix(1 0 0 -1 80.536 124.058)"/>
    <path fill="#575756" d="M82.2580645,20.9677419 C96.3403226,21.866129 107.493548,33.5451613 107.493548,47.8548387 C107.493548,62.7580645 95.416129,74.833871 80.516129,74.833871 C67.9306452,74.833871 57.3887097,66.2048387 54.4080645,54.5467742 C51.4290323,66.2048387 40.883871,74.833871 28.2983871,74.833871 C13.4,74.833871 1.31612903,62.7580645 1.31612903,47.8548387 C1.31612903,32.9596774 13.4,20.8774194 28.2983871,20.8774194 L28.2983871,6.95483871 C28.2983871,4.7016129 28.6048387,2.53064516 29.1241935,0.440322581 C35.2064516,8.20322581 44.65,13.2129032 55.2758065,13.2129032 C65.9048387,13.2129032 75.3467742,8.20322581 81.4306452,0.437096774 C81.9548387,2.52903226 82.2580645,4.7016129 82.2580645,6.95483871 L82.2580645,20.9677419 Z" transform="matrix(1 0 0 -1 27.233 106.167)"/>
    <path fill="#F5C799" d="M27.4193548,33.8709677 C16.7919355,33.8709677 7.35,28.8612903 1.26612903,21.0983871 C4.18548387,9.35322581 14.7725806,0.632258065 27.4193548,0.632258065 C40.0725806,0.632258065 50.6564516,9.35 53.5741935,21.0935484 C47.4887097,28.8612903 38.0483871,33.8709677 27.4193548,33.8709677" transform="matrix(1 0 0 -1 55.09 126.824)"/>
    <path fill="#411611" d="M8.06451613,4.83870968 C8.06451613,2.67741935 6.31129032,0.922580645 4.14516129,0.922580645 C1.98225806,0.922580645 0.232258065,2.67741935 0.232258065,4.83870968 C0.232258065,7.00322581 1.98225806,8.75645161 4.14516129,8.75645161 C6.31129032,8.75645161 8.06451613,7.00322581 8.06451613,4.83870968" transform="matrix(1 0 0 -1 70.533 89.693)"/>
    <path fill="#411611" d="M8.06451613,4.83870968 C8.06451613,2.67741935 6.31451613,0.922580645 4.15,0.922580645 C1.98709677,0.922580645 0.232258065,2.67741935 0.232258065,4.83870968 C0.232258065,7.00322581 1.98709677,8.75645161 4.15,8.75645161 C6.31451613,8.75645161 8.06451613,7.00322581 8.06451613,4.83870968" transform="matrix(1 0 0 -1 84.452 89.693)"/>
    <path fill="#F5C799" d="M37.0967742,19.3548387 C37.0967742,9.5 29.1096774,1.51290323 19.2548387,1.51290323 C9.4016129,1.51290323 1.41451613,9.5 1.41451613,19.3548387 C1.41451613,29.2064516 9.4016129,37.1951613 19.2548387,37.1951613 C29.1096774,37.1951613 37.0967742,29.2064516 37.0967742,19.3548387" transform="matrix(1 0 0 -1 35.513 78.483)"/>
    <path fill="#F5C799" d="M37.0967742,19.3548387 C37.0967742,9.5 29.1112903,1.51290323 19.2548387,1.51290323 C9.40322581,1.51290323 1.41451613,9.5 1.41451613,19.3548387 C1.41451613,29.2064516 9.40322581,37.1951613 19.2548387,37.1951613 C29.1112903,37.1951613 37.0967742,29.2064516 37.0967742,19.3548387" transform="matrix(1 0 0 -1 89.25 78.483)"/>
    <path fill="#411611" d="M19.3548387,9.67741935 C19.3548387,4.33225806 15.0209677,0 9.67903226,0 C4.33387097,0 0,4.33225806 0,9.67741935 C0,15.0209677 4.33387097,19.3532258 9.67903226,19.3532258 C15.0209677,19.3532258 19.3548387,15.0209677 19.3548387,9.67741935" transform="matrix(1 0 0 -1 45.093 68.805)"/>
    <path fill="#411611" d="M19.3548387,9.67741935 C19.3548387,4.33225806 15.0225806,0 9.67741935,0 C4.33387097,0 0,4.33225806 0,9.67741935 C0,15.0209677 4.33387097,19.3532258 9.67741935,19.3532258 C15.0225806,19.3532258 19.3548387,15.0209677 19.3548387,9.67741935" transform="matrix(1 0 0 -1 98.834 68.805)"/>
    <path fill="#FFF" d="M8.06451613,3.22580645 C8.06451613,1.44516129 6.61935484,0 4.83709677,0 C3.05483871,0 1.60806452,1.44516129 1.60806452,3.22580645 C1.60806452,5.00806452 3.05483871,6.45483871 4.83709677,6.45483871 C6.61935484,6.45483871 8.06451613,5.00806452 8.06451613,3.22580645" transform="matrix(1 0 0 -1 53.202 59.128)"/>
    <path fill="#FFF" d="M8.06451613,3.22580645 C8.06451613,1.44516129 6.61935484,0 4.84032258,0 C3.05806452,0 1.60967742,1.44516129 1.60967742,3.22580645 C1.60967742,5.00806452 3.05806452,6.45483871 4.84032258,6.45483871 C6.61935484,6.45483871 8.06451613,5.00806452 8.06451613,3.22580645" transform="matrix(1 0 0 -1 106.895 59.128)"/>
    <path fill="#411611" d="M14.516129,0 C4.68870968,0 0.774193548,5.52580645 0.611290323,5.75967742 C0.330645161,6.16774194 0.437096774,6.72580645 0.843548387,7.00483871 C1.24677419,7.29032258 1.80483871,7.18548387 2.08709677,6.77903226 C2.24193548,6.55645161 5.7016129,1.79032258 14.516129,1.79032258 C22.6048387,1.79032258 26.9532258,6.7983871 26.9967742,6.85 C27.3177419,7.22419355 27.8854839,7.27258065 28.2596774,6.95 C28.6370968,6.62903226 28.6790323,6.06451613 28.3596774,5.68709677 C28.1645161,5.45806452 23.4209677,0 14.516129,0" transform="matrix(1 0 0 -1 67.126 117.602)"/>
    <path fill="#AF5B2B" d="M19.3548387,0 C20.5419355,2.92903226 21.2193548,10.8306452 15.6935484,20.8274194 C13.2629032,25.233871 13.3887097,24.416129 12.5564516,26.5532258 C11.7274194,28.6854839 10.5548387,30.6822581 8.99677419,32.533871 C7.40806452,34.3709677 6.95322581,35.3467742 4.07419355,36.6758065 C2.87580645,33.7403226 2.34354839,33.2435484 1.2983871,29.5112903 C0.648387097,27.183871 0.437096774,23.7741935 1.28064516,21.6483871 C2.12419355,19.5177419 3.07741935,17.2435484 5.63064516,14.5209677 C7.23225806,12.6854839 17.7806452,5.74032258 19.3548387,0" transform="matrix(1 0 0 -1 64.585 59.611)"/>
    <path fill="#AF5B2B" d="M19.3548387,0 C23.1919355,14.9274194 9.45322581,29.0387097 7.89677419,30.8935484 C6.30967742,32.7258065 4.41612903,34.4435484 1.53870968,35.7758065 C0.335483871,32.8370968 0.116129032,30.2935484 0.2,27.8645161 C0.317741935,25.4516129 -0.277419355,19.1403226 5.23225806,15.0806452 C13.2258065,9.19032258 16.4564516,6.03225806 19.3548387,0" transform="matrix(1 0 0 -1 72.287 49.217)"/>
    <path fill="#F5C799" d="M22.5806452,6.4516129 C20.5935484,1.81290323 14.2403226,0.0935483871 8.39193548,2.60483871 C2.54677419,5.11935484 -0.574193548,10.916129 1.41774194,15.55" transform="matrix(1 0 0 -1 109.477 187.39)"/>
    <path fill="#EA8232" d="M22.5806452,0 C37.6677419,37.7112903 41.0258065,65.4354839 32.5596774,82.4032258 C28.3822581,90.7790323 21.8967742,95.1225806 17.2241935,96.3870968 L11.1274194,73.9145161 C10.3,74.1387097 9.99354839,74.3209677 9.97903226,74.3274194 C13.5887097,72.1564516 19.6774194,55.4370968 0.961290323,8.64677419 L22.5806452,0 Z" transform="matrix(1 0 0 -1 109.269 182.19)"/>
    <path fill="#F5C799" d="M0,6.4516129 C1.99193548,1.81290323 8.34677419,0.0935483871 14.1919355,2.60483871 C20.0370968,5.11935484 23.1548387,10.916129 21.1677419,15.55" transform="matrix(1 0 0 -1 29.32 187.39)"/>
    <path fill="#AF5B2B" d="M16.1290323,0 C1.04193548,37.7112903 -2.31774194,65.4354839 6.14677419,82.4032258 C10.3258065,90.7790323 16.8112903,95.1225806 21.483871,96.3870968 L27.5790323,73.9145161 C28.4064516,74.1387097 28.7145161,74.3209677 28.7306452,74.3274194 C25.1209677,72.1564516 19.0274194,55.4370968 37.7467742,8.64677419 L16.1290323,0 Z" transform="matrix(1 0 0 -1 13.404 182.19)"/>
  </g>
</svg>
