<svg xmlns="http://www.w3.org/2000/svg" width="160" height="190" viewBox="0 0 160 190">
  <g fill="none" fill-rule="evenodd" transform="translate(1)">
    <path fill="#D3C5C1" d="M29.4708029,27.7372263 L0.176824818,18.152281 L8.99379562,1.43886861 C8.99379562,1.43886861 21.1600365,9.22262774 29.4708029,27.7372263" transform="matrix(1 0 0 -1 103.145 29.124)"/>
    <path fill="#9C9B9B" d="M0,27.7372263 L29.2957117,18.152281 L20.4770073,1.43886861 C20.4770073,1.43886861 8.30729927,9.22262774 0,27.7372263" transform="matrix(1 0 0 -1 28.68 29.124)"/>
    <path fill="#6F6F6E" d="M156.021898,95.3467153 C156.021898,57.3692518 121.3625,1.55675182 78.6090328,1.55675182 C35.8538321,1.55675182 1.19443431,57.3692518 1.19443431,95.3467153 C1.19443431,133.322445 35.8538321,164.109033 78.6090328,164.109033 C121.3625,164.109033 156.021898,133.322445 156.021898,95.3467153" transform="matrix(1 0 0 -1 1.58 187.459)"/>
    <path fill="#D3C5C1" d="M38.1386861,22.5364964 C53.3144161,46.402646 60.6162409,92.4343066 59.0560219,112.171077 C55.1294708,161.895255 34.1913321,176.656661 11.0203467,181.033942 C7.54279197,181.690967 4.08257299,181.97354 0.669160584,181.977007 L0.669160584,1.07308394 L2.23804745,1.07308394 C22.7133212,1.56541971 26.3070255,3.92655109 38.1386861,22.5364964" transform="matrix(1 0 0 -1 79.52 188.307)"/>
    <path fill="#9C9B9B" d="M22.5364964,22.5364964 C7.36423358,46.402646 0.0624087591,92.4343066 1.62089416,112.171077 C5.54744526,161.895255 26.4873175,176.656661 49.6583029,181.033942 C53.1358577,181.690967 56.5943431,181.97354 60.0094891,181.977007 L60.0094891,1.07308394 L58.4423358,1.07308394 C37.9653285,1.56541971 34.3681569,3.92655109 22.5364964,22.5364964" transform="matrix(1 0 0 -1 20.177 188.307)"/>
    <path fill="#F9F4F0" d="M74.5437956,50.2737226 C63.9273723,50.2737226 54.8208942,44.1403285 50.9255474,35.4083029 C47.025,44.1403285 37.9202555,50.2737226 27.3020985,50.2737226 C13.1457117,50.2737226 1.66076642,39.3660584 1.66076642,25.9065693 C1.66076642,12.4540146 13.1457117,1.54808394 27.3020985,1.54808394 C37.9202555,1.54808394 47.025,-0.00693430657 50.9255474,8.73202555 C54.8208942,-0.00693430657 63.9273723,1.54808394 74.5437956,1.54808394 C88.7036496,1.54808394 100.186861,12.4540146 100.186861,25.9065693 C100.186861,39.3660584 88.7036496,50.2737226 74.5437956,50.2737226" transform="matrix(1 0 0 -1 29.263 76.685)"/>
    <path fill="#3C3C3B" d="M10.4014599,31.2043796 L4.1935219,27.1027372 C1.69717153,25.4558394 0.903193431,21.9990876 2.43740876,19.4247263 L12.1627737,3.10136861 C12.9255474,1.81678832 13.9362226,1.17189781 14.9486314,1.17189781 L14.9486314,32.4404197 C13.3,32.4404197 11.6548358,32.029562 10.4014599,31.2043796" transform="matrix(1 0 0 -1 65.24 100.416)"/>
    <path fill="#3C3C3B" d="M3.46715328,3.46715328 L13.1890511,19.7922445 C14.7232664,22.3666058 13.9327555,25.8233577 11.4346715,27.4702555 L5.22673358,31.5701642 C3.97682482,32.3953467 2.33166058,32.807938 0.684762774,32.807938 L0.684762774,1.53941606 C1.6919708,1.53941606 2.70437956,2.18257299 3.46715328,3.46715328" transform="matrix(1 0 0 -1 79.504 100.782)"/>
    <path fill="#EA8232" d="M36.4051095,19.0693431 C36.4051095,9.48786496 28.635219,1.71104015 19.0537409,1.71104015 C9.46532847,1.71104015 1.69370438,9.48786496 1.69370438,19.0693431 C1.69370438,28.6577555 9.46532847,36.427646 19.0537409,36.427646 C28.635219,36.4259124 36.4051095,28.6577555 36.4051095,19.0693431" transform="matrix(1 0 0 -1 36.808 69.685)"/>
    <path fill="#3C3C3B" d="M20.8029197,10.4014599 C20.8029197,4.9649635 16.3961679,0.558211679 10.9631387,0.558211679 C5.52144161,0.558211679 1.11989051,4.9649635 1.11989051,10.4014599 C1.11989051,15.8362226 5.52144161,20.244708 10.9631387,20.244708 C16.3961679,20.244708 20.8029197,15.8362226 20.8029197,10.4014599" transform="matrix(1 0 0 -1 44.898 61.017)"/>
    <path fill="#EA8232" d="M36.4051095,19.0693431 C36.4051095,9.48786496 28.635219,1.71104015 19.0502737,1.71104015 C9.46532847,1.71104015 1.6919708,9.48786496 1.6919708,19.0693431 C1.6919708,28.6577555 9.46532847,36.4259124 19.0502737,36.4259124 C28.635219,36.4259124 36.4051095,28.6577555 36.4051095,19.0693431" transform="matrix(1 0 0 -1 85.464 69.685)"/>
    <path fill="#3C3C3B" d="M20.8029197,10.4014599 C20.8029197,4.9649635 16.3927007,0.558211679 10.957938,0.558211679 C5.52144161,0.558211679 1.11642336,4.9649635 1.11642336,10.4014599 C1.11642336,15.8362226 5.52144161,20.244708 10.957938,20.244708 C16.3927007,20.244708 20.8029197,15.8362226 20.8029197,10.4014599" transform="matrix(1 0 0 -1 93.83 61.017)"/>
    <path fill="#FFF" d="M6.93430657,3.46715328 C6.93430657,1.58622263 5.40875912,0.0606751825 3.52956204,0.0606751825 C1.64863139,0.0606751825 0.123083942,1.58622263 0.123083942,3.46715328 C0.123083942,5.34635036 1.64863139,6.87016423 3.52956204,6.87016423 C5.40875912,6.87016423 6.93430657,5.34635036 6.93430657,3.46715328" transform="matrix(1 0 0 -1 56.364 50.676)"/>
    <path fill="#FFF" d="M6.93430657,3.46715328 C6.93430657,1.58622263 5.40875912,0.0606751825 3.52782847,0.0606751825 C1.64863139,0.0606751825 0.123083942,1.58622263 0.123083942,3.46715328 C0.123083942,5.34635036 1.64863139,6.87016423 3.52782847,6.87016423 C5.40875912,6.87016423 6.93430657,5.34635036 6.93430657,3.46715328" transform="matrix(1 0 0 -1 105.195 50.676)"/>
    <path fill="#6F6F6E" d="M26.0036496,15.6021898 C27.2448905,12.3604015 26.3971715,8.29516423 23.999635,5.30821168 C21.5951642,2.28832117 17.755292,0.386587591 13.6293796,0.417791971 C9.79470803,0.379653285 5.74160584,2.28312044 3.3995438,5.30301095 C1.00027372,8.2899635 0.150821168,12.3604015 1.4024635,15.6021898 C2.62116788,12.3933394 4.42928832,10.065146 6.61012774,8.51012774 C8.8100365,6.94644161 11.1572993,6.19580292 13.7767336,6.18713504 C16.104927,6.18713504 18.6654197,6.94124088 20.8029197,8.50492701 C22.9889599,10.0582117 24.7936131,12.3933394 26.0036496,15.6021898" transform="matrix(1 0 0 -1 41.885 111.415)"/>
    <path fill="#6F6F6E" d="M26.0036496,15.6021898 C27.2431569,12.3604015 26.395438,8.29516423 23.999635,5.30821168 C21.5934307,2.28832117 17.7535584,0.386587591 13.6293796,0.417791971 C9.79470803,0.379653285 5.74160584,2.28312044 3.3995438,5.30301095 C1.00027372,8.2899635 0.154288321,12.3604015 1.4024635,15.6021898 C2.62116788,12.3933394 4.42928832,10.065146 6.61012774,8.51012774 C8.8100365,6.94644161 11.1572993,6.19580292 13.7767336,6.18713504 C16.1031934,6.18713504 18.6654197,6.94124088 20.8046533,8.50492701 C22.9872263,10.0582117 24.7936131,12.3933394 26.0036496,15.6021898" transform="matrix(1 0 0 -1 66.487 111.415)"/>
    <path fill="#6F6F6E" d="M26.0036496,15.6021898 C27.2431569,12.3586679 26.395438,8.29516423 23.9979015,5.3064781 C21.5951642,2.28658759 17.7535584,0.384854015 13.627646,0.417791971 C9.79470803,0.377919708 5.74160584,2.27965328 3.3995438,5.2995438 C1.0020073,8.28822993 0.149087591,12.3586679 1.40072993,15.6021898 C2.61943431,12.3898723 4.42582117,10.0634124 6.60666058,8.51012774 C8.8100365,6.94990876 11.1572993,6.19233577 13.775,6.18540146 C16.1031934,6.18713504 18.6636861,6.9395073 20.8011861,8.50492701 C22.9854927,10.0582117 24.790146,12.3898723 26.0036496,15.6021898" transform="matrix(1 0 0 -1 29.627 126.968)"/>
    <path fill="#6F6F6E" d="M26.0036496,15.6021898 C27.2448905,12.3569343 26.3971715,8.29516423 23.999635,5.3064781 C21.5951642,2.28658759 17.7535584,0.384854015 13.6293796,0.417791971 C9.79644161,0.377919708 5.74160584,2.27965328 3.3995438,5.2995438 C1.0020073,8.28822993 0.152554745,12.3586679 1.40419708,15.6021898 C2.62116788,12.3898723 4.42755474,10.0634124 6.60839416,8.51012774 C8.81177007,6.94990876 11.1590328,6.19233577 13.7767336,6.18540146 C16.1031934,6.18713504 18.6654197,6.9395073 20.8029197,8.50492701 C22.9889599,10.0582117 24.7918796,12.3898723 26.0036496,15.6021898" transform="matrix(1 0 0 -1 54.227 126.968)"/>
    <path fill="#6F6F6E" d="M26.0036496,15.6021898 C27.2431569,12.3569343 26.3937044,8.29516423 23.9944343,5.3064781 C21.5916971,2.28658759 17.7535584,0.384854015 13.6259124,0.417791971 C9.79470803,0.377919708 5.73813869,2.27965328 3.3995438,5.2995438 C1.00027372,8.28649635 0.150821168,12.3569343 1.39899635,15.6021898 C2.61770073,12.3898723 4.42582117,10.0634124 6.60666058,8.51012774 C8.8100365,6.94990876 11.1572993,6.19233577 13.7732664,6.18540146 C16.1031934,6.18713504 18.6619526,6.9395073 20.797719,8.50492701 C22.9820255,10.0582117 24.7884124,12.3898723 26.0036496,15.6021898" transform="matrix(1 0 0 -1 78.748 126.968)"/>
    <path fill="#6F6F6E" d="M26.0036496,15.6021898 C27.2448905,12.3569343 26.395438,8.29516423 24.0013686,5.3064781 C21.5951642,2.28658759 17.755292,0.384854015 13.6293796,0.417791971 C9.79470803,0.377919708 5.74160584,2.27965328 3.39781022,5.2995438 C1.00027372,8.28649635 0.149087591,12.3569343 1.40419708,15.6021898 C2.62116788,12.3898723 4.42582117,10.0634124 6.60666058,8.51012774 C8.8100365,6.94990876 11.1555657,6.19233577 13.775,6.18540146 C16.104927,6.18713504 18.6654197,6.9395073 20.7994526,8.50492701 C22.9872263,10.0582117 24.7884124,12.3898723 26.0036496,15.6021898" transform="matrix(1 0 0 -1 103.348 126.968)"/>
    <path fill="#6F6F6E" d="M26.0036496,15.6021898 C27.2431569,12.3586679 26.3989051,8.29343066 23.999635,5.3064781 C21.5968978,2.28658759 17.755292,0.384854015 13.6293796,0.416058394 C9.79817518,0.376186131 5.74160584,2.27965328 3.40127737,5.30127737 C1.00374088,8.28649635 0.154288321,12.3586679 1.4024635,15.6021898 C2.61943431,12.3933394 4.42755474,10.0634124 6.60839416,8.50666058 C8.81177007,6.94644161 11.1590328,6.19580292 13.775,6.18540146 C16.1031934,6.18540146 18.6654197,6.94124088 20.8029197,8.50145985 C22.9889599,10.0564781 24.7918796,12.3933394 26.0036496,15.6021898" transform="matrix(1 0 0 -1 54.185 158.29)"/>
    <path fill="#6F6F6E" d="M26.0036496,15.6021898 C27.2448905,12.3586679 26.3971715,8.29516423 23.9979015,5.30821168 C21.5951642,2.28658759 17.7535584,0.386587591 13.6293796,0.416058394 C9.79644161,0.376186131 5.74160584,2.28138686 3.3995438,5.30301095 C1.0020073,8.28822993 0.152554745,12.3586679 1.4024635,15.6021898 C2.62116788,12.3933394 4.42755474,10.0616788 6.60839416,8.50839416 C8.81177007,6.94644161 11.1590328,6.19580292 13.7767336,6.18540146 C16.1031934,6.18540146 18.6654197,6.94124088 20.8029197,8.50319343 C22.9872263,10.0564781 24.7918796,12.3933394 26.0036496,15.6021898" transform="matrix(1 0 0 -1 66.487 173.58)"/>
    <path fill="#6F6F6E" d="M26.0036496,15.6021898 C27.2448905,12.3586679 26.395438,8.29343066 24.0013686,5.3064781 C21.5951642,2.28658759 17.755292,0.384854015 13.627646,0.416058394 C9.79644161,0.376186131 5.73987226,2.27965328 3.3995438,5.30127737 C1.0020073,8.28649635 0.152554745,12.3586679 1.40072993,15.6021898 C2.61770073,12.3933394 4.42755474,10.0634124 6.60839416,8.50666058 C8.81177007,6.94644161 11.1590328,6.19580292 13.775,6.18540146 C16.104927,6.18540146 18.6636861,6.94124088 20.7994526,8.50145985 C22.9872263,10.0564781 24.790146,12.3933394 26.0036496,15.6021898" transform="matrix(1 0 0 -1 78.788 158.29)"/>
    <path fill="#6F6F6E" d="M26.0036496,15.6021898 C27.2448905,12.3604015 26.395438,8.29516423 23.999635,5.30821168 C21.5934307,2.28832117 17.755292,0.386587591 13.6293796,0.417791971 C9.79817518,0.379653285 5.74160584,2.28312044 3.40127737,5.30301095 C1.0020073,8.2899635 0.154288321,12.3604015 1.40419708,15.6021898 C2.61943431,12.3933394 4.42755474,10.065146 6.60839416,8.51012774 C8.8100365,6.94644161 11.1590328,6.19580292 13.7767336,6.18713504 C16.104927,6.18713504 18.6654197,6.94124088 20.8029197,8.50492701 C22.9889599,10.0582117 24.7936131,12.3933394 26.0036496,15.6021898" transform="matrix(1 0 0 -1 91.087 111.415)"/>
    <path fill="#6F6F6E" d="M26.0036496,15.6021898 C27.2448905,12.3586679 26.3971715,8.29169708 23.999635,5.30301095 C21.5951642,2.28485401 17.755292,0.384854015 13.6293796,0.419525547 C9.79470803,0.379653285 5.74160584,2.27791971 3.3995438,5.29781022 C1.00027372,8.28476277 0.150821168,12.3586679 1.4024635,15.6021898 C2.62116788,12.3916058 4.42928832,10.0616788 6.61012774,8.50492701 C8.8100365,6.94470803 11.1572993,6.19406934 13.7767336,6.18193431 C16.104927,6.18540146 18.6654197,6.93604015 20.8029197,8.50145985 C22.9889599,10.0564781 24.7936131,12.3916058 26.0036496,15.6021898" transform="matrix(1 0 0 -1 41.885 143)"/>
    <path fill="#6F6F6E" d="M26.0036496,15.6021898 C27.2431569,12.3586679 26.395438,8.29169708 23.999635,5.30301095 C21.5934307,2.28485401 17.7535584,0.384854015 13.6293796,0.419525547 C9.79470803,0.379653285 5.74160584,2.27791971 3.3995438,5.29781022 C1.00027372,8.28476277 0.154288321,12.3586679 1.4024635,15.6021898 C2.62116788,12.3916058 4.42928832,10.0616788 6.61012774,8.50492701 C8.8100365,6.94470803 11.1572993,6.19406934 13.7767336,6.18193431 C16.1031934,6.18540146 18.6654197,6.93604015 20.8046533,8.50145985 C22.9872263,10.0564781 24.7936131,12.3916058 26.0036496,15.6021898" transform="matrix(1 0 0 -1 66.487 143)"/>
    <path fill="#6F6F6E" d="M26.0036496,15.6021898 C27.2448905,12.3586679 26.395438,8.29169708 23.999635,5.30301095 C21.5934307,2.28485401 17.755292,0.384854015 13.6293796,0.419525547 C9.79817518,0.379653285 5.74160584,2.27791971 3.40127737,5.29781022 C1.0020073,8.28476277 0.154288321,12.3586679 1.40419708,15.6021898 C2.61943431,12.3916058 4.42755474,10.0616788 6.60839416,8.50492701 C8.8100365,6.94470803 11.1590328,6.19406934 13.7767336,6.18193431 C16.104927,6.18540146 18.6654197,6.93604015 20.8029197,8.50145985 C22.9889599,10.0564781 24.7936131,12.3916058 26.0036496,15.6021898" transform="matrix(1 0 0 -1 91.087 143)"/>
  </g>
</svg>
