<svg xmlns="http://www.w3.org/2000/svg" width="160" height="190" viewBox="0 0 160 190">
  <g fill="none" fill-rule="evenodd" transform="translate(14)">
    <path fill="#C6CCD6" d="M0,1.5625 C1.8171875,1.634375 3.534375,1.76875 5.1734375,1.9625 L5.1765625,1.9625 C3.5390625,1.771875 1.8140625,1.6359375 0,1.5625" transform="matrix(1 0 0 -1 85.107 164.196)"/>
    <path fill="#C6CCD6" d="M3.125,1.5625 C2.31875,1.5328125 1.5046875,1.515625 0.6625,1.5125 C1.5046875,1.515625 2.3171875,1.5359375 3.125,1.5625" transform="matrix(1 0 0 -1 81.657 164.203)"/>
    <path fill="#C6CCD6" d="M1.5625,1.5625 C1.4546875,1.5296875 1.3421875,1.5 1.2359375,1.4671875 C1.3421875,1.5 1.4546875,1.5296875 1.5625,1.5625" transform="matrix(1 0 0 -1 103.303 143.846)"/>
    <path fill="#C6CCD6" d="M1.5625,1.5625 C1.396875,1.5265625 1.2265625,1.4875 1.0546875,1.453125 C1.2265625,1.4875 1.396875,1.5265625 1.5625,1.5625" transform="matrix(1 0 0 -1 101.747 144.252)"/>
    <path fill="#C6CCD6" d="M1.5625,1.5625 C1.2796875,1.5515625 1.0078125,1.5328125 0.71875,1.5296875 C1.0078125,1.5328125 1.2796875,1.5515625 1.5625,1.5625" transform="matrix(1 0 0 -1 96.02 144.974)"/>
    <path fill="#C6CCD6" d="M1.5625,1.5625 C1.3046875,1.5375 1.053125,1.5109375 0.790625,1.4890625 C1.053125,1.5109375 1.3046875,1.5359375 1.5625,1.5625" transform="matrix(1 0 0 -1 98.13 144.832)"/>
    <path fill="#C6CCD6" d="M0,1.5625 C1.19375,1.7515625 2.3625,1.971875 3.5234375,2.2015625 C2.365625,1.971875 1.19375,1.7515625 0,1.5625" transform="matrix(1 0 0 -1 81.71 134.777)"/>
    <path fill="#C6CCD6" d="M1.5625,1.5625 C1.5296875,1.55 1.4984375,1.5390625 1.465625,1.5296875 C1.4984375,1.5390625 1.5296875,1.55 1.5625,1.5625" transform="matrix(1 0 0 -1 104.703 143.384)"/>
    <path fill="#C6CCD6" d="M1.5625,1.5625 C1.2953125,1.5671875 1.040625,1.565625 0.7671875,1.5765625 C1.040625,1.565625 1.2953125,1.5671875 1.5625,1.5625" transform="matrix(1 0 0 -1 93.623 144.992)"/>
    <path fill="#C6CCD6" d="M0,0 C8.846875,1.8171875 16.80625,4.7453125 23.3921875,8.5 C23.3921875,8.50625 23.3921875,8.5125 23.390625,8.521875 C16.803125,4.7609375 8.846875,1.821875 0,0" transform="matrix(1 0 0 -1 85.915 132.44)"/>
    <path fill="#C6CCD6" d="M1.5625,1.5625 C1.346875,1.5265625 1.13125,1.4921875 0.90625,1.459375 C1.13125,1.4921875 1.346875,1.5265625 1.5625,1.5625" transform="matrix(1 0 0 -1 100.027 144.583)"/>
    <path fill="#918BC1" d="M1.5625,1.5625 C1.440625,1.5984375 1.31875,1.6359375 1.1953125,1.675 C1.31875,1.6359375 1.440625,1.5984375 1.5625,1.5625" transform="matrix(1 0 0 -1 33.813 131.855)"/>
    <path fill="#918BC1" d="M1.5625,1.5625 C1.325,1.615625 1.0875,1.66875 0.8484375,1.725 C1.0875,1.66875 1.325,1.6171875 1.5625,1.5625" transform="matrix(1 0 0 -1 40.727 133.68)"/>
    <path fill="#918BC1" d="M0,6.25 C4.3140625,3.7890625 9.21875,1.6859375 14.578125,0.015625 C9.221875,1.6859375 4.315625,3.7953125 0,6.259375 L0,6.25 Z" transform="matrix(1 0 0 -1 20.43 130.194)"/>
    <path fill="#918BC1" d="M6.25,0 C4.1265625,0.4890625 2.05625,1.04375 0.05,1.6609375 C2.0578125,1.04375 4.1265625,0.4890625 6.25,0" transform="matrix(1 0 0 -1 35.326 131.954)"/>
    <path fill="#918BC1" d="M4.6875,1.5625 C3.61875,1.7625 2.565625,1.9859375 1.5234375,2.2171875 C2.565625,1.9859375 3.61875,1.7625 4.6875,1.5625" transform="matrix(1 0 0 -1 40.767 134.334)"/>
    <polygon fill="#3C3C3B" points="60.608 180.855 39.008 180.855 39.008 157.462 60.608 157.462"/>
    <polygon fill="#3C3C3B" points="92.494 180.855 70.89 180.855 70.89 157.462 92.494 157.462"/>
    <path fill="#3C3C3B" d="M15.625,15.625 C7.2171875,15.625 0.3984375,8.80625 0.3984375,0.39375 L30.8515625,0.39375 C30.8515625,8.80625 24.0375,15.625 15.625,15.625" transform="matrix(1 0 0 -1 34.183 188.314)"/>
    <path fill="#3C3C3B" d="M15.625,15.625 C7.2171875,15.625 0.4015625,8.80625 0.4015625,0.39375 L30.85625,0.39375 C30.85625,8.80625 24.0359375,15.625 15.625,15.625" transform="matrix(1 0 0 -1 66.064 188.314)"/>
    <path fill="#D3C5C1" d="M3.125,46.875 C2.0015625,43.4234375 1.3765625,39.746875 1.3765625,35.9140625 C1.3765625,16.3578125 17.2265625,0.503125 36.78125,0.503125 L36.78125,30.128125 C22.559375,30.128125 10.1234375,36.834375 3.125,46.875" transform="matrix(1 0 0 -1 28.253 170.293)"/>
    <path fill="#F5F0F2" d="M0,29.6875 L0,0.0625 C19.553125,0.0625 35.40625,15.9171875 35.40625,35.4734375 C35.40625,39.30625 34.78125,42.9828125 33.6578125,46.434375 C26.65625,36.39375 14.221875,29.6875 0,29.6875" transform="matrix(1 0 0 -1 65.034 169.852)"/>
    <path fill="#D3C5C1" d="M34.375,42.1875 C18.653125,42.1875 5.3375,31.93125 0.71875,17.74375 C7.7171875,7.7046875 20.1515625,0.9984375 34.375,0.9984375 C48.596875,0.9984375 61.03125,7.7046875 68.0328125,17.74375 C63.4109375,31.93125 50.0984375,42.1875 34.375,42.1875" transform="matrix(1 0 0 -1 30.66 141.162)"/>
    <path fill="#3C3C3B" d="M9.375,0 C4.4859375,0 0.5234375,3.9609375 0.5234375,8.853125 C0.5234375,13.74375 4.4859375,17.7046875 9.375,17.7046875" transform="matrix(1 0 0 -1 72.838 155.246)"/>
    <path fill="#3C3C3B" d="M0,0 C4.8859375,0 8.846875,3.9609375 8.846875,8.853125 C8.846875,13.74375 4.8859375,17.7046875 0,17.7046875" transform="matrix(1 0 0 -1 47.856 155.246)"/>
    <path fill="#3C3C3B" d="M18.75,39.0625 C8.7,39.0625 0.55625,29.1828125 0.55625,19.1328125 C0.55625,9.084375 8.7,0.940625 18.75,0.940625 C28.7984375,0.940625 36.946875,9.084375 36.946875,19.1328125 C36.946875,29.1828125 28.7984375,39.0625 18.75,39.0625" transform="matrix(1 0 0 -1 80.559 40.313)"/>
    <path fill="#3C3C3B" d="M18.75,39.0625 C8.7015625,39.0625 0.5546875,29.1828125 0.5546875,19.1328125 C0.5546875,9.084375 8.7015625,0.940625 18.75,0.940625 C28.803125,0.940625 36.9453125,9.084375 36.9453125,19.1328125 C36.9453125,29.1828125 28.803125,39.0625 18.75,39.0625" transform="matrix(1 0 0 -1 12.009 40.313)"/>
    <path fill="#F5F0F2" d="M59.375,53.125 C59.78125,55.909375 59.9953125,58.753125 59.9953125,61.65 C59.9953125,94.3296875 33.56875,120.829688 0.9203125,120.967188 C0.8390625,120.967188 0.7578125,120.971875 0.6734375,120.971875 L0.6734375,0.6078125 C0.875,0.603125 1.09375,0.59375 1.2828125,0.59375 C9.740625,0.59375 21.0359375,2.9578125 21.0359375,2.9578125 C21.2609375,3.0015625 21.490625,3.046875 21.7171875,3.0921875 C30.565625,4.9140625 38.5171875,7.8515625 45.10625,11.6140625 L45.10625,11.5921875 C57.0375,18.396875 64.4578125,27.9125 64.4578125,38.45 C64.4578125,43.6578125 62.646875,48.61875 59.375,53.125" transform="matrix(1 0 0 -1 64.362 135.532)"/>
    <path fill="#D3C5C1" d="M64.0625,121.875 C31.3015625,121.875 4.7421875,95.3171875 4.7421875,62.553125 C4.7421875,59.65625 4.959375,56.8125 5.35625,54.028125 C2.0921875,49.521875 0.278125,44.5625 0.278125,39.3546875 C0.278125,28.8171875 7.69375,19.3 19.6234375,12.490625 L19.6234375,12.5 C23.940625,10.0359375 28.84375,7.9265625 34.203125,6.25625 C34.325,6.2171875 34.4453125,6.1796875 34.571875,6.14375 C36.5734375,5.525 38.6453125,4.971875 40.7703125,4.48125 C41.00625,4.425 41.24375,4.371875 41.4828125,4.31875 C42.5265625,4.0875 44.646875,3.6640625 44.646875,3.6640625 C44.646875,3.6640625 57.3890625,1.628125 64.0625,1.5109375 L64.0625,121.875 Z" transform="matrix(1 0 0 -1 .972 136.435)"/>
    <path fill="#3C3C3B" d="M6.25,37.5 C-2.2390625,26.009375 -1.4,10.9875 8.125,3.9484375 C17.65,-3.084375 26.5265625,3.0140625 35.015625,14.50625 C43.50625,26.003125 48.396875,38.540625 38.8703125,45.5734375 C29.346875,52.6078125 14.740625,48.9953125 6.25,37.5" transform="matrix(1 0 0 -1 15.056 108.596)"/>
    <path fill="#3C3C3B" d="M39.0625,37.5 C47.5515625,26.009375 46.7125,10.9875 37.1875,3.9484375 C27.6625,-3.084375 18.784375,3.0140625 10.296875,14.50625 C1.8078125,26.003125 -3.084375,38.540625 6.4421875,45.5734375 C15.965625,52.6078125 30.5703125,48.9953125 39.0625,37.5" transform="matrix(1 0 0 -1 69.7 108.596)"/>
    <path fill="#F5F0F2" d="M20.3125,10.9375 C20.3125,5.3984375 15.8296875,0.909375 10.2890625,0.909375 C4.75,0.909375 0.2609375,5.3984375 0.2609375,10.9375 C0.2609375,16.478125 4.75,20.965625 10.2890625,20.965625 C15.8296875,20.965625 20.3125,16.478125 20.3125,10.9375" transform="matrix(1 0 0 -1 80.423 91.391)"/>
    <path fill="#3C3C3B" d="M15.625,7.8125 C15.625,3.9203125 12.4703125,0.7609375 8.5734375,0.7609375 C4.6796875,0.7609375 1.5234375,3.9203125 1.5234375,7.8125 C1.5234375,11.7078125 4.6796875,14.8640625 8.5734375,14.8640625 C12.4703125,14.8640625 15.625,11.7078125 15.625,7.8125" transform="matrix(1 0 0 -1 82.136 88.266)"/>
    <path fill="#D3C5C1" d="M20.3125,10.9375 C20.3125,5.3984375 15.821875,0.909375 10.2828125,0.909375 C4.7453125,0.909375 0.2578125,5.3984375 0.2578125,10.9375 C0.2578125,16.478125 4.7453125,20.965625 10.2828125,20.965625 C15.821875,20.965625 20.3125,16.478125 20.3125,10.9375" transform="matrix(1 0 0 -1 29.074 91.391)"/>
    <path fill="#3C3C3B" d="M15.625,7.8125 C15.625,3.9203125 12.4671875,0.7609375 8.5734375,0.7609375 C4.6796875,0.7609375 1.5265625,3.9203125 1.5265625,7.8125 C1.5265625,11.7078125 4.6796875,14.8640625 8.5734375,14.8640625 C12.4671875,14.8640625 15.625,11.7078125 15.625,7.8125" transform="matrix(1 0 0 -1 30.783 88.266)"/>
    <path fill="#FFF" d="M6.25,3.125 C6.25,1.696875 5.09375,0.5375 3.6625,0.5375 C2.2328125,0.5375 1.075,1.696875 1.075,3.125 C1.075,4.553125 2.2328125,5.7109375 3.6625,5.7109375 C5.09375,5.7109375 6.25,4.553125 6.25,3.125" transform="matrix(1 0 0 -1 38.322 81.464)"/>
    <path fill="#FFF" d="M6.25,3.125 C6.25,1.696875 5.090625,0.5375 3.6609375,0.5375 C2.23125,0.5375 1.075,1.696875 1.075,3.125 C1.075,4.553125 2.23125,5.7109375 3.6609375,5.7109375 C5.090625,5.7109375 6.25,4.553125 6.25,3.125" transform="matrix(1 0 0 -1 89.203 81.464)"/>
    <path fill="#3C3C3B" d="M25,21.875 C25,21.9125 24.9921875,21.9546875 24.9875,21.990625 L24.9875,22.0015625 C24.9875,22.003125 24.9828125,22.0046875 24.9828125,22.009375 C24.83125,25.0046875 19.5421875,27.409375 13.0296875,27.409375 C6.5203125,27.409375 1.23125,25.0046875 1.0734375,22.009375 C1.0734375,22.0046875 1.0703125,22.003125 1.0703125,22.0015625 C1.0703125,21.996875 1.0734375,21.99375 1.0734375,21.990625 C1.0703125,21.9546875 1.059375,21.9125 1.059375,21.875 C1.059375,19.1078125 5.446875,15.4078125 11.1765625,14.725 L11.1765625,6.484375 C10.6078125,5.8125 9.2921875,4.540625 7.953125,5.25625 C7.10625,5.7140625 6.0546875,5.396875 5.603125,4.5515625 C5.15,3.709375 5.4640625,2.65625 6.30625,2.2 C7.1578125,1.74375 7.9890625,1.5546875 8.7765625,1.5546875 C10.453125,1.5546875 11.93125,2.4234375 13.0109375,3.40625 C14.071875,2.421875 15.534375,1.553125 17.23125,1.553125 C18.0203125,1.553125 18.85625,1.7375 19.725,2.1890625 C20.575,2.63125 20.909375,3.678125 20.4703125,4.528125 C20.0296875,5.3796875 18.978125,5.7109375 18.128125,5.2703125 C16.6953125,4.5328125 15.428125,5.7828125 14.8828125,6.4609375 L14.8828125,14.725 C20.6125,15.4078125 25,19.1078125 25,21.875" transform="matrix(1 0 0 -1 52.005 132.119)"/>
  </g>
</svg>
