<?xml version="1.0" encoding="UTF-8" standalone="no"?>
<!-- Created with Inkscape (http://www.inkscape.org/) -->

<svg
   xmlns:dc="http://purl.org/dc/elements/1.1/"
   xmlns:cc="http://creativecommons.org/ns#"
   xmlns:rdf="http://www.w3.org/1999/02/22-rdf-syntax-ns#"
   xmlns:svg="http://www.w3.org/2000/svg"
   xmlns="http://www.w3.org/2000/svg"
   version="1.1"
   width="102.0555"
   height="149.33588"
   id="svg16371">
  <defs
     id="defs16373" />
  <metadata
     id="metadata16376">
    <rdf:RDF>
      <cc:Work
         rdf:about="">
        <dc:format>image/svg+xml</dc:format>
        <dc:type
           rdf:resource="http://purl.org/dc/dcmitype/StillImage" />
        <dc:title></dc:title>
      </cc:Work>
    </rdf:RDF>
  </metadata>
  <g
     transform="translate(-323.97225,-457.69424)"
     id="layer1">
    <g
       transform="matrix(1.25,0,0,-1.25,391.05813,586.80074)"
       id="g5810">
      <path
         d="m 0,0 c 1.163,0.046 2.262,0.132 3.311,0.256 l 0.002,0 C 2.265,0.134 1.161,0.047 0,0"
         id="path5812"
         style="fill:#c6ccd6;fill-opacity:1;fill-rule:nonzero;stroke:none" />
    </g>
    <g
       transform="matrix(1.25,0,0,-1.25,390.79813,586.80687)"
       id="g5814">
      <path
         d="M 0,0 C -0.516,-0.019 -1.037,-0.03 -1.576,-0.032 -1.037,-0.03 -0.517,-0.017 0,0"
         id="path5816"
         style="fill:#c6ccd6;fill-opacity:1;fill-rule:nonzero;stroke:none" />
    </g>
    <g
       transform="matrix(1.25,0,0,-1.25,406.865,570.52137)"
       id="g5818">
      <path
         d="M 0,0 C -0.069,-0.021 -0.141,-0.04 -0.209,-0.061 -0.141,-0.04 -0.069,-0.021 0,0"
         id="path5820"
         style="fill:#c6ccd6;fill-opacity:1;fill-rule:nonzero;stroke:none" />
    </g>
    <g
       transform="matrix(1.25,0,0,-1.25,405.61988,570.84612)"
       id="g5822">
      <path
         d="M 0,0 C -0.106,-0.023 -0.215,-0.048 -0.325,-0.07 -0.215,-0.048 -0.106,-0.023 0,0"
         id="path5824"
         style="fill:#c6ccd6;fill-opacity:1;fill-rule:nonzero;stroke:none" />
    </g>
    <g
       transform="matrix(1.25,0,0,-1.25,401.03863,571.42349)"
       id="g5826">
      <path
         d="M 0,0 C -0.181,-0.007 -0.355,-0.019 -0.54,-0.021 -0.355,-0.019 -0.181,-0.007 0,0"
         id="path5828"
         style="fill:#c6ccd6;fill-opacity:1;fill-rule:nonzero;stroke:none" />
    </g>
    <g
       transform="matrix(1.25,0,0,-1.25,402.72563,571.30999)"
       id="g5830">
      <path
         d="M 0,0 C -0.165,-0.016 -0.326,-0.033 -0.494,-0.047 -0.326,-0.033 -0.165,-0.017 0,0"
         id="path5832"
         style="fill:#c6ccd6;fill-opacity:1;fill-rule:nonzero;stroke:none" />
    </g>
    <g
       transform="matrix(1.25,0,0,-1.25,388.33963,563.26549)"
       id="g5834">
      <path
         d="M 0,0 C 0.764,0.121 1.512,0.262 2.255,0.409 1.514,0.262 0.764,0.121 0,0"
         id="path5836"
         style="fill:#c6ccd6;fill-opacity:1;fill-rule:nonzero;stroke:none" />
    </g>
    <g
       transform="matrix(1.25,0,0,-1.25,407.98438,570.15149)"
       id="g5838">
      <path
         d="M 0,0 C -0.021,-0.008 -0.041,-0.015 -0.062,-0.021 -0.041,-0.015 -0.021,-0.008 0,0"
         id="path5840"
         style="fill:#c6ccd6;fill-opacity:1;fill-rule:nonzero;stroke:none" />
    </g>
    <g
       transform="matrix(1.25,0,0,-1.25,399.12088,571.43812)"
       id="g5842">
      <path
         d="M 0,0 C -0.171,0.003 -0.334,0.002 -0.509,0.009 -0.334,0.002 -0.171,0.003 0,0"
         id="path5844"
         style="fill:#c6ccd6;fill-opacity:1;fill-rule:nonzero;stroke:none" />
    </g>
    <g
       transform="matrix(1.25,0,0,-1.25,391.70388,562.64662)"
       id="g5846">
      <path
         d="m 0,0 c 5.662,1.163 10.756,3.037 14.971,5.44 0,0.004 0,0.008 -10e-4,0.014 C 10.754,3.047 5.662,1.166 0,0"
         id="path5848"
         style="fill:#c6ccd6;fill-opacity:1;fill-rule:nonzero;stroke:none" />
    </g>
    <g
       transform="matrix(1.25,0,0,-1.25,404.24413,571.11099)"
       id="g5850">
      <path
         d="M 0,0 C -0.138,-0.023 -0.276,-0.045 -0.42,-0.066 -0.276,-0.045 -0.138,-0.023 0,0"
         id="path5852"
         style="fill:#c6ccd6;fill-opacity:1;fill-rule:nonzero;stroke:none" />
    </g>
    <g
       transform="matrix(1.25,0,0,-1.25,351.273,560.92787)"
       id="g5854">
      <path
         d="M 0,0 C -0.078,0.023 -0.156,0.047 -0.235,0.072 -0.156,0.047 -0.078,0.023 0,0"
         id="path5856"
         style="fill:#918bc1;fill-opacity:1;fill-rule:nonzero;stroke:none" />
    </g>
    <g
       transform="matrix(1.25,0,0,-1.25,356.804,562.38787)"
       id="g5858">
      <path
         d="M 0,0 C -0.152,0.034 -0.304,0.068 -0.457,0.104 -0.304,0.068 -0.152,0.035 0,0"
         id="path5860"
         style="fill:#918bc1;fill-opacity:1;fill-rule:nonzero;stroke:none" />
    </g>
    <g
       transform="matrix(1.25,0,0,-1.25,339.31625,555.84974)"
       id="g5862">
      <path
         d="M 0,0 C 2.761,-1.575 5.9,-2.921 9.33,-3.99 5.902,-2.921 2.762,-1.571 0,0.006 L 0,0 z"
         id="path5864"
         style="fill:#918bc1;fill-opacity:1;fill-rule:nonzero;stroke:none" />
    </g>
    <g
       transform="matrix(1.25,0,0,-1.25,356.23275,562.25724)"
       id="g5866">
      <path
         d="M 0,0 C -1.359,0.313 -2.684,0.668 -3.968,1.063 -2.683,0.668 -1.359,0.313 0,0"
         id="path5868"
         style="fill:#918bc1;fill-opacity:1;fill-rule:nonzero;stroke:none" />
    </g>
    <g
       transform="matrix(1.25,0,0,-1.25,359.33575,562.91149)"
       id="g5870">
      <path
         d="M 0,0 C -0.684,0.128 -1.358,0.271 -2.025,0.419 -1.358,0.271 -0.684,0.128 0,0"
         id="path5872"
         style="fill:#918bc1;fill-opacity:1;fill-rule:nonzero;stroke:none" />
    </g>
    <path
       d="m 371.45888,601.37849 -17.28,0 0,-18.715 17.28,0 0,18.715 z"
       id="path5874"
       style="fill:#3c3c3b;fill-opacity:1;fill-rule:nonzero;stroke:none" />
    <path
       d="m 396.96763,601.37849 -17.28375,0 0,-18.715 17.28375,0 0,18.715 z"
       id="path5876"
       style="fill:#3c3c3b;fill-opacity:1;fill-rule:nonzero;stroke:none" />
    <g
       transform="matrix(1.25,0,0,-1.25,362.81838,594.84512)"
       id="g5878">
      <path
         d="m 0,0 c -5.381,0 -9.745,-4.364 -9.745,-9.748 l 19.49,0 C 9.745,-4.364 5.384,0 0,0"
         id="path5880"
         style="fill:#3c3c3b;fill-opacity:1;fill-rule:nonzero;stroke:none" />
    </g>
    <g
       transform="matrix(1.25,0,0,-1.25,388.32375,594.84512)"
       id="g5882">
      <path
         d="m 0,0 c -5.381,0 -9.743,-4.364 -9.743,-9.748 l 19.491,0 C 9.748,-4.364 5.383,0 0,0"
         id="path5884"
         style="fill:#3c3c3b;fill-opacity:1;fill-rule:nonzero;stroke:none" />
    </g>
    <g
       transform="matrix(1.25,0,0,-1.25,348.07475,555.42862)"
       id="g5886">
      <path
         d="m 0,0 c -0.719,-2.209 -1.119,-4.562 -1.119,-7.015 0,-12.516 10.144,-22.663 22.659,-22.663 l 0,18.96 C 12.438,-10.718 4.479,-6.426 0,0"
         id="path5888"
         style="fill:#d3c5c1;fill-opacity:1;fill-rule:nonzero;stroke:none" />
    </g>
    <g
       transform="matrix(1.25,0,0,-1.25,374.99975,568.82587)"
       id="g5890">
      <path
         d="m 0,0 0,-18.96 c 12.514,0 22.66,10.147 22.66,22.663 0,2.453 -0.4,4.806 -1.119,7.015 C 17.06,4.292 9.102,0 0,0"
         id="path5892"
         style="fill:#f5f0f2;fill-opacity:1;fill-rule:nonzero;stroke:none" />
    </g>
    <g
       transform="matrix(1.25,0,0,-1.25,374.99975,535.87424)"
       id="g5894">
      <path
         d="m 0,0 c -10.062,0 -18.584,-6.564 -21.54,-15.644 4.479,-6.425 12.437,-10.717 21.54,-10.717 9.102,0 17.06,4.292 21.541,10.717 C 18.583,-6.564 10.063,0 0,0"
         id="path5896"
         style="fill:#d3c5c1;fill-opacity:1;fill-rule:nonzero;stroke:none" />
    </g>
    <g
       transform="matrix(1.25,0,0,-1.25,388.7425,580.89124)"
       id="g5898">
      <path
         d="m 0,0 c -3.129,0 -5.665,2.535 -5.665,5.666 0,3.13 2.536,5.665 5.665,5.665"
         id="path5900"
         style="fill:#3c3c3b;fill-opacity:1;fill-rule:nonzero;stroke:none" />
    </g>
    <g
       transform="matrix(1.25,0,0,-1.25,361.25713,580.89124)"
       id="g5902">
      <path
         d="m 0,0 c 3.127,0 5.662,2.535 5.662,5.666 0,3.13 -2.535,5.665 -5.662,5.665"
         id="path5904"
         style="fill:#3c3c3b;fill-opacity:1;fill-rule:nonzero;stroke:none" />
    </g>
    <g
       transform="matrix(1.25,0,0,-1.25,402.41925,457.69424)"
       id="g5906">
      <path
         d="m 0,0 c -6.432,0 -11.644,-6.323 -11.644,-12.755 0,-6.431 5.212,-11.643 11.644,-11.643 6.431,0 11.646,5.212 11.646,11.643 C 11.646,-6.323 6.431,0 0,0"
         id="path5908"
         style="fill:#3c3c3b;fill-opacity:1;fill-rule:nonzero;stroke:none" />
    </g>
    <g
       transform="matrix(1.25,0,0,-1.25,347.57913,457.69424)"
       id="g5910">
      <path
         d="m 0,0 c -6.431,0 -11.645,-6.323 -11.645,-12.755 0,-6.431 5.214,-11.643 11.645,-11.643 6.434,0 11.645,5.212 11.645,11.643 C 11.645,-6.323 6.434,0 0,0"
         id="path5912"
         style="fill:#3c3c3b;fill-opacity:1;fill-rule:nonzero;stroke:none" />
    </g>
    <g
       transform="matrix(1.25,0,0,-1.25,421.9615,522.61974)"
       id="g5914">
      <path
         d="m 0,0 c 0.26,1.782 0.397,3.602 0.397,5.456 0,20.915 -16.913,37.875 -37.808,37.963 -0.052,0 -0.104,0.003 -0.158,0.003 l 0,-77.033 c 0.129,-0.003 0.269,-0.009 0.39,-0.009 5.413,0 12.642,1.513 12.642,1.513 0.144,0.028 0.291,0.057 0.436,0.086 5.663,1.166 10.752,3.046 14.969,5.454 l 0,-0.014 C -1.496,-22.226 3.253,-16.136 3.253,-9.392 3.253,-6.059 2.094,-2.884 0,0"
         id="path5916"
         style="fill:#f5f0f2;fill-opacity:1;fill-rule:nonzero;stroke:none" />
    </g>
    <g
       transform="matrix(1.25,0,0,-1.25,374.99975,468.34249)"
       id="g5918">
      <path
         d="m 0,0 c -20.967,0 -37.965,-16.997 -37.965,-37.966 0,-1.854 0.139,-3.674 0.393,-5.456 -2.089,-2.884 -3.25,-6.058 -3.25,-9.391 0,-6.744 4.746,-12.835 12.381,-17.193 l 0,0.006 c 2.763,-1.577 5.901,-2.927 9.331,-3.996 0.078,-0.025 0.155,-0.049 0.236,-0.072 1.281,-0.396 2.607,-0.75 3.967,-1.064 0.151,-0.036 0.303,-0.07 0.456,-0.104 0.668,-0.148 2.025,-0.419 2.025,-0.419 0,0 8.155,-1.303 12.426,-1.378 L 0,0 z"
         id="path5920"
         style="fill:#d3c5c1;fill-opacity:1;fill-rule:nonzero;stroke:none" />
    </g>
    <g
       transform="matrix(1.25,0,0,-1.25,340.01688,513.57074)"
       id="g5922">
      <path
         d="m 0,0 c -5.433,-7.354 -4.896,-16.968 1.2,-21.473 6.096,-4.501 11.777,-0.598 17.21,6.757 5.434,7.358 8.564,15.382 2.467,19.883 C 14.782,9.669 5.434,7.357 0,0"
         id="path5924"
         style="fill:#3c3c3b;fill-opacity:1;fill-rule:nonzero;stroke:none" />
    </g>
    <g
       transform="matrix(1.25,0,0,-1.25,409.9815,513.57074)"
       id="g5926">
      <path
         d="m 0,0 c 5.433,-7.354 4.896,-16.968 -1.2,-21.473 -6.096,-4.501 -11.778,-0.598 -17.21,6.757 -5.433,7.358 -8.564,15.382 -2.467,19.883 C -14.782,9.669 -5.435,7.357 0,0"
         id="path5928"
         style="fill:#3c3c3b;fill-opacity:1;fill-rule:nonzero;stroke:none" />
    </g>
    <g
       transform="matrix(1.25,0,0,-1.25,403.56063,521.05724)"
       id="g5930">
      <path
         d="m 0,0 c 0,-3.545 -2.869,-6.418 -6.415,-6.418 -3.545,0 -6.418,2.873 -6.418,6.418 0,3.546 2.873,6.418 6.418,6.418 C -2.869,6.418 0,3.546 0,0"
         id="path5932"
         style="fill:#f5f0f2;fill-opacity:1;fill-rule:nonzero;stroke:none" />
    </g>
    <g
       transform="matrix(1.25,0,0,-1.25,401.18138,521.05724)"
       id="g5934">
      <path
         d="m 0,0 c 0,-2.491 -2.019,-4.513 -4.513,-4.513 -2.492,0 -4.512,2.022 -4.512,4.513 0,2.493 2.02,4.513 4.512,4.513 C -2.019,4.513 0,2.493 0,0"
         id="path5936"
         style="fill:#3c3c3b;fill-opacity:1;fill-rule:nonzero;stroke:none" />
    </g>
    <g
       transform="matrix(1.25,0,0,-1.25,362.4815,521.05724)"
       id="g5938">
      <path
         d="m 0,0 c 0,-3.545 -2.874,-6.418 -6.419,-6.418 -3.544,0 -6.416,2.873 -6.416,6.418 0,3.546 2.872,6.418 6.416,6.418 C -2.874,6.418 0,3.546 0,0"
         id="path5940"
         style="fill:#d3c5c1;fill-opacity:1;fill-rule:nonzero;stroke:none" />
    </g>
    <g
       transform="matrix(1.25,0,0,-1.25,360.09863,521.05724)"
       id="g5942">
      <path
         d="m 0,0 c 0,-2.491 -2.021,-4.513 -4.513,-4.513 -2.492,0 -4.51,2.022 -4.51,4.513 0,2.493 2.018,4.513 4.51,4.513 C -2.021,4.513 0,2.493 0,0"
         id="path5944"
         style="fill:#3c3c3b;fill-opacity:1;fill-rule:nonzero;stroke:none" />
    </g>
    <g
       transform="matrix(1.25,0,0,-1.25,358.63013,519.36537)"
       id="g5946">
      <path
         d="m 0,0 c 0,-0.914 -0.74,-1.656 -1.656,-1.656 -0.915,0 -1.656,0.742 -1.656,1.656 0,0.914 0.741,1.655 1.656,1.655 C -0.74,1.655 0,0.914 0,0"
         id="path5948"
         style="fill:#ffffff;fill-opacity:1;fill-rule:nonzero;stroke:none" />
    </g>
    <g
       transform="matrix(1.25,0,0,-1.25,399.3345,519.36537)"
       id="g5950">
      <path
         d="m 0,0 c 0,-0.914 -0.742,-1.656 -1.657,-1.656 -0.915,0 -1.655,0.742 -1.655,1.656 0,0.914 0.74,1.655 1.655,1.655 C -0.742,1.655 0,0.914 0,0"
         id="path5952"
         style="fill:#ffffff;fill-opacity:1;fill-rule:nonzero;stroke:none" />
    </g>
    <g
       transform="matrix(1.25,0,0,-1.25,384.57625,544.88912)"
       id="g5954">
      <path
         d="m 0,0 c 0,0.024 -0.005,0.051 -0.008,0.074 l 0,0.007 c 0,0.001 -0.003,0.002 -0.003,0.005 -0.097,1.917 -3.482,3.456 -7.65,3.456 -4.166,0 -7.551,-1.539 -7.652,-3.456 0,-0.003 -0.002,-0.004 -0.002,-0.005 0,-0.003 0.002,-0.005 0.002,-0.007 -0.002,-0.023 -0.009,-0.05 -0.009,-0.074 0,-1.771 2.808,-4.139 6.475,-4.576 l 0,-5.274 c -0.364,-0.43 -1.206,-1.244 -2.063,-0.786 -0.542,0.293 -1.215,0.09 -1.504,-0.451 -0.29,-0.539 -0.089,-1.213 0.45,-1.505 0.545,-0.292 1.077,-0.413 1.581,-0.413 1.073,0 2.019,0.556 2.71,1.185 0.679,-0.63 1.615,-1.186 2.701,-1.186 0.505,0 1.04,0.118 1.596,0.407 0.544,0.283 0.758,0.953 0.477,1.497 -0.282,0.545 -0.955,0.757 -1.499,0.475 -0.917,-0.472 -1.728,0.328 -2.077,0.762 l 0,5.289 C -2.808,-4.139 0,-1.771 0,0"
         id="path5956"
         style="fill:#3c3c3b;fill-opacity:1;fill-rule:nonzero;stroke:none" />
    </g>
  </g>
</svg>
