<svg xmlns="http://www.w3.org/2000/svg" width="160" height="190" viewBox="0 0 160 190">
  <g fill="none" fill-rule="evenodd" transform="translate(0 4)">
    <path fill="#2D466A" d="M130.434783,106.086957 C123.403478,117.862609 121.796522,132.791304 121.434783,140.050435 C121.438261,140.226087 121.457391,140.4 121.457391,140.577391 C121.457391,141.370435 121.382609,142.142609 121.34087,142.923478 C121.325217,143.857391 121.335652,144.426087 121.335652,144.426087 L121.267826,144.325217 C119.363478,166.546087 100.758261,183.991304 78.0452174,183.991304 C55.3565217,183.991304 36.76,166.584348 34.8208696,144.396522 L34.8034783,144.426087 C34.8034783,144.426087 34.8052174,144.29913 34.8052174,144.097391 C34.7113043,142.935652 34.6295652,141.765217 34.6295652,140.577391 C34.6295652,140.212174 34.6626087,139.857391 34.6730435,139.497391 C34.2608696,132.053913 32.5582609,117.570435 25.7043478,106.086957 C16.0591304,89.9286957 -0.827826087,62.9147826 1.34086957,43.3773913 C1.34086957,43.3773913 4.23478261,42.1721739 10.5095652,53.2678261 C11.9895652,55.8834783 13.666087,58.6591304 15.3721739,61.373913 C16.1947826,27.453913 43.9269565,0.203478261 78.0452174,0.203478261 C112.189565,0.203478261 139.937391,27.4956522 140.718261,61.4556522 C142.436522,58.7130435 144.133913,55.9078261 145.627826,53.2678261 C151.902609,42.1721739 154.794783,43.3773913 154.794783,43.3773913 C156.963478,62.9147826 140.08,89.9286957 130.434783,106.086957" transform="matrix(1 0 0 -1 1.632 185.383)"/>
    <path fill="#D3C5C1" d="M20.8695652,133.913043 L19.0226087,133.913043 C19.0226087,133.913043 18.0069565,114.37913 14.6278261,104.245217 C11.2504348,94.1165217 2.6,70.7773913 2.18782609,63.2278261 L2.24521739,63.2278261 C1.73913043,60.3252174 1.4173913,57.3582609 1.4173913,54.3182609 C1.4173913,24.893913 25.9165217,1.04347826 56.1391304,1.04347826 L56.1391304,133.913043 L20.8695652,133.913043 Z" transform="matrix(1 0 0 -1 23.56 178.475)"/>
    <path fill="#F6E9E5" d="M55.6521739,53.9130435 C55.6521739,56.9530435 55.3321739,59.9182609 54.8278261,62.8226087 L54.8834783,62.8226087 C54.2991304,70.2817391 45.8156522,93.7113043 42.44,103.84 C39.0626087,113.972174 38.0504348,133.507826 38.0504348,133.507826 L36.1965217,133.507826 L0.928695652,133.507826 L0.928695652,0.636521739 C31.1530435,0.636521739 55.6521739,24.4886957 55.6521739,53.9130435" transform="matrix(1 0 0 -1 78.771 178.07)"/>
    <path fill="#F6E9E5" d="M55.6521739,38.2608696 C47.6521739,38.2608696 40.7913043,33.6434783 37.8521739,27.0591304 C34.9165217,33.6434783 28.0521739,38.2608696 20.0556522,38.2608696 C9.38434783,38.2608696 0.735652174,30.0417391 0.735652174,19.9043478 C0.735652174,9.76347826 9.38434783,1.54782609 20.0556522,1.54782609 C28.0521739,1.54782609 34.9165217,0.380869565 37.8521739,6.96173913 C40.7913043,0.380869565 47.6521739,1.54782609 55.6521739,1.54782609 C66.32,1.54782609 74.973913,9.76347826 74.973913,19.9043478 C74.973913,30.0417391 66.32,38.2608696 55.6521739,38.2608696" transform="matrix(1 0 0 -1 41.848 64.467)"/>
    <path fill="#F39E2B" d="M6.95652174,24.3478261 L2.28,21.2591304 C0.396521739,20.0173913 -0.19826087,17.413913 0.954782609,15.4747826 L8.28,3.17391304 C8.8573913,2.20695652 9.61913043,1.72 10.3773913,1.72 L10.3773913,25.28 C9.13565217,25.28 7.89565217,24.9686957 6.95652174,24.3478261" transform="matrix(1 0 0 -1 69.322 82.803)"/>
    <path fill="#FBDD58" d="M3.47826087,1.73913043 L10.8052174,14.04 C11.9582609,15.9791304 11.3617391,18.5826087 9.48,19.8226087 L4.80347826,22.9130435 C3.85913043,23.533913 2.61913043,23.8452174 1.3773913,23.8452174 L1.3773913,0.285217391 C2.14086957,0.285217391 2.90086957,0.770434783 3.47826087,1.73913043" transform="matrix(1 0 0 -1 78.322 81.368)"/>
    <path fill="#FBDD58" d="M27.826087,13.9130435 C27.826087,6.69217391 21.9721739,0.833043478 14.7495652,0.833043478 C7.52521739,0.833043478 1.67130435,6.69217391 1.67130435,13.9130435 C1.67130435,21.1356522 7.52521739,26.9930435 14.7495652,26.9930435 C21.9721739,26.9930435 27.826087,21.1356522 27.826087,13.9130435" transform="matrix(1 0 0 -1 83.283 58.356)"/>
    <path fill="#FBDD58" d="M27.826087,13.9130435 C27.826087,6.69217391 21.9669565,0.833043478 14.7478261,0.833043478 C7.52347826,0.833043478 1.66608696,6.69217391 1.66608696,13.9130435 C1.66608696,21.1356522 7.52347826,26.9930435 14.7478261,26.9930435 C21.9669565,26.9930435 27.826087,21.1356522 27.826087,13.9130435" transform="matrix(1 0 0 -1 46.623 58.356)"/>
    <path fill="#3C3C3B" d="M17.3913043,8.69565217 C17.3913043,4.29913043 13.8278261,0.733913043 9.43130435,0.733913043 C5.03478261,0.733913043 1.46782609,4.29913043 1.46782609,8.69565217 C1.46782609,13.0904348 5.03478261,16.653913 9.43130435,16.653913 C13.8278261,16.653913 17.3913043,13.0904348 17.3913043,8.69565217" transform="matrix(1 0 0 -1 51.94 53.139)"/>
    <path fill="#3C3C3B" d="M17.3913043,8.69565217 C17.3913043,4.29913043 13.8243478,0.733913043 9.43130435,0.733913043 C5.03304348,0.733913043 1.46956522,4.29913043 1.46956522,8.69565217 C1.46956522,13.0904348 5.03304348,16.653913 9.43130435,16.653913 C13.8243478,16.653913 17.3913043,13.0904348 17.3913043,8.69565217" transform="matrix(1 0 0 -1 88.6 53.139)"/>
    <path fill="#FFF" d="M6.95652174,3.47826087 C6.95652174,1.68 5.49565217,0.222608696 3.69565217,0.222608696 C1.8973913,0.222608696 0.44,1.68 0.44,3.47826087 C0.44,5.27478261 1.8973913,6.73391304 3.69565217,6.73391304 C5.49565217,6.73391304 6.95652174,5.27478261 6.95652174,3.47826087" transform="matrix(1 0 0 -1 59.5 44.662)"/>
    <path fill="#FFF" d="M6.95652174,3.47826087 C6.95652174,1.68 5.49565217,0.222608696 3.6973913,0.222608696 C1.8973913,0.222608696 0.44,1.68 0.44,3.47826087 C0.44,5.27478261 1.8973913,6.73391304 3.6973913,6.73391304 C5.49565217,6.73391304 6.95652174,5.27478261 6.95652174,3.47826087" transform="matrix(1 0 0 -1 96.194 44.662)"/>
    <path fill="#CB8128" d="M36.5217391,0 C36.5217391,9.85913043 28.5304348,17.8504348 18.6730435,17.8504348 C8.8173913,17.8504348 0.824347826,9.85913043 0.824347826,0 L36.5217391,0 Z" transform="matrix(1 0 0 -1 34.109 185.179)"/>
    <path fill="#F39E2B" d="M36.5217391,0 C36.5217391,9.85913043 28.5321739,17.8504348 18.6730435,17.8504348 C8.81565217,17.8504348 0.824347826,9.85913043 0.824347826,0 L36.5217391,0 Z" transform="matrix(1 0 0 -1 87.944 185.179)"/>
  </g>
</svg>
