<?xml version="1.0" encoding="UTF-8" standalone="no"?>
<!-- Created with Inkscape (http://www.inkscape.org/) -->

<svg
   xmlns:dc="http://purl.org/dc/elements/1.1/"
   xmlns:cc="http://creativecommons.org/ns#"
   xmlns:rdf="http://www.w3.org/1999/02/22-rdf-syntax-ns#"
   xmlns:svg="http://www.w3.org/2000/svg"
   xmlns="http://www.w3.org/2000/svg"
   version="1.1"
   width="130.62375"
   height="111.73475"
   id="svg12831">
  <defs
     id="defs12833" />
  <metadata
     id="metadata12836">
    <rdf:RDF>
      <cc:Work
         rdf:about="">
        <dc:format>image/svg+xml</dc:format>
        <dc:type
           rdf:resource="http://purl.org/dc/dcmitype/StillImage" />
        <dc:title></dc:title>
      </cc:Work>
    </rdf:RDF>
  </metadata>
  <g
     transform="translate(-309.68812,-476.49481)"
     id="layer1">
    <path
       d="m 368.81012,582.16168 -13.57875,0 0,-18.7225 13.57875,0 0,18.7225 z"
       id="path3100"
       style="fill:#d76c79;fill-opacity:1;fill-rule:nonzero;stroke:none" />
    <path
       d="m 394.76887,582.16168 -13.57875,0 0,-18.7225 13.57875,0 0,18.7225 z"
       id="path3102"
       style="fill:#f29e9f;fill-opacity:1;fill-rule:nonzero;stroke:none" />
    <g
       transform="matrix(1.25,0,0,-1.25,361.87687,584.58956)"
       id="g3104">
      <path
         d="m 0,0 c 0.46,0 0.834,-0.372 0.834,-0.832 l 0,-2.08 8.736,0 c 0,5.222 -4.236,9.454 -9.455,9.454 -5.219,0 -9.456,-4.232 -9.456,-9.454 l 8.509,0 0,2.08 C -0.832,-0.372 -0.461,0 0,0"
         id="path3106"
         style="fill:#3c3c3b;fill-opacity:1;fill-rule:nonzero;stroke:none" />
    </g>
    <g
       transform="matrix(1.25,0,0,-1.25,387.83624,584.58956)"
       id="g3108">
      <path
         d="m 0,0 c 0.459,0 0.833,-0.372 0.833,-0.832 l 0,-2.08 8.737,0 c 0,5.222 -4.231,9.454 -9.457,9.454 -5.217,0 -9.452,-4.232 -9.452,-9.454 l 8.507,0 0,2.08 C -0.832,-0.372 -0.461,0 0,0"
         id="path3110"
         style="fill:#3c3c3b;fill-opacity:1;fill-rule:nonzero;stroke:none" />
    </g>
    <g
       transform="matrix(1.25,0,0,-1.25,334.04724,538.44393)"
       id="g3112">
      <path
         d="m 0,0 c -0.084,-0.82 -0.146,-1.647 -0.146,-2.488 0,-15.718 14.731,-28.462 32.907,-28.462 l 0,13.786 C 18.081,-17.164 5.482,-10.096 0,0"
         id="path3114"
         style="fill:#d76c79;fill-opacity:1;fill-rule:nonzero;stroke:none" />
    </g>
    <g
       transform="matrix(1.25,0,0,-1.25,374.99812,559.89843)"
       id="g3116">
      <path
         d="m 0,0 0,43.136 c -17.2,0 -31.304,-11.419 -32.761,-25.972 C -27.278,7.068 -14.68,0 0,0"
         id="path3118"
         style="fill:#d76c79;fill-opacity:1;fill-rule:nonzero;stroke:none" />
    </g>
    <g
       transform="matrix(1.25,0,0,-1.25,374.99812,505.97818)"
       id="g3120">
      <path
         d="m 0,0 0,-43.136 c 14.681,0 27.278,7.068 32.763,17.163 C 31.305,-11.419 17.202,0 0,0"
         id="path3122"
         style="fill:#d76c79;fill-opacity:1;fill-rule:nonzero;stroke:none" />
    </g>
    <g
       transform="matrix(1.25,0,0,-1.25,416.13337,541.55431)"
       id="g3124">
      <path
         d="M 0,0 C 0,0.841 0,3.69 -1.394,8.164 -6.058,-7.97 -18.228,-14.675 -32.908,-14.675 l 0,-13.786 C -14.731,-28.461 0,-15.718 0,0"
         id="path3126"
         style="fill:#f29e9f;fill-opacity:1;fill-rule:nonzero;stroke:none" />
    </g>
    <g
       transform="matrix(1.25,0,0,-1.25,410.34124,546.47006)"
       id="g3128">
      <path
         d="m 0,0 c 2.64,-2.227 7.016,-2.66 10.128,-1.221 1.837,0.847 6.316,4.588 2.274,5.744 -2.192,0.626 -4.28,-0.819 -4.038,-3.087 0.34,-3.189 3.625,-4.762 6.479,-4.614 1.016,0.052 3.278,1.678 1.232,1.573 -2.491,-0.129 -4.967,2.036 -4.664,4.674 0.021,0.093 0.047,0.185 0.072,0.279 C 10.058,3.35 9.896,3.014 11,2.338 11.362,1.479 9.575,0.272 9.089,-0.046 7.341,-1.194 4.299,-0.073 2.855,1.146 2.092,1.789 -0.728,0.612 0,0"
         id="path3130"
         style="fill:#f29e9f;fill-opacity:1;fill-rule:nonzero;stroke:none" />
    </g>
    <g
       transform="matrix(1.25,0,0,-1.25,309.68812,517.32031)"
       id="g3132">
      <path
         d="m 0,0 c 0,0 3.189,21.912 15.532,21.912 l 16.487,0 C 32.019,21.912 26.351,0 14.008,0 L 0,0 z"
         id="path3134"
         style="fill:#f29e9f;fill-opacity:1;fill-rule:nonzero;stroke:none" />
    </g>
    <g
       transform="matrix(1.25,0,0,-1.25,316.78162,512.46806)"
       id="g3136">
      <path
         d="m 0,0 c 0,0 2.058,14.147 10.026,14.147 l 10.645,0 C 20.671,14.147 17.01,0 9.041,0 L 0,0 z"
         id="path3138"
         style="fill:#d76c79;fill-opacity:1;fill-rule:nonzero;stroke:none" />
    </g>
    <g
       transform="matrix(1.25,0,0,-1.25,440.31187,517.32031)"
       id="g3140">
      <path
         d="m 0,0 c 0,0 -3.188,21.912 -15.531,21.912 l -16.49,0 c 0,0 5.671,-21.912 18.014,-21.912 L 0,0 z"
         id="path3142"
         style="fill:#f29e9f;fill-opacity:1;fill-rule:nonzero;stroke:none" />
    </g>
    <g
       transform="matrix(1.25,0,0,-1.25,433.21962,512.46806)"
       id="g3144">
      <path
         d="m 0,0 c 0,0 -2.06,14.147 -10.028,14.147 l -10.644,0 c 0,0 3.661,-14.147 11.63,-14.147 L 0,0 z"
         id="path3146"
         style="fill:#d76c79;fill-opacity:1;fill-rule:nonzero;stroke:none" />
    </g>
    <g
       transform="matrix(1.25,0,0,-1.25,339.89687,502.23981)"
       id="g3148">
      <path
         d="m 0,0 c 0,-0.878 0.098,-1.737 0.244,-2.586 -3.3,-3.82 -5.237,-8.35 -5.237,-13.223 0,-13.557 14.809,-24.547 33.074,-24.547 l 0,60.952 C 12.572,20.596 0,11.375 0,0"
         id="path3150"
         style="fill:#d76c79;fill-opacity:1;fill-rule:nonzero;stroke:none" />
    </g>
    <g
       transform="matrix(1.25,0,0,-1.25,416.34587,522.00106)"
       id="g3152">
      <path
         d="m 0,0 c 0,4.874 -1.938,9.403 -5.238,13.223 0.144,0.849 0.245,1.708 0.245,2.586 0,11.376 -12.573,20.596 -28.085,20.596 l 0,-60.952 C -14.811,-24.547 0,-13.557 0,0"
         id="path3154"
         style="fill:#f29e9f;fill-opacity:1;fill-rule:nonzero;stroke:none" />
    </g>
    <g
       transform="matrix(1.25,0,0,-1.25,354.71737,510.29943)"
       id="g3156">
      <path
         d="m 0,0 c 0,-1.896 -1.534,-3.433 -3.434,-3.433 -1.894,0 -3.43,1.537 -3.43,3.433 0,1.896 1.536,3.432 3.43,3.432 C -1.534,3.432 0,1.896 0,0"
         id="path3158"
         style="fill:#3c3c3b;fill-opacity:1;fill-rule:nonzero;stroke:none" />
    </g>
    <g
       transform="matrix(1.25,0,0,-1.25,403.86287,510.29943)"
       id="g3160">
      <path
         d="m 0,0 c 0,-1.896 -1.535,-3.433 -3.431,-3.433 -1.899,0 -3.432,1.537 -3.432,3.433 0,1.896 1.533,3.432 3.432,3.432 C -1.535,3.432 0,1.896 0,0"
         id="path3162"
         style="fill:#3c3c3b;fill-opacity:1;fill-rule:nonzero;stroke:none" />
    </g>
    <g
       transform="matrix(1.25,0,0,-1.25,353.38687,509.18068)"
       id="g3164">
      <path
         d="m 0,0 c 0,-0.715 -0.58,-1.295 -1.295,-1.295 -0.717,0 -1.298,0.58 -1.298,1.295 0,0.716 0.581,1.297 1.298,1.297 C -0.58,1.297 0,0.716 0,0"
         id="path3166"
         style="fill:#ffffff;fill-opacity:1;fill-rule:nonzero;stroke:none" />
    </g>
    <g
       transform="matrix(1.25,0,0,-1.25,402.81312,509.18068)"
       id="g3168">
      <path
         d="m 0,0 c 0,-0.715 -0.581,-1.295 -1.297,-1.295 -0.715,0 -1.296,0.58 -1.296,1.295 0,0.716 0.581,1.297 1.296,1.297 C -0.581,1.297 0,0.716 0,0"
         id="path3170"
         style="fill:#ffffff;fill-opacity:1;fill-rule:nonzero;stroke:none" />
    </g>
    <g
       transform="matrix(1.25,0,0,-1.25,374.99812,546.70693)"
       id="g3172">
      <path
         d="m 0,0 c -10.702,0 -19.088,5.529 -19.088,12.587 0,7.059 8.386,12.588 19.088,12.588 10.706,0 19.09,-5.529 19.09,-12.588 C 19.09,5.529 10.706,0 0,0"
         id="path3174"
         style="fill:#d76c79;fill-opacity:1;fill-rule:nonzero;stroke:none" />
    </g>
    <g
       transform="matrix(1.25,0,0,-1.25,374.99812,513.15593)"
       id="g3176">
      <path
         d="m 0,0 c -11.638,0 -20.754,-6.261 -20.754,-14.253 0,-7.993 9.116,-14.253 20.754,-14.253 11.64,0 20.756,6.26 20.756,14.253 C 20.756,-6.261 11.64,0 0,0 m 0,-3.332 c 9.626,0 17.425,-4.889 17.425,-10.921 0,-6.032 -7.799,-10.922 -17.425,-10.922 -9.622,0 -17.422,4.89 -17.422,10.922 0,6.032 7.8,10.921 17.422,10.921"
         id="path3178"
         style="fill:#f29e9f;fill-opacity:1;fill-rule:nonzero;stroke:none" />
    </g>
    <g
       transform="matrix(1.25,0,0,-1.25,367.00499,528.89131)"
       id="g3180">
      <path
         d="m 0,0 c 0,-1.494 -1.212,-2.705 -2.705,-2.705 -1.494,0 -2.704,1.211 -2.704,2.705 0,1.493 1.21,2.704 2.704,2.704 C -1.212,2.704 0,1.493 0,0"
         id="path3182"
         style="fill:#3c3c3b;fill-opacity:1;fill-rule:nonzero;stroke:none" />
    </g>
    <g
       transform="matrix(1.25,0,0,-1.25,390.27774,528.89131)"
       id="g3184">
      <path
         d="m 0,0 c 0,-1.494 -1.21,-2.705 -2.705,-2.705 -1.494,0 -2.704,1.211 -2.704,2.705 0,1.493 1.21,2.704 2.704,2.704 C -1.21,2.704 0,1.493 0,0"
         id="path3186"
         style="fill:#3c3c3b;fill-opacity:1;fill-rule:nonzero;stroke:none" />
    </g>
  </g>
</svg>
