<svg xmlns="http://www.w3.org/2000/svg" width="160" height="190" viewBox="0 0 160 190">
  <g fill="none" fill-rule="evenodd" transform="translate(0 52)">
    <polygon fill="#D76C79" points="72.327 129.524 55.992 129.524 55.992 107.001 72.327 107.001"/>
    <polygon fill="#F29E9F" points="103.556 129.524 87.22 129.524 87.22 107.001 103.556 107.001"/>
    <path fill="#3C3C3B" d="M15.037594,4.5112782 C15.7293233,4.5112782 16.2917293,3.9518797 16.2917293,3.26015038 L16.2917293,0.132330827 L29.4285714,0.132330827 C29.4285714,7.98496241 23.0586466,14.3488722 15.2105263,14.3488722 C7.36240602,14.3488722 0.990977444,7.98496241 0.990977444,0.132330827 L13.7864662,0.132330827 L13.7864662,3.26015038 C13.7864662,3.9518797 14.3443609,4.5112782 15.037594,4.5112782" transform="matrix(1 0 0 -1 48.949 136.956)"/>
    <path fill="#3C3C3B" d="M15.037594,4.5112782 C15.7278195,4.5112782 16.2902256,3.9518797 16.2902256,3.26015038 L16.2902256,0.132330827 L29.4285714,0.132330827 C29.4285714,7.98496241 23.0661654,14.3488722 15.2075188,14.3488722 C7.36240602,14.3488722 0.993984962,7.98496241 0.993984962,0.132330827 L13.7864662,0.132330827 L13.7864662,3.26015038 C13.7864662,3.9518797 14.3443609,4.5112782 15.037594,4.5112782" transform="matrix(1 0 0 -1 80.178 136.956)"/>
    <path fill="#D76C79" d="M1.5037594,46.6165414 C1.37744361,45.3834586 1.28421053,44.1398496 1.28421053,42.875188 C1.28421053,19.2390977 23.4360902,0.0751879699 50.7684211,0.0751879699 L50.7684211,20.806015 C28.6932331,20.806015 9.74736842,31.4345865 1.5037594,46.6165414" transform="matrix(1 0 0 -1 29.003 123.548)"/>
    <path fill="#D76C79" d="M49.6240602,0 L49.6240602,64.8661654 C23.7593985,64.8661654 2.55037594,47.6947368 0.359398496,25.8105263 C8.60451128,10.6285714 27.5488722,0 49.6240602,0" transform="matrix(1 0 0 -1 30.147 102.741)"/>
    <path fill="#D76C79" d="M0,66.1654135 L0,1.29924812 C22.0766917,1.29924812 41.0195489,11.9278195 49.2676692,27.1082707 C47.075188,48.993985 25.8676692,66.1654135 0,66.1654135" transform="matrix(1 0 0 -1 79.771 104.04)"/>
    <path fill="#F29E9F" d="M49.6240602,43.6090226 C49.6240602,44.8736842 49.6240602,49.1578947 47.5278195,55.8857143 C40.5142857,31.6240602 22.2135338,21.5413534 0.138345865,21.5413534 L0.138345865,0.810526316 C27.4721805,0.810526316 49.6240602,19.9729323 49.6240602,43.6090226" transform="matrix(1 0 0 -1 79.633 124.282)"/>
    <path fill="#F29E9F" d="M1.5037594,6.01503759 C5.47368421,2.66616541 12.0541353,2.01503759 16.7338346,4.17894737 C19.4962406,5.45263158 26.2315789,11.0781955 20.1533835,12.8165414 C16.8571429,13.7578947 13.7172932,11.5849624 14.081203,8.17443609 C14.5924812,3.37894737 19.5323308,1.01353383 23.8240602,1.23609023 C25.3518797,1.31428571 28.7533835,3.7593985 25.6766917,3.60150376 C21.9308271,3.4075188 18.2075188,6.66315789 18.6631579,10.6300752 C18.6947368,10.7699248 18.7338346,10.9082707 18.7714286,11.0496241 C16.6285714,11.0526316 16.3849624,10.5473684 18.0451128,9.53082707 C18.5894737,8.23909774 15.9022556,6.42406015 15.1714286,5.94586466 C12.5428571,4.21954887 7.96842105,5.90526316 5.79699248,7.73834586 C4.64962406,8.70526316 0.409022556,6.93533835 1.5037594,6.01503759" transform="matrix(1 0 0 -1 120.786 92.602)"/>
    <path fill="#F29E9F" d="M0,0 C0,0 4.79548872,32.9503759 23.356391,32.9503759 L48.1488722,32.9503759 C48.1488722,32.9503759 39.6255639,0 21.0646617,0 L0,0 Z" transform="matrix(1 0 0 -1 1.203 51.52)"/>
    <path fill="#D76C79" d="M0,0 C0,0 3.09473684,21.2736842 15.0766917,21.2736842 L31.0842105,21.2736842 C31.0842105,21.2736842 25.5789474,0 13.5954887,0 L0,0 Z" transform="matrix(1 0 0 -1 9.737 45.682)"/>
    <path fill="#F29E9F" d="M49.6240602,0 C49.6240602,0 44.8300752,32.9503759 26.2691729,32.9503759 L1.47218045,32.9503759 C1.47218045,32.9503759 10,0 28.5609023,0 L49.6240602,0 Z" transform="matrix(1 0 0 -1 108.72 51.52)"/>
    <path fill="#D76C79" d="M31.5789474,0 C31.5789474,0 28.481203,21.2736842 16.4992481,21.2736842 L0.493233083,21.2736842 C0.493233083,21.2736842 5.99849624,0 17.9819549,0 L31.5789474,0 Z" transform="matrix(1 0 0 -1 118.233 45.682)"/>
    <path fill="#D76C79" d="M7.51879699,61.6541353 C7.51879699,60.3338346 7.66616541,59.0421053 7.88571429,57.7654135 C2.92330827,52.0210526 0.0105263158,45.2090226 0.0105263158,37.881203 C0.0105263158,17.4947368 22.2796992,0.968421053 49.7458647,0.968421053 L49.7458647,92.6255639 C26.4240602,92.6255639 7.51879699,78.7593985 7.51879699,61.6541353" transform="matrix(1 0 0 -1 30.026 95.032)"/>
    <path fill="#F29E9F" d="M51.1278195,37.593985 C51.1278195,44.9233083 48.2135338,51.7338346 43.2511278,57.4781955 C43.4676692,58.7548872 43.6195489,60.0466165 43.6195489,61.3669173 C43.6195489,78.4736842 24.712782,92.3383459 1.38646617,92.3383459 L1.38646617,0.681203008 C28.8556391,0.681203008 51.1278195,17.2075188 51.1278195,37.593985" transform="matrix(1 0 0 -1 78.385 94.744)"/>
    <path fill="#3C3C3B" d="M10.5263158,6.01503759 C10.5263158,3.16390977 8.21954887,0.852631579 5.36240602,0.852631579 C2.51428571,0.852631579 0.204511278,3.16390977 0.204511278,6.01503759 C0.204511278,8.86616541 2.51428571,11.1759398 5.36240602,11.1759398 C8.21954887,11.1759398 10.5263158,8.86616541 10.5263158,6.01503759" transform="matrix(1 0 0 -1 44.847 49.088)"/>
    <path fill="#3C3C3B" d="M10.5263158,6.01503759 C10.5263158,3.16390977 8.21804511,0.852631579 5.36691729,0.852631579 C2.5112782,0.852631579 0.206015038,3.16390977 0.206015038,6.01503759 C0.206015038,8.86616541 2.5112782,11.1759398 5.36691729,11.1759398 C8.21804511,11.1759398 10.5263158,8.86616541 10.5263158,6.01503759" transform="matrix(1 0 0 -1 103.97 49.088)"/>
    <path fill="#FFF" d="M4.5112782,3.0075188 C4.5112782,1.93233083 3.63909774,1.06015038 2.56390977,1.06015038 C1.48571429,1.06015038 0.612030075,1.93233083 0.612030075,3.0075188 C0.612030075,4.08421053 1.48571429,4.95789474 2.56390977,4.95789474 C3.63909774,4.95789474 4.5112782,4.08421053 4.5112782,3.0075188" transform="matrix(1 0 0 -1 49.262 44.735)"/>
    <path fill="#FFF" d="M4.5112782,3.0075188 C4.5112782,1.93233083 3.63759398,1.06015038 2.56090226,1.06015038 C1.48571429,1.06015038 0.612030075,1.93233083 0.612030075,3.0075188 C0.612030075,4.08421053 1.48571429,4.95789474 2.56090226,4.95789474 C3.63759398,4.95789474 4.5112782,4.08421053 4.5112782,3.0075188" transform="matrix(1 0 0 -1 108.722 44.735)"/>
    <path fill="#D76C79" d="M30.075188,0 C13.9819549,0 1.37142857,8.31428571 1.37142857,18.9278195 C1.37142857,29.5428571 13.9819549,37.8571429 30.075188,37.8571429 C46.1744361,37.8571429 58.7819549,29.5428571 58.7819549,18.9278195 C58.7819549,8.31428571 46.1744361,0 30.075188,0" transform="matrix(1 0 0 -1 49.696 86.872)"/>
    <path fill="#F29E9F" fill-rule="nonzero" d="M31.5789474,43.6090226 C14.0781955,43.6090226 0.369924812,34.193985 0.369924812,22.1759398 C0.369924812,10.156391 14.0781955,0.742857143 31.5789474,0.742857143 C49.0827068,0.742857143 62.7909774,10.156391 62.7909774,22.1759398 C62.7909774,34.193985 49.0827068,43.6090226 31.5789474,43.6090226 M31.5789474,38.5984962 C46.0541353,38.5984962 57.7819549,31.2466165 57.7819549,22.1759398 C57.7819549,13.1052632 46.0541353,5.7518797 31.5789474,5.7518797 C17.1097744,5.7518797 5.38045113,13.1052632 5.38045113,22.1759398 C5.38045113,31.2466165 17.1097744,38.5984962 31.5789474,38.5984962" transform="matrix(1 0 0 -1 48.192 90.119)"/>
    <path fill="#3C3C3B" d="M9.02255639,4.5112782 C9.02255639,2.26466165 7.2,0.443609023 4.95488722,0.443609023 C2.70827068,0.443609023 0.888721805,2.26466165 0.888721805,4.5112782 C0.888721805,6.75639098 2.70827068,8.57744361 4.95488722,8.57744361 C7.2,8.57744361 9.02255639,6.75639098 9.02255639,4.5112782" transform="matrix(1 0 0 -1 61.133 69.95)"/>
    <path fill="#3C3C3B" d="M9.02255639,4.5112782 C9.02255639,2.26466165 7.20300752,0.443609023 4.95488722,0.443609023 C2.70827068,0.443609023 0.888721805,2.26466165 0.888721805,4.5112782 C0.888721805,6.75639098 2.70827068,8.57744361 4.95488722,8.57744361 C7.20300752,8.57744361 9.02255639,6.75639098 9.02255639,4.5112782" transform="matrix(1 0 0 -1 89.13 69.95)"/>
  </g>
</svg>
