<svg xmlns="http://www.w3.org/2000/svg" width="160" height="190" viewBox="0 0 160 190">
  <g fill="none" fill-rule="evenodd" transform="translate(0 13)">
    <path fill="#6F6F6E" d="M30.1587302,14.2857143 L30.1587302,27.9730159 C38.2349206,35.4952381 43.415873,46.0492063 43.9238095,57.8285714 C35.0587302,44.5492063 19.0095238,35.6396825 0.607936508,35.5936508 L0.607936508,16.3031746 C3.26349206,16.3031746 5.84603175,16.5793651 8.37142857,17.0349206 L8.37142857,14.2857143 C4.2,11.0365079 1.50793651,5.98412698 1.50793651,0.29047619 L37.0174603,0.29047619 C37.0174603,5.98412698 34.3253968,11.0365079 30.1587302,14.2857143" transform="matrix(1 0 0 -1 80.7 175.645)"/>
    <path fill="#3C3C3B" d="M77.7777778,103.174603 C53.7984127,103.174603 34.3619048,83.7365079 34.3619048,59.7587302 C34.3619048,58.9714286 34.4412698,58.2079365 34.4825397,57.4349206 C35.1047619,45.8269841 40.2507937,35.4396825 48.2301587,28.0111111 L48.2301587,22.3571429 C45.1730159,15.5095238 38.315873,10.7190476 30.347619,10.7190476 C20.3222222,10.7190476 12.0444444,18.2952381 10.9095238,28.0174603 C10.8206349,28.768254 10.7650794,29.5301587 10.7650794,30.3031746 C10.7650794,32.547619 11.1428571,34.7507937 11.8873016,36.8539683 C12.8730159,39.6365079 11.415873,42.6873016 8.63650794,43.6761905 C5.85714286,44.6634921 2.8031746,43.2063492 1.81587302,40.4238095 C0.661904762,37.1761905 0.0793650794,33.7714286 0.0793650794,30.3031746 C0.0793650794,29.6222222 0.136507937,28.9587302 0.179365079,28.2857143 C1.22539683,12.5365079 14.3380952,0.0333333333 30.347619,0.0333333333 C34.2825397,0.0333333333 38.0285714,0.812698413 41.4793651,2.18253968 C41.415873,1.57142857 41.3698413,0.953968254 41.3698413,0.328571429 L76.8746032,0.328571429 C76.8746032,6.02222222 74.1873016,11.0761905 70.015873,14.3238095 L70.015873,17.0746032 C70.347619,17.0142857 70.6873016,16.9873016 71.0238095,16.9333333 C71.8428571,16.7777778 72.7174603,16.6619048 73.6222222,16.5666667 C73.7190476,16.5603175 73.8142857,16.5444444 73.9126984,16.5333333 C75.131746,16.4206349 76.4,16.3428571 77.7777778,16.3428571 L77.7777778,35.631746 C86.8730159,35.6555556 95.3920635,37.8492063 102.75873,41.6650794 C110.287302,45.5619048 116.611111,51.1539683 121.093651,57.8666667 C121.125397,58.4984127 121.195238,59.1190476 121.195238,59.7587302 C121.195238,83.7365079 101.75873,103.174603 77.7777778,103.174603" transform="matrix(1 0 0 -1 3.53 175.683)"/>
    <path fill="#AF5B2B" d="M47.6190476,23.8095238 C47.6190476,11.0380952 37.268254,0.687301587 24.4952381,0.687301587 C11.7253968,0.687301587 1.37142857,11.0380952 1.37142857,23.8095238 C1.37142857,36.5777778 11.7253968,46.9285714 24.4952381,46.9285714 C37.268254,46.9285714 47.6190476,36.5777778 47.6190476,23.8095238" transform="matrix(1 0 0 -1 17.054 49.468)"/>
    <path fill="#4B190D" d="M26.984127,14.2857143 C26.984127,6.92063492 21.0174603,0.953968254 13.652381,0.953968254 C6.29047619,0.953968254 0.323809524,6.92063492 0.323809524,14.2857143 C0.323809524,21.6444444 6.29047619,27.6142857 13.652381,27.6142857 C21.0174603,27.6142857 26.984127,21.6444444 26.984127,14.2857143" transform="matrix(1 0 0 -1 27.897 39.944)"/>
    <path fill="#6F6F6E" d="M47.6190476,23.8095238 C47.6190476,11.0380952 37.2650794,0.687301587 24.4936508,0.687301587 C11.7222222,0.687301587 1.37142857,11.0380952 1.37142857,23.8095238 C1.37142857,36.5777778 11.7222222,46.9285714 24.4936508,46.9285714 C37.2650794,46.9285714 47.6190476,36.5777778 47.6190476,23.8095238" transform="matrix(1 0 0 -1 95.353 49.468)"/>
    <path fill="#07171B" d="M26.984127,14.2857143 C26.984127,6.92063492 21.0206349,0.953968254 13.6539683,0.953968254 C6.29047619,0.953968254 0.325396825,6.92063492 0.325396825,14.2857143 C0.325396825,21.6444444 6.29047619,27.6142857 13.6539683,27.6142857 C21.0206349,27.6142857 26.984127,21.6444444 26.984127,14.2857143" transform="matrix(1 0 0 -1 106.193 39.944)"/>
    <path fill="#6F6F6E" d="M47.6190476,23.8095238 C47.6190476,11.0380952 37.268254,0.687301587 24.4952381,0.687301587 C11.7253968,0.687301587 1.37142857,11.0380952 1.37142857,23.8095238 C1.37142857,36.5777778 11.7253968,46.9285714 24.4952381,46.9285714 C37.268254,46.9285714 47.6190476,36.5777778 47.6190476,23.8095238" transform="matrix(1 0 0 -1 17.054 49.468)"/>
    <path fill="#07171B" d="M26.984127,14.2857143 C26.984127,6.92063492 21.0174603,0.953968254 13.652381,0.953968254 C6.29047619,0.953968254 0.323809524,6.92063492 0.323809524,14.2857143 C0.323809524,21.6444444 6.29047619,27.6142857 13.652381,27.6142857 C21.0174603,27.6142857 26.984127,21.6444444 26.984127,14.2857143" transform="matrix(1 0 0 -1 27.897 39.944)"/>
    <path fill="#E96332" d="M1.58730159,1.58730159 L1.58730159,1.58412698 C1.60793651,1.58412698 1.62222222,1.58730159 1.64126984,1.58730159 L1.58730159,1.58730159 Z" transform="matrix(1 0 0 -1 79.694 23.064)"/>
    <path fill="#07171B" d="M1.58730159,1.58730159 L1.58253968,1.58571429 C1.59047619,1.57142857 1.6031746,1.55714286 1.60793651,1.54444444 C1.6031746,1.55714286 1.59047619,1.57460317 1.58730159,1.58730159" transform="matrix(1 0 0 -1 71.873 121.56)"/>
    <path fill="#A84720" d="M1.58730159,1.58730159 L1.53174603,1.58730159 C1.55079365,1.58730159 1.57142857,1.58412698 1.58730159,1.58412698 L1.58730159,1.58730159 Z" transform="matrix(1 0 0 -1 79.804 23.064)"/>
    <path fill="#A84720" d="M1.58730159,1.58730159 L1.58730159,50.0777778 C1.57142857,50.0777778 1.55079365,50.0809524 1.53174603,50.0809524 C1.51428571,50.0809524 1.4984127,50.0777778 1.47777778,50.0777778 L1.47777778,1.57936508 C1.51428571,1.57936508 1.55079365,1.58730159 1.58730159,1.58730159" transform="matrix(1 0 0 -1 79.804 71.557)"/>
    <path fill="#A84720" d="M1.58730159,1.58730159 C1.60793651,1.58730159 1.62222222,1.58412698 1.64126984,1.58412698 C1.65873016,1.58412698 1.68095238,1.58730159 1.6968254,1.58730159 L1.6968254,31.2079365 L1.6968254,49.5190476 C1.65873016,49.5190476 1.62222222,49.5111111 1.58730159,49.5111111 L1.58730159,31.2079365 L1.58730159,1.58730159 Z" transform="matrix(1 0 0 -1 79.694 119.49)"/>
    <path fill="#A84720" d="M1.58730159,1.58730159 L1.58730159,1.58095238 C1.60793651,1.58095238 1.62222222,1.58253968 1.64126984,1.58412698 C1.62222222,1.58412698 1.60793651,1.58730159 1.58730159,1.58730159" transform="matrix(1 0 0 -1 79.694 119.49)"/>
    <path fill="#3C3C3B" fill-rule="nonzero" d="M58.3365079,23.5904762 L58.3666667,36.0365079 C58.3555556,36.0428571 58.3460317,36.0460317 58.3365079,36.0492063 L58.3365079,51.1746032 L58.3365079,117.977778 C14.9873016,117.977778 1.09365079,89.8095238 1.22539683,59.1460317 C1.28888889,44.4666667 5.1952381,19.4095238 5.1952381,19.4095238 C5.1952381,19.4095238 6.42698413,14.547619 29.8190476,6.1984127 C38.6396825,3.05396825 47.7873016,0.482539683 58.2825397,0.482539683 L58.3333333,21.5555556 L58.3365079,21.5555556 L58.3365079,23.5904762 Z" transform="matrix(1 0 0 -1 23.025 130.906)"/>
    <path fill="#6F6F6E" d="M1.58730159,119.047619 L1.58730159,52.2444444 L1.58730159,37.1365079 C1.56190476,37.1285714 1.53809524,37.1190476 1.51269841,37.1063492 L1.5968254,1.55238095 C10.5269841,1.55238095 19.2888889,3.63809524 27.3809524,6.35396825 C28.2888889,6.63809524 29.168254,6.97142857 30.0587302,7.28888889 C53.4634921,15.6301587 54.7206349,20.4984127 54.7206349,20.4984127 C54.7206349,20.4984127 58.5761905,46.0222222 58.6952381,60.2174603 C58.9571429,90.8793651 44.9333333,119.047619 1.58730159,119.047619" transform="matrix(1 0 0 -1 79.7 131.975)"/>
    <path fill="#6F6F6E" d="M3.17460317,1.58730159 L3.17460317,1.60793651 C2.28412698,1.28888889 1.4047619,0.957142857 0.496825397,0.673015873 C1.3984127,0.971428571 2.29365079,1.27460317 3.17460317,1.58730159" transform="matrix(1 0 0 -1 106.584 126.294)"/>
    <path fill="#07171B" d="M0,19.047619 C0,19.047619 23.7777778,25.9412698 23.2428571,1.76349206 C23.2428571,1.76349206 0,-6.68095238 0,19.047619" transform="matrix(1 0 0 -1 42.952 80.469)"/>
    <path fill="#B1B1B1" d="M19.047619,9.52380952 C19.047619,4.65714286 15.1,0.70952381 10.2301587,0.70952381 C5.36507937,0.70952381 1.41587302,4.65714286 1.41587302,9.52380952 C1.41587302,14.3952381 5.36507937,18.3428571 10.2301587,18.3428571 C15.1,18.3428571 19.047619,14.3952381 19.047619,9.52380952" transform="matrix(1 0 0 -1 44.618 80.055)"/>
    <path fill="#FFF" d="M6.34920635,3.17460317 C6.34920635,1.49365079 4.99047619,0.136507937 3.31111111,0.136507937 C1.63333333,0.136507937 0.26984127,1.49365079 0.26984127,3.17460317 C0.26984127,4.85238095 1.63333333,6.21111111 3.31111111,6.21111111 C4.99047619,6.21111111 6.34920635,4.85238095 6.34920635,3.17460317" transform="matrix(1 0 0 -1 54.486 70.06)"/>
    <path fill="#07171B" d="M23.8095238,19.047619 C23.8095238,19.047619 0.0301587302,25.9412698 0.563492063,1.76349206 C0.563492063,1.76349206 23.8095238,-6.68095238 23.8095238,19.047619" transform="matrix(1 0 0 -1 96.042 80.469)"/>
    <path fill="#B1B1B1" d="M0,9.52380952 C0,4.65714286 3.94761905,0.70952381 8.81587302,0.70952381 C13.684127,0.70952381 17.631746,4.65714286 17.631746,9.52380952 C17.631746,14.3952381 13.684127,18.3428571 8.81587302,18.3428571 C3.94761905,18.3428571 0,14.3952381 0,9.52380952" transform="matrix(1 0 0 -1 98.982 80.055)"/>
    <path fill="#FFF" d="M0,3.17460317 C0,1.49365079 1.36190476,0.136507937 3.03968254,0.136507937 C4.71587302,0.136507937 6.07777778,1.49365079 6.07777778,3.17460317 C6.07777778,4.85238095 4.71587302,6.21111111 3.03968254,6.21111111 C1.36190476,6.21111111 0,4.85238095 0,3.17460317" transform="matrix(1 0 0 -1 108.223 70.06)"/>
    <path fill="#07171B" d="M22.2222222,3.17460317 C27.2619048,8.46825397 34.5063492,12.4015873 34.568254,12.4746032 C34.568254,12.4746032 28.968254,15.0111111 17.3777778,15.0111111 C5.55714286,15.0111111 -0.0380952381,12.3952381 0.103174603,12.4428571 C0.238095238,12.2507937 7.32698413,8.9984127 12.1571429,3.33968254 C13.1698413,2.15396825 14.6031746,1.58730159 16.0238095,1.34285714 L18.684127,1.34285714 C19.9888889,1.58412698 21.2460317,2.14920635 22.2222222,3.17460317" transform="matrix(1 0 0 -1 63.877 105.607)"/>
    <path fill="#07171B" d="M25.3968254,9.52380952 C23.2206349,5.76984127 20.468254,3.64285714 17.2190476,3.1984127 C9.85714286,2.20634921 2.04444444,9.91746032 1.96507937,9.99365079 C1.54761905,10.4174603 0.871428571,10.4174603 0.453968254,9.9952381 C0.0349206349,9.58095238 0.0349206349,8.9047619 0.450793651,8.48888889 C0.773015873,8.15714286 8.03015873,0.96984127 15.8571429,0.96984127 C16.4031746,0.96984127 16.9507937,1.0031746 17.5015873,1.07936508 C21.0492063,1.56190476 24.0571429,3.62698413 26.4634921,7.21111111 C28.8714286,3.62698413 31.8777778,1.56190476 35.4269841,1.07936508 C35.9746032,1.0031746 36.5269841,0.96984127 37.0698413,0.96984127 C44.8968254,0.96984127 52.1539683,8.15714286 52.4777778,8.48888889 C52.8952381,8.9047619 52.8936508,9.58095238 52.4746032,9.9984127 C52.0555556,10.4111111 51.3793651,10.4142857 50.9619048,9.99365079 C50.884127,9.91746032 43.0825397,2.21587302 35.7174603,3.1984127 C32.4555556,3.64920635 29.7174603,5.75714286 27.5333333,9.52380952 L27.5333333,15.3396825 C27.6126984,15.3555556 27.6888889,15.3777778 27.7698413,15.3936508 L25.1095238,15.3936508 C25.2031746,15.3777778 25.3,15.3460317 25.3968254,15.3333333 L25.3968254,9.52380952 Z" transform="matrix(1 0 0 -1 54.792 119.658)"/>
    <path fill="#07171B" d="M1.58730159,0 C1.32539683,0 1.06825397,0.0920634921 0.863492063,0.280952381 C0.43015873,0.680952381 0.4,1.35555556 0.796825397,1.79206349 C21.9079365,24.8222222 54.6777778,11.9285714 55.0063492,11.7968254 C55.5539683,11.5746032 55.8190476,10.952381 55.5952381,10.4031746 C55.3746032,9.85714286 54.752381,9.5984127 54.2031746,9.81428571 C53.8920635,9.94126984 22.4730159,22.2698413 2.37301587,0.347619048 C2.16190476,0.114285714 1.87460317,0 1.58730159,0" transform="matrix(1 0 0 -1 2.022 110.723)"/>
    <path fill="#07171B" d="M1.58730159,0 C1.32063492,0 1.05396825,0.1 0.847619048,0.303174603 C0.420634921,0.712698413 0.411111111,1.39206349 0.819047619,1.81587302 C20.5952381,22.1968254 46.3793651,15.3380952 46.6412698,15.2650794 C47.2095238,15.1063492 47.5428571,14.5174603 47.3857143,13.9507937 C47.2285714,13.384127 46.6492063,13.0492063 46.0698413,13.2031746 C45.8238095,13.2730159 21.2222222,19.7777778 2.35396825,0.323809524 C2.14603175,0.10952381 1.86984127,0 1.58730159,0" transform="matrix(1 0 0 -1 8.97 117.446)"/>
    <path fill="#07171B" d="M1.58730159,0 C1.37460317,0 1.16031746,0.0634920635 0.971428571,0.196825397 C0.488888889,0.534920635 0.374603175,1.2015873 0.711111111,1.68253968 C14.4111111,21.1460317 37.3444444,19.2507937 37.5666667,19.2301587 C38.1555556,19.1746032 38.5888889,18.6571429 38.5349206,18.0714286 C38.4809524,17.4825397 37.9936508,17.0460317 37.3698413,17.1015873 C37.1587302,17.1190476 15.431746,18.8857143 2.46190476,0.453968254 C2.25238095,0.16031746 1.92222222,0 1.58730159,0" transform="matrix(1 0 0 -1 17.855 124.926)"/>
    <path fill="#07171B" d="M55.5555556,0 C55.2650794,0 54.9793651,0.114285714 54.7666667,0.347619048 C34.6666667,22.2698413 3.24920635,9.94126984 2.93650794,9.81428571 C2.38888889,9.5984127 1.76666667,9.85714286 1.54444444,10.4031746 C1.32222222,10.952381 1.58730159,11.5746032 2.13492063,11.7968254 C2.46190476,11.9285714 35.2301587,24.8222222 56.3428571,1.79206349 C56.7412698,1.35555556 56.7111111,0.680952381 56.2761905,0.280952381 C56.0730159,0.0920634921 55.815873,0 55.5555556,0" transform="matrix(1 0 0 -1 101.831 110.723)"/>
    <path fill="#07171B" d="M46.031746,0 C45.7507937,0 45.4730159,0.10952381 45.2666667,0.323809524 C26.3650794,19.8079365 1.7952381,13.2761905 1.55079365,13.2031746 C0.976190476,13.0492063 0.393650794,13.384127 0.236507937,13.9492063 C0.0777777778,14.5174603 0.40952381,15.1063492 0.979365079,15.2650794 C1.23492063,15.3380952 27.0222222,22.1968254 46.8,1.81587302 C47.2079365,1.39206349 47.1968254,0.712698413 46.7746032,0.303174603 C46.5666667,0.1 46.2984127,0 46.031746,0" transform="matrix(1 0 0 -1 104.404 117.446)"/>
    <path fill="#07171B" d="M38.0952381,0 C37.7587302,0 37.4285714,0.16031746 37.2222222,0.453968254 C24.2444444,18.8888889 2.52380952,17.1238095 2.30952381,17.1015873 C1.6952381,17.0603175 1.1984127,17.484127 1.14603175,18.0714286 C1.09206349,18.6571429 1.52380952,19.1746032 2.11428571,19.2301587 C2.33650794,19.2507937 25.2698413,21.147619 38.968254,1.68253968 C39.3079365,1.2015873 39.1936508,0.534920635 38.7095238,0.196825397 C38.5238095,0.0634920635 38.3063492,0 38.0952381,0" transform="matrix(1 0 0 -1 103.458 124.926)"/>
  </g>
</svg>
