<svg xmlns="http://www.w3.org/2000/svg" width="160" height="190" viewBox="0 0 160 190">
  <g fill="none" fill-rule="evenodd" transform="translate(20)">
    <path fill="#B68472" d="M32.2690217,2.58152174 C32.2690217,2.58152174 17.4226902,-4.88682065 0.842866848,14.1377038 C2.50536685,15.8634511 17.6330842,29.4783967 40.2201087,18.6011549 L32.2690217,2.58152174 Z" transform="matrix(1 0 0 -1 .19 80.964)"/>
    <path fill="#D76C79" d="M21.9429348,1.29076087 C21.9429348,1.29076087 10.1931386,-1.30237772 1.1578125,7.75230978 C1.1578125,7.75230978 9.75427989,15.8608696 26.686481,9.14633152 L21.9429348,1.29076087 Z" transform="matrix(1 0 0 -1 9.44 75.468)"/>
    <path fill="#B68472" d="M9.03532609,2.58152174 C9.03532609,2.58152174 23.8816576,-4.88682065 40.461481,14.1377038 C38.7976902,15.8634511 23.6699728,29.4783967 1.08294837,18.6011549 L9.03532609,2.58152174 Z" transform="matrix(1 0 0 -1 78.646 80.964)"/>
    <path fill="#D76C79" d="M5.16304348,1.29076087 C5.16304348,1.29076087 16.9115489,-1.30237772 25.9455842,7.75230978 C25.9455842,7.75230978 17.3491168,15.8608696 0.419497283,9.14633152 L5.16304348,1.29076087 Z" transform="matrix(1 0 0 -1 83.594 75.468)"/>
    <path fill="#B68472" d="M0,1.29076087 C1.04293478,1.29076087 2.04972826,1.32432065 3.04232337,1.37466033 C2.03940217,1.31915761 1.02744565,1.29076087 0,1.29076087" transform="matrix(1 0 0 -1 58.549 161.91)"/>
    <path fill="#B68472" d="M0,0 C25.1324049,1.33980978 33.8347147,18.4191576 33.8347147,18.4191576 C27.3809103,8.09048913 15.1819293,0.880298913 0,0" transform="matrix(1 0 0 -1 43.153 160.526)"/>
    <path fill="#F39E2B" d="M1.29076087,1.29076087 C1.20298913,1.29463315 1.11263587,1.30237772 1.02099185,1.30883152 C1.11134511,1.30237772 1.20298913,1.29463315 1.29076087,1.29076087" transform="matrix(1 0 0 -1 58.913 161.825)"/>
    <path fill="#B68472" d="M3.87228261,23.2336957 C3.83355978,23.2324049 3.79741848,23.2285326 3.75998641,23.2259511 C2.76997283,23.1756114 1.76188859,23.1420516 0.722826087,23.1420516 L0.722826087,9.69361413 C2.93389946,9.69361413 5.09205163,9.90013587 7.19986413,10.2357337 L7.19986413,1.18362772 L21.4085598,1.18362772 L21.4085598,15.3807065 C30.869837,21.1297554 37.2023098,30.7136549 37.7044158,41.6528533 C37.7044158,41.6528533 29.002106,24.5735054 3.87228261,23.2336957" transform="matrix(1 0 0 -1 59.35 183.76)"/>
    <path fill="#8E6451" d="M81.3179348,38.7228261 C81.3179348,59.8783967 63.1995245,77.0287364 40.85,77.0287364 C18.497894,77.0287364 0.382065217,59.8783967 0.382065217,38.7228261 C0.382065217,17.5659647 18.497894,0.415625 40.85,0.415625 C63.1995245,0.415625 81.3179348,17.5659647 81.3179348,38.7228261" transform="matrix(1 0 0 -1 19.22 165.26)"/>
    <path fill="#8E6451" d="M34.8505435,23.2336957 C34.761481,23.2375679 34.6711277,23.2453125 34.583356,23.2517663 C9.80720109,24.645788 0.850611413,41.6605978 0.850611413,41.6605978 C1.35013587,30.7213995 7.68519022,21.1375 17.1477582,15.3884511 L17.1477582,1.19137228 L31.3564538,1.19137228 L31.3564538,10.2434783 C33.4642663,9.90788043 35.619837,9.7013587 37.8360734,9.7013587 L37.8360734,23.1497962 C36.8137908,23.1497962 35.8237772,23.183356 34.8505435,23.2336957" transform="matrix(1 0 0 -1 22.235 183.768)"/>
    <path fill="#49170C" d="M12.9076087,3.87228261 C13.5078125,3.87228261 13.9970109,3.384375 13.9970109,2.78546196 L13.9970109,0.0632472826 L25.4254076,0.0632472826 C25.4254076,6.89266304 19.8841712,12.4313179 13.0560462,12.4313179 C6.22663043,12.4313179 0.686684783,6.89266304 0.686684783,0.0632472826 L11.815625,0.0632472826 L11.815625,2.78546196 C11.815625,3.384375 12.3022418,3.87228261 12.9076087,3.87228261" transform="matrix(1 0 0 -1 33.43 188.822)"/>
    <path fill="#49170C" d="M12.9076087,3.87228261 C13.510394,3.87228261 13.9983016,3.384375 13.9983016,2.78546196 L13.9983016,0.0632472826 L25.4266984,0.0632472826 C25.4266984,6.89266304 19.8919158,12.4313179 13.0586277,12.4313179 C6.2279212,12.4313179 0.691847826,6.89266304 0.691847826,0.0632472826 L11.8182065,0.0632472826 L11.8182065,2.78546196 C11.8182065,3.384375 12.3035326,3.87228261 12.9076087,3.87228261" transform="matrix(1 0 0 -1 60.596 188.822)"/>
    <path fill="#B68472" d="M0,103.26087 L0,18.9690217 L0,0.456929348 C1.02486413,0.456929348 2.03811141,0.485326087 3.03845109,0.542119565 C3.07588315,0.544701087 3.1107337,0.54857337 3.14945652,0.54986413 C18.4914402,1.13199728 30.610394,8.47900815 36.9815897,18.9690217 C40.1413723,24.1682065 42.0039402,30.0618207 42.0039402,36.3839674 C42.0039402,56.2255435 39.2404212,103.26087 0,103.26087" transform="matrix(1 0 0 -1 60.071 159.643)"/>
    <path fill="#8E6451" d="M25.8152174,99.388587 C17.7389266,95.0296875 12.171875,87.2502717 12.171875,87.2502717 C1.73091033,71.7211277 0.859646739,48.6152174 0.859646739,36.1813179 C0.859646739,29.8591712 2.80353261,24.0133152 5.88199728,18.767663 C11.9317935,8.45577446 23.5331522,1.06487772 39.6134511,0.35625 C39.7038043,0.352377717 39.7915761,0.344633152 39.8806386,0.339470109 C40.8654891,0.285258152 41.8606658,0.255570652 42.8674592,0.255570652 L42.8674592,18.767663 L42.8674592,103.05822 C36.1671196,103.05822 30.4555027,101.892663 25.8152174,99.388587" transform="matrix(1 0 0 -1 17.204 159.44)"/>
    <path fill="#F5C799" d="M0,12.9076087 C0,6.39572011 3.79225543,1.11779891 8.4673913,1.11779891 C13.1438179,1.11779891 16.9347826,6.39572011 16.9347826,12.9076087 C16.9347826,19.4182065 13.1438179,24.6987092 8.4673913,24.6987092 C3.79225543,24.6987092 0,19.4182065 0,12.9076087" transform="matrix(1 0 0 -1 36.035 108.9)"/>
    <path fill="#F5C799" d="M0,12.9076087 C0,6.39572011 3.79096467,1.11779891 8.46868207,1.11779891 C13.1438179,1.11779891 16.9347826,6.39572011 16.9347826,12.9076087 C16.9347826,19.4182065 13.1438179,24.6987092 8.46868207,24.6987092 C3.79096467,24.6987092 0,19.4182065 0,12.9076087" transform="matrix(1 0 0 -1 67.17 108.9)"/>
    <path fill="#49170C" d="M0,3.87228261 C0,1.83675272 1.64701087,0.185869565 3.68383152,0.185869565 C5.72065217,0.185869565 7.37024457,1.83675272 7.37024457,3.87228261 L7.37024457,9.39932065 C7.37024457,11.4348505 5.72065217,13.0831522 3.68383152,13.0831522 C1.64701087,13.0831522 0,11.4348505 0,9.39932065 L0,3.87228261 Z" transform="matrix(1 0 0 -1 40.817 102.628)"/>
    <path fill="#49170C" d="M0,3.87228261 C0,1.83675272 1.64830163,0.185869565 3.68383152,0.185869565 C5.72194293,0.185869565 7.37024457,1.83675272 7.37024457,3.87228261 L7.37024457,9.39932065 C7.37024457,11.4348505 5.72194293,13.0831522 3.68383152,13.0831522 C1.64830163,13.0831522 0,11.4348505 0,9.39932065 L0,3.87228261 Z" transform="matrix(1 0 0 -1 71.953 102.628)"/>
    <path fill="#FFF" d="M0,2.58152174 C0,1.39402174 0.853192935,0.43111413 1.90903533,0.43111413 C2.96487772,0.43111413 3.81936141,1.39402174 3.81936141,2.58152174 C3.81936141,3.76902174 2.96487772,4.73192935 1.90903533,4.73192935 C0.853192935,4.73192935 0,3.76902174 0,2.58152174" transform="matrix(1 0 0 -1 74.38 95.932)"/>
    <path fill="#FFF" d="M0,2.58152174 C0,1.39402174 0.855774457,0.43111413 1.91032609,0.43111413 C2.96745924,0.43111413 3.82194293,1.39402174 3.82194293,2.58152174 C3.82194293,3.76902174 2.96745924,4.73192935 1.91032609,4.73192935 C0.855774457,4.73192935 0,3.76902174 0,2.58152174" transform="matrix(1 0 0 -1 43.202 95.932)"/>
    <path fill="#F6E9E5" d="M2.58152174,5.16304348 C1.31141304,5.16304348 0.280095109,4.13043478 0.280095109,2.86290761 C0.280095109,1.58763587 1.31141304,0.558899457 2.58152174,0.558899457 C3.85421196,0.558899457 4.88552989,1.58763587 4.88552989,2.86290761 C4.88552989,4.13043478 3.85421196,5.16304348 2.58152174,5.16304348" transform="matrix(1 0 0 -1 55.907 129.484)"/>
    <path fill="#F6E9E5" d="M16.7798913,3.87228261 C10.7288043,10.2731658 2.89259511,10.09375 2.54408967,10.088587 C1.32819293,10.0498641 0.376902174,9.03919837 0.407880435,7.82330163 C0.442730978,6.62160326 1.4314538,5.67160326 2.62282609,5.67160326 C2.63960598,5.67160326 2.65767663,5.67160326 2.67445652,5.67160326 C2.74415761,5.65998641 8.9127038,5.75808424 13.5684783,0.836413043 C14.0034647,0.374320652 14.5868886,0.143274457 15.1716033,0.143274457 C15.7188859,0.143274457 16.263587,0.343342391 16.6921196,0.747350543 C17.5814538,1.58763587 17.6175951,2.98552989 16.7798913,3.87228261" transform="matrix(1 0 0 -1 62.262 134.505)"/>
    <path fill="#49170C" fill-rule="nonzero" d="M41.3043478,16.7798913 C40.7196332,16.7798913 40.1362092,17.0096467 39.7012228,17.4730299 C35.0454484,22.3947011 28.8769022,22.2966033 28.8072011,22.3082201 C28.7904212,22.3069293 28.7723505,22.3069293 28.7555707,22.3069293 C27.5641984,22.3069293 26.5754755,23.2582201 26.540625,24.4586277 C26.5096467,25.6758152 27.4609375,26.686481 28.6768342,26.7252038 C29.0253397,26.7290761 36.8615489,26.9097826 42.9126359,20.5088995 C43.7516304,19.6221467 43.7141984,18.2242527 42.8248641,17.3839674 C42.3963315,16.9786685 41.8516304,16.7798913 41.3043478,16.7798913 M22.3585598,22.2152853 C21.0884511,22.2152853 20.0571332,23.2453125 20.0571332,24.5205842 C20.0571332,25.7881114 21.0884511,26.8207201 22.3585598,26.8207201 C23.6325408,26.8207201 24.6625679,25.7881114 24.6625679,24.5205842 C24.6625679,23.2453125 23.6325408,22.2152853 22.3585598,22.2152853 M23.9423234,29.7675272 C11.2980299,29.7675272 1.05067935,23.210462 1.05067935,15.1199728 C1.05067935,12.3758152 2.25366848,9.81752717 4.30597826,7.62065217 C4.81324728,8.3357337 5.44313859,8.9591712 6.16080163,9.45998641 C7.35346467,10.2834918 8.79524457,10.7701087 10.3570652,10.7701087 C14.4526495,10.7701087 17.7776495,7.44769022 17.7776495,3.34952446 C17.7776495,3.16752717 17.7440897,2.99327446 17.726019,2.8138587 C17.6743886,2.21881793 17.5659647,1.64055707 17.3891304,1.08940217 C19.4646739,0.693138587 21.6615489,0.473709239 23.9423234,0.473709239 C26.2192255,0.473709239 28.4148098,0.693138587 30.4942255,1.08940217 C30.3703125,1.47533967 30.2722147,1.87418478 30.2025136,2.28077446 C30.1444293,2.62798913 30.1057065,2.98423913 30.1057065,3.34952446 C30.1057065,7.44769022 33.428125,10.7701087 37.525,10.7701087 C39.5773098,10.7701087 41.4230978,9.91949728 42.7641984,8.56936141 C43.0559103,8.27377717 43.3372962,7.96141304 43.5773777,7.62194293 C45.6309783,9.81752717 46.8326766,12.3758152 46.8326766,15.1199728 C46.8326766,23.210462 36.5840353,29.7675272 23.9423234,29.7675272" transform="matrix(1 0 0 -1 36.13 151.141)"/>
    <path fill="#F39E2B" d="M30.9782609,19.361413 C29.1415082,24.4211957 28.467731,41.6657609 29.0150136,56.1274457 C29.1221467,58.8974185 26.9639946,61.2272418 24.1940217,61.3330842 C21.4227582,61.4415082 19.0968071,59.2794837 18.9935462,56.5108016 C18.816712,51.9195652 18.6902174,46.2324728 18.794769,40.4369565 C18.6256793,40.4537364 18.460462,40.488587 18.2862092,40.488587 C17.607269,40.488587 17.3775136,40.6757473 17.1684103,40.9029212 C15.7743886,42.4182745 15.3329484,46.8920516 15.5497962,49.5381114 C15.7860054,52.2938859 13.7504755,54.7218071 10.9947011,54.9657609 C8.23376359,55.2058424 5.79809783,53.1716033 5.55543478,50.4106658 C5.39796196,48.633288 4.86100543,39.4882473 9.76202446,34.1328804 C11.966644,31.7256114 14.9147418,30.4529212 18.2862092,30.4529212 C18.6101902,30.4529212 18.9199728,30.491644 19.2258832,30.5484375 C19.5498641,26.2179348 20.0700408,22.1597826 20.8664402,18.8257473 C19.4956522,18.7650815 18.1171196,18.7663723 16.7553668,18.9044837 C10.5545516,19.5356658 10.358356,28.7930027 10.3519022,29.2189538 C10.3325408,31.9747283 8.09307065,34.2012908 5.33471467,34.2012908 L5.3205163,34.2012908 C2.55054348,34.1922554 0.31107337,31.9398777 0.318817935,29.1686141 C0.338179348,22.7057745 3.5857337,10.1595788 15.739538,8.92302989 C19.3343071,8.5564538 22.6567255,8.8533288 25.5880435,9.1140625 C26.6090353,9.20441576 27.8855978,9.31800272 28.9982337,9.36705163 C29.0059783,9.36705163 29.0124321,9.36447011 29.0188859,9.36447011 C29.039538,9.36447011 29.0576087,9.37092391 29.0743886,9.37092391 C30.1844429,9.41610054 31.1202446,9.39802989 31.4558424,9.22377717 C31.4597147,9.21861413 31.9282609,8.56032609 31.9282609,6.05495924 C31.9282609,3.28498641 34.1754755,1.0390625 36.9454484,1.0390625 C39.7141304,1.0390625 41.9626359,3.28498641 41.9626359,6.05495924 C41.9626359,10.8669158 40.7506114,14.3132473 38.2620245,16.5914402 C36.1606658,18.5120924 33.6475543,19.2026495 30.9782609,19.361413" transform="matrix(1 0 0 -1 15.838 63.402)"/>
    <path fill="#F39E2B" d="M37.4320652,33.5597826 C34.6388587,33.5300951 32.4097147,31.355163 32.3735734,28.5929348 C32.3709918,28.1992527 32.1851223,18.908356 25.9726902,18.2771739 C24.6096467,18.1377717 23.2324049,18.136481 21.8603261,18.1971467 C22.6567255,21.5324728 23.1781929,25.5893342 23.5021739,29.919837 C23.8067935,29.8630435 24.1191576,29.8256114 24.4405571,29.8256114 C27.814606,29.8256114 30.761413,31.0983016 32.9634511,33.5055707 C37.8670516,38.8596467 37.3300951,48.0046875 37.1726223,49.7820652 C36.9273777,52.5442935 34.491712,54.5772418 31.733356,54.3384511 C28.9737092,54.0932065 26.9330163,51.6588315 27.1782609,48.897894 C27.404144,46.3434783 26.9601223,41.805163 25.5648098,40.2807745 C25.353125,40.0497283 25.1220788,39.8599864 24.4405571,39.8599864 C24.2675951,39.8599864 24.1023777,39.8264266 23.933288,39.808356 C24.0352582,45.605163 23.9100543,51.2909647 23.7345109,55.8822011 C23.6325408,58.6521739 21.2665761,60.8077446 18.5327446,60.7057745 C15.7653533,60.5999321 13.6046196,58.2701087 13.710462,55.5001359 C14.2590353,41.0384511 13.5852582,23.7951766 11.7497962,18.7341033 C9.08179348,18.5753397 6.56610054,17.8860734 4.46732337,15.9641304 C1.97486413,13.6859375 0.766711957,10.239606 0.766711957,5.42764946 C0.766711957,2.65767663 3.01263587,0.411752717 5.78131793,0.411752717 C8.55258152,0.411752717 10.7972147,2.65767663 10.7972147,5.42764946 C10.7972147,7.79619565 11.2180027,8.51256793 11.1934783,8.52418478 C11.9743886,8.94497283 15.08125,8.66875 17.1387228,8.48675272 C20.0700408,8.22601902 23.3924592,7.92914402 26.9872283,8.29572011 C39.1410326,9.53226902 42.3898777,22.0784647 42.4092391,28.5413043 C42.4156929,31.3022418 40.191712,33.5391304 37.4320652,33.5597826" transform="matrix(1 0 0 -1 61.577 62.775)"/>
  </g>
</svg>
