<svg xmlns="http://www.w3.org/2000/svg" width="160" height="190" viewBox="0 0 160 190">
  <g fill="none" fill-rule="evenodd" transform="translate(0 10)">
    <path fill="#F6E9E5" d="M0,34.375 C0,34.375 4.8078125,1.3125 23.43125,1.3125 L48.3078125,1.3125 C48.3078125,1.3125 39.753125,34.375 21.13125,34.375 L0,34.375 Z" transform="matrix(1 0 0 -1 1.25 51.148)"/>
    <path fill="#D76C79" d="M0,21.875 C0,21.875 3.10625,0.5328125 15.13125,0.5328125 L31.190625,0.5328125 C31.190625,0.5328125 25.665625,21.875 13.64375,21.875 L0,21.875 Z" transform="matrix(1 0 0 -1 9.807 44.508)"/>
    <path fill="#F6E9E5" d="M48.4375,34.375 C48.4375,34.375 43.625,1.3125 25.0015625,1.3125 L0.125,1.3125 C0.125,1.3125 8.6796875,34.375 27.3046875,34.375 L48.4375,34.375 Z" transform="matrix(1 0 0 -1 110.48 51.148)"/>
    <path fill="#D76C79" d="M31.25,21.875 C31.25,21.875 28.140625,0.5328125 16.1234375,0.5328125 L0.0578125,0.5328125 C0.0578125,0.5328125 5.58125,21.875 17.609375,21.875 L31.25,21.875 Z" transform="matrix(1 0 0 -1 119.107 44.508)"/>
    <path fill="#D3C5C1" d="M51.5625,164.0625 C50.4359375,162.934375 49.79375,161.354688 49.79375,159.759375 C49.79375,159.64375 49.821875,159.532813 49.828125,159.415625 C49.74375,159.40625 49.6578125,159.395313 49.575,159.385938 C49.55625,159.5 49.5578125,159.610938 49.5328125,159.725 C48.821875,163.003125 45.5765625,165.070312 42.296875,164.340625 C39.0171875,163.629687 36.953125,160.384375 37.68125,157.104688 C37.70625,156.990625 37.753125,156.889063 37.7859375,156.778125 C37.70625,156.753125 37.63125,156.721875 37.553125,156.695312 C37.5078125,156.814063 37.4796875,156.935938 37.421875,157.053125 C35.965625,160.070312 32.321875,161.320313 29.31875,159.846875 C26.296875,158.389062 25.05,154.745313 26.5109375,151.725 C26.56875,151.607812 26.6390625,151.503125 26.7015625,151.390625 C26.6421875,151.35 26.58125,151.310937 26.5171875,151.26875 C26.434375,151.376563 26.3734375,151.5 26.2796875,151.604688 C24.0984375,154.1375 20.259375,154.414062 17.7109375,152.228125 C15.1765625,150.026562 14.9,146.207812 17.0859375,143.657813 C17.178125,143.551563 17.2890625,143.476562 17.3875,143.378125 C17.3359375,143.320312 17.284375,143.254688 17.23125,143.195312 C17.11875,143.282812 17.021875,143.3875 16.89375,143.465625 C14.0875,145.304688 10.31875,144.526563 8.496875,141.7125 C6.6578125,138.903125 7.440625,135.1375 10.25,133.298437 C10.3765625,133.215625 10.5109375,133.15625 10.6390625,133.084375 C10.609375,133.01875 10.575,132.951563 10.54375,132.884375 C10.4046875,132.939063 10.275,133.0125 10.1265625,133.054688 C6.91875,134.009375 3.5375,132.16875 2.5796875,128.959375 C1.628125,125.734375 3.4640625,122.367188 6.69375,121.414063 C6.8359375,121.36875 6.9828125,121.346875 7.128125,121.314063 C7.11875,121.240625 7.1078125,121.164063 7.0984375,121.092188 C6.9515625,121.103125 6.8078125,121.134375 6.6578125,121.134375 C3.2921875,121.117188 0.584375,118.39375 0.603125,115.045313 C0.603125,111.696875 3.3234375,108.989063 6.6734375,108.989063 L6.69375,108.989063 C6.7984375,108.989063 6.896875,109.015625 6.9984375,109.020313 C7.0046875,108.945313 7.015625,108.870313 7.0234375,108.795313 C6.94375,108.785938 6.871875,108.792188 6.7984375,108.78125 C3.48125,108.207813 1.2625,105.06875 1.8171875,101.771875 L1.8171875,101.754688 C2.3359375,98.803125 4.8890625,96.7046875 7.8015625,96.7046875 C8.134375,96.7046875 8.48125,96.7375 8.8265625,96.809375 C8.8859375,96.81875 8.9328125,96.8421875 8.9875,96.853125 C9.0015625,96.784375 9.0140625,96.7140625 9.03125,96.646875 C5.765625,95.925 3.6921875,92.6890625 4.4015625,89.41875 L4.4203125,89.41875 C5.028125,86.5703125 7.540625,84.646875 10.3359375,84.646875 C10.7421875,84.646875 11.1515625,84.6796875 11.55625,84.76875 C11.565625,84.7 11.5828125,84.6234375 11.5984375,84.5484375 C11.5765625,84.54375 11.55625,84.5453125 11.5359375,84.540625 C8.253125,83.8296875 6.171875,80.6046875 6.9,77.321875 C7.5078125,74.4765625 10.0265625,72.534375 12.81875,72.534375 C13.2515625,72.534375 13.6875,72.5859375 14.11875,72.6734375 C14.128125,72.6734375 14.134375,72.678125 14.1453125,72.6796875 C14.159375,72.58125 14.175,72.4796875 14.196875,72.378125 C13.1359375,72.1375 12.1375,71.646875 11.3609375,70.86875 C10.215625,69.740625 9.5703125,68.1625 9.5703125,66.5640625 C9.5703125,64.96875 10.215625,63.4078125 11.3609375,62.278125 C11.7671875,61.8734375 12.2453125,61.5515625 12.75,61.2734375 C12.671875,61.296875 12.6015625,61.3375 12.5234375,61.3609375 C9.2765625,62.209375 5.94375,60.2828125 5.078125,57.05625 C4.228125,53.8109375 6.1375,50.496875 9.365625,49.6296875 C6.03125,49.665625 3.2921875,47.0109375 3.2234375,43.678125 C3.1546875,40.3296875 5.8265625,37.5546875 9.175,37.484375 L9.3484375,37.484375 C9.2609375,37.4484375 9.175,37.4140625 9.103125,37.396875 C5.9984375,36.1125 4.50625,32.575 5.771875,29.4671875 L5.7890625,29.4671875 C7.0578125,26.3625 10.5984375,24.8875 13.7046875,26.153125 C13.771875,26.1703125 13.8390625,26.2046875 13.9078125,26.240625 C13.875,26.2046875 13.8390625,26.1703125 13.8078125,26.153125 C11.3609375,23.8453125 11.2375,20.0125 13.5296875,17.565625 C15.821875,15.11875 19.6703125,14.996875 22.115625,17.2875 C22.1328125,17.3046875 22.1515625,17.3203125 22.171875,17.3203125 C20.453125,14.440625 21.40625,10.7296875 24.303125,9.0109375 C27.165625,7.309375 30.88125,8.2453125 32.6,11.109375 C31.64375,7.934375 33.43125,4.56875 36.60625,3.5796875 C39.78125,2.590625 43.146875,4.3421875 44.1890625,7.484375 C43.9296875,4.1859375 46.359375,1.2890625 49.653125,0.9765625 C49.8453125,0.9609375 50.0515625,0.9609375 50.2453125,0.9609375 C52.7515625,0.9609375 54.959375,2.525 55.8609375,4.7953125 L55.8609375,165.729688 C54.278125,165.729688 52.6984375,165.189063 51.5625,164.0625" transform="matrix(1 0 0 -1 23.93 168.242)"/>
    <path fill="#F6E9E5" d="M7.8125,1.5625 C11.1078125,1.8921875 13.521875,4.790625 13.259375,8.06875 C14.3171875,4.9484375 17.6859375,3.2296875 20.8609375,4.2171875 C24.0171875,5.225 25.7890625,8.5921875 24.8375,11.765625 C26.56875,8.91875 30.284375,8.0015625 33.14375,9.7203125 C36.009375,11.4359375 36.946875,15.1671875 35.2265625,18.0453125 C35.24375,18.028125 35.259375,18.0109375 35.278125,17.996875 C37.74375,15.721875 41.5953125,15.8765625 43.8703125,18.340625 C46.1390625,20.8046875 45.9859375,24.640625 43.5203125,26.9140625 C43.4859375,26.9484375 43.453125,26.9828125 43.3984375,27.0171875 C43.4859375,26.9828125 43.5546875,26.965625 43.625,26.93125 C46.7515625,25.6984375 50.271875,27.2078125 51.5234375,30.3296875 C52.753125,33.4390625 51.221875,36.978125 48.1203125,38.2265625 C48.03125,38.2609375 47.946875,38.2796875 47.8578125,38.3140625 L48.06875,38.3140625 C51.434375,38.4 54.0703125,41.1921875 53.9875,44.5421875 C53.896875,47.8734375 51.1390625,50.5125 47.8234375,50.459375 C51.053125,51.3625 52.9421875,54.69375 52.0578125,57.903125 C51.175,61.146875 47.8234375,63.05625 44.5984375,62.171875 C44.453125,62.1328125 44.3296875,62.065625 44.1921875,62.015625 C44.1859375,62.03125 44.1796875,62.05 44.171875,62.065625 C44.7171875,62.346875 45.234375,62.6890625 45.6703125,63.1265625 C46.8015625,64.2546875 47.440625,65.8140625 47.440625,67.4296875 C47.440625,69.0265625 46.8015625,70.5859375 45.6703125,71.7140625 C44.8875,72.503125 43.8703125,72.9984375 42.79375,73.2359375 C42.8,73.2859375 42.8125,73.3328125 42.81875,73.38125 C42.81875,73.38125 42.825,73.4171875 42.840625,73.4796875 C42.853125,73.4765625 42.86875,73.46875 42.88125,73.4671875 C43.315625,73.3796875 43.746875,73.3296875 44.165625,73.3296875 C46.9578125,73.3296875 49.471875,75.271875 50.0984375,78.1203125 C50.790625,81.396875 48.7265625,84.6421875 45.45,85.353125 C45.4265625,85.3578125 45.40625,85.3546875 45.3859375,85.3609375 C45.3875,85.38125 45.3953125,85.4046875 45.3984375,85.425 C45.40625,85.4625 45.4109375,85.4921875 45.4171875,85.528125 C45.821875,85.440625 46.24375,85.4046875 46.6453125,85.4046875 C49.4234375,85.4046875 51.9359375,87.33125 52.5625,90.1765625 C53.271875,93.45 51.2125,96.6734375 47.94375,97.390625 C47.95625,97.4515625 47.96875,97.5125 47.9796875,97.5765625 C48.0359375,97.565625 48.0828125,97.54375 48.1375,97.5328125 C48.484375,97.4640625 48.8140625,97.446875 49.1609375,97.446875 C52.0734375,97.446875 54.6453125,99.546875 55.128125,102.495312 C55.7,105.809375 53.4640625,108.951563 50.165625,109.50625 C50.090625,109.520313 50.0078125,109.510937 49.928125,109.521875 C49.934375,109.584375 49.94375,109.648438 49.9453125,109.7125 C50.05625,109.70625 50.1609375,109.679688 50.271875,109.679688 C53.61875,109.696875 56.328125,112.421875 56.328125,115.76875 C56.328125,119.117188 53.6046875,121.842188 50.2546875,121.825 C50.10625,121.825 49.9625,121.792188 49.81875,121.78125 C49.8078125,121.845313 49.8015625,121.9125 49.790625,121.976563 C49.9328125,122.009375 50.078125,122.026563 50.2203125,122.070313 C53.446875,123.040625 55.265625,126.425 54.3140625,129.632813 C53.34375,132.84375 49.959375,134.667188 46.7515625,133.709375 C46.6046875,133.667188 46.475,133.595313 46.3375,133.540625 C46.3109375,133.601563 46.28125,133.659375 46.253125,133.717188 C46.3859375,133.790625 46.5171875,133.853125 46.6453125,133.9375 C49.4390625,135.775 50.2203125,139.542188 48.3796875,142.335938 C46.540625,145.145313 42.7765625,145.928125 39.98125,144.0875 C39.859375,144.00625 39.759375,143.9 39.64375,143.814063 C39.596875,143.867188 39.5515625,143.923438 39.50625,143.976563 C39.603125,144.078125 39.71875,144.151563 39.809375,144.260938 C41.9953125,146.795313 41.715625,150.628125 39.165625,152.814063 C36.634375,155.001563 32.7984375,154.723438 30.6125,152.189063 C30.515625,152.082813 30.45625,151.959375 30.371875,151.848438 C30.3171875,151.884375 30.2640625,151.920313 30.20625,151.95625 C30.2703125,152.070313 30.346875,152.175 30.4015625,152.296875 C31.878125,155.3125 30.6125,158.940625 27.609375,160.415625 C24.5890625,161.889063 20.9453125,160.621875 19.4734375,157.604688 C19.4203125,157.490625 19.390625,157.373438 19.34375,157.260938 C19.28125,157.28125 19.221875,157.304688 19.1625,157.325 C19.190625,157.435938 19.2390625,157.542188 19.2625,157.65625 C19.99375,160.935938 17.928125,164.18125 14.6515625,164.892188 C11.3703125,165.621875 8.14375,163.554688 7.4125,160.276563 C7.3890625,160.1625 7.390625,160.05 7.371875,159.9375 C7.2859375,159.946875 7.2,159.957813 7.1171875,159.965625 C7.1234375,160.08125 7.153125,160.195313 7.153125,160.310938 C7.153125,161.90625 6.4921875,163.485938 5.365625,164.614063 C4.2,165.776563 2.559375,166.329688 0.9296875,166.292188 C0.878125,166.29375 0.8265625,166.28125 0.7796875,166.28125 L0.7796875,5.346875 C0.9703125,5.8265625 1.121875,6.321875 1.1828125,6.8546875 C1.5828125,3.5921875 4.5140625,1.234375 7.8125,1.5625" transform="matrix(1 0 0 -1 79.01 168.794)"/>
    <polygon fill="#D3C5C1" points="72.343 170.559 55.372 170.559 55.372 147.156 72.343 147.156"/>
    <polygon fill="#F6E9E5" points="104.797 170.559 87.822 170.559 87.822 147.156 104.797 147.156"/>
    <path fill="#D76C79" d="M15.625,4.6875 C16.3453125,4.6875 16.928125,4.1046875 16.928125,3.3859375 L16.928125,0.134375 L30.578125,0.134375 C30.578125,8.2953125 23.9640625,14.9078125 15.80625,14.9078125 C7.65,14.9078125 1.0328125,8.2953125 1.0328125,0.134375 L14.325,0.134375 L14.325,3.3859375 C14.325,4.1046875 14.909375,4.6875 15.625,4.6875" transform="matrix(1 0 0 -1 48.052 178.28)"/>
    <path fill="#D76C79" d="M15.625,4.6875 C16.3453125,4.6875 16.925,4.1046875 16.925,3.3859375 L16.925,0.134375 L30.578125,0.134375 C30.578125,8.2953125 23.9609375,14.9078125 15.8046875,14.9078125 C7.65,14.9078125 1.0328125,8.2953125 1.0328125,0.134375 L14.3234375,0.134375 L14.3234375,3.3859375 C14.3234375,4.1046875 14.90625,4.6875 15.625,4.6875" transform="matrix(1 0 0 -1 80.502 178.28)"/>
    <path fill="#D3C5C1" d="M43.75,0 C71.2265625,0 81.1203125,15.8296875 86.846875,30.5921875 C86.846875,30.5921875 69.5578125,6.7921875 44.4984375,7.703125 C23.240625,8.4765625 0.1171875,30.4390625 0.1171875,30.4390625 C5.8453125,15.675 22.4828125,0 43.75,0" transform="matrix(1 0 0 -1 36.335 137.321)"/>
    <path fill="#F5C799" d="M92.1875,67.1875 C92.1875,79.965625 81.8328125,90.3234375 69.0515625,90.3234375 C58.2578125,90.3234375 49.21875,82.925 46.6609375,72.925 C44.10625,82.925 35.0609375,90.3234375 24.271875,90.3234375 C11.490625,90.3234375 1.128125,79.9671875 1.128125,67.1875 C1.128125,54.4078125 9.75625,44.0484375 22.534375,44.0484375 C22.534375,44.0484375 24.0546875,35.1171875 24.271875,32.1078125 C25.19375,19.3609375 30.4359375,0.29375 47.409375,0.29375 C62.884375,0.29375 69.6296875,19.3609375 70.5453125,32.1078125 C70.765625,35.1359375 72.28125,44.1265625 72.28125,44.1265625 C84.359375,44.896875 92.1875,54.9125 92.1875,67.1875" transform="matrix(1 0 0 -1 33.423 129.911)"/>
    <path fill="#411611" d="M17.1875,9.375 C17.1875,4.790625 13.471875,1.075 8.8890625,1.075 C4.303125,1.075 0.590625,4.790625 0.590625,9.375 C0.590625,13.9578125 4.303125,17.6734375 8.8890625,17.6734375 C13.471875,17.6734375 17.1875,13.9578125 17.1875,9.375" transform="matrix(1 0 0 -1 48.15 74.338)"/>
    <path fill="#411611" d="M17.1875,9.375 C17.1875,4.790625 13.4703125,1.075 8.8859375,1.075 C4.30625,1.075 0.5875,4.790625 0.5875,9.375 C0.5875,13.9578125 4.30625,17.6734375 8.8859375,17.6734375 C13.4703125,17.6734375 17.1875,13.9578125 17.1875,9.375" transform="matrix(1 0 0 -1 94.242 74.338)"/>
    <path fill="#FFF" d="M6.25,3.125 C6.25,1.596875 5.0140625,0.3578125 3.4828125,0.3578125 C1.9546875,0.3578125 0.7171875,1.596875 0.7171875,3.125 C0.7171875,4.6546875 1.9546875,5.89375 3.4828125,5.89375 C5.0140625,5.89375 6.25,4.6546875 6.25,3.125" transform="matrix(1 0 0 -1 56.359 65.32)"/>
    <path fill="#FFF" d="M6.25,3.125 C6.25,1.596875 5.009375,0.3578125 3.484375,0.3578125 C1.953125,0.3578125 0.7171875,1.596875 0.7171875,3.125 C0.7171875,4.6546875 1.953125,5.89375 3.484375,5.89375 C5.009375,5.89375 6.25,4.6546875 6.25,3.125" transform="matrix(1 0 0 -1 102.41 65.32)"/>
    <path fill="#F29E9F" d="M23.4375,23.4375 L13.3984375,22.290625 L3.3625,23.4375 C2.425,23.5578125 1.5484375,22.8625 1.4390625,21.909375 C1.3328125,20.9578125 2.0171875,20.1 2.9625,19.990625 L11.55,19.0078125 L11.55,6.3953125 C10.9796875,5.7203125 9.6625,4.45 8.3234375,5.1671875 C7.475,5.6234375 6.425,5.3046875 5.975,4.4609375 C5.521875,3.6171875 5.8359375,2.5640625 6.6796875,2.1109375 C7.5296875,1.6546875 8.3625,1.4625 9.146875,1.4625 C10.8234375,1.4625 12.3015625,2.3328125 13.3796875,3.315625 C14.4421875,2.328125 15.909375,1.4609375 17.6046875,1.4609375 C18.3921875,1.4609375 19.2296875,1.6484375 20.096875,2.1 C20.9484375,2.5390625 21.2796875,3.5875 20.8390625,4.4375 C20.403125,5.2875 19.3515625,5.6203125 18.5015625,5.1796875 C17.06875,4.44375 15.8,5.69375 15.2546875,6.371875 L15.2546875,19.0078125 L23.8328125,19.990625 C24.7875,20.1 25.4671875,20.9578125 25.359375,21.909375 C25.2515625,22.865625 24.3890625,23.5609375 23.4375,23.4375" transform="matrix(1 0 0 -1 66.681 125.429)"/>
  </g>
</svg>
