<svg xmlns="http://www.w3.org/2000/svg" width="160" height="190" viewBox="0 0 160 190">
  <g fill="none" fill-rule="evenodd" transform="translate(0 11)">
    <path fill="#AF5B2B" d="M17.6,6.4 C15.4368,8.3392 13.7056,10.752 12.5648,13.4688 C10.6464,12.952 8.7152,12.6672 6.8176,12.6832 C8.6368,13.3424 10.3728,14.256 11.8864,15.3536 C11.5472,16.4624 11.2976,17.6128 11.16,18.7968 C5.816,16.3776 2.264,17.7056 0.3424,19.0656 C0.6528,14.4192 2.0256,10.0656 4.1872,6.2128 C5.2032,6.2032 6.2336,6.2656 7.2656,6.416 C9.504,6.7328 11.7392,7.4384 13.8464,8.5376 C12.1664,6.8592 10.152,5.4272 7.904,4.36 C7.2496,4.0416 6.5712,3.768 5.8832,3.512 C6.5376,2.5888 7.2288,1.6944 7.9808,0.848 C10.1584,1.2112 12.3328,2.1264 14.2912,3.5152 C15.4656,4.3504 16.5744,5.3232 17.6,6.4" transform="matrix(1 0 0 -1 2.117 167.645)"/>
    <path fill="#AF5B2B" d="M51.2,32 C51.2,34.9744 48.7904,37.3856 45.8128,37.3856 C42.84,37.3856 40.4272,34.9744 40.4272,32 C40.4272,24.2 35.8656,17.4576 29.28,14.2544 C29.5088,13.1568 29.6992,12.0464 29.816,10.936 C30.0848,8.344 30.032,5.6496 29.1952,3.248 C29.3168,5.7776 28.6384,8.1792 27.7264,10.4256 C27.3472,11.3472 26.8896,12.2336 26.4192,13.1136 C24.6064,12.5648 22.68,12.2624 20.6896,12.2624 C18.1536,12.2624 15.7328,12.7408 13.5056,13.6144 C13.1024,13.12 12.712,12.6224 12.2784,12.1664 C10.8688,10.6848 9.3152,9.3984 7.6784,8.3136 C8.8208,9.9136 9.7584,11.6096 10.4832,13.3552 C10.6848,13.84 10.8288,14.3408 10.9952,14.8352 C10.0912,15.352 9.224,15.9344 8.4128,16.5792 C7.6224,15.2608 6.7152,13.992 5.664,12.8128 C4.3184,11.3072 2.6608,9.984 0.7968,8.9408 C4.1808,6.0096 8.2064,3.808 12.6448,2.5904 C14.104,4.4416 15.24,6.7152 15.8336,9.2112 C16.2448,6.8944 16.1744,4.4128 15.6288,1.9392 C16.7968,1.7408 17.992,1.6192 19.2016,1.5632 C20.1168,4.3152 20.6256,7.3744 20.7376,10.4688 C21.7456,7.6752 22.4752,4.728 22.7344,1.5904 C38.6,2.6544 51.2,15.8688 51.2,32" transform="matrix(1 0 0 -1 12.181 178.547)"/>
    <path fill="#4B190D" d="M11.2,1.6 C11.1088,2.3536 11.0528,3.1232 11.0528,3.9008 C11.0528,6.1664 11.4336,8.3872 12.184,10.5024 C13.176,13.3088 11.712,16.3872 8.9088,17.3792 C6.1056,18.376 3.0272,16.9056 2.0304,14.1056 C0.8704,10.8288 0.28,7.3968 0.28,3.9008 C0.28,3.2144 0.3376,2.5472 0.3824,1.8688 C2.304,0.5088 5.856,-0.8192 11.2,1.6" transform="matrix(1 0 0 -1 2.076 150.449)"/>
    <path fill="#4B190D" d="M6.4,1.6 C6.1408,2.216 5.9152,2.84 5.7216,3.4848 C4.2096,2.3872 2.4736,1.4736 0.6528,0.8144 C2.552,0.7984 4.4832,1.0832 6.4,1.6" transform="matrix(1 0 0 -1 8.28 155.777)"/>
    <path fill="#4B190D" d="M11.2,6.4 C9.0928,5.3008 6.8576,4.5952 4.6192,4.2784 C3.5856,4.128 2.5568,4.0656 1.5408,4.0752 C2.0624,3.1488 2.6224,2.2432 3.2352,1.3744 C3.9248,1.632 4.6032,1.904 5.2576,2.2224 C7.504,3.2896 9.5184,4.7216 11.2,6.4" transform="matrix(1 0 0 -1 4.764 165.508)"/>
    <path fill="#4B190D" d="M11.2,8 C10.904,8.2352 10.6064,8.4688 10.3232,8.7216 C9.2992,7.6448 8.1888,6.672 7.0144,5.8368 C5.056,4.448 2.8816,3.5328 0.704,3.1696 C1.5936,2.1648 2.568,1.2416 3.584,0.3616 C5.448,1.4048 7.1056,2.728 8.4512,4.2336 C9.5024,5.4128 10.4096,6.6816 11.2,8" transform="matrix(1 0 0 -1 9.393 169.967)"/>
    <path fill="#4B190D" d="M0,0 C1.6368,1.0848 3.1904,2.3696 4.6,3.8512 C5.0336,4.3072 5.4256,4.8064 5.8288,5.3008 C4.96,5.6432 4.1248,6.0624 3.3168,6.5216 C3.1504,6.0272 3.0064,5.5264 2.8048,5.04 C2.08,3.296 1.1424,1.6 0,0" transform="matrix(1 0 0 -1 19.859 170.233)"/>
    <path fill="#4B190D" d="M3.2,8 C2.608,5.504 1.472,3.232 0.0128,1.3792 C0.9872,1.112 1.9824,0.8976 2.9952,0.728 C3.5424,3.2016 3.6128,5.6832 3.2,8" transform="matrix(1 0 0 -1 24.814 177.336)"/>
    <path fill="#4B190D" d="M0,1.6 C0.4976,1.5744 0.9872,1.5264 1.488,1.5264 C2.176,1.5264 2.8496,1.5856 3.5328,1.6288 C3.2736,4.7664 2.544,7.712 1.536,10.5056 C1.424,7.4128 0.9152,4.3536 0,1.6" transform="matrix(1 0 0 -1 31.383 178.584)"/>
    <path fill="#4B190D" d="M3.2,0 C4.0352,2.4016 4.0896,5.096 3.8208,7.688 C3.704,8.7984 3.5136,9.9072 3.2848,11.0064 C2.3664,10.5632 1.4144,10.1696 0.424,9.8656 C0.8944,8.9856 1.352,8.0992 1.7312,7.176 C2.6432,4.9312 3.3216,2.5296 3.2,0" transform="matrix(1 0 0 -1 38.176 175.299)"/>
    <path fill="#EA8232" d="M30.4,14.4 L30.4,28.1984 C38.544,35.7808 43.7648,46.416 44.2784,58.2928 C35.3408,44.9056 19.1616,35.9264 0.6144,35.8832 L0.6144,16.4384 C3.2912,16.4384 5.896,16.712 8.44,17.1728 L8.44,14.4 C4.2352,11.1296 1.5232,6.0288 1.5232,0.2928 L37.3136,0.2928 C37.3136,6.0288 34.6,11.1296 30.4,14.4" transform="matrix(1 0 0 -1 80.064 177.055)"/>
    <path fill="#AF5B2B" fill-rule="nonzero" d="M3.2,56 C3.76,55.3008 4.3312,54.6128 4.9344,53.9392 C4.3312,54.6128 3.76,55.3008 3.2,56 M5.1152,53.7488 C5.7488,53.0512 6.4016,52.3632 7.0816,51.6992 C6.4016,52.3632 5.7488,53.0512 5.1152,53.7488 M1.0208,61.1008 C1.0208,60.3072 1.1008,59.5376 1.144,58.7568 C1.7184,57.9184 2.32,57.0992 2.952,56.2976 C2.32,57.0992 1.7184,57.9184 1.144,58.7568 C1.7712,47.0576 6.96,36.5888 15.0016,29.0992 L15.0016,15.3008 C10.8016,12.032 8.0848,6.9296 8.0848,1.1936 L43.8736,1.1936 C43.8736,6.9296 41.1664,12.032 36.9616,15.3008 L36.9616,18.0752 C39.504,17.6144 42.1072,17.3408 44.784,17.3408 L44.784,36.784 C44.7392,36.784 44.6928,36.7744 44.648,36.7744 C29.8112,36.7744 16.4832,42.5088 7.1456,51.6384 C10.8288,48.0432 15.136,44.9744 19.9072,42.576 C19.416,45.48 18.976,48.5376 18.5008,51.7424 C21.9392,50.696 25.5968,49.704 29.48,48.7952 C29.4752,48.784 29.4704,48.776 29.4656,48.768 C32.392,47.3088 35.4336,45.6624 38.5952,43.8096 C40.6144,42.6224 42.6672,41.3824 44.784,40.0208 L44.784,59.0992 L44.784,104.8672 C20.6128,104.8672 1.0208,85.2688 1.0208,61.1008" transform="matrix(1 0 0 -1 35.893 177.956)"/>
    <path fill="#AF5B2B" d="M0,65.6 L0,19.832 L0.0048,19.832 L0.0048,0.7536 C2.1232,2.1152 4.1696,3.3552 6.2,4.5424 C9.3552,6.3952 12.3968,8.0416 15.3232,9.5008 C19.2896,10.4288 23.0128,11.44 26.5088,12.5104 C26.0512,9.4048 25.6368,6.4176 25.1792,3.592 C32.7712,7.5248 39.1472,13.16 43.664,19.9264 C43.6944,20.5664 43.7648,21.1904 43.7648,21.8336 C43.7648,46.0016 24.1728,65.6 0,65.6" transform="matrix(1 0 0 -1 80.678 138.69)"/>
    <path fill="#D5D2B1" d="M27.2,33.6 L27.1952,31.4464 L27.1952,33.6 C25.0784,34.9632 4.3504,33.5024 0.912,34.5504 C1.3872,31.3456 1.8272,28.288 2.3184,25.384 C4.8272,10.488 8.7936,0.1488 27.1952,0.1488 L27.1952,19.592 C36.3648,19.6128 44.9536,21.8272 52.3744,25.6672 C52.8336,28.4928 53.2464,31.48 53.704,34.5856 C50.208,33.5152 29.3184,34.9632 27.2,33.6" transform="matrix(1 0 0 -1 53.483 160.764)"/>
    <path fill="#F6F3CF" d="M25.6,25.6 C18.1776,21.76 9.5888,19.5456 0.4208,19.5248 L0.4208,0.0816 C19.3664,0.0816 23.1408,10.5504 25.6,25.6" transform="matrix(1 0 0 -1 80.257 160.697)"/>
    <path fill="#AF5B2B" d="M48,24 C48,11.1296 37.5664,0.696 24.6912,0.696 C11.8208,0.696 1.3856,11.1296 1.3856,24 C1.3856,36.8752 11.8208,47.312 24.6912,47.312 C37.5664,47.312 48,36.8752 48,24" transform="matrix(1 0 0 -1 15.91 49.872)"/>
    <path fill="#4B190D" d="M27.2,14.4 C27.2,6.9808 21.184,0.9664 13.7616,0.9664 C6.3424,0.9664 0.3248,6.9808 0.3248,14.4 C0.3248,21.8256 6.3424,27.84 13.7616,27.84 C21.184,27.84 27.2,21.8256 27.2,14.4" transform="matrix(1 0 0 -1 26.84 40.272)"/>
    <path fill="#EA8232" d="M48,24 C48,11.1296 37.5664,0.696 24.6928,0.696 C11.8208,0.696 1.3856,11.1296 1.3856,24 C1.3856,36.8752 11.8208,47.312 24.6928,47.312 C37.5664,47.312 48,36.8752 48,24" transform="matrix(1 0 0 -1 94.834 49.872)"/>
    <path fill="#4B190D" d="M27.2,14.4 C27.2,6.9808 21.1824,0.9664 13.7616,0.9664 C6.3408,0.9664 0.3264,6.9808 0.3264,14.4 C0.3264,21.8256 6.3408,27.84 13.7616,27.84 C21.1824,27.84 27.2,21.8256 27.2,14.4" transform="matrix(1 0 0 -1 105.765 40.272)"/>
    <path fill="#EA8232" d="M48,24 C48,11.1296 37.5664,0.696 24.6912,0.696 C11.8208,0.696 1.3856,11.1296 1.3856,24 C1.3856,36.8752 11.8208,47.312 24.6912,47.312 C37.5664,47.312 48,36.8752 48,24" transform="matrix(1 0 0 -1 15.91 49.872)"/>
    <path fill="#4B190D" d="M27.2,14.4 C27.2,6.9808 21.184,0.9664 13.7616,0.9664 C6.3424,0.9664 0.3248,6.9808 0.3248,14.4 C0.3248,21.8256 6.3424,27.84 13.7616,27.84 C21.184,27.84 27.2,21.8256 27.2,14.4" transform="matrix(1 0 0 -1 26.84 40.272)"/>
    <path fill="#AF5B2B" d="M16,41.6 C14.656,36.1216 12.7504,31.2448 10.9088,27.3008 C10.4896,27.2016 10.0736,27.0928 9.6688,26.9584 C7.8384,26.352 6.1904,25.3872 4.7696,24.136 C3.368,22.8608 2.1328,21.3328 1.456,19.2464 C3.5184,19.12 5.2016,19.3072 6.8,19.5776 C5.8144,17.9552 5.168,17.0416 5.168,17.0416 C11.048,20.6336 18.0624,22.2928 33.4352,18.304 C49.1104,14.2384 62.8816,7.2992 65.6,1.576 C67.9696,2.8928 70.6624,3.7072 73.568,3.7072 L73.568,33.5616 L73.568,100.9024 C29.872,100.9024 16,72.5056 16,41.6" transform="matrix(1 0 0 -1 7.165 113.938)"/>
    <path fill="#D5D2B1" d="M70.4,1.6 L70.4848,35.2848 C52.6192,44.0768 54.1104,30.5056 33.7136,37.304 C18.6448,42.328 4.8544,38.3776 0.7248,32.2768 C0.7248,32.2768 33.7136,-3.1024 70.4,1.6" transform="matrix(1 0 0 -1 10.278 130.917)"/>
    <path fill="#E96332" d="M1.6,1.6 L1.6,1.5952 C1.624,1.5952 1.64,1.5984 1.656,1.5984 C1.64,1.5984 1.624,1.6 1.6,1.6" transform="matrix(1 0 0 -1 79.051 23.25)"/>
    <path fill="#07171B" d="M1.6,1.6 L1.5984,1.6 C1.6016,1.5888 1.6176,1.5712 1.6208,1.5584 C1.6176,1.5712 1.6016,1.5888 1.6,1.6" transform="matrix(1 0 0 -1 71.167 122.538)"/>
    <path fill="#A84720" d="M1.6,1.6 C1.5824,1.6 1.5632,1.5984 1.5456,1.5984 C1.5632,1.5984 1.5824,1.5952 1.6,1.5952 L1.6,1.6 Z" transform="matrix(1 0 0 -1 79.162 23.25)"/>
    <path fill="#A84720" d="M1.6,1.6 L1.6,50.48 C1.5824,50.48 1.5632,50.4832 1.5456,50.4832 C1.5296,50.4832 1.512,50.48 1.4896,50.48 L1.4896,1.5936 C1.5296,1.5936 1.5632,1.6 1.6,1.6" transform="matrix(1 0 0 -1 79.162 72.135)"/>
    <path fill="#A84720" d="M1.6,0 L1.656,0 L1.7104,0 L1.7104,29.8608 L1.7104,48.3152 C1.6736,48.3152 1.64,48.3088 1.6,48.3088 L1.6,29.8608 L1.6,0 Z" transform="matrix(1 0 0 -1 79.051 118.85)"/>
    <path fill="#EA8232" d="M73.6,19.2 C72.9216,21.2864 71.688,22.8144 70.2848,24.0896 C68.8672,25.3408 67.216,26.304 65.3872,26.9104 C64.984,27.0448 64.5664,27.1552 64.1456,27.2544 C62.304,31.1984 60.4032,36.0752 59.0576,41.5536 C59.0576,72.4592 45.1824,100.856 1.4896,100.856 L1.4896,33.5136 L1.4896,3.6608 C4.3936,3.6608 7.0864,2.8448 9.4608,1.5296 C12.176,7.2528 25.944,14.192 41.6192,18.2576 C56.9952,22.2448 64.0096,20.5856 69.8864,16.9952 C69.8864,16.9952 69.2432,17.9072 68.2576,19.5312 C69.856,19.2608 71.5392,19.0736 73.6,19.2" transform="matrix(1 0 0 -1 79.167 113.89)"/>
    <path fill="#A84720" d="M1.6,1.6 L1.6,1.592 C1.624,1.592 1.64,1.5968 1.656,1.6 L1.6,1.6 Z" transform="matrix(1 0 0 -1 79.051 120.45)"/>
    <path fill="#F6F3CF" d="M1.6,1.6 L1.5168,35.2848 C19.3808,44.0768 17.8912,30.5056 38.2864,37.304 C53.3536,42.328 67.1472,38.3776 71.2752,32.2768 C71.2752,32.2768 38.2864,-3.1024 1.6,1.6" transform="matrix(1 0 0 -1 79.11 130.917)"/>
    <path fill="#4B190D" d="M0,19.2 C0,19.2 23.9664,26.1472 23.4288,1.7744 C23.4288,1.7744 0,-6.736 0,19.2" transform="matrix(1 0 0 -1 42.017 81.114)"/>
    <path fill="#F39E2B" d="M19.2,9.6 C19.2,4.6944 15.2224,0.712 10.312,0.712 C5.4048,0.712 1.424,4.6944 1.424,9.6 C1.424,14.5056 5.4048,18.4864 10.312,18.4864 C15.2224,18.4864 19.2,14.5056 19.2,9.6" transform="matrix(1 0 0 -1 43.697 80.696)"/>
    <path fill="#FFF" d="M6.4,3.2 C6.4,1.5088 5.0256,0.1408 3.3344,0.1408 C1.6464,0.1408 0.2752,1.5088 0.2752,3.2 C0.2752,4.8928 1.6464,6.264 3.3344,6.264 C5.0256,6.264 6.4,4.8928 6.4,3.2" transform="matrix(1 0 0 -1 53.642 70.628)"/>
    <path fill="#4B190D" d="M24,19.2 C24,19.2 0.032,26.1472 0.5712,1.7744 C0.5712,1.7744 24,-6.736 24,19.2" transform="matrix(1 0 0 -1 95.53 81.114)"/>
    <path fill="#F39E2B" d="M0,9.6 C0,4.6944 3.976,0.712 8.8896,0.712 C13.7952,0.712 17.7744,4.6944 17.7744,9.6 C17.7744,14.5056 13.7952,18.4864 8.8896,18.4864 C3.976,18.4864 0,14.5056 0,9.6" transform="matrix(1 0 0 -1 98.492 80.696)"/>
    <path fill="#FFF" d="M0,3.2 C0,1.5088 1.3712,0.1408 3.0624,0.1408 C4.7552,0.1408 6.128,1.5088 6.128,3.2 C6.128,4.8928 4.7552,6.264 3.0624,6.264 C1.3712,6.264 0,4.8928 0,3.2" transform="matrix(1 0 0 -1 107.81 70.628)"/>
    <path fill="#D76C79" d="M14.4,0 C13.144,0.2336 12.0448,0.7888 11.3232,1.6352 C7.9392,5.5984 3.5392,8.4032 0.9664,9.88 C3.5184,10.6112 8.4,11.6288 15.7664,11.6288 C23.0672,11.6288 27.9824,10.6 30.5424,9.8704 C26.2128,7.192 22.5472,4.3232 19.8656,1.5104 C19.1344,0.7472 18.1664,0.2368 16.9792,0 L14.4,0 Z" transform="matrix(1 0 0 -1 64.86 104.025)"/>
    <path fill="#4B190D" fill-rule="nonzero" d="M17.6,14.4 C5.7856,14.4 0.1424,11.808 0.1808,11.808 C0.1808,11.808 0.1808,11.8112 0.1856,11.8112 C0.3216,11.616 7.4704,8.3424 12.336,2.6352 C13.3568,1.4384 14.8,0.8688 16.2336,0.6208 L18.9152,0.6208 C20.232,0.8672 21.4992,1.4336 22.48,2.4672 C27.5632,7.8032 34.8608,11.7696 34.9264,11.8416 C34.9264,11.8416 29.28,14.4 17.6,14.4 M17.6,12.2448 C22.9312,12.2448 26.9568,11.6912 29.6832,11.1184 C26.1936,8.7936 23.2112,6.3568 20.92,3.9536 C20.3648,3.3712 19.624,2.9744 18.6992,2.7744 L16.4272,2.7744 C15.3264,2.9904 14.5024,3.4144 13.9744,4.0336 C11.3424,7.1184 8.128,9.5104 5.576,11.152 C8.2896,11.7104 12.2704,12.2448 17.6,12.2448" transform="matrix(1 0 0 -1 63.028 105.724)"/>
    <path fill="#4B190D" d="M25.6,9.6 C23.408,5.8144 20.632,3.6672 17.3568,3.2176 C9.9376,2.2208 2.0592,9.9952 1.9776,10.0704 C1.5584,10.4992 0.8768,10.4992 0.4544,10.0752 C0.0352,9.6528 0.0352,8.9744 0.4528,8.552 C0.7792,8.2224 8.0976,0.9744 15.9824,0.9744 C16.5376,0.9744 17.0864,1.0064 17.6416,1.0832 C21.2176,1.5728 24.248,3.6512 26.6768,7.2656 C29.1008,3.6512 32.1312,1.5728 35.7104,1.0832 C36.2624,1.0064 36.8208,0.9744 37.368,0.9744 C45.256,0.9744 52.5664,8.2224 52.8992,8.552 C53.3184,8.9744 53.3168,9.6528 52.8976,10.0752 C52.472,10.4912 51.7904,10.496 51.368,10.0704 C51.2896,9.9952 43.4272,2.2304 36.0032,3.2176 C32.7168,3.6768 29.952,5.7984 27.7536,9.6 L27.7536,15.4592 C27.8336,15.4736 27.9104,15.4976 27.992,15.512 L25.3088,15.512 C25.4048,15.496 25.5008,15.464 25.6,15.4528 L25.6,9.6 Z" transform="matrix(1 0 0 -1 53.951 120.616)"/>
    <polygon fill="#4B190D" points="3.2 11.2 20.856 1.034 .843 3.765" transform="matrix(1 0 0 -1 19.745 84.413)"/>
    <path fill="#4B190D" d="M1.6,16 C2.712,14.0608 3.8384,12.3824 5.2064,10.5536 C7.9472,6.9104 11.2032,3.5456 15.0768,0.7408 C10.44,1.9136 5.8848,3.9344 1.6224,6.536 L0.3648,7.3264 C0.5808,11.9536 1.6,16 1.6,16" transform="matrix(1 0 0 -1 23.167 71.228)"/>
    <path fill="#4B190D" d="M0,1.6 C2.3328,4.0448 5.3376,5.9504 8.5072,7.5376 C11.7008,9.112 15.1392,10.3152 18.696,11.2048 L18.696,0.4224 C15.8016,1.3264 12.728,1.992 9.5984,2.2608 C6.472,2.5072 3.2208,2.472 0,1.6" transform="matrix(1 0 0 -1 61.912 27.472)"/>
    <path fill="#4B190D" d="M0,0 C2.944,2.5664 6.3952,4.6368 9.9696,6.4784 C13.5648,8.304 17.896,9.8336 21.8128,11.112 L21.8608,0.4528 C18.2624,1.0032 15.0112,1.264 11.28,1.2528 C7.5488,1.224 3.752,0.96 0,0" transform="matrix(1 0 0 -1 58.795 39.306)"/>
    <path fill="#4B190D" d="M0,3.2 C2.0896,4.9984 4.3328,6.6592 6.8096,8.1648 C9.3296,9.6256 11.4016,10.8032 15.1568,11.3696 L15.1568,0.9232 C13.7264,1.9856 10.5504,2.5968 8.0272,2.92 C5.4512,3.2336 2.7344,3.3248 0,3.2" transform="matrix(1 0 0 -1 65.451 52.377)"/>
    <path fill="#4B190D" d="M0,11.2 C1.3296,9.8704 2.8928,8.6016 4.312,7.3632 C5.736,6.1232 7.2096,4.9392 8.7648,3.8576 C10.32,2.784 11.9472,1.7968 13.7776,1.104 C11.8256,0.9024 9.7872,1.0624 7.7952,1.3472 C5.7936,1.6368 3.9888,2.0256 2.0304,2.528 C0.3392,7.3952 0,11.2 0,11.2" transform="matrix(1 0 0 -1 37.403 133.863)"/>
    <path fill="#4B190D" d="M0,8 C0,8 1.3312,7.1808 2.8544,6.1712 C5.9008,4.1632 9.1008,2.3312 12.6544,1.0224 C8.8896,0.544 8.1216,0.4208 4.232,0.8288 C4.232,0.8288 2.6192,2.7728 0,8" transform="matrix(1 0 0 -1 41.08 143.38)"/>
    <polygon fill="#4B190D" points="19.2 11.2 1.542 1.034 21.554 3.765" transform="matrix(1 0 0 -1 119.095 84.413)"/>
    <path fill="#4B190D" d="M14.4,16 C13.2816,14.0608 12.16,12.3824 10.7904,10.5536 C8.0512,6.9104 4.7936,3.5456 0.9184,0.7408 C5.5584,1.9136 10.112,3.9344 14.376,6.536 L15.6352,7.3264 C15.416,11.9536 14.4,16 14.4,16" transform="matrix(1 0 0 -1 122.075 71.228)"/>
    <path fill="#4B190D" d="M19.2,1.6 C16.8672,4.0448 13.8624,5.9504 10.6928,7.5376 C7.4992,9.112 4.0608,10.3152 0.504,11.2048 L0.504,0.4224 C3.3968,1.3264 6.4704,1.992 9.6016,2.2608 C12.7264,2.5072 15.9808,2.472 19.2,1.6" transform="matrix(1 0 0 -1 80.128 27.472)"/>
    <path fill="#4B190D" d="M22.4,0 C19.4576,2.5664 16.0064,4.6368 12.432,6.4784 C8.8336,8.304 4.5072,9.8336 0.5888,11.112 L0.5376,0.4528 C4.1376,1.0032 7.3888,1.264 11.1216,1.2528 C14.8512,1.224 18.6496,0.96 22.4,0" transform="matrix(1 0 0 -1 80.043 39.306)"/>
    <path fill="#4B190D" d="M16,3.2 C13.9104,4.9984 11.6656,6.6592 9.1936,8.1648 C6.6736,9.6256 4.6016,10.8032 0.8464,11.3696 L0.8464,0.9232 C2.2784,1.9856 5.4512,2.5968 7.976,2.92 C10.552,3.2336 13.2688,3.3248 16,3.2" transform="matrix(1 0 0 -1 79.786 52.377)"/>
    <path fill="#4B190D" d="M14.4,11.2 C13.0704,9.8704 11.5088,8.6016 10.088,7.3632 C8.6624,6.1232 7.1904,4.9392 5.64,3.8576 C4.08,2.784 2.4528,1.7968 0.6224,1.104 C2.576,0.9024 4.6128,1.0624 6.6064,1.3472 C8.608,1.6368 10.4112,2.0256 12.376,2.528 C14.0624,7.3952 14.4,11.2 14.4,11.2" transform="matrix(1 0 0 -1 109.436 133.863)"/>
    <path fill="#4B190D" d="M12.8,8 C12.8,8 11.4704,7.1808 9.9488,6.1712 C6.8992,4.1632 3.6976,2.3312 0.144,1.0224 C3.912,0.544 4.6768,0.4208 8.5664,0.8288 C8.5664,0.8288 10.1792,2.7728 12.8,8" transform="matrix(1 0 0 -1 107.359 143.38)"/>
    <path fill="#8E6451" d="M1.6,0 C1.3376,0 1.08,0.0928 0.872,0.28 C0.4352,0.6848 0.4048,1.3664 0.808,1.8048 C22.088,25.0176 55.1184,12.0288 55.4496,11.8912 C56.0016,11.6688 56.2672,11.0416 56.0448,10.488 C55.8192,9.9392 55.1888,9.6704 54.64,9.8928 C54.3216,10.0208 22.6528,22.4464 2.3952,0.3504 C2.1808,0.1168 1.8912,0 1.6,0" transform="matrix(1 0 0 -1 .756 111.613)"/>
    <path fill="#8E6451" d="M1.6,0 C1.3264,0 1.0576,0.1008 0.8464,0.3024 C0.4224,0.7216 0.4112,1.4016 0.8224,1.824 C20.752,22.3728 46.7488,15.4544 47.0128,15.384 C47.5824,15.2256 47.9184,14.6336 47.76,14.0592 C47.5984,13.4864 47.0144,13.1504 46.4336,13.3072 C46.1872,13.3808 21.3872,19.9344 2.3664,0.3264 C2.16,0.1088 1.8768,0 1.6,0" transform="matrix(1 0 0 -1 7.765 118.388)"/>
    <path fill="#8E6451" d="M1.6,0 C1.3856,0 1.168,0.064 0.9808,0.2 C0.496,0.5392 0.3776,1.2128 0.72,1.6976 C14.5264,21.3184 37.6464,19.4016 37.8704,19.3856 C38.4624,19.3344 38.8992,18.808 38.8432,18.216 C38.7888,17.6224 38.304,17.176 37.6736,17.24 C37.4544,17.2608 15.5568,19.0384 2.4832,0.4576 C2.2736,0.1616 1.9408,0 1.6,0" transform="matrix(1 0 0 -1 16.715 125.93)"/>
    <path fill="#8E6451" d="M56,0 C55.7088,0 55.4192,0.1168 55.208,0.3504 C34.944,22.4464 3.2784,10.0208 2.96,9.8928 C2.4064,9.6752 1.7808,9.9392 1.5552,10.488 C1.3328,11.0416 1.6016,11.6688 2.1536,11.8912 C2.4816,12.0288 35.5136,25.0176 56.7952,1.8048 C57.1952,1.3664 57.1664,0.6848 56.728,0.28 C56.5216,0.0928 56.2592,0 56,0" transform="matrix(1 0 0 -1 101.365 111.613)"/>
    <path fill="#8E6451" d="M46.4,0 C46.12,0 45.8368,0.1088 45.6272,0.3264 C26.576,19.9616 1.8144,13.3808 1.5664,13.3072 C0.984,13.1552 0.3968,13.4864 0.24,14.0592 C0.08,14.632 0.4144,15.2256 0.9888,15.384 C1.2432,15.4544 27.2416,22.3776 47.1744,1.824 C47.5872,1.4016 47.576,0.7216 47.1504,0.3024 C46.9408,0.1008 46.6704,0 46.4,0" transform="matrix(1 0 0 -1 103.959 118.388)"/>
    <path fill="#8E6451" d="M38.4,0 C38.0608,0 37.728,0.1616 37.5152,0.4576 C24.4416,19.04 2.536,17.264 2.3264,17.24 C1.7072,17.192 1.2096,17.6224 1.1568,18.216 C1.1008,18.808 1.5344,19.3344 2.1264,19.3856 C2.3584,19.4016 25.4736,21.3184 39.2832,1.6976 C39.6224,1.2128 39.504,0.5392 39.0192,0.2 C38.832,0.064 38.6144,0 38.4,0" transform="matrix(1 0 0 -1 103.006 125.93)"/>
  </g>
</svg>
