<svg xmlns="http://www.w3.org/2000/svg" width="160" height="190" viewBox="0 0 160 190">
  <g fill="none" fill-rule="evenodd" transform="translate(20)">
    <path fill="#F6E9E5" d="M18.5993976,18.5993976 C19.5150602,20.6439006 18.5993976,23.0403614 16.5534639,23.9560241 C14.5089608,24.870256 12.1125,23.9545934 11.1954066,21.9115211 L6.25225904,10.8491717 C4.73712349,11.9079066 3.11325301,12.850753 1.39209337,13.6891566 L7.14789157,26.5599398 C9.32402108,31.427259 15.0283133,33.6048193 19.898494,31.4329819 C24.7600904,29.2568524 26.940512,23.5468373 24.7658133,18.6866717 L16.5148343,0.233207831 C15.3330572,1.99013554 14.0353916,3.65835843 12.6175452,5.21927711 L18.5993976,18.5993976 Z" transform="matrix(1 0 0 -1 89.105 44.63)"/>
    <path fill="#D76C79" d="M11.4457831,20.0301205 C13.4917169,19.1144578 14.4059488,16.717997 13.4917169,14.673494 L7.50986446,1.29337349 C5.61558735,3.38795181 3.49811747,5.2750753 1.14457831,6.92326807 L6.08629518,17.9856175 C7.00481928,20.0286898 9.40128012,20.9443524 11.4457831,20.0301205" transform="matrix(1 0 0 -1 94.213 40.704)"/>
    <path fill="#F6E9E5" d="M7.15361446,18.5993976 C6.23938253,20.6439006 7.15361446,23.0403614 9.20240964,23.9560241 C11.2440512,24.870256 13.6433735,23.9545934 14.5590361,21.9115211 L19.5021837,10.8491717 C21.0144578,11.9079066 22.6411898,12.850753 24.3609187,13.6891566 L18.6065512,26.5599398 C16.428991,31.427259 10.7246988,33.6048193 5.85881024,31.4329819 C0.992921687,29.2568524 -1.1875,23.5468373 0.990060241,18.6866717 L9.23960843,0.233207831 C10.4228163,1.99013554 11.7190512,3.65835843 13.1368976,5.21927711 L7.15361446,18.5993976 Z" transform="matrix(1 0 0 -1 28.397 44.63)"/>
    <path fill="#D76C79" d="M2.86144578,20.0301205 C0.814081325,19.1144578 -0.100150602,16.717997 0.812650602,14.673494 L6.79593373,1.29337349 C8.69021084,3.38795181 10.8091114,5.2750753 13.1612199,6.92326807 L8.21950301,17.9856175 C7.30240964,20.0286898 4.90451807,20.9443524 2.86144578,20.0301205" transform="matrix(1 0 0 -1 34.738 40.704)"/>
    <path fill="#3C3C3B" d="M5.72289157,38.6295181 C7.91046687,35.2100904 9.05933735,32.0567771 10.1338102,29.3498494 C10.6689006,27.9391566 11.1138554,27.1322289 11.678991,25.8030873 C12.2355422,24.4052711 12.8064006,22.7198795 13.1368976,20.9457831 C13.8408133,17.3847139 13.6734187,13.4044428 12.4129518,9.84623494 C11.1181476,6.28945783 8.89623494,3.1060994 5.33945783,1.06302711 C4.05753012,4.94887048 3.37650602,7.98343373 2.68832831,10.7533133 C2.02161145,13.5203313 1.43787651,15.9439759 0.934262048,18.6137048 C0.672439759,19.9614458 0.460692771,21.3549699 0.258960843,23.0360693 C0.0185993976,24.7844127 -0.0143072289,27.1307982 0.41061747,28.897741 C1.22899096,32.5389307 2.80564759,35.74375 5.72289157,38.6295181" transform="matrix(1 0 0 -1 68.366 39.774)"/>
    <path fill="#3C3C3B" d="M0,14.3072289 C2.23908133,15.3087349 8.76746988,18.1916416 16.676506,14.1856175 C20.1646084,12.4158133 22.1318524,10.9049699 23.6069277,9.74751506 C25.0748494,8.56144578 27.7746235,5.66137048 28.8862952,3.46378012 C26.6429217,2.45368976 26.2709337,2.02876506 23.4023343,1.10881024 C21.6153614,0.542243976 18.974247,0.283283133 17.2988705,0.878463855 C15.623494,1.47221386 13.8336596,2.15180723 11.6489458,4.06039157 C10.1795934,5.25218373 4.49962349,13.2399096 0,14.3072289" transform="matrix(1 0 0 -1 1.145 170.789)"/>
    <path fill="#D3C5C1" d="M7.15361446,0 C6.13637048,0 5.07906627,0.0829819277 3.98027108,0.260391566 C1.81415663,0.609487952 0.341942771,2.6496988 0.69246988,4.81438253 C1.04299699,6.97906627 3.08034639,8.4498494 5.24646084,8.10361446 C18.0728916,6.04051205 23.0589608,27.8161145 23.1076054,28.0393072 C23.5854669,30.1796687 25.7029367,31.5331325 27.8475904,31.0524096 C29.9893825,30.5759789 31.3385542,28.4556476 30.8635542,26.3138554 C30.6088855,25.1821536 24.7887048,0 7.15361446,0" transform="matrix(1 0 0 -1 21.257 168.943)"/>
    <path fill="#F6E9E5" d="M30.0451807,40.060241 C24.6871235,37.8984187 19.1115964,36.8826054 13.6061747,36.5292169 C18.8984187,38.0815512 23.971762,40.2848645 28.3111446,43.2993976 C30.4815512,44.7930723 32.4473645,46.5199548 34.1155873,48.398494 C34.7851657,49.1596386 38.5536898,53.6549699 40.0731175,55.7266566 C39.703991,57.2031627 39.2719127,58.6596386 38.7196536,60.0689006 C43.7457831,66.4957078 46.6115211,74.2788404 46.6115211,82.6843373 C46.6115211,85.4413404 46.5628765,88.6704819 46.3926205,92.2100904 L31.442997,90.2385542 L45.9290663,98.9244729 C45.5399096,103.298193 44.9432982,107.936596 44.0219127,112.626506 L29.1037651,102.288102 L42.1848645,120.325226 C38.5365211,133.339081 31.9265813,145.639006 20.0201054,152.09872 L10.3927711,137.004593 L13.9152108,154.715512 C9.8190512,156.054669 5.23072289,156.812952 0.0515060241,156.812952 L0.0515060241,10.8005271 C2.50376506,10.8005271 4.89450301,11.0323042 7.23230422,11.4028614 L7.23230422,1.36920181 L22.9817018,1.36920181 L22.9817018,17.1042922 C28.7060241,20.585241 33.3902108,25.335241 36.5664157,30.900753 C36.5106175,30.8635542 36.4576807,30.8306476 36.4004518,30.7934488 C34.0469127,29.3384036 31.5817771,28.1480422 29.0622741,27.1994729 C24.0189759,25.3023343 18.7639307,24.4009789 13.6061747,24.276506 C18.5951054,25.6113705 23.2993223,27.6859187 27.3854669,30.4701054 C32.0639307,33.224247 37.4148343,38.2003012 40.4923193,41.5024096 C40.8142319,43.1892319 41.0030873,44.9175452 41.0588855,46.6759036 C39.8871235,45.7473645 38.407756,44.7344127 37.7753765,44.2751506 C35.3274096,42.5239458 32.7263554,41.1361446 30.0451807,40.060241" transform="matrix(1 0 0 -1 71.537 183.194)"/>
    <path fill="#3C3C3B" d="M15.7379518,11.4457831 C15.2314759,14.0153614 14.6191265,16.5892319 13.9009036,19.144503 L0.819804217,1.10737952 L15.7379518,11.4457831 Z" transform="matrix(1 0 0 -1 99.821 82.014)"/>
    <path fill="#3C3C3B" d="M15.7379518,2.86144578 C15.6363705,4.99465361 15.4804217,7.24947289 15.2743976,9.57439759 L0.788328313,0.889909639 L15.7379518,2.86144578 Z" transform="matrix(1 0 0 -1 102.192 93.845)"/>
    <path fill="#3C3C3B" d="M10.0150602,15.7379518 C8.11935241,16.7680723 6.08486446,17.6436747 3.91016566,18.354744 L0.387725904,0.643825301 L10.0150602,15.7379518 Z" transform="matrix(1 0 0 -1 81.542 46.834)"/>
    <path fill="#3C3C3B" d="M21.4608434,12.876506 C19.7926205,10.9979669 17.8268072,9.26965361 15.6564006,7.77740964 C11.3170181,4.76287651 6.2436747,2.55956325 0.951430723,1.00722892 C6.45685241,1.36061747 12.0323795,2.37643072 17.3904367,4.53825301 C20.0701807,5.61415663 22.6726657,7.00195783 25.1206325,8.75316265 C25.753012,9.21099398 27.2323795,10.2239458 28.4041416,11.1539157 C28.4170181,11.5173193 28.4427711,11.8764307 28.4427711,12.2426958 C28.4427711,14.9853916 28.0607681,17.6365211 27.4183735,20.2046687 C25.8989458,18.1329819 22.128991,13.6376506 21.4608434,12.876506" transform="matrix(1 0 0 -1 84.192 147.672)"/>
    <path fill="#3C3C3B" d="M14.3072289,7.15361446 C10.2225151,4.36942771 5.51686747,2.29487952 0.52936747,0.96001506 C5.68712349,1.08448795 10.940738,1.98584337 15.9854669,3.88298193 C18.5049699,4.8315512 20.9701054,6.02191265 23.3222139,7.47838855 C23.3808735,7.51415663 23.4323795,7.54706325 23.4881777,7.58426205 C25.360994,10.8634789 26.703012,14.4259789 27.415512,18.1859187 C24.3380271,14.8838102 18.9871235,9.90775602 14.3072289,7.15361446" transform="matrix(1 0 0 -1 84.615 159.878)"/>
    <path fill="#D3C5C1" d="M34.3373494,154.518072 L37.922741,136.488102 L28.1895331,151.748193 C18.3676205,145.799247 13.8565512,138.774398 13.8565512,138.774398 C10.1638554,133.281852 7.55850904,126.930873 5.71287651,120.382455 L19.2103163,101.773042 L3.8371988,112.424774 C2.92582831,107.720557 2.3378012,103.059262 1.96295181,98.6597892 L16.8725151,89.723494 L1.51942771,91.7479669 C1.36347892,88.1954819 1.31769578,84.9348645 1.31769578,82.1692771 C1.31769578,73.7637801 4.18343373,65.9792169 9.21099398,59.5538404 C8.70881024,58.2719127 8.30677711,56.9527861 7.95338855,55.6107681 C9.20670181,53.8009036 13.4831325,48.6960843 14.198494,47.8834337 C15.8667169,46.0034639 17.8339608,44.2765813 20.0043675,42.7829066 C24.34375,39.7698042 29.4156627,37.566491 34.7064759,36.0141566 C29.2024849,36.3675452 23.6283886,37.3833584 18.2689006,39.5451807 C15.5891566,40.6210843 12.9881024,42.0074548 10.5387048,43.7600904 C9.83192771,44.267997 8.06784639,45.4755271 6.8560241,46.4813253 C6.89608434,44.7930723 7.06204819,43.1305723 7.34533133,41.5038404 C10.3198042,38.2303464 15.9997741,32.8565512 20.9300452,29.9550452 C25.014759,27.1694277 29.7204066,25.0963102 34.7064759,23.7600151 C29.5501506,23.884488 24.2965361,24.7858434 19.2518072,26.6829819 C16.7323042,27.6315512 14.2685994,28.8233434 11.9136295,30.2783886 C11.6446536,30.4500753 11.3885542,30.6160392 11.1424699,30.7777108 C14.3201054,25.0433735 19.0872741,20.1488705 24.9460843,16.5892319 L24.9460843,0.854141566 L40.6983434,0.854141566 L40.6983434,10.8863705 C43.0332831,10.517244 45.4240211,10.2840361 47.8791416,10.2840361 L47.8791416,156.297892 C42.8801958,156.297892 38.3133283,155.745633 34.3373494,154.518072" transform="matrix(1 0 0 -1 23.71 182.679)"/>
    <path fill="#3C3C3B" d="M15.7379518,0 L2.23908133,18.6094127 C1.49653614,15.9725904 0.879894578,13.3100151 0.363403614,10.6517319 L15.7379518,0 Z" transform="matrix(1 0 0 -1 27.182 80.906)"/>
    <path fill="#3C3C3B" d="M15.7379518,0 L0.828388554,8.93629518 C0.625225904,6.53840361 0.480722892,4.2249247 0.384864458,2.02447289 L15.7379518,0 Z" transform="matrix(1 0 0 -1 24.844 92.955)"/>
    <path fill="#3C3C3B" d="M0,15.7379518 L9.73320783,0.477861446 L6.14781627,18.5078313 C4.21490964,17.9112199 2.4121988,17.1643825 0.789759036,16.2201054 C0.516490964,16.0584337 0.264683735,15.896762 0,15.7379518" transform="matrix(1 0 0 -1 51.899 46.668)"/>
    <path fill="#3C3C3B" d="M1.43072289,11.4457831 C2.64111446,10.4399849 4.40519578,9.23245482 5.11340361,8.72454819 C7.56137048,6.97191265 10.1638554,5.58411145 12.8435994,4.50820783 C18.2016566,2.34781627 23.7771837,1.33200301 29.2811747,0.978614458 C23.9889307,2.5309488 18.9170181,4.73426205 14.5776355,7.74736446 C12.4072289,9.24103916 10.4414157,10.9679217 8.77319277,12.8464608 C8.0564006,13.6605422 3.77996988,18.7639307 2.52808735,20.5752259 C1.82131024,17.8868976 1.40353916,15.0998494 1.40353916,12.2126506 C1.40353916,11.9551205 1.42643072,11.7018825 1.43072289,11.4457831" transform="matrix(1 0 0 -1 29.135 147.643)"/>
    <path fill="#3C3C3B" d="M5.72289157,7.15361446 C8.07786145,5.69713855 10.5415663,4.50677711 13.0596386,3.55820783 C18.1057982,1.66106928 23.3594127,0.759713855 28.515738,0.635240964 C23.5296687,1.97153614 18.8240211,4.04465361 14.7393072,6.82884036 C9.80760542,9.73177711 4.12906627,15.1055723 1.15459337,18.3790663 C1.81129518,14.580497 3.11039157,10.9750753 4.95173193,7.65293675 C5.19781627,7.49126506 5.45391566,7.3253012 5.72289157,7.15361446" transform="matrix(1 0 0 -1 29.9 159.554)"/>
    <path fill="#1D1D1B" d="M0,4.29216867 C0,2.03448795 1.82560241,0.204593373 4.08328313,0.204593373 C6.33953313,0.204593373 8.16799699,2.03448795 8.16799699,4.29216867 L8.16799699,10.4185241 C8.16799699,12.6704819 6.33953313,14.5003765 4.08328313,14.5003765 C1.82560241,14.5003765 0,12.6704819 0,10.4185241 L0,4.29216867 Z" transform="matrix(1 0 0 -1 50.248 77.64)"/>
    <path fill="#1D1D1B" d="M0,4.29216867 C0,2.03448795 1.82846386,0.204593373 4.08471386,0.204593373 C6.34239458,0.204593373 8.17085843,2.03448795 8.17085843,4.29216867 L8.17085843,10.4185241 C8.17085843,12.6704819 6.34239458,14.5003765 4.08471386,14.5003765 C1.82846386,14.5003765 0,12.6704819 0,10.4185241 L0,4.29216867 Z" transform="matrix(1 0 0 -1 84.757 77.64)"/>
    <path fill="#3C3C3B" d="M14.3072289,4.29216867 C14.9682229,4.29216867 15.5133283,3.75421687 15.5133283,3.08893072 L15.5133283,0.0715361446 L28.1823795,0.0715361446 C28.1823795,7.64292169 22.0402861,13.7778614 14.471762,13.7778614 C6.90037651,13.7778614 0.761144578,7.64292169 0.761144578,0.0715361446 L13.0996988,0.0715361446 L13.0996988,3.08893072 C13.0996988,3.75421687 13.6362199,4.29216867 14.3072289,4.29216867" transform="matrix(1 0 0 -1 42.06 188.935)"/>
    <path fill="#3C3C3B" d="M14.3072289,4.29216867 C14.9725151,4.29216867 15.5161898,3.75421687 15.5161898,3.08893072 L15.5161898,0.0715361446 L28.1838102,0.0715361446 C28.1838102,7.64292169 22.0474398,13.7778614 14.471762,13.7778614 C6.90466867,13.7778614 0.768298193,7.64292169 0.768298193,0.0715361446 L13.0996988,0.0715361446 L13.0996988,3.08893072 C13.0996988,3.75421687 13.6376506,4.29216867 14.3072289,4.29216867" transform="matrix(1 0 0 -1 72.17 188.935)"/>
    <polygon fill="#3C3C3B" points="0 0 3.677 22.148 7.354 0" transform="matrix(1 0 0 -1 67.91 88.87)"/>
    <path fill="#3C3C3B" d="M82.9819277,31.4759036 C82.9819277,16.547741 64.4869729,1.27048193 41.6740964,1.27048193 C18.8612199,1.27048193 0.361972892,16.547741 0.361972892,31.4759036 C0.361972892,46.3997741 18.8612199,58.4993976 41.6740964,58.4993976 C64.4869729,58.4993976 82.9819277,46.3997741 82.9819277,31.4759036" transform="matrix(1 0 0 -1 29.916 146.654)"/>
    <path fill="#9C9B9B" d="M12.876506,7.15361446 C12.876506,3.87868976 10.2196536,1.22183735 6.94186747,1.22183735 C3.66551205,1.22183735 1.01009036,3.87868976 1.01009036,7.15361446 C1.01009036,10.4314006 3.66551205,13.0868223 6.94186747,13.0868223 C10.2196536,13.0868223 12.876506,10.4314006 12.876506,7.15361446" transform="matrix(1 0 0 -1 39.997 118.16)"/>
    <path fill="#9C9B9B" d="M12.876506,7.15361446 C12.876506,3.87868976 10.2210843,1.22183735 6.94186747,1.22183735 C3.66551205,1.22183735 1.01152108,3.87868976 1.01152108,7.15361446 C1.01152108,10.4314006 3.66551205,13.0868223 6.94186747,13.0868223 C10.2210843,13.0868223 12.876506,10.4314006 12.876506,7.15361446" transform="matrix(1 0 0 -1 89.434 118.16)"/>
    <path fill="#F6E9E5" d="M0,4.29216867 C0,0.619503012 1.68539157,0.688177711 3.87582831,0.417771084 C6.30376506,0.253237952 7.7502259,0.246084337 7.7502259,4.29216867 L7.7502259,6.75873494 C7.7502259,6.34525602 0,7.3310241 0,7.3310241 L0,4.29216867 Z" transform="matrix(1 0 0 -1 63.139 141.246)"/>
    <path fill="#F6E9E5" d="M8.58433735,4.29216867 C8.58433735,0.619503012 6.90037651,0.688177711 4.70993976,0.417771084 C2.28057229,0.253237952 0.834111446,0.246084337 0.834111446,4.29216867 L0.834111446,6.75873494 C0.834111446,6.34525602 8.58433735,7.3310241 8.58433735,7.3310241 L8.58433735,4.29216867 Z" transform="matrix(1 0 0 -1 71.485 141.246)"/>
    <path fill="#F6E9E5" d="M31.4759036,0 C14.1026355,0 1.96009036,9.03072289 1.45218373,9.4127259 C1.06445783,9.70459337 0.985768072,10.2582831 1.27906627,10.6445783 C1.57236446,11.0337349 2.12319277,11.1081325 2.5123494,10.8148343 C2.6310994,10.7261295 14.7164157,1.75835843 31.4759036,1.75835843 C48.2053464,1.75835843 59.1489458,10.7018072 59.2591114,10.790512 C59.6310994,11.1009789 60.1847892,11.0537651 60.4966867,10.6774849 C60.8085843,10.3040663 60.758509,9.74894578 60.3865211,9.44134036 C59.9215361,9.05504518 48.8706325,0 31.4759036,0" transform="matrix(1 0 0 -1 40.702 136.071)"/>
    <path fill="#3C3C3B" d="M2.86144578,35.7680723 C6.02620482,33.2285392 8.12364458,30.6060241 10.0064759,28.3826807 C10.9650602,27.219503 11.6460843,26.5985693 12.6060994,25.5198042 C13.5818524,24.3709337 14.657756,22.9588102 15.5390813,21.3792922 C17.3460843,18.2302711 18.457756,14.4073795 18.4033886,10.6331325 C18.3118223,6.8503012 17.2244729,3.12040663 14.5075301,0.0500753012 C12.0495482,3.32070783 10.434262,5.97899096 8.89766566,8.38403614 C7.37966867,10.7933735 6.05195783,12.902259 4.72281627,15.2715361 C4.04322289,16.464759 3.39653614,17.7137801 2.66686747,19.2460843 C1.88283133,20.8241717 1.1002259,23.0375 0.938554217,24.8502259 C0.550828313,28.5600904 1.02010542,32.1011295 2.86144578,35.7680723" transform="matrix(1 0 0 -1 59.199 38.761)"/>
    <path fill="#FFF" d="M0,2.86144578 C0,1.54661145 0.948569277,0.479292169 2.11746988,0.479292169 C3.2878012,0.479292169 4.23493976,1.54661145 4.23493976,2.86144578 C4.23493976,4.17771084 3.2878012,5.24503012 2.11746988,5.24503012 C0.948569277,5.24503012 0,4.17771084 0,2.86144578" transform="matrix(1 0 0 -1 87.48 69.583)"/>
    <path fill="#FFF" d="M0,2.86144578 C0,1.54661145 0.948569277,0.479292169 2.11746988,0.479292169 C3.2878012,0.479292169 4.23637048,1.54661145 4.23637048,2.86144578 C4.23637048,4.17771084 3.2878012,5.24503012 2.11746988,5.24503012 C0.948569277,5.24503012 0,4.17771084 0,2.86144578" transform="matrix(1 0 0 -1 52.922 69.583)"/>
  </g>
</svg>
