<?xml version="1.0" encoding="UTF-8" standalone="no"?>
<!-- Created with Inkscape (http://www.inkscape.org/) -->

<svg
   xmlns:dc="http://purl.org/dc/elements/1.1/"
   xmlns:cc="http://creativecommons.org/ns#"
   xmlns:rdf="http://www.w3.org/1999/02/22-rdf-syntax-ns#"
   xmlns:svg="http://www.w3.org/2000/svg"
   xmlns="http://www.w3.org/2000/svg"
   version="1.1"
   width="40.505356"
   height="61.493176"
   viewBox="6 -12 48.606427 99.618944"
   id="Layer_1"
   xml:space="preserve"><metadata
     id="metadata17"><rdf:RDF><cc:Work
         rdf:about=""><dc:format>image/svg+xml</dc:format><dc:type
           rdf:resource="http://purl.org/dc/dcmitype/StillImage" /><dc:title></dc:title></cc:Work></rdf:RDF></metadata><defs
     id="defs15" /><g
     transform="translate(-29.771763,-22.719056)"
     id="g3"><path
       d="M 92.68,19.083 C 91.168,16.5 89.522,13.946 87.742,11.434 87.36,10.895 86.936,10.659 86.243,10.732 c -0.694,0.074 -0.946,0.58 -1.083,1.17 -0.336,1.462 -0.672,2.924 -1.009,4.386 -18.239,-4.197 -37.304,-3.577 -55.299,1.86 -1.073,0.323 -1.828,1.621 -1.515,2.571 0.313,0.949 1.646,1.566 2.672,1.258 17.326,-5.234 35.683,-5.832 53.245,-1.791 -0.262,1.137 -0.523,2.274 -0.785,3.411 -0.136,0.592 -0.143,1.149 0.36,1.507 0.503,0.358 0.922,0.33 1.453,0.021 2.477,-1.437 5.062,-2.781 7.751,-4.021 0.787,-0.363 1.089,-1.263 0.647,-2.021 z"
       id="path5"
       style="fill:#000000" /><path
       d="m 81.003,67.365 c -0.846,-0.308 -1.872,-0.394 -2.51,-0.416 0.453,-1.611 0.317,-3.312 -0.397,-4.845 -0.79,-1.695 -2.192,-2.98 -3.949,-3.62 -1.51,-0.548 -3.185,-0.547 -4.645,-0.049 0.033,-0.953 -0.118,-1.884 -0.452,-2.742 -0.662,-1.696 -1.998,-2.984 -3.761,-3.625 -1.769,-0.643 -3.697,-0.504 -5.268,0.281 l 5.726,-17.673 c 1.462,-4.018 -0.265,-8.077 -4.016,-9.444 -0.792,-0.288 -1.602,-0.434 -2.407,-0.434 -2.97,0 -5.615,1.997 -6.75,5.117 L 42.266,60.239 c -0.914,0.137 -2.331,0.473 -4.299,1.278 -6.79,2.781 -12.541,13.389 -9.938,24.163 2.896,11.998 8.91,18.856 20.111,22.933 3.145,1.145 6.1,1.725 8.781,1.725 6.644,0 10.803,-3.411 14.493,-6.905 5.07,-4.8 13.282,-27.257 13.629,-28.212 1.093,-3.004 -0.794,-6.675 -4.04,-7.856 z m 1.222,6.83 c -2.298,6.312 -9.088,23.476 -12.873,27.059 -3.387,3.207 -6.886,6.084 -12.431,6.084 -2.331,0 -4.94,-0.52 -7.756,-1.544 C 38.89,102.055 33.61,96.023 30.944,84.977 29.39,78.543 31.796,67.288 39.103,64.294 39.895,63.97 40.57,63.737 41.132,63.57 l -3.367,9.907 c -0.267,0.784 0.153,1.637 0.938,1.903 0.785,0.266 1.637,-0.154 1.902,-0.938 L 55.403,30.909 c 0.873,-2.399 3.126,-3.652 5.302,-2.859 2.215,0.807 3.129,3.109 2.206,5.65 l -8.637,26.653 c -0.237,0.732 0.118,1.525 0.822,1.835 0.706,0.311 1.529,0.037 1.909,-0.633 l 2.252,-3.969 c 0.041,-0.073 0.076,-0.149 0.105,-0.228 0.758,-2.086 2.9,-3.2 4.899,-2.472 0.954,0.347 1.644,1.003 1.992,1.896 0.354,0.907 0.334,1.996 -0.055,3.066 l -1.023,2.812 c -10e-4,0.002 -0.002,0.004 -0.002,0.006 -0.283,0.779 0.118,1.64 0.896,1.923 0.779,0.283 1.639,-0.118 1.922,-0.897 0.573,-1.574 2.084,-2.633 3.76,-2.633 0.465,0 0.925,0.082 1.367,0.243 1.004,0.365 1.806,1.101 2.257,2.068 0.451,0.967 0.499,2.055 0.134,3.059 l -2.223,6.108 c -0.283,0.777 0.118,1.639 0.896,1.922 0.774,0.283 1.638,-0.117 1.922,-0.896 l 1.306,-3.586 c 0.173,-0.02 0.405,-0.035 0.698,-0.035 0.72,0 1.471,0.097 1.868,0.241 1.684,0.614 2.776,2.563 2.249,4.012 z"
       id="path7"
       style="fill:#000000" /></g></svg>