<?xml version="1.0" encoding="UTF-8" standalone="no"?>
<!-- Created with Inkscape (http://www.inkscape.org/) -->

<svg
   xmlns:dc="http://purl.org/dc/elements/1.1/"
   xmlns:cc="http://creativecommons.org/ns#"
   xmlns:rdf="http://www.w3.org/1999/02/22-rdf-syntax-ns#"
   xmlns:svg="http://www.w3.org/2000/svg"
   xmlns="http://www.w3.org/2000/svg"
   version="1.1"
   width="39.897408"
   height="61.48148"
   viewBox="5 -10 39.897408 82.999998"
   id="Layer_1"
   xml:space="preserve"><metadata
     id="metadata15"><rdf:RDF><cc:Work
         rdf:about=""><dc:format>image/svg+xml</dc:format><dc:type
           rdf:resource="http://purl.org/dc/dcmitype/StillImage" /><dc:title></dc:title></cc:Work></rdf:RDF></metadata><defs
     id="defs13" /><g
     transform="translate(-26.170547,-18.875)"
     id="g3"><path
       d="m 54.793,91.875 c -11.92,0 -19.917,-4.389 -26.742,-14.672 -6.131,-9.236 -4.354,-21.17 1.075,-26.105 1.568,-1.424 2.795,-2.226 3.603,-2.667 L 32.043,16.407 c 0,-4.308 3.011,-7.532 7.004,-7.532 3.993,0 7.004,3.225 7.004,7.5 l 0.663,18.555 c 1.214,-1.275 2.909,-2.055 4.812,-2.055 2.937,0 5.243,1.804 6.106,4.533 1.198,-0.959 2.718,-1.533 4.368,-1.533 3.684,0 6.713,2.86 6.98,6.478 1.078,-0.335 2.132,-0.478 2.545,-0.478 3.477,0 6.525,2.804 6.525,6 0,1.015 -0.036,24.926 -3.158,31.17 -3.245,6.492 -7.47,12.83 -20.099,12.83 z M 32.804,51.947 c -0.473,0.35 -1.029,0.797 -1.66,1.371 -5.843,5.311 -4.254,16.711 -0.593,22.227 6.283,9.469 13.307,13.33 24.242,13.33 10.941,0 14.36,-5.059 17.416,-11.172 2.33,-4.66 2.842,-23.111 2.842,-29.829 0,-1.514 -1.746,-3 -3.525,-3 -0.718,0 -1.916,0.392 -2.525,0.687 v 3.813 c 0,0.828 -0.672,1.5 -1.5,1.5 -0.828,0 -1.5,-0.672 -1.5,-1.5 v -6.5 c 0,-2.206 -1.794,-4 -4,-4 -2.206,0 -4,1.794 -4,4 0,0.828 -0.672,1.5 -1.5,1.5 -0.828,0 -1.5,-0.672 -1.5,-1.5 v -3 c 0,-1.927 -1.087,-4 -3.475,-4 -2.131,0 -3.737,1.72 -3.737,4 0,0.081 -0.007,0.162 -0.02,0.242 l -0.737,4.5 c -0.125,0.762 -0.819,1.298 -1.575,1.255 -0.77,-0.049 -1.377,-0.673 -1.404,-1.443 l -1,-28 c -10e-4,-2.703 -1.647,-4.554 -4.005,-4.554 -2.358,0 -4.004,1.851 -4.004,4.5 l 0.984,45.967 c 0.018,0.828 -0.64,1.514 -1.468,1.533 -0.833,0.008 -1.515,-0.641 -1.532,-1.469 L 32.804,51.947 z"
       id="path5"
       style="fill:#000000" /></g></svg>