<?xml version="1.0" encoding="UTF-8" standalone="no"?>
<!-- Created with Inkscape (http://www.inkscape.org/) -->

<svg
   xmlns:dc="http://purl.org/dc/elements/1.1/"
   xmlns:cc="http://creativecommons.org/ns#"
   xmlns:rdf="http://www.w3.org/1999/02/22-rdf-syntax-ns#"
   xmlns:svg="http://www.w3.org/2000/svg"
   xmlns="http://www.w3.org/2000/svg"
   version="1.1"
   width="126.13649"
   height="141.28587"
   id="svg11798">
  <defs
     id="defs11800">
    <clipPath
       id="clipPath3704">
      <path
         d="m 182.928,695.335 66.505,0 0,-41.51 -66.505,0 0,41.51 z"
         id="path3706" />
    </clipPath>
  </defs>
  <metadata
     id="metadata11803">
    <rdf:RDF>
      <cc:Work
         rdf:about="">
        <dc:format>image/svg+xml</dc:format>
        <dc:type
           rdf:resource="http://purl.org/dc/dcmitype/StillImage" />
        <dc:title></dc:title>
      </cc:Work>
    </rdf:RDF>
  </metadata>
  <g
     transform="translate(-311.93175,-461.71925)"
     id="layer1">
    <path
       d="m 368.80913,596.93775 -13.5775,0 0,-18.72125 13.5775,0 0,18.72125 z"
       id="path3688"
       style="fill:#d3c5c1;fill-opacity:1;fill-rule:nonzero;stroke:none" />
    <path
       d="m 394.77038,596.93775 -13.57875,0 0,-18.72125 13.57875,0 0,18.72125 z"
       id="path3690"
       style="fill:#f6e9e5;fill-opacity:1;fill-rule:nonzero;stroke:none" />
    <g
       transform="matrix(1.25,0,0,-1.25,361.87613,599.36387)"
       id="g3692">
      <path
         d="m 0,0 c 0.459,0 0.833,-0.373 0.833,-0.833 l 0,-2.08 8.736,0 c 0,5.222 -4.234,9.454 -9.454,9.454 -5.22,0 -9.454,-4.232 -9.454,-9.454 l 8.506,0 0,2.08 C -0.833,-0.373 -0.46,0 0,0"
         id="path3694"
         style="fill:#3c3c3b;fill-opacity:1;fill-rule:nonzero;stroke:none" />
    </g>
    <g
       transform="matrix(1.25,0,0,-1.25,387.83563,599.36387)"
       id="g3696">
      <path
         d="m 0,0 c 0.46,0 0.833,-0.373 0.833,-0.833 l 0,-2.08 8.736,0 c 0,5.222 -4.233,9.454 -9.454,9.454 -5.221,0 -9.454,-4.232 -9.454,-9.454 l 8.506,0 0,2.08 C -0.833,-0.373 -0.46,0 0,0"
         id="path3698"
         style="fill:#3c3c3b;fill-opacity:1;fill-rule:nonzero;stroke:none" />
    </g>
    <g
       transform="matrix(1.25,0,0,-1.25,104.77412,1384.0727)"
       id="g3700">
      <g
         id="g3702" />
      <g
         id="g3708">
        <g
           clip-path="url(#clipPath3704)"
           id="g3710"
           style="opacity:0.38999903">
          <g
             transform="translate(216.1812,653.8252)"
             id="g3712">
            <path
               d="M 0,0 C 15.74,0 29.013,7.981 33.251,18.909 29.013,33.523 15.74,41.51 0,41.51 -15.742,41.51 -29.015,33.523 -33.253,18.909 -29.015,7.981 -15.742,0 0,0"
               id="path3714"
               style="fill:#c6ccd6;fill-opacity:1;fill-rule:nonzero;stroke:none" />
          </g>
        </g>
      </g>
    </g>
    <g
       transform="matrix(1.25,0,0,-1.25,375.00063,566.79125)"
       id="g3716">
      <path
         d="M 0,0 C 15.74,0 29.013,7.981 33.251,18.909 29.013,33.523 15.74,41.51 0,41.51 -15.742,41.51 -29.015,33.523 -33.253,18.909 -29.015,7.981 -15.742,0 0,0"
         id="path3718"
         style="fill:#d3c5c1;fill-opacity:1;fill-rule:nonzero;stroke:none" />
    </g>
    <g
       transform="matrix(1.25,0,0,-1.25,333.43375,543.15475)"
       id="g3720">
      <path
         d="m 0,0 c -0.92,-3.171 -1.434,-6.641 -1.434,-10.423 0,-14.572 15.53,-26.382 34.687,-26.382 l 0,17.896 C 17.511,-18.909 4.239,-10.928 0,0"
         id="path3722"
         style="fill:#d3c5c1;fill-opacity:1;fill-rule:nonzero;stroke:none" />
    </g>
    <g
       transform="matrix(1.25,0,0,-1.25,396.67775,568.867)"
       id="g3724">
      <path
         d="m 0,0 c 0.707,3.136 4.594,3.897 5.875,6.642 1.271,2.735 8.803,6.048 11.408,2.609 0.015,0.299 0.061,0.592 0.061,0.895 0,3.783 -0.514,7.253 -1.434,10.424 C 11.671,9.642 -1.602,1.661 -17.342,1.661 l 0,-17.896 c 9.419,0 17.948,2.865 24.198,7.499 -1.781,0.29 -3.581,1.048 -5.151,2.648 0,0 -2.413,2.952 -1.705,6.088"
         id="path3726"
         style="fill:#f6e9e5;fill-opacity:1;fill-rule:nonzero;stroke:none" />
    </g>
    <g
       transform="matrix(1.25,0,0,-1.25,418.28125,557.30337)"
       id="g3728">
      <path
         d="m 0,0 c -2.604,3.439 -10.136,0.126 -11.408,-2.609 -1.281,-2.745 -5.168,-3.506 -5.875,-6.642 -0.707,-3.136 1.705,-6.088 1.705,-6.088 1.57,-1.599 3.37,-2.358 5.152,-2.648 C -4.227,-13.39 -0.311,-7.047 0,0"
         id="path3730"
         style="fill:#3c3c3b;fill-opacity:1;fill-rule:nonzero;stroke:none" />
    </g>
    <g
       transform="matrix(1.25,0,0,-1.25,351.88288,569.59037)"
       id="g3732">
      <path
         d="m 0,0 c 0,0 -2.243,2.392 -0.809,4.784 1.434,2.393 5.282,-0.832 5.282,-0.832 0,0 3.684,-2.402 4.68,-2.703 3.913,-1.19 3.329,-5.099 -1.351,-6.97 C 4.446,-7.063 0,0 0,0"
         id="path3734"
         style="fill:#3c3c3b;fill-opacity:1;fill-rule:nonzero;stroke:none" />
    </g>
    <g
       transform="matrix(1.25,0,0,-1.25,311.93175,468.35675)"
       id="g3736">
      <path
         d="m 0,0 c 0,0 3.079,-21.159 14.999,-21.159 l 15.918,0 C 30.917,-21.159 25.444,0 13.525,0 L 0,0 z"
         id="path3738"
         style="fill:#3c3c3b;fill-opacity:1;fill-rule:nonzero;stroke:none" />
    </g>
    <g
       transform="matrix(1.25,0,0,-1.25,318.77988,473.0425)"
       id="g3740">
      <path
         d="m 0,0 c 0,0 1.988,-13.661 9.682,-13.661 l 10.279,0 C 19.961,-13.661 16.426,0 8.731,0 L 0,0 z"
         id="path3742"
         style="fill:#d76c79;fill-opacity:1;fill-rule:nonzero;stroke:none" />
    </g>
    <g
       transform="matrix(1.25,0,0,-1.25,438.06824,468.35675)"
       id="g3744">
      <path
         d="m 0,0 c 0,0 -3.079,-21.159 -14.999,-21.159 l -15.922,0 c 0,0 5.476,21.159 17.395,21.159 L 0,0 z"
         id="path3746"
         style="fill:#3c3c3b;fill-opacity:1;fill-rule:nonzero;stroke:none" />
    </g>
    <g
       transform="matrix(1.25,0,0,-1.25,431.21951,473.0425)"
       id="g3748">
      <path
         d="m 0,0 c 0,0 -1.99,-13.661 -9.683,-13.661 l -10.278,0 c 0,0 3.534,13.661 11.229,13.661 L 0,0 z"
         id="path3750"
         style="fill:#d76c79;fill-opacity:1;fill-rule:nonzero;stroke:none" />
    </g>
    <g
       transform="matrix(1.25,0,0,-1.25,397.63613,470.07925)"
       id="g3752">
      <path
         d="m 0,0 c -1.119,-0.698 -12.856,-8.46 -12.326,-26.97 0.551,-19.327 25.108,-10.095 25.376,-9.995 0.134,-1.171 0.241,-2.376 0.281,-3.673 0.013,-0.458 0.041,-0.898 0.041,-1.378 0,-15.777 -13.259,-28.568 -31.669,-28.568 l 0,77.272 C -11.225,6.688 -4.813,4.071 0,0"
         id="path3754"
         style="fill:#f6e9e5;fill-opacity:1;fill-rule:nonzero;stroke:none" />
    </g>
    <g
       transform="matrix(1.25,0,0,-1.25,382.22838,503.79137)"
       id="g3756">
      <path
         d="m 0,0 c -0.53,18.51 11.207,26.272 12.326,26.97 4.563,-3.861 7.689,-9.026 8.535,-14.547 0.019,-0.134 0.056,-0.265 0.074,-0.4 0,0 1.171,-5.127 1.65,-7.708 0.992,-5.347 2.234,-9.424 2.791,-14.31 C 25.108,-10.096 0.551,-19.327 0,0"
         id="path3758"
         style="fill:#3c3c3b;fill-opacity:1;fill-rule:nonzero;stroke:none" />
    </g>
    <g
       transform="matrix(1.25,0,0,-1.25,352.13013,470.07925)"
       id="g3760">
      <path
         d="m 0,0 c 1.119,-0.698 12.856,-8.46 12.326,-26.97 -0.552,-19.327 -25.109,-10.095 -25.377,-9.994 -0.133,-1.172 -0.239,-2.377 -0.28,-3.674 -0.013,-0.458 -0.041,-0.898 -0.041,-1.378 0,-15.777 13.259,-28.568 31.668,-28.568 l 0,77.272 C 11.225,6.688 4.813,4.071 0,0"
         id="path3762"
         style="fill:#d3c5c1;fill-opacity:1;fill-rule:nonzero;stroke:none" />
    </g>
    <g
       transform="matrix(1.25,0,0,-1.25,367.53775,503.79137)"
       id="g3764">
      <path
         d="m 0,0 c 0.53,18.51 -11.208,26.272 -12.326,26.97 -4.563,-3.861 -7.689,-9.026 -8.535,-14.547 -0.02,-0.134 -0.056,-0.265 -0.074,-0.4 0,0 -1.171,-5.127 -1.65,-7.708 -0.993,-5.347 -2.235,-9.424 -2.792,-14.31 C -25.109,-10.096 -0.552,-19.327 0,0"
         id="path3766"
         style="fill:#3c3c3b;fill-opacity:1;fill-rule:nonzero;stroke:none" />
    </g>
    <g
       transform="matrix(1.25,0,0,-1.25,407.5915,539.38275)"
       id="g3768">
      <path
         d="m 0,0 c 0,-9.421 -11.673,-17.059 -26.073,-17.059 -14.402,0 -26.074,7.638 -26.074,17.059 0,9.422 11.672,17.059 26.074,17.059 C -11.673,17.059 0,9.422 0,0"
         id="path3770"
         style="fill:#f29e9f;fill-opacity:1;fill-rule:nonzero;stroke:none" />
    </g>
    <g
       transform="matrix(1.25,0,0,-1.25,360.23313,536.08812)"
       id="g3772">
      <path
         d="m 0,0 c 0,-2.069 -1.676,-3.745 -3.746,-3.745 -2.066,0 -3.743,1.676 -3.743,3.745 0,2.068 1.677,3.744 3.743,3.744 C -1.676,3.744 0,2.068 0,0"
         id="path3774"
         style="fill:#d76c79;fill-opacity:1;fill-rule:nonzero;stroke:none" />
    </g>
    <g
       transform="matrix(1.25,0,0,-1.25,399.23825,536.08812)"
       id="g3776">
      <path
         d="m 0,0 c 0,-2.069 -1.676,-3.745 -3.746,-3.745 -2.067,0 -3.743,1.676 -3.743,3.745 0,2.068 1.676,3.744 3.743,3.744 C -1.676,3.744 0,2.068 0,0"
         id="path3778"
         style="fill:#d76c79;fill-opacity:1;fill-rule:nonzero;stroke:none" />
    </g>
    <g
       transform="matrix(1.25,0,0,-1.25,402.48775,497.2545)"
       id="g3780">
      <path
         d="m 0,0 c 0,-3.268 -2.647,-5.917 -5.917,-5.917 -3.268,0 -5.916,2.649 -5.916,5.917 0,3.269 2.648,5.918 5.916,5.918 C -2.647,5.918 0,3.269 0,0"
         id="path3782"
         style="fill:#f5f0f2;fill-opacity:1;fill-rule:nonzero;stroke:none" />
    </g>
    <g
       transform="matrix(1.25,0,0,-1.25,400.2935,497.2545)"
       id="g3784">
      <path
         d="m 0,0 c 0,-2.297 -1.863,-4.16 -4.163,-4.16 -2.296,0 -4.159,1.863 -4.159,4.16 0,2.299 1.863,4.161 4.159,4.161 C -1.863,4.161 0,2.299 0,0"
         id="path3786"
         style="fill:#3c3c3b;fill-opacity:1;fill-rule:nonzero;stroke:none" />
    </g>
    <g
       transform="matrix(1.25,0,0,-1.25,364.60938,497.2545)"
       id="g3788">
      <path
         d="m 0,0 c 0,-3.268 -2.648,-5.917 -5.917,-5.917 -3.268,0 -5.916,2.649 -5.916,5.917 0,3.269 2.648,5.918 5.916,5.918 C -2.648,5.918 0,3.269 0,0"
         id="path3790"
         style="fill:#d3c5c1;fill-opacity:1;fill-rule:nonzero;stroke:none" />
    </g>
    <g
       transform="matrix(1.25,0,0,-1.25,362.41263,497.2545)"
       id="g3792">
      <path
         d="m 0,0 c 0,-2.297 -1.863,-4.16 -4.16,-4.16 -2.298,0 -4.16,1.863 -4.16,4.16 0,2.299 1.862,4.161 4.16,4.161 C -1.863,4.161 0,2.299 0,0"
         id="path3794"
         style="fill:#3c3c3b;fill-opacity:1;fill-rule:nonzero;stroke:none" />
    </g>
    <g
       transform="matrix(1.25,0,0,-1.25,361.06013,495.69388)"
       id="g3796">
      <path
         d="m 0,0 c 0,-0.842 -0.683,-1.527 -1.527,-1.527 -0.844,0 -1.527,0.685 -1.527,1.527 0,0.843 0.683,1.527 1.527,1.527 C -0.683,1.527 0,0.843 0,0"
         id="path3798"
         style="fill:#ffffff;fill-opacity:1;fill-rule:nonzero;stroke:none" />
    </g>
    <g
       transform="matrix(1.25,0,0,-1.25,398.58825,495.69388)"
       id="g3800">
      <path
         d="m 0,0 c 0,-0.842 -0.684,-1.527 -1.527,-1.527 -0.844,0 -1.527,0.685 -1.527,1.527 0,0.843 0.683,1.527 1.527,1.527 C -0.684,1.527 0,0.843 0,0"
         id="path3802"
         style="fill:#ffffff;fill-opacity:1;fill-rule:nonzero;stroke:none" />
    </g>
  </g>
</svg>
