<?xml version="1.0" encoding="UTF-8" standalone="no"?>
<!-- Created with Inkscape (http://www.inkscape.org/) -->

<svg
   xmlns:dc="http://purl.org/dc/elements/1.1/"
   xmlns:cc="http://creativecommons.org/ns#"
   xmlns:rdf="http://www.w3.org/1999/02/22-rdf-syntax-ns#"
   xmlns:svg="http://www.w3.org/2000/svg"
   xmlns="http://www.w3.org/2000/svg"
   version="1.1"
   width="127.47617"
   height="131.85252"
   id="svg12655">
  <defs
     id="defs12657">
    <clipPath
       id="clipPath3820">
      <path
         d="m 314.403,492.314 48.625,0 0,-30.353 -48.625,0 0,30.353 z"
         id="path3822" />
    </clipPath>
  </defs>
  <metadata
     id="metadata12660">
    <rdf:RDF>
      <cc:Work
         rdf:about="">
        <dc:format>image/svg+xml</dc:format>
        <dc:type
           rdf:resource="http://purl.org/dc/dcmitype/StillImage" />
        <dc:title></dc:title>
      </cc:Work>
    </rdf:RDF>
  </metadata>
  <g
     transform="translate(-311.26191,-466.43592)"
     id="layer1">
    <path
       d="m 370.92622,592.63956 -17.2825,0 0,-18.71625 17.2825,0 0,18.71625 z"
       id="path3804"
       style="fill:#8e6451;fill-opacity:1;fill-rule:nonzero;stroke:none" />
    <path
       d="m 396.43497,592.63956 -17.28625,0 0,-18.71625 17.28625,0 0,18.71625 z"
       id="path3806"
       style="fill:#b68472;fill-opacity:1;fill-rule:nonzero;stroke:none" />
    <g
       transform="matrix(1.25,0,0,-1.25,362.28273,586.10344)"
       id="g3808">
      <path
         d="m 0,0 c -5.381,0 -9.742,-4.365 -9.742,-9.748 l 19.491,0 C 9.749,-4.365 5.384,0 0,0"
         id="path3810"
         style="fill:#8e6451;fill-opacity:1;fill-rule:nonzero;stroke:none" />
    </g>
    <g
       transform="matrix(1.25,0,0,-1.25,387.79535,586.10344)"
       id="g3812">
      <path
         d="m 0,0 c -5.383,0 -9.748,-4.365 -9.748,-9.748 l 19.492,0 C 9.744,-4.365 5.379,0 0,0"
         id="path3814"
         style="fill:#b68472;fill-opacity:1;fill-rule:nonzero;stroke:none" />
    </g>
    <g
       transform="matrix(1.25,0,0,-1.25,-48.281278,1148.5071)"
       id="g3816">
      <g
         id="g3818" />
      <g
         id="g3824">
        <g
           clip-path="url(#clipPath3820)"
           id="g3826"
           style="opacity:0.38999903">
          <g
             transform="translate(338.7163,461.9614)"
             id="g3828">
            <path
               d="M 0,0 C 11.507,0 21.212,5.835 24.312,13.827 21.212,24.51 11.507,30.353 0,30.353 -11.509,30.353 -21.214,24.51 -24.313,13.827 -21.214,5.835 -11.509,0 0,0"
               id="path3830"
               style="fill:#c6ccd6;fill-opacity:1;fill-rule:nonzero;stroke:none" />
          </g>
        </g>
      </g>
    </g>
    <g
       transform="matrix(1.25,0,0,-1.25,375.1141,571.05531)"
       id="g3832">
      <path
         d="M 0,0 C 11.507,0 21.212,5.835 24.312,13.827 21.212,24.51 11.507,30.353 0,30.353 -11.509,30.353 -21.214,24.51 -24.313,13.827 -21.214,5.835 -11.509,0 0,0"
         id="path3834"
         style="fill:#8e6451;fill-opacity:1;fill-rule:nonzero;stroke:none" />
    </g>
    <g
       transform="matrix(1.25,0,0,-1.25,344.72285,553.77194)"
       id="g3836">
      <path
         d="m 0,0 c -0.672,-2.318 -1.049,-4.856 -1.049,-7.623 0,-10.652 11.355,-19.289 25.362,-19.289 l 0,13.085 C 12.804,-13.827 3.099,-7.991 0,0"
         id="path3838"
         style="fill:#8e6451;fill-opacity:1;fill-rule:nonzero;stroke:none" />
    </g>
    <g
       transform="matrix(1.25,0,0,-1.25,405.43023,553.77194)"
       id="g3840">
      <path
         d="m 0,0 c 0.675,-2.318 1.05,-4.856 1.05,-7.623 0,-10.652 -11.355,-19.289 -25.363,-19.289 l 0,13.085 C -12.803,-13.827 -3.101,-7.991 0,0"
         id="path3842"
         style="fill:#b68472;fill-opacity:1;fill-rule:nonzero;stroke:none" />
    </g>
    <g
       transform="matrix(1.25,0,0,-1.25,349.51785,484.08693)"
       id="g3844">
      <path
         d="M 0,0 C -1.103,1.164 -2.573,2.479 -3.825,3.193 L -4.239,3.425 C -4.31,3.136 -4.478,2.562 -4.604,1.891 -4.824,0.495 -4.802,-0.941 -4.767,-2.906 -4.725,-4.848 -4.7,-7.215 -4.888,-9.64 c -0.179,-2.431 -0.55,-4.904 -1.062,-7.289 -1.032,-4.786 -2.568,-9.258 -4.28,-13.523 l -0.102,-0.254 c -2.161,-5.388 -8.282,-8.005 -13.67,-5.844 -5.39,2.161 -8.006,8.282 -5.844,13.672 0.367,0.916 0.883,1.79 1.456,2.537 2.301,2.961 4.378,5.965 6.023,9.01 0.825,1.528 1.534,3.057 2.144,4.684 0.618,1.632 1.108,3.378 1.67,5.538 0.557,2.131 1.291,4.8 2.541,7.279 0.609,1.258 1.321,2.575 2.456,3.97 0.572,0.692 1.265,1.409 2.16,2.075 0.89,0.658 1.997,1.264 3.244,1.593 1.24,0.342 2.542,0.386 3.661,0.217 1.129,-0.165 2.079,-0.51 2.895,-0.897 C 0.02,12.337 1.145,11.39 2.12,10.452 3.084,9.507 3.881,8.544 4.604,7.565 5.337,6.562 5.934,5.646 6.602,4.482 7.702,2.57 7.043,0.129 5.132,-0.971 3.499,-1.91 1.48,-1.567 0.241,-0.256 L 0,0 z"
         id="path3846"
         style="fill:#723e2b;fill-opacity:1;fill-rule:nonzero;stroke:none" />
    </g>
    <g
       transform="matrix(1.25,0,0,-1.25,400.4816,484.08693)"
       id="g3848">
      <path
         d="M 0,0 C 1.103,1.164 2.574,2.479 3.826,3.193 L 4.24,3.425 C 4.31,3.136 4.479,2.562 4.604,1.891 4.826,0.495 4.803,-0.941 4.767,-2.906 4.725,-4.848 4.701,-7.215 4.888,-9.64 c 0.18,-2.431 0.55,-4.904 1.063,-7.289 1.031,-4.786 2.568,-9.258 4.279,-13.523 l 0.103,-0.254 c 2.16,-5.388 8.281,-8.005 13.669,-5.844 5.39,2.161 8.006,8.282 5.845,13.672 -0.368,0.916 -0.883,1.79 -1.456,2.537 -2.301,2.961 -4.378,5.965 -6.024,9.01 -0.824,1.528 -1.534,3.057 -2.144,4.684 -0.616,1.632 -1.108,3.378 -1.67,5.538 -0.557,2.131 -1.29,4.8 -2.541,7.279 -0.608,1.258 -1.32,2.575 -2.456,3.97 -0.571,0.692 -1.264,1.409 -2.159,2.075 -0.89,0.658 -1.998,1.264 -3.245,1.593 C 6.914,14.15 5.611,14.194 4.491,14.025 3.362,13.86 2.413,13.515 1.597,13.128 -0.019,12.337 -1.143,11.39 -2.118,10.452 -3.083,9.507 -3.881,8.544 -4.603,7.565 -5.337,6.562 -5.934,5.646 -6.602,4.482 -7.701,2.57 -7.043,0.129 -5.132,-0.971 -3.498,-1.91 -1.479,-1.567 -0.24,-0.256 L 0,0 z"
         id="path3850"
         style="fill:#723e2b;fill-opacity:1;fill-rule:nonzero;stroke:none" />
    </g>
    <g
       transform="matrix(1.25,0,0,-1.25,409.8236,506.59669)"
       id="g3852">
      <path
         d="m 0,0 c -0.467,2.509 -1.607,7.497 -1.607,7.497 -2.158,11.87 -12.61,21.043 -26.167,21.043 l 0,-75.16 c 17.903,0 30.802,12.44 30.802,27.787 C 3.028,-11.557 1.279,-6.892 0,0"
         id="path3854"
         style="fill:#b68472;fill-opacity:1;fill-rule:nonzero;stroke:none" />
    </g>
    <g
       transform="matrix(1.25,0,0,-1.25,340.40773,506.59669)"
       id="g3856">
      <path
         d="M 0,0 C 0.465,2.509 1.603,7.497 1.603,7.497 3.761,19.367 14.215,28.54 27.776,28.54 l 0,-75.16 c -17.906,0 -30.803,12.44 -30.803,27.787 0,7.276 1.748,11.941 3.027,18.833"
         id="path3858"
         style="fill:#8e6451;fill-opacity:1;fill-rule:nonzero;stroke:none" />
    </g>
    <path
       d="m 375.50747,560.08706 -1.3875,0 0,-8.00125 1.3875,0 0,8.00125 z"
       id="path3860"
       style="fill:#3c1312;fill-opacity:1;fill-rule:nonzero;stroke:none" />
    <g
       transform="matrix(1.25,0,0,-1.25,395.42723,538.25931)"
       id="g3862">
      <path
         d="m 0,0 c 0,-6.109 -7.271,-11.061 -16.239,-11.061 -8.973,0 -16.245,4.952 -16.245,11.061 0,6.109 7.272,11.062 16.245,11.062 C -7.271,11.062 0,6.109 0,0"
         id="path3864"
         style="fill:#723e2b;fill-opacity:1;fill-rule:nonzero;stroke:none" />
    </g>
    <g
       transform="matrix(1.25,0,0,-1.25,390.89473,539.64719)"
       id="g3866">
      <path
         d="m 0,0 c -0.387,0 -0.764,0.203 -0.968,0.564 -2.135,3.776 -7.43,5.121 -7.484,5.134 -0.595,0.146 -0.959,0.748 -0.812,1.344 0.146,0.595 0.75,0.961 1.344,0.811 C -7.665,7.791 -1.636,6.258 0.965,1.657 1.268,1.123 1.079,0.446 0.545,0.145 0.373,0.047 0.185,0 0,0"
         id="path3868"
         style="fill:#faedeb;fill-opacity:1;fill-rule:nonzero;stroke:none" />
    </g>
    <g
       transform="matrix(1.25,0,0,-1.25,374.6746,531.55519)"
       id="g3870">
      <path
         d="m 0,0 -0.875,0 c -0.614,0 -1.11,0.498 -1.11,1.11 0,0.615 0.496,1.112 1.11,1.112 L 0,2.222 C 0.614,2.222 1.111,1.725 1.111,1.11 1.111,0.498 0.614,0 0,0"
         id="path3872"
         style="fill:#faedeb;fill-opacity:1;fill-rule:nonzero;stroke:none" />
    </g>
    <g
       transform="matrix(1.25,0,0,-1.25,374.46898,561.47456)"
       id="g3874">
      <path
         d="m 0,0 c -6.024,0 -8.448,2.28 -8.548,2.377 -0.22,0.213 -0.225,0.565 -0.013,0.785 0.213,0.219 0.562,0.227 0.783,0.015 C -7.756,3.156 -5.528,1.11 0,1.11 5.078,1.11 7.792,3.192 7.818,3.213 8.061,3.399 8.409,3.36 8.598,3.119 8.787,2.877 8.745,2.529 8.504,2.339 8.382,2.243 5.458,0 0,0"
         id="path3876"
         style="fill:#411611;fill-opacity:1;fill-rule:nonzero;stroke:none" />
    </g>
    <g
       transform="matrix(1.25,0,0,-1.25,398.51923,508.25869)"
       id="g3878">
      <path
         d="m 0,0 c 0,-2.817 -1.809,-5.099 -4.046,-5.099 -2.235,0 -4.047,2.282 -4.047,5.099 0,2.815 1.812,5.098 4.047,5.098 C -1.809,5.098 0,2.815 0,0"
         id="path3880"
         style="fill:#411611;fill-opacity:1;fill-rule:nonzero;stroke:none" />
    </g>
    <g
       transform="matrix(1.25,0,0,-1.25,361.6766,508.25869)"
       id="g3882">
      <path
         d="m 0,0 c 0,-2.817 -1.813,-5.099 -4.047,-5.099 -2.238,0 -4.045,2.282 -4.045,5.099 0,2.815 1.807,5.098 4.045,5.098 C -1.813,5.098 0,2.815 0,0"
         id="path3884"
         style="fill:#411611;fill-opacity:1;fill-rule:nonzero;stroke:none" />
    </g>
    <g
       transform="matrix(1.25,0,0,-1.25,356.6186,505.37844)"
       id="g3886">
      <path
         d="m 0,0 c 0,-0.855 0.65,-1.548 1.454,-1.548 0.804,0 1.455,0.693 1.455,1.548 0,0.854 -0.651,1.548 -1.455,1.548 C 0.65,1.548 0,0.854 0,0"
         id="path3888"
         style="fill:#ffffff;fill-opacity:1;fill-rule:nonzero;stroke:none" />
    </g>
    <g
       transform="matrix(1.25,0,0,-1.25,393.6096,505.37844)"
       id="g3890">
      <path
         d="m 0,0 c 0,-0.855 0.65,-1.548 1.454,-1.548 0.803,0 1.454,0.693 1.454,1.548 0,0.854 -0.651,1.548 -1.454,1.548 C 0.65,1.548 0,0.854 0,0"
         id="path3892"
         style="fill:#ffffff;fill-opacity:1;fill-rule:nonzero;stroke:none" />
    </g>
  </g>
</svg>
