<?xml version="1.0" encoding="UTF-8" standalone="no"?>
<!-- Created with Inkscape (http://www.inkscape.org/) -->

<svg
   xmlns:dc="http://purl.org/dc/elements/1.1/"
   xmlns:cc="http://creativecommons.org/ns#"
   xmlns:rdf="http://www.w3.org/1999/02/22-rdf-syntax-ns#"
   xmlns:svg="http://www.w3.org/2000/svg"
   xmlns="http://www.w3.org/2000/svg"
   version="1.1"
   width="110.56853"
   height="132.0975"
   id="svg13553">
  <defs
     id="defs13555" />
  <metadata
     id="metadata13558">
    <rdf:RDF>
      <cc:Work
         rdf:about="">
        <dc:format>image/svg+xml</dc:format>
        <dc:type
           rdf:resource="http://purl.org/dc/dcmitype/StillImage" />
        <dc:title></dc:title>
      </cc:Work>
    </rdf:RDF>
  </metadata>
  <g
     transform="translate(-319.71574,-466.31343)"
     id="layer1">
    <g
       transform="matrix(1.25,0,0,-1.25,412.63874,522.30718)"
       id="g3044">
      <path
         d="m 0,0 c -4.043,6.771 -4.967,15.355 -5.175,19.529 0.002,0.101 0.013,0.201 0.013,0.303 0,0.456 -0.043,0.9 -0.067,1.349 -0.009,0.537 -0.003,0.864 -0.003,0.864 l -0.039,-0.058 c -1.095,12.777 -11.793,22.808 -24.853,22.808 -13.046,0 -23.739,-10.009 -24.854,-22.767 l -0.01,0.017 c 0,0 10e-4,-0.073 10e-4,-0.189 -0.054,-0.668 -0.101,-1.341 -0.101,-2.024 0,-0.21 0.019,-0.414 0.025,-0.621 C -55.3,14.931 -56.279,6.603 -60.22,0 c -5.546,-9.291 -15.256,-24.824 -14.009,-36.058 0,0 1.664,-0.693 5.272,5.687 0.851,1.504 1.815,3.1 2.796,4.661 0.473,-19.504 16.419,-35.173 36.037,-35.173 19.633,0 35.588,15.693 36.037,35.22 0.988,-1.577 1.964,-3.19 2.823,-4.708 3.608,-6.38 5.271,-5.687 5.271,-5.687 C 15.254,-24.824 5.546,-9.291 0,0"
         id="path3046"
         style="fill:#2d466a;fill-opacity:1;fill-rule:nonzero;stroke:none" />
    </g>
    <g
       transform="matrix(1.25,0,0,-1.25,349.64986,497.34255)"
       id="g3048">
      <path
         d="m 0,0 -1.062,0 c 0,0 -0.584,-11.232 -2.527,-17.059 -1.942,-5.824 -6.916,-19.244 -7.153,-23.585 l 0.033,0 c -0.291,-1.669 -0.476,-3.375 -0.476,-5.123 0,-16.919 14.087,-30.633 31.465,-30.633 L 20.28,0 0,0 z"
         id="path3050"
         style="fill:#d3c5c1;fill-opacity:1;fill-rule:nonzero;stroke:none" />
    </g>
    <g
       transform="matrix(1.25,0,0,-1.25,414.33249,554.5508)"
       id="g3052">
      <path
         d="m 0,0 c 0,1.748 -0.184,3.453 -0.474,5.123 l 0.032,0 c -0.336,4.289 -5.214,17.761 -7.155,23.585 -1.942,5.826 -2.524,17.059 -2.524,17.059 l -1.066,0 -20.279,0 0,-76.401 C -14.087,-30.634 0,-16.919 0,0"
         id="path3054"
         style="fill:#f6e9e5;fill-opacity:1;fill-rule:nonzero;stroke:none" />
    </g>
    <g
       transform="matrix(1.25,0,0,-1.25,387.79386,484.14918)"
       id="g3056">
      <path
         d="M 0,0 C -4.6,0 -8.545,-2.655 -10.235,-6.441 -11.923,-2.655 -15.87,0 -20.468,0 c -6.136,0 -11.109,-4.726 -11.109,-10.555 0,-5.831 4.973,-10.555 11.109,-10.555 4.598,0 8.545,-0.671 10.233,3.113 1.69,-3.784 5.635,-3.113 10.235,-3.113 6.134,0 11.11,4.724 11.11,10.555 C 11.11,-4.726 6.134,0 0,0"
         id="path3058"
         style="fill:#f6e9e5;fill-opacity:1;fill-rule:nonzero;stroke:none" />
    </g>
    <g
       transform="matrix(1.25,0,0,-1.25,372.54111,507.32793)"
       id="g3060">
      <path
         d="M 0,0 -2.689,-1.776 C -3.772,-2.49 -4.114,-3.987 -3.451,-5.102 l 4.212,-7.073 c 0.332,-0.556 0.77,-0.836 1.206,-0.836 l 0,13.547 C 1.253,0.536 0.54,0.357 0,0"
         id="path3062"
         style="fill:#f39e2b;fill-opacity:1;fill-rule:nonzero;stroke:none" />
    </g>
    <g
       transform="matrix(1.25,0,0,-1.25,376.50961,522.54643)"
       id="g3064">
      <path
         d="m 0,0 4.213,7.073 c 0.663,1.115 0.32,2.612 -0.762,3.325 l -2.689,1.777 c -0.543,0.357 -1.256,0.536 -1.97,0.536 l 0,-13.547 c 0.439,0 0.876,0.279 1.208,0.836"
         id="path3066"
         style="fill:#fbdd58;fill-opacity:1;fill-rule:nonzero;stroke:none" />
    </g>
    <g
       transform="matrix(1.25,0,0,-1.25,397.57536,497.25705)"
       id="g3068">
      <path
         d="m 0,0 c 0,-4.152 -3.366,-7.521 -7.519,-7.521 -4.154,0 -7.52,3.369 -7.52,7.521 0,4.153 3.366,7.521 7.52,7.521 C -3.366,7.521 0,4.153 0,0"
         id="path3070"
         style="fill:#fbdd58;fill-opacity:1;fill-rule:nonzero;stroke:none" />
    </g>
    <g
       transform="matrix(1.25,0,0,-1.25,371.22636,497.25705)"
       id="g3072">
      <path
         d="m 0,0 c 0,-4.152 -3.369,-7.521 -7.52,-7.521 -4.154,0 -7.522,3.369 -7.522,7.521 0,4.153 3.368,7.521 7.522,7.521 C -3.369,7.521 0,4.153 0,0"
         id="path3074"
         style="fill:#fbdd58;fill-opacity:1;fill-rule:nonzero;stroke:none" />
    </g>
    <g
       transform="matrix(1.25,0,0,-1.25,367.54724,497.25705)"
       id="g3076">
      <path
         d="m 0,0 c 0,-2.528 -2.049,-4.578 -4.577,-4.578 -2.528,0 -4.579,2.05 -4.579,4.578 0,2.527 2.051,4.576 4.579,4.576 C -2.049,4.576 0,2.527 0,0"
         id="path3078"
         style="fill:#3c3c3b;fill-opacity:1;fill-rule:nonzero;stroke:none" />
    </g>
    <g
       transform="matrix(1.25,0,0,-1.25,393.89736,497.25705)"
       id="g3080">
      <path
         d="m 0,0 c 0,-2.528 -2.051,-4.578 -4.577,-4.578 -2.529,0 -4.578,2.05 -4.578,4.578 0,2.527 2.049,4.576 4.578,4.576 C -2.051,4.576 0,2.527 0,0"
         id="path3082"
         style="fill:#3c3c3b;fill-opacity:1;fill-rule:nonzero;stroke:none" />
    </g>
    <g
       transform="matrix(1.25,0,0,-1.25,365.48174,494.91455)"
       id="g3084">
      <path
         d="m 0,0 c 0,-1.034 -0.84,-1.872 -1.875,-1.872 -1.034,0 -1.872,0.838 -1.872,1.872 0,1.033 0.838,1.872 1.872,1.872 C -0.84,1.872 0,1.033 0,0"
         id="path3086"
         style="fill:#ffffff;fill-opacity:1;fill-rule:nonzero;stroke:none" />
    </g>
    <g
       transform="matrix(1.25,0,0,-1.25,391.85511,494.91455)"
       id="g3088">
      <path
         d="m 0,0 c 0,-1.034 -0.84,-1.872 -1.874,-1.872 -1.035,0 -1.873,0.838 -1.873,1.872 0,1.033 0.838,1.872 1.873,1.872 C -0.84,1.872 0,1.033 0,0"
         id="path3090"
         style="fill:#ffffff;fill-opacity:1;fill-rule:nonzero;stroke:none" />
    </g>
    <g
       transform="matrix(1.25,0,0,-1.25,368.48161,598.41068)"
       id="g3092">
      <path
         d="M 0,0 C 0,5.669 -4.595,10.264 -10.263,10.264 -15.93,10.264 -20.526,5.669 -20.526,0 L 0,0 z"
         id="path3094"
         style="fill:#cb8128;fill-opacity:1;fill-rule:nonzero;stroke:none" />
    </g>
    <g
       transform="matrix(1.25,0,0,-1.25,407.17549,598.41068)"
       id="g3096">
      <path
         d="M 0,0 C 0,5.669 -4.594,10.264 -10.263,10.264 -15.931,10.264 -20.526,5.669 -20.526,0 L 0,0 z"
         id="path3098"
         style="fill:#f39e2b;fill-opacity:1;fill-rule:nonzero;stroke:none" />
    </g>
  </g>
</svg>
