<?xml version="1.0" encoding="UTF-8" standalone="no"?>
<!-- Created with Inkscape (http://www.inkscape.org/) -->

<svg
   xmlns:dc="http://purl.org/dc/elements/1.1/"
   xmlns:cc="http://creativecommons.org/ns#"
   xmlns:rdf="http://www.w3.org/1999/02/22-rdf-syntax-ns#"
   xmlns:svg="http://www.w3.org/2000/svg"
   xmlns="http://www.w3.org/2000/svg"
   version="1.1"
   width="114.3465"
   height="180.79816"
   id="svg11364">
  <defs
     id="defs11366" />
  <metadata
     id="metadata11369">
    <rdf:RDF>
      <cc:Work
         rdf:about="">
        <dc:format>image/svg+xml</dc:format>
        <dc:type
           rdf:resource="http://purl.org/dc/dcmitype/StillImage" />
        <dc:title></dc:title>
      </cc:Work>
    </rdf:RDF>
  </metadata>
  <g
     transform="translate(-317.82675,-441.96311)"
     id="layer1">
    <g
       transform="matrix(1.25,0,0,-1.25,348.2605,515.87064)"
       id="g4210">
      <path
         d="m 0,0 c 0,0 -11.502,-5.786 -24.347,8.953 1.288,1.337 13.008,11.885 30.507,3.458 L 0,0 z"
         id="path4212"
         style="fill:#b68472;fill-opacity:1;fill-rule:nonzero;stroke:none" />
    </g>
    <g
       transform="matrix(1.25,0,0,-1.25,347.21925,511.79826)"
       id="g4214">
      <path
         d="m 0,0 c 0,0 -9.103,-2.009 -16.103,5.006 0,0 6.66,6.282 19.778,1.08 L 0,0 z"
         id="path4216"
         style="fill:#d76c79;fill-opacity:1;fill-rule:nonzero;stroke:none" />
    </g>
    <g
       transform="matrix(1.25,0,0,-1.25,401.7395,515.87064)"
       id="g4218">
      <path
         d="M 0,0 C 0,0 11.502,-5.786 24.347,8.953 23.058,10.29 11.338,20.838 -6.161,12.411 L 0,0 z"
         id="path4220"
         style="fill:#b68472;fill-opacity:1;fill-rule:nonzero;stroke:none" />
    </g>
    <g
       transform="matrix(1.25,0,0,-1.25,402.78075,511.79826)"
       id="g4222">
      <path
         d="m 0,0 c 0,0 9.102,-2.009 16.101,5.006 0,0 -6.66,6.282 -19.776,1.08 L 0,0 z"
         id="path4224"
         style="fill:#d76c79;fill-opacity:1;fill-rule:nonzero;stroke:none" />
    </g>
    <g
       transform="matrix(1.25,0,0,-1.25,373.52662,595.50926)"
       id="g4226">
      <path
         d="M 0,0 C 0.808,0 1.588,0.026 2.357,0.065 1.58,0.022 0.796,0 0,0"
         id="path4228"
         style="fill:#b68472;fill-opacity:1;fill-rule:nonzero;stroke:none" />
    </g>
    <g
       transform="matrix(1.25,0,0,-1.25,358.617,595.42014)"
       id="g4230">
      <path
         d="M 0,0 C 19.471,1.038 26.213,14.27 26.213,14.27 21.213,6.268 11.762,0.682 0,0"
         id="path4232"
         style="fill:#b68472;fill-opacity:1;fill-rule:nonzero;stroke:none" />
    </g>
    <g
       transform="matrix(1.25,0,0,-1.25,375.12937,595.42801)"
       id="g4234">
      <path
         d="M 0,0 C -0.068,0.003 -0.138,0.009 -0.209,0.014 -0.139,0.009 -0.068,0.003 0,0"
         id="path4236"
         style="fill:#f39e2b;fill-opacity:1;fill-rule:nonzero;stroke:none" />
    </g>
    <g
       transform="matrix(1.25,0,0,-1.25,378.05175,595.42014)"
       id="g4238">
      <path
         d="M 0,0 C -0.03,-0.001 -0.058,-0.004 -0.087,-0.006 -0.854,-0.045 -1.635,-0.071 -2.44,-0.071 l 0,-10.419 c 1.713,0 3.385,0.16 5.018,0.42 l 0,-7.013 11.008,0 0,10.999 C 20.916,-1.63 25.822,5.795 26.211,14.27 26.211,14.27 19.469,1.038 0,0"
         id="path4240"
         style="fill:#b68472;fill-opacity:1;fill-rule:nonzero;stroke:none" />
    </g>
    <g
       transform="matrix(1.25,0,0,-1.25,414.19062,562.50514)"
       id="g4242">
      <path
         d="M 0,0 C 0,16.39 -14.037,29.677 -31.352,29.677 -48.669,29.677 -62.704,16.39 -62.704,0 c 0,-16.391 14.035,-29.678 31.352,-29.678 C -14.037,-29.678 0,-16.391 0,0"
         id="path4244"
         style="fill:#8e6451;fill-opacity:1;fill-rule:nonzero;stroke:none" />
    </g>
    <g
       transform="matrix(1.25,0,0,-1.25,372.10937,595.42801)"
       id="g4246">
      <path
         d="m 0,0 c -0.069,0.003 -0.139,0.009 -0.207,0.014 -19.195,1.08 -26.134,14.262 -26.134,14.262 0.387,-8.475 5.295,-15.9 12.626,-20.354 l 0,-10.999 11.008,0 0,7.013 c 1.633,-0.26 3.303,-0.42 5.02,-0.42 l 0,10.419 C 1.521,-0.065 0.754,-0.039 0,0"
         id="path4248"
         style="fill:#8e6451;fill-opacity:1;fill-rule:nonzero;stroke:none" />
    </g>
    <g
       transform="matrix(1.25,0,0,-1.25,361.70162,619.07251)"
       id="g4250">
      <path
         d="m 0,0 c 0.465,0 0.844,-0.378 0.844,-0.842 l 0,-2.109 8.854,0 c 0,5.291 -4.293,9.582 -9.583,9.582 -5.291,0 -9.583,-4.291 -9.583,-9.582 l 8.622,0 0,2.109 C -0.846,-0.378 -0.469,0 0,0"
         id="path4252"
         style="fill:#49170c;fill-opacity:1;fill-rule:nonzero;stroke:none" />
    </g>
    <g
       transform="matrix(1.25,0,0,-1.25,388.009,619.07251)"
       id="g4254">
      <path
         d="m 0,0 c 0.467,0 0.845,-0.378 0.845,-0.842 l 0,-2.109 8.854,0 c 0,5.291 -4.288,9.582 -9.582,9.582 -5.292,0 -9.581,-4.291 -9.581,-9.582 l 8.62,0 0,2.109 C -0.844,-0.378 -0.468,0 0,0"
         id="path4256"
         style="fill:#49170c;fill-opacity:1;fill-rule:nonzero;stroke:none" />
    </g>
    <g
       transform="matrix(1.25,0,0,-1.25,375.00125,494.56439)"
       id="g4258">
      <path
         d="m 0,0 0,-65.304 0,-14.342 c 0.794,0 1.579,0.022 2.354,0.066 0.029,0.002 0.056,0.005 0.086,0.006 11.886,0.451 21.275,6.143 26.211,14.27 2.448,4.028 3.891,8.594 3.891,13.492 C 32.542,-36.44 30.401,0 0,0"
         id="path4260"
         style="fill:#b68472;fill-opacity:1;fill-rule:nonzero;stroke:none" />
    </g>
    <g
       transform="matrix(1.25,0,0,-1.25,358.4875,498.11851)"
       id="g4262">
      <path
         d="m 0,0 c -6.257,-3.377 -10.57,-9.404 -10.57,-9.404 -8.089,-12.031 -8.764,-29.932 -8.764,-39.565 0,-4.898 1.506,-9.427 3.891,-13.491 4.687,-7.989 13.675,-13.715 26.133,-14.264 0.07,-0.003 0.138,-0.009 0.207,-0.013 0.763,-0.042 1.534,-0.065 2.314,-0.065 l 0,14.342 0,65.303 C 8.02,2.843 3.595,1.94 0,0"
         id="path4264"
         style="fill:#8e6451;fill-opacity:1;fill-rule:nonzero;stroke:none" />
    </g>
    <g
       transform="matrix(1.25,0,0,-1.25,351.72363,532.92501)"
       id="g4266">
      <path
         d="m 0,0 c 0,-5.045 2.938,-9.134 6.56,-9.134 3.623,0 6.56,4.089 6.56,9.134 0,5.044 -2.937,9.135 -6.56,9.135 C 2.938,9.135 0,5.044 0,0"
         id="path4268"
         style="fill:#f5c799;fill-opacity:1;fill-rule:nonzero;stroke:none" />
    </g>
    <g
       transform="matrix(1.25,0,0,-1.25,381.87625,532.92501)"
       id="g4270">
      <path
         d="m 0,0 c 0,-5.045 2.937,-9.134 6.561,-9.134 3.622,0 6.559,4.089 6.559,9.134 0,5.044 -2.937,9.135 -6.559,9.135 C 2.937,9.135 0,5.044 0,0"
         id="path4272"
         style="fill:#f5c799;fill-opacity:1;fill-rule:nonzero;stroke:none" />
    </g>
    <g
       transform="matrix(1.25,0,0,-1.25,356.355,535.60014)"
       id="g4274">
      <path
         d="m 0,0 c 0,-1.577 1.276,-2.856 2.854,-2.856 1.578,0 2.856,1.279 2.856,2.856 l 0,4.282 C 5.71,5.859 4.432,7.136 2.854,7.136 1.276,7.136 0,5.859 0,4.282 L 0,0 z"
         id="path4276"
         style="fill:#49170c;fill-opacity:1;fill-rule:nonzero;stroke:none" />
    </g>
    <g
       transform="matrix(1.25,0,0,-1.25,386.50763,535.60014)"
       id="g4278">
      <path
         d="m 0,0 c 0,-1.577 1.277,-2.856 2.854,-2.856 1.579,0 2.856,1.279 2.856,2.856 l 0,4.282 C 5.71,5.859 4.433,7.136 2.854,7.136 1.277,7.136 0,5.859 0,4.282 L 0,0 z"
         id="path4280"
         style="fill:#49170c;fill-opacity:1;fill-rule:nonzero;stroke:none" />
    </g>
    <g
       transform="matrix(1.25,0,0,-1.25,388.85737,530.36576)"
       id="g4282">
      <path
         d="m 0,0 c 0,-0.92 0.661,-1.666 1.479,-1.666 0.818,0 1.48,0.746 1.48,1.666 0,0.92 -0.662,1.666 -1.48,1.666 C 0.661,1.666 0,0.92 0,0"
         id="path4284"
         style="fill:#ffffff;fill-opacity:1;fill-rule:nonzero;stroke:none" />
    </g>
    <g
       transform="matrix(1.25,0,0,-1.25,358.6645,530.36576)"
       id="g4286">
      <path
         d="M 0,0 C 0,-0.92 0.663,-1.666 1.48,-1.666 2.299,-1.666 2.961,-0.92 2.961,0 2.961,0.92 2.299,1.666 1.48,1.666 0.663,1.666 0,0.92 0,0"
         id="path4288"
         style="fill:#ffffff;fill-opacity:1;fill-rule:nonzero;stroke:none" />
    </g>
    <g
       transform="matrix(1.25,0,0,-1.25,373.468,560.35789)"
       id="g4290">
      <path
         d="m 0,0 c -0.984,0 -1.783,-0.8 -1.783,-1.782 0,-0.988 0.799,-1.785 1.783,-1.785 0.986,0 1.785,0.797 1.785,1.785 C 1.785,-0.8 0.986,0 0,0"
         id="path4292"
         style="fill:#f6e9e5;fill-opacity:1;fill-rule:nonzero;stroke:none" />
    </g>
    <g
       transform="matrix(1.25,0,0,-1.25,393.37287,566.47051)"
       id="g4294">
      <path
         d="m 0,0 c -4.688,4.959 -10.759,4.82 -11.029,4.816 -0.942,-0.03 -1.679,-0.813 -1.655,-1.755 0.027,-0.931 0.793,-1.667 1.716,-1.667 0.013,0 0.027,0 0.04,0 0.054,-0.009 4.833,0.067 8.44,-3.746 0.337,-0.358 0.789,-0.537 1.242,-0.537 0.424,0 0.846,0.155 1.178,0.468 C 0.621,-1.77 0.649,-0.687 0,0"
         id="path4296"
         style="fill:#f6e9e5;fill-opacity:1;fill-rule:nonzero;stroke:none" />
    </g>
    <g
       transform="matrix(1.25,0,0,-1.25,391.81525,570.08139)"
       id="g4298">
      <path
         d="m 0,0 c -0.453,0 -0.905,0.178 -1.242,0.537 -3.607,3.813 -8.386,3.737 -8.44,3.746 -0.013,-0.001 -0.027,-0.001 -0.04,-0.001 -0.923,0 -1.689,0.737 -1.716,1.667 -0.024,0.943 0.713,1.726 1.655,1.756 0.27,0.003 6.341,0.143 11.029,-4.816 C 1.896,2.202 1.867,1.119 1.178,0.468 0.846,0.154 0.424,0 0,0 m -14.678,4.211 c -0.984,0 -1.783,0.798 -1.783,1.786 0,0.982 0.799,1.782 1.783,1.782 0.987,0 1.785,-0.8 1.785,-1.782 0,-0.988 -0.798,-1.786 -1.785,-1.786 m 1.227,5.851 c -9.796,0 -17.735,-5.08 -17.735,-11.348 0,-2.126 0.932,-4.108 2.522,-5.81 0.393,0.554 0.881,1.037 1.437,1.425 0.924,0.638 2.041,1.015 3.251,1.015 3.173,0 5.749,-2.574 5.749,-5.749 0,-0.141 -0.026,-0.276 -0.04,-0.415 -0.04,-0.461 -0.124,-0.909 -0.261,-1.336 1.608,-0.307 3.31,-0.477 5.077,-0.477 1.764,0 3.465,0.17 5.076,0.477 -0.096,0.299 -0.172,0.608 -0.226,0.923 -0.045,0.269 -0.075,0.545 -0.075,0.828 0,3.175 2.574,5.749 5.748,5.749 1.59,0 3.02,-0.659 4.059,-1.705 0.226,-0.229 0.444,-0.471 0.63,-0.734 1.591,1.701 2.522,3.683 2.522,5.809 0,6.268 -7.94,11.348 -17.734,11.348"
         id="path4300"
         style="fill:#49170c;fill-opacity:1;fill-rule:nonzero;stroke:none" />
    </g>
    <g
       transform="matrix(1.25,0,0,-1.25,362.16438,482.61314)"
       id="g4302">
      <path
         d="m 0,0 c -1.423,3.92 -1.945,17.28 -1.521,28.484 0.083,2.146 -1.589,3.951 -3.735,4.033 -2.147,0.084 -3.949,-1.591 -4.029,-3.736 -0.137,-3.557 -0.235,-7.963 -0.154,-12.453 -0.131,0.013 -0.259,0.04 -0.394,0.04 -0.526,0 -0.704,0.145 -0.866,0.321 -1.08,1.174 -1.422,4.64 -1.254,6.69 0.183,2.135 -1.394,4.016 -3.529,4.205 -2.139,0.186 -4.026,-1.39 -4.214,-3.529 -0.122,-1.377 -0.538,-8.462 3.259,-12.611 1.708,-1.865 3.992,-2.851 6.604,-2.851 0.251,0 0.491,0.03 0.728,0.074 0.251,-3.355 0.654,-6.499 1.271,-9.082 -1.062,-0.047 -2.13,-0.046 -3.185,0.061 -4.804,0.489 -4.956,7.661 -4.961,7.991 -0.015,2.135 -1.75,3.86 -3.887,3.86 l -0.011,0 c -2.146,-0.007 -3.881,-1.752 -3.875,-3.899 0.015,-5.007 2.531,-14.727 11.947,-15.685 2.785,-0.284 5.359,-0.054 7.63,0.148 0.791,0.07 1.78,0.158 2.642,0.196 0.006,0 0.011,-0.002 0.016,-0.002 0.016,0 0.03,0.005 0.043,0.005 0.86,0.035 1.585,0.021 1.845,-0.114 0.003,-0.004 0.366,-0.514 0.366,-2.455 0,-2.146 1.741,-3.886 3.887,-3.886 2.145,0 3.887,1.74 3.887,3.886 0,3.728 -0.939,6.398 -2.867,8.163 C 4.015,-0.658 2.068,-0.123 0,0"
         id="path4304"
         style="fill:#f39e2b;fill-opacity:1;fill-rule:nonzero;stroke:none" />
    </g>
    <g
       transform="matrix(1.25,0,0,-1.25,412.70875,468.25526)"
       id="g4306">
      <path
         d="m 0,0 c -2.164,-0.023 -3.891,-1.708 -3.919,-3.848 -0.002,-0.305 -0.146,-7.503 -4.959,-7.992 -1.056,-0.108 -2.123,-0.109 -3.186,-0.062 0.617,2.584 1.021,5.727 1.272,9.082 0.236,-0.044 0.478,-0.073 0.727,-0.073 2.614,0 4.897,0.986 6.603,2.851 3.799,4.148 3.383,11.233 3.261,12.61 -0.19,2.14 -2.077,3.715 -4.214,3.53 -2.138,-0.19 -3.719,-2.076 -3.529,-4.215 0.175,-1.979 -0.169,-5.495 -1.25,-6.676 -0.164,-0.179 -0.343,-0.326 -0.871,-0.326 -0.134,0 -0.262,-0.026 -0.393,-0.04 0.079,4.491 -0.018,8.896 -0.154,12.453 -0.079,2.146 -1.912,3.816 -4.03,3.737 -2.144,-0.082 -3.818,-1.887 -3.736,-4.033 0.425,-11.204 -0.097,-24.563 -1.519,-28.484 -2.067,-0.123 -4.016,-0.657 -5.642,-2.146 -1.931,-1.765 -2.867,-4.435 -2.867,-8.163 0,-2.146 1.74,-3.886 3.885,-3.886 2.147,0 3.886,1.74 3.886,3.886 0,1.835 0.326,2.39 0.307,2.399 0.605,0.326 3.012,0.112 4.606,-0.029 2.271,-0.202 4.845,-0.432 7.63,-0.148 C 1.324,-18.615 3.841,-8.895 3.856,-3.888 3.861,-1.749 2.138,-0.016 0,0"
         id="path4308"
         style="fill:#f39e2b;fill-opacity:1;fill-rule:nonzero;stroke:none" />
    </g>
  </g>
</svg>
