<?xml version="1.0" encoding="UTF-8" standalone="no"?>
<!-- Created with Inkscape (http://www.inkscape.org/) -->

<svg
   xmlns:dc="http://purl.org/dc/elements/1.1/"
   xmlns:cc="http://creativecommons.org/ns#"
   xmlns:rdf="http://www.w3.org/1999/02/22-rdf-syntax-ns#"
   xmlns:svg="http://www.w3.org/2000/svg"
   xmlns="http://www.w3.org/2000/svg"
   version="1.1"
   width="126.134"
   height="140.51617"
   id="svg11004">
  <defs
     id="defs11006" />
  <metadata
     id="metadata11009">
    <rdf:RDF>
      <cc:Work
         rdf:about="">
        <dc:format>image/svg+xml</dc:format>
        <dc:type
           rdf:resource="http://purl.org/dc/dcmitype/StillImage" />
        <dc:title></dc:title>
      </cc:Work>
    </rdf:RDF>
  </metadata>
  <g
     transform="translate(-228.36157,-407.81838)"
     id="layer1">
    <g
       transform="matrix(1.25,0,0,-1.25,228.36157,419.23669)"
       id="g5746">
      <path
         d="m 0,0 c 0,0 3.077,-21.16 14.996,-21.16 l 15.921,0 c 0,0 -5.475,21.16 -17.393,21.16 L 0,0 z"
         id="path5748"
         style="fill:#f6e9e5;fill-opacity:1;fill-rule:nonzero;stroke:none" />
    </g>
    <g
       transform="matrix(1.25,0,0,-1.25,235.20719,423.92481)"
       id="g5750">
      <path
         d="m 0,0 c 0,0 1.988,-13.659 9.684,-13.659 l 10.278,0 C 19.962,-13.659 16.426,0 8.732,0 L 0,0 z"
         id="path5752"
         style="fill:#d76c79;fill-opacity:1;fill-rule:nonzero;stroke:none" />
    </g>
    <g
       transform="matrix(1.25,0,0,-1.25,354.49557,419.23669)"
       id="g5754">
      <path
         d="m 0,0 c 0,0 -3.08,-21.16 -14.999,-21.16 l -15.921,0 c 0,0 5.475,21.16 17.395,21.16 L 0,0 z"
         id="path5756"
         style="fill:#f6e9e5;fill-opacity:1;fill-rule:nonzero;stroke:none" />
    </g>
    <g
       transform="matrix(1.25,0,0,-1.25,347.64744,423.92481)"
       id="g5758">
      <path
         d="m 0,0 c 0,0 -1.99,-13.659 -9.681,-13.659 l -10.282,0 c 0,0 3.535,13.659 11.233,13.659 L 0,0 z"
         id="path5760"
         style="fill:#d76c79;fill-opacity:1;fill-rule:nonzero;stroke:none" />
    </g>
    <g
       transform="matrix(1.25,0,0,-1.25,287.75482,409.16219)"
       id="g5762">
      <path
         d="m 0,0 c -0.721,-0.722 -1.132,-1.733 -1.132,-2.754 0,-0.074 0.018,-0.145 0.022,-0.22 -0.054,-0.006 -0.109,-0.013 -0.162,-0.019 -0.012,0.073 -0.011,0.144 -0.027,0.217 -0.455,2.098 -2.532,3.421 -4.631,2.954 -2.099,-0.455 -3.42,-2.532 -2.954,-4.631 0.016,-0.073 0.046,-0.138 0.067,-0.209 -0.051,-0.016 -0.099,-0.036 -0.149,-0.053 -0.029,0.076 -0.047,0.154 -0.084,0.229 -0.932,1.931 -3.264,2.731 -5.186,1.788 -1.934,-0.933 -2.732,-3.265 -1.797,-5.198 0.037,-0.075 0.082,-0.142 0.122,-0.214 -0.038,-0.026 -0.077,-0.051 -0.118,-0.078 -0.053,0.069 -0.092,0.148 -0.152,0.215 -1.396,1.621 -3.853,1.798 -5.484,0.399 -1.622,-1.409 -1.799,-3.853 -0.4,-5.485 0.059,-0.068 0.13,-0.116 0.193,-0.179 -0.033,-0.037 -0.066,-0.079 -0.1,-0.117 -0.072,0.056 -0.134,0.123 -0.216,0.173 -1.796,1.177 -4.208,0.679 -5.374,-1.122 -1.177,-1.798 -0.676,-4.208 1.122,-5.385 0.081,-0.053 0.167,-0.091 0.249,-0.137 -0.019,-0.042 -0.041,-0.085 -0.061,-0.128 -0.089,0.035 -0.172,0.082 -0.267,0.109 -2.053,0.611 -4.217,-0.567 -4.83,-2.621 -0.609,-2.064 0.566,-4.219 2.633,-4.829 0.091,-0.029 0.185,-0.043 0.278,-0.064 -0.006,-0.047 -0.013,-0.096 -0.019,-0.142 -0.094,0.007 -0.186,0.027 -0.282,0.027 -2.154,-0.011 -3.887,-1.754 -3.875,-3.897 0,-2.143 1.741,-3.876 3.885,-3.876 l 0.013,0 c 0.067,0 0.13,0.017 0.195,0.02 0.004,-0.048 0.011,-0.096 0.016,-0.144 -0.051,-0.006 -0.097,-0.002 -0.144,-0.009 -2.123,-0.367 -3.543,-2.376 -3.188,-4.486 l 0,-0.011 c 0.332,-1.889 1.966,-3.232 3.83,-3.232 0.213,0 0.435,0.021 0.656,0.067 0.038,0.006 0.068,0.021 0.103,0.028 0.009,-0.044 0.017,-0.089 0.028,-0.132 -2.09,-0.462 -3.417,-2.533 -2.963,-4.626 l 0.012,0 c 0.389,-1.823 1.997,-3.054 3.786,-3.054 0.26,0 0.522,0.021 0.781,0.078 0.006,-0.044 0.017,-0.093 0.027,-0.141 -0.014,-0.003 -0.027,-0.002 -0.04,-0.005 -2.101,-0.455 -3.433,-2.519 -2.967,-4.62 0.389,-1.821 2.001,-3.064 3.788,-3.064 0.277,0 0.556,0.033 0.832,0.089 0.006,0 0.01,0.003 0.017,0.004 0.009,-0.063 0.019,-0.128 0.033,-0.193 -0.679,-0.154 -1.318,-0.468 -1.815,-0.966 -0.733,-0.722 -1.146,-1.732 -1.146,-2.755 0,-1.021 0.413,-2.02 1.146,-2.743 0.26,-0.259 0.566,-0.465 0.889,-0.643 -0.05,0.015 -0.095,0.041 -0.145,0.056 -2.078,0.543 -4.211,-0.69 -4.765,-2.755 -0.544,-2.077 0.678,-4.198 2.744,-4.753 -2.134,0.023 -3.887,-1.676 -3.931,-3.809 -0.044,-2.143 1.666,-3.919 3.809,-3.964 l 0.111,0 c -0.056,-0.023 -0.111,-0.045 -0.157,-0.056 -1.987,-0.822 -2.942,-3.086 -2.132,-5.075 l 0.011,0 c 0.812,-1.987 3.078,-2.931 5.066,-2.121 0.043,0.011 0.086,0.033 0.13,0.056 -0.021,-0.023 -0.044,-0.045 -0.064,-0.056 -1.566,-1.477 -1.645,-3.93 -0.178,-5.496 1.467,-1.566 3.93,-1.644 5.495,-0.178 0.011,0.011 0.023,0.021 0.036,0.021 -1.1,-1.843 -0.49,-4.218 1.364,-5.318 1.832,-1.089 4.21,-0.49 5.31,1.343 -0.612,-2.032 0.532,-4.186 2.564,-4.819 2.032,-0.633 4.186,0.488 4.853,2.499 -0.166,-2.111 1.389,-3.965 3.497,-4.165 0.123,-0.01 0.255,-0.01 0.379,-0.01 1.604,0 3.017,1.001 3.594,2.454 l 0,102.998 C 1.738,1.067 0.727,0.721 0,0"
         id="path5764"
         style="fill:#d3c5c1;fill-opacity:1;fill-rule:nonzero;stroke:none" />
    </g>
    <g
       transform="matrix(1.25,0,0,-1.25,296.81982,539.60356)"
       id="g5766">
      <path
         d="M 0,0 C 2.109,0.211 3.654,2.066 3.486,4.164 4.163,2.167 6.319,1.067 8.351,1.699 c 2.02,0.645 3.154,2.8 2.545,4.831 1.108,-1.822 3.486,-2.409 5.316,-1.309 1.834,1.098 2.434,3.486 1.333,5.328 0.011,-0.011 0.021,-0.022 0.033,-0.031 1.578,-1.456 4.043,-1.357 5.499,0.22 1.452,1.577 1.354,4.032 -0.224,5.487 -0.022,0.022 -0.043,0.044 -0.078,0.066 0.056,-0.022 0.1,-0.033 0.145,-0.055 2.001,-0.789 4.254,0.177 5.055,2.175 0.787,1.99 -0.193,4.255 -2.178,5.054 -0.057,0.022 -0.111,0.034 -0.168,0.056 l 0.135,0 c 2.154,0.055 3.841,1.842 3.788,3.986 -0.058,2.132 -1.823,3.821 -3.945,3.787 2.067,0.578 3.276,2.71 2.71,4.764 -0.565,2.076 -2.71,3.298 -4.774,2.732 -0.093,-0.025 -0.172,-0.068 -0.26,-0.1 -0.004,0.01 -0.008,0.022 -0.013,0.032 0.349,0.18 0.68,0.399 0.959,0.679 0.724,0.722 1.133,1.72 1.133,2.754 0,1.022 -0.409,2.02 -1.133,2.742 -0.501,0.505 -1.152,0.822 -1.841,0.974 0.004,0.032 0.012,0.062 0.016,0.093 0,0 0.004,0.023 0.014,0.063 0.008,-0.002 0.018,-0.007 0.026,-0.008 0.278,-0.056 0.554,-0.088 0.822,-0.088 1.787,0 3.396,1.243 3.797,3.066 0.443,2.097 -0.878,4.174 -2.975,4.629 -0.015,0.003 -0.028,0.001 -0.041,0.005 10e-4,0.013 0.006,0.028 0.008,0.041 0.005,0.024 0.008,0.043 0.012,0.066 0.259,-0.056 0.529,-0.079 0.786,-0.079 1.778,0 3.386,1.233 3.787,3.054 0.454,2.095 -0.864,4.158 -2.956,4.617 0.008,0.039 0.016,0.078 0.023,0.119 0.036,-0.007 0.066,-0.021 0.101,-0.028 0.222,-0.044 0.433,-0.055 0.655,-0.055 1.864,0 3.51,1.344 3.819,3.231 0.366,2.121 -1.065,4.132 -3.176,4.487 -0.048,0.009 -0.101,0.003 -0.152,0.01 0.004,0.04 0.01,0.081 0.011,0.122 0.071,-0.004 0.138,-0.021 0.209,-0.021 2.142,0.011 3.876,1.755 3.876,3.897 0,2.143 -1.743,3.887 -3.887,3.876 -0.095,0 -0.187,-0.021 -0.279,-0.028 -0.007,0.041 -0.011,0.084 -0.018,0.125 0.091,0.021 0.184,0.032 0.275,0.06 2.065,0.621 3.229,2.787 2.62,4.84 -0.621,2.055 -2.787,3.222 -4.84,2.609 -0.094,-0.027 -0.177,-0.073 -0.265,-0.108 -0.017,0.039 -0.036,0.076 -0.054,0.113 0.085,0.047 0.169,0.087 0.251,0.141 1.788,1.176 2.288,3.587 1.11,5.375 -1.177,1.798 -3.586,2.299 -5.375,1.121 -0.078,-0.052 -0.142,-0.12 -0.216,-0.175 -0.03,0.034 -0.059,0.07 -0.088,0.104 0.062,0.065 0.136,0.112 0.194,0.182 1.399,1.622 1.22,4.075 -0.412,5.474 -1.62,1.4 -4.075,1.222 -5.474,-0.4 -0.062,-0.068 -0.1,-0.147 -0.154,-0.218 -0.035,0.023 -0.069,0.046 -0.106,0.069 0.041,0.073 0.09,0.14 0.125,0.218 0.945,1.93 0.135,4.252 -1.787,5.196 -1.933,0.943 -4.265,0.132 -5.207,-1.799 C 7.429,99.794 7.41,99.719 7.38,99.647 7.34,99.66 7.302,99.675 7.264,99.688 c 0.018,0.071 0.049,0.139 0.064,0.212 0.468,2.099 -0.854,4.176 -2.951,4.631 -2.1,0.467 -4.165,-0.856 -4.633,-2.954 -0.015,-0.073 -0.014,-0.145 -0.026,-0.217 -0.055,0.006 -0.11,0.013 -0.163,0.018 0.004,0.074 0.023,0.147 0.023,0.221 0,1.021 -0.423,2.032 -1.144,2.754 -0.746,0.744 -1.796,1.098 -2.839,1.074 -0.033,10e-4 -0.066,-0.007 -0.096,-0.007 l 0,-102.998 c 0.122,0.307 0.219,0.624 0.258,0.965 C -3.987,1.299 -2.111,-0.21 0,0"
         id="path5768"
         style="fill:#f6e9e5;fill-opacity:1;fill-rule:nonzero;stroke:none" />
    </g>
    <path
       d="m 285.23557,542.26594 -13.57625,0 0,-18.7225 13.57625,0 0,18.7225 z"
       id="path5770"
       style="fill:#d3c5c1;fill-opacity:1;fill-rule:nonzero;stroke:none" />
    <path
       d="m 311.19932,542.26594 -13.58,0 0,-18.7225 13.58,0 0,18.7225 z"
       id="path5772"
       style="fill:#f6e9e5;fill-opacity:1;fill-rule:nonzero;stroke:none" />
    <g
       transform="matrix(1.25,0,0,-1.25,278.30294,544.69206)"
       id="g5774">
      <path
         d="m 0,0 c 0.461,0 0.834,-0.373 0.834,-0.833 l 0,-2.081 8.736,0 c 0,5.223 -4.233,9.455 -9.454,9.455 -5.22,0 -9.455,-4.232 -9.455,-9.455 l 8.507,0 0,2.081 C -0.832,-0.373 -0.458,0 0,0"
         id="path5776"
         style="fill:#d76c79;fill-opacity:1;fill-rule:nonzero;stroke:none" />
    </g>
    <g
       transform="matrix(1.25,0,0,-1.25,304.26357,544.69206)"
       id="g5778">
      <path
         d="m 0,0 c 0.461,0 0.832,-0.373 0.832,-0.833 l 0,-2.081 8.738,0 c 0,5.223 -4.235,9.455 -9.455,9.455 -5.219,0 -9.454,-4.232 -9.454,-9.455 l 8.506,0 0,2.081 C -0.833,-0.373 -0.46,0 0,0"
         id="path5780"
         style="fill:#d76c79;fill-opacity:1;fill-rule:nonzero;stroke:none" />
    </g>
    <g
       transform="matrix(1.25,0,0,-1.25,291.42919,515.67531)"
       id="g5782">
      <path
         d="M 0,0 C 17.585,0 23.917,10.131 27.582,19.579 27.582,19.579 16.517,4.347 0.479,4.93 -13.126,5.425 -27.925,19.481 -27.925,19.481 -24.259,10.032 -13.611,0 0,0"
         id="path5784"
         style="fill:#d3c5c1;fill-opacity:1;fill-rule:nonzero;stroke:none" />
    </g>
    <g
       transform="matrix(1.25,0,0,-1.25,327.85007,455.99756)"
       id="g5786">
      <path
         d="m 0,0 c 0,8.178 -6.627,14.807 -14.807,14.807 -6.908,0 -12.693,-4.735 -14.33,-11.135 -1.635,6.4 -7.424,11.135 -14.329,11.135 -8.18,0 -14.812,-6.628 -14.812,-14.807 0,-8.179 5.522,-14.809 13.7,-14.809 0,0 0.973,-5.716 1.112,-7.642 0.59,-8.158 3.945,-20.361 14.808,-20.361 9.904,0 14.221,12.203 14.807,20.361 0.141,1.938 1.111,7.692 1.111,7.692 C -5.01,-14.266 0,-7.856 0,0"
         id="path5788"
         style="fill:#f5c799;fill-opacity:1;fill-rule:nonzero;stroke:none" />
    </g>
    <g
       transform="matrix(1.25,0,0,-1.25,279.63232,457.78894)"
       id="g5790">
      <path
         d="m 0,0 c 0,-2.934 -2.378,-5.312 -5.311,-5.312 -2.935,0 -5.311,2.378 -5.311,5.312 0,2.933 2.376,5.311 5.311,5.311 C -2.378,5.311 0,2.933 0,0"
         id="path5792"
         style="fill:#411611;fill-opacity:1;fill-rule:nonzero;stroke:none" />
    </g>
    <g
       transform="matrix(1.25,0,0,-1.25,316.50482,457.78894)"
       id="g5794">
      <path
         d="m 0,0 c 0,-2.934 -2.379,-5.312 -5.313,-5.312 -2.931,0 -5.311,2.378 -5.311,5.312 0,2.933 2.38,5.311 5.311,5.311 C -2.379,5.311 0,2.933 0,0"
         id="path5796"
         style="fill:#411611;fill-opacity:1;fill-rule:nonzero;stroke:none" />
    </g>
    <g
       transform="matrix(1.25,0,0,-1.25,277.44845,455.57456)"
       id="g5798">
      <path
         d="m 0,0 c 0,-0.978 -0.791,-1.771 -1.771,-1.771 -0.978,0 -1.77,0.793 -1.77,1.771 0,0.979 0.792,1.772 1.77,1.772 C -0.791,1.772 0,0.979 0,0"
         id="path5800"
         style="fill:#ffffff;fill-opacity:1;fill-rule:nonzero;stroke:none" />
    </g>
    <g
       transform="matrix(1.25,0,0,-1.25,314.28932,455.57456)"
       id="g5802">
      <path
         d="m 0,0 c 0,-0.978 -0.794,-1.771 -1.77,-1.771 -0.98,0 -1.771,0.793 -1.771,1.771 0,0.979 0.791,1.772 1.771,1.772 C -0.794,1.772 0,0.979 0,0"
         id="path5804"
         style="fill:#ffffff;fill-opacity:1;fill-rule:nonzero;stroke:none" />
    </g>
    <g
       transform="matrix(1.25,0,0,-1.25,299.45644,487.41119)"
       id="g5806">
      <path
         d="M 0,0 -6.425,-0.734 -12.848,0 c -0.6,0.077 -1.161,-0.368 -1.231,-0.978 -0.068,-0.609 0.37,-1.158 0.975,-1.228 l 5.496,-0.629 0,-8.072 c -0.365,-0.432 -1.208,-1.245 -2.065,-0.786 -0.543,0.292 -1.215,0.088 -1.503,-0.452 -0.29,-0.54 -0.089,-1.214 0.451,-1.504 0.544,-0.292 1.077,-0.415 1.579,-0.415 1.073,0 2.019,0.557 2.709,1.186 0.68,-0.632 1.619,-1.187 2.704,-1.187 0.504,0 1.04,0.12 1.595,0.409 0.545,0.281 0.757,0.952 0.475,1.496 -0.279,0.544 -0.952,0.757 -1.496,0.475 -0.917,-0.471 -1.729,0.329 -2.078,0.763 l 0,8.087 5.49,0.629 c 0.611,0.07 1.046,0.619 0.977,1.228 C 1.161,-0.366 0.609,0.079 0,0"
         id="path5808"
         style="fill:#f29e9f;fill-opacity:1;fill-rule:nonzero;stroke:none" />
    </g>
  </g>
</svg>
