<?xml version="1.0" encoding="UTF-8" standalone="no"?>
<!-- Created with Inkscape (http://www.inkscape.org/) -->

<svg
   xmlns:dc="http://purl.org/dc/elements/1.1/"
   xmlns:cc="http://creativecommons.org/ns#"
   xmlns:rdf="http://www.w3.org/1999/02/22-rdf-syntax-ns#"
   xmlns:svg="http://www.w3.org/2000/svg"
   xmlns="http://www.w3.org/2000/svg"
   version="1.1"
   width="122.78343"
   height="137.0215"
   id="svg15451">
  <defs
     id="defs15453" />
  <metadata
     id="metadata15456">
    <rdf:RDF>
      <cc:Work
         rdf:about="">
        <dc:format>image/svg+xml</dc:format>
        <dc:type
           rdf:resource="http://purl.org/dc/dcmitype/StillImage" />
        <dc:title></dc:title>
      </cc:Work>
    </rdf:RDF>
  </metadata>
  <g
     transform="translate(-70.036853,-609.56572)"
     id="layer1">
    <g
       transform="matrix(1.25,0,0,-1.25,114.34717,718.54097)"
       id="g4450">
      <path
         d="m 0,0 c -1.86,0 -3.369,-1.506 -3.369,-3.366 0,-6.802 -5.534,-12.337 -12.335,-12.337 -6.316,0 -11.53,4.772 -12.246,10.899 -3.34,-1.51 -5.56,-0.682 -6.761,0.168 0.659,-9.923 8.92,-17.801 19.007,-17.801 10.515,0 19.07,8.554 19.07,19.071 C 3.366,-1.506 1.859,0 0,0"
         id="path4452"
         style="fill:#af5b2b;fill-opacity:1;fill-rule:nonzero;stroke:none" />
    </g>
    <g
       transform="matrix(1.25,0,0,-1.25,79.410042,724.54559)"
       id="g4454">
      <path
         d="m 0,0 c -0.058,0.472 -0.094,0.949 -0.094,1.438 0,1.416 0.239,2.803 0.708,4.126 C 1.235,7.316 0.318,9.239 -1.433,9.861 -3.185,10.483 -5.108,9.567 -5.731,7.815 -6.457,5.767 -6.826,3.621 -6.826,1.438 -6.826,1.01 -6.788,0.59 -6.762,0.168 -5.561,-0.683 -3.34,-1.511 0,0"
         id="path4456"
         style="fill:#4b190d;fill-opacity:1;fill-rule:nonzero;stroke:none" />
    </g>
    <g
       transform="matrix(1.25,0,0,-1.25,155.33779,735.33297)"
       id="g4458">
      <path
         d="M 0,0 0,8.624 C 5.089,13.363 8.352,20.012 8.672,27.433 3.088,19.068 -7.023,13.454 -18.618,13.426 l 0,-12.155 c 1.672,0 3.302,0.174 4.892,0.463 l 0,-1.734 c -2.628,-2.045 -4.323,-5.229 -4.323,-8.817 l 22.37,0 C 4.321,-5.229 2.625,-2.045 0,0"
         id="path4460"
         style="fill:#ea8232;fill-opacity:1;fill-rule:nonzero;stroke:none" />
    </g>
    <g
       transform="matrix(1.25,0,0,-1.25,99.577923,703.53609)"
       id="g4462">
      <path
         d="M 0,0 C 0.352,-0.438 0.709,-0.869 1.084,-1.287 0.709,-0.869 0.352,-0.438 0,0 M 1.197,-1.407 C 1.595,-1.845 2.001,-2.275 2.426,-2.689 2.001,-2.273 1.595,-1.845 1.197,-1.407 M -1.36,3.187 c 0,-0.496 0.05,-0.977 0.076,-1.467 0.359,-0.523 0.735,-1.033 1.13,-1.535 -0.395,0.502 -0.771,1.012 -1.13,1.535 0.391,-7.311 3.634,-13.853 8.66,-18.533 l 0,-8.625 c -2.625,-2.044 -4.321,-5.229 -4.321,-8.817 l 22.368,0 c 0,3.588 -1.694,6.773 -4.321,8.817 l 0,1.735 c 1.588,-0.289 3.216,-0.463 4.888,-0.463 l 0,12.154 c -0.029,0 -0.057,-0.004 -0.084,-0.004 -9.274,0 -17.604,3.582 -23.439,9.289 2.303,-2.248 4.992,-4.166 7.977,-5.666 -0.309,1.817 -0.583,3.728 -0.88,5.733 2.148,-0.655 4.434,-1.278 6.862,-1.846 -0.002,-0.005 -0.006,-0.011 -0.008,-0.015 1.827,-0.912 3.729,-1.942 5.704,-3.099 1.263,-0.741 2.545,-1.518 3.868,-2.368 l 0,11.926 0,28.603 C 10.884,30.541 -1.36,18.293 -1.36,3.187"
         id="path4464"
         style="fill:#af5b2b;fill-opacity:1;fill-rule:nonzero;stroke:none" />
    </g>
    <g
       transform="matrix(1.25,0,0,-1.25,132.06567,665.35984)"
       id="g4466">
      <path
         d="m 0,0 0,-28.604 0.003,0 0,-11.925 c 1.324,0.85 2.604,1.627 3.871,2.368 1.972,1.157 3.874,2.187 5.705,3.098 2.478,0.581 4.805,1.213 6.991,1.882 -0.288,-1.942 -0.545,-3.808 -0.831,-5.573 4.743,2.457 8.727,5.979 11.551,10.208 0.02,0.4 0.064,0.79 0.064,1.192 C 27.354,-12.248 15.109,0 0,0"
         id="path4468"
         style="fill:#af5b2b;fill-opacity:1;fill-rule:nonzero;stroke:none" />
    </g>
    <g
       transform="matrix(1.25,0,0,-1.25,132.07004,707.60472)"
       id="g4470">
      <path
         d="m 0,0 0,0 -0.003,0 c -1.324,0.851 -14.278,-0.061 -16.426,0.595 0.296,-2.005 0.571,-3.916 0.879,-5.733 1.567,-9.308 4.047,-15.773 15.547,-15.773 l 0,12.154 c 5.731,0.014 11.098,1.397 15.738,3.799 0.286,1.765 0.544,3.631 0.831,5.573 C 14.38,-0.054 1.323,0.851 0,0"
         id="path4472"
         style="fill:#d5d2b1;fill-opacity:1;fill-rule:nonzero;stroke:none" />
    </g>
    <g
       transform="matrix(1.25,0,0,-1.25,151.73917,713.80222)"
       id="g4474">
      <path
         d="m 0,0 c -4.64,-2.402 -10.008,-3.785 -15.739,-3.799 l 0,-12.154 C -3.899,-15.953 -1.537,-9.408 0,0"
         id="path4476"
         style="fill:#f6f3cf;fill-opacity:1;fill-rule:nonzero;stroke:none" />
    </g>
    <g
       transform="matrix(1.25,0,0,-1.25,125.88529,702.74147)"
       id="g4478">
      <path
         d="M 0,0 C 0,0 -0.002,0 -0.002,-0.001 0.003,-0.008 0.011,-0.019 0.013,-0.026 0.011,-0.018 0.003,-0.008 0,0"
         id="path4480"
         style="fill:#07171b;fill-opacity:1;fill-rule:nonzero;stroke:none" />
    </g>
    <g
       transform="matrix(1.25,0,0,-1.25,132.04679,701.10934)"
       id="g4482">
      <path
         d="M 0,0 C 0.013,0 0.023,-0.003 0.033,-0.003 0.044,-0.003 0.057,0 0.068,0 l 0,18.662 0,11.534 C 0.044,30.196 0.023,30.191 0,30.191 L 0,18.662 0,0 z"
         id="path4484"
         style="fill:#a84720;fill-opacity:1;fill-rule:nonzero;stroke:none" />
    </g>
    <g
       transform="matrix(1.25,0,0,-1.25,132.04679,701.10934)"
       id="g4486">
      <path
         d="m 0,0 0,-0.004 c 0.013,0 0.023,0.001 0.033,0.001 C 0.023,-0.003 0.013,0 0,0"
         id="path4488"
         style="fill:#a84720;fill-opacity:1;fill-rule:nonzero;stroke:none" />
    </g>
    <g
       transform="matrix(1.25,0,0,-1.25,118.96817,627.77322)"
       id="g4490">
      <path
         d="m 0,0 c 0,-8.047 -6.523,-14.568 -14.567,-14.568 -8.046,0 -14.568,6.521 -14.568,14.568 0,8.045 6.522,14.566 14.568,14.566 C -6.523,14.566 0,8.045 0,0"
         id="path4492"
         style="fill:#af5b2b;fill-opacity:1;fill-rule:nonzero;stroke:none" />
    </g>
    <g
       transform="matrix(1.25,0,0,-1.25,111.25642,627.77322)"
       id="g4494">
      <path
         d="m 0,0 c 0,-4.639 -3.761,-8.4 -8.398,-8.4 -4.64,0 -8.398,3.761 -8.398,8.4 0,4.637 3.758,8.398 8.398,8.398 C -3.761,8.398 0,4.637 0,0"
         id="path4496"
         style="fill:#4b190d;fill-opacity:1;fill-rule:nonzero;stroke:none" />
    </g>
    <g
       transform="matrix(1.25,0,0,-1.25,180.62779,627.77322)"
       id="g4498">
      <path
         d="m 0,0 c 0,-8.047 -6.522,-14.568 -14.569,-14.568 -8.043,0 -14.567,6.521 -14.567,14.568 0,8.045 6.524,14.566 14.567,14.566 C -6.522,14.566 0,8.045 0,0"
         id="path4500"
         style="fill:#ea8232;fill-opacity:1;fill-rule:nonzero;stroke:none" />
    </g>
    <g
       transform="matrix(1.25,0,0,-1.25,172.91592,627.77322)"
       id="g4502">
      <path
         d="m 0,0 c 0,-4.639 -3.76,-8.4 -8.399,-8.4 -4.639,0 -8.397,3.761 -8.397,8.4 0,4.637 3.758,8.398 8.397,8.398 C -3.76,8.398 0,4.637 0,0"
         id="path4504"
         style="fill:#4b190d;fill-opacity:1;fill-rule:nonzero;stroke:none" />
    </g>
    <g
       transform="matrix(1.25,0,0,-1.25,118.96817,627.77322)"
       id="g4506">
      <path
         d="m 0,0 c 0,-8.047 -6.523,-14.568 -14.567,-14.568 -8.046,0 -14.568,6.521 -14.568,14.568 0,8.045 6.522,14.566 14.568,14.566 C -6.523,14.566 0,8.045 0,0"
         id="path4508"
         style="fill:#ea8232;fill-opacity:1;fill-rule:nonzero;stroke:none" />
    </g>
    <g
       transform="matrix(1.25,0,0,-1.25,111.25642,627.77322)"
       id="g4510">
      <path
         d="m 0,0 c 0,-4.639 -3.761,-8.4 -8.398,-8.4 -4.64,0 -8.398,3.761 -8.398,8.4 0,4.637 3.758,8.398 8.398,8.398 C -3.761,8.398 0,4.637 0,0"
         id="path4512"
         style="fill:#4b190d;fill-opacity:1;fill-rule:nonzero;stroke:none" />
    </g>
    <g
       transform="matrix(1.25,0,0,-1.25,132.04679,624.47722)"
       id="g4514">
      <path
         d="m 0,0 0,-0.003 c 0.013,0 0.023,0.001 0.033,0.001 C 0.023,-0.002 0.013,0 0,0"
         id="path4516"
         style="fill:#e96332;fill-opacity:1;fill-rule:nonzero;stroke:none" />
    </g>
    <g
       transform="matrix(1.25,0,0,-1.25,132.13229,624.47722)"
       id="g4518">
      <path
         d="m 0,0 c -0.011,0 -0.024,-0.002 -0.035,-0.002 0.011,0 0.024,-0.001 0.035,-0.001 L 0,0 z"
         id="path4520"
         style="fill:#a84720;fill-opacity:1;fill-rule:nonzero;stroke:none" />
    </g>
    <g
       transform="matrix(1.25,0,0,-1.25,132.13229,662.66697)"
       id="g4522">
      <path
         d="m 0,0 0,30.549 c -0.011,0 -0.024,0.001 -0.035,0.001 -0.01,0 -0.02,-0.001 -0.033,-0.001 l 0,-30.555 C -0.045,-0.006 -0.024,0 0,0"
         id="path4524"
         style="fill:#a84720;fill-opacity:1;fill-rule:nonzero;stroke:none" />
    </g>
    <g
       transform="matrix(1.25,0,0,-1.25,132.04679,700.41472)"
       id="g4526">
      <path
         d="M 0,0 C 0.013,0 0.023,-0.001 0.033,-0.001 0.044,-0.001 0.057,0 0.068,0 l 0,18.662 0,11.536 C 0.044,30.198 0.023,30.192 0,30.192 L 0,18.662 0,0 z"
         id="path4528"
         style="fill:#a84720;fill-opacity:1;fill-rule:nonzero;stroke:none" />
    </g>
    <g
       transform="matrix(1.25,0,0,-1.25,87.045543,661.80022)"
       id="g4530">
      <path
         d="m 0,0 c 0.039,-9.248 2.5,-25.034 2.5,-25.034 0,0 0.778,-3.062 15.515,-8.321 l 0,7.013 c 0,5.245 0.64,7.82 1.214,9.078 6,-2.373 10.58,-5.247 11.77,-7.753 1.483,0.825 3.166,1.332 4.98,1.332 l 0,18.662 0,42.087 C 8.671,37.064 -0.083,19.316 0,0"
         id="path4532"
         style="fill:#af5b2b;fill-opacity:1;fill-rule:nonzero;stroke:none" />
    </g>
    <g
       transform="matrix(1.25,0,0,-1.25,131.96079,615.46972)"
       id="g4534">
      <path
         d="m 0,0 0,-42.088 0,-9.515 c -0.016,-0.008 -0.029,-0.015 -0.046,-0.022 l 0.053,-22.399 c 5.626,0 11.148,1.315 16.245,3.025 0.566,0.188 1.13,0.38 1.686,0.579 l 0,0.012 c 14.746,5.257 15.537,8.322 15.537,8.322 0,0 2.428,16.081 2.505,25.022 C 36.146,-17.748 27.31,0 0,0"
         id="path4536"
         style="fill:#ea8232;fill-opacity:1;fill-rule:nonzero;stroke:none" />
    </g>
    <g
       transform="matrix(1.25,0,0,-1.25,117.36842,681.27297)"
       id="g4538">
      <path
         d="m 0,0 c -1.472,-0.605 -2.881,-1.359 -4.068,-2.322 0,0 -2.105,-0.752 -2.105,-10.264 l 0,-7.014 c 5.555,-1.981 11.319,-3.603 17.931,-3.603 l 0.053,22.4 C 5.618,2.244 3.146,0.993 0,0"
         id="path4540"
         style="fill:#d5d2b1;fill-opacity:1;fill-rule:nonzero;stroke:none" />
    </g>
    <g
       transform="matrix(1.25,0,0,-1.25,146.75629,681.27297)"
       id="g4542">
      <path
         d="m 0,0 c 1.471,-0.605 2.882,-1.358 4.067,-2.322 0,0 2.105,-0.752 2.105,-10.264 l 0,-7.014 c -5.554,-1.981 -11.681,-3.603 -17.93,-3.603 l -0.053,22.4 C -5.619,2.244 -3.148,0.993 0,0"
         id="path4544"
         style="fill:#f6f3cf;fill-opacity:1;fill-rule:nonzero;stroke:none" />
    </g>
    <g
       transform="matrix(1.25,0,0,-1.25,101.86192,655.93597)"
       id="g4546">
      <path
         d="M 0,0 C 0,0 14.979,4.345 14.643,-10.888 14.643,-10.888 0,-16.208 0,0"
         id="path4548"
         style="fill:#4b190d;fill-opacity:1;fill-rule:nonzero;stroke:none" />
    </g>
    <g
       transform="matrix(1.25,0,0,-1.25,118.17354,663.10759)"
       id="g4550">
      <path
         d="m 0,0 c 0,-3.067 -2.487,-5.554 -5.553,-5.554 -3.067,0 -5.555,2.487 -5.555,5.554 0,3.067 2.488,5.555 5.555,5.555 C -2.487,5.555 0,3.067 0,0"
         id="path4552"
         style="fill:#f5c799;fill-opacity:1;fill-rule:nonzero;stroke:none" />
    </g>
    <g
       transform="matrix(1.25,0,0,-1.25,115.94567,660.23897)"
       id="g4554">
      <path
         d="m 0,0 c 0,-1.058 -0.857,-1.915 -1.915,-1.915 -1.057,0 -1.915,0.857 -1.915,1.915 0,1.057 0.858,1.913 1.915,1.913 C -0.857,1.913 0,1.057 0,0"
         id="path4556"
         style="fill:#ffffff;fill-opacity:1;fill-rule:nonzero;stroke:none" />
    </g>
    <g
       transform="matrix(1.25,0,0,-1.25,162.41792,655.93597)"
       id="g4558">
      <path
         d="M 0,0 C 0,0 -14.979,4.345 -14.643,-10.888 -14.643,-10.888 0,-16.208 0,0"
         id="path4560"
         style="fill:#4b190d;fill-opacity:1;fill-rule:nonzero;stroke:none" />
    </g>
    <g
       transform="matrix(1.25,0,0,-1.25,145.98479,663.10759)"
       id="g4562">
      <path
         d="m 0,0 c 0,-3.067 2.487,-5.554 5.554,-5.554 3.068,0 5.555,2.487 5.555,5.554 0,3.067 -2.487,5.555 -5.555,5.555 C 2.487,5.555 0,3.067 0,0"
         id="path4564"
         style="fill:#f5c799;fill-opacity:1;fill-rule:nonzero;stroke:none" />
    </g>
    <g
       transform="matrix(1.25,0,0,-1.25,153.26379,660.23897)"
       id="g4566">
      <path
         d="m 0,0 c 0,-1.058 0.857,-1.915 1.915,-1.915 1.057,0 1.913,0.857 1.913,1.915 0,1.057 -0.856,1.913 -1.913,1.913 C 0.857,1.913 0,1.057 0,0"
         id="path4568"
         style="fill:#ffffff;fill-opacity:1;fill-rule:nonzero;stroke:none" />
    </g>
    <g
       transform="matrix(1.25,0,0,-1.25,130.95854,688.98172)"
       id="g4570">
      <path
         d="m 0,0 c -0.833,0.153 -1.542,0.514 -2.013,1.063 -2.212,2.594 -5.126,4.388 -6.684,5.265 1.518,0.462 4.655,1.173 9.551,1.173 4.833,0 7.998,-0.717 9.527,-1.175 C 7.612,4.632 5.193,2.753 3.504,0.981 3.027,0.483 2.395,0.151 1.623,0 L 0,0 z"
         id="path4572"
         style="fill:#d76c79;fill-opacity:1;fill-rule:nonzero;stroke:none" />
    </g>
    <g
       transform="matrix(1.25,0,0,-1.25,132.02667,678.90959)"
       id="g4574">
      <path
         d="m 0,0 c -7.381,0 -10.91,-1.62 -10.885,-1.62 0,0 0,0.002 10e-4,0.002 0.086,-0.123 4.551,-2.17 7.595,-5.736 0.638,-0.746 1.54,-1.104 2.435,-1.257 l 1.676,0 c 0.822,0.151 1.615,0.508 2.229,1.152 3.178,3.335 7.74,5.814 7.781,5.859 C 10.832,-1.6 7.301,0 0,0 m 0,-1.11 c 3.723,0 6.435,-0.433 8.151,-0.831 C 5.784,-3.478 3.769,-5.097 2.248,-6.691 1.861,-7.096 1.347,-7.369 0.714,-7.501 l -1.469,0 c -0.751,0.143 -1.32,0.436 -1.69,0.868 -1.795,2.104 -4.031,3.69 -5.673,4.705 C -6.4,-1.531 -3.703,-1.11 0,-1.11"
         id="path4576"
         style="fill:#4b190d;fill-opacity:1;fill-rule:nonzero;stroke:none" />
    </g>
    <g
       transform="matrix(1.25,0,0,-1.25,131.18617,694.29659)"
       id="g4578">
      <path
         d="m 0,0 c -1.371,-2.365 -3.104,-3.705 -5.152,-3.986 -4.637,-0.624 -9.56,4.233 -9.611,4.282 -0.263,0.267 -0.688,0.267 -0.951,0.001 -0.264,-0.262 -0.264,-0.687 -0.003,-0.949 0.205,-0.208 4.777,-4.738 9.707,-4.738 0.345,0 0.688,0.021 1.036,0.068 2.236,0.305 4.131,1.607 5.646,3.865 1.516,-2.258 3.411,-3.56 5.647,-3.865 0.346,-0.047 0.693,-0.068 1.035,-0.068 4.931,0 9.502,4.53 9.706,4.738 0.264,0.262 0.262,0.687 -10e-4,0.95 C 16.794,0.56 16.37,0.56 16.106,0.296 16.058,0.247 11.142,-4.604 6.502,-3.986 4.447,-3.7 2.721,-2.375 1.346,0 l 0,3.663 c 0.05,0.009 0.098,0.024 0.148,0.035 l -1.676,0 C -0.122,3.687 -0.061,3.668 0,3.659 L 0,0 z"
         id="path4580"
         style="fill:#4b190d;fill-opacity:1;fill-rule:nonzero;stroke:none" />
    </g>
    <g
       transform="matrix(1.25,0,0,-1.25,70.877422,694.76172)"
       id="g4582">
      <path
         d="m 0,0 c -0.162,0 -0.325,0.058 -0.455,0.178 -0.274,0.25 -0.291,0.676 -0.04,0.951 13.3,14.508 33.945,6.386 34.15,6.304 C 34,7.292 34.166,6.901 34.027,6.556 33.886,6.211 33.494,6.047 33.15,6.184 32.952,6.263 13.16,14.031 0.498,0.219 0.364,0.073 0.182,0 0,0"
         id="path4584"
         style="fill:#f5c799;fill-opacity:1;fill-rule:nonzero;stroke:none" />
    </g>
    <g
       transform="matrix(1.25,0,0,-1.25,76.352172,700.05472)"
       id="g4586">
      <path
         d="M 0,0 C -0.168,0 -0.338,0.063 -0.468,0.191 -0.736,0.448 -0.742,0.875 -0.483,1.144 11.971,13.983 28.218,9.662 28.383,9.617 28.741,9.518 28.951,9.146 28.852,8.789 28.752,8.43 28.384,8.216 28.022,8.318 27.868,8.362 12.367,12.458 0.482,0.203 0.351,0.068 0.176,0 0,0"
         id="path4588"
         style="fill:#f5c799;fill-opacity:1;fill-rule:nonzero;stroke:none" />
    </g>
    <g
       transform="matrix(1.25,0,0,-1.25,83.347423,705.94459)"
       id="g4590">
      <path
         d="m 0,0 c -0.133,0 -0.269,0.04 -0.388,0.122 -0.304,0.216 -0.376,0.633 -0.163,0.937 8.631,12.264 23.078,11.069 23.219,11.056 0.372,-0.034 0.643,-0.362 0.609,-0.732 -0.034,-0.37 -0.339,-0.644 -0.732,-0.61 C 22.409,10.784 8.723,11.897 0.55,0.286 0.419,0.099 0.212,0 0,0"
         id="path4592"
         style="fill:#f5c799;fill-opacity:1;fill-rule:nonzero;stroke:none" />
    </g>
    <g
       transform="matrix(1.25,0,0,-1.25,191.97904,694.76172)"
       id="g4594">
      <path
         d="m 0,0 c -0.182,0 -0.363,0.073 -0.497,0.219 -12.663,13.812 -32.454,6.044 -32.652,5.965 -0.348,-0.137 -0.737,0.027 -0.878,0.372 -0.139,0.345 0.027,0.736 0.372,0.877 0.206,0.082 20.851,8.204 34.151,-6.304 C 0.747,0.854 0.729,0.428 0.455,0.178 0.326,0.058 0.163,0 0,0"
         id="path4596"
         style="fill:#f5c799;fill-opacity:1;fill-rule:nonzero;stroke:none" />
    </g>
    <g
       transform="matrix(1.25,0,0,-1.25,186.50542,700.05472)"
       id="g4598">
      <path
         d="m 0,0 c -0.177,0 -0.35,0.068 -0.483,0.203 -11.907,12.275 -27.384,8.16 -27.54,8.115 -0.362,-0.1 -0.729,0.112 -0.83,0.471 -0.099,0.357 0.112,0.729 0.47,0.828 0.162,0.045 16.407,4.368 28.866,-8.473 C 0.741,0.875 0.736,0.448 0.468,0.191 0.337,0.063 0.168,0 0,0"
         id="path4600"
         style="fill:#f5c799;fill-opacity:1;fill-rule:nonzero;stroke:none" />
    </g>
    <g
       transform="matrix(1.25,0,0,-1.25,179.51017,705.94459)"
       id="g4602">
      <path
         d="m 0,0 c -0.212,0 -0.42,0.099 -0.55,0.286 -8.176,11.614 -21.864,10.501 -21.994,10.487 -0.387,-0.026 -0.7,0.242 -0.733,0.61 -0.034,0.37 0.238,0.698 0.608,0.732 0.142,0.013 14.589,1.208 23.22,-11.056 C 0.764,0.755 0.691,0.338 0.388,0.122 0.268,0.04 0.133,0 0,0"
         id="path4604"
         style="fill:#f5c799;fill-opacity:1;fill-rule:nonzero;stroke:none" />
    </g>
  </g>
</svg>
