<?xml version="1.0" encoding="UTF-8" standalone="no"?>
<!-- Created with Inkscape (http://www.inkscape.org/) -->

<svg
   xmlns:dc="http://purl.org/dc/elements/1.1/"
   xmlns:cc="http://creativecommons.org/ns#"
   xmlns:rdf="http://www.w3.org/1999/02/22-rdf-syntax-ns#"
   xmlns:svg="http://www.w3.org/2000/svg"
   xmlns="http://www.w3.org/2000/svg"
   version="1.1"
   width="114.38713"
   height="161.63438"
   id="svg13003">
  <defs
     id="defs13005" />
  <metadata
     id="metadata13008">
    <rdf:RDF>
      <cc:Work
         rdf:about="">
        <dc:format>image/svg+xml</dc:format>
        <dc:type
           rdf:resource="http://purl.org/dc/dcmitype/StillImage" />
        <dc:title></dc:title>
      </cc:Work>
    </rdf:RDF>
  </metadata>
  <g
     transform="translate(-317.80643,-451.54499)"
     id="layer1">
    <g
       transform="matrix(1.25,0,0,-1.25,432.19356,565.76612)"
       id="g3296">
      <path
         d="m 0,0 c 0,-20.505 -19.506,-37.316 -43.569,-37.316 -24.064,0 -43.571,16.811 -43.571,37.316 0,20.506 19.507,37.13 43.571,37.13 C -19.506,37.13 0,20.506 0,0"
         id="path3298"
         style="fill:#af5b2b;fill-opacity:1;fill-rule:nonzero;stroke:none" />
    </g>
    <g
       transform="matrix(1.25,0,0,-1.25,356.32568,470.39812)"
       id="g3300">
      <path
         d="m 0,0 c 1.918,0.735 3.732,0.566 5.38,0.115 1.643,-0.482 3.13,-1.35 4.369,-2.494 1.241,-1.143 2.224,-2.58 2.825,-4.199 0.574,-1.63 0.815,-3.435 0.22,-5.382 -1.898,0.731 -3.214,1.489 -4.418,2.255 -1.188,0.77 -2.205,1.561 -3.151,2.447 C 4.274,-6.375 3.398,-5.401 2.537,-4.261 1.679,-3.097 0.865,-1.817 0,0"
         id="path3302"
         style="fill:#b6382f;fill-opacity:1;fill-rule:nonzero;stroke:none" />
    </g>
    <g
       transform="matrix(1.25,0,0,-1.25,377.51831,455.83574)"
       id="g3304">
      <path
         d="m 0,0 c 1.809,-1.36 2.931,-2.973 3.822,-4.648 0.866,-1.686 1.434,-3.467 1.723,-5.314 0.283,-1.845 0.279,-3.763 -0.113,-5.699 -0.425,-1.903 -1.182,-3.964 -2.935,-5.455 -0.986,2.006 -1.718,3.549 -2.296,5.205 -0.566,1.631 -0.985,3.263 -1.237,4.946 -0.251,1.681 -0.349,3.409 -0.239,5.212 C -1.143,-3.941 -0.853,-2.082 0,0"
         id="path3306"
         style="fill:#b6382f;fill-opacity:1;fill-rule:nonzero;stroke:none" />
    </g>
    <g
       transform="matrix(1.25,0,0,-1.25,386.22918,460.77712)"
       id="g3308">
      <path
         d="m 0,0 c 1.437,-1.589 2.149,-3.271 2.621,-4.963 0.444,-1.697 0.578,-3.418 0.411,-5.14 -0.163,-1.72 -0.633,-3.448 -1.508,-5.094 -0.885,-1.582 -2.205,-3.332 -4.332,-3.94 -0.255,2.084 -0.635,3.535 -0.77,5.109 -0.149,1.539 -0.167,3.048 -0.013,4.575 0.153,1.526 0.465,3.063 0.997,4.63 C -2.036,-3.254 -1.318,-1.672 0,0"
         id="path3310"
         style="fill:#b6382f;fill-opacity:1;fill-rule:nonzero;stroke:none" />
    </g>
    <g
       transform="matrix(1.25,0,0,-1.25,318.62306,521.26111)"
       id="g3312">
      <path
         d="m 0,0 c 2.366,1.36 5.111,1.965 7.985,2.005 1.436,-0.029 2.895,-0.238 4.328,-0.649 1.419,-0.434 2.796,-1.068 4.075,-1.857 1.275,-0.791 2.54,-1.647 3.681,-2.645 1.138,-1.002 2.013,-2.238 2.581,-3.584 1.108,-2.712 1.497,-5.633 0.529,-8.661 l -0.636,-0.202 c -2.523,1.873 -4.097,3.751 -5.62,5.469 -0.743,0.864 -1.34,1.751 -1.874,2.708 -0.52,0.964 -1.115,1.912 -1.891,2.676 -0.762,0.775 -1.622,1.457 -2.575,2.022 C 9.647,-2.122 8.608,-1.64 7.497,-1.287 5.283,-0.513 2.749,-0.33 0.242,-0.623 L 0,0 z"
         id="path3314"
         style="fill:#3c3c3b;fill-opacity:1;fill-rule:nonzero;stroke:none" />
    </g>
    <g
       transform="matrix(1.25,0,0,-1.25,317.80643,509.04499)"
       id="g3316">
      <path
         d="m 0,0 c 1.592,1.214 3.389,2.12 5.356,2.706 1.96,0.587 4.123,0.831 6.307,0.499 2.175,-0.353 4.299,-1.316 6.074,-2.67 1.77,-1.371 3.195,-3.076 4.372,-4.86 1.189,-1.87 2.127,-3.467 3.147,-5.23 0.965,-1.746 1.715,-3.605 2.183,-5.581 0.457,-1.971 0.75,-4.021 0.691,-6.135 -0.074,-2.087 -0.277,-4.315 -1.649,-6.287 l -0.627,0.216 c -1.362,3.6 -3.213,6.718 -4.718,10.059 -0.766,1.658 -1.422,3.366 -1.95,5.156 -0.515,1.749 -1.052,3.704 -1.72,5.191 -1.403,3.087 -3.51,5.74 -6.62,6.912 C 7.75,1.233 3.826,0.797 0.35,-0.567 L 0,0 z"
         id="path3318"
         style="fill:#3c3c3b;fill-opacity:1;fill-rule:nonzero;stroke:none" />
    </g>
    <g
       transform="matrix(1.25,0,0,-1.25,339.39081,502.54649)"
       id="g3320">
      <path
         d="m 0,0 c 1.678,0.724 3.594,0.79 5.501,0.368 0.942,-0.233 1.874,-0.596 2.756,-1.069 0.861,-0.497 1.67,-1.099 2.402,-1.768 0.734,-0.674 1.494,-1.343 2.172,-2.088 0.666,-0.75 1.098,-1.638 1.263,-2.59 0.163,-0.948 0.164,-1.925 -0.065,-2.906 -0.205,-0.976 -0.587,-1.956 -1.366,-2.945 l -0.654,-0.126 c -1.09,0.609 -1.84,1.212 -2.488,1.802 -0.666,0.585 -1.176,1.16 -1.614,1.719 C 7.47,-9.041 7.213,-8.454 7.084,-7.782 6.963,-7.11 6.827,-6.417 6.53,-5.829 6.24,-5.237 5.895,-4.674 5.488,-4.154 5.102,-3.609 4.643,-3.104 4.107,-2.655 3.063,-1.726 1.664,-1.007 0.109,-0.656 L 0,0 z"
         id="path3322"
         style="fill:#3c3c3b;fill-opacity:1;fill-rule:nonzero;stroke:none" />
    </g>
    <g
       transform="matrix(1.25,0,0,-1.25,376.84443,566.21112)"
       id="g3324">
      <path
         d="m 0,0 c -0.323,0.01 -0.637,0.042 -0.948,0.086 -20.413,0.824 -31.378,16.709 -31.378,16.709 -3.003,-9.032 -3.015,-19.197 -3.015,-19.197 0.472,-19.505 16.419,-35.172 36.037,-35.172 l 0,37.619 C 0.543,0.036 0.401,0 0.249,0 L 0,0 z"
         id="path3326"
         style="fill:#3c3c3b;fill-opacity:1;fill-rule:nonzero;stroke:none" />
    </g>
    <g
       transform="matrix(1.25,0,0,-1.25,346.64668,509.53937)"
       id="g3328">
      <path
         d="m 0,0 -0.011,0.013 c 0,0 10e-4,-0.072 10e-4,-0.185 -0.052,-0.67 -0.099,-1.342 -0.099,-2.025 0,-0.209 0.021,-0.413 0.025,-0.621 -0.142,-2.516 -0.515,-6.445 -1.609,-10.589 -0.771,-2.906 -1.892,-5.918 -3.55,-8.621 -1.206,-1.971 -2.16,-4.207 -2.925,-6.514 0,0 10.965,-15.885 31.378,-16.709 l 0.005,0 c 0.307,-0.045 0.621,-0.077 0.943,-0.086 l 0.249,0 c 0.153,0 0.294,0.036 0.447,0.045 l 0,19.597 0,48.461 C 11.809,22.766 1.114,12.755 0,0"
         id="path3330"
         style="fill:#af5b2b;fill-opacity:1;fill-rule:nonzero;stroke:none" />
    </g>
    <g
       transform="matrix(1.25,0,0,-1.25,419.17118,545.71187)"
       id="g3332">
      <path
         d="m 0,0 c 0,0 -11.695,-16.354 -33.165,-16.354 l 0,-37.62 c 19.633,0 35.59,15.693 36.035,35.218 0,0 -0.011,9.836 -2.87,18.756"
         id="path3334"
         style="fill:#575756;fill-opacity:1;fill-rule:nonzero;stroke:none" />
    </g>
    <g
       transform="matrix(1.25,0,0,-1.25,415.36868,537.07474)"
       id="g3336">
      <path
         d="m 0,0 c -1.516,2.487 -2.589,5.233 -3.35,7.915 -1.301,4.58 -1.695,8.981 -1.821,11.613 0,0.101 0.011,0.202 0.011,0.303 0,0.455 -0.044,0.9 -0.068,1.349 -0.009,0.537 -0.002,0.862 -0.002,0.862 l -0.039,-0.056 c -1.096,12.778 -11.794,22.808 -24.854,22.808 l 0,-48.461 0,-19.597 c 21.47,0 33.165,16.354 33.165,16.354 C 2.26,-4.466 1.271,-2.087 0,0"
         id="path3338"
         style="fill:#ea8232;fill-opacity:1;fill-rule:nonzero;stroke:none" />
    </g>
    <g
       transform="matrix(1.25,0,0,-1.25,388.95993,534.32812)"
       id="g3340">
      <path
         d="m 0,0 0,0.017 c 0,5.544 -5.018,10.043 -9.153,10.043 -4.136,0 -9.154,-4.499 -9.154,-10.043 0,-2.224 -0.172,-8.055 4.024,-8.055 1.236,0 2.33,0.569 3.067,1.449 0.694,-0.075 1.392,-0.109 2.063,-0.109 0.673,0 1.369,0.034 2.064,0.109 0.735,-0.88 1.829,-1.449 3.068,-1.449 C 0.165,-8.038 0,-2.229 0,0"
         id="path3342"
         style="fill:#ea575b;fill-opacity:1;fill-rule:nonzero;stroke:none" />
    </g>
    <g
       transform="matrix(1.25,0,0,-1.25,364.94018,498.91862)"
       id="g3344">
      <path
         d="m 0,0 c -6.136,0 -11.109,-4.726 -11.109,-10.554 0,-5.831 4.973,-10.554 11.109,-10.554 4.587,0 8.523,-0.67 10.22,3.085 l 0,11.609 C 8.523,-2.643 4.589,0 0,0"
         id="path3346"
         style="fill:#b6382f;fill-opacity:1;fill-rule:nonzero;stroke:none" />
    </g>
    <g
       transform="matrix(1.25,0,0,-1.25,390.52493,525.30349)"
       id="g3348">
      <path
         d="m 0,0 c 6.135,0 11.11,4.723 11.11,10.554 0,5.828 -4.975,10.554 -11.11,10.554 -4.601,0 -8.545,-2.655 -10.234,-6.439 -0.003,0.006 -0.01,0.017 -0.014,0.025 l 0,-11.61 c 0.004,0.01 0.011,0.017 0.014,0.026 C -8.545,-0.673 -4.601,0 0,0"
         id="path3350"
         style="fill:#ea575b;fill-opacity:1;fill-rule:nonzero;stroke:none" />
    </g>
    <g
       transform="matrix(1.25,0,0,-1.25,375.27218,522.09799)"
       id="g3352">
      <path
         d="M 0,0 -2.69,-1.775 C -3.772,-2.49 -4.114,-3.986 -3.451,-5.1 l 4.212,-7.073 c 0.332,-0.56 0.769,-0.839 1.207,-0.839 l 0,13.548 C 1.252,0.536 0.542,0.357 0,0"
         id="path3354"
         style="fill:#f39e2b;fill-opacity:1;fill-rule:nonzero;stroke:none" />
    </g>
    <g
       transform="matrix(1.25,0,0,-1.25,379.24068,537.31462)"
       id="g3356">
      <path
         d="m 0,0 4.212,7.073 c 0.665,1.115 0.321,2.61 -0.761,3.325 l -2.69,1.775 c -0.542,0.357 -1.255,0.536 -1.968,0.536 l 0,-13.547 C -0.77,-0.838 -0.332,-0.56 0,0"
         id="path3358"
         style="fill:#fbdd58;fill-opacity:1;fill-rule:nonzero;stroke:none" />
    </g>
    <g
       transform="matrix(1.25,0,0,-1.25,367.37181,512.13949)"
       id="g3360">
      <path
         d="m 0,0 c 0,-1.99 -1.615,-3.602 -3.601,-3.602 -1.989,0 -3.6,1.612 -3.6,3.602 0,1.986 1.611,3.598 3.6,3.598 C -1.615,3.598 0,1.986 0,0"
         id="path3362"
         style="fill:#4e1412;fill-opacity:1;fill-rule:nonzero;stroke:none" />
    </g>
    <g
       transform="matrix(1.25,0,0,-1.25,396.66868,512.13949)"
       id="g3364">
      <path
         d="m 0,0 c 0,-1.99 -1.614,-3.602 -3.601,-3.602 -1.987,0 -3.6,1.612 -3.6,3.602 0,1.986 1.613,3.598 3.6,3.598 C -1.614,3.598 0,1.986 0,0"
         id="path3366"
         style="fill:#4e1412;fill-opacity:1;fill-rule:nonzero;stroke:none" />
    </g>
    <g
       transform="matrix(1.25,0,0,-1.25,366.07668,510.35537)"
       id="g3368">
      <path
         d="m 0,0 c 0,-0.68 -0.552,-1.231 -1.231,-1.231 -0.68,0 -1.231,0.551 -1.231,1.231 0,0.68 0.551,1.231 1.231,1.231 C -0.552,1.231 0,0.68 0,0"
         id="path3370"
         style="fill:#ffffff;fill-opacity:1;fill-rule:nonzero;stroke:none" />
    </g>
    <g
       transform="matrix(1.25,0,0,-1.25,395.24418,510.35537)"
       id="g3372">
      <path
         d="m 0,0 c 0,-0.68 -0.55,-1.231 -1.231,-1.231 -0.68,0 -1.23,0.551 -1.23,1.231 0,0.68 0.55,1.231 1.23,1.231 C -0.55,1.231 0,0.68 0,0"
         id="path3374"
         style="fill:#ffffff;fill-opacity:1;fill-rule:nonzero;stroke:none" />
    </g>
    <g
       transform="matrix(1.25,0,0,-1.25,357.07643,451.54499)"
       id="g3376">
      <path
         d="m 0,0 c 3.276,-1.799 5.771,-3.899 8.058,-5.68 0.559,-0.443 1.113,-0.842 1.588,-1.176 0.253,-0.18 0.461,-0.263 0.69,-0.418 l 0.925,-0.614 c 1.334,-0.903 2.877,-2.209 4.129,-3.785 2.578,-3.185 3.752,-7.162 3.807,-10.744 0.04,-3.627 -0.801,-7.073 -2.843,-10.242 -2.115,3.113 -3.444,5.978 -4.81,8.484 -1.335,2.531 -2.577,4.54 -3.958,6.273 -0.706,0.894 -1.478,1.736 -2.524,2.881 l -0.85,0.942 c -0.354,0.374 -0.71,0.84 -0.987,1.241 -0.593,0.818 -1.034,1.641 -1.419,2.455 C 0.341,-7.111 -0.353,-3.764 0,0"
         id="path3378"
         style="fill:#ea575b;fill-opacity:1;fill-rule:nonzero;stroke:none" />
    </g>
  </g>
</svg>
