<?xml version="1.0" encoding="UTF-8" standalone="no"?>
<!-- Created with Inkscape (http://www.inkscape.org/) -->

<svg
   xmlns:dc="http://purl.org/dc/elements/1.1/"
   xmlns:cc="http://creativecommons.org/ns#"
   xmlns:rdf="http://www.w3.org/1999/02/22-rdf-syntax-ns#"
   xmlns:svg="http://www.w3.org/2000/svg"
   xmlns="http://www.w3.org/2000/svg"
   version="1.1"
   width="122.78179"
   height="136.78963"
   id="svg15019">
  <defs
     id="defs15021" />
  <metadata
     id="metadata15024">
    <rdf:RDF>
      <cc:Work
         rdf:about="">
        <dc:format>image/svg+xml</dc:format>
        <dc:type
           rdf:resource="http://purl.org/dc/dcmitype/StillImage" />
        <dc:title></dc:title>
      </cc:Work>
    </rdf:RDF>
  </metadata>
  <g
     transform="translate(-98.609102,-558.25308)"
     id="layer1">
    <g
       transform="matrix(1.25,0,0,-1.25,122.54978,691.66943)"
       id="g5434">
      <path
         d="m 0,0 c -0.978,0 -1.771,0.794 -1.771,1.77 0,0.979 0.793,1.773 1.771,1.773 0.979,0 1.771,-0.794 1.771,-1.773 C 1.771,0.794 0.979,0 0,0 m 16.294,20.109 c -1.859,0 -3.367,-1.507 -3.367,-3.367 C 12.927,9.94 7.393,4.405 0.59,4.405 c -3.531,0 -6.715,1.494 -8.964,3.88 -0.629,-0.64 -1.505,-1.044 -2.472,-1.044 -1.914,0 -3.468,1.558 -3.468,3.47 0,1.705 1.237,3.117 2.859,3.408 -0.085,0.389 -0.154,0.782 -0.201,1.185 -3.34,-1.508 -5.559,-0.68 -6.759,0.17 0.345,-5.239 2.826,-9.894 6.561,-13.132 0.876,1.894 3.01,2.954 5.089,2.396 1.121,-0.302 2.057,-1.024 2.63,-2.03 0.572,-1.009 0.718,-2.178 0.407,-3.3 L -6.323,0.131 C -6.204,0.554 -6.26,0.995 -6.474,1.373 -6.692,1.752 -7.044,2.024 -7.468,2.14 -8.359,2.375 -9.268,1.853 -9.512,0.97 -9.546,0.848 -9.535,0.729 -9.54,0.605 c 2.936,-1.853 6.406,-2.932 10.13,-2.932 10.515,0 19.07,8.555 19.07,19.069 0,1.86 -1.507,3.367 -3.366,3.367"
         id="path5436"
         style="fill:#cb8128;fill-opacity:1;fill-rule:nonzero;stroke:none" />
    </g>
    <g
       transform="matrix(1.25,0,0,-1.25,108.02215,678.28071)"
       id="g5438">
      <path
         d="m 0,0 c 0,-0.428 0.349,-0.774 0.776,-0.774 0.391,0 0.703,0.295 0.755,0.672 -0.284,0.494 -0.54,1.004 -0.755,1.537 l 0,-0.659 C 0.349,0.776 0,0.428 0,0"
         id="path5440"
         style="fill:#cb8128;fill-opacity:1;fill-rule:nonzero;stroke:none" />
    </g>
    <g
       transform="matrix(1.25,0,0,-1.25,107.98003,672.53971)"
       id="g5442">
      <path
         d="m 0,0 c -0.057,0.475 -0.092,0.952 -0.092,1.438 0,1.416 0.238,2.805 0.708,4.126 C 1.236,7.319 0.32,9.242 -1.433,9.863 -3.184,10.484 -5.107,9.57 -5.731,7.817 -6.457,5.769 -6.825,3.622 -6.825,1.438 -6.825,1.013 -6.788,0.59 -6.759,0.17 -5.56,-0.68 -3.34,-1.508 0,0"
         id="path5444"
         style="fill:#4b190d;fill-opacity:1;fill-rule:nonzero;stroke:none" />
    </g>
    <g
       transform="matrix(1.25,0,0,-1.25,104.65665,678.28071)"
       id="g5446">
      <path
         d="m 0,0 c 0,-1.912 1.555,-3.47 3.468,-3.47 0.968,0 1.844,0.404 2.473,1.044 -0.661,0.7 -1.234,1.484 -1.717,2.324 C 4.171,-0.479 3.86,-0.774 3.468,-0.774 3.041,-0.774 2.692,-0.428 2.692,0 c 0,0.428 0.349,0.776 0.776,0.776 l 0,0.659 C 3.212,2.067 3.008,2.727 2.86,3.408 1.237,3.117 0,1.705 0,0"
         id="path5448"
         style="fill:#4b190d;fill-opacity:1;fill-rule:nonzero;stroke:none" />
    </g>
    <g
       transform="matrix(1.25,0,0,-1.25,113.21503,688.99483)"
       id="g5450">
      <path
         d="m 0,0 c 0.423,-0.115 0.775,-0.388 0.994,-0.767 0.214,-0.378 0.27,-0.819 0.151,-1.242 L 3.74,-2.731 C 4.05,-1.609 3.905,-0.44 3.333,0.568 2.759,1.574 1.824,2.296 0.703,2.599 -1.376,3.156 -3.51,2.097 -4.386,0.202 c 0.728,-0.633 1.495,-1.219 2.314,-1.736 0.005,0.124 -0.007,0.242 0.028,0.364 C -1.8,-0.287 -0.892,0.235 0,0"
         id="path5452"
         style="fill:#4b190d;fill-opacity:1;fill-rule:nonzero;stroke:none" />
    </g>
    <g
       transform="matrix(1.25,0,0,-1.25,122.54978,687.24071)"
       id="g5454">
      <path
         d="m 0,0 c -0.978,0 -1.771,-0.794 -1.771,-1.773 0,-0.976 0.793,-1.77 1.771,-1.77 0.979,0 1.771,0.794 1.771,1.77 C 1.771,-0.794 0.979,0 0,0"
         id="path5456"
         style="fill:#4b190d;fill-opacity:1;fill-rule:nonzero;stroke:none" />
    </g>
    <g
       transform="matrix(1.25,0,0,-1.25,182.28416,664.70771)"
       id="g5458">
      <path
         d="m 0,0 c 0,1.912 1.556,3.47 3.471,3.47 l 0,-2.695 C 3.042,0.775 2.694,0.428 2.694,0 c 0,-0.429 0.348,-0.775 0.777,-0.775 0.425,0 0.774,0.346 0.774,0.775 L 6.644,0 C 8.619,3.585 9.836,7.644 10.024,11.982 4.438,3.618 -5.674,-1.997 -17.267,-2.025 l 0,-12.152 c 1.674,0 3.302,0.172 4.892,0.459 l 0,-1.731 c -2.626,-2.046 -4.324,-5.232 -4.324,-8.819 l 22.371,0 c 0,3.587 -1.696,6.773 -4.321,8.819 l 0,8.622 C 2.51,-5.746 3.563,-4.555 4.52,-3.289 4.187,-3.396 3.839,-3.469 3.471,-3.469 1.556,-3.469 0,-1.913 0,0"
         id="path5460"
         style="fill:#f39e2b;fill-opacity:1;fill-rule:nonzero;stroke:none" />
    </g>
    <g
       transform="matrix(1.25,0,0,-1.25,187.59003,664.70771)"
       id="g5462">
      <path
         d="m 0,0 c 0,-0.429 -0.348,-0.775 -0.774,-0.775 -0.429,0 -0.777,0.346 -0.777,0.775 0,0.428 0.348,0.775 0.777,0.775 l 0,2.695 c -1.914,0 -3.471,-1.558 -3.471,-3.47 0,-1.913 1.557,-3.469 3.471,-3.469 0.369,0 0.716,0.073 1.049,0.18 0.787,1.041 1.49,2.142 2.124,3.289 L 0,0 z"
         id="path5464"
         style="fill:#4b190d;fill-opacity:1;fill-rule:nonzero;stroke:none" />
    </g>
    <g
       transform="matrix(1.25,0,0,-1.25,133.7124,657.78758)"
       id="g5466">
      <path
         d="M 0,0 C -0.1,0.079 -0.196,0.162 -0.294,0.245 -0.196,0.162 -0.1,0.079 0,0"
         id="path5468"
         style="fill:#cb8128;fill-opacity:1;fill-rule:nonzero;stroke:none" />
    </g>
    <g
       transform="matrix(1.25,0,0,-1.25,141.26615,662.71308)"
       id="g5470">
      <path
         d="M 0,0 0,0.001 C -0.01,0.007 -0.02,0.012 -0.029,0.017 -0.02,0.011 -0.01,0.005 0,0"
         id="path5472"
         style="fill:#cb8128;fill-opacity:1;fill-rule:nonzero;stroke:none" />
    </g>
    <g
       transform="matrix(1.25,0,0,-1.25,129.7104,653.98021)"
       id="g5474">
      <path
         d="M 0,0 C 0.397,-0.439 0.804,-0.868 1.227,-1.285 0.804,-0.868 0.397,-0.439 0,0 m -1.197,1.406 c 0.349,-0.439 0.707,-0.87 1.081,-1.289 -0.374,0.419 -0.732,0.85 -1.081,1.289 m -1.361,3.187 c 0,-0.497 0.049,-0.978 0.076,-1.467 0.358,-0.523 0.735,-1.035 1.129,-1.536 -0.394,0.501 -0.771,1.013 -1.129,1.536 0.227,-4.213 1.424,-8.157 3.34,-11.652 0.668,0.083 1.348,-0.029 1.963,-0.334 0.832,-0.413 1.45,-1.124 1.747,-2.002 0.294,-0.878 0.23,-1.819 -0.183,-2.65 -0.007,-0.011 -0.016,-0.022 -0.023,-0.035 0.577,-0.648 1.181,-1.27 1.817,-1.862 l 0,-8.622 C 3.554,-26.077 1.857,-29.263 1.857,-32.85 l 22.367,0 c 0,3.587 -1.694,6.773 -4.32,8.819 l 0,1.731 c 1.588,-0.287 3.216,-0.459 4.888,-0.459 l 0,12.152 c -0.027,0 -0.057,-0.003 -0.083,-0.003 -5.618,0 -10.883,1.322 -15.464,3.625 l 0,-10e-4 c -0.01,0.005 -0.02,0.01 -0.03,0.016 -0.724,0.366 -1.431,0.755 -2.119,1.168 -0.031,0.019 -0.059,0.037 -0.088,0.054 -0.674,0.41 -1.331,0.836 -1.968,1.289 -0.019,0.014 -0.036,0.024 -0.053,0.035 -0.615,0.438 -1.208,0.899 -1.785,1.378 -0.1,0.079 -0.197,0.162 -0.294,0.245 -0.564,0.477 -1.115,0.967 -1.64,1.479 0.525,-0.512 1.076,-1.002 1.64,-1.479 0.097,-0.083 0.194,-0.166 0.294,-0.245 0.577,-0.477 1.17,-0.94 1.785,-1.378 0.017,-0.011 0.035,-0.023 0.053,-0.035 0.637,-0.453 1.294,-0.881 1.968,-1.289 0.029,-0.017 0.057,-0.035 0.088,-0.054 0.688,-0.413 1.395,-0.802 2.119,-1.168 0.01,-0.005 0.02,-0.009 0.03,-0.015 -0.307,1.814 -0.581,3.724 -0.879,5.729 2.15,-0.652 4.434,-1.274 6.861,-1.844 -0.002,-0.005 -0.004,-0.009 -0.007,-0.015 1.827,-0.913 3.73,-1.943 5.705,-3.1 1.262,-0.741 2.546,-1.517 3.867,-2.367 l 0,11.925 0,28.602 c -15.105,0 -27.35,-12.248 -27.35,-27.352"
         id="path5476"
         style="fill:#cb8128;fill-opacity:1;fill-rule:nonzero;stroke:none" />
    </g>
    <g
       transform="matrix(1.25,0,0,-1.25,138.58003,661.23233)"
       id="g5478">
      <path
         d="M 0,0 C -0.03,0.019 -0.059,0.037 -0.088,0.054 -0.059,0.037 -0.03,0.019 0,0"
         id="path5480"
         style="fill:#cb8128;fill-opacity:1;fill-rule:nonzero;stroke:none" />
    </g>
    <g
       transform="matrix(1.25,0,0,-1.25,136.0104,659.55396)"
       id="g5482">
      <path
         d="M 0,0 C -0.018,0.012 -0.036,0.024 -0.053,0.035 -0.036,0.024 -0.02,0.014 0,0"
         id="path5484"
         style="fill:#cb8128;fill-opacity:1;fill-rule:nonzero;stroke:none" />
    </g>
    <g
       transform="matrix(1.25,0,0,-1.25,135.42015,667.55808)"
       id="g5486">
      <path
         d="m 0,0 c -0.297,0.878 -0.915,1.589 -1.747,2.002 -0.615,0.306 -1.295,0.417 -1.962,0.334 0.987,-1.802 2.148,-3.494 3.503,-5.021 0.007,0.013 0.017,0.024 0.023,0.036 C 0.23,-1.818 0.294,-0.878 0,0"
         id="path5488"
         style="fill:#4b190d;fill-opacity:1;fill-rule:nonzero;stroke:none" />
    </g>
    <g
       transform="matrix(1.25,0,0,-1.25,160.7004,614.04858)"
       id="g5490">
      <path
         d="m 0,0 0,-28.603 0.003,0 0,-11.924 c 1.323,0.849 2.605,1.626 3.872,2.367 1.972,1.157 3.874,2.186 5.703,3.099 2.479,0.582 4.806,1.212 6.991,1.88 -0.286,-1.943 -0.544,-3.807 -0.831,-5.572 4.744,2.456 8.728,5.978 11.554,10.208 0.018,0.399 0.062,0.79 0.062,1.192 C 27.354,-12.248 15.109,0 0,0"
         id="path5492"
         style="fill:#cb8128;fill-opacity:1;fill-rule:nonzero;stroke:none" />
    </g>
    <g
       transform="matrix(1.25,0,0,-1.25,160.70465,656.29346)"
       id="g5494">
      <path
         d="m 0,0 -0.003,0 c -1.322,0.852 -14.519,0.812 -16.665,1.468 0.295,-2.006 0.811,-4.789 1.117,-6.604 1.567,-9.307 4.048,-15.772 15.548,-15.772 l 0,12.151 c 5.732,0.017 11.098,1.399 15.738,3.8 0.286,1.765 0.613,4.345 0.899,6.286 C 14.45,0.662 1.322,0.852 0,0"
         id="path5496"
         style="fill:#d5d2b1;fill-opacity:1;fill-rule:nonzero;stroke:none" />
    </g>
    <g
       transform="matrix(1.25,0,0,-1.25,180.37316,662.48971)"
       id="g5498">
      <path
         d="m 0,0 c -4.64,-2.401 -10.006,-3.783 -15.738,-3.8 l 0,-12.151 C -3.898,-15.951 -1.536,-9.408 0,0"
         id="path5500"
         style="fill:#f6f3cf;fill-opacity:1;fill-rule:nonzero;stroke:none" />
    </g>
    <g
       transform="matrix(1.25,0,0,-1.25,136.76728,654.31221)"
       id="g5502">
      <path
         d="m 0,0 c -0.705,0.6 -1.592,0.882 -2.527,0.813 -0.923,-0.076 -1.762,-0.504 -2.362,-1.21 -0.6,-0.707 -0.887,-1.605 -0.814,-2.53 0.076,-0.923 0.506,-1.76 1.213,-2.36 0.632,-0.539 1.419,-0.827 2.239,-0.827 0.096,0 0.19,0.004 0.288,0.01 l -0.22,2.686 c -0.202,-0.014 -0.406,0.047 -0.563,0.182 -0.158,0.133 -0.255,0.321 -0.271,0.528 -0.017,0.208 0.048,0.409 0.18,0.567 0.134,0.159 0.323,0.252 0.528,0.268 0.205,0.025 0.41,-0.046 0.567,-0.179 0.159,-0.135 0.253,-0.323 0.268,-0.529 l 2.686,0.218 C 1.138,-1.44 0.709,-0.6 0,0"
         id="path5504"
         style="fill:#4b190d;fill-opacity:1;fill-rule:nonzero;stroke:none" />
    </g>
    <g
       transform="matrix(1.25,0,0,-1.25,138.58003,666.71583)"
       id="g5506">
      <path
         d="M 0,0 C 0.978,0 1.771,0.794 1.771,1.772 1.771,2.749 0.978,3.545 0,3.545 -0.978,3.545 -1.771,2.749 -1.771,1.772 -1.771,0.794 -0.978,0 0,0"
         id="path5508"
         style="fill:#4b190d;fill-opacity:1;fill-rule:nonzero;stroke:none" />
    </g>
    <g
       transform="matrix(1.25,0,0,-1.25,190.98841,655.47683)"
       id="g5510">
      <path
         d="m 0,0 c -0.979,0 -1.772,-0.795 -1.772,-1.771 0,-0.979 0.793,-1.772 1.772,-1.772 0.977,0 1.771,0.793 1.771,1.772 C 1.771,-0.795 0.977,0 0,0"
         id="path5512"
         style="fill:#4b190d;fill-opacity:1;fill-rule:nonzero;stroke:none" />
    </g>
    <g
       transform="matrix(1.25,0,0,-1.25,154.45278,650.73558)"
       id="g5514">
      <path
         d="M 0,0 C 0.005,-0.008 0.013,-0.019 0.016,-0.024 0.013,-0.017 0.005,-0.008 0.003,0.002 0.003,0.002 0,0.002 0,0"
         id="path5516"
         style="fill:#07171b;fill-opacity:1;fill-rule:nonzero;stroke:none" />
    </g>
    <g
       transform="matrix(1.25,0,0,-1.25,160.6174,649.10721)"
       id="g5518">
      <path
         d="M 0,0 C 0.013,0 0.024,0.003 0.034,0.003 0.024,0.003 0.013,0.005 0,0.005 L 0,0 z"
         id="path5520"
         style="fill:#a84720;fill-opacity:1;fill-rule:nonzero;stroke:none" />
    </g>
    <g
       transform="matrix(1.25,0,0,-1.25,147.53753,576.46183)"
       id="g5522">
      <path
         d="m 0,0 c 0,-8.044 -6.521,-14.567 -14.566,-14.567 -8.046,0 -14.568,6.523 -14.568,14.567 0,8.046 6.522,14.567 14.568,14.567 C -6.521,14.567 0,8.046 0,0"
         id="path5524"
         style="fill:#af5b2b;fill-opacity:1;fill-rule:nonzero;stroke:none" />
    </g>
    <g
       transform="matrix(1.25,0,0,-1.25,139.82578,576.46183)"
       id="g5526">
      <path
         d="m 0,0 c 0,-4.638 -3.759,-8.397 -8.397,-8.397 -4.639,0 -8.399,3.759 -8.399,8.397 0,4.638 3.76,8.398 8.399,8.398 C -3.759,8.398 0,4.638 0,0"
         id="path5528"
         style="fill:#4b190d;fill-opacity:1;fill-rule:nonzero;stroke:none" />
    </g>
    <g
       transform="matrix(1.25,0,0,-1.25,209.19827,576.46183)"
       id="g5530">
      <path
         d="m 0,0 c 0,-8.044 -6.522,-14.567 -14.568,-14.567 -8.044,0 -14.567,6.523 -14.567,14.567 0,8.046 6.523,14.567 14.567,14.567 C -6.522,14.567 0,8.046 0,0"
         id="path5532"
         style="fill:#f39e2b;fill-opacity:1;fill-rule:nonzero;stroke:none" />
    </g>
    <g
       transform="matrix(1.25,0,0,-1.25,201.48765,576.46183)"
       id="g5534">
      <path
         d="m 0,0 c 0,-4.638 -3.761,-8.397 -8.399,-8.397 -4.638,0 -8.398,3.759 -8.398,8.397 0,4.638 3.76,8.398 8.398,8.398 C -3.761,8.398 0,4.638 0,0"
         id="path5536"
         style="fill:#4b190d;fill-opacity:1;fill-rule:nonzero;stroke:none" />
    </g>
    <g
       transform="matrix(1.25,0,0,-1.25,147.53753,576.46183)"
       id="g5538">
      <path
         d="m 0,0 c 0,-8.044 -6.521,-14.567 -14.566,-14.567 -8.046,0 -14.568,6.523 -14.568,14.567 0,8.046 6.522,14.567 14.568,14.567 C -6.521,14.567 0,8.046 0,0"
         id="path5540"
         style="fill:#f39e2b;fill-opacity:1;fill-rule:nonzero;stroke:none" />
    </g>
    <g
       transform="matrix(1.25,0,0,-1.25,139.82578,576.46183)"
       id="g5542">
      <path
         d="m 0,0 c 0,-4.638 -3.759,-8.397 -8.397,-8.397 -4.639,0 -8.399,3.759 -8.399,8.397 0,4.638 3.76,8.398 8.399,8.398 C -3.759,8.398 0,4.638 0,0"
         id="path5544"
         style="fill:#4b190d;fill-opacity:1;fill-rule:nonzero;stroke:none" />
    </g>
    <g
       transform="matrix(1.25,0,0,-1.25,213.64652,631.71208)"
       id="g5546">
      <path
         d="m 0,0 c 0.109,-0.063 0.221,-0.126 0.329,-0.19 0,0 -4.577,6.419 -6.769,15.349 0,19.316 -8.671,37.066 -35.98,37.066 l 0,-42.09 0,-9.528 c -0.007,-0.003 -0.013,-0.004 -0.018,-0.009 l 0.018,-7.368 0,-1.756 0.003,0 0.031,-11.929 C -19.459,-23.395 1.16,-1.28 1.16,-1.28 0.855,-0.833 0.463,-0.405 0,0"
         id="path5548"
         style="fill:#f39e2b;fill-opacity:1;fill-rule:nonzero;stroke:none" />
    </g>
    <g
       transform="matrix(1.25,0,0,-1.25,115.7034,612.76321)"
       id="g5550">
      <path
         d="m 0,0 c -2.191,-8.93 -6.768,-15.35 -6.768,-15.35 0.108,0.065 0.219,0.127 0.329,0.191 -0.463,-0.405 -0.857,-0.833 -1.16,-1.28 0,0 10.879,-11.658 25.616,-16.917 l 0,7.013 c 0,5.245 0.639,7.82 1.213,9.079 6,-2.373 10.58,-5.248 11.77,-7.754 1.483,0.825 3.168,1.332 4.981,1.332 l 0,18.662 0,42.089 C 8.673,37.065 0,19.315 0,0"
         id="path5552"
         style="fill:#cb8128;fill-opacity:1;fill-rule:nonzero;stroke:none" />
    </g>
    <g
       transform="matrix(1.25,0,0,-1.25,145.93903,629.96158)"
       id="g5554">
      <path
         d="m 0,0 c -1.472,-0.605 -2.881,-1.359 -4.068,-2.321 0,0 -2.104,-0.753 -2.104,-10.263 l 0,-7.014 c 5.555,-1.983 11.32,-3.603 17.932,-3.603 l 0.052,22.398 C 5.618,2.245 3.147,0.994 0,0"
         id="path5556"
         style="fill:#d5d2b1;fill-opacity:1;fill-rule:nonzero;stroke:none" />
    </g>
    <g
       transform="matrix(1.25,0,0,-1.25,175.32616,629.96158)"
       id="g5558">
      <path
         d="m 0,0 c 1.472,-0.605 2.884,-1.359 4.07,-2.321 0,0 2.103,-0.753 2.103,-10.263 l 0,-7.014 c -5.554,-1.983 -11.681,-3.603 -17.931,-3.603 L -11.81,-0.803 C -5.619,2.245 -3.146,0.994 0,0"
         id="path5560"
         style="fill:#f6f3cf;fill-opacity:1;fill-rule:nonzero;stroke:none" />
    </g>
    <g
       transform="matrix(1.25,0,0,-1.25,130.43178,604.62346)"
       id="g5562">
      <path
         d="M 0,0 C 0,0 14.981,4.343 14.644,-10.89 14.644,-10.89 0,-16.207 0,0"
         id="path5564"
         style="fill:#4b190d;fill-opacity:1;fill-rule:nonzero;stroke:none" />
    </g>
    <g
       transform="matrix(1.25,0,0,-1.25,146.74528,611.79396)"
       id="g5566">
      <path
         d="m 0,0 c 0,-3.068 -2.488,-5.555 -5.555,-5.555 -3.067,0 -5.554,2.487 -5.554,5.555 0,3.067 2.487,5.554 5.554,5.554 C -2.488,5.554 0,3.067 0,0"
         id="path5568"
         style="fill:#68a284;fill-opacity:1;fill-rule:nonzero;stroke:none" />
    </g>
    <g
       transform="matrix(1.25,0,0,-1.25,144.5169,608.92771)"
       id="g5570">
      <path
         d="m 0,0 c 0,-1.057 -0.858,-1.914 -1.916,-1.914 -1.057,0 -1.913,0.857 -1.913,1.914 0,1.06 0.856,1.915 1.913,1.915 C -0.858,1.915 0,1.06 0,0"
         id="path5572"
         style="fill:#ffffff;fill-opacity:1;fill-rule:nonzero;stroke:none" />
    </g>
    <g
       transform="matrix(1.25,0,0,-1.25,190.98841,604.62346)"
       id="g5574">
      <path
         d="M 0,0 C 0,0 -14.979,4.343 -14.642,-10.89 -14.642,-10.89 0,-16.207 0,0"
         id="path5576"
         style="fill:#4b190d;fill-opacity:1;fill-rule:nonzero;stroke:none" />
    </g>
    <g
       transform="matrix(1.25,0,0,-1.25,174.55591,611.79396)"
       id="g5578">
      <path
         d="m 0,0 c 0,-3.068 2.487,-5.555 5.553,-5.555 3.068,0 5.557,2.487 5.557,5.555 0,3.067 -2.489,5.554 -5.557,5.554 C 2.487,5.554 0,3.067 0,0"
         id="path5580"
         style="fill:#68a284;fill-opacity:1;fill-rule:nonzero;stroke:none" />
    </g>
    <g
       transform="matrix(1.25,0,0,-1.25,181.83378,608.92771)"
       id="g5582">
      <path
         d="m 0,0 c 0,-1.057 0.858,-1.914 1.915,-1.914 1.058,0 1.916,0.857 1.916,1.914 0,1.06 -0.858,1.915 -1.916,1.915 C 0.858,1.915 0,1.06 0,0"
         id="path5584"
         style="fill:#ffffff;fill-opacity:1;fill-rule:nonzero;stroke:none" />
    </g>
    <g
       transform="matrix(1.25,0,0,-1.25,159.52903,637.66796)"
       id="g5586">
      <path
         d="m 0,0 c -0.833,0.151 -1.543,0.515 -2.013,1.064 -2.211,2.591 -5.127,4.386 -6.683,5.264 1.516,0.46 4.654,1.173 9.551,1.173 4.832,0 7.997,-0.717 9.526,-1.176 C 7.611,4.631 5.193,2.754 3.503,0.98 3.028,0.482 2.396,0.151 1.624,0 L 0,0 z"
         id="path5588"
         style="fill:#d76c79;fill-opacity:1;fill-rule:nonzero;stroke:none" />
    </g>
    <g
       transform="matrix(1.25,0,0,-1.25,160.5984,627.59708)"
       id="g5590">
      <path
         d="m 0,0 c -7.383,0 -10.91,-1.619 -10.885,-1.619 l 10e-4,0 c 0.084,-0.12 4.55,-2.167 7.593,-5.735 0.638,-0.746 1.543,-1.105 2.436,-1.257 l 1.676,0 c 0.822,0.151 1.615,0.508 2.229,1.153 3.178,3.335 7.739,5.812 7.78,5.859 C 10.83,-1.599 7.3,0 0,0 m 0,-1.11 c 3.722,0 6.434,-0.431 8.149,-0.831 C 5.782,-3.477 3.767,-5.097 2.247,-6.692 1.862,-7.097 1.346,-7.368 0.713,-7.501 l -1.468,0 c -0.753,0.143 -1.321,0.435 -1.691,0.868 -1.794,2.104 -4.032,3.69 -5.672,4.702 1.716,0.398 4.413,0.821 8.118,0.821"
         id="path5592"
         style="fill:#4b190d;fill-opacity:1;fill-rule:nonzero;stroke:none" />
    </g>
    <g
       transform="matrix(1.25,0,0,-1.25,159.75615,642.98408)"
       id="g5594">
      <path
         d="m 0,0 c -1.371,-2.365 -3.103,-3.708 -5.152,-3.987 -4.636,-0.622 -9.56,4.235 -9.61,4.284 -0.262,0.266 -0.689,0.266 -0.952,0 -0.264,-0.26 -0.264,-0.69 -0.002,-0.95 0.206,-0.207 4.777,-4.738 9.707,-4.738 0.343,0 0.69,0.021 1.035,0.07 2.237,0.304 4.132,1.605 5.648,3.863 1.516,-2.258 3.411,-3.559 5.645,-3.863 0.347,-0.049 0.693,-0.07 1.038,-0.07 4.929,0 9.499,4.531 9.704,4.738 0.264,0.26 0.262,0.69 0,0.952 C 16.797,0.559 16.37,0.562 16.107,0.297 16.059,0.248 11.142,-4.604 6.502,-3.987 4.45,-3.701 2.722,-2.373 1.346,0 l 0,3.664 c 0.052,0.008 0.099,0.024 0.149,0.034 l -1.677,0 C -0.12,3.688 -0.06,3.669 0,3.661 L 0,0 z"
         id="path5596"
         style="fill:#4b190d;fill-opacity:1;fill-rule:nonzero;stroke:none" />
    </g>
    <g
       transform="matrix(1.25,0,0,-1.25,99.449151,643.44796)"
       id="g5598">
      <path
         d="M 0,0 C -0.162,0 -0.326,0.058 -0.454,0.177 -0.727,0.428 -0.747,0.853 -0.495,1.126 12.804,15.637 33.448,7.515 33.654,7.429 33.999,7.291 34.167,6.899 34.027,6.554 33.889,6.211 33.494,6.045 33.151,6.184 32.951,6.264 13.158,14.03 0.496,0.217 0.363,0.074 0.181,0 0,0"
         id="path5600"
         style="fill:#8e6451;fill-opacity:1;fill-rule:nonzero;stroke:none" />
    </g>
    <g
       transform="matrix(1.25,0,0,-1.25,104.9234,648.74221)"
       id="g5602">
      <path
         d="M 0,0 C -0.168,0 -0.338,0.063 -0.469,0.19 -0.735,0.45 -0.742,0.875 -0.484,1.141 11.972,13.984 28.221,9.662 28.382,9.617 28.74,9.516 28.952,9.146 28.851,8.789 28.751,8.43 28.388,8.217 28.022,8.319 27.867,8.362 12.37,12.46 0.482,0.205 0.351,0.067 0.175,0 0,0"
         id="path5604"
         style="fill:#8e6451;fill-opacity:1;fill-rule:nonzero;stroke:none" />
    </g>
    <g
       transform="matrix(1.25,0,0,-1.25,111.9174,654.63208)"
       id="g5606">
      <path
         d="M 0,0 C -0.133,0 -0.269,0.038 -0.388,0.122 -0.69,0.336 -0.763,0.757 -0.551,1.061 8.08,13.32 22.53,12.129 22.67,12.115 23.041,12.081 23.313,11.754 23.278,11.382 23.243,11.014 22.937,10.739 22.545,10.775 22.407,10.786 8.722,11.896 0.552,0.286 0.42,0.099 0.212,0 0,0"
         id="path5608"
         style="fill:#8e6451;fill-opacity:1;fill-rule:nonzero;stroke:none" />
    </g>
    <g
       transform="matrix(1.25,0,0,-1.25,220.54965,643.44796)"
       id="g5610">
      <path
         d="M 0,0 C -0.183,0 -0.363,0.074 -0.495,0.217 -13.158,14.03 -32.95,6.263 -33.15,6.184 c -0.347,-0.139 -0.737,0.027 -0.877,0.37 -0.14,0.345 0.027,0.737 0.372,0.875 0.207,0.086 20.851,8.208 34.151,-6.303 C 0.747,0.853 0.729,0.428 0.455,0.177 0.327,0.058 0.164,0 0,0"
         id="path5612"
         style="fill:#8e6451;fill-opacity:1;fill-rule:nonzero;stroke:none" />
    </g>
    <g
       transform="matrix(1.25,0,0,-1.25,215.0754,648.74221)"
       id="g5614">
      <path
         d="m 0,0 c -0.175,0 -0.35,0.067 -0.482,0.205 -11.907,12.273 -27.383,8.157 -27.54,8.114 -0.36,-0.101 -0.729,0.111 -0.828,0.468 -0.101,0.359 0.11,0.729 0.468,0.83 0.163,0.045 16.407,4.367 28.867,-8.476 C 0.742,0.875 0.735,0.45 0.469,0.19 0.339,0.063 0.169,0 0,0"
         id="path5616"
         style="fill:#8e6451;fill-opacity:1;fill-rule:nonzero;stroke:none" />
    </g>
    <g
       transform="matrix(1.25,0,0,-1.25,208.08127,654.63208)"
       id="g5618">
      <path
         d="m 0,0 c -0.213,0 -0.42,0.099 -0.551,0.286 -8.173,11.614 -21.861,10.5 -21.995,10.489 -0.388,-0.026 -0.698,0.239 -0.732,0.607 -0.034,0.372 0.238,0.699 0.609,0.733 0.143,0.014 14.591,1.207 23.22,-11.054 C 0.763,0.757 0.692,0.336 0.387,0.122 0.27,0.038 0.135,0 0,0"
         id="path5620"
         style="fill:#8e6451;fill-opacity:1;fill-rule:nonzero;stroke:none" />
    </g>
    <g
       transform="matrix(1.25,0,0,-1.25,176.27891,586.12008)"
       id="g5622">
      <path
         d="m 0,0 c -0.747,0.549 -1.663,0.777 -2.579,0.635 l 0.408,-2.661 c 0.205,0.027 0.408,-0.021 0.572,-0.145 0.169,-0.122 0.278,-0.303 0.311,-0.506 0.063,-0.423 -0.23,-0.82 -0.651,-0.884 -0.436,-0.061 -0.82,0.229 -0.883,0.649 l -2.663,-0.405 c 0.261,-1.713 1.742,-2.946 3.427,-2.946 0.173,0 0.348,0.013 0.525,0.039 1.891,0.288 3.193,2.061 2.906,3.953 C 1.233,-1.356 0.745,-0.549 0,0"
         id="path5624"
         style="fill:#4b190d;fill-opacity:1;fill-rule:nonzero;stroke:none" />
    </g>
    <g
       transform="matrix(1.25,0,0,-1.25,168.4384,598.68846)"
       id="g5626">
      <path
         d="m 0,0 c -0.958,0.663 -2.114,0.908 -3.253,0.699 -1.141,-0.209 -2.131,-0.851 -2.788,-1.806 -0.06,-0.088 -0.094,-0.18 -0.147,-0.27 l 0,-4.413 c 0.31,-0.524 0.724,-0.998 1.258,-1.366 l 1.53,2.215 c -0.75,0.518 -0.939,1.554 -0.422,2.308 0.248,0.363 0.623,0.606 1.056,0.685 0.432,0.08 0.87,-0.014 1.234,-0.268 0.751,-0.517 0.941,-1.554 0.424,-2.307 L 1.11,-6.048 C 2.467,-4.076 1.97,-1.361 0,0"
         id="path5628"
         style="fill:#4b190d;fill-opacity:1;fill-rule:nonzero;stroke:none" />
    </g>
    <g
       transform="matrix(1.25,0,0,-1.25,160.6174,605.75633)"
       id="g5630">
      <path
         d="M 0,0 0,4.152 C -0.723,2.829 -0.69,1.27 0,0"
         id="path5632"
         style="fill:#4b190d;fill-opacity:1;fill-rule:nonzero;stroke:none" />
    </g>
    <g
       transform="matrix(1.25,0,0,-1.25,160.6174,573.16846)"
       id="g5634">
      <path
         d="m 0,0 0.034,0 0.035,0 0,-3.621 c 0.672,-0.41 1.452,-0.662 2.296,-0.662 2.435,0 4.418,1.981 4.418,4.42 l -2.693,0 c 0,-0.952 -0.774,-1.726 -1.725,-1.726 -0.95,0 -1.725,0.774 -1.725,1.726 0,0.949 0.775,1.721 1.725,1.721 l 0,2.695 c -2.437,0 -4.417,-1.982 -4.417,-4.416 0,-1.567 0.823,-2.934 2.052,-3.72 L 0,0 z"
         id="path5636"
         style="fill:#4b190d;fill-opacity:1;fill-rule:nonzero;stroke:none" />
    </g>
    <g
       transform="matrix(1.25,0,0,-1.25,160.6174,573.16846)"
       id="g5638">
      <path
         d="M 0,0 0.034,0 0,0 z"
         id="path5640"
         style="fill:#4b190d;fill-opacity:1;fill-rule:nonzero;stroke:none" />
    </g>
    <g
       transform="matrix(1.25,0,0,-1.25,160.66003,573.16846)"
       id="g5642">
      <path
         d="M 0,0 0.035,0 0,0 z"
         id="path5644"
         style="fill:#4b190d;fill-opacity:1;fill-rule:nonzero;stroke:none" />
    </g>
    <g
       transform="matrix(1.25,0,0,-1.25,176.17828,577.64358)"
       id="g5646">
      <path
         d="M 0,0 1.625,2.146 C 1.285,2.405 1.218,2.894 1.475,3.233 1.733,3.574 2.219,3.644 2.561,3.386 2.901,3.126 2.969,2.641 2.711,2.297 L 4.861,0.675 C 6.013,2.199 5.711,4.378 4.186,5.532 2.661,6.686 0.48,6.383 -0.673,4.859 -1.826,3.331 -1.524,1.153 0,0"
         id="path5648"
         style="fill:#4b190d;fill-opacity:1;fill-rule:nonzero;stroke:none" />
    </g>
    <g
       transform="matrix(1.25,0,0,-1.25,184.32091,590.07146)"
       id="g5650">
      <path
         d="M 0,0 1.872,1.934 C 1.565,2.231 1.558,2.723 1.856,3.029 2.153,3.339 2.647,3.344 2.954,3.047 3.102,2.904 3.187,2.71 3.189,2.504 3.194,2.296 3.115,2.1 2.971,1.952 L 4.903,0.076 C 5.55,0.741 5.896,1.62 5.881,2.546 5.867,3.473 5.494,4.338 4.826,4.981 3.453,6.312 1.254,6.276 -0.078,4.903 -1.408,3.528 -1.373,1.329 0,0"
         id="path5652"
         style="fill:#4b190d;fill-opacity:1;fill-rule:nonzero;stroke:none" />
    </g>
    <g
       transform="matrix(1.25,0,0,-1.25,196.95341,598.14646)"
       id="g5654">
      <path
         d="M 0,0 C 0.178,0.108 0.384,0.138 0.587,0.088 0.788,0.037 0.958,-0.088 1.063,-0.267 1.169,-0.444 1.201,-0.652 1.153,-0.853 1.101,-1.054 0.976,-1.222 0.796,-1.33 l 1.387,-2.309 c 0.794,0.478 1.355,1.234 1.581,2.132 C 3.987,-0.606 3.85,0.323 3.372,1.12 2.896,1.914 2.138,2.474 1.24,2.701 0.341,2.925 -0.592,2.785 -1.386,2.309 -3.025,1.325 -3.56,-0.809 -2.576,-2.449 l 2.309,1.385 C -0.488,-0.697 -0.368,-0.22 0,0"
         id="path5656"
         style="fill:#4b190d;fill-opacity:1;fill-rule:nonzero;stroke:none" />
    </g>
    <g
       transform="matrix(1.25,0,0,-1.25,132.20853,625.56958)"
       id="g5658">
      <path
         d="M 0,0 C 0.316,0.287 0.81,0.264 1.097,-0.051 1.236,-0.205 1.308,-0.404 1.298,-0.611 1.288,-0.816 1.199,-1.007 1.044,-1.147 0.729,-1.436 0.236,-1.41 -0.053,-1.094 l -1.99,-1.814 c 0.684,-0.752 1.625,-1.131 2.566,-1.131 0.835,0 1.671,0.297 2.333,0.902 0.686,0.621 1.088,1.475 1.131,2.4 0.044,0.924 -0.275,1.813 -0.9,2.5 -1.287,1.411 -3.483,1.512 -4.9,0.229 L 0,0 z"
         id="path5660"
         style="fill:#4b190d;fill-opacity:1;fill-rule:nonzero;stroke:none" />
    </g>
    <g
       transform="matrix(1.25,0,0,-1.25,122.54978,616.13108)"
       id="g5662">
      <path
         d="m 0,0 c 1.914,0 3.469,1.556 3.469,3.468 l -2.694,0 C 0.775,3.04 0.428,2.694 0,2.694 c -0.428,0 -0.776,0.346 -0.776,0.774 0,0.428 0.348,0.776 0.776,0.776 L 0,6.937 C -1.913,6.937 -3.47,5.382 -3.47,3.468 -3.47,1.556 -1.913,0 0,0"
         id="path5664"
         style="fill:#4b190d;fill-opacity:1;fill-rule:nonzero;stroke:none" />
    </g>
    <g
       transform="matrix(1.25,0,0,-1.25,138.27965,580.73558)"
       id="g5666">
      <path
         d="m 0,0 c 0.48,-0.233 0.996,-0.354 1.515,-0.354 0.381,0 0.765,0.067 1.136,0.195 L 1.771,2.386 C 1.575,2.318 1.362,2.332 1.179,2.422 0.991,2.511 0.853,2.668 0.784,2.866 0.717,3.062 0.73,3.271 0.819,3.459 0.91,3.645 1.067,3.783 1.266,3.853 1.459,3.92 1.671,3.907 1.858,3.815 2.044,3.728 2.182,3.567 2.25,3.372 L 4.795,4.249 C 4.495,5.125 3.87,5.832 3.037,6.236 2.202,6.644 1.261,6.7 0.387,6.397 -0.49,6.095 -1.197,5.471 -1.601,4.638 -2.008,3.803 -2.063,2.862 -1.761,1.988 -1.458,1.111 -0.834,0.404 0,0"
         id="path5668"
         style="fill:#4b190d;fill-opacity:1;fill-rule:nonzero;stroke:none" />
    </g>
    <g
       transform="matrix(1.25,0,0,-1.25,150.98478,593.94596)"
       id="g5670">
      <path
         d="m 0,0 c 1.912,0 3.467,1.555 3.467,3.467 l -2.691,0 C 0.776,3.04 0.426,2.69 0,2.69 c -0.427,0 -0.777,0.35 -0.777,0.777 0,0.429 0.35,0.775 0.777,0.775 l 0,2.695 c -1.915,0 -3.468,-1.558 -3.468,-3.47 C -3.468,1.555 -1.915,0 0,0"
         id="path5672"
         style="fill:#4b190d;fill-opacity:1;fill-rule:nonzero;stroke:none" />
    </g>
    <g
       transform="matrix(1.25,0,0,-1.25,138.41765,600.89796)"
       id="g5674">
      <path
         d="m 0,0 c 0.43,-0.142 0.872,-0.215 1.313,-0.215 0.643,0 1.282,0.153 1.875,0.453 C 5.235,1.274 6.076,3.793 5.061,5.85 4.565,6.855 3.712,7.602 2.655,7.956 1.596,8.31 0.464,8.228 -0.535,7.72 L 0.681,5.316 C 1.033,5.493 1.432,5.523 1.8,5.401 2.171,5.277 2.469,5.015 2.644,4.661 3.01,3.92 2.709,3.013 1.972,2.642 1.62,2.461 1.221,2.431 0.852,2.555 0.484,2.68 0.185,2.941 0.011,3.295 L -2.407,2.106 C -1.912,1.101 -1.057,0.354 0,0"
         id="path5676"
         style="fill:#4b190d;fill-opacity:1;fill-rule:nonzero;stroke:none" />
    </g>
    <g
       transform="matrix(1.25,0,0,-1.25,200.64302,619.27921)"
       id="g5678">
      <path
         d="m 0,0 c 0,-0.426 -0.35,-0.775 -0.776,-0.775 -0.427,0 -0.776,0.349 -0.776,0.775 0,0.429 0.349,0.776 0.776,0.776 l 0,2.693 c -1.912,0 -3.469,-1.558 -3.469,-3.469 0,-1.913 1.557,-3.468 3.469,-3.468 1.913,0 3.468,1.555 3.468,3.468 L 0,0 z"
         id="path5680"
         style="fill:#4b190d;fill-opacity:1;fill-rule:nonzero;stroke:none" />
    </g>
    <g
       transform="matrix(1.25,0,0,-1.25,189.50166,622.47871)"
       id="g5682">
      <path
         d="m 0,0 c -0.979,0 -1.771,-0.794 -1.771,-1.773 0,-0.978 0.792,-1.772 1.771,-1.772 0.979,0 1.772,0.794 1.772,1.772 C 1.772,-0.794 0.979,0 0,0"
         id="path5684"
         style="fill:#4b190d;fill-opacity:1;fill-rule:nonzero;stroke:none" />
    </g>
    <g
       transform="matrix(1.25,0,0,-1.25,184.04753,627.60083)"
       id="g5686">
      <path
         d="m 0,0 c 0,0.979 -0.792,1.773 -1.771,1.773 -0.978,0 -1.771,-0.794 -1.771,-1.773 0,-0.976 0.793,-1.768 1.771,-1.768 C -0.792,-1.768 0,-0.976 0,0"
         id="path5688"
         style="fill:#4b190d;fill-opacity:1;fill-rule:nonzero;stroke:none" />
    </g>
    <g
       transform="matrix(1.25,0,0,-1.25,129.32953,589.17433)"
       id="g5690">
      <path
         d="M 0,0 C 0.977,0 1.769,0.795 1.769,1.772 1.769,2.75 0.977,3.544 0,3.544 -0.979,3.544 -1.771,2.75 -1.771,1.772 -1.771,0.795 -0.979,0 0,0"
         id="path5692"
         style="fill:#4b190d;fill-opacity:1;fill-rule:nonzero;stroke:none" />
    </g>
    <g
       transform="matrix(1.25,0,0,-1.25,123.32728,594.61008)"
       id="g5694">
      <path
         d="M 0,0 C 0.978,0 1.771,0.794 1.771,1.773 1.771,2.75 0.978,3.544 0,3.544 -0.978,3.544 -1.772,2.75 -1.772,1.773 -1.772,0.794 -0.978,0 0,0"
         id="path5696"
         style="fill:#4b190d;fill-opacity:1;fill-rule:nonzero;stroke:none" />
    </g>
    <g
       transform="matrix(1.25,0,0,-1.25,121.11228,624.69558)"
       id="g5698">
      <path
         d="M 0,0 C 0,-0.978 0.794,-1.771 1.772,-1.771 2.75,-1.771 3.543,-0.978 3.543,0 3.543,0.979 2.75,1.773 1.772,1.773 0.794,1.773 0,0.979 0,0"
         id="path5700"
         style="fill:#4b190d;fill-opacity:1;fill-rule:nonzero;stroke:none" />
    </g>
    <g
       transform="matrix(1.25,0,0,-1.25,112.65353,631.33733)"
       id="g5702">
      <path
         d="M 0,0 C 0.979,0 1.771,0.792 1.771,1.771 1.771,2.747 0.979,3.542 0,3.542 -0.979,3.542 -1.772,2.747 -1.772,1.771 -1.772,0.792 -0.979,0 0,0"
         id="path5704"
         style="fill:#4b190d;fill-opacity:1;fill-rule:nonzero;stroke:none" />
    </g>
    <g
       transform="matrix(1.25,0,0,-1.25,160.56365,584.36958)"
       id="g5706">
      <path
         d="m 0,0 c -0.979,0 -1.772,-0.795 -1.772,-1.771 0,-0.98 0.793,-1.774 1.772,-1.774 0.017,0 0.028,0.01 0.043,0.01 l 0,3.527 C 0.028,-0.008 0.017,0 0,0"
         id="path5708"
         style="fill:#4b190d;fill-opacity:1;fill-rule:nonzero;stroke:none" />
    </g>
    <g
       transform="matrix(1.25,0,0,-1.25,162.7774,586.58396)"
       id="g5710">
      <path
         d="m 0,0 c 0,0.938 -0.736,1.688 -1.659,1.748 l 0,-3.498 C -0.736,-1.688 0,-0.94 0,0"
         id="path5712"
         style="fill:#4b190d;fill-opacity:1;fill-rule:nonzero;stroke:none" />
    </g>
    <g
       transform="matrix(1.25,0,0,-1.25,160.7034,584.39896)"
       id="g5714">
      <path
         d="m 0,0 c -0.023,0.002 -0.044,0.014 -0.069,0.016 l 0,-3.528 c 0.025,0 0.046,0.012 0.069,0.014 L 0,0 z"
         id="path5716"
         style="fill:#4b190d;fill-opacity:1;fill-rule:nonzero;stroke:none" />
    </g>
    <g
       transform="matrix(1.25,0,0,-1.25,154.86178,606.24821)"
       id="g5718">
      <path
         d="m 0,0 c 0,0.977 -0.792,1.771 -1.771,1.771 -0.977,0 -1.77,-0.794 -1.77,-1.771 0,-0.98 0.793,-1.773 1.77,-1.773 C -0.792,-1.773 0,-0.98 0,0"
         id="path5720"
         style="fill:#4b190d;fill-opacity:1;fill-rule:nonzero;stroke:none" />
    </g>
    <g
       transform="matrix(1.25,0,0,-1.25,158.05203,611.83421)"
       id="g5722">
      <path
         d="m 0,0 c -0.979,0 -1.772,-0.794 -1.772,-1.771 0,-0.979 0.793,-1.773 1.772,-1.773 0.978,0 1.771,0.794 1.771,1.773 C 1.771,-0.794 0.978,0 0,0"
         id="path5724"
         style="fill:#4b190d;fill-opacity:1;fill-rule:nonzero;stroke:none" />
    </g>
    <g
       transform="matrix(1.25,0,0,-1.25,182.58816,598.78733)"
       id="g5726">
      <path
         d="M 0,0 C 0,0.977 -0.794,1.771 -1.772,1.771 -2.75,1.771 -3.543,0.977 -3.543,0 c 0,-0.979 0.793,-1.772 1.771,-1.772 C -0.794,-1.772 0,-0.979 0,0"
         id="path5728"
         style="fill:#4b190d;fill-opacity:1;fill-rule:nonzero;stroke:none" />
    </g>
    <g
       transform="matrix(1.25,0,0,-1.25,165.73028,614.24633)"
       id="g5730">
      <path
         d="m 0,0 c -0.979,0 -1.772,-0.794 -1.772,-1.772 0,-0.979 0.793,-1.773 1.772,-1.773 0.978,0 1.771,0.794 1.771,1.773 C 1.771,-0.794 0.978,0 0,0"
         id="path5732"
         style="fill:#4b190d;fill-opacity:1;fill-rule:nonzero;stroke:none" />
    </g>
    <g
       transform="matrix(1.25,0,0,-1.25,165.73028,621.42033)"
       id="g5734">
      <path
         d="m 0,0 c -0.979,0 -1.772,-0.796 -1.772,-1.771 0,-0.979 0.793,-1.774 1.772,-1.774 0.978,0 1.771,0.795 1.771,1.774 C 1.771,-0.796 0.978,0 0,0"
         id="path5736"
         style="fill:#4b190d;fill-opacity:1;fill-rule:nonzero;stroke:none" />
    </g>
    <g
       transform="matrix(1.25,0,0,-1.25,145.93903,621.42033)"
       id="g5738">
      <path
         d="m 0,0 c -0.979,0 -1.771,-0.796 -1.771,-1.771 0,-0.979 0.792,-1.774 1.771,-1.774 0.978,0 1.772,0.795 1.772,1.774 C 1.772,-0.796 0.978,0 0,0"
         id="path5740"
         style="fill:#4b190d;fill-opacity:1;fill-rule:nonzero;stroke:none" />
    </g>
    <g
       transform="matrix(1.25,0,0,-1.25,155.8499,620.26558)"
       id="g5742">
      <path
         d="m 0,0 c -0.978,0 -1.771,-0.794 -1.771,-1.771 0,-0.98 0.793,-1.773 1.771,-1.773 0.979,0 1.773,0.793 1.773,1.773 C 1.773,-0.794 0.979,0 0,0"
         id="path5744"
         style="fill:#4b190d;fill-opacity:1;fill-rule:nonzero;stroke:none" />
    </g>
  </g>
</svg>
