<?xml version="1.0" encoding="UTF-8" standalone="no"?>
<!-- Created with Inkscape (http://www.inkscape.org/) -->

<svg
   xmlns:dc="http://purl.org/dc/elements/1.1/"
   xmlns:cc="http://creativecommons.org/ns#"
   xmlns:rdf="http://www.w3.org/1999/02/22-rdf-syntax-ns#"
   xmlns:svg="http://www.w3.org/2000/svg"
   xmlns="http://www.w3.org/2000/svg"
   version="1.1"
   width="122.78355"
   height="136.32574"
   id="svg14377">
  <defs
     id="defs14379" />
  <metadata
     id="metadata14382">
    <rdf:RDF>
      <cc:Work
         rdf:about="">
        <dc:format>image/svg+xml</dc:format>
        <dc:type
           rdf:resource="http://purl.org/dc/dcmitype/StillImage" />
        <dc:title></dc:title>
      </cc:Work>
    </rdf:RDF>
  </metadata>
  <g
     transform="translate(-184.32251,-632.77074)"
     id="layer1">
    <g
       transform="matrix(1.25,0,0,-1.25,228.63194,741.05024)"
       id="g4970">
      <path
         d="m 0,0 c -1.859,0 -3.367,-1.506 -3.367,-3.366 0,-6.802 -5.534,-12.337 -12.337,-12.337 -6.317,0 -11.53,4.773 -12.246,10.897 -3.34,-1.508 -5.558,-0.68 -6.759,0.169 0.658,-9.922 8.918,-17.8 19.005,-17.8 10.516,0 19.07,8.555 19.07,19.071 C 3.366,-1.506 1.858,0 0,0"
         id="path4972"
         style="fill:#d19c74;fill-opacity:1;fill-rule:nonzero;stroke:none" />
    </g>
    <g
       transform="matrix(1.25,0,0,-1.25,193.69419,747.05736)"
       id="g4974">
      <path
         d="m 0,0 c -0.056,0.474 -0.092,0.952 -0.092,1.439 0,1.415 0.238,2.804 0.708,4.126 C 1.235,7.318 0.321,9.241 -1.432,9.864 -3.185,10.486 -5.106,9.57 -5.729,7.817 -6.456,5.771 -6.823,3.623 -6.823,1.439 c 0,-0.427 0.035,-0.848 0.064,-1.27 C -5.558,-0.681 -3.34,-1.509 0,0"
         id="path4976"
         style="fill:#4b190d;fill-opacity:1;fill-rule:nonzero;stroke:none" />
    </g>
    <g
       transform="matrix(1.25,0,0,-1.25,233.25469,650.97824)"
       id="g4978">
      <path
         d="m 0,0 c 0,-8.045 -6.523,-14.567 -14.568,-14.567 -8.046,0 -14.568,6.522 -14.568,14.567 0,8.045 6.522,14.566 14.568,14.566 C -6.523,14.566 0,8.045 0,0"
         id="path4980"
         style="fill:#af5b2b;fill-opacity:1;fill-rule:nonzero;stroke:none" />
    </g>
    <g
       transform="matrix(1.25,0,0,-1.25,225.54106,650.97824)"
       id="g4982">
      <path
         d="m 0,0 c 0,-4.637 -3.759,-8.398 -8.397,-8.398 -4.639,0 -8.399,3.761 -8.399,8.398 0,4.638 3.76,8.397 8.399,8.397 C -3.759,8.397 0,4.638 0,0"
         id="path4984"
         style="fill:#4b190d;fill-opacity:1;fill-rule:nonzero;stroke:none" />
    </g>
    <g
       transform="matrix(1.25,0,0,-1.25,294.91119,650.97824)"
       id="g4986">
      <path
         d="m 0,0 c 0,-8.045 -6.521,-14.567 -14.566,-14.567 -8.045,0 -14.568,6.522 -14.568,14.567 0,8.045 6.523,14.566 14.568,14.566 C -6.521,14.566 0,8.045 0,0"
         id="path4988"
         style="fill:#f5c799;fill-opacity:1;fill-rule:nonzero;stroke:none" />
    </g>
    <g
       transform="matrix(1.25,0,0,-1.25,287.20369,650.97824)"
       id="g4990">
      <path
         d="m 0,0 c 0,-4.637 -3.763,-8.398 -8.4,-8.398 -4.637,0 -8.399,3.761 -8.399,8.398 0,4.638 3.762,8.397 8.399,8.397 C -3.763,8.397 0,4.638 0,0"
         id="path4992"
         style="fill:#4b190d;fill-opacity:1;fill-rule:nonzero;stroke:none" />
    </g>
    <g
       transform="matrix(1.25,0,0,-1.25,233.25469,650.97824)"
       id="g4994">
      <path
         d="m 0,0 c 0,-8.045 -6.523,-14.567 -14.568,-14.567 -8.046,0 -14.568,6.522 -14.568,14.567 0,8.045 6.522,14.566 14.568,14.566 C -6.523,14.566 0,8.045 0,0"
         id="path4996"
         style="fill:#f5c799;fill-opacity:1;fill-rule:nonzero;stroke:none" />
    </g>
    <g
       transform="matrix(1.25,0,0,-1.25,225.54106,650.97824)"
       id="g4998">
      <path
         d="m 0,0 c 0,-4.637 -3.759,-8.398 -8.397,-8.398 -4.639,0 -8.399,3.761 -8.399,8.398 0,4.638 3.76,8.397 8.399,8.397 C -3.759,8.397 0,4.638 0,0"
         id="path5000"
         style="fill:#4b190d;fill-opacity:1;fill-rule:nonzero;stroke:none" />
    </g>
    <g
       transform="matrix(1.25,0,0,-1.25,269.62181,757.84224)"
       id="g5002">
      <path
         d="M 0,0 0,8.625 C 5.091,13.362 8.354,20.01 8.675,27.435 3.088,19.067 -7.023,13.454 -18.614,13.426 l 0,-12.153 c 1.672,0 3.299,0.172 4.89,0.459 l 0,-1.732 c -2.626,-2.046 -4.324,-5.229 -4.324,-8.817 l 22.37,0 C 4.322,-5.229 2.625,-2.046 0,0"
         id="path5004"
         style="fill:#f5c799;fill-opacity:1;fill-rule:nonzero;stroke:none" />
    </g>
    <g
       transform="matrix(1.25,0,0,-1.25,246.35406,730.11399)"
       id="g5006">
      <path
         d="m 0,0 0,5.192 0.003,0 L 0,-6.733 0,0 z m -23.525,0.529 c 2.301,-2.249 4.991,-4.166 7.975,-5.667 -2.984,1.5 -5.675,3.415 -7.975,5.667 m -2.465,2.726 c 0.347,-0.439 0.707,-0.869 1.082,-1.289 -0.375,0.42 -0.735,0.85 -1.082,1.289 m 1.193,-1.407 c 0.4,-0.438 0.807,-0.869 1.231,-1.282 -0.424,0.415 -0.831,0.843 -1.231,1.282 M 0,33.794 c -15.108,0 -27.354,-12.246 -27.354,-27.353 0,-0.495 0.051,-0.976 0.079,-1.464 0.357,-0.525 0.735,-1.037 1.128,-1.538 -0.393,0.501 -0.771,1.013 -1.128,1.538 0.391,-7.312 3.632,-13.855 8.659,-18.535 l 0,-8.625 c -2.625,-2.046 -4.321,-5.229 -4.321,-8.817 l 22.368,0 c 0,3.588 -1.695,6.771 -4.324,8.817 l 0,1.733 c 0.212,-0.036 0.427,-0.054 0.636,-0.088 0.518,-0.098 1.067,-0.172 1.639,-0.23 0.061,-0.005 0.121,-0.015 0.182,-0.02 0.768,-0.073 1.568,-0.121 2.436,-0.121 l 0,12.152 c 5.729,0.014 11.098,1.398 15.736,3.799 4.744,2.457 8.727,5.979 11.553,10.21 0.018,0.397 0.064,0.788 0.064,1.189 0,15.107 -12.247,27.353 -27.353,27.353"
         id="path5008"
         style="fill:#d19c74;fill-opacity:1;fill-rule:nonzero;stroke:none" />
    </g>
    <g
       transform="matrix(1.25,0,0,-1.25,266.02444,736.31149)"
       id="g5010">
      <path
         d="m 0,0 c -4.639,-2.401 -10.008,-3.785 -15.736,-3.799 l 0,-12.152 C -3.897,-15.951 -1.537,-9.41 0,0"
         id="path5012"
         style="fill:#f5c799;fill-opacity:1;fill-rule:nonzero;stroke:none" />
    </g>
    <g
       transform="matrix(1.25,0,0,-1.25,246.33206,647.68236)"
       id="g5014">
      <path
         d="m 0,0 0,-0.004 c 0.014,0 0.024,0.001 0.035,0.001 C 0.024,-0.003 0.014,0 0,0"
         id="path5016"
         style="fill:#e96332;fill-opacity:1;fill-rule:nonzero;stroke:none" />
    </g>
    <g
       transform="matrix(1.25,0,0,-1.25,240.17244,725.25074)"
       id="g5018">
      <path
         d="M 0,0 -0.004,0 C 0.002,-0.008 0.009,-0.018 0.012,-0.026 0.009,-0.017 0.002,-0.008 0,0"
         id="path5020"
         style="fill:#07171b;fill-opacity:1;fill-rule:nonzero;stroke:none" />
    </g>
    <g
       transform="matrix(1.25,0,0,-1.25,246.41869,647.68236)"
       id="g5022">
      <path
         d="m 0,0 c -0.012,0 -0.023,-0.003 -0.034,-0.003 0.011,0 0.022,-0.001 0.034,-0.001 L 0,0 z"
         id="path5024"
         style="fill:#a84720;fill-opacity:1;fill-rule:nonzero;stroke:none" />
    </g>
    <g
       transform="matrix(1.25,0,0,-1.25,246.41869,685.87086)"
       id="g5026">
      <path
         d="m 0,0 0,30.547 c -0.012,0 -0.023,10e-4 -0.034,10e-4 -0.011,0 -0.022,-10e-4 -0.035,-10e-4 l 0,-30.554 C -0.045,-0.007 -0.023,0 0,0"
         id="path5028"
         style="fill:#a84720;fill-opacity:1;fill-rule:nonzero;stroke:none" />
    </g>
    <g
       transform="matrix(1.25,0,0,-1.25,246.33206,723.61861)"
       id="g5030">
      <path
         d="M 0,0 C 0.014,0 0.024,-0.003 0.035,-0.003 0.046,-0.003 0.058,0 0.069,0 l 0,18.66 0,11.538 C 0.046,30.198 0.024,30.191 0,30.191 L 0,18.66 0,0 z"
         id="path5032"
         style="fill:#a84720;fill-opacity:1;fill-rule:nonzero;stroke:none" />
    </g>
    <g
       transform="matrix(1.25,0,0,-1.25,246.33206,723.61861)"
       id="g5034">
      <path
         d="m 0,0 0,-0.004 c 0.014,0 0.024,0.001 0.035,0.001 C 0.024,-0.003 0.014,0 0,0"
         id="path5036"
         style="fill:#a84720;fill-opacity:1;fill-rule:nonzero;stroke:none" />
    </g>
    <g
       transform="matrix(1.25,0,0,-1.25,299.36069,706.22849)"
       id="g5038">
      <path
         d="m 0,0 c 0.108,-0.063 0.222,-0.126 0.329,-0.192 0,0 -4.576,6.421 -6.767,15.349 0,19.318 -8.672,37.066 -35.981,37.066 l 0,-42.088 0,-9.53 c -0.007,-0.003 -0.013,-0.004 -0.019,-0.007 l 0.019,-7.369 0,-1.756 0.003,0 0.031,-11.93 C -19.458,-23.396 1.16,-1.282 1.16,-1.282 0.855,-0.832 0.464,-0.405 0,0"
         id="path5040"
         style="fill:#f5c799;fill-opacity:1;fill-rule:nonzero;stroke:none" />
    </g>
    <g
       transform="matrix(1.25,0,0,-1.25,201.41994,687.28199)"
       id="g5042">
      <path
         d="m 0,0 c -2.193,-8.929 -6.77,-15.35 -6.77,-15.35 0.108,0.067 0.219,0.13 0.33,0.193 -0.464,-0.406 -0.858,-0.832 -1.161,-1.282 0,0 10.879,-11.658 25.616,-16.917 l 0,7.015 c 0,5.246 0.639,7.819 1.214,9.079 6,-2.372 10.58,-5.249 11.769,-7.754 1.483,0.824 3.167,1.331 4.983,1.331 l 0,18.663 0,42.087 C 8.672,37.065 0,19.317 0,0"
         id="path5044"
         style="fill:#d19c74;fill-opacity:1;fill-rule:nonzero;stroke:none" />
    </g>
    <g
       transform="matrix(1.25,0,0,-1.25,231.65306,704.47924)"
       id="g5046">
      <path
         d="m 0,0 c -1.472,-0.605 -2.881,-1.359 -4.066,-2.322 0,0 -2.106,-0.751 -2.106,-10.261 l 0,-7.016 c 5.555,-1.982 11.32,-3.603 17.933,-3.603 l 0.052,22.4 C 5.619,2.245 3.148,0.995 0,0"
         id="path5048"
         style="fill:#d5d2b1;fill-opacity:1;fill-rule:nonzero;stroke:none" />
    </g>
    <g
       transform="matrix(1.25,0,0,-1.25,261.04031,704.47924)"
       id="g5050">
      <path
         d="m 0,0 c 1.473,-0.605 2.884,-1.359 4.071,-2.322 0,0 2.103,-0.751 2.103,-10.261 l 0,-7.016 c -5.555,-1.982 -11.681,-3.603 -17.932,-3.603 l -0.052,22.4 C -5.617,2.245 -3.145,0.995 0,0"
         id="path5052"
         style="fill:#f6f3cf;fill-opacity:1;fill-rule:nonzero;stroke:none" />
    </g>
    <g
       transform="matrix(1.25,0,0,-1.25,216.14769,679.13986)"
       id="g5054">
      <path
         d="M 0,0 C 0,0 14.979,4.344 14.643,-10.89 14.643,-10.89 0,-16.207 0,0"
         id="path5056"
         style="fill:#4b190d;fill-opacity:1;fill-rule:nonzero;stroke:none" />
    </g>
    <g
       transform="matrix(1.25,0,0,-1.25,232.46006,686.31149)"
       id="g5058">
      <path
         d="m 0,0 c 0,-3.068 -2.487,-5.556 -5.555,-5.556 -3.066,0 -5.554,2.488 -5.554,5.556 0,3.068 2.488,5.555 5.554,5.555 C -2.487,5.555 0,3.068 0,0"
         id="path5060"
         style="fill:#b66916;fill-opacity:1;fill-rule:nonzero;stroke:none" />
    </g>
    <g
       transform="matrix(1.25,0,0,-1.25,230.23094,683.44411)"
       id="g5062">
      <path
         d="m 0,0 c 0,-1.056 -0.858,-1.913 -1.915,-1.913 -1.057,0 -1.914,0.857 -1.914,1.913 0,1.058 0.857,1.915 1.914,1.915 C -0.858,1.915 0,1.058 0,0"
         id="path5064"
         style="fill:#ffffff;fill-opacity:1;fill-rule:nonzero;stroke:none" />
    </g>
    <g
       transform="matrix(1.25,0,0,-1.25,276.70319,679.13986)"
       id="g5066">
      <path
         d="M 0,0 C 0,0 -14.98,4.344 -14.641,-10.89 -14.641,-10.89 0,-16.207 0,0"
         id="path5068"
         style="fill:#4b190d;fill-opacity:1;fill-rule:nonzero;stroke:none" />
    </g>
    <g
       transform="matrix(1.25,0,0,-1.25,260.27006,686.31149)"
       id="g5070">
      <path
         d="m 0,0 c 0,-3.068 2.486,-5.556 5.555,-5.556 3.066,0 5.554,2.488 5.554,5.556 0,3.068 -2.488,5.555 -5.554,5.555 C 2.486,5.555 0,3.068 0,0"
         id="path5072"
         style="fill:#b66916;fill-opacity:1;fill-rule:nonzero;stroke:none" />
    </g>
    <g
       transform="matrix(1.25,0,0,-1.25,267.54794,683.44411)"
       id="g5074">
      <path
         d="m 0,0 c 0,-1.056 0.858,-1.913 1.915,-1.913 1.059,0 1.917,0.857 1.917,1.913 0,1.058 -0.858,1.915 -1.917,1.915 C 0.858,1.915 0,1.058 0,0"
         id="path5076"
         style="fill:#ffffff;fill-opacity:1;fill-rule:nonzero;stroke:none" />
    </g>
    <g
       transform="matrix(1.25,0,0,-1.25,245.24444,712.18549)"
       id="g5078">
      <path
         d="m 0,0 c -0.834,0.152 -1.544,0.514 -2.014,1.065 -2.21,2.59 -5.128,4.386 -6.682,5.264 1.517,0.459 4.655,1.173 9.55,1.173 4.831,0 7.997,-0.718 9.525,-1.176 C 7.609,4.63 5.192,2.755 3.503,0.981 3.028,0.481 2.396,0.152 1.624,0 L 0,0 z"
         id="path5080"
         style="fill:#d76c79;fill-opacity:1;fill-rule:nonzero;stroke:none" />
    </g>
    <g
       transform="matrix(1.25,0,0,-1.25,246.31256,702.11224)"
       id="g5082">
      <path
         d="m 0,0 c -7.381,0 -10.909,-1.621 -10.886,-1.621 l 0.002,10e-4 c 0.085,-0.121 4.551,-2.169 7.595,-5.734 0.637,-0.749 1.54,-1.105 2.435,-1.26 l 1.676,0 c 0.821,0.154 1.615,0.51 2.23,1.154 3.175,3.336 7.737,5.813 7.778,5.858 C 10.83,-1.602 7.3,0 0,0 m 0,-1.112 c 3.723,0 6.435,-0.432 8.149,-0.829 C 5.782,-3.479 3.767,-5.098 2.248,-6.695 1.861,-7.099 1.347,-7.369 0.713,-7.503 l -1.467,0 c -0.754,0.145 -1.322,0.437 -1.69,0.87 -1.795,2.101 -4.034,3.689 -5.675,4.702 1.719,0.397 4.415,0.819 8.119,0.819"
         id="path5084"
         style="fill:#4b190d;fill-opacity:1;fill-rule:nonzero;stroke:none" />
    </g>
    <g
       transform="matrix(1.25,0,0,-1.25,245.47031,717.49924)"
       id="g5086">
      <path
         d="m 0,0 c -1.371,-2.366 -3.103,-3.708 -5.151,-3.988 -4.637,-0.622 -9.561,4.234 -9.609,4.282 -0.264,0.266 -0.689,0.266 -0.954,0.003 -0.263,-0.263 -0.263,-0.687 -0.002,-0.953 0.206,-0.205 4.778,-4.735 9.707,-4.735 0.345,0 0.69,0.021 1.035,0.068 2.238,0.305 4.132,1.605 5.648,3.863 1.516,-2.258 3.411,-3.558 5.644,-3.863 0.349,-0.047 0.695,-0.068 1.039,-0.068 4.93,0 9.499,4.53 9.705,4.735 0.263,0.266 0.262,0.69 0,0.953 C 16.799,0.557 16.37,0.56 16.107,0.294 16.059,0.246 11.143,-4.606 6.503,-3.988 4.449,-3.704 2.723,-2.375 1.346,0 l 0,3.664 c 0.051,0.005 0.099,0.023 0.15,0.031 l -1.677,0 C -0.12,3.686 -0.06,3.668 0,3.658 L 0,0 z"
         id="path5088"
         style="fill:#4b190d;fill-opacity:1;fill-rule:nonzero;stroke:none" />
    </g>
    <g
       transform="matrix(1.25,0,0,-1.25,185.16506,717.96674)"
       id="g5090">
      <path
         d="m 0,0 c -0.164,0 -0.326,0.059 -0.456,0.177 -0.273,0.251 -0.293,0.677 -0.041,0.951 13.3,14.511 33.944,6.388 34.15,6.306 C 33.999,7.293 34.166,6.902 34.026,6.556 33.887,6.211 33.494,6.045 33.149,6.184 32.95,6.265 13.158,14.031 0.495,0.22 0.362,0.074 0.18,0 0,0"
         id="path5092"
         style="fill:#8e6451;fill-opacity:1;fill-rule:nonzero;stroke:none" />
    </g>
    <g
       transform="matrix(1.25,0,0,-1.25,190.63869,723.25724)"
       id="g5094">
      <path
         d="M 0,0 C -0.17,0 -0.339,0.062 -0.47,0.188 -0.736,0.448 -0.743,0.875 -0.484,1.141 11.971,13.982 28.221,9.659 28.382,9.615 28.739,9.516 28.951,9.146 28.85,8.786 28.752,8.429 28.387,8.218 28.021,8.316 27.867,8.361 12.37,12.458 0.481,0.204 0.351,0.067 0.175,0 0,0"
         id="path5096"
         style="fill:#8e6451;fill-opacity:1;fill-rule:nonzero;stroke:none" />
    </g>
    <g
       transform="matrix(1.25,0,0,-1.25,197.63094,729.14961)"
       id="g5098">
      <path
         d="m 0,0 c -0.132,0 -0.269,0.04 -0.387,0.123 -0.302,0.214 -0.375,0.634 -0.163,0.939 8.63,12.26 23.08,11.065 23.221,11.054 0.37,-0.035 0.642,-0.363 0.608,-0.732 -0.035,-0.37 -0.341,-0.647 -0.733,-0.609 C 22.409,10.787 8.725,11.898 0.553,0.286 0.421,0.1 0.213,0 0,0"
         id="path5100"
         style="fill:#8e6451;fill-opacity:1;fill-rule:nonzero;stroke:none" />
    </g>
    <g
       transform="matrix(1.25,0,0,-1.25,306.26619,717.96674)"
       id="g5102">
      <path
         d="m 0,0 c -0.184,0 -0.363,0.074 -0.496,0.22 -12.663,13.811 -32.455,6.043 -32.656,5.964 -0.345,-0.138 -0.737,0.027 -0.876,0.372 -0.14,0.346 0.027,0.737 0.371,0.878 0.206,0.082 20.853,8.205 34.152,-6.306 C 0.746,0.854 0.728,0.428 0.453,0.177 0.325,0.059 0.162,0 0,0"
         id="path5104"
         style="fill:#8e6451;fill-opacity:1;fill-rule:nonzero;stroke:none" />
    </g>
    <g
       transform="matrix(1.25,0,0,-1.25,300.79006,723.25724)"
       id="g5106">
      <path
         d="m 0,0 c -0.175,0 -0.35,0.067 -0.481,0.204 -11.907,12.272 -27.383,8.157 -27.54,8.112 -0.361,-0.098 -0.73,0.113 -0.829,0.47 -0.1,0.36 0.111,0.73 0.468,0.829 0.162,0.044 16.408,4.368 28.867,-8.474 C 0.742,0.875 0.735,0.448 0.469,0.188 0.338,0.062 0.17,0 0,0"
         id="path5108"
         style="fill:#8e6451;fill-opacity:1;fill-rule:nonzero;stroke:none" />
    </g>
    <g
       transform="matrix(1.25,0,0,-1.25,293.79669,729.14961)"
       id="g5110">
      <path
         d="m 0,0 c -0.214,0 -0.421,0.1 -0.552,0.286 -8.173,11.615 -21.859,10.503 -21.993,10.489 -0.39,-0.028 -0.699,0.242 -0.733,0.609 -0.034,0.369 0.238,0.697 0.608,0.732 0.145,0.011 14.592,1.206 23.221,-11.054 C 0.763,0.757 0.691,0.337 0.386,0.123 0.271,0.04 0.134,0 0,0"
         id="path5112"
         style="fill:#8e6451;fill-opacity:1;fill-rule:nonzero;stroke:none" />
    </g>
  </g>
</svg>
