<?xml version="1.0" encoding="UTF-8" standalone="no"?>
<!-- Created with Inkscape (http://www.inkscape.org/) -->

<svg
   xmlns:dc="http://purl.org/dc/elements/1.1/"
   xmlns:cc="http://creativecommons.org/ns#"
   xmlns:rdf="http://www.w3.org/1999/02/22-rdf-syntax-ns#"
   xmlns:svg="http://www.w3.org/2000/svg"
   xmlns="http://www.w3.org/2000/svg"
   version="1.1"
   width="122.78305"
   height="136.32661"
   id="svg14023">
  <defs
     id="defs14025" />
  <metadata
     id="metadata14028">
    <rdf:RDF>
      <cc:Work
         rdf:about="">
        <dc:format>image/svg+xml</dc:format>
        <dc:type
           rdf:resource="http://purl.org/dc/dcmitype/StillImage" />
        <dc:title></dc:title>
      </cc:Work>
    </rdf:RDF>
  </metadata>
  <g
     transform="translate(-313.60848,-464.19887)"
     id="layer1">
    <g
       transform="matrix(1.25,0,0,-1.25,328.01222,588.17187)"
       id="g4730">
      <path
         d="M 0,0 C -1.352,1.212 -2.434,2.72 -3.147,4.418 -4.346,4.095 -5.553,3.917 -6.739,3.927 c 1.137,0.412 2.222,0.983 3.168,1.669 -0.212,0.693 -0.368,1.412 -0.454,2.152 -3.34,-1.512 -5.56,-0.682 -6.761,0.168 0.194,-2.904 1.052,-5.625 2.403,-8.033 0.635,-0.006 1.279,0.033 1.924,0.127 1.399,0.198 2.796,0.639 4.113,1.326 -1.05,-1.049 -2.309,-1.944 -3.714,-2.611 -0.409,-0.199 -0.833,-0.37 -1.263,-0.53 0.409,-0.577 0.841,-1.136 1.311,-1.665 1.361,0.227 2.72,0.799 3.944,1.667 C -1.334,-1.281 -0.641,-0.673 0,0"
         id="path4732"
         style="fill:#af5b2b;fill-opacity:1;fill-rule:nonzero;stroke:none" />
    </g>
    <g
       transform="matrix(1.25,0,0,-1.25,362.12485,576.68874)"
       id="g4734">
      <path
         d="m 0,0 c 0,1.859 -1.506,3.366 -3.367,3.366 -1.858,0 -3.366,-1.507 -3.366,-3.366 0,-4.875 -2.851,-9.089 -6.967,-11.091 0.143,-0.686 0.262,-1.38 0.335,-2.074 0.168,-1.62 0.135,-3.304 -0.388,-4.805 0.076,1.581 -0.348,3.082 -0.918,4.486 -0.237,0.576 -0.523,1.13 -0.817,1.68 -1.133,-0.343 -2.337,-0.532 -3.581,-0.532 -1.585,0 -3.098,0.299 -4.49,0.845 -0.252,-0.309 -0.496,-0.62 -0.767,-0.905 -0.881,-0.926 -1.852,-1.73 -2.875,-2.408 0.714,1 1.3,2.06 1.753,3.151 0.126,0.303 0.216,0.616 0.32,0.925 -0.565,0.323 -1.107,0.687 -1.614,1.09 -0.494,-0.824 -1.061,-1.617 -1.718,-2.354 -0.841,-0.941 -1.877,-1.768 -3.042,-2.42 2.115,-1.832 4.631,-3.208 7.405,-3.969 0.912,1.157 1.622,2.578 1.993,4.138 0.257,-1.448 0.213,-2.999 -0.128,-4.545 0.73,-0.124 1.477,-0.2 2.233,-0.235 0.572,1.72 0.89,3.632 0.96,5.566 0.63,-1.746 1.086,-3.588 1.248,-5.549 C -7.875,-18.341 0,-10.082 0,0"
         id="path4736"
         style="fill:#af5b2b;fill-opacity:1;fill-rule:nonzero;stroke:none" />
    </g>
    <g
       transform="matrix(1.25,0,0,-1.25,322.9806,578.48687)"
       id="g4738">
      <path
         d="m 0,0 c -0.057,0.471 -0.092,0.952 -0.092,1.438 0,1.416 0.238,2.804 0.707,4.126 C 1.235,7.318 0.32,9.242 -1.432,9.862 -3.184,10.485 -5.108,9.566 -5.731,7.816 -6.456,5.768 -6.825,3.623 -6.825,1.438 c 0,-0.429 0.036,-0.846 0.064,-1.27 C -5.56,-0.682 -3.34,-1.512 0,0"
         id="path4740"
         style="fill:#4b190d;fill-opacity:1;fill-rule:nonzero;stroke:none" />
    </g>
    <g
       transform="matrix(1.25,0,0,-1.25,324.07797,582.64949)"
       id="g4742">
      <path
         d="M 0,0 C -0.162,0.385 -0.303,0.775 -0.424,1.178 -1.369,0.492 -2.454,-0.079 -3.592,-0.491 -2.405,-0.501 -1.198,-0.323 0,0"
         id="path4744"
         style="fill:#4b190d;fill-opacity:1;fill-rule:nonzero;stroke:none" />
    </g>
    <g
       transform="matrix(1.25,0,0,-1.25,325.0801,586.50199)"
       id="g4746">
      <path
         d="m 0,0 c -1.317,-0.687 -2.714,-1.128 -4.113,-1.326 -0.646,-0.094 -1.289,-0.133 -1.924,-0.127 0.326,-0.579 0.676,-1.145 1.059,-1.688 0.431,0.161 0.855,0.331 1.264,0.53 C -2.31,-1.944 -1.051,-1.049 0,0"
         id="path4748"
         style="fill:#4b190d;fill-opacity:1;fill-rule:nonzero;stroke:none" />
    </g>
    <g
       transform="matrix(1.25,0,0,-1.25,328.6971,588.73587)"
       id="g4750">
      <path
         d="m 0,0 c -0.185,0.147 -0.371,0.293 -0.548,0.451 -0.64,-0.673 -1.334,-1.281 -2.068,-1.803 -1.224,-0.868 -2.583,-1.44 -3.944,-1.667 0.556,-0.628 1.165,-1.205 1.8,-1.755 1.165,0.652 2.201,1.479 3.042,2.42 C -1.061,-1.617 -0.494,-0.824 0,0"
         id="path4752"
         style="fill:#4b190d;fill-opacity:1;fill-rule:nonzero;stroke:none" />
    </g>
    <g
       transform="matrix(1.25,0,0,-1.25,328.12335,595.19337)"
       id="g4754">
      <path
         d="M 0,0 C 1.023,0.678 1.994,1.481 2.875,2.407 3.146,2.692 3.391,3.004 3.643,3.313 3.1,3.527 2.578,3.789 2.073,4.076 1.969,3.767 1.879,3.454 1.753,3.15 1.3,2.06 0.714,1 0,0"
         id="path4756"
         style="fill:#4b190d;fill-opacity:1;fill-rule:nonzero;stroke:none" />
    </g>
    <g
       transform="matrix(1.25,0,0,-1.25,334.49422,594.49274)"
       id="g4758">
      <path
         d="m 0,0 c -0.37,-1.56 -1.08,-2.98 -1.992,-4.138 0.609,-0.167 1.231,-0.301 1.864,-0.407 C 0.214,-2.999 0.258,-1.448 0,0"
         id="path4760"
         style="fill:#4b190d;fill-opacity:1;fill-rule:nonzero;stroke:none" />
    </g>
    <g
       transform="matrix(1.25,0,0,-1.25,337.1261,600.46799)"
       id="g4762">
      <path
         d="m 0,0 c 0.311,-0.016 0.617,-0.046 0.93,-0.046 0.43,0 0.851,0.037 1.278,0.064 C 2.046,1.979 1.59,3.82 0.96,5.566 0.89,3.633 0.572,1.721 0,0"
         id="path4764"
         style="fill:#4b190d;fill-opacity:1;fill-rule:nonzero;stroke:none" />
    </g>
    <g
       transform="matrix(1.25,0,0,-1.25,344.93372,599.15087)"
       id="g4766">
      <path
         d="M 0,0 C 0.522,1.501 0.556,3.185 0.388,4.805 0.315,5.499 0.196,6.192 0.053,6.879 -0.521,6.602 -1.116,6.356 -1.735,6.166 -1.441,5.616 -1.155,5.062 -0.918,4.485 -0.348,3.082 0.076,1.581 0,0"
         id="path4768"
         style="fill:#4b190d;fill-opacity:1;fill-rule:nonzero;stroke:none" />
    </g>
    <g
       transform="matrix(1.25,0,0,-1.25,398.90822,589.27299)"
       id="g4770">
      <path
         d="M 0,0 0,8.624 C 5.09,13.363 8.353,20.01 8.674,27.433 3.088,19.066 -7.024,13.454 -18.616,13.427 l 0,-12.153 c 1.673,0 3.301,0.171 4.891,0.459 l 0,-1.733 c -2.628,-2.044 -4.323,-5.232 -4.323,-8.817 l 22.369,0 C 4.321,-5.232 2.625,-2.044 0,0"
         id="path4772"
         style="fill:#ea8232;fill-opacity:1;fill-rule:nonzero;stroke:none" />
    </g>
    <g
       transform="matrix(1.25,0,0,-1.25,343.15022,557.47737)"
       id="g4774">
      <path
         d="M 0,0 C 0.35,-0.437 0.707,-0.867 1.084,-1.288 0.707,-0.867 0.35,-0.437 0,0 m 1.197,-1.407 c 0.396,-0.436 0.804,-0.866 1.229,-1.281 -0.425,0.415 -0.833,0.845 -1.229,1.281 m -2.559,4.595 c 0,-0.496 0.05,-0.977 0.077,-1.465 0.359,-0.524 0.735,-1.036 1.13,-1.537 -0.395,0.501 -0.771,1.013 -1.13,1.537 0.392,-7.312 3.635,-13.855 8.661,-18.536 l 0,-8.624 C 4.751,-27.48 3.053,-30.669 3.053,-34.254 l 22.368,0 c 0,3.585 -1.692,6.774 -4.32,8.817 l 0,1.734 c 1.589,-0.288 3.216,-0.459 4.889,-0.459 l 0,12.152 c -0.028,0 -0.057,-0.006 -0.085,-0.006 -9.273,0 -17.603,3.584 -23.439,9.29 2.302,-2.247 4.994,-4.165 7.976,-5.664 -0.307,1.815 -0.582,3.726 -0.879,5.729 2.149,-0.654 4.435,-1.274 6.862,-1.842 -0.003,-0.007 -0.006,-0.012 -0.009,-0.017 1.829,-0.912 3.73,-1.941 5.706,-3.099 1.262,-0.742 2.545,-1.517 3.868,-2.368 l 0,11.924 0,28.605 C 10.883,30.542 -1.362,18.293 -1.362,3.188"
         id="path4776"
         style="fill:#af5b2b;fill-opacity:1;fill-rule:nonzero;stroke:none" />
    </g>
    <g
       transform="matrix(1.25,0,0,-1.25,375.63797,519.29987)"
       id="g4778">
      <path
         d="m 0,0 0,-28.605 0.003,0 0,-11.924 c 1.324,0.851 2.603,1.626 3.872,2.368 1.972,1.158 3.873,2.187 5.702,3.099 2.479,0.58 4.806,1.212 6.991,1.881 -0.286,-1.941 -0.545,-3.808 -0.831,-5.574 4.745,2.458 8.73,5.98 11.553,10.209 0.019,0.4 0.063,0.79 0.063,1.192 C 27.353,-12.249 15.108,0 0,0"
         id="path4780"
         style="fill:#af5b2b;fill-opacity:1;fill-rule:nonzero;stroke:none" />
    </g>
    <g
       transform="matrix(1.25,0,0,-1.25,375.64172,561.54587)"
       id="g4782">
      <path
         d="m 0,0 -0.003,-1.346 0,1.346 c -1.323,0.852 -14.278,-0.061 -16.427,0.594 0.297,-2.003 0.572,-3.914 0.879,-5.729 1.568,-9.31 4.047,-15.772 15.548,-15.772 l 0,12.152 c 5.731,0.013 11.099,1.397 15.737,3.797 0.287,1.766 0.545,3.633 0.831,5.574 C 14.38,-0.053 1.324,0.852 0,0"
         id="path4784"
         style="fill:#d5d2b1;fill-opacity:1;fill-rule:nonzero;stroke:none" />
    </g>
    <g
       transform="matrix(1.25,0,0,-1.25,395.3096,567.74337)"
       id="g4786">
      <path
         d="m 0,0 c -4.639,-2.4 -10.007,-3.784 -15.737,-3.797 l 0,-12.152 C -3.896,-15.949 -1.537,-9.406 0,0"
         id="path4788"
         style="fill:#f6f3cf;fill-opacity:1;fill-rule:nonzero;stroke:none" />
    </g>
    <g
       transform="matrix(1.25,0,0,-1.25,362.5386,482.41137)"
       id="g4790">
      <path
         d="m 0,0 c 0,-8.044 -6.521,-14.565 -14.568,-14.565 -8.044,0 -14.566,6.521 -14.566,14.565 0,8.047 6.522,14.57 14.566,14.57 C -6.521,14.57 0,8.047 0,0"
         id="path4792"
         style="fill:#af5b2b;fill-opacity:1;fill-rule:nonzero;stroke:none" />
    </g>
    <g
       transform="matrix(1.25,0,0,-1.25,354.82747,482.41137)"
       id="g4794">
      <path
         d="m 0,0 c 0,-4.637 -3.76,-8.396 -8.399,-8.396 -4.637,0 -8.398,3.759 -8.398,8.396 0,4.641 3.761,8.4 8.398,8.4 C -3.76,8.4 0,4.641 0,0"
         id="path4796"
         style="fill:#4b190d;fill-opacity:1;fill-rule:nonzero;stroke:none" />
    </g>
    <g
       transform="matrix(1.25,0,0,-1.25,424.1976,482.41137)"
       id="g4798">
      <path
         d="m 0,0 c 0,-8.044 -6.521,-14.565 -14.567,-14.565 -8.045,0 -14.567,6.521 -14.567,14.565 0,8.047 6.522,14.57 14.567,14.57 C -6.521,14.57 0,8.047 0,0"
         id="path4800"
         style="fill:#ea8232;fill-opacity:1;fill-rule:nonzero;stroke:none" />
    </g>
    <g
       transform="matrix(1.25,0,0,-1.25,416.4876,482.41137)"
       id="g4802">
      <path
         d="m 0,0 c 0,-4.637 -3.761,-8.396 -8.399,-8.396 -4.638,0 -8.397,3.759 -8.397,8.396 0,4.641 3.759,8.4 8.397,8.4 C -3.761,8.4 0,4.641 0,0"
         id="path4804"
         style="fill:#4b190d;fill-opacity:1;fill-rule:nonzero;stroke:none" />
    </g>
    <g
       transform="matrix(1.25,0,0,-1.25,362.5386,482.41137)"
       id="g4806">
      <path
         d="m 0,0 c 0,-8.044 -6.521,-14.565 -14.568,-14.565 -8.044,0 -14.566,6.521 -14.566,14.565 0,8.047 6.522,14.57 14.566,14.57 C -6.521,14.57 0,8.047 0,0"
         id="path4808"
         style="fill:#ea8232;fill-opacity:1;fill-rule:nonzero;stroke:none" />
    </g>
    <g
       transform="matrix(1.25,0,0,-1.25,354.82747,482.41137)"
       id="g4810">
      <path
         d="m 0,0 c 0,-4.637 -3.76,-8.396 -8.399,-8.396 -4.637,0 -8.398,3.759 -8.398,8.396 0,4.641 3.761,8.4 8.398,8.4 C -3.76,8.4 0,4.641 0,0"
         id="path4812"
         style="fill:#4b190d;fill-opacity:1;fill-rule:nonzero;stroke:none" />
    </g>
    <g
       transform="matrix(1.25,0,0,-1.25,330.70635,518.71262)"
       id="g4814">
      <path
         d="m 0,0 c -0.84,-3.424 -2.031,-6.472 -3.182,-8.937 -0.262,-0.062 -0.522,-0.13 -0.775,-0.214 -1.144,-0.379 -2.174,-0.982 -3.062,-1.764 -0.876,-0.797 -1.648,-1.752 -2.071,-3.056 1.289,-0.079 2.341,0.038 3.34,0.207 -0.616,-1.014 -1.02,-1.585 -1.02,-1.585 3.675,2.245 8.059,3.282 17.667,0.789 9.797,-2.541 18.404,-6.878 20.103,-10.455 1.481,0.823 3.164,1.332 4.98,1.332 l 0,18.659 0,42.088 C 8.67,37.064 0,19.316 0,0"
         id="path4816"
         style="fill:#af5b2b;fill-opacity:1;fill-rule:nonzero;stroke:none" />
    </g>
    <g
       transform="matrix(1.25,0,0,-1.25,375.63797,563.22799)"
       id="g4818">
      <path
         d="m 0,0 0.053,21.053 c -11.166,5.495 -10.234,-2.987 -22.982,1.262 -9.418,3.14 -18.037,0.671 -20.618,-3.142 0,0 20.618,-22.112 43.547,-19.173"
         id="path4820"
         style="fill:#d5d2b1;fill-opacity:1;fill-rule:nonzero;stroke:none" />
    </g>
    <g
       transform="matrix(1.25,0,0,-1.25,375.61722,479.11312)"
       id="g4822">
      <path
         d="m 0,0 0,-0.003 c 0.015,0 0.025,0.002 0.035,0.002 C 0.025,-0.001 0.015,0 0,0"
         id="path4824"
         style="fill:#e96332;fill-opacity:1;fill-rule:nonzero;stroke:none" />
    </g>
    <g
       transform="matrix(1.25,0,0,-1.25,369.4576,556.68137)"
       id="g4826">
      <path
         d="M 0,0 -0.001,0 C 0.001,-0.007 0.011,-0.018 0.013,-0.026 0.011,-0.018 0.001,-0.007 0,0"
         id="path4828"
         style="fill:#07171b;fill-opacity:1;fill-rule:nonzero;stroke:none" />
    </g>
    <g
       transform="matrix(1.25,0,0,-1.25,375.70397,479.11312)"
       id="g4830">
      <path
         d="m 0,0 c -0.011,0 -0.023,-0.001 -0.034,-0.001 0.011,0 0.023,-0.002 0.034,-0.002 L 0,0 z"
         id="path4832"
         style="fill:#a84720;fill-opacity:1;fill-rule:nonzero;stroke:none" />
    </g>
    <g
       transform="matrix(1.25,0,0,-1.25,375.70397,517.30399)"
       id="g4834">
      <path
         d="m 0,0 0,30.55 c -0.011,0 -0.023,0.002 -0.034,0.002 -0.01,0 -0.021,-0.002 -0.035,-0.002 l 0,-30.554 C -0.044,-0.004 -0.023,0 0,0"
         id="path4836"
         style="fill:#a84720;fill-opacity:1;fill-rule:nonzero;stroke:none" />
    </g>
    <g
       transform="matrix(1.25,0,0,-1.25,375.61722,555.05062)"
       id="g4838">
      <path
         d="m 0,0 0.035,0 0.034,0 0,18.663 0,11.534 C 0.046,30.197 0.025,30.193 0,30.193 L 0,18.663 0,0 z"
         id="path4840"
         style="fill:#a84720;fill-opacity:1;fill-rule:nonzero;stroke:none" />
    </g>
    <g
       transform="matrix(1.25,0,0,-1.25,431.9576,536.17599)"
       id="g4842">
      <path
         d="m 0,0 c -0.424,1.304 -1.195,2.259 -2.072,3.056 -0.886,0.782 -1.918,1.384 -3.061,1.763 -0.252,0.084 -0.513,0.153 -0.776,0.215 -1.151,2.465 -2.339,5.513 -3.18,8.937 0,19.316 -8.672,37.064 -35.98,37.064 l 0,-42.089 0,-18.658 c 1.815,0 3.498,-0.51 4.982,-1.332 1.697,3.577 10.302,7.914 20.099,10.455 9.61,2.492 13.994,1.455 17.667,-0.789 0,0 -0.402,0.57 -1.018,1.585 C -2.34,0.038 -1.288,-0.079 0,0"
         id="path4844"
         style="fill:#ea8232;fill-opacity:1;fill-rule:nonzero;stroke:none" />
    </g>
    <g
       transform="matrix(1.25,0,0,-1.25,375.61722,555.05062)"
       id="g4846">
      <path
         d="m 0,0 0,-0.005 c 0.015,0 0.025,0.003 0.035,0.005 L 0,0 z"
         id="path4848"
         style="fill:#a84720;fill-opacity:1;fill-rule:nonzero;stroke:none" />
    </g>
    <g
       transform="matrix(1.25,0,0,-1.25,375.6636,563.22799)"
       id="g4850">
      <path
         d="m 0,0 -0.052,21.053 c 11.165,5.495 10.234,-2.987 22.981,1.262 9.417,3.14 18.038,0.671 20.618,-3.142 C 43.547,19.173 22.929,-2.939 0,0"
         id="path4852"
         style="fill:#f6f3cf;fill-opacity:1;fill-rule:nonzero;stroke:none" />
    </g>
    <g
       transform="matrix(1.25,0,0,-1.25,345.4341,510.56937)"
       id="g4854">
      <path
         d="M 0,0 C 0,0 14.979,4.342 14.643,-10.891 14.643,-10.891 0,-16.21 0,0"
         id="path4856"
         style="fill:#4b190d;fill-opacity:1;fill-rule:nonzero;stroke:none" />
    </g>
    <g
       transform="matrix(1.25,0,0,-1.25,361.74647,517.74224)"
       id="g4858">
      <path
         d="m 0,0 c 0,-3.066 -2.486,-5.555 -5.555,-5.555 -3.067,0 -5.555,2.489 -5.555,5.555 0,3.066 2.488,5.554 5.555,5.554 C -2.486,5.554 0,3.066 0,0"
         id="path4860"
         style="fill:#f39e2b;fill-opacity:1;fill-rule:nonzero;stroke:none" />
    </g>
    <g
       transform="matrix(1.25,0,0,-1.25,359.51622,514.87724)"
       id="g4862">
      <path
         d="m 0,0 c 0,-1.057 -0.859,-1.912 -1.916,-1.912 -1.055,0 -1.912,0.855 -1.912,1.912 0,1.058 0.857,1.915 1.912,1.915 C -0.859,1.915 0,1.058 0,0"
         id="path4864"
         style="fill:#ffffff;fill-opacity:1;fill-rule:nonzero;stroke:none" />
    </g>
    <g
       transform="matrix(1.25,0,0,-1.25,405.99085,510.56937)"
       id="g4866">
      <path
         d="M 0,0 C 0,0 -14.98,4.342 -14.643,-10.891 -14.643,-10.891 0,-16.21 0,0"
         id="path4868"
         style="fill:#4b190d;fill-opacity:1;fill-rule:nonzero;stroke:none" />
    </g>
    <g
       transform="matrix(1.25,0,0,-1.25,389.55522,517.74224)"
       id="g4870">
      <path
         d="m 0,0 c 0,-3.066 2.485,-5.555 5.556,-5.555 3.066,0 5.553,2.489 5.553,5.555 0,3.066 -2.487,5.554 -5.553,5.554 C 2.485,5.554 0,3.066 0,0"
         id="path4872"
         style="fill:#f39e2b;fill-opacity:1;fill-rule:nonzero;stroke:none" />
    </g>
    <g
       transform="matrix(1.25,0,0,-1.25,396.83435,514.87724)"
       id="g4874">
      <path
         d="M 0,0 C 0,-1.057 0.857,-1.912 1.914,-1.912 2.972,-1.912 3.83,-1.057 3.83,0 3.83,1.058 2.972,1.915 1.914,1.915 0.857,1.915 0,1.058 0,0"
         id="path4876"
         style="fill:#ffffff;fill-opacity:1;fill-rule:nonzero;stroke:none" />
    </g>
    <g
       transform="matrix(1.25,0,0,-1.25,374.53085,543.46849)"
       id="g4878">
      <path
         d="m 0,0 c -0.785,0.146 -1.472,0.493 -1.923,1.022 -2.115,2.477 -4.865,4.23 -6.473,5.153 1.595,0.457 4.646,1.093 9.25,1.093 4.563,0 7.635,-0.643 9.235,-1.099 C 7.383,4.495 5.092,2.702 3.416,0.944 2.959,0.467 2.354,0.148 1.612,0 L 0,0 z"
         id="path4880"
         style="fill:#d76c79;fill-opacity:1;fill-rule:nonzero;stroke:none" />
    </g>
    <g
       transform="matrix(1.25,0,0,-1.25,375.59897,533.54537)"
       id="g4882">
      <path
         d="m 0,0 c -7.384,0 -10.911,-1.62 -10.887,-1.62 0,0 0,0.002 0.003,0.002 0.085,-0.122 4.553,-2.168 7.594,-5.735 0.638,-0.748 1.54,-1.104 2.436,-1.259 l 1.676,0 c 0.823,0.154 1.615,0.508 2.228,1.154 3.177,3.335 7.738,5.814 7.779,5.859 C 10.829,-1.599 7.3,0 0,0 m 0,-1.347 c 3.332,0 5.848,-0.346 7.552,-0.704 C 5.371,-3.504 3.507,-5.027 2.075,-6.529 1.728,-6.893 1.265,-7.141 0.687,-7.266 l -1.42,0 c -0.688,0.135 -1.203,0.4 -1.533,0.787 -1.645,1.928 -3.654,3.423 -5.249,4.449 1.696,0.349 4.184,0.683 7.515,0.683"
         id="path4884"
         style="fill:#4b190d;fill-opacity:1;fill-rule:nonzero;stroke:none" />
    </g>
    <g
       transform="matrix(1.25,0,0,-1.25,374.75785,548.92999)"
       id="g4886">
      <path
         d="m 0,0 c -1.37,-2.366 -3.105,-3.708 -5.152,-3.989 -4.637,-0.623 -9.561,4.236 -9.612,4.283 -0.262,0.268 -0.688,0.268 -0.952,0.003 -0.262,-0.264 -0.262,-0.688 -0.001,-0.952 0.204,-0.206 4.778,-4.736 9.706,-4.736 0.347,0 0.69,0.02 1.037,0.068 2.235,0.306 4.129,1.605 5.647,3.864 1.515,-2.259 3.409,-3.558 5.646,-3.864 0.345,-0.048 0.694,-0.068 1.036,-0.068 4.93,0 9.499,4.53 9.707,4.736 0.262,0.264 0.261,0.688 -0.001,0.952 C 16.795,0.557 16.369,0.56 16.105,0.294 16.056,0.247 11.142,-4.606 6.502,-3.989 4.448,-3.702 2.72,-2.376 1.346,0 l 0,3.662 c 0.05,0.009 0.098,0.024 0.149,0.033 l -1.677,0 C -0.122,3.685 -0.062,3.665 0,3.658 L 0,0 z"
         id="path4888"
         style="fill:#4b190d;fill-opacity:1;fill-rule:nonzero;stroke:none" />
    </g>
    <g
       transform="matrix(1.25,0,0,-1.25,330.53422,519.39624)"
       id="g4890">
      <path
         d="M 0,0 11.035,-6.354 -1.473,-4.647 0,0 z"
         id="path4892"
         style="fill:#4b190d;fill-opacity:1;fill-rule:nonzero;stroke:none" />
    </g>
    <g
       transform="matrix(1.25,0,0,-1.25,331.9576,505.34599)"
       id="g4894">
      <path
         d="m 0,0 c 0.695,-1.212 1.399,-2.261 2.254,-3.404 1.713,-2.277 3.748,-4.38 6.169,-6.133 -2.898,0.733 -5.745,1.996 -8.409,3.622 l -0.786,0.494 C -0.637,-2.529 0,0 0,0"
         id="path4896"
         style="fill:#4b190d;fill-opacity:1;fill-rule:nonzero;stroke:none" />
    </g>
    <g
       transform="matrix(1.25,0,0,-1.25,360.97735,482.41137)"
       id="g4898">
      <path
         d="m 0,0 c 1.458,1.528 3.336,2.719 5.317,3.711 1.996,0.984 4.145,1.736 6.368,2.292 l 0,-6.739 C 9.876,-0.171 7.955,0.245 5.999,0.413 4.045,0.567 2.013,0.545 0,0"
         id="path4900"
         style="fill:#4b190d;fill-opacity:1;fill-rule:nonzero;stroke:none" />
    </g>
    <g
       transform="matrix(1.25,0,0,-1.25,358.5421,492.90699)"
       id="g4902">
      <path
         d="m 0,0 c 1.84,1.604 3.997,2.898 6.231,4.049 2.247,1.141 4.954,2.097 7.402,2.896 l 0.03,-6.662 C 11.414,0.627 9.382,0.79 7.05,0.783 4.718,0.765 2.345,0.6 0,0"
         id="path4904"
         style="fill:#4b190d;fill-opacity:1;fill-rule:nonzero;stroke:none" />
    </g>
    <g
       transform="matrix(1.25,0,0,-1.25,363.74222,500.61824)"
       id="g4906">
      <path
         d="m 0,0 c 1.306,1.124 2.708,2.162 4.256,3.103 1.575,0.913 2.87,1.649 5.217,2.003 l 0,-6.529 C 8.579,-0.759 6.594,-0.377 5.017,-0.175 3.407,0.021 1.709,0.078 0,0"
         id="path4908"
         style="fill:#4b190d;fill-opacity:1;fill-rule:nonzero;stroke:none" />
    </g>
    <g
       transform="matrix(1.25,0,0,-1.25,341.82947,558.02912)"
       id="g4910">
      <path
         d="M 0,0 C 0.831,-0.831 1.808,-1.624 2.695,-2.398 3.585,-3.173 4.506,-3.913 5.478,-4.589 6.45,-5.26 7.467,-5.877 8.611,-6.31 7.391,-6.436 6.117,-6.336 4.872,-6.158 3.621,-5.977 2.493,-5.734 1.269,-5.42 0.212,-2.378 0,0 0,0"
         id="path4912"
         style="fill:#4b190d;fill-opacity:1;fill-rule:nonzero;stroke:none" />
    </g>
    <g
       transform="matrix(1.25,0,0,-1.25,344.70172,567.96437)"
       id="g4914">
      <path
         d="M 0,0 C 0,0 0.832,-0.512 1.784,-1.143 3.688,-2.398 5.688,-3.543 7.909,-4.361 5.556,-4.66 5.076,-4.737 2.645,-4.482 2.645,-4.482 1.637,-3.267 0,0"
         id="path4916"
         style="fill:#4b190d;fill-opacity:1;fill-rule:nonzero;stroke:none" />
    </g>
    <g
       transform="matrix(1.25,0,0,-1.25,420.65147,519.39624)"
       id="g4918">
      <path
         d="M 0,0 -11.036,-6.354 1.471,-4.647 0,0 z"
         id="path4920"
         style="fill:#4b190d;fill-opacity:1;fill-rule:nonzero;stroke:none" />
    </g>
    <g
       transform="matrix(1.25,0,0,-1.25,419.22935,505.34599)"
       id="g4922">
      <path
         d="m 0,0 c -0.699,-1.212 -1.4,-2.261 -2.256,-3.404 -1.712,-2.277 -3.748,-4.38 -6.17,-6.133 2.9,0.733 5.746,1.996 8.411,3.622 l 0.787,0.494 C 0.635,-2.529 0,0 0,0"
         id="path4924"
         style="fill:#4b190d;fill-opacity:1;fill-rule:nonzero;stroke:none" />
    </g>
    <g
       transform="matrix(1.25,0,0,-1.25,390.20835,482.41137)"
       id="g4926">
      <path
         d="m 0,0 c -1.458,1.528 -3.336,2.719 -5.317,3.711 -1.996,0.984 -4.145,1.736 -6.368,2.292 l 0,-6.739 c 1.808,0.565 3.729,0.981 5.686,1.149 C -4.046,0.567 -2.012,0.545 0,0"
         id="path4928"
         style="fill:#4b190d;fill-opacity:1;fill-rule:nonzero;stroke:none" />
    </g>
    <g
       transform="matrix(1.25,0,0,-1.25,392.64235,492.90699)"
       id="g4930">
      <path
         d="m 0,0 c -1.839,1.604 -3.996,2.898 -6.23,4.049 -2.249,1.141 -4.953,2.097 -7.402,2.896 l -0.032,-6.662 c 2.25,0.344 4.282,0.507 6.615,0.5 C -4.718,0.765 -2.344,0.6 0,0"
         id="path4932"
         style="fill:#4b190d;fill-opacity:1;fill-rule:nonzero;stroke:none" />
    </g>
    <g
       transform="matrix(1.25,0,0,-1.25,387.44097,500.61824)"
       id="g4934">
      <path
         d="m 0,0 c -1.306,1.124 -2.709,2.162 -4.254,3.103 -1.575,0.913 -2.87,1.649 -5.217,2.003 l 0,-6.529 c 0.895,0.664 2.878,1.046 4.456,1.248 C -3.405,0.021 -1.707,0.078 0,0"
         id="path4936"
         style="fill:#4b190d;fill-opacity:1;fill-rule:nonzero;stroke:none" />
    </g>
    <g
       transform="matrix(1.25,0,0,-1.25,409.3551,558.02912)"
       id="g4938">
      <path
         d="m 0,0 c -0.831,-0.831 -1.807,-1.624 -2.695,-2.398 -0.891,-0.775 -1.811,-1.515 -2.78,-2.191 -0.975,-0.671 -1.992,-1.288 -3.136,-1.721 1.221,-0.126 2.494,-0.026 3.74,0.152 1.251,0.181 2.378,0.424 3.606,0.738 C -0.211,-2.378 0,0 0,0"
         id="path4940"
         style="fill:#4b190d;fill-opacity:1;fill-rule:nonzero;stroke:none" />
    </g>
    <g
       transform="matrix(1.25,0,0,-1.25,406.48272,567.96437)"
       id="g4942">
      <path
         d="m 0,0 c 0,0 -0.831,-0.512 -1.782,-1.143 -1.906,-1.255 -3.907,-2.4 -6.128,-3.218 2.355,-0.299 2.833,-0.376 5.264,-0.121 0,0 1.008,1.215 2.646,4.482"
         id="path4944"
         style="fill:#4b190d;fill-opacity:1;fill-rule:nonzero;stroke:none" />
    </g>
    <g
       transform="matrix(1.25,0,0,-1.25,314.4491,549.39624)"
       id="g4946">
      <path
         d="m 0,0 c -0.164,0 -0.325,0.058 -0.455,0.175 -0.273,0.253 -0.292,0.679 -0.04,0.953 13.3,14.508 33.944,6.39 34.151,6.304 C 34.001,7.293 34.167,6.901 34.028,6.555 33.887,6.212 33.493,6.044 33.15,6.183 32.951,6.263 13.158,14.029 0.497,0.219 0.363,0.073 0.182,0 0,0"
         id="path4948"
         style="fill:#8e6451;fill-opacity:1;fill-rule:nonzero;stroke:none" />
    </g>
    <g
       transform="matrix(1.25,0,0,-1.25,319.9251,554.68924)"
       id="g4950">
      <path
         d="M 0,0 C -0.171,0 -0.339,0.063 -0.471,0.189 -0.736,0.451 -0.743,0.876 -0.486,1.14 11.97,13.983 28.218,9.659 28.383,9.615 28.739,9.516 28.949,9.146 28.85,8.787 28.749,8.429 28.384,8.219 28.021,8.317 27.867,8.363 12.367,12.459 0.479,0.204 0.35,0.068 0.173,0 0,0"
         id="path4952"
         style="fill:#8e6451;fill-opacity:1;fill-rule:nonzero;stroke:none" />
    </g>
    <g
       transform="matrix(1.25,0,0,-1.25,326.91735,560.58162)"
       id="g4954">
      <path
         d="m 0,0 c -0.134,0 -0.27,0.04 -0.387,0.125 -0.303,0.212 -0.377,0.633 -0.163,0.936 8.629,12.263 23.079,11.065 23.219,11.055 0.37,-0.032 0.643,-0.361 0.608,-0.731 -0.034,-0.371 -0.337,-0.65 -0.731,-0.61 C 22.409,10.788 8.723,11.899 0.552,0.286 0.421,0.101 0.213,0 0,0"
         id="path4956"
         style="fill:#8e6451;fill-opacity:1;fill-rule:nonzero;stroke:none" />
    </g>
    <g
       transform="matrix(1.25,0,0,-1.25,435.5501,549.39624)"
       id="g4958">
      <path
         d="m 0,0 c -0.182,0 -0.363,0.073 -0.495,0.219 -12.665,13.81 -32.456,6.044 -32.655,5.964 -0.346,-0.136 -0.737,0.029 -0.878,0.372 -0.139,0.346 0.029,0.738 0.374,0.877 0.205,0.086 20.85,8.204 34.151,-6.304 C 0.747,0.854 0.729,0.428 0.455,0.175 0.326,0.058 0.162,0 0,0"
         id="path4960"
         style="fill:#8e6451;fill-opacity:1;fill-rule:nonzero;stroke:none" />
    </g>
    <g
       transform="matrix(1.25,0,0,-1.25,430.07647,554.68924)"
       id="g4962">
      <path
         d="m 0,0 c -0.175,0 -0.352,0.068 -0.483,0.204 -11.907,12.272 -27.383,8.159 -27.538,8.113 -0.364,-0.095 -0.731,0.112 -0.829,0.47 -0.1,0.358 0.109,0.729 0.468,0.828 0.159,0.044 16.408,4.371 28.866,-8.475 C 0.742,0.876 0.735,0.451 0.469,0.189 0.338,0.063 0.169,0 0,0"
         id="path4964"
         style="fill:#8e6451;fill-opacity:1;fill-rule:nonzero;stroke:none" />
    </g>
    <g
       transform="matrix(1.25,0,0,-1.25,423.08185,560.58162)"
       id="g4966">
      <path
         d="M 0,0 C -0.212,0 -0.42,0.101 -0.553,0.286 -8.724,11.9 -22.415,10.79 -22.546,10.775 c -0.387,-0.03 -0.698,0.239 -0.731,0.61 -0.035,0.37 0.236,0.699 0.606,0.731 0.145,0.01 14.592,1.208 23.223,-11.055 C 0.764,0.758 0.69,0.337 0.387,0.125 0.27,0.04 0.134,0 0,0"
         id="path4968"
         style="fill:#8e6451;fill-opacity:1;fill-rule:nonzero;stroke:none" />
    </g>
  </g>
</svg>
