<?xml version="1.0" encoding="UTF-8" standalone="no"?>
<!-- Created with Inkscape (http://www.inkscape.org/) -->

<svg
   xmlns:dc="http://purl.org/dc/elements/1.1/"
   xmlns:cc="http://creativecommons.org/ns#"
   xmlns:rdf="http://www.w3.org/1999/02/22-rdf-syntax-ns#"
   xmlns:svg="http://www.w3.org/2000/svg"
   xmlns="http://www.w3.org/2000/svg"
   version="1.1"
   width="126.54797"
   height="102.85825"
   id="svg11100">
  <defs
     id="defs11102" />
  <metadata
     id="metadata11105">
    <rdf:RDF>
      <cc:Work
         rdf:about="">
        <dc:format>image/svg+xml</dc:format>
        <dc:type
           rdf:resource="http://purl.org/dc/dcmitype/StillImage" />
        <dc:title></dc:title>
      </cc:Work>
    </rdf:RDF>
  </metadata>
  <g
     transform="translate(-216.72601,-543.7902)"
     id="layer1">
    <g
       transform="matrix(1.25,0,0,-1.25,251.89191,637.9967)"
       id="g3894">
      <path
         d="m 0,0 c -3.387,0 -7.099,0.967 -11.037,3.392 -5.587,3.443 -8.83,7.887 -9.639,13.21 -1.478,9.737 6.075,18.521 6.396,18.89 0.025,0.032 7.796,9.749 3.039,14.733 -1.983,2.08 -4.25,3.12 -6.213,2.843 -1.391,-0.193 -2.524,-1.044 -3.275,-2.463 -0.694,-1.314 -0.905,-2.391 -0.626,-3.2 0.388,-1.138 1.741,-1.774 1.754,-1.78 1.659,-0.746 2.439,-2.697 1.719,-4.369 -0.721,-1.67 -2.622,-2.463 -4.304,-1.771 -0.41,0.167 -4.029,1.756 -5.427,5.625 -0.658,1.825 -1.021,4.799 0.995,8.61 1.741,3.296 4.749,5.463 8.249,5.949 4.109,0.57 8.469,-1.195 11.95,-4.845 7.121,-7.464 1.598,-18.38 -2.79,-23.653 -0.104,-0.122 -5.903,-6.931 -4.876,-13.595 0.515,-3.331 2.655,-6.115 6.544,-8.51 11.443,-7.052 18.855,3.768 19.663,5.025 0.993,1.543 3.052,1.999 4.597,1.013 1.546,-0.986 2.009,-3.032 1.027,-4.583 C 14.948,6.095 8.502,0 0,0"
         id="path3896"
         style="fill:#6f6f6e;fill-opacity:1;fill-rule:nonzero;stroke:none" />
    </g>
    <g
       transform="matrix(1.25,0,0,-1.25,263.23354,610.99657)"
       id="g3898">
      <path
         d="m 0,0 c 0,-11.581 10.426,-20.968 23.288,-20.968 l 0,41.932 C 10.426,20.964 0,11.576 0,0"
         id="path3900"
         style="fill:#d3c5c1;fill-opacity:1;fill-rule:nonzero;stroke:none" />
    </g>
    <g
       transform="matrix(1.25,0,0,-1.25,321.45253,610.99657)"
       id="g3902">
      <path
         d="m 0,0 c 0,11.576 -10.425,20.964 -23.287,20.964 l 0,-41.932 C -10.425,-20.968 0,-11.581 0,0"
         id="path3904"
         style="fill:#f6e9e5;fill-opacity:1;fill-rule:nonzero;stroke:none" />
    </g>
    <g
       transform="matrix(1.25,0,0,-1.25,258.61679,598.4422)"
       id="g3906">
      <path
         d="m 0,0 c 0,-11.579 12.082,-20.964 26.981,-20.964 l 0,41.93 C 12.082,20.966 0,11.579 0,0"
         id="path3908"
         style="fill:#d3c5c1;fill-opacity:1;fill-rule:nonzero;stroke:none" />
    </g>
    <g
       transform="matrix(1.25,0,0,-1.25,326.06791,598.4422)"
       id="g3910">
      <path
         d="m 0,0 c 0,11.579 -12.082,20.966 -26.979,20.966 l 0,-44.152 C -12.082,-23.186 0,-11.579 0,0"
         id="path3912"
         style="fill:#d3c5c1;fill-opacity:1;fill-rule:nonzero;stroke:none" />
    </g>
    <path
       d="m 288.63391,642.2637 -13.15375,0 0,-11.46625 13.15375,0 0,11.46625 z"
       id="path3914"
       style="fill:#d3c5c1;fill-opacity:1;fill-rule:nonzero;stroke:none" />
    <g
       transform="matrix(1.25,0,0,-1.25,271.77228,646.64845)"
       id="g3916">
      <path
         d="m 0,0 c 0,4.544 3.685,8.228 8.228,8.228 4.544,0 8.229,-3.684 8.229,-8.228"
         id="path3918"
         style="fill:#d3c5c1;fill-opacity:1;fill-rule:nonzero;stroke:none" />
    </g>
    <path
       d="m 311.39516,642.2637 -13.15125,0 0,-11.46625 13.15125,0 0,11.46625 z"
       id="path3920"
       style="fill:#f6e9e5;fill-opacity:1;fill-rule:nonzero;stroke:none" />
    <g
       transform="matrix(1.25,0,0,-1.25,294.53591,646.64845)"
       id="g3922">
      <path
         d="m 0,0 c 0,4.544 3.684,8.228 8.225,8.228 4.547,0 8.232,-3.684 8.232,-8.228"
         id="path3924"
         style="fill:#f6e9e5;fill-opacity:1;fill-rule:nonzero;stroke:none" />
    </g>
    <g
       transform="matrix(1.25,0,0,-1.25,309.54328,555.0877)"
       id="g3926">
      <path
         d="m 0,0 c 5.801,8.903 21.584,9.038 21.584,9.038 0,0 1.921,-20.02 -6.881,-26.71"
         id="path3928"
         style="fill:#6f6f6e;fill-opacity:1;fill-rule:nonzero;stroke:none" />
    </g>
    <g
       transform="matrix(1.25,0,0,-1.25,330.95928,550.0292)"
       id="g3930">
      <path
         d="m 0,0 c 0,0 -7.558,0.133 -12.682,-5.397 -5.125,-5.53 9.172,-11.466 9.172,-11.466 0,0 5.802,8.905 3.51,16.863"
         id="path3932"
         style="fill:#d76c79;fill-opacity:1;fill-rule:nonzero;stroke:none" />
    </g>
    <g
       transform="matrix(1.25,0,0,-1.25,277.78791,555.0877)"
       id="g3934">
      <path
         d="m 0,0 c -5.802,8.903 -21.584,9.038 -21.584,9.038 0,0 -1.922,-20.02 6.879,-26.71"
         id="path3936"
         style="fill:#6f6f6e;fill-opacity:1;fill-rule:nonzero;stroke:none" />
    </g>
    <g
       transform="matrix(1.25,0,0,-1.25,256.36941,550.0292)"
       id="g3938">
      <path
         d="m 0,0 c 0,0 7.558,0.133 12.684,-5.397 5.124,-5.53 -9.173,-11.466 -9.173,-11.466 0,0 -5.8,8.905 -3.511,16.863"
         id="path3940"
         style="fill:#d76c79;fill-opacity:1;fill-rule:nonzero;stroke:none" />
    </g>
    <g
       transform="matrix(1.25,0,0,-1.25,292.34353,591.84745)"
       id="g3942">
      <path
         d="m 0,0 0,35.786 c 0,0 -5.397,0.366 -13.491,-2.602 -8.094,-2.968 -14.838,-11.871 -16.994,-26.441 0,0 -5.233,-8.077 -5.937,-15.915 0,0 6.673,-2.013 13.134,-6.147 C -21.9,-6.693 -12.01,0 0,0"
         id="path3944"
         style="fill:#d3c5c1;fill-opacity:1;fill-rule:nonzero;stroke:none" />
    </g>
    <g
       transform="matrix(1.25,0,0,-1.25,321.45253,610.99657)"
       id="g3946">
      <path
         d="m 0,0 c 6.46,4.134 13.134,6.147 13.134,6.147 0,7.854 -5.936,15.916 -5.936,15.916 -2.157,14.57 -8.901,23.472 -16.994,26.44 -8.095,2.969 -13.491,2.602 -13.491,2.602 l 0,-35.786 C -11.277,15.319 -1.388,8.626 0,0"
         id="path3948"
         style="fill:#f6e9e5;fill-opacity:1;fill-rule:nonzero;stroke:none" />
    </g>
    <g
       transform="matrix(1.25,0,0,-1.25,264.59578,575.9832)"
       id="g3950">
      <path
         d="M 0,0 C 0,0 12.354,3.581 12.076,-8.981 12.076,-8.981 0,-13.367 0,0"
         id="path3952"
         style="fill:#68a284;fill-opacity:1;fill-rule:nonzero;stroke:none" />
    </g>
    <g
       transform="matrix(1.25,0,0,-1.25,304.99491,587.20995)"
       id="g3954">
      <path
         d="M 0,0 C 0,0 12.075,-4.385 12.075,8.981 12.075,8.981 -0.278,12.562 0,0"
         id="path3956"
         style="fill:#68a284;fill-opacity:1;fill-rule:nonzero;stroke:none" />
    </g>
    <g
       transform="matrix(1.25,0,0,-1.25,309.88753,598.94645)"
       id="g3958">
      <path
         d="m 0,0 c -0.154,0 -0.303,0.086 -0.37,0.238 -0.093,0.204 0,0.444 0.203,0.534 0.73,0.329 17.942,8.009 24.403,5.279 C 24.441,5.965 24.537,5.728 24.451,5.522 24.361,5.317 24.129,5.223 23.918,5.307 17.782,7.909 0.341,0.115 0.165,0.035 0.109,0.01 0.055,0 0,0"
         id="path3960"
         style="fill:#868686;fill-opacity:1;fill-rule:nonzero;stroke:none" />
    </g>
    <g
       transform="matrix(1.25,0,0,-1.25,314.84728,602.6817)"
       id="g3962">
      <path
         d="m 0,0 c -0.207,0 -0.383,0.157 -0.403,0.365 -0.024,0.221 0.14,0.421 0.362,0.441 2.092,0.214 20.489,2.04 22.552,1.041 0.201,-0.1 0.288,-0.34 0.19,-0.54 C 22.604,1.107 22.366,1.019 22.16,1.119 20.754,1.797 8.164,0.821 0.04,0.002 0.026,0 0.01,0 0,0"
         id="path3964"
         style="fill:#868686;fill-opacity:1;fill-rule:nonzero;stroke:none" />
    </g>
    <g
       transform="matrix(1.25,0,0,-1.25,336.48178,612.08182)"
       id="g3966">
      <path
         d="m 0,0 c -0.108,0 -0.22,0.046 -0.3,0.135 -1.957,2.19 -11.154,2.992 -14.53,3.116 -0.227,0.009 -0.4,0.199 -0.392,0.42 0.007,0.225 0.2,0.377 0.418,0.392 C -14.293,4.042 -2.28,3.567 0.304,0.675 0.451,0.508 0.438,0.251 0.27,0.103 0.195,0.034 0.098,0 0,0"
         id="path3968"
         style="fill:#868686;fill-opacity:1;fill-rule:nonzero;stroke:none" />
    </g>
    <g
       transform="matrix(1.25,0,0,-1.25,274.79841,598.94645)"
       id="g3970">
      <path
         d="m 0,0 c 0.153,0 0.302,0.086 0.367,0.238 0.094,0.204 0.002,0.444 -0.2,0.534 -0.733,0.329 -17.943,8.009 -24.404,5.279 -0.204,-0.086 -0.303,-0.323 -0.214,-0.529 0.086,-0.205 0.321,-0.299 0.53,-0.215 C -17.782,7.909 -0.343,0.115 -0.166,0.035 -0.111,0.01 -0.057,0 0,0"
         id="path3972"
         style="fill:#868686;fill-opacity:1;fill-rule:nonzero;stroke:none" />
    </g>
    <g
       transform="matrix(1.25,0,0,-1.25,269.83866,602.6817)"
       id="g3974">
      <path
         d="M 0,0 C 0.205,0 0.38,0.157 0.402,0.365 0.424,0.586 0.263,0.786 0.04,0.806 c -2.091,0.214 -20.49,2.04 -22.553,1.041 -0.202,-0.098 -0.286,-0.34 -0.189,-0.54 0.097,-0.2 0.334,-0.288 0.539,-0.188 1.407,0.678 14,-0.298 22.122,-1.117 C -0.027,0 -0.014,0 0,0"
         id="path3976"
         style="fill:#868686;fill-opacity:1;fill-rule:nonzero;stroke:none" />
    </g>
    <g
       transform="matrix(1.25,0,0,-1.25,248.19928,612.08182)"
       id="g3978">
      <path
         d="m 0,0 c 0.112,0 0.224,0.046 0.303,0.135 1.956,2.19 11.155,2.992 14.531,3.116 0.225,0.009 0.398,0.199 0.391,0.42 -0.01,0.225 -0.2,0.377 -0.418,0.392 C 14.293,4.042 2.282,3.567 -0.3,0.675 -0.449,0.508 -0.435,0.251 -0.268,0.103 -0.191,0.034 -0.095,0 0,0"
         id="path3980"
         style="fill:#868686;fill-opacity:1;fill-rule:nonzero;stroke:none" />
    </g>
    <g
       transform="matrix(1.25,0,0,-1.25,288.95129,599.42795)"
       id="g3982">
      <path
         d="m 0,0 -6.05,4.429 c -0.094,0.095 -0.141,0.2 -0.214,0.301 -7.67,-2.361 -13.291,-7.646 -14.31,-13.985 1.754,-1.125 3.379,-2.533 5.076,-3.836 3.727,-2.855 7.146,-4.586 18.212,-4.586 l 0,16.557 C 1.738,-1.125 0.755,-0.756 0,0"
         id="path3984"
         style="fill:#d3c5c1;fill-opacity:1;fill-rule:nonzero;stroke:none" />
    </g>
    <g
       transform="matrix(1.25,0,0,-1.25,303.50691,593.49532)"
       id="g3986">
      <path
         d="m 0,0 c -0.034,-0.038 -0.044,-0.082 -0.08,-0.118 l -6.335,-4.715 c -0.689,-0.69 -1.6,-1.029 -2.516,-1.033 l 0,-16.557 c 11.064,0 14.485,1.73 18.211,4.586 1.699,1.303 3.324,2.711 5.076,3.836 C 13.333,-7.649 7.693,-2.354 0,0"
         id="path3988"
         style="fill:#f6e9e5;fill-opacity:1;fill-rule:nonzero;stroke:none" />
    </g>
    <g
       transform="matrix(1.25,0,0,-1.25,309.23691,604.22895)"
       id="g3990">
      <path
         d="m 0,0 c -0.22,0.215 -0.569,0.215 -0.787,-0.002 -0.04,-0.04 -4.096,-4.042 -7.922,-3.532 -1.693,0.234 -3.117,1.329 -4.251,3.287 l 0,3.022 c 0.721,0.112 1.41,0.428 1.961,0.979 l 6.335,4.715 c 0.036,0.036 0.046,0.08 0.08,0.118 -2.756,0.842 -5.768,1.318 -8.931,1.318 -3.183,0 -6.209,-0.481 -8.977,-1.334 0.072,-0.101 0.12,-0.206 0.214,-0.301 l 6.049,-4.429 c 0.612,-0.612 1.374,-0.957 2.159,-1.069 l 0,-3.019 c -1.13,-1.951 -2.559,-3.057 -4.248,-3.287 -3.825,-0.514 -7.885,3.492 -7.927,3.532 -0.217,0.219 -0.567,0.219 -0.785,0.001 -0.216,-0.216 -0.216,-0.567 -0.002,-0.784 0.17,-0.171 3.939,-3.906 8.005,-3.906 0.285,0 0.568,0.017 0.854,0.056 1.845,0.251 3.406,1.324 4.658,3.186 1.249,-1.862 2.813,-2.935 4.657,-3.186 0.286,-0.039 0.572,-0.056 0.855,-0.056 4.065,0 7.834,3.735 8.003,3.906 0.218,0.217 0.216,0.568 0,0.785"
         id="path3992"
         style="fill:#3c3c3b;fill-opacity:1;fill-rule:nonzero;stroke:none" />
    </g>
    <g
       transform="matrix(1.25,0,0,-1.25,277.32166,579.96632)"
       id="g3994">
      <path
         d="m 0,0 c 0,-1.149 -0.933,-2.082 -2.083,-2.082 -1.148,0 -2.082,0.933 -2.082,2.082 0,1.15 0.934,2.083 2.082,2.083 C -0.933,2.083 0,1.15 0,0"
         id="path3996"
         style="fill:#ffffff;fill-opacity:1;fill-rule:nonzero;stroke:none" />
    </g>
    <g
       transform="matrix(1.25,0,0,-1.25,316.94203,579.96632)"
       id="g3998">
      <path
         d="m 0,0 c 0,-1.149 -0.932,-2.082 -2.082,-2.082 -1.15,0 -2.083,0.933 -2.083,2.082 0,1.15 0.933,2.083 2.083,2.083 C -0.932,2.083 0,1.15 0,0"
         id="path4000"
         style="fill:#ffffff;fill-opacity:1;fill-rule:nonzero;stroke:none" />
    </g>
  </g>
</svg>
