<?xml version="1.0" encoding="UTF-8" standalone="no"?>
<!-- Created with Inkscape (http://www.inkscape.org/) -->

<svg
   xmlns:dc="http://purl.org/dc/elements/1.1/"
   xmlns:cc="http://creativecommons.org/ns#"
   xmlns:rdf="http://www.w3.org/1999/02/22-rdf-syntax-ns#"
   xmlns:svg="http://www.w3.org/2000/svg"
   xmlns="http://www.w3.org/2000/svg"
   version="1.1"
   width="102.469"
   height="186.45609"
   id="svg11570">
  <defs
     id="defs11572">
    <clipPath
       id="clipPath3580">
      <path
         d="m 314.136,682.408 49.991,0 0,-31.204 -49.991,0 0,31.204 z"
         id="path3582" />
    </clipPath>
  </defs>
  <metadata
     id="metadata11575">
    <rdf:RDF>
      <cc:Work
         rdf:about="">
        <dc:format>image/svg+xml</dc:format>
        <dc:type
           rdf:resource="http://purl.org/dc/dcmitype/StillImage" />
        <dc:title></dc:title>
      </cc:Work>
    </rdf:RDF>
  </metadata>
  <g
     transform="translate(-323.7655,-439.13414)"
     id="layer1">
    <g
       transform="matrix(1.25,0,0,-1.25,399.88001,497.01548)"
       id="g3560">
      <path
         d="m 0,0 c 0,0 -4.238,20.594 1.002,42.805 0,0 1.951,8.08 6.1,-0.805 4.15,-8.886 15.159,-33.805 7.781,-52.769 L 0,0 z"
         id="path3562"
         style="fill:#4e7796;fill-opacity:1;fill-rule:nonzero;stroke:none" />
    </g>
    <g
       transform="matrix(1.25,0,0,-1.25,404.432,494.27498)"
       id="g3564">
      <path
         d="m 0,0 c 0,0 -2.307,14.079 -0.816,31.663 0,0 1.09,9.034 3.603,2.712 C 8.552,19.865 12.104,2.268 8.809,-6.753 L 0,0 z"
         id="path3566"
         style="fill:#d76c79;fill-opacity:1;fill-rule:nonzero;stroke:none" />
    </g>
    <g
       transform="matrix(1.25,0,0,-1.25,373.20875,497.01548)"
       id="g3568">
      <path
         d="m 0,0 c 0,0 5.911,20.178 2.507,42.743 0,0 -1.282,8.213 -6.146,-0.303 C -8.503,33.924 -21.516,9.992 -15.716,-9.513 L 0,0 z"
         id="path3570"
         style="fill:#4e7796;fill-opacity:1;fill-rule:nonzero;stroke:none" />
    </g>
    <g
       transform="matrix(1.25,0,0,-1.25,368.89788,493.91123)"
       id="g3572">
      <path
         d="m 0,0 c 0,0 3.452,13.843 3.405,31.489 0,0 -0.346,9.094 -3.367,2.999 C -6.897,20.5 -11.817,3.236 -9.272,-6.027 L 0,0 z"
         id="path3574"
         style="fill:#d76c79;fill-opacity:1;fill-rule:nonzero;stroke:none" />
    </g>
    <g
       transform="matrix(1.25,0,0,-1.25,-37.21112,1406.6579)"
       id="g3576">
      <g
         id="g3578" />
      <g
         id="g3584">
        <g
           clip-path="url(#clipPath3580)"
           id="g3586"
           style="opacity:0.38999903">
          <g
             transform="translate(339.1304,651.2041)"
             id="g3588">
            <path
               d="M 0,0 C 11.832,0 21.809,6 24.997,14.215 21.809,25.2 11.832,31.204 0,31.204 -11.833,31.204 -21.81,25.2 -24.995,14.215 -21.81,6 -11.833,0 0,0"
               id="path3590"
               style="fill:#c6ccd6;fill-opacity:1;fill-rule:nonzero;stroke:none" />
          </g>
        </g>
      </g>
    </g>
    <g
       transform="matrix(1.25,0,0,-1.25,386.70188,592.65273)"
       id="g3592">
      <path
         d="M 0,0 C 11.832,0 21.809,6 24.997,14.215 21.809,25.2 11.832,31.204 0,31.204 -11.833,31.204 -21.81,25.2 -24.995,14.215 -21.81,6 -11.833,0 0,0"
         id="path3594"
         style="fill:#2d466a;fill-opacity:1;fill-rule:nonzero;stroke:none" />
    </g>
    <g
       transform="matrix(1.25,0,0,-1.25,355.4585,574.88423)"
       id="g3596">
      <path
         d="m 0,0 c -0.694,-2.384 -1.081,-4.992 -1.081,-7.836 0,-10.953 6.773,-19.831 26.076,-19.831 l 0,13.452 C 13.161,-14.215 3.185,-8.215 0,0"
         id="path3598"
         style="fill:#2d466a;fill-opacity:1;fill-rule:nonzero;stroke:none" />
    </g>
    <g
       transform="matrix(1.25,0,0,-1.25,417.8695,574.88423)"
       id="g3600">
      <path
         d="m 0,0 c 0.692,-2.384 1.078,-4.992 1.078,-7.836 0,-10.953 -6.622,-20.387 -26.073,-19.831 l 0,13.452 c 11.832,0 21.808,6 24.995,14.215"
         id="path3602"
         style="fill:#4e7796;fill-opacity:1;fill-rule:nonzero;stroke:none" />
    </g>
    <path
       d="m 380.51013,619.52286 -13.5775,0 0,-18.72125 13.5775,0 0,18.72125 z"
       id="path3604"
       style="fill:#2d466a;fill-opacity:1;fill-rule:nonzero;stroke:none" />
    <path
       d="m 406.47138,619.52286 -13.58,0 0,-18.72125 13.58,0 0,18.72125 z"
       id="path3606"
       style="fill:#4e7796;fill-opacity:1;fill-rule:nonzero;stroke:none" />
    <g
       transform="matrix(1.25,0,0,-1.25,373.57988,621.94898)"
       id="g3608">
      <path
         d="m 0,0 c 0.458,0 0.831,-0.373 0.831,-0.833 l 0,-2.08 8.739,0 c 0,5.222 -4.235,9.454 -9.457,9.454 -5.22,0 -9.455,-4.232 -9.455,-9.454 l 8.509,0 0,2.08 C -0.833,-0.373 -0.462,0 0,0"
         id="path3610"
         style="fill:#3c3c3b;fill-opacity:1;fill-rule:nonzero;stroke:none" />
    </g>
    <g
       transform="matrix(1.25,0,0,-1.25,399.53625,621.94898)"
       id="g3612">
      <path
         d="m 0,0 c 0.46,0 0.833,-0.373 0.833,-0.833 l 0,-2.08 8.737,0 c 0,5.222 -4.232,9.454 -9.455,9.454 -5.22,0 -9.452,-4.232 -9.452,-9.454 l 8.506,0 0,2.08 C -0.831,-0.373 -0.46,0 0,0"
         id="path3614"
         style="fill:#3c3c3b;fill-opacity:1;fill-rule:nonzero;stroke:none" />
    </g>
    <g
       transform="matrix(1.25,0,0,-1.25,388.65075,477.49348)"
       id="g3616">
      <path
         d="m 0,0 c 0.249,-1.479 0.088,-2.679 -0.198,-3.796 -0.304,-1.106 -0.767,-2.103 -1.373,-3.006 -0.602,-0.904 -1.351,-1.71 -2.262,-2.407 -0.926,-0.686 -1.98,-1.287 -3.449,-1.608 -0.256,1.482 -0.095,2.684 0.191,3.8 0.304,1.105 0.77,2.102 1.38,3.002 0.609,0.899 1.355,1.706 2.267,2.403 C -2.515,-0.927 -1.465,-0.324 0,0"
         id="path3618"
         style="fill:#2d466a;fill-opacity:1;fill-rule:nonzero;stroke:none" />
    </g>
    <g
       transform="matrix(1.25,0,0,-1.25,394.77988,480.36998)"
       id="g3620">
      <path
         d="m 0,0 c 0.251,-1.478 0.089,-2.679 -0.195,-3.796 -0.306,-1.106 -0.77,-2.103 -1.375,-3.007 -0.603,-0.903 -1.352,-1.709 -2.263,-2.406 -0.925,-0.686 -1.978,-1.288 -3.448,-1.608 -0.254,1.483 -0.095,2.684 0.193,3.8 0.303,1.106 0.768,2.103 1.378,3.002 0.608,0.9 1.357,1.706 2.266,2.403 0.93,0.686 1.98,1.288 3.444,1.612"
         id="path3622"
         style="fill:#4e7796;fill-opacity:1;fill-rule:nonzero;stroke:none" />
    </g>
    <g
       transform="matrix(1.25,0,0,-1.25,422.347,522.37073)"
       id="g3624">
      <path
         d="M 0,0 C -0.479,2.581 -1.652,7.708 -1.652,7.708 -3.87,19.913 -14.616,29.343 -28.557,29.343 l 0,-77.273 c 18.408,0 31.667,12.791 31.667,28.57 C 3.11,-11.879 1.313,-7.084 0,0"
         id="path3626"
         style="fill:#4e7796;fill-opacity:1;fill-rule:nonzero;stroke:none" />
    </g>
    <g
       transform="matrix(1.25,0,0,-1.25,350.97863,522.37073)"
       id="g3628">
      <path
         d="m 0,0 c 0.477,2.581 1.65,7.708 1.65,7.708 2.22,12.205 12.964,21.635 26.906,21.635 l 0,-77.273 c -18.408,0 -31.666,12.791 -31.666,28.57 0,7.481 1.797,12.276 3.11,19.36"
         id="path3630"
         style="fill:#2d466a;fill-opacity:1;fill-rule:nonzero;stroke:none" />
    </g>
    <g
       transform="matrix(1.25,0,0,-1.25,419.24275,563.35648)"
       id="g3632">
      <path
         d="m 0,0 c 0,-9.421 -11.673,-17.058 -26.073,-17.058 -14.4,0 -26.074,7.637 -26.074,17.058 0,9.422 11.674,17.059 26.074,17.059 C -11.673,17.059 0,9.422 0,0"
         id="path3634"
         style="fill:#9c9b9b;fill-opacity:1;fill-rule:nonzero;stroke:none" />
    </g>
    <g
       transform="matrix(1.25,0,0,-1.25,371.88438,560.06123)"
       id="g3636">
      <path
         d="m 0,0 c 0,-2.069 -1.676,-3.745 -3.746,-3.745 -2.067,0 -3.743,1.676 -3.743,3.745 0,2.068 1.676,3.744 3.743,3.744 C -1.676,3.744 0,2.068 0,0"
         id="path3638"
         style="fill:#3c3c3b;fill-opacity:1;fill-rule:nonzero;stroke:none" />
    </g>
    <g
       transform="matrix(1.25,0,0,-1.25,410.88951,560.06123)"
       id="g3640">
      <path
         d="m 0,0 c 0,-2.069 -1.677,-3.745 -3.746,-3.745 -2.067,0 -3.744,1.676 -3.744,3.745 0,2.068 1.677,3.744 3.744,3.744 C -1.677,3.744 0,2.068 0,0"
         id="path3642"
         style="fill:#3c3c3b;fill-opacity:1;fill-rule:nonzero;stroke:none" />
    </g>
    <g
       transform="matrix(1.25,0,0,-1.25,376.343,521.22636)"
       id="g3644">
      <path
         d="m 0,0 c 0,-3.305 -2.677,-5.984 -5.983,-5.984 -3.304,0 -5.983,2.679 -5.983,5.984 0,3.305 2.679,5.983 5.983,5.983 C -2.677,5.983 0,3.306 0,0"
         id="path3646"
         style="fill:#9c9b9b;fill-opacity:1;fill-rule:nonzero;stroke:none" />
    </g>
    <g
       transform="matrix(1.25,0,0,-1.25,414.22263,521.22636)"
       id="g3648">
      <path
         d="m 0,0 c 0,-3.305 -2.677,-5.984 -5.983,-5.984 -3.303,0 -5.983,2.679 -5.983,5.984 0,3.305 2.68,5.983 5.983,5.983 C -2.677,5.983 0,3.306 0,0"
         id="path3650"
         style="fill:#9c9b9b;fill-opacity:1;fill-rule:nonzero;stroke:none" />
    </g>
    <g
       transform="matrix(1.25,0,0,-1.25,373.0495,521.22636)"
       id="g3652">
      <path
         d="m 0,0 c 0,-1.851 -1.497,-3.35 -3.349,-3.35 -1.848,0 -3.348,1.499 -3.348,3.35 0,1.85 1.5,3.349 3.348,3.349 C -1.497,3.349 0,1.85 0,0"
         id="path3654"
         style="fill:#3c3c3b;fill-opacity:1;fill-rule:nonzero;stroke:none" />
    </g>
    <g
       transform="matrix(1.25,0,0,-1.25,410.92975,521.22636)"
       id="g3656">
      <path
         d="m 0,0 c 0,-1.851 -1.498,-3.35 -3.349,-3.35 -1.848,0 -3.349,1.499 -3.349,3.35 0,1.85 1.501,3.349 3.349,3.349 C -1.498,3.349 0,1.85 0,0"
         id="path3658"
         style="fill:#3c3c3b;fill-opacity:1;fill-rule:nonzero;stroke:none" />
    </g>
    <g
       transform="matrix(1.25,0,0,-1.25,371.88438,519.89761)"
       id="g3660">
      <path
         d="m 0,0 c 0,-0.653 -0.529,-1.184 -1.183,-1.184 -0.654,0 -1.183,0.531 -1.183,1.184 0,0.653 0.529,1.183 1.183,1.183 C -0.529,1.183 0,0.653 0,0"
         id="path3662"
         style="fill:#ffffff;fill-opacity:1;fill-rule:nonzero;stroke:none" />
    </g>
    <g
       transform="matrix(1.25,0,0,-1.25,409.70238,519.89761)"
       id="g3664">
      <path
         d="m 0,0 c 0,-0.653 -0.529,-1.184 -1.184,-1.184 -0.653,0 -1.183,0.531 -1.183,1.184 0,0.653 0.53,1.183 1.183,1.183 C -0.529,1.183 0,0.653 0,0"
         id="path3666"
         style="fill:#ffffff;fill-opacity:1;fill-rule:nonzero;stroke:none" />
    </g>
    <g
       transform="matrix(1.25,0,0,-1.25,379.98375,580.53598)"
       id="g3668">
      <path
         d="M 0,0 C 0,-2.317 1.063,-2.273 2.446,-2.445 3.979,-2.549 4.893,-2.554 4.893,0 l 0,1.557 C 4.893,1.294 0,1.918 0,1.918 L 0,0 z"
         id="path3670"
         style="fill:#f6e9e5;fill-opacity:1;fill-rule:nonzero;stroke:none" />
    </g>
    <g
       transform="matrix(1.25,0,0,-1.25,393.34188,580.53598)"
       id="g3672">
      <path
         d="M 0,0 C 0,-2.317 -1.063,-2.273 -2.447,-2.445 -3.979,-2.549 -4.893,-2.554 -4.893,0 l 0,1.557 C -4.893,1.294 0,1.918 0,1.918 L 0,0 z"
         id="path3674"
         style="fill:#f6e9e5;fill-opacity:1;fill-rule:nonzero;stroke:none" />
    </g>
    <g
       transform="matrix(1.25,0,0,-1.25,387.11563,579.84023)"
       id="g3676">
      <path
         d="m 0,0 c -10.965,0 -18.63,5.7 -18.951,5.942 -0.244,0.186 -0.293,0.533 -0.108,0.778 0.184,0.245 0.532,0.292 0.778,0.109 0.074,-0.058 7.703,-5.718 18.281,-5.718 10.559,0 17.466,5.644 17.535,5.701 0.236,0.195 0.585,0.166 0.782,-0.071 C 18.514,6.505 18.482,6.156 18.248,5.959 17.955,5.716 10.979,0 0,0"
         id="path3678"
         style="fill:#3c3c3b;fill-opacity:1;fill-rule:nonzero;stroke:none" />
    </g>
    <g
       transform="matrix(1.25,0,0,-1.25,323.7655,597.53498)"
       id="g3680">
      <path
         d="m 0,0 c 1.566,0.699 6.128,2.716 11.657,-0.085 2.437,-1.237 3.812,-2.293 4.844,-3.102 1.024,-0.829 2.912,-2.856 3.689,-4.392 -1.568,-0.706 -1.828,-1.002 -3.832,-1.645 -1.249,-0.398 -3.096,-0.577 -4.267,-0.162 -1.171,0.415 -2.422,0.89 -3.949,2.222 C 7.115,-6.329 3.145,-0.746 0,0"
         id="path3682"
         style="fill:#3c3c3b;fill-opacity:1;fill-rule:nonzero;stroke:none" />
    </g>
    <g
       transform="matrix(1.25,0,0,-1.25,347.58688,608.42298)"
       id="g3684">
      <path
         d="m 0,0 c -0.711,0 -1.45,0.059 -2.218,0.183 -1.513,0.244 -2.543,1.67 -2.298,3.183 0.245,1.512 1.669,2.541 3.183,2.299 8.965,-1.441 12.45,13.779 12.484,13.934 0.334,1.496 1.814,2.442 3.313,2.107 1.497,-0.334 2.44,-1.816 2.107,-3.314 C 16.395,17.601 12.326,0 0,0"
         id="path3686"
         style="fill:#2d466a;fill-opacity:1;fill-rule:nonzero;stroke:none" />
    </g>
  </g>
</svg>
