<?xml version="1.0" encoding="UTF-8" standalone="no"?>
<!-- Created with Inkscape (http://www.inkscape.org/) -->

<svg
   xmlns:dc="http://purl.org/dc/elements/1.1/"
   xmlns:cc="http://creativecommons.org/ns#"
   xmlns:rdf="http://www.w3.org/1999/02/22-rdf-syntax-ns#"
   xmlns:svg="http://www.w3.org/2000/svg"
   xmlns="http://www.w3.org/2000/svg"
   version="1.1"
   width="127.94375"
   height="150.47214"
   id="svg14649">
  <defs
     id="defs14651" />
  <metadata
     id="metadata14654">
    <rdf:RDF>
      <cc:Work
         rdf:about="">
        <dc:format>image/svg+xml</dc:format>
        <dc:type
           rdf:resource="http://purl.org/dc/dcmitype/StillImage" />
        <dc:title></dc:title>
      </cc:Work>
    </rdf:RDF>
  </metadata>
  <g
     transform="translate(-311.02812,-457.12612)"
     id="layer1">
    <g
       transform="matrix(1.25,0,0,-1.25,363.06237,570.18075)"
       id="g5114">
      <path
         d="m 0,0 c -0.003,-0.006 -0.007,-0.012 -0.01,-0.016 1.83,-0.913 3.732,-1.942 5.706,-3.1 1.262,-0.74 2.545,-1.516 3.87,-2.367 l 0,11.924 0,28.603 c -15.107,0 -27.351,-12.246 -27.351,-27.353 0,-0.495 0.049,-0.976 0.074,-1.465 2.886,-4.21 6.931,-7.702 11.73,-10.113 -0.309,1.815 -0.584,3.724 -0.88,5.73 C -4.713,1.189 -2.428,0.569 0,0"
         id="path5116"
         style="fill:#d19c74;fill-opacity:1;fill-rule:nonzero;stroke:none" />
    </g>
    <g
       transform="matrix(1.25,0,0,-1.25,375.02037,526.37575)"
       id="g5118">
      <path
         d="m 0,0 0,-28.603 0.001,0 0,-11.924 c 1.324,0.851 2.603,1.627 3.872,2.367 1.973,1.158 3.874,2.187 5.704,3.1 2.477,0.58 4.804,1.212 6.99,1.88 -0.287,-1.941 -0.545,-3.807 -0.831,-5.572 4.744,2.456 8.727,5.978 11.552,10.208 0.019,0.398 0.065,0.79 0.065,1.191 C 27.353,-12.246 15.107,0 0,0"
         id="path5120"
         style="fill:#d19c74;fill-opacity:1;fill-rule:nonzero;stroke:none" />
    </g>
    <g
       transform="matrix(1.25,0,0,-1.25,375.02037,579.56425)"
       id="g5122">
      <path
         d="m 0,0 0,8.756 c -1.325,0.851 -2.608,1.625 -3.87,2.367 -1.975,1.159 -5.706,-2.286 -5.706,-2.286 0,0.006 -4.703,-0.141 -6.852,0.513 0.296,-2.006 0.572,-3.915 0.88,-5.73 4.575,-2.304 9.844,-3.624 15.463,-3.624 C -0.058,-0.004 -0.029,0 0,0"
         id="path5124"
         style="fill:#d19c74;fill-opacity:1;fill-rule:nonzero;stroke:none" />
    </g>
    <g
       transform="matrix(1.25,0,0,-1.25,386.68174,568.70612)"
       id="g5126">
      <path
         d="M 0,0 C -1.828,-0.913 -3.483,3.596 -5.456,2.437 -6.725,1.694 -8.004,0.921 -9.328,0.069 l 0,5.193 -0.001,-11.925 0,-2.024 c 5.728,0.014 11.098,1.398 15.736,3.799 0.286,1.765 0.544,3.631 0.831,5.573 C 5.052,0.017 2.478,0.581 0,0"
         id="path5128"
         style="fill:#d19c74;fill-opacity:1;fill-rule:nonzero;stroke:none" />
    </g>
    <g
       transform="matrix(1.25,0,0,-1.25,369.69937,594.29087)"
       id="g5130">
      <path
         d="M 0,0 C 0.518,-0.098 1.067,-0.173 1.638,-0.231 1.699,-0.236 1.76,-0.246 1.821,-0.252 2.589,-0.323 3.389,-0.371 4.257,-0.371 l 0,12.152 c -0.029,0 -0.058,-0.004 -0.085,-0.004 -0.709,0 -1.412,0.022 -2.109,0.064 -0.37,0.021 -0.728,0.064 -1.091,0.096 -0.323,0.029 -0.65,0.049 -0.969,0.086 -0.495,0.06 -0.982,0.139 -1.471,0.216 -0.18,0.031 -0.362,0.051 -0.542,0.084 -0.574,0.102 -1.14,0.223 -1.704,0.354 -0.085,0.019 -0.17,0.034 -0.253,0.053 -0.624,0.149 -1.241,0.317 -1.85,0.5 -0.018,0.004 -0.038,0.008 -0.058,0.015 -1.89,0.568 -3.702,1.293 -5.416,2.156 -4.799,2.411 -8.844,5.903 -11.73,10.113 0.394,-7.311 3.635,-13.855 8.662,-18.535 l 0,-8.625 c -2.625,-2.043 -4.321,-5.229 -4.321,-8.816 l 22.368,0 c 0,3.587 -1.695,6.773 -4.322,8.816 l 0,1.734 C -0.424,0.051 -0.211,0.033 0,0"
         id="path5132"
         style="fill:#d19c74;fill-opacity:1;fill-rule:nonzero;stroke:none" />
    </g>
    <g
       transform="matrix(1.25,0,0,-1.25,398.29074,596.34775)"
       id="g5134">
      <path
         d="M 0,0 0,8.624 C 5.088,13.363 8.351,20.013 8.672,27.434 5.847,23.205 1.864,19.682 -2.88,17.226 c -2.319,-1.201 -4.82,-2.147 -7.457,-2.793 -0.037,-0.011 -0.074,-0.017 -0.111,-0.027 -0.622,-0.149 -1.25,-0.287 -1.888,-0.403 -0.111,-0.019 -0.226,-0.033 -0.335,-0.052 -0.567,-0.097 -1.139,-0.191 -1.713,-0.262 -0.252,-0.031 -0.511,-0.044 -0.765,-0.07 -0.442,-0.047 -0.885,-0.095 -1.33,-0.124 -0.707,-0.042 -1.419,-0.067 -2.137,-0.068 l 0,-12.153 c 1.7,0 3.186,0.149 4.52,0.408 0.123,0.02 0.249,0.03 0.369,0.051 l 0,-1.733 c -2.627,-2.044 -4.323,-5.229 -4.323,-8.816 l 22.371,0 C 4.321,-5.229 2.624,-2.044 0,0"
         id="path5136"
         style="fill:#f5c799;fill-opacity:1;fill-rule:nonzero;stroke:none" />
    </g>
    <g
       transform="matrix(1.25,0,0,-1.25,357.29949,579.5545)"
       id="g5138">
      <path
         d="m 0,0 c -1.861,0 -3.368,-1.508 -3.368,-3.366 0,-6.801 -5.534,-12.336 -12.335,-12.336 -6.317,0 -11.532,4.77 -12.248,10.896 -3.34,-1.508 -5.561,-0.68 -6.761,0.17 0.661,-9.924 8.921,-17.799 19.009,-17.799 10.513,0 19.068,8.553 19.068,19.069 C 3.365,-1.508 1.857,0 0,0"
         id="path5140"
         style="fill:#d19c74;fill-opacity:1;fill-rule:nonzero;stroke:none" />
    </g>
    <g
       transform="matrix(1.25,0,0,-1.25,322.36049,585.56162)"
       id="g5142">
      <path
         d="m 0,0 c -0.056,0.473 -0.092,0.952 -0.092,1.439 0,1.416 0.238,2.804 0.708,4.125 C 1.237,7.318 0.319,9.243 -1.432,9.863 -3.184,10.485 -5.106,9.569 -5.729,7.816 -6.456,5.768 -6.822,3.623 -6.822,1.439 -6.822,1.011 -6.786,0.592 -6.761,0.17 -5.561,-0.681 -3.34,-1.509 0,0"
         id="path5144"
         style="fill:#4b190d;fill-opacity:1;fill-rule:nonzero;stroke:none" />
    </g>
    <g
       transform="matrix(1.25,0,0,-1.25,438.97187,524.38362)"
       id="g5146">
      <path
         d="m 0,0 c 0,-53.803 -47.408,-47.016 -51.178,-53.803 -8.198,8.064 -51.177,0 -51.177,53.803 0,29.715 6.622,53.806 51.177,53.806 C -3.231,53.806 0,29.715 0,0"
         id="path5148"
         style="fill:#af5b2b;fill-opacity:1;fill-rule:nonzero;stroke:none" />
    </g>
    <g
       transform="matrix(1.25,0,0,-1.25,361.92112,489.48125)"
       id="g5150">
      <path
         d="m 0,0 c 0,-8.047 -6.522,-14.569 -14.57,-14.569 -8.044,0 -14.568,6.522 -14.568,14.569 0,8.045 6.524,14.566 14.568,14.566 C -6.522,14.566 0,8.045 0,0"
         id="path5152"
         style="fill:#af5b2b;fill-opacity:1;fill-rule:nonzero;stroke:none" />
    </g>
    <g
       transform="matrix(1.25,0,0,-1.25,354.20749,489.48125)"
       id="g5154">
      <path
         d="m 0,0 c 0,-4.641 -3.76,-8.399 -8.399,-8.399 -4.638,0 -8.396,3.758 -8.396,8.399 0,4.637 3.758,8.396 8.396,8.396 C -3.76,8.396 0,4.637 0,0"
         id="path5156"
         style="fill:#4b190d;fill-opacity:1;fill-rule:nonzero;stroke:none" />
    </g>
    <g
       transform="matrix(1.25,0,0,-1.25,423.57999,489.48125)"
       id="g5158">
      <path
         d="m 0,0 c 0,-8.047 -6.523,-14.569 -14.568,-14.569 -8.046,0 -14.567,6.522 -14.567,14.569 0,8.045 6.521,14.566 14.567,14.566 C -6.523,14.566 0,8.045 0,0"
         id="path5160"
         style="fill:#f5c799;fill-opacity:1;fill-rule:nonzero;stroke:none" />
    </g>
    <g
       transform="matrix(1.25,0,0,-1.25,415.86637,489.48125)"
       id="g5162">
      <path
         d="m 0,0 c 0,-4.641 -3.757,-8.399 -8.397,-8.399 -4.639,0 -8.399,3.758 -8.399,8.399 0,4.637 3.76,8.396 8.399,8.396 C -3.757,8.396 0,4.637 0,0"
         id="path5164"
         style="fill:#4b190d;fill-opacity:1;fill-rule:nonzero;stroke:none" />
    </g>
    <g
       transform="matrix(1.25,0,0,-1.25,361.92112,489.48125)"
       id="g5166">
      <path
         d="m 0,0 c 0,-8.047 -6.522,-14.569 -14.57,-14.569 -8.044,0 -14.568,6.522 -14.568,14.569 0,8.045 6.524,14.566 14.568,14.566 C -6.522,14.566 0,8.045 0,0"
         id="path5168"
         style="fill:#f5c799;fill-opacity:1;fill-rule:nonzero;stroke:none" />
    </g>
    <g
       transform="matrix(1.25,0,0,-1.25,354.20749,489.48125)"
       id="g5170">
      <path
         d="m 0,0 c 0,-4.641 -3.76,-8.399 -8.399,-8.399 -4.638,0 -8.396,3.758 -8.396,8.399 0,4.637 3.758,8.396 8.396,8.396 C -3.76,8.396 0,4.637 0,0"
         id="path5172"
         style="fill:#4b190d;fill-opacity:1;fill-rule:nonzero;stroke:none" />
    </g>
    <g
       transform="matrix(1.25,0,0,-1.25,374.99962,486.18775)"
       id="g5174">
      <path
         d="m 0,0 0,-0.003 c 0.013,0 0.022,0.002 0.033,0.002 C 0.022,-0.001 0.013,0 0,0"
         id="path5176"
         style="fill:#e96332;fill-opacity:1;fill-rule:nonzero;stroke:none" />
    </g>
    <g
       transform="matrix(1.25,0,0,-1.25,368.83999,563.755)"
       id="g5178">
      <path
         d="M 0,0 C 0,-0.001 -0.003,-0.001 -0.003,-0.001 0.002,-0.009 0.009,-0.019 0.014,-0.027 0.009,-0.019 0.002,-0.008 0,0"
         id="path5180"
         style="fill:#07171b;fill-opacity:1;fill-rule:nonzero;stroke:none" />
    </g>
    <g
       transform="matrix(1.25,0,0,-1.25,375.08512,486.18775)"
       id="g5182">
      <path
         d="m 0,0 c -0.011,0 -0.022,-0.001 -0.035,-0.001 0.013,0 0.024,-0.002 0.035,-0.002 L 0,0 z"
         id="path5184"
         style="fill:#a84720;fill-opacity:1;fill-rule:nonzero;stroke:none" />
    </g>
    <g
       transform="matrix(1.25,0,0,-1.25,375.08512,524.37625)"
       id="g5186">
      <path
         d="m 0,0 0,30.548 c -0.011,0 -0.022,0.002 -0.035,0.002 -0.011,0 -0.021,-0.002 -0.033,-0.002 l 0,-30.554 C -0.046,-0.006 -0.022,0 0,0"
         id="path5188"
         style="fill:#a84720;fill-opacity:1;fill-rule:nonzero;stroke:none" />
    </g>
    <g
       transform="matrix(1.25,0,0,-1.25,374.99962,562.12287)"
       id="g5190">
      <path
         d="M 0,0 C 0.013,0 0.022,-0.002 0.033,-0.002 0.046,-0.002 0.058,0 0.068,0 l 0,18.66 0,11.537 C 0.046,30.197 0.022,30.191 0,30.191 L 0,18.66 0,0 z"
         id="path5192"
         style="fill:#a84720;fill-opacity:1;fill-rule:nonzero;stroke:none" />
    </g>
    <g
       transform="matrix(1.25,0,0,-1.25,374.99962,562.12287)"
       id="g5194">
      <path
         d="m 0,0 0,-0.005 c 0.013,0 0.022,0.003 0.033,0.003 C 0.022,-0.002 0.013,0 0,0"
         id="path5196"
         style="fill:#a84720;fill-opacity:1;fill-rule:nonzero;stroke:none" />
    </g>
    <g
       transform="matrix(1.25,0,0,-1.25,330.08762,525.785)"
       id="g5198">
      <path
         d="m 0,0 c 0.039,-9.248 2.501,-25.034 2.501,-25.034 0,0 0.776,-3.064 15.513,-8.323 l 0,7.015 c 0,5.246 0.641,7.818 1.214,9.078 6.001,-2.372 10.581,-5.248 11.771,-7.753 1.481,0.823 3.164,1.333 4.98,1.333 l 0,18.662 0,42.086 C 8.669,37.064 -0.084,19.317 0,0"
         id="path5200"
         style="fill:#d19c74;fill-opacity:1;fill-rule:nonzero;stroke:none" />
    </g>
    <g
       transform="matrix(1.25,0,0,-1.25,360.31949,542.98462)"
       id="g5202">
      <path
         d="m 0,0 c -1.471,-0.604 -2.881,-1.356 -4.066,-2.321 0,0 -2.106,-0.752 -2.106,-10.261 l 0,-7.016 C -0.616,-21.58 5.148,-23.2 11.761,-23.2 l 0.052,22.398 C 5.619,2.245 3.148,0.996 0,0"
         id="path5204"
         style="fill:#d5d2b1;fill-opacity:1;fill-rule:nonzero;stroke:none" />
    </g>
    <g
       transform="matrix(1.25,0,0,-1.25,416.84537,557.06425)"
       id="g5206">
      <path
         d="M 0,0 C 0,0 2.43,16.082 2.504,25.023 2.669,44.34 -6.167,62.088 -33.474,62.088 l 0,-42.087 0,-9.516 c 6.156,3.016 8.626,1.771 11.763,0.779 1.473,-0.605 2.884,-1.357 4.07,-2.322 0,0 2.104,-0.752 2.104,-10.26 l 0,-7.003 C -0.791,-3.065 0,0 0,0"
         id="path5208"
         style="fill:#f5c799;fill-opacity:1;fill-rule:nonzero;stroke:none" />
    </g>
    <g
       transform="matrix(1.25,0,0,-1.25,375.04487,570.30275)"
       id="g5210">
      <path
         d="m 0,0 -0.03,11.931 -0.003,0 0,1.754 -0.02,7.368 c 0.007,0.004 0.013,0.007 0.02,0.009 l 0,0.014 C -0.049,21.067 -0.065,21.062 -0.08,21.053 l 0.054,-22.399 c 5.624,0 11.145,1.317 16.243,3.024 C 11.131,0.075 5.637,-0.723 0,0"
         id="path5212"
         style="fill:#f6f3cf;fill-opacity:1;fill-rule:nonzero;stroke:none" />
    </g>
    <g
       transform="matrix(1.25,0,0,-1.25,394.79462,545.88625)"
       id="g5214">
      <path
         d="M 0,0 C -1.187,0.965 -2.598,1.717 -4.07,2.321 -7.207,3.313 -9.678,4.559 -15.833,1.543 l 0,-0.015 C -15.84,1.526 -15.846,1.523 -15.853,1.52 l 0.02,-7.369 0,-1.754 0.003,0 0.03,-11.93 c 5.637,-0.723 11.131,0.075 16.217,1.678 0.572,0.181 1.126,0.392 1.687,0.591 l 0,7.003 C 2.104,-0.752 0,0 0,0"
         id="path5216"
         style="fill:#f6f3cf;fill-opacity:1;fill-rule:nonzero;stroke:none" />
    </g>
    <g
       transform="matrix(1.25,0,0,-1.25,397.42399,567.48175)"
       id="g5218">
      <path
         d="m 0,0 0,0.013 c -0.561,-0.2 -1.114,-0.41 -1.687,-0.592 C -1.119,-0.389 -0.555,-0.196 0,0"
         id="path5220"
         style="fill:#f6f3cf;fill-opacity:1;fill-rule:nonzero;stroke:none" />
    </g>
    <g
       transform="matrix(1.25,0,0,-1.25,344.81412,517.64537)"
       id="g5222">
      <path
         d="M 0,0 C 0,0 14.979,4.345 14.642,-10.889 14.642,-10.889 0,-16.207 0,0"
         id="path5224"
         style="fill:#4b190d;fill-opacity:1;fill-rule:nonzero;stroke:none" />
    </g>
    <g
       transform="matrix(1.25,0,0,-1.25,361.12637,524.81575)"
       id="g5226">
      <path
         d="m 0,0 c 0,-3.067 -2.487,-5.556 -5.556,-5.556 -3.065,0 -5.552,2.489 -5.552,5.556 0,3.068 2.487,5.555 5.552,5.555 C -2.487,5.555 0,3.068 0,0"
         id="path5228"
         style="fill:#b66916;fill-opacity:1;fill-rule:nonzero;stroke:none" />
    </g>
    <g
       transform="matrix(1.25,0,0,-1.25,358.89737,521.94712)"
       id="g5230">
      <path
         d="m 0,0 c 0,-1.06 -0.857,-1.916 -1.915,-1.916 -1.057,0 -1.915,0.856 -1.915,1.916 0,1.057 0.858,1.912 1.915,1.912 C -0.857,1.912 0,1.057 0,0"
         id="path5232"
         style="fill:#ffffff;fill-opacity:1;fill-rule:nonzero;stroke:none" />
    </g>
    <g
       transform="matrix(1.25,0,0,-1.25,405.37074,517.64537)"
       id="g5234">
      <path
         d="M 0,0 C 0,0 -14.979,4.345 -14.645,-10.889 -14.645,-10.889 0,-16.207 0,0"
         id="path5236"
         style="fill:#4b190d;fill-opacity:1;fill-rule:nonzero;stroke:none" />
    </g>
    <g
       transform="matrix(1.25,0,0,-1.25,388.93887,524.81575)"
       id="g5238">
      <path
         d="m 0,0 c 0,-3.067 2.487,-5.556 5.553,-5.556 3.066,0 5.553,2.489 5.553,5.556 0,3.068 -2.487,5.555 -5.553,5.555 C 2.487,5.555 0,3.068 0,0"
         id="path5240"
         style="fill:#b66916;fill-opacity:1;fill-rule:nonzero;stroke:none" />
    </g>
    <g
       transform="matrix(1.25,0,0,-1.25,396.21674,521.94712)"
       id="g5242">
      <path
         d="m 0,0 c 0,-1.06 0.855,-1.916 1.914,-1.916 1.057,0 1.915,0.856 1.915,1.916 0,1.057 -0.858,1.912 -1.915,1.912 C 0.855,1.912 0,1.057 0,0"
         id="path5244"
         style="fill:#ffffff;fill-opacity:1;fill-rule:nonzero;stroke:none" />
    </g>
    <g
       transform="matrix(1.25,0,0,-1.25,373.91087,550.68975)"
       id="g5246">
      <path
         d="M 0,0 C -0.834,0.151 -1.542,0.514 -2.014,1.063 -4.224,3.654 -7.142,5.451 -8.697,6.328 -7.181,6.79 -4.042,7.5 0.854,7.5 5.687,7.5 8.851,6.784 10.379,6.326 7.579,4.615 5.215,2.779 3.503,0.981 3.027,0.483 2.395,0.153 1.622,0 L 0,0 z"
         id="path5248"
         style="fill:#d76c79;fill-opacity:1;fill-rule:nonzero;stroke:none" />
    </g>
    <g
       transform="matrix(1.25,0,0,-1.25,374.97887,540.62012)"
       id="g5250">
      <path
         d="m 0,0 c -7.38,0 -10.91,-1.618 -10.886,-1.618 l 0.002,0 c 0.085,-0.121 4.551,-2.168 7.595,-5.735 0.637,-0.747 1.539,-1.103 2.435,-1.258 l 1.675,0 c 0.824,0.153 1.616,0.51 2.231,1.153 3.174,3.335 7.739,5.814 7.777,5.859 C 10.829,-1.599 7.302,0 0,0 m 0,-1.11 c 3.723,0 6.435,-0.431 8.149,-0.831 C 5.78,-3.478 3.763,-5.099 2.248,-6.69 1.863,-7.094 1.347,-7.367 0.713,-7.499 l -1.467,0 c -0.753,0.143 -1.322,0.435 -1.69,0.866 -1.796,2.106 -4.034,3.692 -5.674,4.704 C -6.4,-1.531 -3.705,-1.11 0,-1.11"
         id="path5252"
         style="fill:#4b190d;fill-opacity:1;fill-rule:nonzero;stroke:none" />
    </g>
    <g
       transform="matrix(1.25,0,0,-1.25,374.13787,556.00475)"
       id="g5254">
      <path
         d="m 0,0 c -1.371,-2.367 -3.104,-3.708 -5.152,-3.987 -4.637,-0.622 -9.561,4.234 -9.609,4.281 -0.264,0.267 -0.691,0.267 -0.954,0.003 -0.263,-0.263 -0.263,-0.688 -10e-4,-0.952 0.204,-0.205 4.776,-4.736 9.706,-4.736 0.345,0 0.69,0.022 1.036,0.069 2.235,0.305 4.129,1.604 5.647,3.863 1.515,-2.259 3.411,-3.558 5.645,-3.863 0.345,-0.047 0.695,-0.069 1.037,-0.069 4.93,0 9.501,4.531 9.708,4.736 0.261,0.264 0.26,0.689 -0.002,0.955 C 16.796,0.56 16.368,0.56 16.106,0.294 16.058,0.247 11.142,-4.604 6.502,-3.987 4.446,-3.703 2.722,-2.375 1.346,0 l 0,3.663 c 0.05,0.009 0.098,0.024 0.148,0.033 l -1.676,0 C -0.121,3.687 -0.061,3.668 0,3.659 L 0,0 z"
         id="path5256"
         style="fill:#4b190d;fill-opacity:1;fill-rule:nonzero;stroke:none" />
    </g>
    <g
       transform="matrix(1.25,0,0,-1.25,313.83274,556.471)"
       id="g5258">
      <path
         d="m 0,0 c -0.165,0 -0.327,0.059 -0.457,0.178 -0.273,0.251 -0.292,0.676 -0.041,0.95 13.3,14.51 33.945,6.39 34.15,6.304 C 33.998,7.293 34.164,6.901 34.025,6.557 33.885,6.21 33.493,6.047 33.147,6.185 32.952,6.264 13.158,14.03 0.495,0.219 0.36,0.074 0.181,0 0,0"
         id="path5260"
         style="fill:#8e6451;fill-opacity:1;fill-rule:nonzero;stroke:none" />
    </g>
    <g
       transform="matrix(1.25,0,0,-1.25,319.30512,561.76275)"
       id="g5262">
      <path
         d="M 0,0 C -0.169,0 -0.339,0.062 -0.47,0.189 -0.737,0.448 -0.743,0.875 -0.486,1.142 11.974,13.983 28.218,9.659 28.382,9.617 28.74,9.517 28.95,9.146 28.853,8.788 28.752,8.428 28.387,8.219 28.022,8.319 27.867,8.36 12.368,12.459 0.481,0.205 0.351,0.068 0.176,0 0,0"
         id="path5264"
         style="fill:#8e6451;fill-opacity:1;fill-rule:nonzero;stroke:none" />
    </g>
    <g
       transform="matrix(1.25,0,0,-1.25,326.30099,567.65512)"
       id="g5266">
      <path
         d="m 0,0 c -0.135,0 -0.27,0.04 -0.39,0.124 -0.303,0.213 -0.375,0.633 -0.162,0.937 8.629,12.261 23.078,11.066 23.219,11.056 0.37,-0.034 0.644,-0.363 0.609,-0.733 C 23.243,11.017 22.937,10.738 22.543,10.775 22.411,10.789 8.722,11.899 0.55,0.286 0.418,0.1 0.211,0 0,0"
         id="path5268"
         style="fill:#8e6451;fill-opacity:1;fill-rule:nonzero;stroke:none" />
    </g>
    <g
       transform="matrix(1.25,0,0,-1.25,434.93249,556.471)"
       id="g5270">
      <path
         d="m 0,0 c -0.184,0 -0.363,0.074 -0.498,0.219 -12.663,13.811 -32.455,6.045 -32.652,5.966 -0.345,-0.138 -0.739,0.027 -0.877,0.372 -0.141,0.344 0.027,0.736 0.372,0.875 0.206,0.086 20.85,8.206 34.15,-6.304 C 0.745,0.854 0.728,0.429 0.453,0.178 0.324,0.059 0.163,0 0,0"
         id="path5272"
         style="fill:#8e6451;fill-opacity:1;fill-rule:nonzero;stroke:none" />
    </g>
    <g
       transform="matrix(1.25,0,0,-1.25,429.45649,561.76275)"
       id="g5274">
      <path
         d="m 0,0 c -0.177,0 -0.35,0.068 -0.48,0.205 -11.91,12.271 -27.387,8.157 -27.541,8.114 -0.362,-0.101 -0.73,0.111 -0.829,0.468 -0.1,0.359 0.109,0.73 0.468,0.83 0.161,0.042 16.408,4.366 28.868,-8.475 C 0.743,0.875 0.736,0.448 0.471,0.189 0.338,0.063 0.17,0 0,0"
         id="path5276"
         style="fill:#8e6451;fill-opacity:1;fill-rule:nonzero;stroke:none" />
    </g>
    <g
       transform="matrix(1.25,0,0,-1.25,422.46299,567.65512)"
       id="g5278">
      <path
         d="m 0,0 c -0.213,0 -0.421,0.1 -0.55,0.286 -8.177,11.615 -21.86,10.502 -21.997,10.489 -0.385,-0.027 -0.697,0.242 -0.731,0.609 -0.034,0.37 0.239,0.699 0.611,0.733 0.139,0.01 14.587,1.206 23.218,-11.056 C 0.764,0.757 0.691,0.337 0.387,0.124 0.271,0.04 0.133,0 0,0"
         id="path5280"
         style="fill:#8e6451;fill-opacity:1;fill-rule:nonzero;stroke:none" />
    </g>
    <g
       transform="matrix(1.25,0,0,-1.25,374.94474,499.0675)"
       id="g5282">
      <path
         d="M 0,0 -12.018,14.292 0,21.21 11.455,14.469 0,0 z"
         id="path5284"
         style="fill:#af5b2b;fill-opacity:1;fill-rule:nonzero;stroke:none" />
    </g>
  </g>
</svg>
