<?xml version="1.0" encoding="UTF-8" standalone="no"?>
<!-- Created with Inkscape (http://www.inkscape.org/) -->

<svg
   xmlns:dc="http://purl.org/dc/elements/1.1/"
   xmlns:cc="http://creativecommons.org/ns#"
   xmlns:rdf="http://www.w3.org/1999/02/22-rdf-syntax-ns#"
   xmlns:svg="http://www.w3.org/2000/svg"
   xmlns="http://www.w3.org/2000/svg"
   version="1.1"
   width="121.06963"
   height="142.10327"
   id="svg15937">
  <defs
     id="defs15939" />
  <metadata
     id="metadata15942">
    <rdf:RDF>
      <cc:Work
         rdf:about="">
        <dc:format>image/svg+xml</dc:format>
        <dc:type
           rdf:resource="http://purl.org/dc/dcmitype/StillImage" />
        <dc:title></dc:title>
      </cc:Work>
    </rdf:RDF>
  </metadata>
  <g
     transform="translate(-314.46518,-461.31055)"
     id="layer1">
    <path
       d="m 370.88531,597.15667 -17.28,0 0,-18.7175 17.28,0 0,18.7175 z"
       id="path5958"
       style="fill:#af5b2b;fill-opacity:1;fill-rule:nonzero;stroke:none" />
    <path
       d="m 396.39531,597.15667 -17.28375,0 0,-18.7175 17.28375,0 0,18.7175 z"
       id="path5960"
       style="fill:#ea8232;fill-opacity:1;fill-rule:nonzero;stroke:none" />
    <g
       transform="matrix(1.25,0,0,-1.25,362.24506,590.6228)"
       id="g5962">
      <path
         d="m 0,0 c -5.379,0 -9.744,-4.362 -9.744,-9.746 l 19.491,0 C 9.747,-4.362 5.385,0 0,0"
         id="path5964"
         style="fill:#f5c799;fill-opacity:1;fill-rule:nonzero;stroke:none" />
    </g>
    <g
       transform="matrix(1.25,0,0,-1.25,387.75168,590.6228)"
       id="g5966">
      <path
         d="m 0,0 c -5.38,0 -9.744,-4.362 -9.744,-9.746 l 19.491,0 C 9.747,-4.362 5.384,0 0,0"
         id="path5968"
         style="fill:#f5c799;fill-opacity:1;fill-rule:nonzero;stroke:none" />
    </g>
    <g
       transform="matrix(1.25,0,0,-1.25,343.51343,544.1678)"
       id="g5970">
      <path
         d="m 0,0 c -0.841,-2.584 -1.31,-5.337 -1.31,-8.204 0,-14.636 11.866,-28.721 26.5,-28.721 l 0,24.391 C 14.544,-12.534 5.238,-7.514 0,0"
         id="path5972"
         style="fill:#af5b2b;fill-opacity:1;fill-rule:nonzero;stroke:none" />
    </g>
    <g
       transform="matrix(1.25,0,0,-1.25,375.00143,559.83542)"
       id="g5974">
      <path
         d="m 0,0 0,-24.391 c 14.633,0 26.499,14.085 26.499,28.721 0,2.867 -0.469,5.62 -1.31,8.204 C 19.949,5.021 10.645,0 0,0"
         id="path5976"
         style="fill:#ea8232;fill-opacity:1;fill-rule:nonzero;stroke:none" />
    </g>
    <g
       transform="matrix(1.25,0,0,-1.25,375.00143,521.3003)"
       id="g5978">
      <path
         d="m 0,0 c -11.768,0 -21.732,-7.676 -25.19,-18.294 5.238,-7.514 14.544,-14.756 25.19,-14.756 13.249,0 19.949,7.242 25.189,14.756 C 21.73,-7.676 11.767,0 0,0"
         id="path5980"
         style="fill:#af5b2b;fill-opacity:1;fill-rule:nonzero;stroke:none" />
    </g>
    <g
       transform="matrix(1.25,0,0,-1.25,369.07243,506.52367)"
       id="g5982">
      <path
         d="m 0,0 c 0,-6.256 -5.071,-11.329 -11.329,-11.329 -6.256,0 -11.329,5.073 -11.329,11.329 0,6.256 5.073,11.328 11.329,11.328 C -5.071,11.328 0,6.256 0,0"
         id="path5984"
         style="fill:#f5c799;fill-opacity:1;fill-rule:nonzero;stroke:none" />
    </g>
    <g
       transform="matrix(1.25,0,0,-1.25,344.48018,509.89655)"
       id="g5986">
      <path
         d="m 0,0 c 0,-6.63 -5.374,-12.006 -12.005,-12.006 -6.632,0 -12.007,5.376 -12.007,12.006 0,6.631 5.375,12.005 12.007,12.005 C -5.374,12.005 0,6.631 0,0"
         id="path5988"
         style="fill:#af5b2b;fill-opacity:1;fill-rule:nonzero;stroke:none" />
    </g>
    <g
       transform="matrix(1.25,0,0,-1.25,339.25193,509.89655)"
       id="g5990">
      <path
         d="m 0,0 c 0,-4.32 -3.504,-7.823 -7.822,-7.823 -4.324,0 -7.826,3.503 -7.826,7.823 0,4.321 3.502,7.824 7.826,7.824 C -3.504,7.824 0,4.321 0,0"
         id="path5992"
         style="fill:#575756;fill-opacity:1;fill-rule:nonzero;stroke:none" />
    </g>
    <g
       transform="matrix(1.25,0,0,-1.25,435.53481,509.89655)"
       id="g5994">
      <path
         d="m 0,0 c 0,-6.63 -5.376,-12.006 -12.005,-12.006 -6.635,0 -12.007,5.376 -12.007,12.006 0,6.631 5.372,12.005 12.007,12.005 C -5.376,12.005 0,6.631 0,0"
         id="path5996"
         style="fill:#ea8232;fill-opacity:1;fill-rule:nonzero;stroke:none" />
    </g>
    <g
       transform="matrix(1.25,0,0,-1.25,430.30543,509.89655)"
       id="g5998">
      <path
         d="m 0,0 c 0,-4.321 -3.503,-7.823 -7.821,-7.823 -4.324,0 -7.826,3.502 -7.826,7.823 0,4.321 3.502,7.824 7.826,7.824 C -3.503,7.824 0,4.321 0,0"
         id="path6000"
         style="fill:#575756;fill-opacity:1;fill-rule:nonzero;stroke:none" />
    </g>
    <g
       transform="matrix(1.25,0,0,-1.25,329.09206,507.95555)"
       id="g6002">
      <path
         d="m 0,0 c 0,-20.606 16.708,-37.314 37.316,-37.314 l 0,74.63 C 16.708,37.316 0,20.611 0,0"
         id="path6004"
         style="fill:#af5b2b;fill-opacity:1;fill-rule:nonzero;stroke:none" />
    </g>
    <g
       transform="matrix(1.25,0,0,-1.25,422.38056,507.95555)"
       id="g6006">
      <path
         d="m 0,0 c 0,20.611 -16.705,37.316 -37.314,37.316 l 0,-74.63 C -16.705,-37.314 0,-20.606 0,0"
         id="path6008"
         style="fill:#ea8232;fill-opacity:1;fill-rule:nonzero;stroke:none" />
    </g>
    <g
       transform="matrix(1.25,0,0,-1.25,397.32081,525.33967)"
       id="g6010">
      <path
         d="m 0,0 c 8.731,0.557 15.646,7.798 15.646,16.67 0,9.24 -7.488,16.727 -16.726,16.727 -7.803,0 -14.339,-5.35 -16.187,-12.578 -1.847,7.228 -8.385,12.578 -16.188,12.578 -9.237,0 -16.729,-7.487 -16.729,-16.727 0,-9.235 7.492,-16.726 16.729,-16.726 l 0,-8.632 c 0,-1.397 0.19,-2.743 0.512,-4.039 3.771,4.813 9.626,7.919 16.214,7.919 6.59,0 12.444,-3.106 16.216,-7.921 C -0.188,-11.432 0,-10.085 0,-8.688 L 0,0 z"
         id="path6012"
         style="fill:#575756;fill-opacity:1;fill-rule:nonzero;stroke:none" />
    </g>
    <g
       transform="matrix(1.25,0,0,-1.25,376.41006,531.34917)"
       id="g6014">
      <path
         d="m 0,0 c -6.589,0 -12.443,-3.106 -16.215,-7.919 1.81,-7.282 8.374,-12.689 16.215,-12.689 7.845,0 14.407,5.405 16.216,12.686 C 12.443,-3.106 6.59,0 0,0"
         id="path6016"
         style="fill:#f5c799;fill-opacity:1;fill-rule:nonzero;stroke:none" />
    </g>
    <g
       transform="matrix(1.25,0,0,-1.25,373.37793,525.0723)"
       id="g6018">
      <path
         d="m 0,0 c 0,-1.34 -1.087,-2.428 -2.43,-2.428 -1.341,0 -2.426,1.088 -2.426,2.428 0,1.342 1.085,2.429 2.426,2.429 C -1.087,2.429 0,1.342 0,0"
         id="path6020"
         style="fill:#411611;fill-opacity:1;fill-rule:nonzero;stroke:none" />
    </g>
    <g
       transform="matrix(1.25,0,0,-1.25,384.16518,525.0723)"
       id="g6022">
      <path
         d="m 0,0 c 0,-1.34 -1.085,-2.428 -2.427,-2.428 -1.341,0 -2.429,1.088 -2.429,2.428 0,1.342 1.088,2.429 2.429,2.429 C -1.085,2.429 0,1.342 0,0"
         id="path6024"
         style="fill:#411611;fill-opacity:1;fill-rule:nonzero;stroke:none" />
    </g>
    <g
       transform="matrix(1.25,0,0,-1.25,368.73793,505.13455)"
       id="g6026">
      <path
         d="m 0,0 c 0,-6.11 -4.952,-11.062 -11.062,-11.062 -6.109,0 -11.061,4.952 -11.061,11.062 0,6.108 4.952,11.061 11.061,11.061 C -4.952,11.061 0,6.108 0,0"
         id="path6028"
         style="fill:#f5c799;fill-opacity:1;fill-rule:nonzero;stroke:none" />
    </g>
    <g
       transform="matrix(1.25,0,0,-1.25,410.38356,505.13455)"
       id="g6030">
      <path
         d="m 0,0 c 0,-6.11 -4.951,-11.062 -11.062,-11.062 -6.108,0 -11.061,4.952 -11.061,11.062 0,6.108 4.953,11.061 11.061,11.061 C -4.951,11.061 0,6.108 0,0"
         id="path6032"
         style="fill:#f5c799;fill-opacity:1;fill-rule:nonzero;stroke:none" />
    </g>
    <g
       transform="matrix(1.25,0,0,-1.25,362.41231,505.13455)"
       id="g6034">
      <path
         d="M 0,0 C 0,-3.314 -2.687,-6 -5.999,-6 -9.313,-6 -12,-3.314 -12,0 -12,3.313 -9.313,5.999 -5.999,5.999 -2.687,5.999 0,3.313 0,0"
         id="path6036"
         style="fill:#411611;fill-opacity:1;fill-rule:nonzero;stroke:none" />
    </g>
    <g
       transform="matrix(1.25,0,0,-1.25,404.06143,505.13455)"
       id="g6038">
      <path
         d="m 0,0 c 0,-3.314 -2.686,-6 -6,-6 -3.313,0 -6,2.686 -6,6 0,3.313 2.687,5.999 6,5.999 3.314,0 6,-2.686 6,-5.999"
         id="path6040"
         style="fill:#411611;fill-opacity:1;fill-rule:nonzero;stroke:none" />
    </g>
    <g
       transform="matrix(1.25,0,0,-1.25,359.94643,502.63455)"
       id="g6042">
      <path
         d="m 0,0 c 0,-1.104 -0.896,-2 -2.001,-2 -1.105,0 -2.002,0.896 -2.002,2 0,1.105 0.897,2.002 2.002,2.002 C -0.896,2.002 0,1.105 0,0"
         id="path6044"
         style="fill:#ffffff;fill-opacity:1;fill-rule:nonzero;stroke:none" />
    </g>
    <g
       transform="matrix(1.25,0,0,-1.25,401.55906,502.63455)"
       id="g6046">
      <path
         d="m 0,0 c 0,-1.104 -0.896,-2 -1.999,-2 -1.105,0 -2.003,0.896 -2.003,2 0,1.105 0.898,2.002 2.003,2.002 C -0.896,2.002 0,1.105 0,0"
         id="path6048"
         style="fill:#ffffff;fill-opacity:1;fill-rule:nonzero;stroke:none" />
    </g>
    <g
       transform="matrix(1.25,0,0,-1.25,375.73756,550.45192)"
       id="g6050">
      <path
         d="m 0,0 c -6.093,0 -8.52,3.426 -8.621,3.571 -0.174,0.253 -0.108,0.599 0.144,0.772 0.25,0.177 0.596,0.112 0.771,-0.14 C -7.61,4.065 -5.465,1.11 0,1.11 5.015,1.11 7.711,4.215 7.738,4.247 7.937,4.479 8.289,4.509 8.521,4.309 8.755,4.11 8.781,3.76 8.583,3.526 8.462,3.384 5.521,0 0,0"
         id="path6052"
         style="fill:#411611;fill-opacity:1;fill-rule:nonzero;stroke:none" />
    </g>
    <g
       transform="matrix(1.25,0,0,-1.25,377.51856,505.5093)"
       id="g6054">
      <path
         d="m 0,0 c 0.736,1.816 1.156,6.715 -2.27,12.913 -1.507,2.732 -1.429,2.225 -1.945,3.55 -0.514,1.322 -1.241,2.56 -2.207,3.708 -0.985,1.139 -1.267,1.744 -3.052,2.568 -0.743,-1.82 -1.073,-2.128 -1.721,-4.442 -0.403,-1.443 -0.534,-3.557 -0.011,-4.875 0.523,-1.321 1.114,-2.731 2.697,-4.419 C -7.516,7.865 -0.976,3.559 0,0"
         id="path6056"
         style="fill:#af5b2b;fill-opacity:1;fill-rule:nonzero;stroke:none" />
    </g>
    <g
       transform="matrix(1.25,0,0,-1.25,383.48781,497.45392)"
       id="g6058">
      <path
         d="m 0,0 c 2.379,9.255 -6.139,18.004 -7.104,19.154 -0.984,1.136 -2.158,2.201 -3.942,3.027 -0.746,-1.822 -0.882,-3.399 -0.83,-4.905 0.073,-1.496 -0.296,-5.409 3.12,-7.926 C -3.8,5.698 -1.797,3.74 0,0"
         id="path6060"
         style="fill:#af5b2b;fill-opacity:1;fill-rule:nonzero;stroke:none" />
    </g>
    <g
       transform="matrix(1.25,0,0,-1.25,414.80981,599.53752)"
       id="g6062">
      <path
         d="m 0,0 c -1.232,-2.876 -5.171,-3.942 -8.797,-2.385 -3.624,1.559 -5.559,5.153 -4.324,8.026"
         id="path6064"
         style="fill:#f5c799;fill-opacity:1;fill-rule:nonzero;stroke:none" />
    </g>
    <g
       transform="matrix(1.25,0,0,-1.25,414.64868,600.50802)"
       id="g6066">
      <path
         d="m 0,0 c 9.354,23.381 11.436,40.57 6.187,51.09 -2.59,5.193 -6.611,7.886 -9.508,8.67 l -3.78,-13.933 c -0.513,0.139 -0.703,0.252 -0.712,0.256 C -5.575,44.737 -1.8,34.371 -13.404,5.361 L 0,0 z"
         id="path6068"
         style="fill:#ea8232;fill-opacity:1;fill-rule:nonzero;stroke:none" />
    </g>
    <g
       transform="matrix(1.25,0,0,-1.25,335.18818,599.53752)"
       id="g6070">
      <path
         d="m 0,0 c 1.235,-2.876 5.175,-3.942 8.799,-2.385 3.624,1.559 5.557,5.153 4.325,8.026"
         id="path6072"
         style="fill:#f5c799;fill-opacity:1;fill-rule:nonzero;stroke:none" />
    </g>
    <g
       transform="matrix(1.25,0,0,-1.25,335.35293,600.50802)"
       id="g6074">
      <path
         d="m 0,0 c -9.354,23.381 -11.437,40.57 -6.189,51.09 2.591,5.193 6.612,7.886 9.509,8.67 L 7.099,45.827 c 0.513,0.139 0.704,0.252 0.714,0.256 C 5.575,44.737 1.797,34.371 13.403,5.361 L 0,0 z"
         id="path6076"
         style="fill:#af5b2b;fill-opacity:1;fill-rule:nonzero;stroke:none" />
    </g>
  </g>
</svg>
