<?xml version="1.0" encoding="UTF-8" standalone="no"?>
<!-- Created with Inkscape (http://www.inkscape.org/) -->

<svg
   xmlns:dc="http://purl.org/dc/elements/1.1/"
   xmlns:cc="http://creativecommons.org/ns#"
   xmlns:rdf="http://www.w3.org/1999/02/22-rdf-syntax-ns#"
   xmlns:svg="http://www.w3.org/2000/svg"
   xmlns="http://www.w3.org/2000/svg"
   version="1.1"
   width="111.63875"
   height="134.00525"
   id="svg12304">
  <defs
     id="defs12306" />
  <metadata
     id="metadata12309">
    <rdf:RDF>
      <cc:Work
         rdf:about="">
        <dc:format>image/svg+xml</dc:format>
        <dc:type
           rdf:resource="http://purl.org/dc/dcmitype/StillImage" />
        <dc:title></dc:title>
      </cc:Work>
    </rdf:RDF>
  </metadata>
  <g
     transform="translate(-319.18062,-465.35956)"
     id="layer1">
    <g
       transform="matrix(1.25,0,0,-1.25,412.80362,465.35956)"
       id="g3188">
      <path
         d="m 0,0 -16.898,-5.529 5.086,-9.641 c 0,0 7.018,4.49 11.812,15.17"
         id="path3190"
         style="fill:#d3c5c1;fill-opacity:1;fill-rule:nonzero;stroke:none" />
    </g>
    <g
       transform="matrix(1.25,0,0,-1.25,337.85988,465.35956)"
       id="g3192">
      <path
         d="m 0,0 16.899,-5.529 -5.087,-9.641 c 0,0 -7.02,4.49 -11.812,15.17"
         id="path3194"
         style="fill:#9c9b9b;fill-opacity:1;fill-rule:nonzero;stroke:none" />
    </g>
    <g
       transform="matrix(1.25,0,0,-1.25,430.81937,530.77706)"
       id="g3196">
      <path
         d="m 0,0 c 0,-21.907 -19.993,-54.102 -44.655,-54.102 -24.663,0 -44.656,32.195 -44.656,54.102 0,21.906 19.993,39.665 44.656,39.665 C -19.993,39.665 0,21.906 0,0"
         id="path3198"
         style="fill:#6f6f6e;fill-opacity:1;fill-rule:nonzero;stroke:none" />
    </g>
    <g
       transform="matrix(1.25,0,0,-1.25,402.01812,583.88856)"
       id="g3200">
      <path
         d="m 0,0 c 8.754,13.767 12.966,40.32 12.066,51.705 -2.265,28.683 -14.343,37.198 -27.709,39.723 -2.006,0.379 -4.002,0.542 -5.971,0.544 l 0,-104.353 0.905,0 C -8.898,-12.097 -6.825,-10.735 0,0"
         id="path3202"
         style="fill:#d3c5c1;fill-opacity:1;fill-rule:nonzero;stroke:none" />
    </g>
    <g
       transform="matrix(1.25,0,0,-1.25,347.9795,583.88856)"
       id="g3204">
      <path
         d="m 0,0 c -8.752,13.767 -12.964,40.32 -12.065,51.705 2.265,28.683 14.344,37.198 27.71,39.723 2.006,0.379 4.001,0.542 5.971,0.544 l 0,-104.353 -0.904,0 C 8.9,-12.097 6.825,-10.735 0,0"
         id="path3206"
         style="fill:#9c9b9b;fill-opacity:1;fill-rule:nonzero;stroke:none" />
    </g>
    <g
       transform="matrix(1.25,0,0,-1.25,392.031,483.40331)"
       id="g3208">
      <path
         d="M 0,0 C -6.124,0 -11.377,-3.538 -13.624,-8.575 -15.874,-3.538 -21.126,0 -27.251,0 c -8.166,0 -14.791,-6.292 -14.791,-14.056 0,-7.76 6.625,-14.051 14.791,-14.051 6.125,0 11.377,-0.897 13.627,4.144 2.247,-5.041 7.5,-4.144 13.624,-4.144 8.168,0 14.792,6.291 14.792,14.051 C 14.792,-6.292 8.168,0 0,0"
         id="path3210"
         style="fill:#f9f4f0;fill-opacity:1;fill-rule:nonzero;stroke:none" />
    </g>
    <g
       transform="matrix(1.25,0,0,-1.25,371.72275,514.26456)"
       id="g3212">
      <path
         d="m 0,0 -3.581,-2.366 c -1.44,-0.95 -1.898,-2.944 -1.013,-4.429 l 5.61,-9.416 c 0.44,-0.741 1.023,-1.113 1.607,-1.113 l 0,18.037 C 1.672,0.713 0.723,0.476 0,0"
         id="path3214"
         style="fill:#3c3c3b;fill-opacity:1;fill-rule:nonzero;stroke:none" />
    </g>
    <g
       transform="matrix(1.25,0,0,-1.25,377.00713,534.52881)"
       id="g3216">
      <path
         d="m 0,0 5.608,9.417 c 0.885,1.485 0.429,3.479 -1.012,4.429 l -3.581,2.365 c -0.721,0.476 -1.67,0.714 -2.62,0.714 l 0,-18.037 C -1.024,-1.112 -0.44,-0.741 0,0"
         id="path3218"
         style="fill:#3c3c3b;fill-opacity:1;fill-rule:nonzero;stroke:none" />
    </g>
    <g
       transform="matrix(1.25,0,0,-1.25,369.971,500.85631)"
       id="g3220">
      <path
         d="m 0,0 c 0,-5.527 -4.482,-10.013 -10.009,-10.013 -5.531,0 -10.014,4.486 -10.014,10.013 0,5.531 4.483,10.013 10.014,10.013 C -4.482,10.012 0,5.531 0,0"
         id="path3222"
         style="fill:#ea8232;fill-opacity:1;fill-rule:nonzero;stroke:none" />
    </g>
    <g
       transform="matrix(1.25,0,0,-1.25,364.55475,500.85631)"
       id="g3224">
      <path
         d="m 0,0 c 0,-3.136 -2.542,-5.678 -5.676,-5.678 -3.139,0 -5.678,2.542 -5.678,5.678 0,3.135 2.539,5.678 5.678,5.678 C -2.542,5.678 0,3.135 0,0"
         id="path3226"
         style="fill:#3c3c3b;fill-opacity:1;fill-rule:nonzero;stroke:none" />
    </g>
    <g
       transform="matrix(1.25,0,0,-1.25,405.05462,500.85631)"
       id="g3228">
      <path
         d="m 0,0 c 0,-5.527 -4.482,-10.013 -10.011,-10.013 -5.529,0 -10.013,4.486 -10.013,10.013 0,5.531 4.484,10.012 10.013,10.012 C -4.482,10.012 0,5.531 0,0"
         id="path3230"
         style="fill:#ea8232;fill-opacity:1;fill-rule:nonzero;stroke:none" />
    </g>
    <g
       transform="matrix(1.25,0,0,-1.25,399.83675,500.85631)"
       id="g3232">
      <path
         d="m 0,0 c 0,-3.136 -2.544,-5.678 -5.679,-5.678 -3.136,0 -5.677,2.542 -5.677,5.678 0,3.135 2.541,5.678 5.677,5.678 C -2.544,5.678 0,3.135 0,0"
         id="path3234"
         style="fill:#3c3c3b;fill-opacity:1;fill-rule:nonzero;stroke:none" />
    </g>
    <g
       transform="matrix(1.25,0,0,-1.25,362.822,498.39968)"
       id="g3236">
      <path
         d="m 0,0 c 0,-1.085 -0.88,-1.965 -1.964,-1.965 -1.085,0 -1.965,0.88 -1.965,1.965 0,1.084 0.88,1.963 1.965,1.963 C -0.88,1.963 0,1.084 0,0"
         id="path3238"
         style="fill:#ffffff;fill-opacity:1;fill-rule:nonzero;stroke:none" />
    </g>
    <g
       transform="matrix(1.25,0,0,-1.25,398.032,498.39968)"
       id="g3240">
      <path
         d="m 0,0 c 0,-1.085 -0.88,-1.965 -1.965,-1.965 -1.084,0 -1.964,0.88 -1.964,1.965 0,1.084 0.88,1.963 1.964,1.963 C -0.88,1.963 0,1.084 0,0"
         id="path3242"
         style="fill:#ffffff;fill-opacity:1;fill-rule:nonzero;stroke:none" />
    </g>
    <g
       transform="matrix(1.25,0,0,-1.25,366.13188,533.44544)"
       id="g3244">
      <path
         d="m 0,0 c 0.716,-1.87 0.227,-4.215 -1.156,-5.938 -1.387,-1.742 -3.602,-2.839 -5.982,-2.821 -2.212,-0.022 -4.55,1.076 -5.901,2.818 -1.384,1.723 -1.874,4.071 -1.152,5.941 0.703,-1.851 1.746,-3.194 3.004,-4.091 1.269,-0.902 2.623,-1.335 4.134,-1.34 1.343,0 2.82,0.435 4.053,1.337 1.261,0.896 2.302,2.243 3,4.094"
         id="path3246"
         style="fill:#6f6f6e;fill-opacity:1;fill-rule:nonzero;stroke:none" />
    </g>
    <g
       transform="matrix(1.25,0,0,-1.25,383.87112,533.44544)"
       id="g3248">
      <path
         d="m 0,0 c 0.715,-1.87 0.226,-4.215 -1.156,-5.938 -1.388,-1.742 -3.603,-2.839 -5.982,-2.821 -2.212,-0.022 -4.55,1.076 -5.901,2.818 -1.384,1.723 -1.872,4.071 -1.152,5.941 0.703,-1.851 1.746,-3.194 3.004,-4.091 1.269,-0.902 2.623,-1.335 4.134,-1.34 1.342,0 2.82,0.435 4.054,1.337 C -1.74,-3.198 -0.698,-1.851 0,0"
         id="path3250"
         style="fill:#6f6f6e;fill-opacity:1;fill-rule:nonzero;stroke:none" />
    </g>
    <g
       transform="matrix(1.25,0,0,-1.25,357.29338,544.66006)"
       id="g3252">
      <path
         d="m 0,0 c 0.715,-1.871 0.226,-4.215 -1.157,-5.939 -1.386,-1.742 -3.602,-2.839 -5.982,-2.82 -2.211,-0.023 -4.549,1.074 -5.9,2.816 -1.383,1.724 -1.875,4.072 -1.153,5.943 0.703,-1.853 1.745,-3.195 3.003,-4.091 1.271,-0.9 2.625,-1.337 4.135,-1.341 1.343,0.001 2.82,0.435 4.053,1.338 C -1.741,-3.198 -0.7,-1.853 0,0"
         id="path3254"
         style="fill:#6f6f6e;fill-opacity:1;fill-rule:nonzero;stroke:none" />
    </g>
    <g
       transform="matrix(1.25,0,0,-1.25,375.0315,544.66006)"
       id="g3256">
      <path
         d="m 0,0 c 0.716,-1.872 0.227,-4.215 -1.156,-5.939 -1.387,-1.742 -3.603,-2.839 -5.982,-2.82 -2.211,-0.023 -4.55,1.074 -5.901,2.816 -1.383,1.724 -1.873,4.072 -1.151,5.943 0.702,-1.853 1.744,-3.195 3.002,-4.091 1.271,-0.9 2.625,-1.337 4.135,-1.341 1.342,0.001 2.82,0.435 4.053,1.338 1.261,0.896 2.301,2.241 3,4.094"
         id="path3258"
         style="fill:#6f6f6e;fill-opacity:1;fill-rule:nonzero;stroke:none" />
    </g>
    <g
       transform="matrix(1.25,0,0,-1.25,392.71212,544.66006)"
       id="g3260">
      <path
         d="m 0,0 c 0.715,-1.872 0.225,-4.215 -1.159,-5.939 -1.386,-1.742 -3.6,-2.839 -5.981,-2.82 -2.21,-0.023 -4.55,1.074 -5.899,2.816 -1.384,1.723 -1.874,4.071 -1.154,5.943 0.703,-1.853 1.746,-3.195 3.004,-4.091 1.271,-0.9 2.625,-1.337 4.134,-1.341 1.344,0.001 2.82,0.435 4.052,1.338 C -1.743,-3.198 -0.701,-1.853 0,0"
         id="path3262"
         style="fill:#6f6f6e;fill-opacity:1;fill-rule:nonzero;stroke:none" />
    </g>
    <g
       transform="matrix(1.25,0,0,-1.25,410.45012,544.66006)"
       id="g3264">
      <path
         d="m 0,0 c 0.716,-1.872 0.226,-4.215 -1.155,-5.939 -1.388,-1.742 -3.603,-2.839 -5.983,-2.82 -2.212,-0.023 -4.55,1.074 -5.902,2.816 -1.383,1.723 -1.874,4.071 -1.15,5.943 0.702,-1.853 1.743,-3.195 3.001,-4.091 1.271,-0.9 2.624,-1.337 4.135,-1.341 1.344,0.001 2.821,0.435 4.052,1.338 C -1.74,-3.198 -0.701,-1.853 0,0"
         id="path3266"
         style="fill:#6f6f6e;fill-opacity:1;fill-rule:nonzero;stroke:none" />
    </g>
    <g
       transform="matrix(1.25,0,0,-1.25,375.001,567.24494)"
       id="g3268">
      <path
         d="m 0,0 c 0.715,-1.871 0.228,-4.216 -1.156,-5.939 -1.386,-1.742 -3.602,-2.839 -5.982,-2.821 -2.21,-0.023 -4.55,1.075 -5.9,2.818 -1.383,1.722 -1.873,4.071 -1.153,5.942 0.702,-1.851 1.745,-3.195 3.003,-4.093 1.271,-0.9 2.625,-1.333 4.134,-1.339 1.343,0 2.821,0.436 4.054,1.336 1.261,0.897 2.301,2.245 3,4.096"
         id="path3270"
         style="fill:#6f6f6e;fill-opacity:1;fill-rule:nonzero;stroke:none" />
    </g>
    <g
       transform="matrix(1.25,0,0,-1.25,383.87112,578.27031)"
       id="g3272">
      <path
         d="m 0,0 c 0.716,-1.871 0.227,-4.215 -1.157,-5.938 -1.386,-1.743 -3.602,-2.839 -5.981,-2.822 -2.211,-0.023 -4.55,1.076 -5.901,2.819 -1.383,1.722 -1.873,4.07 -1.152,5.941 0.703,-1.851 1.745,-3.196 3.003,-4.092 1.271,-0.901 2.625,-1.334 4.135,-1.34 1.342,0 2.82,0.436 4.053,1.337 1.26,0.896 2.301,2.244 3,4.095"
         id="path3274"
         style="fill:#6f6f6e;fill-opacity:1;fill-rule:nonzero;stroke:none" />
    </g>
    <g
       transform="matrix(1.25,0,0,-1.25,392.74075,567.24494)"
       id="g3276">
      <path
         d="m 0,0 c 0.716,-1.871 0.226,-4.216 -1.155,-5.939 -1.388,-1.742 -3.603,-2.839 -5.984,-2.821 -2.21,-0.023 -4.55,1.075 -5.9,2.818 -1.383,1.722 -1.873,4.071 -1.153,5.942 0.702,-1.851 1.746,-3.195 3.004,-4.093 1.271,-0.9 2.625,-1.333 4.134,-1.339 1.344,0 2.82,0.436 4.052,1.336 C -1.74,-3.199 -0.7,-1.851 0,0"
         id="path3278"
         style="fill:#6f6f6e;fill-opacity:1;fill-rule:nonzero;stroke:none" />
    </g>
    <g
       transform="matrix(1.25,0,0,-1.25,401.60925,533.44544)"
       id="g3280">
      <path
         d="m 0,0 c 0.716,-1.87 0.226,-4.215 -1.156,-5.938 -1.388,-1.742 -3.602,-2.839 -5.982,-2.821 -2.21,-0.022 -4.55,1.076 -5.9,2.818 -1.384,1.723 -1.873,4.071 -1.152,5.941 0.701,-1.851 1.744,-3.194 3.002,-4.091 1.27,-0.902 2.625,-1.335 4.135,-1.34 1.343,0 2.82,0.435 4.053,1.337 1.261,0.896 2.302,2.243 3,4.094"
         id="path3282"
         style="fill:#6f6f6e;fill-opacity:1;fill-rule:nonzero;stroke:none" />
    </g>
    <g
       transform="matrix(1.25,0,0,-1.25,366.13188,556.21956)"
       id="g3284">
      <path
         d="m 0,0 c 0.716,-1.871 0.227,-4.217 -1.156,-5.941 -1.387,-1.741 -3.602,-2.837 -5.982,-2.817 -2.212,-0.023 -4.55,1.072 -5.901,2.814 -1.384,1.723 -1.874,4.073 -1.152,5.944 0.703,-1.852 1.746,-3.196 3.004,-4.094 1.269,-0.9 2.623,-1.333 4.134,-1.34 1.343,0.002 2.82,0.435 4.053,1.338 1.261,0.897 2.302,2.244 3,4.096"
         id="path3286"
         style="fill:#6f6f6e;fill-opacity:1;fill-rule:nonzero;stroke:none" />
    </g>
    <g
       transform="matrix(1.25,0,0,-1.25,383.87112,556.21956)"
       id="g3288">
      <path
         d="m 0,0 c 0.715,-1.871 0.226,-4.217 -1.156,-5.941 -1.388,-1.741 -3.603,-2.837 -5.982,-2.817 -2.212,-0.023 -4.55,1.072 -5.901,2.814 -1.384,1.723 -1.872,4.073 -1.152,5.944 0.703,-1.852 1.746,-3.196 3.004,-4.094 1.269,-0.9 2.623,-1.333 4.134,-1.34 1.342,0.002 2.82,0.435 4.054,1.338 C -1.74,-3.199 -0.698,-1.852 0,0"
         id="path3290"
         style="fill:#6f6f6e;fill-opacity:1;fill-rule:nonzero;stroke:none" />
    </g>
    <g
       transform="matrix(1.25,0,0,-1.25,401.60925,556.21956)"
       id="g3292">
      <path
         d="m 0,0 c 0.716,-1.871 0.226,-4.217 -1.156,-5.941 -1.388,-1.741 -3.602,-2.837 -5.982,-2.817 -2.21,-0.023 -4.55,1.072 -5.9,2.814 -1.384,1.723 -1.873,4.073 -1.152,5.944 0.701,-1.852 1.744,-3.196 3.002,-4.094 1.27,-0.9 2.625,-1.333 4.135,-1.34 1.343,0.002 2.82,0.435 4.053,1.338 1.261,0.897 2.302,2.244 3,4.096"
         id="path3294"
         style="fill:#6f6f6e;fill-opacity:1;fill-rule:nonzero;stroke:none" />
    </g>
  </g>
</svg>
