<?xml version="1.0" encoding="UTF-8" standalone="no"?>
<!-- Created with Inkscape (http://www.inkscape.org/) -->

<svg
   xmlns:dc="http://purl.org/dc/elements/1.1/"
   xmlns:cc="http://creativecommons.org/ns#"
   xmlns:rdf="http://www.w3.org/1999/02/22-rdf-syntax-ns#"
   xmlns:svg="http://www.w3.org/2000/svg"
   xmlns="http://www.w3.org/2000/svg"
   version="1.1"
   width="122.78279"
   height="136.32449"
   id="svg15711">
  <defs
     id="defs15713" />
  <metadata
     id="metadata15716">
    <rdf:RDF>
      <cc:Work
         rdf:about="">
        <dc:format>image/svg+xml</dc:format>
        <dc:type
           rdf:resource="http://purl.org/dc/dcmitype/StillImage" />
        <dc:title></dc:title>
      </cc:Work>
    </rdf:RDF>
  </metadata>
  <g
     transform="translate(-310.03718,-487.05708)"
     id="layer1">
    <g
       transform="matrix(1.25,0,0,-1.25,395.33805,612.12733)"
       id="g4606">
      <path
         d="M 0,0 0,8.623 C 5.088,13.362 8.352,20.011 8.672,27.432 3.087,19.066 -7.024,13.453 -18.617,13.424 l 0,-12.153 c 1.673,0 3.3,0.174 4.891,0.461 l 0,-1.732 c -2.628,-2.047 -4.324,-5.23 -4.324,-8.817 l 22.371,0 C 4.321,-5.23 2.625,-2.047 0,0"
         id="path4608"
         style="fill:#6f6f6e;fill-opacity:1;fill-rule:nonzero;stroke:none" />
    </g>
    <g
       transform="matrix(1.25,0,0,-1.25,372.06717,542.15783)"
       id="g4610">
      <path
         d="m 0,0 c -15.107,0 -27.352,-12.246 -27.352,-27.352 0,-0.496 0.05,-0.977 0.076,-1.464 0.392,-7.313 3.634,-13.857 8.661,-18.537 l 0,-3.562 c -1.926,-4.314 -6.246,-7.332 -11.266,-7.332 -6.316,0 -11.531,4.773 -12.246,10.898 -0.056,0.473 -0.091,0.953 -0.091,1.44 0,1.414 0.238,2.802 0.707,4.127 0.621,1.753 -0.297,3.675 -2.048,4.298 -1.751,0.622 -3.675,-0.296 -4.297,-2.049 -0.727,-2.046 -1.094,-4.191 -1.094,-6.376 0,-0.429 0.036,-0.847 0.063,-1.271 0.659,-9.922 8.92,-17.799 19.006,-17.799 2.479,0 4.839,0.491 7.013,1.354 -0.04,-0.385 -0.069,-0.774 -0.069,-1.168 l 22.368,0 c 0,3.587 -1.693,6.771 -4.321,8.817 l 0,1.733 c 0.209,-0.038 0.423,-0.055 0.635,-0.089 0.516,-0.098 1.067,-0.171 1.637,-0.231 0.061,-0.004 0.121,-0.014 0.183,-0.021 0.768,-0.071 1.567,-0.12 2.435,-0.12 l 0,12.152 c 5.73,0.015 11.097,1.397 15.738,3.801 4.743,2.455 8.727,5.978 11.551,10.207 0.02,0.398 0.064,0.789 0.064,1.192 C 27.353,-12.246 15.108,0 0,0"
         id="path4612"
         style="fill:#3c3c3b;fill-opacity:1;fill-rule:nonzero;stroke:none" />
    </g>
    <g
       transform="matrix(1.25,0,0,-1.25,358.9673,505.26333)"
       id="g4614">
      <path
         d="m 0,0 c 0,-8.046 -6.521,-14.567 -14.568,-14.567 -8.045,0 -14.568,6.521 -14.568,14.567 0,8.044 6.523,14.565 14.568,14.565 C -6.521,14.565 0,8.044 0,0"
         id="path4616"
         style="fill:#af5b2b;fill-opacity:1;fill-rule:nonzero;stroke:none" />
    </g>
    <g
       transform="matrix(1.25,0,0,-1.25,351.25605,505.26333)"
       id="g4618">
      <path
         d="m 0,0 c 0,-4.64 -3.759,-8.399 -8.399,-8.399 -4.638,0 -8.397,3.759 -8.397,8.399 0,4.636 3.759,8.397 8.397,8.397 C -3.759,8.397 0,4.636 0,0"
         id="path4620"
         style="fill:#4b190d;fill-opacity:1;fill-rule:nonzero;stroke:none" />
    </g>
    <g
       transform="matrix(1.25,0,0,-1.25,420.62805,505.26333)"
       id="g4622">
      <path
         d="m 0,0 c 0,-8.046 -6.523,-14.567 -14.569,-14.567 -8.046,0 -14.567,6.521 -14.567,14.567 0,8.044 6.521,14.565 14.567,14.565 C -6.523,14.565 0,8.044 0,0"
         id="path4624"
         style="fill:#6f6f6e;fill-opacity:1;fill-rule:nonzero;stroke:none" />
    </g>
    <g
       transform="matrix(1.25,0,0,-1.25,412.91442,505.26333)"
       id="g4626">
      <path
         d="m 0,0 c 0,-4.64 -3.757,-8.399 -8.398,-8.399 -4.639,0 -8.397,3.759 -8.397,8.399 0,4.636 3.758,8.397 8.397,8.397 C -3.757,8.397 0,4.636 0,0"
         id="path4628"
         style="fill:#07171b;fill-opacity:1;fill-rule:nonzero;stroke:none" />
    </g>
    <g
       transform="matrix(1.25,0,0,-1.25,358.9673,505.26333)"
       id="g4630">
      <path
         d="m 0,0 c 0,-8.046 -6.521,-14.567 -14.568,-14.567 -8.045,0 -14.568,6.521 -14.568,14.567 0,8.044 6.523,14.565 14.568,14.565 C -6.521,14.565 0,8.044 0,0"
         id="path4632"
         style="fill:#6f6f6e;fill-opacity:1;fill-rule:nonzero;stroke:none" />
    </g>
    <g
       transform="matrix(1.25,0,0,-1.25,351.25605,505.26333)"
       id="g4634">
      <path
         d="m 0,0 c 0,-4.64 -3.759,-8.399 -8.399,-8.399 -4.638,0 -8.397,3.759 -8.397,8.399 0,4.636 3.759,8.397 8.397,8.397 C -3.759,8.397 0,4.636 0,0"
         id="path4636"
         style="fill:#07171b;fill-opacity:1;fill-rule:nonzero;stroke:none" />
    </g>
    <g
       transform="matrix(1.25,0,0,-1.25,372.04642,501.96983)"
       id="g4638">
      <path
         d="M 0,0 0,-0.002 C 0.013,-0.002 0.022,0 0.034,0 L 0,0 z"
         id="path4640"
         style="fill:#e96332;fill-opacity:1;fill-rule:nonzero;stroke:none" />
    </g>
    <g
       transform="matrix(1.25,0,0,-1.25,365.8868,579.53583)"
       id="g4642">
      <path
         d="M 0,0 -0.003,-0.001 C 0.002,-0.01 0.01,-0.019 0.013,-0.027 0.01,-0.019 0.002,-0.008 0,0"
         id="path4644"
         style="fill:#07171b;fill-opacity:1;fill-rule:nonzero;stroke:none" />
    </g>
    <g
       transform="matrix(1.25,0,0,-1.25,372.13255,501.96983)"
       id="g4646">
      <path
         d="M 0,0 -0.035,0 C -0.023,0 -0.01,-0.002 0,-0.002 L 0,0 z"
         id="path4648"
         style="fill:#a84720;fill-opacity:1;fill-rule:nonzero;stroke:none" />
    </g>
    <g
       transform="matrix(1.25,0,0,-1.25,372.13255,540.15833)"
       id="g4650">
      <path
         d="m 0,0 0,30.549 c -0.01,0 -0.023,0.002 -0.035,0.002 -0.011,0 -0.021,-0.002 -0.034,-0.002 l 0,-30.554 C -0.046,-0.005 -0.023,0 0,0"
         id="path4652"
         style="fill:#a84720;fill-opacity:1;fill-rule:nonzero;stroke:none" />
    </g>
    <g
       transform="matrix(1.25,0,0,-1.25,372.04642,577.90496)"
       id="g4654">
      <path
         d="M 0,0 C 0.013,0 0.022,-0.002 0.034,-0.002 0.045,-0.002 0.059,0 0.069,0 l 0,18.661 0,11.536 C 0.045,30.197 0.022,30.192 0,30.192 L 0,18.661 0,0 z"
         id="path4656"
         style="fill:#a84720;fill-opacity:1;fill-rule:nonzero;stroke:none" />
    </g>
    <g
       transform="matrix(1.25,0,0,-1.25,372.04642,577.90496)"
       id="g4658">
      <path
         d="m 0,0 0,-0.004 c 0.013,0 0.022,0.001 0.034,0.002 C 0.022,-0.002 0.013,0 0,0"
         id="path4660"
         style="fill:#a84720;fill-opacity:1;fill-rule:nonzero;stroke:none" />
    </g>
    <g
       transform="matrix(1.25,0,0,-1.25,351.16942,563.14546)"
       id="g4662">
      <path
         d="M 0,0 C -0.001,-0.006 -0.002,-0.01 -0.003,-0.012 -0.002,-0.01 -0.001,-0.005 0,0 m 16.752,-5.138 0.019,7.841 c -0.007,0.004 -0.013,0.006 -0.019,0.008 l 0,9.529 0,42.086 c -27.31,0 -36.063,-17.746 -35.98,-37.064 0.04,-9.248 2.501,-25.034 2.501,-25.034 0,0 0.776,-3.063 15.513,-8.323 5.557,-1.981 11.32,-3.601 17.932,-3.601 l 0.032,13.276 0.002,0 0,1.282 z"
         id="path4664"
         style="fill:#3c3c3b;fill-opacity:1;fill-rule:nonzero;stroke:none" />
    </g>
    <g
       transform="matrix(1.25,0,0,-1.25,372.0508,495.23771)"
       id="g4666">
      <path
         d="m 0,0 0,-42.086 0,-9.518 c -0.016,-0.005 -0.031,-0.011 -0.047,-0.019 l 0.053,-22.399 c 5.626,0 11.146,1.314 16.244,3.025 0.572,0.179 1.126,0.389 1.687,0.589 14.745,5.255 15.537,8.322 15.537,8.322 0,0 2.429,16.08 2.504,25.023 C 36.143,-17.746 27.308,0 0,0"
         id="path4668"
         style="fill:#6f6f6e;fill-opacity:1;fill-rule:nonzero;stroke:none" />
    </g>
    <g
       transform="matrix(1.25,0,0,-1.25,394.47205,583.26383)"
       id="g4670">
      <path
         d="M 0,0 0,0.013 C -0.561,-0.188 -1.115,-0.397 -1.687,-0.576 -1.119,-0.388 -0.555,-0.197 0,0"
         id="path4672"
         style="fill:#6f6f6e;fill-opacity:1;fill-rule:nonzero;stroke:none" />
    </g>
    <g
       transform="matrix(1.25,0,0,-1.25,341.86155,533.42621)"
       id="g4674">
      <path
         d="M 0,0 C 0,0 14.98,4.343 14.643,-10.889 14.643,-10.889 0,-16.209 0,0"
         id="path4676"
         style="fill:#07171b;fill-opacity:1;fill-rule:nonzero;stroke:none" />
    </g>
    <g
       transform="matrix(1.25,0,0,-1.25,358.1738,540.60021)"
       id="g4678">
      <path
         d="m 0,0 c 0,-3.066 -2.487,-5.553 -5.555,-5.553 -3.065,0 -5.553,2.487 -5.553,5.553 0,3.069 2.488,5.556 5.553,5.556 C -2.487,5.556 0,3.069 0,0"
         id="path4680"
         style="fill:#b1b1b1;fill-opacity:1;fill-rule:nonzero;stroke:none" />
    </g>
    <g
       transform="matrix(1.25,0,0,-1.25,355.9448,537.72921)"
       id="g4682">
      <path
         d="m 0,0 c 0,-1.059 -0.856,-1.914 -1.914,-1.914 -1.057,0 -1.916,0.855 -1.916,1.914 0,1.057 0.859,1.913 1.916,1.913 C -0.856,1.913 0,1.057 0,0"
         id="path4684"
         style="fill:#ffffff;fill-opacity:1;fill-rule:nonzero;stroke:none" />
    </g>
    <g
       transform="matrix(1.25,0,0,-1.25,402.42005,533.42621)"
       id="g4686">
      <path
         d="M 0,0 C 0,0 -14.981,4.343 -14.645,-10.889 -14.645,-10.889 0,-16.209 0,0"
         id="path4688"
         style="fill:#07171b;fill-opacity:1;fill-rule:nonzero;stroke:none" />
    </g>
    <g
       transform="matrix(1.25,0,0,-1.25,385.98567,540.60021)"
       id="g4690">
      <path
         d="m 0,0 c 0,-3.066 2.487,-5.553 5.554,-5.553 3.067,0 5.554,2.487 5.554,5.553 0,3.069 -2.487,5.556 -5.554,5.556 C 2.487,5.556 0,3.069 0,0"
         id="path4692"
         style="fill:#b1b1b1;fill-opacity:1;fill-rule:nonzero;stroke:none" />
    </g>
    <g
       transform="matrix(1.25,0,0,-1.25,393.26292,537.72921)"
       id="g4694">
      <path
         d="m 0,0 c 0,-1.059 0.858,-1.914 1.915,-1.914 1.056,0 1.914,0.855 1.914,1.914 0,1.057 -0.858,1.913 -1.914,1.913 C 0.858,1.913 0,1.057 0,0"
         id="path4696"
         style="fill:#ffffff;fill-opacity:1;fill-rule:nonzero;stroke:none" />
    </g>
    <g
       transform="matrix(1.25,0,0,-1.25,375.84042,565.72233)"
       id="g4698">
      <path
         d="m 0,0 c 3.175,3.335 7.739,5.813 7.778,5.859 0,0 -3.528,1.598 -10.83,1.598 -7.447,0 -10.972,-1.648 -10.883,-1.618 0.085,-0.121 4.551,-2.17 7.594,-5.735 C -5.703,-0.643 -4.8,-1 -3.905,-1.154 l 1.676,0 C -1.407,-1.002 -0.615,-0.646 0,0"
         id="path4700"
         style="fill:#07171b;fill-opacity:1;fill-rule:nonzero;stroke:none" />
    </g>
    <g
       transform="matrix(1.25,0,0,-1.25,371.18592,571.78796)"
       id="g4702">
      <path
         d="m 0,0 c -1.371,-2.365 -3.105,-3.705 -5.152,-3.985 -4.638,-0.625 -9.56,4.233 -9.61,4.281 -0.263,0.267 -0.689,0.267 -0.952,0.001 -0.264,-0.261 -0.264,-0.687 -0.002,-0.949 0.203,-0.209 4.775,-4.737 9.706,-4.737 0.344,0 0.689,0.021 1.036,0.069 2.235,0.304 4.13,1.605 5.646,3.863 1.517,-2.258 3.411,-3.559 5.647,-3.863 0.345,-0.048 0.693,-0.069 1.035,-0.069 4.931,0 9.503,4.528 9.707,4.737 0.263,0.262 0.262,0.688 -0.002,0.951 -0.264,0.26 -0.69,0.262 -0.953,-0.003 C 16.057,0.248 11.142,-4.604 6.502,-3.985 4.447,-3.701 2.722,-2.373 1.346,0 l 0,3.664 c 0.05,0.01 0.098,0.024 0.149,0.034 l -1.676,0 C -0.122,3.688 -0.061,3.668 0,3.66 L 0,0 z"
         id="path4704"
         style="fill:#07171b;fill-opacity:1;fill-rule:nonzero;stroke:none" />
    </g>
    <g
       transform="matrix(1.25,0,0,-1.25,310.87942,572.25183)"
       id="g4706">
      <path
         d="M 0,0 C -0.165,0 -0.327,0.058 -0.456,0.177 -0.729,0.429 -0.748,0.854 -0.498,1.129 12.802,15.638 33.447,7.515 33.654,7.432 33.999,7.292 34.166,6.9 34.025,6.554 33.886,6.21 33.494,6.047 33.148,6.183 32.952,6.263 13.158,14.03 0.495,0.219 0.362,0.072 0.181,0 0,0"
         id="path4708"
         style="fill:#07171b;fill-opacity:1;fill-rule:nonzero;stroke:none" />
    </g>
    <g
       transform="matrix(1.25,0,0,-1.25,316.35067,577.54608)"
       id="g4710">
      <path
         d="m 0,0 c -0.168,0 -0.336,0.063 -0.466,0.191 -0.269,0.258 -0.275,0.686 -0.018,0.953 12.459,12.84 28.703,8.519 28.868,8.473 0.358,-0.1 0.568,-0.471 0.469,-0.828 C 28.754,8.432 28.389,8.221 28.024,8.318 27.869,8.362 12.37,12.46 0.483,0.204 0.352,0.069 0.178,0 0,0"
         id="path4712"
         style="fill:#07171b;fill-opacity:1;fill-rule:nonzero;stroke:none" />
    </g>
    <g
       transform="matrix(1.25,0,0,-1.25,323.3478,583.43596)"
       id="g4714">
      <path
         d="m 0,0 c -0.134,0 -0.269,0.04 -0.388,0.124 -0.304,0.213 -0.376,0.633 -0.164,0.936 8.631,12.262 23.079,11.068 23.219,11.055 0.371,-0.035 0.644,-0.361 0.61,-0.73 C 23.243,11.014 22.936,10.739 22.543,10.774 22.41,10.785 8.722,11.898 0.551,0.286 0.419,0.101 0.211,0 0,0"
         id="path4716"
         style="fill:#07171b;fill-opacity:1;fill-rule:nonzero;stroke:none" />
    </g>
    <g
       transform="matrix(1.25,0,0,-1.25,431.9793,572.25183)"
       id="g4718">
      <path
         d="M 0,0 C -0.183,0 -0.363,0.072 -0.497,0.219 -13.16,14.03 -32.953,6.263 -33.15,6.183 -33.495,6.047 -33.887,6.21 -34.027,6.554 -34.167,6.9 -34,7.292 -33.655,7.432 -33.449,7.515 -12.805,15.638 0.496,1.129 0.747,0.854 0.728,0.429 0.454,0.177 0.326,0.058 0.164,0 0,0"
         id="path4720"
         style="fill:#07171b;fill-opacity:1;fill-rule:nonzero;stroke:none" />
    </g>
    <g
       transform="matrix(1.25,0,0,-1.25,426.50567,577.54608)"
       id="g4722">
      <path
         d="m 0,0 c -0.177,0 -0.352,0.069 -0.482,0.204 -11.908,12.275 -27.387,8.16 -27.541,8.114 -0.362,-0.097 -0.729,0.114 -0.828,0.47 -0.1,0.358 0.109,0.729 0.468,0.829 0.161,0.046 16.407,4.367 28.867,-8.473 C 0.741,0.877 0.734,0.449 0.468,0.191 0.337,0.063 0.168,0 0,0"
         id="path4724"
         style="fill:#07171b;fill-opacity:1;fill-rule:nonzero;stroke:none" />
    </g>
    <g
       transform="matrix(1.25,0,0,-1.25,419.51042,583.43596)"
       id="g4726">
      <path
         d="m 0,0 c -0.212,0 -0.42,0.101 -0.55,0.286 -8.176,11.614 -21.86,10.502 -21.995,10.488 -0.387,-0.026 -0.7,0.241 -0.733,0.611 -0.034,0.369 0.238,0.695 0.61,0.73 C -22.528,12.128 -8.08,13.323 0.55,1.06 0.764,0.757 0.692,0.337 0.387,0.124 0.27,0.04 0.133,0 0,0"
         id="path4728"
         style="fill:#07171b;fill-opacity:1;fill-rule:nonzero;stroke:none" />
    </g>
  </g>
</svg>
