<?xml version="1.0" encoding="UTF-8" standalone="no"?>
<!-- Created with Inkscape (http://www.inkscape.org/) -->

<svg
   xmlns:dc="http://purl.org/dc/elements/1.1/"
   xmlns:cc="http://creativecommons.org/ns#"
   xmlns:rdf="http://www.w3.org/1999/02/22-rdf-syntax-ns#"
   xmlns:svg="http://www.w3.org/2000/svg"
   xmlns="http://www.w3.org/2000/svg"
   version="1.1"
   width="93.611"
   height="163.36905"
   id="svg12492">
  <defs
     id="defs12494" />
  <metadata
     id="metadata12497">
    <rdf:RDF>
      <cc:Work
         rdf:about="">
        <dc:format>image/svg+xml</dc:format>
        <dc:type
           rdf:resource="http://purl.org/dc/dcmitype/StillImage" />
        <dc:title></dc:title>
      </cc:Work>
    </rdf:RDF>
  </metadata>
  <g
     transform="translate(-321.76593,-499.24909)"
     id="layer1">
    <g
       transform="matrix(1.25,0,0,-1.25,391.6593,583.02402)"
       id="g3380">
      <path
         d="M 0,0 C 4.289,5.633 22.486,18.525 16.753,42.527 11.021,66.528 0.64,77.88 -6.478,53.192 -13.599,28.509 -4.875,4.42 -4.875,4.42 L 0,0 z"
         id="path3382"
         style="fill:#f6e9e5;fill-opacity:1;fill-rule:nonzero;stroke:none" />
    </g>
    <g
       transform="matrix(1.25,0,0,-1.25,397.02493,511.13314)"
       id="g3384">
      <path
         d="m 0,0 c 0,0 0.009,-4.983 -1.329,-11.292 -1.337,-6.307 5.105,-21.04 -1.347,-36.731 0,0 24.055,17.279 2.676,48.023"
         id="path3386"
         style="fill:#f29e9f;fill-opacity:1;fill-rule:nonzero;stroke:none" />
    </g>
    <g
       transform="matrix(1.25,0,0,-1.25,348.25968,583.02402)"
       id="g3388">
      <path
         d="M 0,0 C -4.287,5.633 -22.485,18.525 -16.753,42.527 -11.021,66.528 -0.64,77.88 6.48,53.192 13.599,28.509 4.876,4.42 4.876,4.42 L 0,0 z"
         id="path3390"
         style="fill:#f6e9e5;fill-opacity:1;fill-rule:nonzero;stroke:none" />
    </g>
    <g
       transform="matrix(1.25,0,0,-1.25,342.89468,511.13314)"
       id="g3392">
      <path
         d="m 0,0 c 0,0 -0.008,-4.983 1.329,-11.292 1.336,-6.307 -5.106,-21.04 1.347,-36.731 0,0 -24.054,17.279 -2.676,48.023"
         id="path3394"
         style="fill:#f29e9f;fill-opacity:1;fill-rule:nonzero;stroke:none" />
    </g>
    <g
       transform="matrix(1.25,0,0,-1.25,338.6423,625.96652)"
       id="g3396">
      <path
         d="m 0,0 c 0,-11.904 10.72,-21.554 23.943,-21.554 l 0,43.108 C 10.72,21.554 0,11.903 0,0"
         id="path3398"
         style="fill:#d3c5c1;fill-opacity:1;fill-rule:nonzero;stroke:none" />
    </g>
    <g
       transform="matrix(1.25,0,0,-1.25,398.50018,625.96652)"
       id="g3400">
      <path
         d="m 0,0 c 0,11.903 -10.721,21.554 -23.943,21.554 l 0,-43.108 C -10.721,-21.554 0,-11.904 0,0"
         id="path3402"
         style="fill:#f6e9e5;fill-opacity:1;fill-rule:nonzero;stroke:none" />
    </g>
    <g
       transform="matrix(1.25,0,0,-1.25,368.44943,586.11364)"
       id="g3404">
      <path
         d="m 0,0 c -15.317,0 -27.736,-9.65 -27.736,-21.554 0,-11.904 12.419,-23.776 27.736,-23.776 15.319,0 27.739,11.872 27.739,23.776 C 27.739,-9.65 15.319,0 0,0"
         id="path3406"
         style="fill:#d3c5c1;fill-opacity:1;fill-rule:nonzero;stroke:none" />
    </g>
    <path
       d="m 363.63142,658.11064 -13.5225,0 0,-11.78875 13.5225,0 0,11.78875 z"
       id="path3408"
       style="fill:#d3c5c1;fill-opacity:1;fill-rule:nonzero;stroke:none" />
    <g
       transform="matrix(1.25,0,0,-1.25,367.44668,662.61814)"
       id="g3410">
      <path
         d="m 0,0 c 0,4.673 -3.788,8.461 -8.461,8.461 -4.672,0 -8.461,-3.788 -8.461,-8.461 L 0,0 z"
         id="path3412"
         style="fill:#d3c5c1;fill-opacity:1;fill-rule:nonzero;stroke:none" />
    </g>
    <path
       d="m 387.03517,658.11064 -13.52375,0 0,-11.78875 13.52375,0 0,11.78875 z"
       id="path3414"
       style="fill:#f6e9e5;fill-opacity:1;fill-rule:nonzero;stroke:none" />
    <g
       transform="matrix(1.25,0,0,-1.25,390.84943,662.61814)"
       id="g3416">
      <path
         d="m 0,0 c 0,4.673 -3.788,8.461 -8.461,8.461 -4.672,0 -8.461,-3.788 -8.461,-8.461 L 0,0 z"
         id="path3418"
         style="fill:#f6e9e5;fill-opacity:1;fill-rule:nonzero;stroke:none" />
    </g>
    <g
       transform="matrix(1.25,0,0,-1.25,352.62668,563.07402)"
       id="g3420">
      <path
         d="M 0,0 C 0.085,0.035 0.169,0.065 0.254,0.101 0.167,0.068 0.085,0.033 0,0"
         id="path3422"
         style="fill:#4b190d;fill-opacity:1;fill-rule:nonzero;stroke:none" />
    </g>
    <g
       transform="matrix(1.25,0,0,-1.25,384.2008,562.94827)"
       id="g3424">
      <path
         d="M 0,0 C 0.079,-0.035 0.163,-0.064 0.243,-0.098 0.161,-0.065 0.083,-0.032 0,0"
         id="path3426"
         style="fill:#4b190d;fill-opacity:1;fill-rule:nonzero;stroke:none" />
    </g>
    <g
       transform="matrix(1.25,0,0,-1.25,415.37693,618.06489)"
       id="g3428">
      <path
         d="m 0,0 c -3.883,1.942 -6.101,16.364 -6.101,16.364 -2.219,14.978 -9.153,24.131 -17.473,27.182 -0.384,0.141 -0.753,0.297 -1.124,0.45 -0.08,0.033 -0.164,0.062 -0.243,0.097 -3.574,1.356 -7.875,2.145 -12.503,2.145 l 0,-25.392 0,-11.416 c 0.007,0 0.015,0 0.023,0 l -0.023,0 0,-24.406 c 0.028,0 0.056,-0.002 0.087,-0.002 9.182,0 14.893,1.778 18.721,4.715 1.746,1.338 3.417,2.787 5.221,3.942 -0.002,0.016 -0.007,0.031 -0.01,0.048 C -6.808,-2.055 0,0 0,0"
         id="path3430"
         style="fill:#f6e9e5;fill-opacity:1;fill-rule:nonzero;stroke:none" />
    </g>
    <g
       transform="matrix(1.25,0,0,-1.25,352.94468,562.94827)"
       id="g3432">
      <path
         d="m 0,0 c -0.085,-0.035 -0.169,-0.065 -0.254,-0.101 -0.366,-0.153 -0.733,-0.307 -1.116,-0.446 -8.318,-3.051 -15.253,-12.204 -17.472,-27.182 0,0 -2.218,-14.422 -6.101,-16.364 0,0 6.86,-2.07 13.501,-6.322 0,0 3.562,-2.604 5.308,-3.941 3.814,-2.926 10.217,-4.7 18.635,-4.713 l 0,24.405 c -0.022,0 -0.041,-10e-4 -0.062,-10e-4 0.021,0 0.041,0.002 0.062,0.002 l 0,11.415 0,25.393 C 7.873,2.145 3.577,1.355 0,0"
         id="path3434"
         style="fill:#d3c5c1;fill-opacity:1;fill-rule:nonzero;stroke:none" />
    </g>
    <g
       transform="matrix(1.25,0,0,-1.25,351.9303,595.01064)"
       id="g3436">
      <path
         d="m 0,0 c 0,-2.524 -2.05,-4.574 -4.578,-4.574 -2.527,0 -4.577,2.05 -4.577,4.574 0,2.529 2.05,4.578 4.577,4.578 C -2.05,4.578 0,2.529 0,0"
         id="path3438"
         style="fill:#b6382f;fill-opacity:1;fill-rule:nonzero;stroke:none" />
    </g>
    <g
       transform="matrix(1.25,0,0,-1.25,396.6538,595.01064)"
       id="g3440">
      <path
         d="m 0,0 c 0,-2.524 -2.047,-4.574 -4.577,-4.574 -2.527,0 -4.576,2.05 -4.576,4.574 0,2.529 2.049,4.578 4.576,4.578 C -2.047,4.578 0,2.529 0,0"
         id="path3442"
         style="fill:#b6382f;fill-opacity:1;fill-rule:nonzero;stroke:none" />
    </g>
    <g
       transform="matrix(1.25,0,0,-1.25,350.36293,593.25039)"
       id="g3444">
      <path
         d="m 0,0 c 0,-0.777 -0.63,-1.407 -1.406,-1.407 -0.777,0 -1.407,0.63 -1.407,1.407 0,0.776 0.63,1.406 1.407,1.406 C -0.63,1.406 0,0.776 0,0"
         id="path3446"
         style="fill:#ffffff;fill-opacity:1;fill-rule:nonzero;stroke:none" />
    </g>
    <g
       transform="matrix(1.25,0,0,-1.25,395.43805,593.25039)"
       id="g3448">
      <path
         d="m 0,0 c 0,-0.777 -0.629,-1.407 -1.406,-1.407 -0.776,0 -1.407,0.63 -1.407,1.407 0,0.776 0.631,1.406 1.407,1.406 C -0.629,1.406 0,0.776 0,0"
         id="path3450"
         style="fill:#ffffff;fill-opacity:1;fill-rule:nonzero;stroke:none" />
    </g>
    <g
       transform="matrix(1.25,0,0,-1.25,376.50855,608.75952)"
       id="g3452">
      <path
         d="M 0,0 -6.424,-0.735 -12.85,0 c -0.6,0.076 -1.159,-0.368 -1.23,-0.978 -0.068,-0.609 0.369,-1.159 0.978,-1.228 l 5.493,-0.629 0,-8.073 c -0.366,-0.431 -1.209,-1.245 -2.064,-0.785 -0.543,0.292 -1.215,0.088 -1.505,-0.452 -0.29,-0.541 -0.087,-1.214 0.452,-1.504 0.545,-0.293 1.075,-0.414 1.578,-0.414 1.075,0 2.02,0.555 2.712,1.185 0.68,-0.632 1.616,-1.187 2.701,-1.187 0.505,0 1.04,0.12 1.596,0.408 0.545,0.282 0.758,0.953 0.475,1.497 -0.281,0.544 -0.952,0.757 -1.497,0.474 -0.917,-0.471 -1.728,0.33 -2.078,0.764 l 0,8.087 5.493,0.629 C 0.862,-2.137 1.299,-1.587 1.23,-0.978 1.16,-0.367 0.609,0.079 0,0"
         id="path3454"
         style="fill:#f29e9f;fill-opacity:1;fill-rule:nonzero;stroke:none" />
    </g>
  </g>
</svg>
