<?xml version="1.0" encoding="UTF-8" standalone="no"?>
<!-- Created with Inkscape (http://www.inkscape.org/) -->

<svg
   xmlns:dc="http://purl.org/dc/elements/1.1/"
   xmlns:cc="http://creativecommons.org/ns#"
   xmlns:rdf="http://www.w3.org/1999/02/22-rdf-syntax-ns#"
   xmlns:svg="http://www.w3.org/2000/svg"
   xmlns="http://www.w3.org/2000/svg"
   version="1.1"
   width="102.22462"
   height="164.00726"
   id="svg13351">
  <defs
     id="defs13353" />
  <metadata
     id="metadata13356">
    <rdf:RDF>
      <cc:Work
         rdf:about="">
        <dc:format>image/svg+xml</dc:format>
        <dc:type
           rdf:resource="http://purl.org/dc/dcmitype/StillImage" />
        <dc:title></dc:title>
      </cc:Work>
    </rdf:RDF>
  </metadata>
  <g
     transform="translate(-323.88769,-450.35855)"
     id="layer1">
    <g
       transform="matrix(1.25,0,0,-1.25,387.61819,450.35855)"
       id="g4078">
      <path
         d="m 0,0 c 1.529,-2.39 2.332,-4.594 3.083,-6.486 0.374,-0.986 0.685,-1.55 1.08,-2.479 0.389,-0.977 0.788,-2.155 1.019,-3.395 0.492,-2.489 0.375,-5.271 -0.506,-7.758 -0.905,-2.486 -2.458,-4.711 -4.944,-6.139 -0.896,2.716 -1.372,4.837 -1.853,6.773 -0.466,1.934 -0.874,3.628 -1.226,5.494 -0.183,0.942 -0.331,1.916 -0.472,3.091 -0.168,1.222 -0.191,2.862 0.106,4.097 C -3.141,-4.257 -2.039,-2.017 0,0"
         id="path4080"
         style="fill:#3c3c3b;fill-opacity:1;fill-rule:nonzero;stroke:none" />
    </g>
    <g
       transform="matrix(1.25,0,0,-1.25,323.88769,586.07393)"
       id="g4082">
      <path
         d="m 0,0 c 1.565,0.7 6.128,2.715 11.656,-0.085 2.438,-1.237 3.813,-2.293 4.844,-3.102 1.026,-0.829 2.913,-2.856 3.69,-4.392 -1.568,-0.706 -1.828,-1.003 -3.833,-1.646 -1.249,-0.396 -3.095,-0.577 -4.266,-0.161 -1.171,0.415 -2.422,0.89 -3.949,2.224 C 7.115,-6.329 3.145,-0.746 0,0"
         id="path4084"
         style="fill:#3c3c3b;fill-opacity:1;fill-rule:nonzero;stroke:none" />
    </g>
    <g
       transform="matrix(1.25,0,0,-1.25,347.70919,596.96131)"
       id="g4086">
      <path
         d="m 0,0 c -0.711,0 -1.45,0.058 -2.218,0.182 -1.514,0.244 -2.543,1.67 -2.298,3.183 0.245,1.513 1.669,2.541 3.183,2.299 8.965,-1.442 12.45,13.778 12.484,13.934 0.334,1.496 1.814,2.442 3.313,2.106 1.497,-0.333 2.44,-1.815 2.108,-3.312 C 16.394,17.601 12.326,0 0,0"
         id="path4088"
         style="fill:#d3c5c1;fill-opacity:1;fill-rule:nonzero;stroke:none" />
    </g>
    <g
       transform="matrix(1.25,0,0,-1.25,411.63856,574.41243)"
       id="g4090">
      <path
         d="m 0,0 c -3.745,-1.511 -7.642,-2.221 -11.49,-2.468 3.699,1.085 7.245,2.625 10.278,4.732 1.517,1.044 2.891,2.251 4.057,3.564 0.468,0.532 3.102,3.674 4.164,5.122 -0.258,1.032 -0.56,2.05 -0.946,3.035 3.513,4.492 5.516,9.932 5.516,15.807 0,1.927 -0.034,4.184 -0.153,6.658 L 0.977,35.072 11.102,41.143 C 10.83,44.2 10.413,47.442 9.769,50.72 L -0.658,43.494 8.485,56.101 c -2.55,9.096 -7.17,17.693 -15.492,22.208 l -6.729,-10.55 2.462,12.379 c -2.863,0.936 -6.07,1.466 -9.69,1.466 l 0,-102.055 c 1.714,0 3.385,0.162 5.019,0.421 l 0,-7.013 11.008,0 0,10.998 c 4.001,2.433 7.275,5.753 9.495,9.643 C 4.519,-6.428 4.482,-6.451 4.442,-6.477 2.797,-7.494 1.074,-8.326 -0.687,-8.989 c -3.525,-1.326 -7.198,-1.956 -10.803,-2.043 3.487,0.933 6.775,2.383 9.631,4.329 3.27,1.925 7.01,5.403 9.161,7.711 C 7.527,2.187 7.659,3.395 7.698,4.624 6.879,3.975 5.845,3.267 5.403,2.946 3.692,1.722 1.874,0.752 0,0"
         id="path4092"
         style="fill:#f6e9e5;fill-opacity:1;fill-rule:nonzero;stroke:none" />
    </g>
    <g
       transform="matrix(1.25,0,0,-1.25,423.84993,511.01281)"
       id="g4094">
      <path
         d="M 0,0 C -0.354,1.796 -0.782,3.595 -1.284,5.381 L -10.427,-7.226 0,0 z"
         id="path4096"
         style="fill:#3c3c3b;fill-opacity:1;fill-rule:nonzero;stroke:none" />
    </g>
    <g
       transform="matrix(1.25,0,0,-1.25,425.92082,528.84981)"
       id="g4098">
      <path
         d="M 0,0 C -0.071,1.491 -0.18,3.067 -0.324,4.692 L -10.449,-1.378 0,0 z"
         id="path4100"
         style="fill:#3c3c3b;fill-opacity:1;fill-rule:nonzero;stroke:none" />
    </g>
    <g
       transform="matrix(1.25,0,0,-1.25,402.87943,476.52681)"
       id="g4102">
      <path
         d="M 0,0 C -1.325,0.72 -2.747,1.332 -4.267,1.829 L -6.729,-10.55 0,0 z"
         id="path4104"
         style="fill:#3c3c3b;fill-opacity:1;fill-rule:nonzero;stroke:none" />
    </g>
    <g
       transform="matrix(1.25,0,0,-1.25,415.19506,567.12731)"
       id="g4106">
      <path
         d="m 0,0 c -1.166,-1.313 -2.54,-2.521 -4.057,-3.564 -3.033,-2.107 -6.579,-3.647 -10.278,-4.732 3.848,0.247 7.745,0.957 11.49,2.468 1.873,0.752 3.692,1.722 5.403,2.946 0.442,0.32 1.476,1.028 2.295,1.678 0.009,0.254 0.027,0.505 0.027,0.761 0,1.917 -0.267,3.77 -0.716,5.565 C 3.102,3.674 0.467,0.532 0,0"
         id="path4108"
         style="fill:#3c3c3b;fill-opacity:1;fill-rule:nonzero;stroke:none" />
    </g>
    <g
       transform="matrix(1.25,0,0,-1.25,409.31443,582.79143)"
       id="g4110">
      <path
         d="m 0,0 c -2.855,-1.946 -6.144,-3.396 -9.63,-4.329 3.605,0.087 7.277,0.717 10.803,2.043 1.761,0.663 3.484,1.495 5.128,2.513 0.041,0.025 0.077,0.048 0.116,0.074 1.309,2.292 2.247,4.782 2.745,7.41 C 7.011,5.403 3.271,1.925 0,0"
         id="path4112"
         style="fill:#3c3c3b;fill-opacity:1;fill-rule:nonzero;stroke:none" />
    </g>
    <g
       transform="matrix(1.25,0,0,-1.25,373.60206,473.96206)"
       id="g4114">
      <path
         d="m 0,0 2.506,-12.602 -6.803,10.666 c -6.865,-4.158 -10.018,-9.068 -10.018,-9.068 -2.581,-3.839 -4.402,-8.278 -5.692,-12.855 l 9.434,-13.007 -10.745,7.445 c -0.637,-3.288 -1.048,-6.546 -1.31,-9.621 l 10.421,-6.246 -10.731,1.415 c -0.109,-2.483 -0.141,-4.762 -0.141,-6.695 0,-5.875 2.003,-11.316 5.517,-15.807 -0.351,-0.896 -0.632,-1.818 -0.879,-2.756 0.876,-1.265 3.865,-4.833 4.365,-5.401 1.166,-1.314 2.541,-2.521 4.058,-3.565 3.033,-2.106 6.578,-3.646 10.276,-4.731 -3.847,0.247 -7.743,0.957 -11.489,2.468 -1.873,0.752 -3.691,1.721 -5.403,2.946 -0.494,0.355 -1.727,1.199 -2.574,1.902 0.028,-1.18 0.144,-2.342 0.342,-3.479 2.079,-2.288 6.049,-6.044 9.495,-8.072 2.855,-1.947 6.144,-3.396 9.629,-4.33 -3.604,0.087 -7.276,0.717 -10.802,2.043 -1.761,0.663 -3.483,1.496 -5.129,2.513 -0.188,0.12 -0.367,0.236 -0.539,0.349 2.221,-4.008 5.553,-7.429 9.648,-9.917 l 0,-10.998 11.01,0 0,7.012 c 1.632,-0.258 3.303,-0.421 5.019,-0.421 l 0,102.056 C 5.971,1.244 2.779,0.858 0,0"
         id="path4116"
         style="fill:#d3c5c1;fill-opacity:1;fill-rule:nonzero;stroke:none" />
    </g>
    <g
       transform="matrix(1.25,0,0,-1.25,360.38619,520.04481)"
       id="g4118">
      <path
         d="m 0,0 -9.435,13.007 c -0.519,-1.843 -0.95,-3.704 -1.311,-5.562 L 0,0 z"
         id="path4120"
         style="fill:#3c3c3b;fill-opacity:1;fill-rule:nonzero;stroke:none" />
    </g>
    <g
       transform="matrix(1.25,0,0,-1.25,358.34331,530.57218)"
       id="g4122">
      <path
         d="M 0,0 -10.421,6.246 C -10.563,4.57 -10.664,2.953 -10.731,1.415 L 0,0 z"
         id="path4124"
         style="fill:#3c3c3b;fill-opacity:1;fill-rule:nonzero;stroke:none" />
    </g>
    <g
       transform="matrix(1.25,0,0,-1.25,368.23106,476.38143)"
       id="g4126">
      <path
         d="M 0,0 6.803,-10.666 4.297,1.936 C 2.946,1.519 1.686,0.997 0.552,0.337 0.361,0.224 0.185,0.111 0,0"
         id="path4128"
         style="fill:#3c3c3b;fill-opacity:1;fill-rule:nonzero;stroke:none" />
    </g>
    <g
       transform="matrix(1.25,0,0,-1.25,349.59269,568.35168)"
       id="g4130">
      <path
         d="m 0,0 c 0.846,-0.703 2.079,-1.547 2.574,-1.902 1.711,-1.225 3.53,-2.195 5.403,-2.947 3.745,-1.51 7.642,-2.22 11.489,-2.467 -3.699,1.085 -7.244,2.625 -10.277,4.731 C 7.672,-1.541 6.298,-0.334 5.132,0.979 4.631,1.548 1.642,5.115 0.767,6.381 0.273,4.502 -0.019,2.554 -0.019,0.536 -0.019,0.356 -0.003,0.179 0,0"
         id="path4132"
         style="fill:#3c3c3b;fill-opacity:1;fill-rule:nonzero;stroke:none" />
    </g>
    <g
       transform="matrix(1.25,0,0,-1.25,354.01106,582.50818)"
       id="g4134">
      <path
         d="M 0,0 C 1.646,-1.018 3.368,-1.85 5.128,-2.513 8.655,-3.839 12.327,-4.469 15.931,-4.556 12.446,-3.622 9.157,-2.173 6.302,-0.227 2.855,1.802 -1.114,5.558 -3.193,7.846 -2.734,5.191 -1.826,2.671 -0.539,0.349 -0.367,0.236 -0.188,0.12 0,0"
         id="path4136"
         style="fill:#3c3c3b;fill-opacity:1;fill-rule:nonzero;stroke:none" />
    </g>
    <g
       transform="matrix(1.25,0,0,-1.25,366.78869,513.44081)"
       id="g4138">
      <path
         d="m 0,0 c 0,-1.578 1.276,-2.857 2.854,-2.857 1.577,0 2.855,1.279 2.855,2.857 l 0,4.282 C 5.709,5.856 4.431,7.135 2.854,7.135 1.276,7.135 0,5.856 0,4.282 L 0,0 z"
         id="path4140"
         style="fill:#1d1d1b;fill-opacity:1;fill-rule:nonzero;stroke:none" />
    </g>
    <g
       transform="matrix(1.25,0,0,-1.25,396.93893,513.44081)"
       id="g4142">
      <path
         d="m 0,0 c 0,-1.578 1.278,-2.857 2.855,-2.857 1.578,0 2.856,1.279 2.856,2.857 l 0,4.282 C 5.711,5.856 4.433,7.135 2.855,7.135 1.278,7.135 0,5.856 0,4.282 L 0,0 z"
         id="path4144"
         style="fill:#1d1d1b;fill-opacity:1;fill-rule:nonzero;stroke:none" />
    </g>
    <g
       transform="matrix(1.25,0,0,-1.25,353.88656,471.67081)"
       id="g4146">
      <path
         d="M 0,0 C -0.639,1.429 0,3.104 1.432,3.744 2.859,4.383 4.536,3.743 5.176,2.315 l 3.455,-7.732 c 1.057,0.74 2.194,1.399 3.396,1.985 L 8.005,5.564 C 6.483,8.966 2.496,10.488 -0.905,8.97 -4.306,7.449 -5.83,3.458 -4.308,0.061 l 5.766,-12.898 c 0.827,1.228 1.733,2.394 2.724,3.485 L 0,0 z"
         id="path4148"
         style="fill:#f6e9e5;fill-opacity:1;fill-rule:nonzero;stroke:none" />
    </g>
    <g
       transform="matrix(1.25,0,0,-1.25,355.67606,466.99056)"
       id="g4150">
      <path
         d="m 0,0 c -1.431,-0.64 -2.07,-2.315 -1.432,-3.744 l 4.182,-9.352 c 1.324,1.464 2.805,2.783 4.449,3.935 L 3.745,-1.429 C 3.104,-0.001 1.428,0.639 0,0"
         id="path4152"
         style="fill:#d76c79;fill-opacity:1;fill-rule:nonzero;stroke:none" />
    </g>
    <g
       transform="matrix(1.25,0,0,-1.25,417.17143,471.67081)"
       id="g4154">
      <path
         d="M 0,0 C 0.64,1.429 0,3.104 -1.43,3.744 -2.859,4.383 -4.534,3.743 -5.175,2.315 L -8.63,-5.417 c -1.059,0.74 -2.194,1.399 -3.397,1.985 l 4.023,8.996 C -6.483,8.966 -2.496,10.488 0.908,8.97 4.306,7.449 5.83,3.458 4.31,0.061 l -5.767,-12.898 c -0.826,1.228 -1.733,2.394 -2.724,3.485 L 0,0 z"
         id="path4156"
         style="fill:#f6e9e5;fill-opacity:1;fill-rule:nonzero;stroke:none" />
    </g>
    <g
       transform="matrix(1.25,0,0,-1.25,415.38431,466.99056)"
       id="g4158">
      <path
         d="m 0,0 c 1.43,-0.64 2.069,-2.315 1.43,-3.744 l -4.181,-9.352 c -1.324,1.464 -2.804,2.783 -4.449,3.935 l 3.454,7.732 C -3.104,-0.001 -1.429,0.639 0,0"
         id="path4160"
         style="fill:#d76c79;fill-opacity:1;fill-rule:nonzero;stroke:none" />
    </g>
    <g
       transform="matrix(1.25,0,0,-1.25,372.13419,610.67831)"
       id="g4162">
      <path
         d="m 0,0 c 0.462,0 0.843,-0.376 0.843,-0.841 l 0,-2.109 8.855,0 c 0,5.292 -4.293,9.58 -9.583,9.58 -5.292,0 -9.583,-4.288 -9.583,-9.58 l 8.624,0 0,2.109 C -0.844,-0.376 -0.469,0 0,0"
         id="path4164"
         style="fill:#3c3c3b;fill-opacity:1;fill-rule:nonzero;stroke:none" />
    </g>
    <g
       transform="matrix(1.25,0,0,-1.25,398.44156,610.67831)"
       id="g4166">
      <path
         d="m 0,0 c 0.465,0 0.845,-0.376 0.845,-0.841 l 0,-2.109 8.854,0 c 0,5.292 -4.289,9.58 -9.584,9.58 -5.289,0 -9.578,-4.288 -9.578,-9.58 l 8.619,0 0,2.109 C -0.844,-0.376 -0.468,0 0,0"
         id="path4168"
         style="fill:#3c3c3b;fill-opacity:1;fill-rule:nonzero;stroke:none" />
    </g>
    <g
       transform="matrix(1.25,0,0,-1.25,382.22031,527.00281)"
       id="g4170">
      <path
         d="M 0,0 2.57,15.48 5.14,0 0,0 z"
         id="path4172"
         style="fill:#3c3c3b;fill-opacity:1;fill-rule:nonzero;stroke:none" />
    </g>
    <g
       transform="matrix(1.25,0,0,-1.25,421.52506,549.98743)"
       id="g4174">
      <path
         d="m 0,0 c 0,-10.434 -12.927,-21.112 -28.872,-21.112 -15.945,0 -28.875,10.678 -28.875,21.112 0,10.431 12.93,18.888 28.875,18.888 C -12.927,18.888 0,10.431 0,0"
         id="path4176"
         style="fill:#3c3c3b;fill-opacity:1;fill-rule:nonzero;stroke:none" />
    </g>
    <g
       transform="matrix(1.25,0,0,-1.25,369.08244,546.34243)"
       id="g4178">
      <path
         d="m 0,0 c 0,-2.289 -1.857,-4.146 -4.148,-4.146 -2.29,0 -4.146,1.857 -4.146,4.146 0,2.291 1.856,4.147 4.146,4.147 C -1.857,4.147 0,2.291 0,0"
         id="path4180"
         style="fill:#9c9b9b;fill-opacity:1;fill-rule:nonzero;stroke:none" />
    </g>
    <g
       transform="matrix(1.25,0,0,-1.25,412.27518,546.34243)"
       id="g4182">
      <path
         d="m 0,0 c 0,-2.289 -1.856,-4.146 -4.148,-4.146 -2.29,0 -4.145,1.857 -4.145,4.146 0,2.291 1.855,4.147 4.145,4.147 C -1.856,4.147 0,2.291 0,0"
         id="path4184"
         style="fill:#9c9b9b;fill-opacity:1;fill-rule:nonzero;stroke:none" />
    </g>
    <g
       transform="matrix(1.25,0,0,-1.25,378.05094,569.01331)"
       id="g4186">
      <path
         d="M 0,0 C 0,-2.567 1.178,-2.519 2.709,-2.708 4.406,-2.823 5.417,-2.828 5.417,0 l 0,1.724 C 5.417,1.435 0,2.124 0,2.124 L 0,0 z"
         id="path4188"
         style="fill:#f6e9e5;fill-opacity:1;fill-rule:nonzero;stroke:none" />
    </g>
    <g
       transform="matrix(1.25,0,0,-1.25,392.84281,569.01331)"
       id="g4190">
      <path
         d="M 0,0 C 0,-2.567 -1.177,-2.519 -2.708,-2.708 -4.406,-2.823 -5.417,-2.828 -5.417,0 l 0,1.724 C -5.417,1.435 0,2.124 0,2.124 L 0,0 z"
         id="path4192"
         style="fill:#f6e9e5;fill-opacity:1;fill-rule:nonzero;stroke:none" />
    </g>
    <g
       transform="matrix(1.25,0,0,-1.25,385.94831,568.24181)"
       id="g4194">
      <path
         d="m 0,0 c -12.143,0 -20.63,6.312 -20.985,6.579 -0.271,0.204 -0.326,0.591 -0.121,0.861 0.205,0.272 0.59,0.324 0.862,0.119 0.083,-0.062 8.53,-6.33 20.244,-6.33 11.693,0 19.342,6.251 19.419,6.313 0.26,0.217 0.647,0.184 0.865,-0.079 C 20.502,7.202 20.467,6.814 20.207,6.599 19.882,6.329 12.158,0 0,0"
         id="path4196"
         style="fill:#f6e9e5;fill-opacity:1;fill-rule:nonzero;stroke:none" />
    </g>
    <g
       transform="matrix(1.25,0,0,-1.25,377.10856,451.97356)"
       id="g4198">
      <path
         d="m 0,0 c 2.212,-1.775 3.678,-3.608 4.994,-5.162 0.67,-0.813 1.146,-1.247 1.817,-2.001 0.682,-0.803 1.434,-1.79 2.05,-2.894 1.263,-2.201 2.04,-4.873 2.002,-7.511 -0.064,-2.644 -0.824,-5.251 -2.723,-7.397 -1.718,2.286 -2.847,4.144 -3.921,5.825 -1.061,1.684 -1.989,3.158 -2.918,4.814 -0.475,0.834 -0.927,1.707 -1.437,2.778 -0.548,1.103 -1.095,2.65 -1.208,3.917 C -1.615,-5.038 -1.287,-2.563 0,0"
         id="path4200"
         style="fill:#3c3c3b;fill-opacity:1;fill-rule:nonzero;stroke:none" />
    </g>
    <g
       transform="matrix(1.25,0,0,-1.25,399.31743,507.65218)"
       id="g4202">
      <path
         d="m 0,0 c 0,-0.919 0.663,-1.665 1.48,-1.665 0.818,0 1.48,0.746 1.48,1.665 0,0.92 -0.662,1.666 -1.48,1.666 C 0.663,1.666 0,0.92 0,0"
         id="path4204"
         style="fill:#ffffff;fill-opacity:1;fill-rule:nonzero;stroke:none" />
    </g>
    <g
       transform="matrix(1.25,0,0,-1.25,369.12519,507.65218)"
       id="g4206">
      <path
         d="m 0,0 c 0,-0.919 0.663,-1.665 1.48,-1.665 0.818,0 1.481,0.746 1.481,1.665 0,0.92 -0.663,1.666 -1.481,1.666 C 0.663,1.666 0,0.92 0,0"
         id="path4208"
         style="fill:#ffffff;fill-opacity:1;fill-rule:nonzero;stroke:none" />
    </g>
  </g>
</svg>
